<?xml version="1.0" encoding="UTF-8"?>
<!DOCTYPE svg PUBLIC "-//W3C//DTD SVG 1.1//EN" "http://www.w3.org/Graphics/SVG/1.1/DTD/svg11.dtd">
<!-- Creator: CorelDRAW 2019 (64-Bit) -->
<svg xmlns="http://www.w3.org/2000/svg" xml:space="preserve" width="270px" height="100px" version="1.1" style="shape-rendering:geometricPrecision; text-rendering:geometricPrecision; image-rendering:optimizeQuality; fill-rule:evenodd; clip-rule:evenodd"
viewBox="0 0 2700 1000"
 xmlns:xlink="http://www.w3.org/1999/xlink">
 <defs>
  <style type="text/css">
   <![CDATA[
    .fil0 {fill:white}
   ]]>
  </style>
 </defs>
 <g id="Layer_x0020_1">
  <metadata id="CorelCorpID_0Corel-Layer"/>
  <g id="_1624033681056">
   <path class="fil0" d="M92.4 588.4c15,0 28.1,-3.8 37.4,15.4 2.1,4.3 2.9,6.5 3.7,10.7 2.8,15.3 5.7,10.1 24.2,19 5.7,2.8 11.5,5.6 18.6,8.6l19.6 9.1c51.8,22 35.8,23.8 57.4,2.1 16.1,-16.1 31.4,-15.3 51.9,-15.3 7,0 21,9.6 24,9.6 5.4,0 57.4,-55.1 65.2,-62.8 19.6,-19.5 6.8,-10.1 6.8,-26.8 0,-21.2 -0.5,-9.8 3.2,-25.6 -5.6,-8.4 -28.4,-15.5 -38.8,-20.5 -3.5,-1.7 0.3,-0.1 -4.5,-1.9l-70.7 -31.6c-3.3,-1.6 -2,-1.1 -4.2,-2.2l-13 -6.2c-12.6,6.6 -19.5,14.4 -35.2,14.4 -6.5,0 -19.1,-7.1 -22.8,-10.8 -12.9,-12.9 -12.7,-34.7 -2.9,-48.5 14.9,-20.9 60.2,-20.3 65.5,21 0.3,1.9 0.2,2.4 0.6,4.3 1.8,8.5 7.1,9 16.2,12.6l97.3 43.4c4,1.7 5.2,2 9,3.9 25.8,13.5 15.8,3.5 37.1,2.9 13.9,-0.4 13.4,-7 22.8,-26.8 3,-6.3 4.7,-11.6 7.9,-17.7l15.9 -33.7c26.2,-51 11,-26.6 11,-54.6 0,-8.7 8.3,-22.4 17.6,-22.4 37.6,0 22.3,24.5 32.9,34.3l33.8 26.9c12,9 21.3,17.1 33.2,26.1l25.1 19.7c16.6,13.7 7.5,1.8 35,1.8 9.2,0 15.7,4.6 20.9,11.1 2.5,3.1 4.3,5.2 5.7,10.3 0.2,0.8 1.3,6.2 1.3,6.6 1.5,16.3 -7.4,8.7 25.8,28.7l75.6 44.4c3.4,1.9 3.9,2.5 8,4.8 2.7,1.4 5.3,2.9 8.3,4.5 15.2,-13.3 32.2,-25.7 46.8,-39.6 6.5,-6.2 46,-35.8 46,-42 0,-10.2 -5.5,-33 24.3,-38.1 11.9,-2 7.7,-7 7.7,-24.3l1.6 -169.6c0,-4.7 -7.6,-7.7 -11.1,-9.7 -4.1,-2.5 -8.8,-5.4 -13,-7.8 -8.7,-5.3 -16.8,-10.6 -26,-15.6 -32.4,-17.6 -97.1,-57.2 -132.6,-78.6 -9.4,-5.7 -17.7,-10.3 -27.2,-16 -9.1,-5.5 -16.7,-10.1 -26,-15.6l-158.6 -94.2c-7.1,-4.3 -20.7,-13.6 -27.9,-15.3 -12.2,8.2 -26.8,14.9 -39.9,22.4 -28.9,16.7 -72.2,42.2 -100.4,56.5 -7.4,3.8 -13.2,7.3 -20.4,11.6l-121 67.8c-6.9,4 -13.7,7.4 -20.6,11.4l-120.2 67c-3.5,2.7 -4.1,6.1 -4.6,11.4 -1.9,20.6 -0.1,57.9 -0.1,79.9 0,82.7 -3.2,165.9 -3.2,249.6z"/>
   <path class="fil0" d="M297.2 756.4c-18.3,0 -22.5,-3.2 -32,-3.2l-38.2 56.2c-3.2,4.5 -3.5,2.7 -5,9.4 31.5,16.7 113.6,66.6 144.9,85.5 6.9,4.2 137.4,83.6 146.3,85.7 14.5,-9.7 61.2,-34.5 78.9,-44.3l143.5 -80.5c6.6,-3.4 26.9,-14 30.4,-19.2 -2.1,-7.9 -9.7,-11.6 -15.5,-16.5 -9.7,-8.1 -45.4,-45.1 -51.7,-45.9 -7.7,1.8 -6.4,4.2 -13.2,6 -12.6,3.3 -28,3.3 -39.5,-3 -0.3,-0.1 -0.7,-0.4 -1,-0.5 -14.1,-7.8 -11.1,-8.6 -17.5,-16.1 -2.9,-3.4 -0.6,-4 -7.2,-4 -2.4,0 -20.2,5.6 -23.5,6.9 -5.1,1.9 -5.8,1.6 -11.3,3.1l-69.2 22c-4.3,1.5 -8.1,1.8 -12.6,3.4 -46.5,16.2 -16,6.3 -34.9,25.9 -3.4,3.5 -4.9,5.2 -8.8,7.2 -11,5.9 -24.9,8.2 -35.9,2.9 -26.6,-12.8 -23,-31.1 -23,-53.8 -10.8,-7.2 -20.3,-13.9 -31.1,-21.7 -5.6,-4.1 -9.8,-6.5 -15.1,-10.5 -23.5,-17.8 -12.9,-11.1 -34.3,-0.3 -7.2,3.7 -13.2,5.3 -23.5,5.3z"/>
   <path class="fil0" d="M676.4 538.8l0 145.6c0,14 15.4,8.3 29.2,22 16.6,16.5 16.8,42.5 6,62.8 4,6 2.6,4.8 8.2,9.4l45.8 42.2c14.8,14.1 4.6,2.8 29.2,2.8 16.3,0 -5.4,10.4 33.1,-10.1l80 -44.8c6,-3.2 10.6,-6 16.5,-9.1 -3,-8.4 -8,-0.6 -9.6,-20.8 -0.7,-10.1 -18.1,-30.1 -24,-38.4l-26 -36.4c-12.1,-16.1 -44,-66.9 -57.9,-74.9l-15 -9c-13.1,-7.2 -25.9,-14.9 -39.4,-23 -6.8,-4.1 -54.1,-34 -59.8,-33.3 -2.4,0.2 -8.4,4.1 -10.1,5.2 -4.3,2.7 -6.2,2.8 -6.2,9.8z"/>
   <path class="fil0" d="M450.8 590c-39,0 -16.5,-1.2 -32,-4.8 -3.4,2.2 -75.2,71.6 -75.2,76.8 0,3.2 11.2,16.8 11.2,35.2 0,10 -4.5,18.9 -6.4,27.2 7.6,8 45.8,33.7 58,42.9 11.7,8.8 15.8,-4.5 23.6,-4.5 16,0 34,-2 44.6,21 5.9,12.9 10.3,7.4 31.3,0.5l22.1 -6.7c6.8,-1.6 6.1,-1.7 11,-3.4l44.4 -13.2c44.2,-15.4 30.7,-3.2 38.2,-33.8 1.6,-6.7 6.8,-14 10,-18.8l-77.5 -68.1c-4.7,-3.7 -5.3,-4.3 -9.3,-8.3 -3.9,-3.9 -5.6,-4.6 -9.6,-8.1l-39.4 -34.1c-23.3,-18.9 -16.4,-21.2 -31.8,-7.4 -2,1.8 -10.7,7.6 -13.2,7.6z"/>
   <path class="fil0" d="M646 697.2c4.8,0 10.3,-3.5 16,-4.8 0.3,-4.1 0.8,-4.3 0.8,-6.4l-0.8 -142.4c0,-5.5 1,-3.7 0.9,-6.6 0,-1.2 -0.1,-2.2 -0.6,-3.3 -2.2,-5 -9.2,-6.6 -14.1,-10 -5.8,-3.9 -11.8,-15.7 -11.8,-24.9 0,-16.2 5.6,-9.2 -9.1,-21.3l-72 -57.6c-15.9,-12.9 -18.7,-18.1 -28.4,-16.4 -14,2.4 -12.7,4.9 -21.6,24.9 -2.6,5.9 -4.8,10.2 -7.7,16.4l-22.5 47.9c-18.9,39.3 -10.1,20.6 -0.4,41.4 14.2,30.4 -11.8,5.2 31.8,43.4 1.3,1.1 1.1,0.9 2.6,2.2l36.5 30.7c4.4,3.9 6.5,7 11.5,10.9l24.3 20.5c0.3,0.2 0.6,0.5 0.9,0.7l37.7 32.7c2.3,2.2 25.7,22 26,22z"/>
   <path class="fil0" d="M2420.5 447.6l44.8 0 0 -91.2c0,-76.5 71.5,-71.2 89.9,-46.7 6.4,8.6 9.3,25.3 9.3,40.3l0 97.6 44.8 0 0 -118.4c0,-21.1 -9.7,-42.3 -20.4,-53.3 -23.9,-24.8 -68.5,-27.6 -99,-14.9 -10.2,4.3 -16.4,9.9 -24.6,15.4l0 -96 -44.8 0 0 267.2z"/>
   <path class="fil0" d="M1183.6 314.8c0,25.7 0.9,39.9 11.7,63.5 18.5,39.8 65.3,72.5 113.1,72.5 29.1,0 46.4,-0.1 73.1,-13.3 7.5,-3.8 14.8,-7.7 20.9,-12.8 8.2,-7 10.4,-8.2 16.4,-17.1 -9.4,-6.3 -21.2,-21.1 -30.4,-27.2 -18.2,12.2 -26.8,28.8 -68.8,28.8 -12.8,0 -25.5,-3 -35,-6.6 -11.2,-4.3 -17.6,-9.2 -26.7,-16.5 -4.5,-3.5 -6.2,-6.5 -9.8,-11 -26.1,-32 -20.2,-93.6 9.8,-117.3 30.5,-24.1 68.7,-30.8 103.8,-13.9 4.7,2.3 9.9,5.8 13.7,8.7 5.3,3.9 8.3,7.8 13,11 11.2,-7.5 19.1,-19.6 30.4,-27.2 -6,-9 -8.2,-10.2 -16.4,-17.2 -6.1,-5.1 -13.4,-9 -20.9,-12.7 -61.1,-30.4 -152.9,-10.7 -185.6,58.1 -6.2,12.9 -12.3,32 -12.3,50.2z"/>
   <path class="fil0" d="M2076.4 290.8c49.6,0 50.8,30.5 57.6,44.8l-108.8 0c3.5,-7.2 4.7,-21.3 16.7,-31.4 7.9,-6.7 20.7,-13.4 34.5,-13.4zm-96 52.8c0,36.7 3.6,53.9 30,80.4 32.1,32.3 103.1,36.5 140.4,8.3 5.8,-4.4 8.4,-8.4 13.6,-11.9 -4.7,-7 -6.1,-7.9 -11.5,-14l-12.5 -14.8c-16.1,10.8 -24.8,20.8 -52.8,20.8 -29.7,0 -60.1,-18.9 -60.8,-46.4l150.4 0c0,-36.3 -2,-55.6 -25.3,-83.5 -2.4,-2.9 -8.6,-7.6 -12.1,-10.3 -43.2,-32.6 -121.4,-23.5 -149.8,34.5 -4.7,9.7 -9.6,22.5 -9.6,36.9z"/>
   <path class="fil0" d="M1626.8 482.8c-19.3,0 -23.1,-3.7 -36.8,-12.8 -3,5.6 -5.1,11 -8.6,16.9 -3.7,6.1 -7.3,11.1 -9,18.3 0.1,0 54.9,36.3 97.9,1.9 18.6,-14.9 29.8,-44.5 39,-66.6l71.4 -165.5c2.3,-5.6 6.2,-13 7.7,-19.4l-44.8 0c-0.5,6.4 -10.6,26.9 -13.7,34.2 -5.3,12.6 -9.3,22.7 -14.6,35l-21.9 51.7c-2.6,6 -5.9,12.1 -7.4,18.3l-3.2 0c-1.2,-5.2 -4.4,-12.2 -6.6,-17.4 -2.1,-5.2 -4.6,-10.9 -7.2,-16.8l-43.8 -105 -48 0c2,8.5 8.5,20.6 12.1,29.5 4.6,10.8 8.4,19.3 13.1,30.1l52.2 120.6c6.7,14.9 7.2,15.3 -1.8,29.7 -5.3,8.5 -12.8,17.3 -26,17.3z"/>
   <polygon class="fil0" points="1774,236.4 1857.2,236.4 1857.2,447.6 1905.2,447.6 1905.2,236.4 1988.4,236.4 1988.4,196.4 1774,196.4 "/>
   <path class="fil0" d="M103.6 647.6c-5.9,0 -3.8,-1.5 -11.2,-1.6 -3.6,15.5 -1.6,71.4 -1.6,91.2 0,4.7 8.1,7.9 12.1,10.3 31,18.4 76,46.5 104.7,61.7l37 -54.2c20,-28.3 -9.8,-4.2 -9.8,-67.4 -2.3,-1.5 -4.1,-3 -6.7,-4.5l-90.1 -41.1c-19.5,-9.5 -15.3,5.6 -34.4,5.6z"/>
   <path class="fil0" d="M2295.7 450.8c23.2,0 43,-0.7 62.1,-13.1 10.9,-7.1 25.8,-19.4 29.1,-33.3l-35.2 -19.2c-5,7.4 -9.7,14.2 -18.1,18.7 -32.2,17.4 -70.1,5.5 -82.6,-26.9 -15.3,-39.9 7.2,-84.6 52.7,-84.6 23.2,0 40,12.1 48,27.2l35.2 -20.8c-6.1,-22.6 -43.6,-44.8 -73.6,-44.8 -34.3,0 -60.3,4.3 -85.3,28.3 -17.6,16.9 -27.3,43.6 -28,69.4 -0.7,21.4 7.9,45.9 21.5,62.8 6.8,8.3 9.3,10.9 19.1,17.8 14.5,10.1 35.6,18.5 55.1,18.5z"/>
   <path class="fil0" d="M1190 806l22.4 0 0 -171.2c4.8,3.5 59.6,99 65.5,108.9l16.1 27.1c4.2,8.3 3.6,8 12.8,8 5.8,0 18,-25.5 23.3,-34.3 7.9,-12.9 14.3,-24.3 22,-37.2l37.8 -64.6c1.1,-1.9 1.7,-3.1 3,-5l3.5 -4.5 0 172.8 22.4 0 0 -219.2 -20.8 0c-1.1,5 -7.5,14.9 -10.5,19.9l-34.8 59.6c-4,6.7 -44.5,74.5 -45.9,80.5 -5.8,-1.6 -7.5,-7.7 -13.7,-18.3l-47.4 -80.6c-4.2,-7 -7.4,-13 -11.8,-20.2 -4.3,-7.1 -21.8,-35.4 -23.1,-40.9l-20.8 0 0 219.2z"/>
   <path class="fil0" d="M2462.1 719.6c0,-30.9 24,-59.2 56,-59.2 28.1,0 51.3,5.1 64,33.6 16.1,36.1 -7.6,84.8 -51.2,84.8 -15.2,0 -21.8,0.9 -35.8,-5.8 -20.7,-10 -33,-31.1 -33,-53.4zm-22.4 -8c0,27.4 2.4,44.8 22.7,65.2 25.3,25.4 74.7,30.2 101.8,12.9 9.4,-5.9 15.8,-12.6 22.7,-20.5 0,28.6 0.1,58.2 -24.5,71.5 -20.2,11 -57,8 -77.3,-0.2 -15.7,-6.3 -15.7,-9.3 -24.6,-15.3 -3.2,5.9 -9.7,13.5 -11.2,19.2 9.3,6.3 17.5,12.4 29.7,16.6 24.5,8.5 62.6,11.3 87.6,1.5 27.5,-10.8 42.7,-37.2 42.7,-66.1l0 -155.2 -22.4 0 0 28.8c-6.9,-8 -13.3,-14.6 -22.7,-20.5 -29.9,-19 -92.8,-13.8 -116,32.2 -4.3,8.4 -8.5,18.1 -8.5,29.9z"/>
   <path class="fil0" d="M935.6 727.6c7.7,0 4.8,-15.1 4.8,-22.4l0 -81.6c2.2,-40.6 1.6,-67.5 1.6,-108.8 -23.7,0 -14.6,-9 -26.9,1.9l-69.3 58.7c-17,13.7 -20.9,8 10.9,50.3 4.2,5.5 6.8,8.9 10.7,14.8 7.1,10.7 14.4,19.3 21.5,29.8 3.9,5.7 6.3,9.3 10.6,15 4.2,5.5 6.6,9.9 10.5,15.1 3.7,4.9 7.3,9.3 10.9,14.7 3.1,4.6 7.9,12.5 14.7,12.5z"/>
   <path class="fil0" d="M1498.8 281.2l0 -25.6 -43.2 0 0 192 44.8 0c0,-27.9 -2.8,-94.9 4.2,-117.4 3.2,-10.1 6.3,-14.3 13,-20.7 9.2,-8.8 21,-12.2 34.5,-13.6 7.8,-0.8 7.1,1.3 15.5,1.3l0 -43.2c-30.7,0 -48.7,4.1 -68.8,27.2z"/>
   <path class="fil0" d="M2191.6 666.8l0 -25.6 -22.4 0 0 164.8 22.4 0 0 -83.2c0,-18.2 4.7,-34.2 13.3,-44.4 19.4,-23 94,-38 94,39.6l0 88 22.4 0 0 -102.4c0,-36.2 -25.9,-64 -62.4,-64 -50,0 -49,14.9 -67.3,27.2z"/>
   <path class="fil0" d="M1742 666.8l0 -25.6 -22.4 0 0 164.8 22.4 0 0 -83.2c0,-73.9 76.2,-73.3 97,-45.8 7.6,10 10.2,24.2 10.2,41l0 88 22.4 0 0 -102.4c0,-36.2 -25.8,-64 -62.4,-64 -49.9,0 -48.9,14.9 -67.2,27.2z"/>
   <polygon class="fil0" points="2007.6,806 2030,806 2030,641.2 2007.6,641.2 "/>
   <polygon class="fil0" points="1559.6,806 1582,806 1582,641.2 1559.6,641.2 "/>
   <path class="fil0" d="M2002.8 588.4c0,11.6 5.5,17.6 17.6,17.6 18.3,0 23.3,-32 -3.2,-32 -7.9,0 -14.4,6.5 -14.4,14.4z"/>
   <path class="fil0" d="M1554.8 588.4c0,11.6 5.5,17.6 17.6,17.6 18.2,0 23.3,-32 -3.2,-32 -7.9,0 -14.4,6.5 -14.4,14.4z"/>
  </g>
 </g>
</svg>
