<?xml version="1.0" encoding="UTF-8"?>
<!DOCTYPE svg PUBLIC "-//W3C//DTD SVG 1.1//EN" "http://www.w3.org/Graphics/SVG/1.1/DTD/svg11.dtd">
<!-- Creator: CorelDRAW 2019 (64-Bit) -->
<svg xmlns="http://www.w3.org/2000/svg" xml:space="preserve" width="319px" height="319px" version="1.1" style="shape-rendering:geometricPrecision; text-rendering:geometricPrecision; image-rendering:optimizeQuality; fill-rule:evenodd; clip-rule:evenodd"
viewBox="0 0 3190 3190"
 xmlns:xlink="http://www.w3.org/1999/xlink"
 xmlns:xodm="http://www.corel.com/coreldraw/odm/2003">
 <defs>
  <style type="text/css">
   <![CDATA[
    .fil0 {fill:#313842}
   ]]>
  </style>
 </defs>
 <g id="Layer_x0020_1">
  <metadata id="CorelCorpID_0Corel-Layer"/>
  <path class="fil0" d="M1586.6 29.7l102 59 -171.4 374.4 -199 -278.4 268.4 -155zm128.3 74.1l549.7 317.4 51.3 29.6 -347.9 643.1 -430.6 -602.5 177.5 -387.6zm627.2 362.1l600.6 346.8 0 782.9 0 17.1 -256.1 486.4 -699 -977.9 354.5 -655.3zm600.6 1211.7l0 701 -40 23 -196.5 -275 236.5 -449zm-66.2 739.2l-464.2 268 278.2 -528.3 186 260.3zm-513.2 296.3l-98.7 56.9 -359.3 207.5 -554.2 -680 620.5 -1146.8 699.2 978.3 -307.5 584.1zm-484.5 279.7l-292.2 168.7 -535.6 -309.2 284.6 -526.1 543.2 666.6zm-854 -155.6l-116.3 -67.2 -327.5 -189.1 346 -756 388 476 -290.2 536.3zm-470.1 -271.4l-324.2 -187.2 0 -783 0 -625.5 675.3 828.7 -351.1 767zm-324.2 -1643.4l0 -109.7 678 -391.5 383.4 -221.4 210.8 295 -582.9 1273.4 -689.3 -845.8zm1100 1349.8l621.5 -1148.8 -429 -600.3 -582 1271.2 389.5 477.9z"/>
 </g>
</svg>
