<?xml version="1.0" encoding="UTF-8"?>
<!DOCTYPE svg PUBLIC "-//W3C//DTD SVG 1.1//EN" "http://www.w3.org/Graphics/SVG/1.1/DTD/svg11.dtd">
<!-- Creator: CorelDRAW 2019 (64-Bit) -->
<svg xmlns="http://www.w3.org/2000/svg" xml:space="preserve" width="697px" height="402px" version="1.1" style="shape-rendering:geometricPrecision; text-rendering:geometricPrecision; image-rendering:optimizeQuality; fill-rule:evenodd; clip-rule:evenodd"
viewBox="0 0 6970 4016.6"
 xmlns:xlink="http://www.w3.org/1999/xlink"
 xmlns:xodm="http://www.corel.com/coreldraw/odm/2003">
 <defs>
  <style type="text/css">
   <![CDATA[
    .fil37 {fill:#FEFEFE;fill-rule:nonzero}
    .fil67 {fill:#FCEDF3;fill-rule:nonzero}
    .fil59 {fill:#FFDB54;fill-rule:nonzero}
    .fil60 {fill:#F8C124;fill-rule:nonzero}
    .fil66 {fill:#F6FBFC;fill-rule:nonzero}
    .fil61 {fill:#F3B718;fill-rule:nonzero}
    .fil71 {fill:#E9D1D7;fill-rule:nonzero}
    .fil58 {fill:#DD8121;fill-rule:nonzero}
    .fil70 {fill:#D4E8F8;fill-rule:nonzero}
    .fil69 {fill:#B4A2B3;fill-rule:nonzero}
    .fil57 {fill:#9E9DCD;fill-rule:nonzero}
    .fil73 {fill:#9D8A9C;fill-rule:nonzero}
    .fil22 {fill:#8DD0E1;fill-rule:nonzero}
    .fil68 {fill:#565EA6;fill-rule:nonzero}
    .fil63 {fill:#55559F;fill-rule:nonzero}
    .fil62 {fill:#363576;fill-rule:nonzero}
    .fil20 {fill:#393183;fill-rule:nonzero}
    .fil21 {fill:#8155F3;fill-rule:nonzero}
    .fil36 {fill:url(#id4)}
    .fil50 {fill:url(#id5)}
    .fil51 {fill:url(#id6)}
    .fil80 {fill:url(#id7)}
    .fil44 {fill:url(#id8)}
    .fil27 {fill:url(#id9)}
    .fil79 {fill:url(#id10)}
    .fil39 {fill:url(#id11)}
    .fil43 {fill:url(#id12)}
    .fil47 {fill:url(#id13)}
    .fil7 {fill:url(#id14)}
    .fil42 {fill:url(#id15)}
    .fil65 {fill:url(#id16)}
    .fil53 {fill:url(#id17)}
    .fil54 {fill:url(#id18)}
    .fil81 {fill:url(#id19)}
    .fil40 {fill:url(#id20)}
    .fil82 {fill:url(#id21)}
    .fil72 {fill:url(#id22)}
    .fil64 {fill:url(#id23)}
    .fil46 {fill:url(#id24)}
    .fil48 {fill:url(#id25)}
    .fil1 {fill:url(#id26)}
    .fil77 {fill:url(#id27)}
    .fil55 {fill:url(#id28)}
    .fil13 {fill:url(#id29)}
    .fil5 {fill:url(#id30)}
    .fil8 {fill:url(#id31)}
    .fil29 {fill:url(#id32)}
    .fil0 {fill:url(#id33)}
    .fil12 {fill:url(#id34)}
    .fil4 {fill:url(#id35)}
    .fil78 {fill:url(#id36)}
    .fil19 {fill:url(#id37)}
    .fil32 {fill:url(#id38)}
    .fil52 {fill:url(#id39)}
    .fil76 {fill:url(#id40)}
    .fil74 {fill:url(#id41)}
    .fil16 {fill:url(#id42)}
    .fil28 {fill:url(#id43)}
    .fil24 {fill:url(#id44)}
    .fil35 {fill:url(#id45)}
    .fil11 {fill:url(#id46)}
    .fil26 {fill:url(#id47)}
    .fil83 {fill:url(#id48)}
    .fil38 {fill:url(#id49)}
    .fil14 {fill:url(#id50)}
    .fil49 {fill:url(#id51)}
    .fil10 {fill:url(#id52)}
    .fil45 {fill:url(#id53)}
    .fil25 {fill:url(#id54)}
    .fil33 {fill:url(#id55)}
    .fil34 {fill:url(#id56)}
    .fil3 {fill:url(#id57)}
    .fil2 {fill:url(#id58)}
    .fil41 {fill:url(#id59)}
    .fil75 {fill:url(#id60)}
    .fil56 {fill:url(#id61)}
    .fil15 {fill:url(#id62)}
    .fil30 {fill:url(#id63)}
    .fil6 {fill:url(#id64)}
    .fil31 {fill:url(#id65)}
    .fil23 {fill:url(#id66)}
    .fil18 {fill:url(#id67)}
    .fil9 {fill:url(#id68)}
    .fil17 {fill:url(#id69)}
   ]]>
  </style>
    <clipPath id="id0">
     <path d="M5250 2274.3l-1 -0.6 1 -0.5 0 1.1 0 0z"/>
    </clipPath>
    <clipPath id="id1">
     <path d="M4859.2 2033.9l0 0 82.8 -47.7 0 0 -82.8 47.7 0 0z"/>
    </clipPath>
    <clipPath id="id2">
     <path d="M5249 2273.7l-93 -53.7 0 -1.1 94 54.3 -1 0.5 0 0z"/>
    </clipPath>
    <clipPath id="id3">
     <path d="M5156 2220l-103.7 -59.9 0.9 -0.6 102.8 59.3 0 1.2 0 0z"/>
    </clipPath>
  <linearGradient id="id4" gradientUnits="userSpaceOnUse" x1="5096" y1="974.3" x2="5402.3" y2="1151.1">
   <stop offset="0" style="stop-opacity:1; stop-color:#CFDBF1"/>
   <stop offset="1" style="stop-opacity:1; stop-color:#F0F8FC"/>
  </linearGradient>
  <linearGradient id="id5" gradientUnits="userSpaceOnUse" xlink:href="#id4" x1="3889.8" y1="2348.7" x2="4196.1" y2="2525.5">
  </linearGradient>
  <linearGradient id="id6" gradientUnits="userSpaceOnUse" xlink:href="#id4" x1="3889.8" y1="2348.7" x2="4196.1" y2="2525.5">
  </linearGradient>
  <linearGradient id="id7" gradientUnits="userSpaceOnUse" xlink:href="#id4" x1="4848" y1="2139.8" x2="5154.2" y2="1963">
  </linearGradient>
  <linearGradient id="id8" gradientUnits="userSpaceOnUse" xlink:href="#id4" x1="4848" y1="1570.5" x2="5154.2" y2="1393.7">
  </linearGradient>
  <linearGradient id="id9" gradientUnits="userSpaceOnUse" x1="6680.8" y1="1673.3" x2="5964.4" y2="2244.7">
   <stop offset="0" style="stop-opacity:1; stop-color:#CCDAF1"/>
   <stop offset="1" style="stop-opacity:1; stop-color:#6372B5"/>
  </linearGradient>
  <linearGradient id="id10" gradientUnits="userSpaceOnUse" xlink:href="#id4" x1="5250" y1="1757.1" x2="5556.3" y2="1580.3">
  </linearGradient>
  <linearGradient id="id11" gradientUnits="userSpaceOnUse" xlink:href="#id4" x1="4694" y1="1507.1" x2="5000.2" y2="1683.9">
  </linearGradient>
  <linearGradient id="id12" gradientUnits="userSpaceOnUse" xlink:href="#id4" x1="4694" y1="1240.9" x2="5000.2" y2="1417.7">
  </linearGradient>
  <linearGradient id="id13" gradientUnits="userSpaceOnUse" x1="4322.6" y1="1828.6" x2="4567.8" y2="2005.4">
   <stop offset="0" style="stop-opacity:1; stop-color:#B6C1E3"/>
   <stop offset="1" style="stop-opacity:1; stop-color:#D0E1F4"/>
  </linearGradient>
  <linearGradient id="id14" gradientUnits="userSpaceOnUse" x1="6079.9" y1="-210.5" x2="-1461" y2="5836.6">
   <stop offset="0" style="stop-opacity:1; stop-color:#8AADDC"/>
   <stop offset="0.470588" style="stop-opacity:1; stop-color:#8B8DC4"/>
   <stop offset="1" style="stop-opacity:1; stop-color:#7066AA"/>
  </linearGradient>
  <linearGradient id="id15" gradientUnits="userSpaceOnUse" xlink:href="#id4" x1="4694" y1="1240.9" x2="5000.2" y2="1417.7">
  </linearGradient>
  <linearGradient id="id16" gradientUnits="userSpaceOnUse" x1="4509.3" y1="1434.7" x2="4311.7" y2="1446.2">
   <stop offset="0" style="stop-opacity:1; stop-color:#6372B5"/>
   <stop offset="1" style="stop-opacity:1; stop-color:#8DD0E1"/>
  </linearGradient>
  <linearGradient id="id17" gradientUnits="userSpaceOnUse" xlink:href="#id4" x1="3487.8" y1="2512.2" x2="3794" y2="2689.1">
  </linearGradient>
  <linearGradient id="id18" gradientUnits="userSpaceOnUse" xlink:href="#id4" x1="3487.8" y1="2512.2" x2="3794" y2="2689">
  </linearGradient>
  <linearGradient id="id19" gradientUnits="userSpaceOnUse" xlink:href="#id4" x1="4445.9" y1="2416.9" x2="4752.1" y2="2240.1">
  </linearGradient>
  <linearGradient id="id20" gradientUnits="userSpaceOnUse" xlink:href="#id4" x1="4694" y1="1507.1" x2="5000.2" y2="1683.9">
  </linearGradient>
  <linearGradient id="id21" gradientUnits="userSpaceOnUse" xlink:href="#id4" x1="4043.8" y1="2793.2" x2="4350.1" y2="2616.4">
  </linearGradient>
  <linearGradient id="id22" gradientUnits="userSpaceOnUse" xlink:href="#id16" x1="4585.1" y1="1178" x2="4263.4" y2="1196.7">
  </linearGradient>
  <linearGradient id="id23" gradientUnits="userSpaceOnUse" xlink:href="#id16" x1="4641.4" y1="1394.2" x2="4546.7" y2="1399">
  </linearGradient>
  <linearGradient id="id24" gradientUnits="userSpaceOnUse" xlink:href="#id4" x1="4291.9" y1="1828.6" x2="4598.1" y2="2005.4">
  </linearGradient>
  <linearGradient id="id25" gradientUnits="userSpaceOnUse" xlink:href="#id13" x1="4291.9" y1="1828.6" x2="4598.1" y2="2005.4">
  </linearGradient>
  <linearGradient id="id26" gradientUnits="userSpaceOnUse" xlink:href="#id14" x1="6080.3" y1="-210.5" x2="-1456.7" y2="5836.6">
  </linearGradient>
  <linearGradient id="id27" gradientUnits="userSpaceOnUse" x1="6079.7" y1="-210.7" x2="-1459.2" y2="5836.8">
   <stop offset="0" style="stop-opacity:1; stop-color:#44529D"/>
   <stop offset="0.470588" style="stop-opacity:1; stop-color:#454292"/>
   <stop offset="1" style="stop-opacity:1; stop-color:#383387"/>
  </linearGradient>
  <linearGradient id="id28" gradientUnits="userSpaceOnUse" x1="3131.8" y1="2696.9" x2="3591.8" y2="2962.5">
   <stop offset="0" style="stop-opacity:1; stop-color:#6372B5"/>
   <stop offset="1" style="stop-opacity:1; stop-color:#CCDAF1"/>
  </linearGradient>
  <linearGradient id="id29" gradientUnits="userSpaceOnUse" x1="6079.2" y1="-210.5" x2="-1458.7" y2="5836.6">
   <stop offset="0" style="stop-opacity:1; stop-color:#7EADDD"/>
   <stop offset="0.470588" style="stop-opacity:1; stop-color:#7F92C9"/>
   <stop offset="1" style="stop-opacity:1; stop-color:#6975B6"/>
  </linearGradient>
  <linearGradient id="id30" gradientUnits="userSpaceOnUse" xlink:href="#id14" x1="6080" y1="-210.5" x2="-1461.3" y2="5836.6">
  </linearGradient>
  <linearGradient id="id31" gradientUnits="userSpaceOnUse" xlink:href="#id14" x1="6079.9" y1="-210.3" x2="-1461" y2="5836.5">
  </linearGradient>
  <linearGradient id="id32" gradientUnits="userSpaceOnUse" xlink:href="#id27" x1="6068.3" y1="-210.5" x2="-1434.9" y2="5836.7">
  </linearGradient>
  <linearGradient id="id33" gradientUnits="userSpaceOnUse" xlink:href="#id14" x1="6079" y1="-210.5" x2="-1460" y2="5836.6">
  </linearGradient>
  <linearGradient id="id34" gradientUnits="userSpaceOnUse" xlink:href="#id14" x1="6080" y1="-210.5" x2="-1461.1" y2="5836.6">
  </linearGradient>
  <linearGradient id="id35" gradientUnits="userSpaceOnUse" xlink:href="#id14" x1="6079.8" y1="-210.3" x2="-1460.9" y2="5836.1">
  </linearGradient>
  <linearGradient id="id36" gradientUnits="userSpaceOnUse" xlink:href="#id27" x1="8522.4" y1="-210.6" x2="-4879.7" y2="5836.7">
  </linearGradient>
  <linearGradient id="id37" gradientUnits="userSpaceOnUse" xlink:href="#id4" x1="6710.6" y1="328.7" x2="5630.2" y2="304.7">
  </linearGradient>
  <linearGradient id="id38" gradientUnits="userSpaceOnUse" xlink:href="#id4" x1="4125.7" y1="1891.6" x2="3045.3" y2="1867.6">
  </linearGradient>
  <linearGradient id="id39" gradientUnits="userSpaceOnUse" xlink:href="#id28" x1="3533.8" y1="2498.8" x2="3993.9" y2="2764.4">
  </linearGradient>
  <linearGradient id="id40" gradientUnits="userSpaceOnUse" xlink:href="#id27" x1="6028" y1="-210.6" x2="-1132.4" y2="5836.7">
  </linearGradient>
  <linearGradient id="id41" gradientUnits="userSpaceOnUse" xlink:href="#id27" x1="5912.6" y1="-210.5" x2="-1308" y2="5836.6">
  </linearGradient>
  <linearGradient id="id42" gradientUnits="userSpaceOnUse" xlink:href="#id29" x1="6080" y1="-210.5" x2="-1461.1" y2="5836.6">
  </linearGradient>
  <linearGradient id="id43" gradientUnits="userSpaceOnUse" xlink:href="#id4" x1="6814" y1="1847.1" x2="5733.7" y2="1823.2">
  </linearGradient>
  <linearGradient id="id44" gradientUnits="userSpaceOnUse" xlink:href="#id9" x1="1699" y1="2643" x2="982.6" y2="3214.4">
  </linearGradient>
  <linearGradient id="id45" gradientUnits="userSpaceOnUse" x1="6080" y1="-210.5" x2="-1461.1" y2="5836.6">
   <stop offset="0" style="stop-opacity:1; stop-color:#5A67AD"/>
   <stop offset="0.470588" style="stop-opacity:1; stop-color:#5956A0"/>
   <stop offset="1" style="stop-opacity:1; stop-color:#4E4795"/>
  </linearGradient>
  <linearGradient id="id46" gradientUnits="userSpaceOnUse" xlink:href="#id14" x1="6054.5" y1="-210.4" x2="-1426.8" y2="5836.6">
  </linearGradient>
  <linearGradient id="id47" gradientUnits="userSpaceOnUse" xlink:href="#id27" x1="6081.8" y1="-210.5" x2="-1421.3" y2="5836.6">
  </linearGradient>
  <linearGradient id="id48" gradientUnits="userSpaceOnUse" xlink:href="#id4" x1="3641.8" y1="2991.3" x2="3948" y2="2814.5">
  </linearGradient>
  <linearGradient id="id49" gradientUnits="userSpaceOnUse" xlink:href="#id28" x1="4740" y1="1462.6" x2="5200.1" y2="1728.3">
  </linearGradient>
  <linearGradient id="id50" gradientUnits="userSpaceOnUse" xlink:href="#id29" x1="6077.8" y1="-210.5" x2="-1459.4" y2="5836.6">
  </linearGradient>
  <linearGradient id="id51" gradientUnits="userSpaceOnUse" xlink:href="#id28" x1="3935.9" y1="2122.4" x2="4395.9" y2="2388">
  </linearGradient>
  <linearGradient id="id52" gradientUnits="userSpaceOnUse" xlink:href="#id14" x1="6050.7" y1="-210.5" x2="-1440.1" y2="5836.6">
  </linearGradient>
  <linearGradient id="id53" gradientUnits="userSpaceOnUse" xlink:href="#id28" x1="4338" y1="1276" x2="4798" y2="1541.6">
  </linearGradient>
  <linearGradient id="id54" gradientUnits="userSpaceOnUse" xlink:href="#id4" x1="1832.3" y1="2816.9" x2="751.9" y2="2792.9">
  </linearGradient>
  <linearGradient id="id55" gradientUnits="userSpaceOnUse" xlink:href="#id14" x1="6080.1" y1="-210.7" x2="-1461.8" y2="5837">
  </linearGradient>
  <linearGradient id="id56" gradientUnits="userSpaceOnUse" xlink:href="#id14" x1="6080" y1="-210.5" x2="-1461.1" y2="5836.7">
  </linearGradient>
  <linearGradient id="id57" gradientUnits="userSpaceOnUse" xlink:href="#id14" x1="6080.9" y1="-210.5" x2="-1438.5" y2="5836.5">
  </linearGradient>
  <linearGradient id="id58" gradientUnits="userSpaceOnUse" xlink:href="#id14" x1="6080" y1="-210.5" x2="-1461.1" y2="5836.6">
  </linearGradient>
  <linearGradient id="id59" gradientUnits="userSpaceOnUse" xlink:href="#id28" x1="4337.9" y1="1845.4" x2="4798" y2="2111">
  </linearGradient>
  <linearGradient id="id60" gradientUnits="userSpaceOnUse" xlink:href="#id45" x1="6079.9" y1="-210.4" x2="-1461" y2="5836.5">
  </linearGradient>
  <linearGradient id="id61" gradientUnits="userSpaceOnUse" x1="4690.6" y1="1240.9" x2="4987" y2="1417.7">
   <stop offset="0" style="stop-opacity:1; stop-color:#7D83BE"/>
   <stop offset="1" style="stop-opacity:1; stop-color:#929BCC"/>
  </linearGradient>
  <linearGradient id="id62" gradientUnits="userSpaceOnUse" xlink:href="#id29" x1="6080" y1="-210.5" x2="-1461.1" y2="5836.7">
  </linearGradient>
  <linearGradient id="id63" gradientUnits="userSpaceOnUse" xlink:href="#id45" x1="6080" y1="-210.5" x2="-1461.1" y2="5836.5">
  </linearGradient>
  <linearGradient id="id64" gradientUnits="userSpaceOnUse" xlink:href="#id14" x1="6080" y1="-210.5" x2="-1461.2" y2="5836.6">
  </linearGradient>
  <linearGradient id="id65" gradientUnits="userSpaceOnUse" xlink:href="#id9" x1="3992.4" y1="1717.7" x2="3276.1" y2="2289.1">
  </linearGradient>
  <linearGradient id="id66" gradientUnits="userSpaceOnUse" xlink:href="#id27" x1="6056.7" y1="-210.5" x2="-1446.4" y2="5836.6">
  </linearGradient>
  <linearGradient id="id67" gradientUnits="userSpaceOnUse" xlink:href="#id9" x1="6577.3" y1="154.8" x2="5860.9" y2="726.2">
  </linearGradient>
  <linearGradient id="id68" gradientUnits="userSpaceOnUse" xlink:href="#id14" x1="6079.9" y1="-210.5" x2="-1461.1" y2="5836.6">
  </linearGradient>
  <linearGradient id="id69" gradientUnits="userSpaceOnUse" xlink:href="#id27" x1="6081.2" y1="-210.5" x2="-1421.9" y2="5836.5">
  </linearGradient>
 </defs>
 <g id="Layer_x0020_1">
  <metadata id="CorelCorpID_0Corel-Layer"/>
  <g id="_1385874368">
   <path class="fil0" d="M5761.5 2568.6c-1.1,0 -2.2,-0.3 -3.2,-0.8l-200.3 -115.6 0 -0.1 -307.9 -177.8 0 -1.1 0 -13.6 308 177.8 0 0 206.6 119.3c3,1.8 4.1,5.7 2.3,8.7 -1.2,2.1 -3.3,3.2 -5.5,3.2zm-913.5 -528.2l0 0 11.2 -6.5 -11.2 6.5zm-1934.1 -182.5c-29.6,0 -59.1,-6.5 -81.6,-19.5l-310.5 -179.3 12.9 -7.3 304 175.6c20.7,11.9 48,17.9 75.2,17.9 27.2,0 54.4,-6 75.2,-17.9l1025.7 -592.3c18.8,-10.8 29.1,-24.9 29.1,-39.7 0,-14.7 -10.3,-28.9 -29.1,-39.7l-301 -173.8 12.8 -7.3 294.6 170c22.9,13.3 35.5,31.3 35.5,50.8 0,19.5 -12.6,37.6 -35.5,50.8l-1025.8 592.2c-22.4,13 -52,19.5 -81.5,19.5zm1585.2 -87.5l-11.3 -6.5c5.8,-6.7 13.3,-12.8 22.6,-18.2l29.6 -17 0 14.7 -23.2 13.4c-7.2,4.1 -13.1,8.7 -17.7,13.6zm860.5 -555.2l-109.6 -63.2 -2.5 1.4 -910.5 -525.6 12.9 -7.3 979.6 565.5c14.1,8.2 24.3,18.2 30.1,29.2z"/>
   <path class="fil1" d="M5558 1975.1l0 -14.7 529.1 -305.5c-0.8,0.5 -1.5,1.3 -2.1,2.2 -1.7,3.1 -0.7,7 2.4,8.7l3.2 1.9 -532.6 307.4zm545.4 -314.8l-9.6 -5.5c-1.1,-0.6 -2.1,-0.9 -3.2,-0.9 -1,0 -2,0.2 -2.9,0.7l584.5 -337.5c25.9,-14.9 40.1,-34.5 40.1,-55.1 0,-20.6 -14.2,-40.2 -40.1,-55.1l-1161.7 -670.7c-28.1,-16.3 -65,-24.4 -101.9,-24.4 -36.9,0 -73.8,8.1 -101.9,24.4l-259.7 149.9c-1,0.6 -2.1,0.8 -3.2,0.8 -2.2,0 -4.3,-1.1 -5.5,-3.1 -1.8,-3.1 -0.7,-7 2.3,-8.8l259.7 -149.9c29.9,-17.2 69.1,-25.8 108.3,-25.8 39.2,0 78.4,8.6 108.2,25.8l1161.8 670.7c30,17.3 46.5,40.8 46.5,66.2 0,25.4 -16.5,48.9 -46.5,66.2l-575.2 332.1z"/>
   <path class="fil2" d="M2579.8 3963.4c-33.3,0 -66.6,-7.3 -91.9,-21.9l-1659.5 -958.2c-25.7,-14.8 -39.8,-34.9 -39.8,-56.7 0,-21.8 14.1,-41.9 39.8,-56.7l566 -326.8c25.3,-14.7 58.6,-22 91.9,-22 33.2,0 66.5,7.3 91.8,22l237.5 137.1c-0.9,-0.5 -2,-0.8 -3.1,-0.8 -1,0 -2.1,0.3 -3.1,0.8l-9.6 5.6 -228.1 -131.7c-23.5,-13.6 -54.5,-20.4 -85.4,-20.4 -31,0 -61.9,6.8 -85.5,20.4l-566.1 326.8c-21.5,12.5 -33.3,28.7 -33.3,45.7 0,17 11.8,33.2 33.3,45.7l1659.6 958.1c23.6,13.6 54.5,20.4 85.5,20.4 30.9,0 61.9,-6.8 85.5,-20.4l293.9 -169.7 9.5 5.6c1,0.6 2.1,0.8 3.2,0.8 1,0 2,-0.2 2.9,-0.6l-303.2 175c-25.3,14.6 -58.5,21.9 -91.8,21.9zm-718.6 -1928.9l-55 -31.7 12.9 -7.4 54.9 31.8 0 0 751.1 433.6c23.6,13.6 54.5,20.4 85.5,20.4 30.9,0 61.9,-6.8 85.5,-20.4l529.3 -305.6 12.8 7.3 -535.7 309.4c-25.4,14.6 -58.6,21.9 -91.9,21.9 -33.3,0 -66.6,-7.3 -91.9,-21.9l-757.5 -437.4 5 -2.9 -5 2.9 0 0zm1472.6 1524.7l0 0 -358.4 206.9c0.8,-0.5 1.5,-1.2 2,-2.1 1.8,-3.1 0.8,-7 -2.3,-8.8l-3.2 -1.8 361.9 -209 0 0 308 -177.8 0 14.8 -308 177.8 0 0zm-623.2 -378.7c-33.3,0 -66.5,-7.3 -91.9,-21.9l-806.1 -465.4 3.2 -1.9c3,-1.8 4.1,-5.7 2.3,-8.7 -0.6,-1 -1.3,-1.7 -2.2,-2.3l809.2 467.2c23.6,13.6 54.5,20.4 85.5,20.4 31,0 61.9,-6.8 85.5,-20.4l537.7 -310.4 0 14.8 -531.3 306.7c-25.4,14.6 -58.6,21.9 -91.9,21.9zm840.3 -454l-12.8 -7.4 599.8 -346.3 0 14.8 -587 338.9zm587 -526.5l-346.7 -200.3c-23.6,-13.5 -54.6,-20.3 -85.6,-20.3 -30.9,0 -61.8,6.7 -85.4,20.3l-137.2 79.3 -12.8 -7.4 143.6 -82.9c25.3,-14.6 58.6,-22 91.9,-22 33.2,0 66.5,7.4 91.8,22l340.4 196.5 0 14.8z"/>
   <path class="fil3" d="M6707.1 2022.6c-1.1,0 -2.2,-0.2 -3.2,-0.8l-613.3 -354.1 -3.2 -1.9c-3.1,-1.7 -4.1,-5.6 -2.4,-8.7 0.6,-0.9 1.3,-1.7 2.1,-2.2 0.2,-0.1 0.4,-0.2 0.6,-0.3 0.9,-0.5 1.9,-0.7 2.9,-0.7 1.1,0 2.1,0.3 3.2,0.9l9.6 5.5 606.9 350.4c3.1,1.8 4.1,5.7 2.3,8.8 -1.1,2 -3.3,3.1 -5.5,3.1z"/>
   <path class="fil4" d="M3196.7 1341.9l-116.5 0 22.5 -12.8 87.6 0 0 -49.8 12.8 -7.3 0 63.5c0,1.7 -0.7,3.3 -1.9,4.5 -1.2,1.2 -2.8,1.9 -4.5,1.9z"/>
   <path class="fil5" d="M5727 1074.2l-211.7 0c-3.5,0 -6.3,-2.8 -6.3,-6.4l0 -122.2c0,-3.5 2.8,-6.4 6.3,-6.4l211.7 0c3.6,0 6.4,2.9 6.4,6.4l0 122.2c0,3.6 -2.8,6.4 -6.4,6.4zm-205.2 -122.2l0 109.4 198.8 0 0 -109.4 -198.8 0z"/>
   <path class="fil6" d="M2630.3 3681.1c-23.5,0 -47,-3.4 -69.9,-10.2 -57.6,-17.2 -92.1,-49.8 -92.1,-87.2 0,-37.5 34.5,-70.1 92.1,-87.2 22.9,-6.8 46.4,-10.2 69.9,-10.2 23.5,0 47.1,3.4 69.9,10.2 57.7,17.1 92.1,49.7 92.1,87.2 0,18.5 -8.4,35.8 -23.9,50.7l-7.7 -4.5c-1,-0.6 -2.1,-0.9 -3.2,-0.9 -1,0 -2,0.2 -2.9,0.7 16.1,-13.4 24.9,-29.2 24.9,-46 0,-31.5 -31,-59.5 -82.9,-75 -21.7,-6.4 -44,-9.7 -66.3,-9.7 -22.3,0 -44.6,3.3 -66.2,9.7 -52,15.5 -83,43.5 -83,75 0,31.4 31,59.5 83,74.9 21.6,6.5 43.9,9.7 66.2,9.7 22.3,0 44.6,-3.2 66.3,-9.7 23.1,-6.8 42,-16.2 55.9,-27.2 -0.2,0.2 -0.3,0.5 -0.5,0.8 -1.8,3 -0.8,7 2.3,8.7l3.8 2.2c-15,11.4 -34.5,20.8 -57.9,27.8 -22.8,6.8 -46.4,10.2 -69.9,10.2z"/>
   <path class="fil7" d="M2234.8 3452.7c-13.5,0 -27,-1.1 -40.4,-3.3 7.2,-3.4 14.2,-6.8 21,-10.3 6.5,0.6 13,0.9 19.4,0.9 22.3,0 44.6,-3.3 66.3,-9.7 51.9,-15.5 82.9,-43.5 82.9,-75 0,-31.4 -31,-59.5 -82.9,-74.9 -21.7,-6.5 -44,-9.7 -66.3,-9.7 -22.3,0 -44.6,3.2 -66.2,9.7 -45.9,13.6 -75.4,37 -81.7,64 -0.4,0.1 -0.7,0.2 -1,0.4 -4.3,1.5 -8.6,3 -12.8,4.5 3.5,-34.9 37.3,-64.9 91.8,-81.2 22.9,-6.8 46.4,-10.2 69.9,-10.2 23.5,0 47,3.4 69.9,10.2 57.7,17.2 92.1,49.8 92.1,87.2 0,37.5 -34.4,70.1 -92.1,87.2 -22.8,6.8 -46.4,10.2 -69.9,10.2z"/>
   <path class="fil8" d="M1839.3 3224.4c-23.5,0 -47,-3.4 -69.9,-10.2 -57.6,-17.2 -92.1,-49.7 -92.1,-87.2 0,-37.5 34.5,-70.1 92.1,-87.2 22.9,-6.8 46.4,-10.2 69.9,-10.2 23.5,0 47.1,3.4 69.9,10.2 57.7,17.1 92.1,49.7 92.1,87.2 0,37.5 -34.4,70 -92.1,87.2 -22.8,6.8 -46.4,10.2 -69.9,10.2zm0 -182c-22.3,0 -44.5,3.2 -66.2,9.6 -52,15.5 -83,43.5 -83,75 0,31.5 31,59.5 83,75 21.7,6.4 43.9,9.6 66.2,9.6 22.3,0 44.6,-3.2 66.3,-9.6 51.9,-15.5 82.9,-43.5 82.9,-75 0,-31.5 -31,-59.5 -82.9,-75 -21.7,-6.4 -44,-9.6 -66.3,-9.6z"/>
   <path class="fil9" d="M1443.8 2996.1c-23.5,0 -47,-3.4 -69.8,-10.2 -57.7,-17.2 -92.1,-49.8 -92.1,-87.2 0,-37.5 34.4,-70.1 92,-87.2 22.9,-6.9 46.4,-10.3 69.9,-10.3 23.6,0 47.1,3.4 69.9,10.3 15,4.4 28.4,9.9 40.1,16.3l-3.1 1.8c-3.1,1.8 -4.1,5.7 -2.4,8.7 0.5,0.8 1.1,1.5 1.8,2 -11.4,-6.5 -24.8,-12.1 -40,-16.6 -21.7,-6.4 -44,-9.7 -66.3,-9.7 -22.3,0 -44.5,3.3 -66.2,9.7 -52,15.5 -83,43.5 -83,75 0,31.4 31,59.5 83,74.9 21.7,6.5 43.9,9.7 66.2,9.7 22.3,0 44.6,-3.2 66.3,-9.7 51.9,-15.4 82.9,-43.5 82.9,-74.9 0,-22 -15,-42.2 -41.7,-57.7 0.8,0.4 1.7,0.5 2.6,0.5 1,0 2.1,-0.3 3.2,-0.8l9.2 -5.3c25.3,17.2 39.5,39.2 39.5,63.3 0,37.4 -34.4,70 -92.1,87.2 -22.8,6.8 -46.3,10.2 -69.9,10.2z"/>
   <path class="fil10" d="M1553.9 2841.5c-0.9,0 -1.8,-0.1 -2.6,-0.5 -0.4,-0.2 -0.8,-0.4 -1.2,-0.7 -0.7,-0.5 -1.3,-1.2 -1.8,-2 -1.7,-3 -0.7,-6.9 2.4,-8.7l3.1 -1.8 246 -142 9.6 -5.6c1,-0.5 2.1,-0.8 3.1,-0.8 1.1,0 2.2,0.3 3.1,0.8 0.1,0 0.2,0.1 0.3,0.1 0.9,0.6 1.6,1.3 2.2,2.3 1.8,3 0.7,6.9 -2.3,8.7l-3.2 1.9 -246.3 142.2 -9.2 5.3c-1.1,0.5 -2.2,0.8 -3.2,0.8z"/>
   <path class="fil11" d="M2971.9 3767.1c-1.1,0 -2.2,-0.2 -3.2,-0.8l-9.5 -5.6 -201.1 -117.6 -3.8 -2.2c-3.1,-1.7 -4.1,-5.7 -2.3,-8.7 0.2,-0.3 0.3,-0.6 0.5,-0.8 0.6,-0.7 1.3,-1.3 2.1,-1.7 0.9,-0.5 1.9,-0.7 2.9,-0.7 1.1,0 2.2,0.3 3.2,0.9l7.7 4.5 203.5 119 3.2 1.8c3.1,1.8 4.1,5.7 2.3,8.8 -0.5,0.9 -1.2,1.6 -2,2.1 -0.2,0.1 -0.4,0.2 -0.6,0.4 -0.9,0.4 -1.9,0.6 -2.9,0.6z"/>
   <path class="fil12" d="M4379.4 3611l-211.7 0c-3.6,0 -6.4,-2.9 -6.4,-6.4l0 -109.1 0 -9.4 0 -3.7 0 -0.1 0 0.1 0 3.7 0 0 -117.5 -67.8 -94 -54.3 0 0 -138.9 -80.2 -169.2 97.6 0 0 0 -14.8 165.6 -95.6 0.2 -0.1 0.2 -0.1 0 0 142.1 -82 0 0 94 -54.3 0 14.7 -94 54.3 0 0.1 -126.2 72.7 -9.5 -5.5c-0.6,-0.3 -1.3,-0.5 -1.9,-0.7 0.6,0.2 1.2,0.4 1.8,0.8l9.6 5.5 126.2 72.8 0 0 0 0 94 54.3 125.6 72.5 0 0 25.6 0 -33.7 19.5 33.7 -19.5 184.4 0c3.5,0 6.3,2.9 6.3,6.4l0 122.2c0,3.5 -2.8,6.4 -6.3,6.4zm-217.5 -131.3c0.3,-0.7 0.7,-1.3 1.3,-1.8l0.1 -0.1 -0.1 0.1c-0.6,0.5 -1,1.1 -1.3,1.8zm284 -577.3l0 -0.1 308 -177.8 0 14.8 -308 177.8 0 0 -94.1 54.3 0 0 0 -14.7 94.1 -54.3zm308 -163.1l0 -14.8 58.8 -33.9c1,-0.6 2.1,-0.9 3.2,-0.9 2.2,0 4.4,1.2 5.6,3.2 1.7,3 0.7,7 -2.4,8.7l-65.2 37.7 0 0zm-710 409.9l0 -14.7 307.9 -177.9 0 14.8 -307.9 177.8 0 0zm130.2 339.6l0 109.4 198.9 0 0 -109.4 -198.9 0z"/>
   <path class="fil13" d="M2466.3 1627.1l-315.1 -181.9c-3.1,-1.8 -4.1,-5.7 -2.4,-8.8 1.2,-2 3.3,-3.2 5.6,-3.2 1,0 2.2,0.3 3.2,0.9l321.6 185.7 -12.9 7.3zm1182.9 -682.5l-320.4 -185c-23,-13.2 -35.6,-31.2 -35.6,-50.8 0,-19.5 12.6,-37.5 35.5,-50.7l461.6 -266.5c22.5,-13 52,-19.5 81.6,-19.5 29.5,0 59,6.5 81.5,19.5l339.7 196.1 -12.9 7.3 -333.2 -192.4c-20.7,-11.9 -47.9,-17.9 -75.1,-17.9 -27.3,0 -54.5,6 -75.2,17.9l-461.6 266.5c-18.7,10.9 -29.1,25 -29.1,39.7 0,14.8 10.4,28.9 29.1,39.7l330 190.5c-1,-0.5 -2,-0.8 -3.1,-0.8 -1.1,0 -2.2,0.3 -3.2,0.9l-9.6 5.5zm19 -1.4c-0.1,-0.6 -0.3,-1.2 -0.6,-1.8 -0.6,-0.9 -1.4,-1.7 -2.2,-2.2l4.9 2.8 -2.1 1.2z"/>
   <path class="fil14" d="M82.3 2482.7c-2.3,0 -4.4,-1.3 -5.6,-3.4 -1.7,-3 -0.6,-6.9 2.5,-8.6l1235.5 -680.7c23,-12.6 48.6,-18.9 74.2,-18.9 26.7,0 53.4,6.8 77,20.4l353.1 203.9 -12.8 7.3 -346.7 -200.1c-21.6,-12.5 -46.1,-18.8 -70.5,-18.8 -23.6,0 -47.1,5.8 -68.1,17.4l-1235.5 680.7c-1,0.5 -2.1,0.8 -3.1,0.8z"/>
   <path class="fil15" d="M3201.3 1208.9c-1.1,-1.2 -2.8,-2 -4.6,-2l-1.7 0 454.2 -262.3 9.6 -5.5c1,-0.6 2.1,-0.9 3.2,-0.9 1.1,0 2.1,0.3 3.1,0.8 0.1,0.1 0.2,0.1 0.3,0.2 0.8,0.5 1.6,1.3 2.2,2.2 0.3,0.6 0.5,1.2 0.6,1.8l-466.9 265.7z"/>
   <path class="fil16" d="M2978.6 1335.6l0 -0.1 0 -122.2c0,-3.5 2.9,-6.4 6.4,-6.4l211.7 0c1.8,0 3.5,0.8 4.6,2l466.8 -265.6 0.1 -0.1 2 -1.1 56.5 32.4 -12.9 7.4 -51.7 -30 -0.1 0.1 -458.9 264.9 0 0 0 -3.6c0,-0.5 0,-0.9 -0.1,-1.3 0.1,0.4 0.1,0.9 0.1,1.3l0 3.7 0 55 -12.8 7.3 0 0 0 -57.1c-1.4,-0.4 -2.6,-1.3 -3.6,-2.5l3.6 0 0 0 -3.6 0 -4.3 0 4.7 -2.7 -4.7 2.7 -191 0 0 108.6 0 0 0 0.8 111.3 0 -22.5 12.8 -95.1 0c-3.6,0 -6.4,-2.8 -6.5,-6.3l0 0zm-456.9 323.4l-55.4 -31.8 12.9 -7.4 55.4 32.1 -12.9 7.1zm1815.6 -1031.3l-57.1 -32.7 12.9 -7.4 56.5 32.7 -12.3 7.4 0 0z"/>
   <path class="fil17" d="M6182.5 744c-5.9,0 -11.5,-1.2 -15.7,-3.6l-426.9 -246.5c-9.2,-5.4 -8.1,-14.7 2.6,-20.9l125.4 -72.4 460.5 265.9 -125.4 72.4c-5.9,3.3 -13.4,5.1 -20.5,5.1z"/>
   <path class="fil18" d="M6773.7 404.9l0 -85 -138.6 0 -307.4 -177.4c-7.5,-4.4 -20.7,-3.8 -29.4,1.2l-306 176.7 -137.9 0.1 0 85.2 0.1 0c0.1,2.7 1.7,5.2 5,7.1l440.9 254.6c7.6,4.3 20.8,3.8 29.5,-1.2l436.7 -252.2c4.5,-2.6 6.9,-5.9 7.1,-9.1z"/>
   <path class="fil19" d="M6300.4 582.3l-440.9 -254.6c-7.5,-4.3 -6.6,-11.9 2.1,-17l436.7 -252.1c8.7,-5 21.9,-5.6 29.4,-1.2l441 254.6c7.5,4.3 6.6,11.9 -2.1,17l-436.7 252.1c-8.8,5 -21.9,5.6 -29.5,1.2z"/>
   <path class="fil20" d="M6302 552.5l-390.9 -225.7c-6.7,-3.8 -5.8,-10.6 1.9,-15l387.1 -223.5c7.7,-4.5 19.4,-5 26.1,-1.1l390.8 225.7c6.7,3.8 5.9,10.6 -1.8,15l-387.1 223.5c-7.8,4.5 -19.4,5 -26.1,1.1z"/>
   <path class="fil21" d="M6303 533.6l-359.1 -207.3c-6.2,-3.6 -5.4,-9.8 1.7,-13.9l355.6 -205.3c7.1,-4.1 17.8,-4.5 24,-1l359.1 207.3c6.1,3.6 5.4,9.8 -1.7,13.9l-355.7 205.3c-7.1,4.1 -17.8,4.5 -23.9,1z"/>
   <polygon class="fil22" points="6305.8,306.3 6263.8,282.1 6286.8,268.9 6328.8,293.1 "/>
   <polygon class="fil22" points="6383.9,302.9 6341.9,327.2 6318.9,313.9 6360.9,289.7 "/>
   <polygon class="fil22" points="6296.3,311.9 6273.4,325.1 6250.4,311.9 6273.4,298.6 "/>
   <polygon class="fil22" points="6375.5,357.6 6352.6,370.8 6286.5,332.7 6309.4,319.4 "/>
   <path class="fil23" d="M1304.2 3232.2c-5.9,0 -11.5,-1.2 -15.7,-3.6l-426.9 -246.5c-9.3,-5.3 -8.1,-14.7 2.6,-20.8l125.4 -72.5 460.5 265.9 -125.5 72.4c-5.8,3.4 -13.3,5.1 -20.4,5.1z"/>
   <path class="fil24" d="M1895.4 2893.1l0 -85 -138.6 0.1 -307.4 -177.5c-7.5,-4.4 -20.7,-3.8 -29.4,1.2l-306.1 176.7 -137.8 0.1 0 85.3 0.1 0c0.1,2.6 1.7,5.1 5,7l440.9 254.6c7.6,4.3 20.7,3.8 29.4,-1.2l436.7 -252.2c4.6,-2.6 6.9,-5.9 7.2,-9.1z"/>
   <path class="fil25" d="M1422.1 3070.5l-440.9 -254.5c-7.6,-4.4 -6.6,-12 2.1,-17l436.7 -252.2c8.7,-5 21.9,-5.5 29.4,-1.2l440.9 254.6c7.6,4.3 6.6,12 -2.1,17l-436.7 252.1c-8.7,5 -21.8,5.6 -29.4,1.2z"/>
   <path class="fil20" d="M1423.7 3040.7l-390.9 -225.6c-6.7,-3.9 -5.8,-10.6 1.9,-15.1l387.1 -223.5c7.7,-4.5 19.4,-4.9 26.1,-1.1l390.8 225.7c6.7,3.8 5.9,10.6 -1.9,15l-387.1 223.5c-7.7,4.5 -19.4,5 -26,1.1z"/>
   <path class="fil21" d="M1424.6 3021.8l-359.1 -207.3c-6.1,-3.6 -5.3,-9.8 1.8,-13.8l355.6 -205.4c7.1,-4.1 17.8,-4.5 24,-1l359.1 207.3c6.1,3.6 5.3,9.8 -1.8,13.9l-355.6 205.3c-7.1,4.1 -17.8,4.6 -24,1z"/>
   <polygon class="fil22" points="1427.5,2794.6 1385.5,2770.3 1408.4,2757.1 1450.4,2781.3 "/>
   <polygon class="fil22" points="1505.5,2791.1 1463.6,2815.4 1440.6,2802.1 1482.6,2777.9 "/>
   <polygon class="fil22" points="1418,2800.1 1395,2813.3 1372.1,2800.1 1395,2786.8 "/>
   <polygon class="fil22" points="1497.2,2845.8 1474.3,2859.1 1408.2,2820.9 1431.1,2807.6 "/>
   <path class="fil26" d="M6286 2262.5c-5.9,0 -11.5,-1.2 -15.7,-3.6l-426.9 -246.5c-9.2,-5.4 -8.1,-14.7 2.6,-20.9l125.4 -72.4 460.5 265.9 -125.4 72.4c-5.9,3.3 -13.4,5.1 -20.5,5.1z"/>
   <path class="fil27" d="M6877.2 1923.4l0 -85.1 -138.6 0.1 -307.4 -177.4c-7.5,-4.4 -20.7,-3.9 -29.4,1.2l-306 176.7 -137.9 0.1 0 85.2 0.1 0c0.1,2.7 1.7,5.2 5,7.1l440.9 254.6c7.6,4.3 20.7,3.8 29.4,-1.3l436.7 -252.1c4.6,-2.6 7,-5.9 7.2,-9.1z"/>
   <path class="fil28" d="M6403.9 2100.8l-440.9 -254.6c-7.6,-4.3 -6.6,-11.9 2.1,-17l436.7 -252.1c8.7,-5 21.9,-5.6 29.4,-1.2l441 254.6c7.5,4.3 6.6,11.9 -2.2,17l-436.7 252.1c-8.7,5 -21.8,5.6 -29.4,1.2z"/>
   <path class="fil20" d="M6405.5 2071l-390.9 -225.7c-6.7,-3.8 -5.8,-10.6 1.9,-15l387.1 -223.5c7.7,-4.5 19.4,-5 26.1,-1.1l390.8 225.7c6.7,3.8 5.9,10.6 -1.9,15l-387.1 223.5c-7.7,4.5 -19.3,5 -26,1.1z"/>
   <path class="fil21" d="M6406.5 2052.1l-359.1 -207.3c-6.2,-3.6 -5.4,-9.8 1.7,-13.9l355.6 -205.3c7.1,-4.1 17.8,-4.5 24,-1l359.1 207.3c6.1,3.6 5.4,9.8 -1.7,13.9l-355.7 205.3c-7.1,4.1 -17.8,4.5 -23.9,1z"/>
   <polygon class="fil22" points="6409.3,1824.8 6367.3,1800.6 6390.2,1787.4 6432.2,1811.6 "/>
   <polygon class="fil22" points="6487.4,1821.4 6445.4,1845.7 6422.4,1832.4 6464.4,1808.2 "/>
   <polygon class="fil22" points="6399.8,1830.3 6376.9,1843.6 6353.9,1830.3 6376.9,1817.1 "/>
   <polygon class="fil22" points="6479,1876.1 6456.1,1889.3 6390,1851.2 6412.9,1837.9 "/>
   <path class="fil29" d="M3597.6 2306.9c-5.8,0 -11.5,-1.2 -15.6,-3.6l-243.8 -140.8 144.8 -83.5 260.5 150.3 -125.4 72.5c-5.9,3.3 -13.4,5.1 -20.5,5.1zm-272.2 -151.7l-170.4 -98.4c-9.2,-5.4 -8,-14.7 2.6,-20.9l125.5 -72.4 187.1 108.1 -144.8 83.6z"/>
   <polygon class="fil30" points="3338.2,2162.5 3325.4,2155.2 3470.2,2071.6 3483,2079 "/>
   <path class="fil31" d="M4188.8 1967.8l0 -85 -138.5 0 -307.4 -177.4c-7.6,-4.4 -20.8,-3.8 -29.5,1.2l-306 176.7 -137.9 0.1 0.1 85.2 0 0c0.2,2.7 1.7,5.2 5,7.1l441 254.6c7.5,4.3 20.7,3.8 29.4,-1.2l436.7 -252.2c4.5,-2.6 6.9,-5.9 7.1,-9.1z"/>
   <path class="fil32" d="M3715.6 2145.2l-441 -254.6c-7.5,-4.3 -6.6,-11.9 2.1,-17l436.7 -252.1c8.7,-5 21.9,-5.6 29.5,-1.2l440.9 254.6c7.5,4.3 6.6,11.9 -2.1,17l-436.7 252.1c-8.7,5 -21.9,5.6 -29.4,1.2z"/>
   <path class="fil20" d="M3717.1 2115.4l-390.8 -225.7c-6.7,-3.8 -5.9,-10.6 1.8,-15l387.1 -223.5c7.7,-4.5 19.4,-5 26.1,-1.1l390.8 225.7c6.7,3.8 5.9,10.6 -1.8,15l-387.1 223.5c-7.7,4.5 -19.4,4.9 -26.1,1.1z"/>
   <path class="fil21" d="M3718.1 2096.5l-359.1 -207.3c-6.1,-3.6 -5.4,-9.8 1.7,-13.9l355.7 -205.3c7,-4.1 17.8,-4.5 23.9,-1l359.1 207.3c6.2,3.6 5.4,9.8 -1.7,13.9l-355.6 205.3c-7.1,4.1 -17.9,4.5 -24,1z"/>
   <polygon class="fil22" points="3721,1869.2 3679,1845 3701.9,1831.8 3743.9,1856 "/>
   <polygon class="fil22" points="3799,1865.8 3757,1890.1 3734.1,1876.8 3776.1,1852.6 "/>
   <polygon class="fil22" points="3711.4,1874.8 3688.5,1888 3665.6,1874.8 3688.5,1861.5 "/>
   <polygon class="fil22" points="3790.7,1920.5 3767.7,1933.7 3701.6,1895.6 3724.5,1882.3 "/>
   <g style="clip-path:url(#id0)">
    <image x="5239" y="2264.9" width="20.6" height="15.5" xlink:href="feature1_Images\feature1_ImgID1.png"/>
   </g>
   <g style="clip-path:url(#id1)">
    <image x="4852.1" y="1980.1" width="98.2" height="60.4" xlink:href="feature1_Images\feature1_ImgID2.png"/>
   </g>
   <polygon class="fil33" points="4859.2,2033.9 4852.9,2030.3 4942,1978.8 4942,1986.1 "/>
   <polygon class="fil34" points="4445.9,2362 4137.9,2184.1 4144.3,2180.5 4445.9,2354.6 4540,2300.3 4540,2307.6 "/>
   <g style="clip-path:url(#id2)">
    <image x="5146.1" y="2210.8" width="113.5" height="69.6" xlink:href="feature1_Images\feature1_ImgID3.png"/>
   </g>
   <g style="clip-path:url(#id3)">
    <image x="5043" y="2151.6" width="118.6" height="74.7" xlink:href="feature1_Images\feature1_ImgID4.png"/>
   </g>
   <path class="fil35" d="M4043.8 2882l-36.9 -21.3 36.9 21.4 0 89.3 -94 54.5 0 0 0 -176.7 17.8 -11.2 0 0 6.1 -3.8 70.1 40.5 301.7 -174.2 6.3 3.7 -308 177.8zm710.1 -321.6l0 -108.9 94.1 54.3 0 -217.9 0 0 0 -0.1 0 0 0 0.1 204.3 -127.7 103.7 59.9 0 -0.1 93 53.7 -93 53.9 0 0 -308 178.4 0 0 0 -0.1 -94.1 54.5 0 0zm402.1 -340.3l0 107.5 0 -107.5zm-804.1 573l0 -88.9 -6.5 -3.7 -82 -47.3 182.5 -114 0 -0.1 220.8 -138 87.2 50.4 0 108.8 -308 178.3 0 0 -94 54.5 0 0z"/>
   <polygon class="fil36" points="5250,1241 4942,1063.2 5250,885.4 5558,1063.2 "/>
   <polygon class="fil37" points="5250,1233.7 4948.4,1059.5 4942,1063.2 5250,1241 5558,1063.2 5551.7,1059.5 "/>
   <polygon class="fil38" points="5250,2273.2 5250,2273.2 5156,2218.8 5053.2,2159.5 4942,2095.3 4942,1986.1 4942,1719.5 5156,1596 4942,1472.5 4942,1453.3 5002,1418.7 5156,1329.8 5149.6,1326.1 4942,1206.3 4942,1063.2 5172.9,1196.5 5250,1241 "/>
   <polygon class="fil39" points="4848,1773.8 4770.9,1729.3 4654.8,1662.3 4540,1596 4661.7,1525.7 4717.6,1558.1 4869.5,1495.2 4925.4,1462.9 4942,1472.5 5156,1596 4942,1719.5 4925.1,1729.3 "/>
   <polygon class="fil40" points="4848,1766.5 4546.3,1592.3 4540,1596 4848,1773.8 5156,1596 5149.6,1592.3 "/>
   <polygon class="fil41" points="4848,2505.8 4753.9,2451.5 4666.7,2401.1 4540,2328 4540,2307.6 4540,2300.3 4540,2041 4753.9,1917.5 4540,1794 4540,1743.4 4540,1728.7 4540,1596 4654.8,1662.3 4770.9,1729.3 4848,1773.8 "/>
   <path class="fil42" d="M4848 1507.6l0 0 154 -88.9 -60 34.6 -16.6 9.6 -55.9 32.3 -21.5 12.4zm0 -7.3l-109 -62.9c112.9,-41 193.4,-101.2 181.1,-136.3 -5.7,-16.4 -30.8,-24.5 -67.5,-24.5 -43.6,0 -103.6,11.4 -167.2,33.7 -35.2,12.3 -67.3,26.5 -94.9,41.3l-44.2 -25.5 301.7 -174.1 94 54.3 207.6 119.8 -301.6 174.2z"/>
   <polygon class="fil43" points="4848,1500.3 4546.3,1326.1 4540,1329.8 4848,1507.6 5156,1329.8 5149.6,1326.1 "/>
   <polygon class="fil44" points="5156,1455.5 4848,1633.3 4848,1507.6 5156,1329.8 "/>
   <polygon class="fil45" points="4848,1633.3 4717.6,1558.1 4661.7,1525.7 4540,1455.5 4540,1329.8 4848,1507.6 "/>
   <path class="fil46" d="M4445.9 2095.3l-77.1 -44.5 -230.9 -133.3 308 -177.8 41.9 24.2 11.3 6.5 40.9 23.6 213.9 123.5 -213.9 123.5 -17 9.8 -77.1 44.5zm-0.5 -274.2c-58.8,0 -113.2,15.8 -142.7,41.6 -63.8,55.7 15.6,125.8 143,126l0.1 0c0.2,0 0.4,0 0.7,0 58.8,0 113.2,-15.8 142.7,-41.6 63.8,-55.7 -15.7,-125.7 -143.1,-126l0 0c-0.2,0 -0.4,0 -0.7,0z"/>
   <path class="fil47" d="M4446.5 1988.7c-0.3,0 -0.5,0 -0.7,0l-0.1 0c-127.4,-0.2 -206.8,-70.3 -143,-126 29.5,-25.8 83.9,-41.6 142.7,-41.6 0.3,0 0.5,0 0.7,0l0 0c127.4,0.3 206.9,70.3 143.1,126 -29.5,25.8 -83.9,41.6 -142.7,41.6z"/>
   <polygon class="fil48" points="4445.9,2088 4144.3,1913.8 4137.9,1917.5 4445.9,2095.3 4753.9,1917.5 4747.5,1913.8 "/>
   <polygon class="fil49" points="4445.9,2738.4 4137.9,2560.6 4137.9,1917.5 4445.9,2095.3 "/>
   <polygon class="fil50" points="4043.8,2615.4 3735.8,2437.6 4043.8,2259.8 4351.8,2437.6 "/>
   <polygon class="fil51" points="4043.8,2608.1 3742.2,2433.9 3735.8,2437.6 4043.8,2615.4 4351.8,2437.6 4345.5,2433.9 "/>
   <polygon class="fil52" points="4043.8,2971.1 3735.8,2793.2 3735.8,2437.6 4043.8,2615.4 "/>
   <polygon class="fil53" points="3641.8,2779 3333.8,2601.2 3641.8,2423.3 3949.8,2601.2 "/>
   <polygon class="fil54" points="3641.8,2771.6 3340.1,2597.5 3333.8,2601.2 3641.8,2779 3949.8,2601.2 3943.4,2597.5 "/>
   <polygon class="fil55" points="3641.8,3203.7 3641.8,3203.7 3333.8,3025.9 3333.8,2867.8 3333.8,2851.9 3333.8,2837.1 3333.8,2601.2 3538.1,2719.1 3550.9,2726.5 3564.7,2734.5 3641.8,2779 "/>
   <path class="fil56" d="M4739 1437.4l-148.5 -85.8c27.6,-14.8 59.7,-29 94.9,-41.3 63.6,-22.3 123.6,-33.7 167.2,-33.7 36.7,0 61.8,8.1 67.5,24.5 12.3,35.1 -68.2,95.3 -181.1,136.3z"/>
   <path class="fil57" d="M4731.2 1440.2l-147.2 -85c2.2,-1.2 4.3,-2.3 6.5,-3.6l148.5 85.8c-2.6,0.9 -5.2,1.9 -7.8,2.8z"/>
   <polygon class="fil58" points="4623.7,1170.4 4625.2,1133.5 4633.8,1111.9 4639.2,1129.8 "/>
   <path class="fil59" d="M4814.9 1285c-107.1,-2.6 -192,-57 -189.7,-151.5 2.2,-94.5 90.8,-169 197.9,-166.5 107,2.6 192,81.3 189.7,175.8 -2.3,94.5 -90.9,144.8 -197.9,142.2z"/>
   <path class="fil59" d="M4813.4 1346.2c-107,-2.6 -192,-81.3 -189.7,-175.8 2.3,-94.5 90.9,-169 197.9,-166.4 107.1,2.5 192,81.2 189.7,175.7 -2.2,94.5 -90.8,169.1 -197.9,166.5z"/>
   <path class="fil58" d="M4682.2 1051.8c-35.1,30.1 -57.4,71.9 -58.5,118.6 -2.3,94.5 82.7,173.2 189.7,175.8 53,1.3 101.4,-16.4 137.1,-45.9l-268.3 -248.5z"/>
   <path class="fil60" d="M4813.6 1338.6c-102.3,-2.5 -183.4,-77.7 -181.2,-167.9 2.1,-90.3 86.8,-161.5 189,-159.1 102.3,2.5 183.5,77.6 181.3,167.9 -2.2,90.3 -86.8,161.5 -189.1,159.1z"/>
   <path class="fil61" d="M4814.4 1306.3c-82.1,-2 -147.3,-62.3 -145.5,-134.8 1.7,-72.4 69.7,-129.6 151.8,-127.6 82.1,1.9 147.2,62.3 145.5,134.7 -1.8,72.5 -69.7,129.7 -151.8,127.7z"/>
   <path class="fil59" d="M4966.2 1178.6c0.1,-3 0,-5.9 -0.2,-8.9 -6.8,68.2 -72.5,120.6 -151.2,118.8 -78.7,-1.9 -141.8,-57.5 -145.3,-125.9 -0.3,2.9 -0.6,5.9 -0.6,8.9 -1.8,72.5 63.4,132.8 145.5,134.8 82.1,2 150,-55.2 151.8,-127.7z"/>
   <path class="fil59" d="M4846 1186.2l-30.5 -28.3c-29.3,6.7 -84,19.1 -127.7,29.4 10.8,32.7 37.3,59.7 72,74l86.2 -75.1z"/>
   <path class="fil59" d="M4798.1 1271.3c4.8,0.6 9.7,1 14.7,1.1 35.9,0.9 68.8,-10.9 93.2,-30.7l-49.8 -46.1 -58.1 75.7z"/>
   <path class="fil59" d="M4782.8 1127.6l-57.4 -53.2c-19.3,16.9 -36.6,35.5 -41.2,60.3l98.6 -7.1z"/>
   <path class="fil58" d="M4812.9 1059.5c82.1,2 147.2,62.4 145.5,134.8 -0.4,14.7 -3.5,28.8 -8.8,41.8 10.1,-17.2 16.1,-36.7 16.6,-57.5 1.7,-72.4 -63.4,-132.8 -145.5,-134.7 -65.5,-1.6 -121.9,34.4 -143,85.8 25.3,-42.9 76.6,-71.6 135.2,-70.2z"/>
   <path class="fil58" d="M4625.2 1133.5c-0.4,14.1 -1.7,24.2 1.6,37.4 4.3,-13.8 13.6,-55.3 13.6,-55.3l14.7 -33 12.3 -10.1 20.8 -15.2 1.7 -47.5c-38.7,30.3 -63.5,74.3 -64.7,123.7z"/>
   <path class="fil58" d="M5000.3 1128.7l0.8 -9.8c0,-1.4 1.1,-2.5 2.4,-2.4l0.8 0c1.3,0 2.3,1.2 2.3,2.6l-0.8 9.7c-0.1,1.4 -1.2,2.5 -2.5,2.5l-0.7 -0.1c-1.3,0 -2.3,-1.1 -2.3,-2.5z"/>
   <path class="fil58" d="M4983.3 1091.3l1 -17.5c0,-1.6 1.2,-2.8 2.7,-2.8l1.7 0.1c1.5,0 2.7,1.3 2.7,2.9l-1 17.5c-0.1,1.6 -1.3,2.9 -2.8,2.8l-1.7 0c-1.5,0 -2.7,-1.4 -2.6,-3z"/>
   <path class="fil58" d="M4959.7 1058.8l0.9 -17c0.1,-1.8 1.5,-3.2 3.2,-3.2l2.9 0.1c1.7,0.1 3.1,1.5 3,3.3l-1 17c0,1.8 -1.4,3.2 -3.1,3.2l-3 -0.1c-1.6,0 -3,-1.5 -2.9,-3.3z"/>
   <path class="fil58" d="M4924.3 1032.5l1.1 -20.6c0,-1.8 1.4,-3.2 3.1,-3.1l3 0c1.7,0.1 3,1.6 3,3.4l-1.1 20.5c-0.1,1.8 -1.5,3.3 -3.1,3.2l-3 -0.1c-1.7,0 -3,-1.5 -3,-3.3z"/>
   <path class="fil58" d="M4888.8 1015.3l1.1 -23.7c0.1,-1.8 1.4,-3.3 3.1,-3.2l3 0c1.7,0.1 3,1.6 3,3.4l-1.2 23.7c0,1.8 -1.4,3.2 -3.1,3.2l-3 -0.1c-1.7,0 -3,-1.5 -2.9,-3.3z"/>
   <path class="fil58" d="M4853 1004.7l1.2 -22.7c0,-1.8 1.4,-3.3 3.1,-3.2l3 0c1.7,0.1 3,1.6 2.9,3.4l-1.1 22.7c0,1.8 -1.4,3.3 -3.1,3.2l-3 0c-1.7,-0.1 -3,-1.6 -3,-3.4z"/>
   <path class="fil58" d="M4817.1 1001.1l1.2 -23.1c0,-1.8 1.4,-3.2 3.1,-3.2l3 0.1c1.7,0 3,1.5 3,3.3l-1.2 23.2c0,1.8 -1.4,3.2 -3.1,3.1l-3 0c-1.7,-0.1 -3,-1.6 -3,-3.4z"/>
   <path class="fil58" d="M4781.2 1001.9l1.1 -21.7c0,-1.8 1.4,-3.2 3.1,-3.1l3 0c1.6,0.1 3,1.5 2.9,3.4l-1.1 21.6c0,1.8 -1.4,3.2 -3.1,3.2l-3 -0.1c-1.7,0 -3,-1.5 -2.9,-3.3z"/>
   <path class="fil58" d="M4745 1009.8l1.1 -21c0,-1.8 1.4,-3.2 3.1,-3.2l3 0.1c1.7,0 3,1.5 3,3.3l-1.1 21c-0.1,1.8 -1.5,3.2 -3.2,3.2l-2.9 -0.1c-1.7,0 -3,-1.5 -3,-3.3z"/>
   <path class="fil58" d="M4708.6 1027.4l1.1 -22.7c0.1,-1.8 1.5,-3.2 3.2,-3.1l2.9 0c1.7,0.1 3,1.6 3,3.4l-1.1 22.7c-0.1,1.8 -1.5,3.2 -3.2,3.1l-2.9 0c-1.7,-0.1 -3,-1.6 -3,-3.4z"/>
   <path class="fil62" d="M4527.4 1790.6c0,0 5.5,5.7 11.2,12.4 5.7,6.8 21.8,16.2 28.5,20.4 6.7,4.1 37.6,27.5 44.1,50.5 6.4,23.1 -15.6,26.1 -38.2,22.1 -22.6,-4 -43.6,-24.8 -49.8,-32.3 -6.1,-7.5 -27.5,-24.6 -55.1,-38.9 -27.7,-14.3 -11,-33.6 -11,-33.6l70.3 -0.6z"/>
   <path class="fil62" d="M4321.9 1859c0,0 -4.5,10.3 -5.8,23.6 -1.3,13.3 -3.2,42.2 -3.8,50.7 -0.7,8.4 -1,29.1 13.8,48.9 14.9,19.8 22.6,27.6 42.3,19.8 19.8,-7.8 19.4,-40.9 15.9,-58 -3.5,-17.1 -6.8,-55.2 -6.4,-59.2 0.3,-4 -1.2,-6.6 -1.2,-6.6l-54.8 -19.2z"/>
   <path class="fil20" d="M4595.6 1399.3c0,0 -4.1,152.1 -39.6,232.8 0,0 -25.4,71.1 -28.7,155.7 0,0 5.8,14.5 -2.5,26.4 -8.3,11.8 -60.3,22.6 -68.9,-16.3 -8.6,-38.8 -5.3,-111.6 4.2,-141.9 9.4,-30.4 -3.4,-114 -3.4,-114 0,0 -14.2,9.1 -32.9,69.1 -18.6,60.1 -32.3,83 -38.8,99.6 -6.4,16.6 -12.3,118.5 -8.2,168.2 0,0 -42.1,6 -54.3,-14.2 -12.2,-20.1 -16.3,-124.3 -13.2,-157.5 3.1,-33.3 17,-139.7 15.1,-172.6 -1.9,-32.9 -8.8,-59.7 -1.2,-92.6 7.5,-32.9 229.8,-105.9 229.8,-105.9l42.6 63.2z"/>
   <path class="fil62" d="M4324.4 1534.6c-1.9,-32.9 -8.8,-59.7 -1.2,-92.6 2.8,-12.3 36,-30.4 76.3,-48.1 68,-6.2 154.3,-13.4 160.3,-12.5 5.3,0.8 19.4,6.2 31.1,10.8l4.7 7.1c0,0 -0.2,9.2 -1.1,24.3 -15.9,4.8 -46.4,-0.1 -46.4,-0.1 -4.3,10.7 -30.9,48.6 -63.8,64.9 -33,16.4 -129.5,10.8 -135.1,17 -5.5,6.2 -6.6,89.5 -5.9,100.1 0.6,10.6 -9.1,77.2 -18.1,136.1 -8.8,58 4.6,128.5 5,130.8 -3.1,-2 -5.8,-4.5 -7.7,-7.7 -12.2,-20.1 -16.3,-124.3 -13.2,-157.5 3.1,-33.3 17,-139.7 15.1,-172.6z"/>
   <path class="fil63" d="M4521.2 901.9c0,0 49.3,11.2 65.9,15.1 2.8,0.7 5,2.6 6,5.2 4.8,12.2 16.8,49.9 7.8,104.9 -11.1,67.6 -7.6,113.1 -7.6,113.1l22.8 118.8c0,0 28.7,113.1 26.2,116.2 -2.5,3 -66,51.4 -85.9,44.6 -19.9,-6.8 -13.3,-18 -13.3,-18 0,0 -16.1,81.9 -87.4,81.1 -71.2,-0.8 -129.4,-0.5 -141.5,-29.3 -12.1,-28.8 3.3,-149.9 15.8,-197.8 12.6,-48 42.5,-143.5 42.5,-143.5l-104.4 -115.5 89.2 -68.1c0,0 21.3,-39.6 30.1,-44.6 8.7,-5.1 13.3,-0.8 13.3,-0.8l120.5 18.6z"/>
   <path class="fil64" d="M4555.2 1393.7c-0.1,4.1 2.3,10.2 15.1,14.6 13.8,4.8 47.8,-15.8 70,-31.3 -11.1,9.2 -65.7,49 -83.9,42.8 -4,-1.3 -6.8,-2.9 -8.9,-4.5 4,-9.1 6.4,-17 7.7,-21.6z"/>
   <path class="fil65" d="M4314.7 1444c12.8,30.4 74.2,30.1 149.4,30.9 19.1,0.2 34.4,-5.2 46.7,-13.4 -13,12.4 -30.8,21.7 -55.1,21.4 -71.2,-0.8 -129.4,-0.5 -141.5,-29.3 -4,-9.5 -5,-28.9 -4.1,-52.4 -0.2,19.1 1.2,34.5 4.6,42.8z"/>
   <path class="fil66" d="M4389.3 883.1c0,0 -18.2,22 8,51.8 16.1,18.3 43.9,57.8 67.5,98.8 14.8,25.6 28.5,39.3 36.2,61.3 0,0 1.1,-26.2 2.1,-66.5 1,-38.1 1.5,-77.7 -0.2,-87.7 -3.5,-20.5 -93.5,-67.7 -113.6,-57.7z"/>
   <path class="fil67" d="M4457.4 949.4c0,0 9.4,5.8 12.6,5.3 3.2,-0.5 13.5,-10.5 13.5,-10.5 0,0 25.9,-0.5 28.7,-11.6 2.8,-11 4.7,-22.2 7.3,-28 2.6,-5.7 13.8,-33.3 13.9,-44.6 0.1,-11.2 -0.3,-31.2 4.5,-41.8 4.8,-10.6 11.4,-116.8 -91.1,-113.8 -102.5,3 -70.7,109.4 -70.7,109.4 0,0 -7.5,3.2 -2.9,16.9 4.5,13.7 5.5,15.1 7.8,21.9 2.3,6.8 3.5,11.2 10,16.7l1.7 12.6c0,0 -4.9,19.3 7.9,38 12.7,18.8 56.8,29.5 56.8,29.5z"/>
   <path class="fil20" d="M4589.9 918.3c0,0 11,1.6 46.4,90.8 19.8,49.8 50.4,101.3 56.8,138.3 6.5,37 2.9,76.5 -4.4,79.3 -7.1,2.7 -134.5,50.4 -174.3,65.4 -2.2,0.9 -4.6,-0.5 -5.1,-2.9l-10.9 -61.5 79 -30.5c0,0 15.1,-18.4 29.2,-25.3 0,0 -15.8,-29.2 -14.8,-37.2 1,-8 -1.4,-90.5 7.8,-124.1 9.3,-33.6 -9.7,-92.3 -9.7,-92.3z"/>
   <path class="fil67" d="M4543.6 1154c0,0 10.9,-7.3 13.6,-8.4 2.7,-1 17.3,-6 20,-7.2 2.1,-0.9 10.6,-0.2 14.8,0.2 1.6,0.2 2.9,1 3.7,2.4 3.3,6.2 12.7,24.4 11.6,31.3 0,0 -26.3,16.7 -29.2,24.1l-4.2 0.9c0,0 -17.6,-37.8 -30.3,-43.3z"/>
   <path class="fil20" d="M4330 1255.8c3.1,-11.5 7.1,-25.9 11.5,-40.9l160.1 68.6c0,0 -47.9,59 -131.9,55.2 -23,-1.1 -39.8,-9.3 -52.1,-16.5 3.7,-26.2 8.3,-50.4 12.4,-66.4z"/>
   <path class="fil20" d="M4268.1 996.8c0,0 42.3,5.8 76.4,59.9 34.1,54.1 58.9,116.6 58.9,116.6l1.2 7.1c3.1,18.4 22.7,28.9 39.7,21.3 36.1,-16.1 89.4,-40.4 99.3,-47.7 0,0 31.9,17.6 40.7,59.3 6.9,33.2 5.1,33.3 5.1,33.3 0,0 -142.2,66.4 -197.1,65.8 -54.9,-0.7 -124.5,-181.3 -132.2,-218.6 -7.7,-37.3 -16.1,-86.4 8,-97z"/>
   <path class="fil68" d="M4268.1 996.8c0,0 42.3,5.8 76.4,59.9 34.1,54.1 58.9,116.6 58.9,116.6l1.2 7.1c3.1,18.4 22.7,28.9 39.7,21.3 36.1,-16.1 89.4,-40.4 99.3,-47.7 0,0 31.9,17.6 40.7,59.3 6.9,33.2 5.1,33.3 5.1,33.3 0,0 -142.2,66.4 -197.1,65.8 -54.9,-0.7 -124.5,-181.3 -132.2,-218.6 -7.7,-37.3 -16.1,-86.4 8,-97z"/>
   <path class="fil63" d="M4423.9 1210.1c0,0 -17.9,16.8 -25.7,7.6 -7.8,-9.2 -5.6,-10.2 -5.6,-10.2 0,0 -16.1,-0.1 -18.1,-10.3 -1.9,-10.1 -9.9,-4.7 -10.3,-16 -0.5,-11.3 13,-9 13,-9l46.7 37.9z"/>
   <path class="fil67" d="M4445.6 1201.2c0,0 -5,-4.6 -11.3,-10 -6.4,-5.4 -16.7,-27.7 -18.4,-29.6 -1.7,-2 -23.2,-18.5 -33.5,-18.8 -10.4,-0.2 -2.7,11.3 -0.3,13 2.3,1.6 12.5,6.6 12.5,6.6 0,0 10.3,8.7 11.5,10 1.2,1.3 -28.9,-2 -33.6,0.9 -4.8,2.9 -3.7,10.6 -0.3,12.7 3.3,2.1 5.9,2 5.9,2 0,0 -3.4,9.1 5.7,13.3 9,4.2 11.1,1.8 11.1,1.8 0,0 0.7,15.6 15.6,12.6l35.1 -14.5z"/>
   <path class="fil69" d="M4540.2 763.9c0,0 13.4,42.6 -21.8,30.5 -35.3,-12.1 -67.1,-32.4 -78.2,-24.7 -8.4,5.9 -8,23.9 -7.3,32.2 0.2,2.8 -0.5,5.6 -2.2,7.9l-10.4 15.2c-1.2,1.7 -1.9,3.7 -2,5.8l-0.7 10.5c-0.3,2.7 -2.4,4.8 -5,4.9l-2.4 0.2c-2.7,0.1 -5.1,-1.8 -5.6,-4.4l-2.7 -15.5c0,0 -8.3,-20.9 -25.8,-12.7 0,0 -11.7,-15.7 -7.8,-49.4 3.9,-33.6 19,-68.6 85,-74.2 66.1,-5.6 86.9,73.7 86.9,73.7z"/>
   <path class="fil70" d="M4439.3 986.9l9.8 -7.7c0,0 9.2,7.6 12.7,15.7 3.6,8 0,33.6 0,33.6l3 5.2 3.7 -6.8 3.2 -30.2 -3.7 -23 -19.1 2c0,0 -6.5,5 -9.6,11.2z"/>
   <path class="fil70" d="M4486.8 956.8c0,0 10.5,0.7 15.3,4.6 0,0 -11.1,0.6 -12.9,0.8 -1.7,0.2 -2.4,-5.4 -2.4,-5.4z"/>
   <path class="fil20" d="M4466.7 959.1l-17.8 16.6c0,0 15.6,7.2 19.9,21.1 0,0 19.3,3.6 21.1,-3.4 1.7,-7 -0.1,-24.6 2.2,-32.4 2.3,-7.8 -25.4,-1.9 -25.4,-1.9z"/>
   <path class="fil20" d="M4489.2 993c0,0 3.3,14.5 6.9,20.5 3.6,6 7.2,12.7 7.2,12.7l-0.4 85c0,0 -31.3,-64.4 -38.1,-77.5 0,0 1.1,-31.1 4,-36.9 3,-5.9 20.4,-3.8 20.4,-3.8z"/>
   <path class="fil71" d="M4405.2 867.3c20.5,59.3 78.3,76.9 78.3,76.9 0,0 -10.3,10 -13.5,10.5 -3.2,0.5 -12.6,-5.3 -12.6,-5.3 0,0 -44.1,-10.7 -56.8,-29.5 -12.8,-18.7 -7.9,-38 -7.9,-38l-1.7 -12.6c9.2,3 14.2,-2 14.2,-2z"/>
   <path class="fil20" d="M4358.2 936.7c0,0 8.1,28 9.1,29 1.1,1.1 20.4,-1.1 20.4,-1.1l-9.4 17.8c0,0 97.3,104.3 117.5,160.4 0,0 -46.1,-71.1 -127.1,-156.1l11.5 -17.3 -19.9 3.8 -2.1 -36.5z"/>
   <path class="fil20" d="M4518 912l5.2 5.9 -6.1 5.7 18 16.2c0,0 5.5,114.2 -16.5,189.8 0,0 29.9,-69.4 23.1,-192.9l-19.5 -13.2 6.4 -6.3 -10.6 -5.2z"/>
   <path class="fil62" d="M4456.7 1542l-0.7 0.5 25.2 -26.8c-11.6,16.4 1.8,91.5 3.2,108.7 1.4,17.2 -13.5,52.7 -19,94.4 -5.6,41.5 5.8,100.9 5.8,101.1 -7.2,-4.2 -12.9,-11.2 -15.3,-22 -8.6,-38.8 -5.3,-111.6 4.2,-141.9 9.4,-30.4 -3.4,-114 -3.4,-114z"/>
   <path class="fil72" d="M4392.3 1312.4c-54.9,-0.7 -124.5,-181.3 -132.2,-218.6 -1.3,-6.2 -2.6,-12.8 -3.7,-19.4 0.1,0.5 14.4,39.5 28.1,74.1 13.8,34.8 87.2,140.3 124.7,147.1 33.8,6.2 155.5,-50.5 179,-61.8 2.1,12.7 1.2,12.8 1.2,12.8 0,0 -142.2,66.4 -197.1,65.8z"/>
   <path class="fil73" d="M4410.2 846.4c-2.7,0.1 -5.1,-1.8 -5.6,-4.4l-2.7 -15.5c0,0 -8.3,-20.9 -25.8,-12.7 0,0 -11,-14.9 -8,-46.7 19.4,29.2 62.6,42.7 62.6,42.7l-10.4 15.2c-1.2,1.7 -1.9,3.7 -2,5.8l-0.7 10.5c-0.3,2.7 -2.4,4.8 -5,4.9l-2.4 0.2z"/>
   <path class="fil74" d="M1964.1 3508.4c-36.7,0 -61.7,-8 -67.5,-24.4 -12.1,-34.6 66.1,-93.7 176.5,-134.7 -0.2,2 -0.3,4 -0.3,6 0,37.5 34.5,70.1 92.1,87.2 9.7,2.9 19.6,5.2 29.5,6.9 -19.6,9 -40.7,17.6 -63,25.4 -63.6,22.2 -123.7,33.6 -167.3,33.6zm251.3 -69.3c-15.8,-1.3 -31.5,-4.2 -46.8,-8.8 -52,-15.5 -83,-43.5 -83,-75 0,-3.7 0.5,-7.3 1.3,-10.9 63.2,-22 122.8,-33.3 166.2,-33.3 36.7,0 61.7,8.1 67.5,24.5 9.3,26.5 -34.5,67.4 -105.2,103.5z"/>
   <path class="fil75" d="M2194.4 3449.4c-9.9,-1.7 -19.8,-4 -29.5,-6.9 -57.6,-17.1 -92.1,-49.7 -92.1,-87.2 0,-2 0.1,-4 0.3,-6 4.2,-1.5 8.5,-3 12.8,-4.5 0.3,-0.2 0.6,-0.3 1,-0.4 -0.8,3.6 -1.3,7.2 -1.3,10.9 0,31.5 31,59.5 83,75 15.3,4.6 31,7.5 46.8,8.8 -6.8,3.5 -13.8,6.9 -21,10.3z"/>
   <polygon class="fil58" points="2024.2,3204.9 2025.6,3168 2034.2,3146.4 2039.7,3164.3 "/>
   <polygon class="fil59" points="2411.9,3212 2413.3,3175.7 2382.7,3207.1 "/>
   <path class="fil59" d="M2215.4 3319.5c-107.1,-2.6 -192,-57 -189.8,-151.5 2.3,-94.5 90.9,-169 198,-166.5 107,2.6 191.9,81.3 189.7,175.8 -2.3,94.5 -90.9,144.8 -197.9,142.2z"/>
   <path class="fil59" d="M2213.9 3380.7c-107,-2.6 -192,-81.3 -189.7,-175.8 2.2,-94.5 90.9,-169 197.9,-166.4 107,2.5 192,81.2 189.7,175.7 -2.2,94.5 -90.8,169 -197.9,166.5z"/>
   <path class="fil58" d="M2082.7 3086.3c-35.1,30 -57.4,71.9 -58.5,118.6 -2.3,94.5 82.7,173.2 189.7,175.8 53,1.3 101.4,-16.4 137.1,-45.9l-268.3 -248.5z"/>
   <path class="fil60" d="M2214.1 3373.1c-102.3,-2.5 -183.4,-77.7 -181.3,-168 2.2,-90.2 86.8,-161.4 189.1,-159 102.3,2.5 183.4,77.6 181.3,167.9 -2.2,90.3 -86.8,161.5 -189.1,159.1z"/>
   <path class="fil61" d="M2214.9 3340.8c-82.1,-1.9 -147.3,-62.3 -145.6,-134.8 1.8,-72.5 69.7,-129.6 151.8,-127.7 82.1,2 147.3,62.4 145.5,134.8 -1.7,72.5 -69.7,129.7 -151.7,127.7z"/>
   <path class="fil59" d="M2366.6 3213.1c0.1,-3 0,-5.9 -0.1,-8.9 -6.8,68.2 -72.5,120.6 -151.2,118.8 -78.7,-1.9 -141.8,-57.5 -145.4,-125.9 -0.3,3 -0.5,5.9 -0.6,8.9 -1.7,72.5 63.5,132.9 145.6,134.8 82,2 150,-55.2 151.7,-127.7z"/>
   <path class="fil59" d="M2246.5 3220.6l-30.5 -28.2c-29.3,6.7 -84.1,19.1 -127.8,29.4 10.9,32.7 37.4,59.7 72,74l86.3 -75.2z"/>
   <path class="fil59" d="M2198.5 3305.8c4.9,0.6 9.8,1 14.8,1.1 35.9,0.9 68.7,-10.9 93.2,-30.7l-49.8 -46.1 -58.2 75.7z"/>
   <path class="fil59" d="M2183.3 3162.1l-57.4 -53.2c-19.3,16.9 -36.6,35.5 -41.3,60.3l98.7 -7.1z"/>
   <path class="fil58" d="M2213.4 3094c82.1,2 147.2,62.3 145.5,134.8 -0.4,14.7 -3.5,28.8 -8.9,41.8 10.2,-17.2 16.2,-36.7 16.6,-57.5 1.8,-72.4 -63.4,-132.8 -145.5,-134.8 -65.4,-1.5 -121.9,34.5 -142.9,85.9 25.2,-42.9 76.6,-71.6 135.2,-70.2z"/>
   <path class="fil58" d="M2025.6 3168c-0.3,14.1 -1.6,24.2 1.7,37.4 4.3,-13.9 13.5,-55.3 13.5,-55.3l14.8 -33 12.3 -10.1 20.8 -15.2 1.7 -47.5c-38.7,30.3 -63.6,74.3 -64.8,123.7z"/>
   <path class="fil58" d="M2400.8 3163.2l0.8 -9.8c0,-1.4 1.1,-2.5 2.4,-2.5l0.7 0.1c1.4,0 2.4,1.2 2.4,2.5l-0.9 9.8c0,1.4 -1.1,2.5 -2.4,2.5l-0.7 0c-1.3,-0.1 -2.4,-1.2 -2.3,-2.6z"/>
   <path class="fil58" d="M2383.7 3125.8l1 -17.5c0.1,-1.6 1.3,-2.8 2.8,-2.8l1.7 0.1c1.5,0 2.7,1.3 2.6,2.9l-1 17.5c0,1.6 -1.2,2.9 -2.7,2.8l-1.7 0c-1.5,-0.1 -2.7,-1.4 -2.7,-3z"/>
   <path class="fil58" d="M2360.1 3093.3l1 -17c0.1,-1.8 1.5,-3.2 3.1,-3.2l3 0.1c1.7,0.1 3,1.5 3,3.3l-1 17c0,1.8 -1.4,3.2 -3.1,3.2l-3 -0.1c-1.7,0 -3,-1.5 -3,-3.3z"/>
   <path class="fil58" d="M2324.8 3067l1.1 -20.6c0,-1.8 1.4,-3.2 3.1,-3.1l3 0c1.7,0.1 3,1.6 2.9,3.4l-1 20.5c-0.1,1.8 -1.5,3.3 -3.2,3.2l-2.9 -0.1c-1.7,0 -3.1,-1.5 -3,-3.3z"/>
   <path class="fil58" d="M2289.2 3049.8l1.2 -23.7c0,-1.8 1.4,-3.3 3.1,-3.2l3 0c1.7,0.1 3,1.6 3,3.4l-1.2 23.7c0,1.8 -1.4,3.2 -3.1,3.2l-3 -0.1c-1.7,-0.1 -3,-1.6 -3,-3.3z"/>
   <path class="fil58" d="M2253.5 3039.2l1.1 -22.7c0.1,-1.8 1.5,-3.3 3.2,-3.2l2.9 0c1.7,0.1 3,1.6 3,3.4l-1.1 22.7c-0.1,1.8 -1.5,3.3 -3.1,3.2l-3 0c-1.7,-0.1 -3,-1.6 -3,-3.4z"/>
   <path class="fil58" d="M2217.6 3035.6l1.2 -23.1c0,-1.8 1.4,-3.2 3.1,-3.2l3 0.1c1.6,0 3,1.5 2.9,3.3l-1.1 23.1c0,1.8 -1.5,3.3 -3.1,3.2l-3 0c-1.7,-0.1 -3,-1.6 -3,-3.4z"/>
   <path class="fil58" d="M2181.6 3036.4l1.1 -21.7c0.1,-1.8 1.5,-3.2 3.2,-3.2l2.9 0.1c1.7,0.1 3.1,1.5 3,3.4l-1.1 21.6c0,1.8 -1.4,3.2 -3.1,3.2l-3 -0.1c-1.7,0 -3,-1.5 -3,-3.3z"/>
   <path class="fil58" d="M2145.5 3044.3l1.1 -21c0,-1.8 1.4,-3.2 3.1,-3.2l3 0.1c1.6,0 3,1.5 2.9,3.3l-1.1 21c0,1.8 -1.4,3.2 -3.1,3.2l-3 -0.1c-1.6,0 -3,-1.5 -2.9,-3.3z"/>
   <path class="fil58" d="M2109.1 3061.9l1.1 -22.7c0,-1.8 1.5,-3.2 3.1,-3.2l3 0.1c1.7,0.1 3,1.5 3,3.3l-1.1 22.8c-0.1,1.8 -1.5,3.2 -3.2,3.1l-2.9 0c-1.7,-0.1 -3.1,-1.6 -3,-3.4z"/>
   <path class="fil76" d="M4905.8 3244.1c-36.7,0 -61.7,-8 -67.5,-24.5 -12.6,-35.9 72.2,-98.2 189.2,-139.2 63.6,-22.2 123.6,-33.6 167.2,-33.6 36.7,0 61.8,8.1 67.5,24.5 12.6,35.9 -72.1,98.2 -189.2,139.2 -63.5,22.2 -123.6,33.6 -167.2,33.6z"/>
   <polygon class="fil77" points="4965.8,2940.6 4967.3,2903.7 4975.9,2882.1 4981.4,2900 "/>
   <polygon class="fil59" points="5353.5,2947.7 5355,2911.4 5324.3,2942.8 "/>
   <path class="fil59" d="M5157 3055.2c-107,-2.6 -192,-57 -189.7,-151.5 2.3,-94.5 90.9,-169.1 197.9,-166.5 107.1,2.6 192,81.3 189.7,175.8 -2.2,94.5 -90.8,144.7 -197.9,142.2z"/>
   <path class="fil59" d="M5155.6 3116.4c-107.1,-2.6 -192,-81.3 -189.8,-175.8 2.3,-94.5 90.9,-169 198,-166.4 107,2.5 191.9,81.2 189.7,175.7 -2.3,94.5 -90.9,169 -197.9,166.5z"/>
   <path class="fil58" d="M5024.4 2822c-35.2,30 -57.4,71.9 -58.6,118.6 -2.2,94.5 82.7,173.2 189.8,175.8 52.9,1.2 101.3,-16.4 137.1,-45.9l-268.3 -248.5z"/>
   <path class="fil60" d="M5155.8 3108.7c-102.3,-2.4 -183.5,-77.6 -181.3,-167.9 2.2,-90.3 86.8,-161.5 189.1,-159 102.2,2.4 183.4,77.6 181.2,167.9 -2.1,90.3 -86.8,161.5 -189,159z"/>
   <path class="fil61" d="M5156.5 3076.5c-82.1,-2 -147.2,-62.3 -145.5,-134.8 1.8,-72.5 69.7,-129.6 151.8,-127.7 82.1,2 147.3,62.3 145.5,134.8 -1.7,72.5 -69.7,129.7 -151.8,127.7z"/>
   <path class="fil59" d="M5308.3 2948.8c0.1,-3 0,-6 -0.1,-8.9 -6.9,68.2 -72.5,120.6 -151.3,118.7 -78.6,-1.8 -141.7,-57.4 -145.3,-125.8 -0.3,2.9 -0.5,5.9 -0.6,8.9 -1.7,72.5 63.4,132.8 145.5,134.8 82.1,2 150.1,-55.2 151.8,-127.7z"/>
   <path class="fil59" d="M5188.2 2956.3l-30.5 -28.2c-29.4,6.6 -84.1,19.1 -127.8,29.4 10.9,32.7 37.4,59.7 72,74l86.3 -75.2z"/>
   <path class="fil59" d="M5140.2 3041.5c4.8,0.6 9.8,1 14.8,1.1 35.9,0.8 68.7,-10.9 93.2,-30.7l-49.8 -46.1 -58.2 75.7z"/>
   <path class="fil59" d="M5125 2897.8l-57.4 -53.2c-19.4,16.9 -36.6,35.5 -41.3,60.3l98.7 -7.1z"/>
   <path class="fil58" d="M5155 2829.7c82.1,2 147.3,62.3 145.5,134.8 -0.3,14.7 -3.4,28.7 -8.8,41.8 10.2,-17.2 16.1,-36.7 16.6,-57.5 1.8,-72.5 -63.4,-132.8 -145.5,-134.8 -65.5,-1.5 -121.9,34.5 -143,85.9 25.3,-42.9 76.7,-71.6 135.2,-70.2z"/>
   <path class="fil58" d="M4967.3 2903.7c-0.3,14 -1.6,24.2 1.7,37.4 4.2,-13.9 13.5,-55.3 13.5,-55.3l14.8 -33 12.2 -10.1 20.9 -15.2 1.7 -47.5c-38.8,30.3 -63.6,74.2 -64.8,123.7z"/>
   <path class="fil58" d="M5342.4 2898.8l0.8 -9.7c0.1,-1.4 1.2,-2.5 2.5,-2.5l0.7 0c1.3,0.1 2.4,1.2 2.3,2.6l-0.8 9.8c0,1.4 -1.1,2.5 -2.4,2.4l-0.8 0c-1.3,0 -2.3,-1.2 -2.3,-2.6z"/>
   <path class="fil58" d="M5325.4 2861.5l1 -17.5c0,-1.6 1.3,-2.8 2.8,-2.8l1.7 0c1.5,0.1 2.7,1.4 2.6,3l-1 17.5c0,1.6 -1.3,2.8 -2.8,2.8l-1.7 0c-1.5,-0.1 -2.6,-1.4 -2.6,-3z"/>
   <path class="fil58" d="M5301.8 2829l1 -17c0,-1.8 1.4,-3.2 3.1,-3.2l3 0.1c1.7,0 3,1.5 3,3.3l-1 17c-0.1,1.8 -1.5,3.2 -3.2,3.2l-2.9 -0.1c-1.7,0 -3,-1.5 -3,-3.3z"/>
   <path class="fil58" d="M5266.5 2802.7l1 -20.6c0.1,-1.8 1.5,-3.2 3.2,-3.1l2.9 0c1.7,0.1 3,1.5 3,3.3l-1.1 20.6c0,1.8 -1.4,3.2 -3.1,3.2l-3 -0.1c-1.7,0 -3,-1.5 -2.9,-3.3z"/>
   <path class="fil58" d="M5230.9 2785.4l1.1 -23.7c0.1,-1.8 1.5,-3.2 3.2,-3.2l2.9 0.1c1.7,0.1 3.1,1.6 3,3.4l-1.1 23.6c-0.1,1.9 -1.5,3.3 -3.2,3.2l-2.9 0c-1.7,-0.1 -3,-1.6 -3,-3.4z"/>
   <path class="fil58" d="M5195.2 2774.9l1.1 -22.8c0,-1.8 1.4,-3.2 3.1,-3.2l3 0.1c1.7,0.1 3,1.6 3,3.3l-1.1 22.8c-0.1,1.8 -1.5,3.2 -3.2,3.2l-2.9 -0.1c-1.7,0 -3.1,-1.5 -3,-3.3z"/>
   <path class="fil58" d="M5159.3 2771.3l1.1 -23.1c0.1,-1.8 1.5,-3.2 3.2,-3.2l2.9 0.1c1.7,0 3,1.5 3,3.3l-1.1 23.1c-0.1,1.8 -1.5,3.3 -3.2,3.2l-2.9 -0.1c-1.7,0 -3.1,-1.5 -3,-3.3z"/>
   <path class="fil58" d="M5123.3 2772.1l1.1 -21.7c0.1,-1.8 1.4,-3.2 3.1,-3.2l3 0.1c1.7,0 3,1.5 3,3.3l-1.1 21.7c-0.1,1.8 -1.5,3.2 -3.2,3.2l-2.9 -0.1c-1.7,0 -3,-1.5 -3,-3.3z"/>
   <path class="fil58" d="M5087.1 2780l1.1 -21c0.1,-1.8 1.5,-3.2 3.1,-3.2l3 0.1c1.7,0 3,1.5 3,3.3l-1.1 21c0,1.8 -1.4,3.2 -3.1,3.2l-3 -0.1c-1.7,-0.1 -3,-1.5 -3,-3.3z"/>
   <path class="fil58" d="M5050.7 2797.6l1.2 -22.7c0,-1.8 1.4,-3.2 3.1,-3.2l3 0.1c1.7,0 3,1.5 2.9,3.3l-1.1 22.7c0,1.8 -1.4,3.3 -3.1,3.2l-3 -0.1c-1.7,0 -3,-1.5 -3,-3.3z"/>
   <polygon class="fil78" points="3239,3436.1 2937.5,3254.1 3333.8,3025.9 3641.8,3203.7 "/>
   <polygon class="fil79" points="5558,2095.3 5250,2273.2 5250,1241 5558,1063.2 "/>
   <polygon class="fil80" points="5156,2328 4848,2505.8 4848,1773.8 5156,1596 "/>
   <polygon class="fil81" points="4753.9,2560.6 4445.9,2738.4 4445.9,2095.3 4753.9,1917.5 "/>
   <polygon class="fil82" points="4351.8,2793.2 4043.8,2971.1 4043.8,2615.4 4351.8,2437.6 "/>
   <polygon class="fil83" points="3641.8,3203.7 3641.8,2779 3718.9,2734.5 3735.8,2724.7 3753.6,2714.4 3759.9,2710.8 3949.8,2601.2 3949.8,2820.4 3949.8,2827.7 3949.8,2849.2 3949.8,3025.9 "/>
  </g>
 </g>
</svg>
