<?xml version="1.0" encoding="UTF-8"?>
<!DOCTYPE svg PUBLIC "-//W3C//DTD SVG 1.1//EN" "http://www.w3.org/Graphics/SVG/1.1/DTD/svg11.dtd">
<!-- Creator: CorelDRAW 2019 (64-Bit) -->
<svg xmlns="http://www.w3.org/2000/svg" xml:space="preserve" width="697px" height="402px" version="1.1" style="shape-rendering:geometricPrecision; text-rendering:geometricPrecision; image-rendering:optimizeQuality; fill-rule:evenodd; clip-rule:evenodd"
viewBox="0 0 6970 4016.6"
 xmlns:xlink="http://www.w3.org/1999/xlink"
 xmlns:xodm="http://www.corel.com/coreldraw/odm/2003">
 <defs>
  <style type="text/css">
   <![CDATA[
    .fil6 {fill:#8A8BC3}
    .fil35 {fill:#FEFEFE;fill-rule:nonzero}
    .fil52 {fill:#FFF7D7;fill-rule:nonzero}
    .fil56 {fill:#FDF7E0;fill-rule:nonzero}
    .fil55 {fill:#FDF0CC;fill-rule:nonzero}
    .fil51 {fill:#FDEFC7;fill-rule:nonzero}
    .fil45 {fill:#FDD95D;fill-rule:nonzero}
    .fil54 {fill:#FBECC2;fill-rule:nonzero}
    .fil50 {fill:#FCE180;fill-rule:nonzero}
    .fil44 {fill:#F8C121;fill-rule:nonzero}
    .fil53 {fill:#F9E7B9;fill-rule:nonzero}
    .fil49 {fill:#F5C430;fill-rule:nonzero}
    .fil48 {fill:#F3B605;fill-rule:nonzero}
    .fil46 {fill:#E7A513;fill-rule:nonzero}
    .fil26 {fill:#CCDAF1;fill-rule:nonzero}
    .fil12 {fill:#8DD0E1;fill-rule:nonzero}
    .fil0 {fill:#8A8BC3;fill-rule:nonzero}
    .fil47 {fill:#6E6441;fill-rule:nonzero}
    .fil17 {fill:#569AD4;fill-rule:nonzero}
    .fil43 {fill:#6769AD;fill-rule:nonzero}
    .fil39 {fill:#6066AC;fill-rule:nonzero}
    .fil16 {fill:#3A80BF;fill-rule:nonzero}
    .fil11 {fill:#55559F;fill-rule:nonzero}
    .fil57 {fill:#4A6396;fill-rule:nonzero}
    .fil28 {fill:#4C4C98;fill-rule:nonzero}
    .fil27 {fill:#484392;fill-rule:nonzero}
    .fil10 {fill:#393183;fill-rule:nonzero}
    .fil20 {fill:#8155F3;fill-rule:nonzero}
    .fil33 {fill:url(#id2)}
    .fil25 {fill:url(#id3)}
    .fil32 {fill:url(#id4)}
    .fil2 {fill:url(#id5)}
    .fil38 {fill:url(#id6)}
    .fil36 {fill:url(#id7)}
    .fil31 {fill:url(#id8)}
    .fil29 {fill:url(#id9)}
    .fil30 {fill:url(#id10)}
    .fil4 {fill:url(#id11)}
    .fil24 {fill:url(#id12)}
    .fil1 {fill:url(#id13)}
    .fil7 {fill:url(#id14)}
    .fil18 {fill:url(#id15)}
    .fil5 {fill:url(#id16)}
    .fil41 {fill:url(#id17)}
    .fil21 {fill:url(#id18)}
    .fil40 {fill:url(#id19)}
    .fil13 {fill:url(#id20)}
    .fil3 {fill:url(#id21)}
    .fil15 {fill:url(#id22)}
    .fil14 {fill:url(#id23)}
    .fil23 {fill:url(#id24)}
    .fil19 {fill:url(#id25)}
    .fil8 {fill:url(#id26)}
    .fil9 {fill:url(#id27)}
    .fil22 {fill:url(#id28)}
    .fil34 {fill:url(#id29)}
    .fil37 {fill:url(#id30)}
    .fil42 {fill:url(#id31)}
   ]]>
  </style>
    <clipPath id="id0">
     <path d="M5790 1545.4l0 -0.6c0,-0.3 0.1,-0.6 0.1,-0.9l0 1.5 -0.1 0 0 0z"/>
    </clipPath>
    <clipPath id="id1">
     <path d="M5027.8 1444.4l-18.1 -10.4 -0.4 -0.3 10.2 0 13.5 7.8 -5.2 2.9 0 0z"/>
    </clipPath>
  <linearGradient id="id2" gradientUnits="userSpaceOnUse" x1="2846.5" y1="699.4" x2="3927.7" y2="699.4">
   <stop offset="0" style="stop-opacity:1; stop-color:#6372B5"/>
   <stop offset="1" style="stop-opacity:1; stop-color:#CCDAF1"/>
  </linearGradient>
  <linearGradient id="id3" gradientUnits="userSpaceOnUse" xlink:href="#id2" x1="2846.5" y1="1584" x2="3927.7" y2="1584">
  </linearGradient>
  <linearGradient id="id4" gradientUnits="objectBoundingBox" xlink:href="#id2" x1="4.44894%" y1="67.5035%" x2="95.5522%" y2="67.5035%">
  </linearGradient>
  <linearGradient id="id5" gradientUnits="userSpaceOnUse" x1="2487.7" y1="1613.9" x2="4274.1" y2="2640.4">
   <stop offset="0" style="stop-opacity:1; stop-color:#CFDBF1"/>
   <stop offset="1" style="stop-opacity:1; stop-color:#F0F8FC"/>
  </linearGradient>
  <linearGradient id="id6" gradientUnits="userSpaceOnUse" xlink:href="#id2" x1="3210.8" y1="455" x2="3563.5" y2="455">
  </linearGradient>
  <linearGradient id="id7" gradientUnits="userSpaceOnUse" x1="3109.6" y1="550.3" x2="3664.7" y2="550.3">
   <stop offset="0" style="stop-opacity:1; stop-color:#CCDAF1"/>
   <stop offset="1" style="stop-opacity:1; stop-color:#6372B5"/>
  </linearGradient>
  <linearGradient id="id8" gradientUnits="userSpaceOnUse" xlink:href="#id2" x1="2846.5" y1="699.4" x2="3927.7" y2="699.4">
  </linearGradient>
  <linearGradient id="id9" gradientUnits="userSpaceOnUse" xlink:href="#id2" x1="2846.5" y1="1293.2" x2="3927.7" y2="1293.2">
  </linearGradient>
  <linearGradient id="id10" gradientUnits="userSpaceOnUse" xlink:href="#id2" x1="2846.5" y1="996.3" x2="3927.7" y2="996.3">
  </linearGradient>
  <linearGradient id="id11" gradientUnits="userSpaceOnUse" x1="2459.7" y1="1488.1" x2="4301.1" y2="2551.7">
   <stop offset="0" style="stop-opacity:1; stop-color:#F0F8FC"/>
   <stop offset="1" style="stop-opacity:1; stop-color:#CFDBF1"/>
  </linearGradient>
  <linearGradient id="id12" gradientUnits="userSpaceOnUse" x1="2470" y1="1488.1" x2="4291.8" y2="2551.7">
   <stop offset="0" style="stop-opacity:1; stop-color:#6D70B2"/>
   <stop offset="1" style="stop-opacity:1; stop-color:#6060A7"/>
  </linearGradient>
  <linearGradient id="id13" gradientUnits="userSpaceOnUse" x1="6028.2" y1="-507.6" x2="-1102.5" y2="5230.1">
   <stop offset="0" style="stop-opacity:1; stop-color:#44529D"/>
   <stop offset="0.470588" style="stop-opacity:1; stop-color:#484392"/>
   <stop offset="1" style="stop-opacity:1; stop-color:#383386"/>
  </linearGradient>
  <linearGradient id="id14" gradientUnits="userSpaceOnUse" xlink:href="#id7" x1="5592" y1="1376.6" x2="4870" y2="1955.7">
  </linearGradient>
  <linearGradient id="id15" gradientUnits="userSpaceOnUse" xlink:href="#id7" x1="5592" y1="1188" x2="4870" y2="1764">
  </linearGradient>
  <linearGradient id="id16" gradientUnits="userSpaceOnUse" xlink:href="#id13" x1="6035.9" y1="-507.6" x2="-1081.5" y2="5230.1">
  </linearGradient>
  <linearGradient id="id17" gradientUnits="userSpaceOnUse" xlink:href="#id12" x1="2504.2" y1="1488" x2="4182.4" y2="2551.7">
  </linearGradient>
  <linearGradient id="id18" gradientUnits="userSpaceOnUse" xlink:href="#id13" x1="6014.7" y1="-507.6" x2="-1102.6" y2="5230.1">
  </linearGradient>
  <linearGradient id="id19" gradientUnits="userSpaceOnUse" xlink:href="#id12" x1="2563.3" y1="1488.1" x2="4241.6" y2="2551.7">
  </linearGradient>
  <linearGradient id="id20" gradientUnits="userSpaceOnUse" x1="6039.6" y1="-505.3" x2="-1115.5" y2="5225.1">
   <stop offset="0" style="stop-opacity:1; stop-color:#51B4E1"/>
   <stop offset="0.470588" style="stop-opacity:1; stop-color:#569AD4"/>
   <stop offset="1" style="stop-opacity:1; stop-color:#427BBE"/>
  </linearGradient>
  <linearGradient id="id21" gradientUnits="userSpaceOnUse" x1="2162.9" y1="2174.5" x2="3744.1" y2="2174.5">
   <stop offset="0" style="stop-opacity:1; stop-color:#CCDAF1"/>
   <stop offset="0.34902" style="stop-opacity:1; stop-color:#CCDAF1"/>
   <stop offset="0.890196" style="stop-opacity:1; stop-color:#6372B5"/>
   <stop offset="1" style="stop-opacity:1; stop-color:#6372B5"/>
  </linearGradient>
  <linearGradient id="id22" gradientUnits="userSpaceOnUse" x1="5728.5" y1="1553.3" x2="4633.7" y2="1529">
   <stop offset="0" style="stop-opacity:1; stop-color:#ABDCF5"/>
   <stop offset="1" style="stop-opacity:1; stop-color:#C4E5F0"/>
  </linearGradient>
  <linearGradient id="id23" gradientUnits="userSpaceOnUse" x1="5592" y1="1376.6" x2="4870" y2="1955.7">
   <stop offset="0" style="stop-opacity:1; stop-color:#A8DBF4"/>
   <stop offset="1" style="stop-opacity:1; stop-color:#73ACDD"/>
  </linearGradient>
  <linearGradient id="id24" gradientUnits="userSpaceOnUse" xlink:href="#id5" x1="1743.9" y1="2395.2" x2="654.9" y2="2371">
  </linearGradient>
  <linearGradient id="id25" gradientUnits="userSpaceOnUse" xlink:href="#id5" x1="5726.4" y1="1363.3" x2="4637.4" y2="1339.1">
  </linearGradient>
  <linearGradient id="id26" gradientUnits="userSpaceOnUse" xlink:href="#id5" x1="5726.4" y1="1553.2" x2="4637.4" y2="1529.1">
  </linearGradient>
  <linearGradient id="id27" gradientUnits="userSpaceOnUse" xlink:href="#id5" x1="5728.5" y1="1553.3" x2="4633.7" y2="1529">
  </linearGradient>
  <linearGradient id="id28" gradientUnits="userSpaceOnUse" xlink:href="#id7" x1="1609.6" y1="2220" x2="887.5" y2="2795.9">
  </linearGradient>
  <radialGradient id="id29" gradientUnits="userSpaceOnUse" gradientTransform="matrix(1.9547 -0 -0 -1.95468 -2852 1196)" cx="2987.1" cy="404.7" r="2189.6" fx="2987.1" fy="404.7">
   <stop offset="0" style="stop-opacity:1; stop-color:#CCDAF1"/>
   <stop offset="1" style="stop-opacity:1; stop-color:#6372B5"/>
  </radialGradient>
  <radialGradient id="id30" gradientUnits="userSpaceOnUse" gradientTransform="matrix(2.87512 -0 -0 -2.87506 -5852 1447)" xlink:href="#id29" cx="3120.7" cy="373.3" r="1124.2" fx="3120.7" fy="373.3">
  </radialGradient>
  <radialGradient id="id31" gradientUnits="userSpaceOnUse" gradientTransform="matrix(2.93923 -0 -0 -2.93924 -4658 4437)" xlink:href="#id29" cx="2401.8" cy="1126.3" r="1614.4" fx="2401.8" fy="1126.3">
  </radialGradient>
 </defs>
 <g id="Layer_x0020_1">
  <metadata id="CorelCorpID_0Corel-Layer"/>
  <g id="_1178647712">
   <path class="fil0" d="M4210.7 603.5c-7.3,0 -14.6,1.9 -21.1,5.6l-590.6 341c-3,1.8 -4.9,4.9 -4.9,8.5 0,3.5 1.9,6.7 4.9,8.4l272.6 157.4c13,7.5 29.1,7.5 42.1,0l590.6 -341c3.1,-1.7 4.9,-4.9 4.9,-8.4 0,-3.6 -1.8,-6.7 -4.9,-8.5l-272.6 -157.4c-6.5,-3.7 -13.8,-5.6 -21,-5.6zm-318 536.2c-9,0 -18,-2.3 -26,-6.9l-272.5 -157.4c-6.1,-3.5 -9.8,-9.8 -9.8,-16.8 0,-7.1 3.7,-13.4 9.8,-16.9l590.5 -341c16,-9.2 35.9,-9.2 51.9,0l272.5 157.4c6.1,3.5 9.8,9.8 9.8,16.9 0,7 -3.7,13.3 -9.8,16.8l-590.5 341c-8,4.6 -17,6.9 -25.9,6.9z"/>
   <path class="fil0" d="M3619.5 3240.8c22.9,13.2 63.2,11.4 89.9,-4l1175.3 -678.5c13.2,-7.6 20.7,-17.4 20.7,-26.8 0,-7.4 -4.9,-14.3 -13.9,-19.5l-1749.3 -1015.8c-22.9,-13.2 -63.2,-11.4 -89.9,4l-1175.3 678.5c-13.2,7.6 -20.7,17.4 -20.7,26.8 0,7.4 4.9,14.3 13.9,19.5l1749.3 1015.8zm38.7 18.4c-16.3,0 -31.9,-3.3 -43.6,-10l0 0 -1749.2 -1015.8c-12.1,-7 -18.8,-16.9 -18.8,-27.9 0,-13 9.3,-25.8 25.6,-35.2l1175.3 -678.5c29.3,-17 74,-18.7 99.6,-4l1749.2 1015.8c12.1,7 18.8,16.9 18.8,27.9 0,13 -9.3,25.8 -25.6,35.2l-1175.3 678.5c-16,9.3 -36.5,14 -56,14z"/>
   <path class="fil1" d="M3622.7 3135.4c-13.4,0 -26.3,-2.7 -35.9,-8.3l-266.6 -154.8 0 0 -4.9 -3 78.8 -45.7 60.6 -34.8 4.8 2.9 0 0 157.6 91.5c11,6.3 25.7,9.4 41.1,9.4 18.6,0 38.3,-4.5 53.6,-13.4l48 -27.7 -0.1 0 5.6 -3 -0.2 -0.1 318 -183.5 -0.1 -0.1 5 -3 72.2 41.5 -71.9 -41.5 318 -183.5 60.1 34.6 -60 -34.7 4.9 -3 0.2 0.1 223.5 -129.1 65.3 38c21.2,12.3 18.6,33.6 -5.9,47.7l-179 103.4 -57.4 -33.2 57.5 33.3 -5.5 2.7 0.3 0.2 -318 183.6 -0.1 -0.1 -4.9 3 -75.8 -43.6 75.6 43.6 -318 183.6 -61.5 -35.5 61.3 35.5 -4.9 3 -1.7 -0.9 1.6 0.9 -194.4 112.3c-13.4,7.7 -30.5,11.7 -46.8,11.7zm-625.1 -350.3l-5 -3 0.1 0 -317.1 -184.1 0 0 -4.9 -3 76.8 -44.4 62.7 -36.2 4.9 3.1 0 0 317.1 184.1 -0.1 0 4.9 3 -61.3 35.4 -78.1 45.1zm-193 -261.6l-52.2 29.8 -64.2 37.4 64.5 -37.3 51.9 -29.9zm-451.6 -112.7l-4.9 -3 0 0 -286.8 -166.5c-12.3,-7.1 -16.6,-17.4 -13.1,-27.4l29.8 -17.2 -30 17.2 0 0c1.4,-3 2.8,-6 5.7,-9l47.9 -27.6 64.1 -37.2 4.9 3 -19.1 11.1 19.1 -11 317 184.1 0 0 0.1 0 4.8 3 -29.2 17.1 29.5 -17.1 317.1 184.2 -62.3 36 -77.2 44.5 -317.1 -184.1 35.1 -20.3 -35.4 20.2zm961.9 558.4l-317.1 -184.1 78.1 -45.1 61.4 -35.4 317.1 184.1 -60.5 34.9 -79 45.6zm-1261.6 -764.3c3.4,-4 8,-7.9 14,-11.3l95.3 -55 2.8 1.6 -64.2 37.1 -47.9 27.6z"/>
   <path class="fil2" d="M3613.6 2976l-1705.1 -990.2c-23.6,-13.7 -20.7,-37.4 6.6,-53.2l1141 -523.2c27.2,-15.7 68.4,-153 92,-139.3l1705.1 990.3c23.6,13.6 20.7,37.3 -6.6,53.1l-1141 658.7c-27.2,15.8 -68.4,17.5 -92,3.8z"/>
   <path class="fil3" d="M3658.2 2992.6c-15.4,0 -30.1,-3.1 -41.1,-9.4l-157.6 -91.5 -5.1 -3 -317.1 -184.1 -5.1 -3 -317.2 -184.2 -5.1 -2.9 -317.1 -184.2 -5.1 -2.9 -317.1 -184.2 -5.2 -3 -2.8 -1.6 -107.7 -62.6 -9.7 -5.6 -177.4 -103c-7.1,-4.1 -11.7,-9 -14.1,-14.4 -0.7,-1.7 -1.3,-3.3 -1.6,-5.1l0 0c-0.3,-1.4 -0.4,-2.8 -0.4,-4.3l-0.3 0 0 -85.1 0.1 0c0.6,8.3 6,16.1 16.3,22.1l1749.3 1015.7c11,6.4 25.7,9.5 41.1,9.5 18.6,0 38.3,-4.6 53.6,-13.4l1175.3 -678.6c14,-8.1 21.8,-18.2 23,-28.1l0.1 0 0 85 -0.2 0c-0.4,10.5 -8,21.4 -22.9,30l-152.5 88 -5.1 3 -13 7.5 -9.7 5.6 -71.9 41.4 -223.4 129.1 -5.2 3 -318 183.5 -5.1 3 -318.1 183.6 -5.1 3 -48.2 27.8c-15.3,8.9 -35,13.4 -53.6,13.4z"/>
   <path class="fil4" d="M3658.2 2905.8c-15.4,0 -30.1,-3.1 -41.1,-9.5l-1749.3 -1015.7c-10.3,-6 -15.7,-13.8 -16.3,-22.1 -0.2,-2.8 0.1,-5.6 0.9,-8.4 0.5,-1.6 1.2,-3.2 2,-4.8l0 0c3.6,-7 10.3,-13.7 20.2,-19.4l291.1 -168.1 5.2 -3 318 -183.6 5.2 -3 318 -183.6 5.1 -2.9 29.3 -17 0 28.5c0,28.8 6.9,57.6 20.6,85.4 -13.9,28.3 -20.7,57.4 -20.6,86.6l0 118.9c0,63.3 33.2,126.7 99.7,180.6 -5.4,69 37.5,139 128.8,191.7 86.2,49.8 199.2,74.7 312.2,74.7 112.9,0 225.9,-24.9 312.1,-74.7 91.3,-52.6 134.2,-122.7 128.8,-191.7 61.6,-50 94.7,-108.1 99.1,-166.9l234.5 136.2 5.2 3 317.1 184.1 5.1 3 317.1 184.1 5.2 3 82.5 47.9c12.1,7 17.4,16.7 16.2,26.6 -1.2,9.9 -9,20 -23,28.1l-1175.3 678.6c-15.3,8.8 -35,13.4 -53.6,13.4zm-34.3 -861.8c-90.4,0 -180.8,19.9 -249.8,59.8 -138,79.6 -138,208.8 0,288.4 69,39.9 159.4,59.8 249.8,59.8 90.4,0 180.9,-19.9 249.8,-59.8 138,-79.6 138,-208.8 0,-288.4 -68.9,-39.9 -159.4,-59.8 -249.8,-59.8zm-665 -9.7c-38.8,0 -77.6,8.5 -107.2,25.6 -59.2,34.2 -59.2,89.7 0,123.9 29.6,17.1 68.4,25.6 107.2,25.6 38.8,0 77.7,-8.5 107.3,-25.6 59.2,-34.2 59.2,-89.7 0,-123.8 -29.7,-17.2 -68.5,-25.7 -107.3,-25.7z"/>
   <path class="fil5" d="M5325.8 2067.9c-4.8,0 -9.4,-1 -12.8,-3l-210.7 -121.6c90.4,-52.3 90.2,-52.1 -0.2,-0.1l-5 -2.9 0 0 -228.6 -132c-7.6,-4.4 -6.7,-12.1 2.1,-17.1l55.7 -32.2 0.1 0 5 -2.9 0.1 -0.1 70.7 -40.8 242.3 140 -3 1.7 3 -1.7 5.3 2.9 -0.1 0 63.3 36.6c3.4,1.9 8,2.9 12.8,2.9 5.9,0 12,-1.4 16.8,-4.2 255.3,-147.3 172.3,-99.4 308.7,-178.2l133.6 77.2c7.6,4.4 6.7,12.1 -2.1,17.1l-56.1 32.4 -0.1 0.1 0 0 -5 2.9 0 0 -49.1 -28.2 49 28.2 -318 183.6 -13.1 -7.5 13 7.5 -5.1 3 -65.3 -37.8 -58.8 -33.9 58.7 33.9 65.4 37.8 -55.7 32.2c-4.8,2.8 -10.9,4.2 -16.8,4.2zm-228.7 -127.6c91.5,-52.8 89.4,-51.6 0,0z"/>
   <path class="fil6" d="M5328 1430.3c-7.4,0 -15.2,1.7 -21.1,5.2l-617 356.2c-4.9,2.8 -7.8,6.3 -7.8,9.4 0,2.8 2.6,4.9 4.8,6.2l623 359.7c9.1,5.3 25.9,4.5 36.7,-1.8l617 -356.2c4.8,-2.8 7.7,-6.3 7.7,-9.3 0,-2.9 -2.6,-5 -4.7,-6.3l-623 -359.6c-4.1,-2.4 -9.7,-3.5 -15.6,-3.5zm-2.5 749.9c-7.6,0 -14.9,-1.6 -20.5,-4.9l-622.9 -359.6c-6.3,-3.6 -9.7,-8.8 -9.7,-14.6 0,-6.7 4.6,-13.2 12.6,-17.8l617 -356.2c13.9,-8 34.2,-8.8 46.4,-1.7l623 359.6c6.2,3.6 9.6,8.8 9.6,14.7 0,6.6 -4.6,13.1 -12.6,17.7l-617 356.2c-7.5,4.4 -16.9,6.6 -25.9,6.6z"/>
   <path class="fil7" d="M5325.8 1897.6c-4.8,0 -9.4,-0.9 -12.8,-2.9l-63.3 -36.6 -5.2 -2.9 -242.3 -140 -75.7 -43.6 -5.1 -3 -9.2 -5.3 -9.7 -5.6 -34 -19.6c-3.3,-2 -4.9,-4.5 -5,-7.2l-0.1 0 0 -85.8 0 -0.1 0 0 0 0 0 0 0 0 0 0.1 0 0.4 0 0.5 0.1 0c0.3,2.2 1.7,4.2 4.2,5.8 0,0 0,0 0,0 0,0 0,0 0,0 0.3,0.2 0.5,0.4 0.8,0.5l444.5 256.6 0 0c3.4,2 8,3 12.8,3 0,0 0,0 0,0 0.1,0 0.1,0 0.1,0 5.5,0 11.2,-1.3 15.9,-3.8 0,0 0.1,0 0.1,0 0.1,0 0.1,-0.1 0.2,-0.1 0.1,-0.1 0.2,-0.1 0.3,-0.2 0.1,0 0.2,-0.1 0.2,-0.1l440.2 -254.2c4,-2.3 6.4,-5.2 7.1,-8l0.1 -0.1 0 84.7c-0.2,3.2 -2.6,6.6 -7.2,9.2l-31.9 18.4 -9.7 5.6 -89.9 51.9 -72.1 41.6 -5.1 3 -231.5 133.6c-4.8,2.8 -10.9,4.2 -16.8,4.2zm-462.4 -352.6l0 0zm462.4 266.9l0 0zm16.8 -4.2l0 0z"/>
   <path class="fil8" d="M5313 1808.9l-444.5 -256.6c-7.6,-4.4 -6.7,-12 2.1,-17.1l440.2 -254.2c8.8,-5 22.1,-5.6 29.7,-1.2l444.4 256.6c7.7,4.4 6.7,12.1 -2.1,17.1l-440.2 254.2c-8.8,5.1 -22,5.6 -29.6,1.2z"/>
   <path class="fil9" d="M5325.8 1811.9l0 0c0.1,0 0.1,0 0.1,0 0,0 0,0 -0.1,0zm16.8 -4.2l440.2 -254.2 -440.2 254.2zm440.2 -254.2l0.2 -0.1 0 0 0.2 -0.1 0 0 0.3 -0.2 0.1 0 0.1 -0.1 0 0c3.5,-2.2 5.5,-4.8 6.1,-7.5l0.1 0c-0.6,2.6 -2.7,5.3 -6.2,7.5l0 0 -0.1 0.1 -0.1 0 -0.3 0.2 0 0 -0.2 0.1 0 0 -0.2 0.1zm-915.1 -1.7l-0.1 -0.1 -0.2 -0.1 0 0 -0.1 0 0 0 -0.1 -0.1 0 0 -0.1 -0.1 0 0 -0.5 -0.4 0 0c-1.8,-1.5 -2.8,-3.2 -3.1,-5l0 0c0.3,1.8 1.3,3.5 3.1,5l0 0 0.5 0.4 0 0 0.1 0.1 0 0 0.1 0.1 0 0 0.1 0 0 0 0.2 0.1 0.1 0.1zm-4.3 -6.3c0,-0.2 0,-0.3 0,-0.5 0,-0.1 0,-0.1 0,-0.1 0,-0.2 0,-0.4 0,-0.6l0 1.2zm926.7 -1.6l0 0 0 0 0 0 0 0zm0 0l0 -0.1c0,0 0,0 0,0.1zm-743.4 -110.4l264.1 -152.5 -264.1 152.5zm264.1 -152.5l0 0zm290.2 149.2l-260.5 -150.4 260.5 150.4 0 0zm-260.5 -150.4l0 0z"/>
   <path class="fil10" d="M5314.5 1778.9l-394 -227.5c-6.7,-3.9 -5.8,-10.7 1.9,-15.2l390.2 -225.2c7.8,-4.6 19.6,-5 26.3,-1.1l394 227.4c6.7,3.9 5.9,10.7 -1.9,15.2l-390.2 225.3c-7.8,4.5 -19.5,5 -26.3,1.1z"/>
   <path class="fil11" d="M5315.5 1759.8l-361.9 -209c-6.2,-3.5 -5.5,-9.8 1.7,-13.9l358.5 -207c7.1,-4.1 17.9,-4.6 24.1,-1l362 209c6.2,3.6 5.4,9.8 -1.7,14l-358.5 206.9c-7.2,4.1 -18,4.6 -24.2,1z"/>
   <polygon class="fil12" points="5318.4,1530.8 5276.1,1506.3 5299.2,1493 5341.5,1517.4 "/>
   <polygon class="fil12" points="5397.1,1527.3 5354.7,1551.7 5331.6,1538.4 5374,1514 "/>
   <polygon class="fil12" points="5308.8,1536.3 5285.7,1549.6 5262.6,1536.3 5285.7,1523 "/>
   <polygon class="fil12" points="5388.7,1582.4 5365.6,1595.8 5298.9,1557.3 5322,1543.9 "/>
   <g style="clip-path:url(#id0)">
    <image x="5783.9" y="1534.3" width="15.6" height="20.8" xlink:href="feature2_Images\feature2_ImgID1.png"/>
   </g>
   <g style="clip-path:url(#id1)">
    <image x="5003" y="1426.2" width="36.2" height="25.9" xlink:href="feature2_Images\feature2_ImgID2.png"/>
   </g>
   <path class="fil13" d="M5310.8 1281c4.8,-2.7 11,-4.2 16.8,-4.2 4.8,0 9.4,1 12.9,3 -3.5,-2 -8.1,-3 -12.9,-3 -5.8,0 -12,1.5 -16.8,4.2z"/>
   <path class="fil14" d="M5325.8 1811.9c0,0 0,0 0,0 0,0 0,0 0,0l0 0zm0.1 0c5.5,0 11.2,-1.3 15.9,-3.8 -4.7,2.5 -10.4,3.8 -15.9,3.8zm-12.9 -3l0 0 -444.5 -256.6c-0.3,-0.1 -0.5,-0.3 -0.8,-0.5 0.3,0.2 0.5,0.4 0.8,0.5l444.5 256.6 0 0zm28.9 -0.8c0.1,0 0.1,-0.1 0.2,-0.1 -0.1,0 -0.1,0.1 -0.2,0.1zm0.5 -0.3c0.1,0 0.2,-0.1 0.2,-0.1l0 0c0,0 -0.1,0.1 -0.2,0.1zm-474.7 -256c0,0 0,0 0,0 0,0 0,0 0,0zm-4.2 -5.8l-0.1 0 0 -0.5c0,0.2 0,0.3 0.1,0.5zm926.4 -0.5c0,-0.2 0.1,-0.4 0.1,-0.7l0 0.6 -0.1 0.1z"/>
   <path class="fil15" d="M5325.8 1811.9c0,0 0,0 0,0 -4.8,0 -9.4,-1 -12.8,-3l0 0 -444.5 -256.6c-0.3,-0.1 -0.5,-0.3 -0.8,-0.5 0,0 0,0 0,0 0,0 0,0 0,0 -2.5,-1.6 -3.8,-3.6 -4.2,-5.8l0 0c-0.1,-0.2 -0.1,-0.3 -0.1,-0.5l0 -1.2c0.3,-3.2 2.7,-6.5 7.2,-9.1l176.1 -101.7 0 0 264.1 -152.5 0 0c4.8,-2.7 11,-4.2 16.8,-4.2 4.8,0 9.4,1 12.9,3l0 0 260.5 150.4 183.9 106.2c3.5,2 5.1,4.6 5.2,7.4l0 0.1c0,0.3 -0.1,0.6 -0.1,0.9 0,0.3 -0.1,0.5 -0.1,0.7l-0.1 0c-0.7,2.9 -3,5.7 -7,8l-440.2 254.2c0,0 -0.1,0.1 -0.2,0.1 -0.1,0.1 -0.2,0.1 -0.3,0.2 -0.1,0 -0.1,0.1 -0.2,0.1 0,0 -0.1,0 -0.1,0 -4.7,2.5 -10.4,3.8 -15.9,3.8 0,0 0,0 -0.1,0zm1.7 -504.7c-5.2,0 -10.6,1.3 -14.9,3.8l-390.2 225.2c-7.7,4.5 -8.6,11.3 -1.9,15.2l394 227.5c3.1,1.7 7.2,2.6 11.4,2.6 5.2,0 10.7,-1.3 14.9,-3.7l390.2 -225.3c7.8,-4.5 8.6,-11.3 1.9,-15.2l-394 -227.4c-3,-1.8 -7.1,-2.7 -11.4,-2.7z"/>
   <path class="fil16" d="M5325.9 1781.5c-4.2,0 -8.3,-0.9 -11.4,-2.6l-394 -227.5c-6.7,-3.9 -5.8,-10.7 1.9,-15.2l390.2 -225.2c4.3,-2.5 9.7,-3.8 14.9,-3.8 4.3,0 8.4,0.9 11.4,2.7l394 227.4c6.7,3.9 5.9,10.7 -1.9,15.2l-390.2 225.3c-4.2,2.4 -9.7,3.7 -14.9,3.7zm1.5 -455c-4.7,0 -9.7,1.2 -13.6,3.4l-358.5 207c-7.2,4.1 -7.9,10.4 -1.7,13.9l361.9 209c2.8,1.6 6.6,2.4 10.5,2.4 4.8,0 9.8,-1.1 13.7,-3.4l358.5 -206.9c7.1,-4.2 7.9,-10.4 1.7,-14l-362 -209c-2.8,-1.6 -6.5,-2.4 -10.5,-2.4z"/>
   <path class="fil17" d="M5326 1762.2c-3.9,0 -7.7,-0.8 -10.5,-2.4l-361.9 -209c-6.2,-3.5 -5.5,-9.8 1.7,-13.9l358.5 -207c3.9,-2.2 8.9,-3.4 13.6,-3.4 4,0 7.7,0.8 10.5,2.4l362 209c6.2,3.6 5.4,9.8 -1.7,14l-358.5 206.9c-3.9,2.3 -8.9,3.4 -13.7,3.4zm-4 -218.3l-23.1 13.4 66.7 38.5 23.1 -13.4 -66.7 -38.5zm52 -29.9l-42.4 24.4 23.1 13.3 42.4 -24.4 -23.1 -13.3zm-88.3 9l-23.1 13.3 23.1 13.3 23.1 -13.3 -23.1 -13.3zm13.5 -30l-23.1 13.3 42.3 24.5 23.1 -13.4 -42.3 -24.4z"/>
   <polygon class="fil12" points="5318.4,1530.8 5276.1,1506.3 5299.2,1493 5341.5,1517.4 "/>
   <polygon class="fil12" points="5354.7,1551.7 5331.6,1538.4 5374,1514 5397.1,1527.3 "/>
   <polygon class="fil12" points="5285.7,1549.6 5262.6,1536.3 5285.7,1523 5308.8,1536.3 "/>
   <polygon class="fil12" points="5365.6,1595.8 5298.9,1557.3 5322,1543.9 5388.7,1582.4 "/>
   <path class="fil18" d="M5790 1440.1l0 -85.7 -139.6 0.1 -309.9 -178.9c-7.6,-4.4 -20.9,-3.9 -29.7,1.2l-308.5 178.1 -138.9 0.1 0 86 0.1 0c0.1,2.6 1.7,5.2 5,7.1l444.5 256.6c7.6,4.4 20.8,3.8 29.6,-1.2l440.2 -254.2c4.6,-2.6 7,-6 7.2,-9.2z"/>
   <path class="fil19" d="M5313 1618.9l-444.5 -256.6c-7.6,-4.4 -6.7,-12 2.1,-17.1l440.2 -254.1c8.8,-5.1 22.1,-5.7 29.7,-1.3l444.4 256.6c7.7,4.4 6.7,12.1 -2.1,17.2l-440.2 254.1c-8.8,5.1 -22,5.6 -29.6,1.2z"/>
   <path class="fil10" d="M5314.5 1588.9l-394 -227.5c-6.7,-3.9 -5.8,-10.7 1.9,-15.2l390.2 -225.2c7.8,-4.5 19.6,-5 26.3,-1.1l394 227.4c6.7,3.9 5.9,10.7 -1.9,15.2l-390.2 225.3c-7.8,4.5 -19.5,5 -26.3,1.1z"/>
   <path class="fil20" d="M5315.5 1569.8l-361.9 -208.9c-6.2,-3.6 -5.5,-9.9 1.7,-14l358.5 -207c7.1,-4.1 17.9,-4.5 24.1,-1l362 209c6.2,3.6 5.4,9.8 -1.7,14l-358.5 206.9c-7.2,4.2 -18,4.6 -24.2,1z"/>
   <polygon class="fil12" points="5318.4,1340.8 5276.1,1316.3 5299.2,1303 5341.5,1327.4 "/>
   <polygon class="fil12" points="5397.1,1337.3 5354.7,1361.7 5331.6,1348.4 5374,1324 "/>
   <polygon class="fil12" points="5308.8,1346.3 5285.7,1359.7 5262.6,1346.3 5285.7,1333 "/>
   <polygon class="fil12" points="5388.7,1392.4 5365.6,1405.8 5298.9,1367.3 5322,1354 "/>
   <path class="fil0" d="M4742.9 3173.5c-7,0 -14.1,-1.9 -20.4,-5.5l-438.9 -254.3 4.9 -8.4 438.9 254.3c9.6,5.5 21.5,5.5 31.1,0l1424.1 -817.5c2.3,-1.3 3.6,-3.7 3.6,-6.3 0,-2.6 -1.3,-5 -3.6,-6.3l-553.2 -319.1 4.9 -8.4 553.1 319.1c5.3,3.1 8.5,8.6 8.5,14.7 0,6.1 -3.2,11.6 -8.5,14.7l-1424.1 817.5c-6.3,3.6 -13.3,5.5 -20.4,5.5z"/>
   <path class="fil21" d="M1343.4 2921.4c-4.8,0 -9.4,-1 -12.9,-3l-251.3 -145.1 0 0 -5.1 -3 0 0 -0.1 0 -187.9 -108.5c-7.7,-4.4 -6.7,-12.1 2.1,-17.1l200.7 -115.9 0.1 0 5.1 -3 0 0 234.3 -135.3c4.8,-2.7 10.9,-4.2 16.7,-4.2 4.9,0 9.5,1 12.9,3l188 108.5 0 0 5.2 3 0 0 251.3 145.1c7.6,4.4 6.6,12.1 -2.1,17.1l-234.2 135.2 0 0.1 -5.2 3 0 0 -82.8 -47.8 82.8 47.8 -200.8 115.9c-4.8,2.8 -11,4.2 -16.8,4.2zm20.1 -312.2l-62.5 36 79.5 45.9 -79.5 -45.9 62.5 -36z"/>
   <path class="fil6" d="M1345.6 2267.4c-7.7,0 -15.9,1.8 -22.2,5.5l-643.9 371.7c-5.1,3 -8.2,6.7 -8.2,10 0,3.1 2.8,5.3 5.1,6.7l650.2 375.4c9.6,5.5 27.2,4.7 38.5,-1.8l643.9 -371.8c5.2,-3 8.2,-6.7 8.2,-10 0,-3.1 -2.7,-5.3 -5.1,-6.7l-650.1 -375.3c-4.3,-2.5 -10.2,-3.7 -16.4,-3.7zm-2.6 782.7c-7.9,0 -15.5,-1.7 -21.3,-5l-650.2 -375.4c-6.4,-3.7 -9.9,-9.1 -9.9,-15.1 0,-6.9 4.8,-13.6 13.1,-18.4l643.9 -371.7c14.4,-8.4 35.6,-9.1 48.2,-1.8l650.2 375.3c6.4,3.7 9.9,9.1 9.9,15.1 0,6.9 -4.7,13.6 -13,18.4l-644 371.8c-7.7,4.5 -17.5,6.8 -26.9,6.8z"/>
   <path class="fil22" d="M1807.5 2472.1l0 -85.7 -139.6 0 -309.9 -178.9c-7.6,-4.4 -20.9,-3.8 -29.6,1.3l-308.5 178.1 -139 0.1 0 85.9 0.1 0c0.1,2.7 1.7,5.2 5,7.1l444.5 256.6c7.6,4.4 20.9,3.9 29.7,-1.2l440.2 -254.1c4.5,-2.7 6.9,-6 7.1,-9.2z"/>
   <path class="fil23" d="M1330.5 2650.9l-444.5 -256.6c-7.6,-4.4 -6.6,-12.1 2.2,-17.1l440.2 -254.2c8.7,-5.1 22,-5.6 29.6,-1.2l444.5 256.6c7.6,4.4 6.6,12.1 -2.1,17.1l-440.2 254.2c-8.8,5 -22.1,5.6 -29.7,1.2z"/>
   <path class="fil10" d="M1332.1 2620.8l-394 -227.4c-6.8,-3.9 -5.9,-10.7 1.9,-15.2l390.2 -225.3c7.7,-4.5 19.5,-4.9 26.3,-1.1l393.9 227.5c6.8,3.9 5.9,10.7 -1.9,15.2l-390.1 225.3c-7.8,4.5 -19.6,4.9 -26.3,1z"/>
   <path class="fil20" d="M1333.1 2601.8l-362 -209c-6.2,-3.6 -5.4,-9.8 1.7,-13.9l358.5 -207c7.2,-4.1 18,-4.6 24.2,-1l361.9 209c6.2,3.5 5.4,9.8 -1.7,13.9l-358.5 207c-7.1,4.1 -17.9,4.6 -24.1,1z"/>
   <polygon class="fil12" points="1335.9,2372.7 1293.6,2348.3 1316.7,2335 1359.1,2359.4 "/>
   <polygon class="fil12" points="1414.6,2369.3 1372.3,2393.7 1349.2,2380.4 1391.5,2355.9 "/>
   <polygon class="fil12" points="1326.3,2378.3 1303.2,2391.6 1280.1,2378.3 1303.2,2364.9 "/>
   <polygon class="fil12" points="1406.2,2424.4 1383.1,2437.7 1316.5,2399.3 1339.6,2385.9 "/>
   <path class="fil0" d="M1367.9 3567.8c-9,0 -18.1,-2.3 -26.1,-7l-749.6 -431c-4.8,-2.7 -7.7,-7.7 -7.7,-13.2 0,-5.5 2.9,-10.5 7.7,-13.3l423.4 -243.4 4.8 8.4 -423.4 243.4c-2.5,1.5 -2.8,3.9 -2.8,4.9 0,1 0.3,3.4 2.8,4.8l749.6 431c13.1,7.6 29.4,7.6 42.5,0l1399.6 -791.3 4.7 8.5 -1399.5 791.2c-8,4.7 -17,7 -26,7z"/>
   <path class="fil0" d="M1621.2 1357.2c-7.7,0 -15.4,2 -22.3,6l-271.1 156.5c-3.1,1.8 -5,5 -5,8.6 0,3.6 1.9,6.8 5,8.6l271.1 156.6c13.8,7.9 30.9,7.9 44.7,0l271.1 -156.6c3.1,-1.8 4.9,-5 4.9,-8.6 0,-3.5 -1.8,-6.7 -4.9,-8.6l-271.1 -156.5c-6.9,-4 -14.6,-6 -22.4,-6zm0 351.9c-9.4,0 -18.8,-2.4 -27.1,-7.3l-271.1 -156.5c-6.2,-3.5 -9.9,-9.9 -9.9,-17 0,-7.1 3.7,-13.4 9.9,-17l271.1 -156.5c16.7,-9.7 37.6,-9.7 54.3,0l271.1 156.6c6.2,3.5 9.8,9.8 9.8,16.9 0,7.1 -3.6,13.5 -9.8,17l-271.1 156.5c-8.4,4.9 -17.8,7.3 -27.2,7.3z"/>
   <path class="fil0" d="M2791 3147.2c-6.9,0 -13.9,1.9 -20.2,5.4l-275 158.8c-2.7,1.6 -4.4,4.4 -4.4,7.6 0,3.1 1.7,5.9 4.4,7.5l275 158.8c12.5,7.2 28,7.2 40.5,0l275 -158.8c2.7,-1.6 4.4,-4.4 4.4,-7.5 0,-3.2 -1.7,-6 -4.4,-7.6l-275 -158.8c-6.3,-3.5 -13.3,-5.4 -20.3,-5.4zm0 353.2c-8.6,0 -17.3,-2.2 -25,-6.7l-275.1 -158.8c-5.7,-3.3 -9.2,-9.3 -9.2,-15.9 0,-6.7 3.5,-12.6 9.2,-16l275.1 -158.8c15.4,-8.9 34.7,-8.9 50.1,0l275.1 158.8c5.7,3.4 9.2,9.3 9.2,16 0,6.6 -3.5,12.6 -9.2,15.9l-275.1 158.8c-7.7,4.5 -16.4,6.7 -25.1,6.7z"/>
   <path class="fil24" d="M3387.2 2031.1c-113,0 -226,-24.9 -312.2,-74.7 -91.3,-52.7 -134.2,-122.7 -128.8,-191.7 17.3,14 36.9,27.5 58.7,40.1 105.5,60.9 243.9,91.4 382.2,91.4 138.4,0 276.8,-30.5 382.3,-91.4 21.8,-12.6 41.4,-26 58.7,-40.1 5.4,69 -37.5,139.1 -128.8,191.7 -86.2,49.8 -199.2,74.7 -312.1,74.7z"/>
   <path class="fil25" d="M3387.1 1896.2c-138.3,0 -276.7,-30.5 -382.2,-91.4 -21.8,-12.6 -41.4,-26.1 -58.7,-40.1 -66.5,-53.9 -99.7,-117.3 -99.7,-180.6l0 -118.7 0 -0.1 0 0 0 -0.1 0 0.1 0 0 0 0.1c0,1.6 0.1,3.2 0.1,4.7 0,79.9 52.7,159.8 158.3,220.8 105.5,60.9 243.9,91.4 382.2,91.4 138.4,0 276.8,-30.5 382.3,-91.4 81.8,-47.3 131.8,-105.9 150.2,-167.1 -9.7,27.4 -25.9,54.1 -48.4,79.5 37.7,-43.7 56.5,-91.5 56.5,-139.2l0 0 0 0 0 31.8 0 6 0 47.8 0 5.9 0 28.4c0,4.6 -0.1,9.2 -0.5,13.8 -4.4,58.8 -37.5,116.9 -99.1,166.9 -17.3,14.1 -36.9,27.5 -58.7,40.1 -105.5,60.9 -243.9,91.4 -382.3,91.4z"/>
   <path class="fil26" d="M3769.4 1684.8c-211.1,121.9 -553.4,121.9 -764.5,0 -211.1,-121.9 -211.1,-319.5 0,-441.4 211.1,-121.9 553.4,-121.9 764.5,0 211.1,121.9 211.1,319.5 0,441.4z"/>
   <path class="fil10" d="M3886.4 1459.5l0 -163.7 -38.3 0c-24.3,-33.8 -60.3,-65.5 -107.9,-93 -195,-112.6 -511.1,-112.6 -706.1,0 -47.7,27.5 -83.6,59.2 -107.9,93l-38.3 0 0 163.7c0,73.8 48.7,147.6 146.2,203.8 195,112.6 511.1,112.6 706.1,0.1 97.5,-56.3 146.2,-130.1 146.2,-203.9z"/>
   <path class="fil27" d="M3387.1 1708.4c-127.7,0 -255.5,-28.2 -353,-84.5 -97.5,-56.3 -146.2,-130 -146.2,-203.8l0 -7c26.4,36.7 65.3,71 117,100.8 105.5,60.9 243.9,91.4 382.3,91.4 107.5,0 215,-18.4 307.1,-55.2 -79.8,82.7 -175.3,129.9 -258,156.8 106.4,-6 210,-31.7 293.2,-77 -96,52.3 -219.2,78.5 -342.4,78.5zm342.5 -78.5c0.2,-0.1 0.3,-0.2 0.4,-0.3 -0.1,0.1 -0.2,0.2 -0.4,0.3zm0.6 -0.3c0.1,-0.1 0.2,-0.2 0.3,-0.2 -0.1,0 -0.2,0.1 -0.3,0.2zm0.5 -0.3c0.1,-0.1 0.3,-0.2 0.4,-0.2 -0.1,0 -0.3,0.1 -0.4,0.2zm0.6 -0.4c0.1,0 0.2,-0.1 0.3,-0.1 -0.1,0 -0.2,0.1 -0.3,0.1zm0.7 -0.3c0,0 0.1,-0.1 0.1,-0.1 0,0 -0.1,0.1 -0.1,0.1zm0.7 -0.4c0,0 0.1,-0.1 0.1,-0.1 0,0 -0.1,0.1 -0.1,0.1zm0.5 -0.3c0.1,-0.1 0.1,-0.1 0.2,-0.1 -0.1,0 -0.1,0.1 -0.2,0.1zm0.6 -0.3c0,-0.1 0.1,-0.1 0.1,-0.1 0,0 -0.1,0 -0.1,0.1zm0.5 -0.3c0.1,-0.1 0.2,-0.1 0.2,-0.1 0,0 -0.1,0 -0.2,0.1zm0.6 -0.4c0.1,0 0.1,0 0.2,0 -0.1,0 -0.1,0 -0.2,0zm0.6 -0.3c0,0 0.1,0 0.1,-0.1 0,0.1 -0.1,0.1 -0.1,0.1zm1.2 -0.7c0,0 0.1,0 0.1,0 0,0 -0.1,0 -0.1,0zm0.6 -0.3c0,0 0.1,0 0.1,-0.1 0,0.1 -0.1,0.1 -0.1,0.1zm0.5 -0.3c0.1,0 0.1,-0.1 0.2,-0.1 -0.1,0 -0.1,0.1 -0.2,0.1zm0.6 -0.3c0,0 0.1,-0.1 0.1,-0.1 0,0 -0.1,0.1 -0.1,0.1zm0.5 -0.3c0.1,-0.1 0.1,-0.1 0.2,-0.1 -0.1,0 -0.1,0 -0.2,0.1zm0.6 -0.4c0,0 0.1,0 0.1,0 0,0 -0.1,0 -0.1,0zm4.1 -2.3c95.2,-56.1 142.8,-129 142.8,-201.9 0,72.9 -47.6,145.8 -142.8,201.9z"/>
   <path class="fil26" d="M3740.2 1499.6c-195,112.6 -511.1,112.6 -706.1,0 -195,-112.5 -195,-295.1 0,-407.6 195,-112.6 511.1,-112.6 706.1,0 194.9,112.6 195,295.1 0,407.6z"/>
   <path class="fil28" d="M3729.5 1629.9c0.1,0 0.1,0 0.1,0 0,0 0,0 -0.1,0zm0.5 -0.3c0.1,0 0.1,0 0.2,0 -0.1,0 -0.1,0 -0.2,0zm0.5 -0.2c0.1,-0.1 0.2,-0.1 0.2,-0.1 0,0 -0.1,0 -0.2,0.1zm0.6 -0.3c0.1,-0.1 0.1,-0.1 0.2,-0.2 -0.1,0.1 -0.1,0.1 -0.2,0.2zm0.5 -0.3c0.1,-0.1 0.2,-0.1 0.4,-0.2 -0.2,0.1 -0.3,0.1 -0.4,0.2zm0.5 -0.3c0.2,-0.1 0.4,-0.2 0.6,-0.3 -0.2,0.1 -0.4,0.2 -0.6,0.3zm0.7 -0.4c0.2,-0.1 0.3,-0.1 0.4,-0.2 -0.1,0.1 -0.2,0.1 -0.4,0.2zm0.6 -0.3c0.1,-0.1 0.3,-0.2 0.4,-0.2 -0.1,0 -0.3,0.1 -0.4,0.2zm0.5 -0.3c0.2,-0.1 0.3,-0.2 0.4,-0.2 -0.1,0 -0.2,0.1 -0.4,0.2zm0.6 -0.3c0.1,-0.1 0.3,-0.2 0.4,-0.3 -0.1,0.1 -0.3,0.2 -0.4,0.3zm0.6 -0.3c0.1,-0.1 0.2,-0.2 0.4,-0.3 -0.2,0.1 -0.3,0.2 -0.4,0.3zm0.5 -0.4c0.4,-0.2 0.7,-0.4 1.1,-0.6 -0.4,0.2 -0.7,0.4 -1.1,0.6zm1.2 -0.6c0.2,-0.1 0.3,-0.2 0.5,-0.3 -0.2,0.1 -0.3,0.2 -0.5,0.3zm0.6 -0.4c0.2,0 0.3,-0.1 0.4,-0.2 -0.1,0.1 -0.2,0.2 -0.4,0.2zm0.6 -0.3c0.1,-0.1 0.2,-0.2 0.4,-0.2 -0.2,0.1 -0.3,0.1 -0.4,0.2zm0.5 -0.3c0.2,-0.1 0.3,-0.1 0.4,-0.2 -0.1,0 -0.2,0.1 -0.4,0.2zm0.6 -0.3c0.1,-0.1 0.3,-0.2 0.4,-0.3 -0.1,0.1 -0.3,0.2 -0.4,0.3zm0.5 -0.3c0.2,-0.1 0.4,-0.3 0.6,-0.3 1.1,-0.7 2.3,-1.4 3.4,-2 -1.1,0.6 -2.3,1.3 -3.4,2 -0.2,0 -0.4,0.2 -0.6,0.3z"/>
   <path class="fil11" d="M3436.3 1706.9c82.7,-26.9 178.2,-74.1 258,-156.8 26.5,-10.6 51.6,-22.6 75.1,-36.2 51.6,-29.8 90.6,-64.1 117,-100.8l0 7c0,72.9 -47.6,145.8 -142.8,201.9 -1.1,0.6 -2.3,1.3 -3.4,2 -0.2,0 -0.4,0.2 -0.6,0.3 0,0 -0.1,0 -0.1,0 -0.1,0.1 -0.3,0.2 -0.4,0.3 -0.1,0 -0.1,0 -0.2,0.1 -0.1,0.1 -0.2,0.1 -0.4,0.2 0,0 -0.1,0.1 -0.1,0.1 -0.2,0 -0.3,0.1 -0.4,0.2 -0.1,0 -0.1,0.1 -0.2,0.1 -0.1,0.1 -0.2,0.2 -0.4,0.2 0,0.1 -0.1,0.1 -0.1,0.1 -0.2,0.1 -0.3,0.2 -0.5,0.3 0,0 -0.1,0 -0.1,0 -0.4,0.2 -0.7,0.4 -1.1,0.6 0,0.1 -0.1,0.1 -0.1,0.1 -0.2,0.1 -0.3,0.2 -0.4,0.3 -0.1,0 -0.1,0 -0.2,0 -0.1,0.1 -0.3,0.2 -0.4,0.3 0,0 -0.1,0 -0.2,0.1 -0.1,0 -0.2,0.1 -0.4,0.2 0,0 -0.1,0 -0.1,0.1 -0.1,0 -0.3,0.1 -0.4,0.2 -0.1,0 -0.1,0 -0.2,0.1 -0.1,0.1 -0.2,0.1 -0.4,0.2 0,0 -0.1,0.1 -0.1,0.1 -0.2,0.1 -0.4,0.2 -0.6,0.3 0,0 -0.1,0.1 -0.1,0.1 -0.2,0.1 -0.3,0.1 -0.4,0.2 -0.1,0 -0.2,0.1 -0.3,0.1 -0.1,0.1 -0.1,0.1 -0.2,0.2 -0.1,0 -0.3,0.1 -0.4,0.2 0,0 -0.1,0 -0.2,0.1 -0.1,0 -0.2,0.1 -0.3,0.2 -0.1,0 -0.1,0 -0.2,0 -0.1,0.1 -0.2,0.2 -0.4,0.3 0,0 0,0 -0.1,0 -83.2,45.3 -186.8,71 -293.2,77zm306 -145.6c-10.4,0 -23.7,2.8 -38.5,8.7 -36.4,14.3 -68.2,41.4 -71.1,60.6 -1.7,11.3 7.2,17.3 22.3,17.3 10.3,0 23.6,-2.8 38.5,-8.7 36.4,-14.3 68.2,-41.5 71.1,-60.6 1.7,-11.3 -7.2,-17.3 -22.3,-17.3zm48.9 -26c-4.2,0 -8.8,1.5 -12.9,4.4 -8.5,6.2 -11.7,16.4 -7.1,22.9 2.4,3.4 6.5,5.1 11.1,5.1 4.1,0 8.8,-1.4 12.9,-4.4 8.5,-6.1 11.7,-16.3 7.1,-22.8 -2.5,-3.4 -6.5,-5.2 -11.1,-5.2z"/>
   <path class="fil29" d="M3387.2 1605.3c-138.4,0 -276.8,-30.5 -382.3,-91.4 -51.7,-29.8 -90.6,-64.1 -117,-100.8 -8.1,-11.3 -15.1,-22.8 -20.8,-34.5 -13.7,-27.8 -20.6,-56.6 -20.6,-85.4l0 -118.9c0.5,78.5 52,157 154.5,217.4 0,0 0,0 0,0 0.1,0.1 0.3,0.1 0.4,0.2 0,0 0,0 0.1,0.1 0.2,0.1 0.3,0.2 0.5,0.3 0.1,0 0.2,0.1 0.2,0.1 0.1,0.1 0.2,0.1 0.3,0.2 0.2,0.1 0.3,0.1 0.4,0.2 0.1,0.1 0.2,0.1 0.3,0.2 0.1,0 0.2,0.1 0.3,0.2 0.1,0 0.2,0 0.2,0.1 0.2,0.1 0.3,0.2 0.5,0.3 0,0 0.1,0 0.2,0 0.1,0.2 0.3,0.2 0.5,0.4 0.4,0.2 0.7,0.4 1.1,0.6 105.4,60.5 243.2,90.8 381.1,90.8 0,0 0,0 0,0 0.1,0 0.1,0 0.1,0 138.3,0 276.7,-30.5 382.2,-91.4 0.2,-0.2 0.4,-0.2 0.6,-0.4 0,0 0.1,0 0.2,-0.1 0.1,0 0.2,-0.1 0.3,-0.2 0.1,0 0.2,-0.1 0.3,-0.1 0.1,-0.1 0.2,-0.1 0.3,-0.2 0,0 0.1,-0.1 0.2,-0.1 0.1,-0.1 0.2,-0.2 0.3,-0.2 0.2,-0.1 0.4,-0.2 0.6,-0.3 0,-0.1 0.1,-0.1 0.1,-0.1 0.2,-0.1 0.3,-0.2 0.4,-0.3 0,0 0.1,0 0.1,0 103.3,-60.7 154.9,-139.7 154.9,-218.7l0 0 0 0 0 3.2 0 6 0 110.7c0.1,28.8 -6.8,57.6 -20.5,85.5 -5.7,11.6 -12.7,23.1 -20.8,34.4 -26.4,36.7 -65.4,71 -117,100.8 -23.5,13.6 -48.6,25.6 -75.1,36.2 -92.1,36.8 -199.6,55.2 -307.1,55.2zm-499.3 -192.2l0 0zm499.2 72.3l0 0zm499.3 -72.3l0 0z"/>
   <path class="fil26" d="M3769.4 1394c-211.1,121.8 -553.4,121.8 -764.5,0 -211.1,-121.9 -211.1,-319.6 0,-441.4 211.1,-121.9 553.4,-121.9 764.5,0 211.1,121.9 211.1,319.5 0,441.4z"/>
   <path class="fil10" d="M3886.4 1162.6l0 -163.7 -38.3 0c-24.3,-33.8 -60.3,-65.5 -107.9,-93 -195,-112.6 -511.1,-112.6 -706.1,0 -47.7,27.5 -83.6,59.2 -107.9,93l-38.3 0 0 163.7c0,73.8 48.7,147.6 146.2,203.9 195,112.5 511.1,112.5 706.1,0 97.5,-56.3 146.2,-130.1 146.2,-203.9z"/>
   <path class="fil27" d="M3387.1 1413.4c-127.7,0 -255.5,-28.1 -353,-84.4 -97.5,-56.3 -146.2,-130.1 -146.2,-203.8l0 -9c26.4,36.7 65.3,71 117,100.8 105.5,60.9 243.9,91.4 382.2,91.4 97.7,0 195.3,-15.1 281.4,-45.5 -97.4,88.6 -212.4,130.3 -298.2,150.1 5.6,0.1 11.3,0.1 17,0.1 126,0 251.9,-27.1 348.8,-81.8 -96.9,54.8 -222.9,82.1 -349,82.1z"/>
   <path class="fil26" d="M3740.2 1202.7c-195,112.6 -511.1,112.6 -706.1,0 -195,-112.5 -195,-295.1 0,-407.6 195,-112.6 511.1,-112.6 706.1,0 194.9,112.6 195,295.1 0,407.6z"/>
   <path class="fil28" d="M3736.1 1331.3c1.4,-0.8 2.7,-1.5 4.1,-2.3 97.5,-56.3 146.2,-130.1 146.2,-203.8l0 0c0,73.7 -48.7,147.5 -146.2,203.8 -1.4,0.8 -2.7,1.5 -4.1,2.3z"/>
   <path class="fil11" d="M3387.3 1413.1c-5.7,0 -11.4,0 -17,-0.1 85.8,-19.8 200.8,-61.5 298.2,-150.1 35.9,-12.7 69.9,-28 100.9,-45.9 51.6,-29.8 90.6,-64.1 117,-100.8l0 9c0,73.7 -48.7,147.5 -146.2,203.8 -1.4,0.8 -2.7,1.5 -4.1,2.3 -96.9,54.7 -222.8,81.8 -348.8,81.8zm353 -154.9c-10.4,0 -23.7,2.8 -38.5,8.6 -36.4,14.4 -68.2,41.5 -71.1,60.6 -1.7,11.4 7.2,17.3 22.3,17.3 10.3,0 23.6,-2.8 38.5,-8.6 36.4,-14.4 68.2,-41.5 71.1,-60.6 1.7,-11.3 -7.2,-17.3 -22.3,-17.3zm50.9 -24.3c-4.2,0 -8.8,1.5 -12.9,4.4 -8.5,6.1 -11.7,16.4 -7.1,22.9 2.4,3.4 6.5,5.1 11.1,5.1 4.1,0 8.8,-1.4 12.9,-4.4 8.5,-6.1 11.7,-16.3 7.1,-22.9 -2.5,-3.4 -6.5,-5.1 -11.1,-5.1z"/>
   <path class="fil30" d="M3387.1 1308.4c-138.3,0 -276.7,-30.5 -382.2,-91.4 -51.7,-29.8 -90.6,-64.1 -117,-100.8 -7.4,-10.3 -13.9,-20.8 -19.3,-31.4 -13,-25.6 -20.3,-51.9 -21.8,-78.4 -0.1,-1.9 -0.2,-3.8 -0.2,-5.8 0,-1.4 -0.1,-2.9 -0.1,-4.3l0 -64.9 0 -6 0 -48c0.5,75.9 48.6,151.7 144.2,211.1 0,0.1 0.1,0.1 0.1,0.1 0.3,0.2 0.6,0.4 1,0.6 0,0.1 0.1,0.1 0.1,0.1 0.2,0.1 0.3,0.2 0.5,0.3 0.1,0 0.2,0.1 0.2,0.2 0.1,0 0.2,0.1 0.3,0.1 0.1,0.1 0.2,0.1 0.3,0.2 0.1,0 0.2,0.1 0.3,0.2 0.1,0.1 0.2,0.1 0.3,0.2 0.1,0 0.2,0.1 0.3,0.1 0.1,0.1 0.2,0.2 0.4,0.3 0,0 0.1,0.1 0.2,0.1 0.1,0.1 0.2,0.1 0.3,0.2 0.1,0.1 0.2,0.1 0.2,0.1 0.2,0.1 0.3,0.2 0.5,0.3 0,0 0.1,0.1 0.1,0.1 0.2,0.1 0.3,0.2 0.4,0.3 0.1,0 0.1,0 0.2,0 0.1,0.1 0.3,0.2 0.5,0.3 0,0.1 0.1,0.1 0.1,0.1 0.2,0.1 0.4,0.2 0.5,0.3 0,0 0.1,0.1 0.1,0.1 0.2,0.1 0.3,0.2 0.5,0.3 0,0 0.1,0 0.1,0 0.2,0.1 0.4,0.2 0.5,0.4 0.1,0 0.1,0 0.1,0 0.2,0.1 0.4,0.2 0.5,0.3 0.1,0 0.1,0 0.1,0 0.2,0.1 0.3,0.3 0.5,0.4 0.1,0 0.1,0 0.1,0 0.4,0.2 0.8,0.5 1.2,0.7 0,0 0,0 0,0 0.2,0.1 0.4,0.3 0.6,0.4l0 0c0.2,0.1 0.4,0.2 0.6,0.3 0,0 0,0 0.1,0 0.1,0.1 0.3,0.3 0.5,0.4 0,0 0.1,0 0.1,0 0.2,0.1 0.3,0.2 0.5,0.3 0,0 0.1,0 0.1,0 0.1,0.2 0.3,0.3 0.5,0.4 0,0 0.1,0 0.1,0 0.2,0.1 0.4,0.2 0.6,0.4 0.4,0.2 0.7,0.4 1.1,0.6 105.4,60.5 243.2,90.8 381.1,90.8 0,0 0,0 0,0 0.1,0 0.1,0 0.1,0 137.4,0 274.8,-30.1 380,-90.2 0.5,-0.3 1,-0.6 1.5,-0.8 0.3,-0.2 0.5,-0.3 0.7,-0.4 0.2,-0.1 0.4,-0.2 0.6,-0.4 0,0 0.1,0 0.2,-0.1 0.1,-0.1 0.2,-0.1 0.3,-0.2 0.1,0 0.2,-0.1 0.3,-0.1 0.1,-0.1 0.1,-0.1 0.2,-0.2 0.4,-0.2 0.8,-0.5 1.3,-0.7l0 0c103.6,-60.7 155.4,-139.9 155.4,-219l0 0 0 119.9c0.1,29.8 -7.3,59.6 -22,88.5 -5.5,10.6 -11.9,21.1 -19.3,31.4 -26.4,36.7 -65.4,71 -117,100.8 -31,17.9 -65,33.2 -100.9,45.9 -86.1,30.4 -183.7,45.5 -281.4,45.5zm-499.2 -192.2l0 0zm-41.3 -115.6l0 0zm540.5 187.9l0 0zm499.3 -72.3l0 0z"/>
   <path class="fil26" d="M3769.4 1097.1c-211.1,121.8 -553.4,121.8 -764.5,0 -211.1,-121.9 -211.1,-319.6 0,-441.4 211.1,-121.9 553.4,-121.9 764.5,0 211.1,121.9 211.1,319.5 0,441.4z"/>
   <path class="fil10" d="M3886.4 865.7l0 -163.7 -38.3 0c-24.3,-33.8 -60.3,-65.5 -107.9,-93 -195,-112.6 -511.1,-112.6 -706.1,0 -47.7,27.5 -83.6,59.2 -107.9,93l-38.3 0 0 163.7c0,73.8 48.7,147.6 146.2,203.9 195,112.5 511.1,112.5 706.1,0 97.5,-56.3 146.2,-130.1 146.2,-203.9z"/>
   <path class="fil27" d="M3387.1 1108.2c-127.7,0 -255.5,-28.2 -353,-84.5 -97.5,-56.3 -146.2,-130 -146.2,-203.8l0 -0.6c26.4,36.7 65.3,71 117,100.8 105.5,60.9 243.9,91.4 382.2,91.4 86.7,0 173.3,-11.9 251.9,-35.8 -102.6,81.2 -218.6,116.1 -298.4,131.2 15.5,0.8 31.1,1.2 46.6,1.2 111.9,0 223.7,-21.5 315.2,-64.6 -91.5,43.1 -203.4,64.7 -315.3,64.7z"/>
   <path class="fil26" d="M3740.2 905.8c-195,112.6 -511.1,112.6 -706.1,0 -195,-112.5 -195,-295 0,-407.6 195,-112.6 511.1,-112.6 706.1,0 194.9,112.6 195,295.1 0,407.6z"/>
   <path class="fil31" d="M3927.7 699.4l0 -119.9 -41.4 0c-26.4,-36.7 -65.3,-71 -116.9,-100.8 -211.1,-121.9 -553.4,-121.9 -764.5,0 -51.6,29.8 -90.5,64.1 -116.9,100.8l-41.5 0 0 119.9c0,79.9 52.8,159.8 158.4,220.7 211.1,121.9 553.4,121.9 764.5,0 105.6,-60.9 158.4,-140.8 158.3,-220.7z"/>
   <path class="fil32" d="M3769.4 800.2c-211.1,121.9 -553.4,121.8 -764.5,0 -211.1,-121.9 -211.1,-319.6 0,-441.4 211.1,-121.9 553.4,-121.9 764.5,0 211.1,121.9 211.1,319.5 0,441.4z"/>
   <path class="fil32" d="M3769.4 800.2c-211.1,121.9 -553.4,121.8 -764.5,0 -211.1,-121.9 -211.1,-319.6 0,-441.4 211.1,-121.9 553.4,-121.9 764.5,0 211.1,121.9 211.1,319.5 0,441.4z"/>
   <path class="fil28" d="M3702.4 1043.5c13,-6.2 25.6,-12.7 37.8,-19.7 97.5,-56.3 146.2,-130.1 146.2,-203.9l0 0c0,73.8 -48.7,147.6 -146.2,203.9 -12.2,7 -24.8,13.5 -37.8,19.7z"/>
   <path class="fil11" d="M3387.2 1108.1c-15.5,0 -31.1,-0.4 -46.6,-1.2 79.8,-15.1 195.8,-50 298.4,-131.2 46.9,-14.3 91,-32.8 130.4,-55.6 51.6,-29.8 90.6,-64.1 117,-100.8l0 0.6c0,73.8 -48.7,147.6 -146.2,203.9 -12.2,7 -24.8,13.5 -37.8,19.7 -91.5,43.1 -203.3,64.6 -315.2,64.6zm353.1 -151.1c-10.4,0 -23.7,2.9 -38.5,8.7 -36.4,14.3 -68.2,41.5 -71.1,60.6 -1.7,11.3 7.2,17.3 22.3,17.3 10.3,0 23.6,-2.8 38.5,-8.6 36.4,-14.4 68.2,-41.5 71.1,-60.6 1.7,-11.4 -7.2,-17.4 -22.3,-17.4zm50.9 -25.6c-4.2,0 -8.8,1.4 -12.9,4.4 -8.5,6.1 -11.7,16.3 -7.1,22.9 2.4,3.4 6.5,5.1 11.1,5.1 4.1,0 8.8,-1.5 12.9,-4.4 8.5,-6.1 11.7,-16.4 7.1,-22.9 -2.5,-3.4 -6.5,-5.1 -11.1,-5.1z"/>
   <path class="fil33" d="M3387.1 1011.5c-138.3,0 -276.7,-30.5 -382.2,-91.4 -51.7,-29.8 -90.6,-64.1 -117,-100.8 -7.4,-10.3 -13.9,-20.8 -19.3,-31.4 -14.7,-28.9 -22.1,-58.7 -22.1,-88.5l0 -119.9 41.5 0c26.4,-36.7 65.3,-71 116.9,-100.8 105.5,-60.9 243.9,-91.4 382.2,-91.4 138.4,0 276.7,30.5 382.3,91.4 51.6,29.8 90.5,64.1 116.9,100.8l41.4 0 0 119.9c0,18.2 -2.7,36.5 -8.2,54.5 -1.4,4.6 -3,9.3 -4.8,13.9 -2.6,6.8 -5.6,13.5 -9,20.1 -5.5,10.6 -11.9,21.1 -19.3,31.4 -26.4,36.7 -65.4,71 -117,100.8 -39.4,22.8 -83.5,41.3 -130.4,55.6 -78.6,23.9 -165.2,35.8 -251.9,35.8zm-499.2 -192.2l0 0zm998.5 0l0 0z"/>
   <path class="fil26" d="M3769.4 800.2c-211.1,121.9 -553.4,121.8 -764.5,0 -211.1,-121.9 -211.1,-319.6 0,-441.4 211.1,-121.9 553.4,-121.9 764.5,0 211.1,121.9 211.1,319.5 0,441.4z"/>
   <path class="fil34" d="M3769.4 800.2c-211.1,121.9 -553.4,121.8 -764.5,0 -211.1,-121.9 -211.1,-319.6 0,-441.4 211.1,-121.9 553.4,-121.9 764.5,0 211.1,121.9 211.1,319.5 0,441.4z"/>
   <path class="fil35" d="M3772.5 790.7c-211.1,121.9 -553.4,121.9 -764.5,0 -129.3,-74.7 -179.3,-177.7 -150.2,-274.4 -35.4,99.4 13.6,206.8 147.1,283.9 211.1,121.8 553.4,121.9 764.5,0 81.8,-47.3 131.8,-105.9 150.2,-167.1 -20.5,57.8 -69.5,112.8 -147.1,157.6z"/>
   <path class="fil35" d="M3772.5 1087.6c-211.1,121.9 -553.4,121.9 -764.5,0 -129.3,-74.7 -179.3,-177.7 -150.2,-274.4 -35.4,99.4 13.6,206.8 147.1,283.9 211.1,121.8 553.4,121.8 764.5,0 81.8,-47.3 131.8,-105.9 150.2,-167.1 -20.5,57.7 -69.5,112.8 -147.1,157.6z"/>
   <path class="fil35" d="M3772.5 1384.5c-211.1,121.9 -553.4,121.9 -764.5,0 -129.3,-74.7 -179.3,-177.7 -150.2,-274.4 -35.4,99.4 13.6,206.8 147.1,283.9 211.1,121.8 553.4,121.8 764.5,0 81.8,-47.3 131.8,-105.9 150.2,-167.1 -20.5,57.7 -69.5,112.8 -147.1,157.6z"/>
   <path class="fil35" d="M3772.5 1681.4c-211.1,121.9 -553.4,121.9 -764.5,0 -129.3,-74.7 -179.3,-177.7 -150.2,-274.4 -35.4,99.4 13.6,206.8 147.1,283.9 211.1,121.8 553.4,121.8 764.5,0 81.8,-47.3 131.8,-105.9 150.2,-167.1 -20.5,57.7 -69.5,112.8 -147.1,157.6z"/>
   <path class="fil36" d="M3664.7 550.3l0 -61.6 -21.3 0c-13.5,-18.8 -33.5,-36.4 -60,-51.7 -108.4,-62.6 -284.1,-62.6 -392.5,0 -26.5,15.3 -46.5,32.9 -60,51.7l-21.3 0 0 61.6c0,41 27.1,82 81.3,113.3 108.4,62.6 284.1,62.6 392.5,0 54.2,-31.3 81.3,-72.3 81.3,-113.3z"/>
   <path class="fil26" d="M3583.4 602c-108.4,62.6 -284.1,62.6 -392.5,0 -108.4,-62.6 -108.4,-164 0,-226.6 108.4,-62.6 284.1,-62.6 392.5,0 108.4,62.6 108.4,164 0,226.6z"/>
   <path class="fil37" d="M3583.4 602c-108.4,62.6 -284.1,62.6 -392.5,0 -108.4,-62.6 -108.4,-164 0,-226.6 108.4,-62.6 284.1,-62.6 392.5,0 108.4,62.6 108.4,164 0,226.6z"/>
   <path class="fil35" d="M3583.4 589.6c-108.4,62.5 -284.1,62.5 -392.5,-0.1 -51.5,-29.7 -78.4,-68.1 -81.1,-107 -2.8,43 24.1,86.6 81.1,119.5 108.4,62.6 284.1,62.6 392.5,0 56.9,-32.9 83.9,-76.5 81,-119.5 -2.6,38.9 -29.5,77.3 -81,107.1z"/>
   <path class="fil10" d="M3519.3 565c-73,42.1 -191.3,42.1 -264.3,0 -22.8,-13.2 -38.5,-28.9 -47,-45.5 -18.9,-36.8 28.2,-63.4 78.4,-92.4 73,-42.1 124.8,-52.5 197.8,-10.4 50.1,29 100.9,66 82.1,102.7 -8.5,16.7 -24.2,32.4 -47,45.6z"/>
   <path class="fil38" d="M3255 474c73,-42.2 191.3,-42.2 264.3,0 22.8,13.1 38.4,28.8 47,45.5 18.9,-36.7 3.2,-78.1 -47,-107.1 -73,-42.1 -191.3,-42.1 -264.3,0 -50.2,29 -65.9,70.4 -47,107.1 8.6,-16.7 24.2,-32.4 47,-45.5z"/>
   <path class="fil39" d="M3653 1043.6c-15.1,0 -24,-6 -22.3,-17.3 2.9,-19.1 34.7,-46.3 71.1,-60.6 14.8,-5.8 28.1,-8.7 38.5,-8.7 15.1,0 24,6 22.3,17.4 -2.9,19.1 -34.7,46.2 -71.1,60.6 -14.9,5.8 -28.2,8.6 -38.5,8.6z"/>
   <path class="fil39" d="M3653 1344.7c-15.1,0 -24,-5.9 -22.3,-17.3 2.9,-19.1 34.7,-46.2 71.1,-60.6 14.8,-5.8 28.1,-8.6 38.5,-8.6 15.1,0 24,6 22.3,17.3 -2.9,19.1 -34.7,46.2 -71.1,60.6 -14.9,5.8 -28.2,8.6 -38.5,8.6z"/>
   <path class="fil39" d="M3655 1647.9c-15.1,0 -24,-6 -22.3,-17.3 2.9,-19.2 34.7,-46.3 71.1,-60.6 14.8,-5.9 28.1,-8.7 38.5,-8.7 15.1,0 24,6 22.3,17.3 -2.9,19.1 -34.7,46.3 -71.1,60.6 -14.9,5.9 -28.2,8.7 -38.5,8.7z"/>
   <path class="fil39" d="M3782.3 963.8c-4.6,0 -8.7,-1.7 -11.1,-5.1 -4.6,-6.6 -1.4,-16.8 7.1,-22.9 4.1,-3 8.7,-4.4 12.9,-4.4 4.6,0 8.6,1.7 11.1,5.1 4.6,6.5 1.4,16.8 -7.1,22.9 -4.1,2.9 -8.8,4.4 -12.9,4.4z"/>
   <path class="fil39" d="M3782.3 1266.3c-4.6,0 -8.7,-1.7 -11.1,-5.1 -4.6,-6.5 -1.4,-16.8 7.1,-22.9 4.1,-2.9 8.7,-4.4 12.9,-4.4 4.6,0 8.6,1.7 11.1,5.1 4.6,6.6 1.4,16.8 -7.1,22.9 -4.1,3 -8.8,4.4 -12.9,4.4z"/>
   <path class="fil39" d="M3782.3 1567.7c-4.6,0 -8.7,-1.7 -11.1,-5.1 -4.6,-6.5 -1.4,-16.7 7.1,-22.9 4.1,-2.9 8.7,-4.4 12.9,-4.4 4.6,0 8.6,1.8 11.1,5.2 4.6,6.5 1.4,16.7 -7.1,22.8 -4.1,3 -8.8,4.4 -12.9,4.4z"/>
   <path class="fil40" d="M3623.9 2452c-90.4,0 -180.8,-19.9 -249.8,-59.8 -138,-79.6 -138,-208.8 0,-288.4 69,-39.9 159.4,-59.8 249.8,-59.8 90.4,0 180.9,19.9 249.8,59.8 138,79.6 138,208.8 0,288.4 -68.9,39.9 -159.4,59.8 -249.8,59.8z"/>
   <path class="fil41" d="M2958.9 2209.4c-38.8,0 -77.6,-8.5 -107.2,-25.6 -59.2,-34.2 -59.2,-89.7 0,-123.9 29.6,-17.1 68.4,-25.6 107.2,-25.6 38.8,0 77.6,8.5 107.3,25.7 59.2,34.1 59.2,89.6 0,123.8 -29.6,17.1 -68.5,25.6 -107.3,25.6z"/>
   <path class="fil10" d="M3326.2 1584.7l-317.4 -340.9 -317.4 -25.6c0,0 -51,430.2 317.4,886.6 368.4,-31 317.4,-520.1 317.4,-520.1z"/>
   <polygon class="fil26" points="2691.4,1218.2 2620,1259.4 2937.4,1285.1 3008.8,1243.8 "/>
   <path class="fil11" d="M3254.8 1625.9l-317.4 -340.8 -130.5 -13.2 -186.9 -12.5c0,0 -51,430.3 317.4,886.6 368.4,-30.9 317.4,-520.1 317.4,-520.1z"/>
   <path class="fil42" d="M3216.3 1631.2l-285.4 -306.5 -117.3 -11.8 -168.1 -11.2c0,0 -45.8,386.8 285.4,797.1 331.2,-27.8 285.4,-467.6 285.4,-467.6z"/>
   <path class="fil35" d="M3254.8 1625.9l-317.4 -340.8 -317.4 -25.7c9,-5.2 9,-5.2 9,-5.2l321.6 26 317.4 340.9c0,0 42.6,408.9 -231.8,502.6 259.8,-102.1 218.6,-497.8 218.6,-497.8z"/>
   <path class="fil0" d="M1222.1 1579.1c-9,0 -18,2.3 -26,7l-80.4 46c-4,2.3 -6.4,6.4 -6.4,11 0,4.6 2.4,8.7 6.4,11l263.3 152c16,9.3 35.9,9.3 51.9,0l80.4 -46c4,-2.3 6.4,-6.4 6.4,-11 0,-4.6 -2.4,-8.8 -6.4,-11l-263.3 -152c-8,-4.7 -17,-7 -25.9,-7zm182.8 243.6c-10.6,0 -21.3,-2.7 -30.8,-8.2l-263.2 -152c-7.1,-4 -11.3,-11.3 -11.3,-19.4 0.1,-8.1 4.2,-15.4 11.3,-19.4l80.4 -46.1c19,-10.9 42.6,-10.9 61.6,0.1l263.2 151.9c7.1,4.1 11.3,11.4 11.3,19.5 -0.1,8.1 -4.2,15.3 -11.3,19.4l-80.4 46c-9.5,5.5 -20.1,8.2 -30.8,8.2z"/>
   <path class="fil0" d="M1026.3 1701c-9,0 -17.9,2.3 -25.9,6.9l-80.4 46c-4,2.3 -6.4,6.5 -6.4,11 0,4.7 2.4,8.8 6.4,11.1l263.2 152c16.1,9.2 36,9.2 52,0l80.4 -46.1c4,-2.2 6.3,-6.4 6.3,-11 0,-4.6 -2.3,-8.7 -6.3,-11l-263.3 -152c-8,-4.6 -17,-6.9 -26,-6.9zm182.9 243.6c-10.6,0 -21.3,-2.7 -30.8,-8.2l-263.3 -152c-7,-4.1 -11.2,-11.4 -11.2,-19.5 0,-8.1 4.2,-15.3 11.2,-19.4l80.4 -46c19,-11 42.6,-11 61.6,0l263.3 152c7,4.1 11.2,11.3 11.2,19.4 0,8.1 -4.2,15.4 -11.2,19.5l-80.4 46c-9.5,5.5 -20.1,8.2 -30.8,8.2z"/>
   <path class="fil0" d="M3167.3 3392l-263.2 152c-4,2.3 -6.4,6.4 -6.4,11 0,4.6 2.4,8.7 6.4,11l80.4 46.1c16,9.2 35.9,9.2 51.9,0l263.3 -152c4,-2.3 6.3,-6.5 6.3,-11.1 0,-4.6 -2.3,-8.7 -6.3,-11l-80.4 -46c-16,-9.2 -35.9,-9.2 -52,0zm-156.9 236.7c-10.6,0 -21.3,-2.7 -30.8,-8.2l-80.4 -46.1c-7,-4 -11.2,-11.3 -11.2,-19.4 0,-8.1 4.2,-15.4 11.2,-19.4l263.3 -152c19,-11 42.6,-11 61.6,0l80.4 46c7,4.1 11.2,11.3 11.2,19.4 0,8.1 -4.2,15.4 -11.2,19.5l-263.3 152c-9.5,5.4 -20.1,8.2 -30.8,8.2z"/>
   <path class="fil0" d="M3389 3506.9c-8.9,0 -17.9,2.3 -25.9,6.9l-263.3 152c-4,2.3 -6.4,6.5 -6.4,11.1 0,4.6 2.4,8.7 6.4,11l80.4 46c16,9.2 35.9,9.3 51.9,0l263.3 -152c4,-2.3 6.4,-6.4 6.4,-11 0,-4.6 -2.4,-8.7 -6.4,-11l-80.4 -46.1c-8,-4.6 -17,-6.9 -26,-6.9zm-182.8 243.6c-10.7,0 -21.3,-2.7 -30.8,-8.2l-80.4 -46c-7.1,-4.1 -11.2,-11.3 -11.2,-19.4 0,-8.2 4.1,-15.4 11.2,-19.5l263.2 -152c19,-10.9 42.6,-10.9 61.6,0l80.4 46.1c7.1,4 11.3,11.3 11.3,19.4 0,8.1 -4.2,15.3 -11.3,19.4l-263.2 152c-9.5,5.5 -20.2,8.2 -30.8,8.2z"/>
   <path class="fil0" d="M6059.3 2736.1c-6.9,0 -13.9,1.8 -20.2,5.4l-275 158.8c-2.8,1.5 -4.4,4.4 -4.4,7.5 0,3.2 1.6,6 4.4,7.5l275 158.8c12.5,7.2 28,7.2 40.5,0l275 -158.8c2.7,-1.5 4.4,-4.4 4.4,-7.5 0,-3.1 -1.7,-6 -4.4,-7.5l-275 -158.8c-6.3,-3.6 -13.3,-5.4 -20.3,-5.4zm0 353.1c-8.6,0 -17.3,-2.2 -25,-6.7l-275.1 -158.8c-5.7,-3.3 -9.2,-9.2 -9.2,-15.9 0,-6.6 3.5,-12.6 9.2,-15.9l275.1 -158.8c15.4,-9 34.6,-9 50.1,0l275.1 158.8c5.7,3.3 9.2,9.3 9.2,15.9 0,6.6 -3.5,12.6 -9.2,15.9l-275.1 158.8c-7.7,4.5 -16.4,6.7 -25.1,6.7z"/>
   <path class="fil0" d="M5657.1 2973.9c-9,0 -18,2.3 -26,6.9l-80.4 46c-4,2.3 -6.3,6.5 -6.3,11.1 0,4.6 2.3,8.7 6.3,11l263.3 152c16,9.2 35.9,9.2 51.9,0l80.4 -46.1c4,-2.2 6.4,-6.4 6.4,-11 0,-4.6 -2.4,-8.7 -6.4,-11l-263.2 -152c-8.1,-4.6 -17,-6.9 -26,-6.9zm182.9 243.6c-10.7,0 -21.3,-2.7 -30.8,-8.2l-263.3 -152c-7,-4.1 -11.2,-11.3 -11.2,-19.4 0,-8.1 4.1,-15.4 11.2,-19.5l80.4 -46c19,-11 42.6,-11 61.6,0l263.3 152c7,4.1 11.2,11.3 11.2,19.4 0,8.1 -4.2,15.4 -11.2,19.5l-80.5 46c-9.4,5.5 -20.1,8.2 -30.7,8.2z"/>
   <path class="fil0" d="M5461.3 3095.7c-8.9,0 -17.9,2.3 -25.9,6.9l-80.4 46.1c-4,2.3 -6.4,6.4 -6.4,11 0,4.6 2.4,8.7 6.4,11l263.3 152c16,9.3 35.9,9.3 51.9,0l80.4 -46c4,-2.3 6.4,-6.4 6.4,-11 0,-4.6 -2.4,-8.7 -6.4,-11.1l-263.3 -152c-8,-4.6 -17,-6.9 -26,-6.9zm182.9 243.7c-10.6,0 -21.3,-2.8 -30.8,-8.3l-263.2 -152c-7.1,-4 -11.2,-11.3 -11.3,-19.4 0,-8.1 4.2,-15.4 11.3,-19.4l80.4 -46.1c19,-10.9 42.6,-10.9 61.6,0l263.2 152.1c7.1,4 11.3,11.3 11.3,19.4 0,8.1 -4.2,15.3 -11.3,19.4l-80.4 46c-9.5,5.5 -20.1,8.3 -30.8,8.3z"/>
   <g>
    <path class="fil43" d="M3994.6 2473.4c-150.6,87 -394.7,87 -545.3,0 -150.5,-86.9 -150.5,-227.9 0,-314.8 150.6,-86.9 394.7,-86.9 545.3,0 150.6,86.9 150.6,227.9 0,314.8z"/>
    <path class="fil44" d="M4080.6 2174l-16.7 0c-18.7,-36.7 -53.1,-71.3 -103.3,-100.3 -160,-92.3 -419.3,-92.3 -579.3,0 -50.2,29 -84.6,63.6 -103.3,100.3l-16.7 0 0 66.9c0,60.6 40,121.1 120,167.2 160,92.4 419.3,92.4 579.3,0.1 80,-46.2 120,-106.7 120,-167.3l0 -66.9z"/>
    <path class="fil45" d="M3582.1 2010.1c-73.6,9.4 -143.6,30.6 -200.8,63.6 -50.2,29 -84.6,63.6 -103.3,100.3l-16.7 0 0 66.9c0,60.6 40,121.1 120,167.2 57.3,33.1 127.2,54.2 200.8,63.7l0 -461.7z"/>
    <path class="fil46" d="M3961.7 2407.5c79.2,-46.1 118.9,-106.3 118.9,-166.6l0 -66.9 -16.7 0c-15.9,-31.3 -43.4,-61 -82.2,-87.1l-20 0 0 320.6z"/>
    <path class="fil46" d="M4041.7 2341.5l0 -54.6c6.8,-8.4 12.8,-17 17.8,-25.7l0 54.6c-5.1,8.7 -10.9,17.3 -17.8,25.7z"/>
    <path class="fil47" d="M3633.9 2476.5c-0.7,-0.1 -1.5,-0.1 -2.3,-0.2l0 0c0.8,0.1 1.5,0.1 2.3,0.2z"/>
    <path class="fil48" d="M3682.9 2477.3l0 -54.7c5.9,-0.1 11.8,-0.3 17.8,-0.5l0 54.6c-5.9,0.3 -11.9,0.5 -17.8,0.6zm-33.5 -0.2c-5.2,-0.2 -10.3,-0.4 -15.5,-0.6 -0.8,-0.1 -1.5,-0.1 -2.3,-0.2l0 -54.7c6,0.4 11.9,0.6 17.8,0.8l0 54.7zm84.8 -2.5l0 -54.7c5.9,-0.5 11.8,-1.1 17.7,-1.8l0 54.6c-5.9,0.7 -11.8,1.3 -17.7,1.9zm-136 -1c-6,-0.6 -11.9,-1.3 -17.8,-2.1l0 0c0.6,0.1 1.1,0.2 1.7,0.3l0 -54.7c5.3,0.7 10.7,1.3 16.1,1.9l0 54.6zm187.2 -5.6l0 -54.7c6,-1 11.9,-2 17.8,-3.2l0 54.7c-5.9,1.1 -11.8,2.2 -17.8,3.2zm51.3 -10.8l0 -54.6c6,-1.6 11.9,-3.2 17.8,-4.9l0 54.7c-5.9,1.7 -11.8,3.3 -17.8,4.8zm-341.1 -2.5c-3.9,-1.1 -7.7,-2.2 -11.6,-3.3 3.9,1.1 7.7,2.2 11.6,3.3l0 0zm392.3 -13.2l0 -54.6c6,-2.2 12,-4.5 17.8,-6.8l0 54.6c-5.8,2.4 -11.8,4.6 -17.8,6.8zm51.3 -21.9l0 -54.6c6,-3.1 12,-6.2 17.8,-9.5l0 54.6c-5.8,3.3 -11.8,6.4 -17.8,9.5z"/>
    <path class="fil49" d="M3582.1 2471.8c-0.6,-0.1 -1.1,-0.2 -1.7,-0.3l0 -54.6c0.6,0.1 1.1,0.1 1.7,0.2l0 54.7zm-35.2 -5.5c-6,-1.1 -11.9,-2.3 -17.8,-3.5l0 -54.7c5.9,1.3 11.8,2.5 17.8,3.6l0 54.6zm-51.3 -11.6c-3.9,-1.1 -7.7,-2.2 -11.6,-3.3 -2,-0.6 -4.1,-1.3 -6.1,-1.9l0 -54.6c5.8,1.8 11.8,3.5 17.7,5.1l0 54.7zm-51.2 -16.7c-6,-2.3 -11.9,-4.8 -17.8,-7.3l0 -54.6c5.9,2.5 11.8,4.9 17.8,7.2l0 54.7zm-51.3 -23.4c-3.8,-2 -7.5,-4 -11.2,-6.1 -0.2,-0.1 -0.4,-0.2 -0.6,-0.4l0 0c-2,-1.1 -3.9,-2.4 -5.9,-3.6l0 -54.6c1.9,1.2 3.9,2.4 5.9,3.6 3.9,2.2 7.8,4.4 11.8,6.5l0 54.6zm-51.2 -32.9c-6.4,-4.9 -12.2,-9.9 -17.8,-15l0 -54.6c5.6,5.1 11.5,10.1 17.8,15l0 54.6zm51.2 -33.9c-4,-2.1 -7.9,-4.3 -11.8,-6.5 -2,-1.2 -4,-2.4 -5.9,-3.6l0 0c1.9,1.2 3.9,2.4 5.9,3.6 3.9,2.2 7.8,4.4 11.8,6.5l0 0z"/>
    <path class="fil46" d="M3990.5 2388.9l0 -54.7c6.2,-4.4 12.1,-9 17.7,-13.7l0 54.6c-5.6,4.7 -11.5,9.3 -17.7,13.8z"/>
    <path class="fil49" d="M3290.6 2328.8c-7.3,-10.5 -13.2,-21.3 -17.8,-32.1l0 -54.9c4.6,10.9 10.5,21.7 17.8,32.3l0 54.7z"/>
    <path class="fil45" d="M3960.6 2341.3c-160,92.3 -419.3,92.3 -579.3,0 -159.9,-92.4 -160,-242.1 0,-334.5 160,-92.3 419.3,-92.3 579.3,0 160,92.4 160,242.1 0,334.5z"/>
    <path class="fil50" d="M3397.4 2279.6c-37.6,-4.1 -74.4,-11.2 -109.2,-21.3 -11.1,-17 -18.8,-34.5 -23,-52.3 -2,-8.6 -3.2,-17.2 -3.6,-25.9 0,0.1 0,0.2 0,0.3 -1.5,-32 8.2,-64.1 29,-94.3l0 34.3c0,57.1 35.6,114.1 106.8,159.2z"/>
    <path class="fil51" d="M3671 2422.7c-7.2,0 -14.4,-0.1 -21.6,-0.3l0 -12.2c7.2,0.2 14.4,0.3 21.6,0.3 4,0 7.9,0 11.9,-0.1l0 12.2c-4,0.1 -8,0.1 -11.9,0.1zm29.7 -0.6l0 -12.2c11.2,-0.5 22.3,-1.2 33.5,-2.2l0 12.2c-11.2,1 -22.3,1.7 -33.5,2.2zm-69.1 -0.5c-11.2,-0.6 -22.3,-1.5 -33.4,-2.6l0 -12.2c11.1,1.1 22.2,2 33.4,2.6l0 12.2zm120.3 -3.5l0 -12.2c11.3,-1.3 22.5,-2.9 33.5,-4.7l0 12.1c-11,1.9 -22.2,3.5 -33.5,4.8zm51.3 -8l0 -12.2c11.3,-2.2 22.5,-4.7 33.5,-7.5l0 12.2c-11,2.8 -22.2,5.3 -33.5,7.5zm51.3 -12.4l0 -12.2c11.3,-3.2 22.5,-6.9 33.4,-10.8l0 12.2c-10.9,3.9 -22.1,7.5 -33.4,10.8zm51.2 -17.6l0 -12.2c11.5,-4.7 22.7,-9.7 33.5,-15.1l0 12.2c-10.8,5.4 -22,10.4 -33.5,15.1zm51.3 -24.6l0 -12.2c1.2,-0.6 2.4,-1.3 3.6,-2 0.1,-0.1 0.3,-0.2 0.5,-0.3 0,0 0,0 0,0 0.1,-0.1 0.3,-0.2 0.4,-0.3 0.1,0 0.1,0 0.2,-0.1 0,0 0,0 0,0l0 12.2c-0.4,0.2 -0.7,0.4 -1.1,0.7 -1.2,0.6 -2.4,1.3 -3.6,2z"/>
    <path class="fil52" d="M3580.4 2416.9c-11.3,-1.5 -22.5,-3.2 -33.5,-5.2l0 -12.2c11,2 22.2,3.7 33.5,5.2l0 12.2zm-51.3 -8.8c-11.3,-2.4 -22.5,-5.1 -33.5,-8.1l0 -12.2c11,3 22.2,5.7 33.5,8.2l0 12.1zm-51.2 -13.2c-11.4,-3.6 -22.6,-7.4 -33.5,-11.6l0 -12.2c10.9,4.2 22.1,8 33.5,11.6l0 12.2zm-51.3 -18.8c-11.5,-5 -22.7,-10.3 -33.5,-16.1l0 -12.2c10.8,5.8 22,11.1 33.5,16.1l0 12.2zm-51.2 -26.2c-12.2,-7.3 -23.3,-14.9 -33.5,-22.8l0 -12.2c6.1,4.8 12.6,9.4 19.4,14 0.1,0 0.1,0 0.1,0 0.1,0.1 0.2,0.2 0.3,0.2 0.1,0.1 0.1,0.1 0.2,0.1 0.1,0.1 0.1,0.1 0.2,0.2 0.1,0 0.2,0.1 0.3,0.2 0,0 0.1,0 0.1,0 0.1,0.1 0.2,0.2 0.4,0.3l0 0c4,2.7 8.2,5.3 12.5,7.8l0 12.2zm-51.3 -37.8c-13.3,-12.2 -24.4,-24.9 -33.5,-38l0 -12.1c9.1,13 20.2,25.7 33.5,37.9l0 12.2zm-51.3 -70.3c-8.2,-19.8 -12,-40.1 -11.3,-60.4 0.9,16.3 4.7,32.5 11.3,48.4l0 12z"/>
    <path class="fil53" d="M3961.7 2352.8l0 -12.2c0.1,0 0.2,-0.1 0.3,-0.1 0,-0.1 0.1,-0.1 0.2,-0.2 0,0 0.1,-0.1 0.2,-0.1 0.1,-0.1 0.2,-0.1 0.2,-0.1 0.1,-0.1 0.2,-0.1 0.3,-0.2 0.1,0 0.1,-0.1 0.2,-0.1 0.1,0 0.2,-0.1 0.2,-0.1 0.1,-0.1 0.2,-0.1 0.3,-0.2 0,0 0.1,-0.1 0.2,-0.1 0.1,0 0.2,-0.1 0.3,-0.2 0,0 0.1,0 0.1,-0.1 0.1,0 0.2,-0.1 0.3,-0.2 0.1,0 0.1,0 0.2,0 0.1,-0.1 0.2,-0.1 0.3,-0.2 0,0 0.1,-0.1 0.1,-0.1 0.1,0 0.3,-0.1 0.4,-0.2 0,0 0,0 0.1,0 0.1,-0.1 0.2,-0.2 0.3,-0.3 0,0 0.1,0 0.1,0 0.1,-0.1 0.3,-0.2 0.4,-0.3l0 0c8.5,-5.1 16.5,-10.3 24.1,-15.7l0 12.1c-9,6.4 -18.6,12.7 -28.8,18.6zm46.5 -32.3l0 -12.2c12.9,-10.7 24.1,-22 33.5,-33.6l0 12.2c-9.4,11.6 -20.6,22.8 -33.5,33.6zm51.3 -59.3l0 -12.1c5.9,-10.3 10.6,-20.7 14,-31.2 1.6,-2 3.1,-4 4.6,-6 -3.2,16.7 -9.4,33.2 -18.6,49.3z"/>
    <path class="fil53" d="M4041.7 2286.9l0 -12.2c6.8,-8.4 12.8,-16.9 17.8,-25.6l0 12.1c-5,8.7 -11,17.3 -17.8,25.7z"/>
    <path class="fil54" d="M3682.9 2422.6l0 -12.2c5.9,-0.1 11.9,-0.2 17.8,-0.5l0 12.2c-6,0.2 -11.9,0.4 -17.8,0.5zm-33.5 -0.2c-5.9,-0.2 -11.8,-0.4 -17.8,-0.8l0 -12.2c6,0.4 11.9,0.6 17.8,0.8l0 12.2zm84.8 -2.5l0 -12.2c5.9,-0.5 11.8,-1.1 17.7,-1.8l0 12.2c-5.9,0.7 -11.8,1.3 -17.7,1.8zm-136 -0.9c-5.4,-0.6 -10.8,-1.2 -16.1,-1.9l0 -12.2c5.3,0.7 10.7,1.3 16.1,1.9l0 12.2zm187.2 -5.7l0 -12.1c6,-1.1 11.9,-2.1 17.8,-3.3l0 12.2c-5.9,1.2 -11.8,2.2 -17.8,3.2zm51.3 -10.7l0 -12.2c6,-1.5 11.9,-3.2 17.8,-4.9l0 12.2c-5.9,1.7 -11.8,3.3 -17.8,4.9zm51.2 -15.7l0 -12.2c6,-2.2 12,-4.5 17.8,-6.8l0 12.2c-5.8,2.3 -11.8,4.6 -17.8,6.8zm51.3 -21.9l0 -12.2c6,-3.1 12,-6.2 17.8,-9.5l0 12.2c-5.8,3.3 -11.8,6.4 -17.8,9.5z"/>
    <path class="fil55" d="M3582.1 2417.1c-0.6,-0.1 -1.1,-0.1 -1.7,-0.2l0 -12.2c0.6,0.1 1.1,0.2 1.7,0.2l0 12.2zm-35.2 -5.4c-6,-1.1 -11.9,-2.3 -17.8,-3.6l0 -12.1c5.9,1.2 11.8,2.4 17.8,3.5l0 12.2zm-51.3 -11.7c-5.9,-1.6 -11.9,-3.3 -17.7,-5.1l0 -12.2c5.8,1.8 11.8,3.5 17.7,5.1l0 12.2zm-51.2 -16.7c-6,-2.3 -11.9,-4.7 -17.8,-7.2l0 -12.2c5.9,2.5 11.8,4.9 17.8,7.2l0 12.2zm-51.3 -23.3c-4,-2.1 -7.9,-4.3 -11.8,-6.5 -2,-1.2 -4,-2.4 -5.9,-3.6l0 -12.2c1.9,1.2 3.9,2.4 5.9,3.6 3.9,2.2 7.8,4.4 11.8,6.5l0 12.2zm-51.2 -32.9c-6.3,-4.9 -12.2,-9.9 -17.8,-15l0 -12.2c5.6,5.1 11.5,10.1 17.8,15l0 12.2z"/>
    <path class="fil53" d="M3990.5 2334.2l0 -12.1c6.2,-4.5 12.1,-9.1 17.7,-13.8l0 12.2c-5.6,4.7 -11.5,9.3 -17.7,13.7z"/>
    <path class="fil55" d="M3290.6 2274.1c-7.3,-10.6 -13.2,-21.4 -17.8,-32.3l0 -12c4.6,10.9 10.5,21.7 17.8,32.2l0 12.1z"/>
    <path class="fil52" d="M3961.1 2341c0,0 0,0 0,0 0,0 0,0 0,0zm0.4 -0.3c0.1,0 0.1,0 0.2,-0.1 -0.1,0.1 -0.1,0.1 -0.2,0.1zm0.5 -0.2c0,-0.1 0.1,-0.1 0.2,-0.2 -0.1,0.1 -0.2,0.1 -0.2,0.2zm0.4 -0.3c0.1,-0.1 0.2,-0.1 0.2,-0.1 0,0 -0.1,0 -0.2,0.1zm0.5 -0.3c0.1,0 0.1,-0.1 0.2,-0.1 -0.1,0 -0.1,0.1 -0.2,0.1zm0.4 -0.2c0.1,-0.1 0.2,-0.1 0.3,-0.2 -0.1,0.1 -0.2,0.1 -0.3,0.2zm0.5 -0.3c0.1,0 0.2,-0.1 0.3,-0.2 -0.1,0.1 -0.2,0.2 -0.3,0.2zm0.4 -0.3c0.1,0 0.2,-0.1 0.3,-0.2 -0.1,0.1 -0.2,0.2 -0.3,0.2zm0.5 -0.2c0.1,-0.1 0.2,-0.2 0.3,-0.2 -0.1,0.1 -0.2,0.1 -0.3,0.2zm0.4 -0.3c0.1,0 0.3,-0.1 0.4,-0.2 -0.1,0.1 -0.3,0.2 -0.4,0.2zm0.5 -0.2c0.1,-0.1 0.2,-0.2 0.3,-0.3 -0.1,0.1 -0.2,0.2 -0.3,0.3zm0.4 -0.3c0.1,-0.1 0.3,-0.2 0.4,-0.3 -0.1,0.1 -0.3,0.2 -0.4,0.3zm0.4 -0.3c57.1,-34.3 92.7,-76 106.9,-119.7 0.1,0 0.1,-0.1 0.2,-0.2 -3.4,10.5 -8.1,20.9 -14,31.2 -5,8.7 -11,17.2 -17.8,25.6 -9.4,11.6 -20.6,22.9 -33.5,33.6 -5.6,4.7 -11.5,9.3 -17.7,13.8 -7.6,5.4 -15.6,10.6 -24.1,15.7zm-603.5 -7.9l0 0 0 0zm-0.4 -0.3c0,0 -0.1,0 -0.1,0 0,0 0,0 0.1,0zm-0.4 -0.2c-0.1,-0.1 -0.1,-0.1 -0.2,-0.2 0.1,0.1 0.1,0.1 0.2,0.2zm-0.4 -0.3c-0.1,0 -0.2,-0.1 -0.3,-0.2 0.1,0.1 0.2,0.2 0.3,0.2zm-0.4 -0.2c-6.8,-4.6 -13.3,-9.2 -19.4,-14 -6.3,-4.9 -12.2,-9.9 -17.8,-15 -13.3,-12.2 -24.4,-24.9 -33.5,-37.9 -7.3,-10.5 -13.2,-21.3 -17.8,-32.2 -6.6,-15.9 -10.4,-32.1 -11.3,-48.4 0.1,-0.3 0.1,-0.7 0.1,-1 0.4,8.5 1.6,17.1 3.6,25.6 10.4,44.2 42.4,87.1 96.1,122.9z"/>
    <path class="fil56" d="M3265.2 2206c-2,-8.5 -3.2,-17.1 -3.6,-25.6 0,-0.1 0,-0.2 0,-0.3 0.4,8.7 1.6,17.3 3.6,25.9z"/>
    <path class="fil46" d="M3876.5 2292.7c-113.5,65.6 -297.6,65.6 -411.1,0 -113.6,-65.5 -113.6,-171.8 0,-237.4 113.5,-65.5 297.6,-65.5 411.1,0 113.6,65.6 113.6,171.9 0,237.4z"/>
    <path class="fil44" d="M3465.4 2070.7c113.5,-65.6 297.6,-65.6 411.1,0 53.4,30.8 81.7,70.6 84.9,111 3.6,-45.5 -24.7,-91.6 -84.9,-126.4 -113.5,-65.5 -297.6,-65.5 -411.1,0 -60.2,34.8 -88.5,80.9 -84.9,126.4 3.2,-40.4 31.5,-80.2 84.9,-111z"/>
    <path class="fil44" d="M3813.9 2094.8l-22.5 6.4 6.4 2.5 -22 12.8c-18,-8.8 -36.6,-13.2 -55.8,-13.1 -19.2,0.1 -37.1,5 -53.7,14.6 -6.7,3.8 -12.1,7.7 -16.2,11.7 -4.2,4 -7.1,8.2 -8.7,12.5 -1.7,4.2 -2.6,8.2 -2.9,11.9 -0.3,3.6 -0.1,7.9 0.5,12.9l2.6 20.5c0.8,5.8 1,10.6 0.6,14.4 -0.5,3.7 -2.1,7.6 -4.9,11.6 -2.8,4 -7.1,7.7 -12.9,11.1 -10.4,6 -19.6,6.6 -27.7,2 -6.1,-3.6 -7.7,-8 -4.6,-13.3 3,-5.3 11.2,-11.9 24.5,-19.8l0 -15.3 -19.3 7.2 -27.7 -11.8c-16.9,10.4 -27.8,20.3 -32.8,29.5l-3.2 -3.5 0 15.1 0.1 0c0.1,10.3 8,20.6 23.8,30.6l-10.9 6.3 -14.9 -6.8 0 15.4 13.4 7.7 26.1 -15c16.3,7.6 33.9,11.1 52.7,10.5 18.8,-0.6 35.4,-5.1 49.8,-13.4 7.2,-4.1 13,-8.5 17.6,-13.1 4.6,-4.6 7.9,-9.3 9.8,-14.2 2,-5 3.2,-9.7 3.7,-14.1 0.4,-4.5 0.4,-9.5 -0.1,-15l-2.2 -19.8c-0.4,-4 -0.5,-6.9 -0.5,-8.7 0,-1.8 0.3,-4.3 0.9,-7.6 0.7,-3.2 2.2,-6 4.5,-8.5 2.3,-2.5 5.6,-4.9 9.6,-7.3 4.3,-2.4 9.2,-4 14.8,-4.7 5.6,-0.7 10.6,0.1 14.8,2.5 2.2,1.1 3.7,2.3 4.6,3.5l0.8 2.6 -22.9 4.8 0 15.4 46.5 20.6c3.7,-2.4 7.1,-4.6 10.1,-6.7 3,-2 6.1,-4.6 9.4,-7.5 3.2,-2.9 5.8,-5.7 7.8,-8.3 1.9,-2.7 3.4,-5.8 4.4,-9.1 0.4,-1.6 0.7,-3.1 0.7,-4.6l0.1 -0.1 0 -16.2 -5.9 1.3 -0.2 -0.4c-3,-3.6 -7.2,-7.1 -12.4,-10.6l24.3 -14 0 -15.4z"/>
    <path class="fil45" d="M3531.7 2244.8l25.8 -14.9c-17.6,-11.2 -25.5,-22.5 -23.6,-34.1 1.8,-11.6 13.7,-24.1 35.7,-37.6l47 20c-13.3,7.8 -21.5,14.4 -24.5,19.7 -3.1,5.3 -1.5,9.7 4.6,13.3 8.1,4.6 17.3,3.9 27.7,-2 5.8,-3.4 10.1,-7.1 12.9,-11.1 2.8,-4 4.4,-7.9 4.9,-11.6 0.4,-3.8 0.2,-8.6 -0.6,-14.4l-2.6 -20.5c-0.6,-5 -0.8,-9.3 -0.5,-12.9 0.3,-3.7 1.2,-7.7 2.9,-12 1.6,-4.2 4.5,-8.4 8.7,-12.4 4.1,-4 9.5,-7.9 16.2,-11.7 16.6,-9.6 34.5,-14.5 53.7,-14.6 19.2,-0.1 37.8,4.3 55.8,13.1l24.5 -14.2 13.6 7.9 -24.3 14.1c5.2,3.4 9.4,6.9 12.4,10.6 2.9,3.6 4.8,7 5.6,10.1 0.8,3.1 0.7,6.4 -0.3,9.8 -1,3.4 -2.5,6.4 -4.4,9 -2,2.7 -4.6,5.5 -7.8,8.4 -3.3,3 -6.4,5.5 -9.4,7.5 -3,2.1 -6.4,4.3 -10.1,6.7l-46.5 -20.6c3.5,-2.2 6.4,-4 8.7,-5.4 2.2,-1.5 4.5,-3.1 6.9,-4.8 2.3,-1.8 4,-3.3 5,-4.6 1,-1.3 1.8,-2.7 2.2,-4 0.5,-1.5 0.2,-2.8 -0.7,-4 -0.9,-1.2 -2.4,-2.4 -4.6,-3.5 -4.2,-2.4 -9.2,-3.2 -14.8,-2.5 -5.6,0.7 -10.5,2.3 -14.8,4.7 -4,2.4 -7.3,4.8 -9.6,7.3 -2.3,2.5 -3.8,5.3 -4.5,8.6 -0.6,3.2 -0.9,5.7 -0.9,7.5 0,1.8 0.1,4.7 0.5,8.7l2.2 19.8c0.5,5.5 0.5,10.5 0.1,15 -0.5,4.4 -1.7,9.1 -3.7,14.1 -1.9,4.9 -5.2,9.6 -9.8,14.2 -4.6,4.6 -10.4,9 -17.6,13.1 -14.4,8.3 -31,12.8 -49.8,13.4 -18.8,0.6 -36.4,-2.9 -52.7,-10.5l-26.1 15 -13.4 -7.7z"/>
    <path class="fil44" d="M4109.8 2053.5l-16.6 0c-18.8,-36.7 -53.2,-71.4 -103.3,-100.3 -160,-92.4 -419.4,-92.4 -579.3,-0.1 -50.2,29 -84.6,63.7 -103.3,100.4l-16.7 0 0 66.9c0,60.5 40,121 120,167.2 160,92.3 419.3,92.3 579.3,0 79.9,-46.2 119.9,-106.7 119.9,-167.2l0 -66.9z"/>
    <path class="fil45" d="M3611.4 1889.6c-73.6,9.4 -143.6,30.5 -200.8,63.5 -50.2,29 -84.6,63.7 -103.3,100.4l-16.7 0 0 66.9c0,60.5 40,121 120,167.2 57.2,33 127.2,54.2 200.8,63.6l0 -461.6z"/>
    <path class="fil46" d="M3991 2286.9c79.2,-46.1 118.8,-106.3 118.8,-166.5l0 -66.9 -16.6 0c-16,-31.3 -43.5,-61.1 -82.3,-87.1l-19.9 0 0 320.5z"/>
    <path class="fil46" d="M4071 2221l0 -54.7c6.8,-8.4 12.7,-17 17.7,-25.7l0 54.7c-5,8.7 -10.9,17.3 -17.7,25.7z"/>
    <path class="fil48" d="M3712.2 2356.7l0 -54.6c5.9,-0.1 11.8,-0.3 17.7,-0.5l0 54.6c-5.9,0.2 -11.8,0.4 -17.7,0.5zm-33.5 -0.2c-5.9,-0.2 -11.9,-0.4 -17.8,-0.7l0 -54.7c5.9,0.3 11.9,0.6 17.8,0.7l0 54.7zm84.7 -2.5l0 -54.6c6,-0.6 11.9,-1.2 17.8,-1.9l0 54.7c-5.9,0.7 -11.8,1.3 -17.8,1.8zm-136 -0.9c-5.9,-0.7 -11.8,-1.4 -17.7,-2.1l0 0c0.5,0 1.1,0.1 1.7,0.2l0 -54.6c5.3,0.6 10.7,1.3 16,1.8l0 54.7zm187.3 -5.6l0 -54.7c5.9,-1 11.9,-2.1 17.7,-3.2l0 54.6c-5.8,1.2 -11.8,2.3 -17.7,3.3zm51.2 -10.9l0 -54.6c6,-1.5 11.9,-3.1 17.8,-4.8l0 54.6c-5.9,1.7 -11.8,3.3 -17.8,4.8zm-341 -2.5c-1,-0.3 -2.1,-0.6 -3.1,-0.8 1,0.2 2.1,0.5 3.1,0.8l0 0zm392.3 -13.2l0 -54.6c6,-2.1 11.9,-4.4 17.8,-6.8l0 54.6c-5.9,2.4 -11.8,4.7 -17.8,6.8zm-443.6 -3.5c-0.1,0 -0.2,-0.1 -0.4,-0.1 0.2,0 0.3,0.1 0.4,0.1l0 0zm494.9 -18.4l0 -54.6c6,-3 11.9,-6.2 17.7,-9.4l0 54.6c-5.8,3.3 -11.7,6.4 -17.7,9.4zm-256.3 -9.1l0 0c5.9,-0.1 11.8,-0.3 17.7,-0.6l0 0c-5.9,0.3 -11.8,0.5 -17.7,0.6zm-33.5 -0.3c-5.9,-0.1 -11.9,-0.4 -17.8,-0.7l0 0c5.9,0.3 11.9,0.6 17.8,0.7l0 0zm84.7 -2.4l0 0c6,-0.6 11.9,-1.2 17.8,-1.9l0 0c-5.9,0.7 -11.8,1.3 -17.8,1.9zm-136 -1c-5.4,-0.5 -10.7,-1.2 -16,-1.8l0 0c5.3,0.6 10.6,1.3 16,1.8l0 0zm187.3 -5.6l0 0c5.9,-1 11.9,-2.1 17.7,-3.2l0 0c-5.8,1.1 -11.8,2.2 -17.7,3.2zm51.2 -10.8l0 0c6,-1.5 11.9,-3.1 17.8,-4.8l0 0c-5.9,1.7 -11.8,3.3 -17.8,4.8zm51.3 -15.7l0 0c6,-2.1 11.9,-4.4 17.8,-6.8l0 0c-5.9,2.4 -11.8,4.7 -17.8,6.8zm51.3 -21.9l0 0c6,-3 11.9,-6.2 17.7,-9.4l0 0c-5.8,3.3 -11.7,6.4 -17.7,9.4z"/>
    <g>
     <path class="fil49" d="M3611.4 2351.2c-0.6,-0.1 -1.2,-0.2 -1.7,-0.2l0 -54.7c0.5,0.1 1.1,0.2 1.7,0.3l0 54.6zm-35.2 -5.5c-6,-1.1 -11.9,-2.2 -17.8,-3.5l0 -54.6c5.9,1.3 11.8,2.4 17.8,3.5l0 54.6zm-51.3 -11.6c-1,-0.3 -2.1,-0.6 -3.1,-0.8 -5,-1.4 -9.8,-2.9 -14.7,-4.3l0 -54.7c5.9,1.8 11.8,3.5 17.8,5.2l0 54.6 0 0zm-51.3 -16.7c-0.1,0 -0.2,-0.1 -0.4,-0.1 -5.8,-2.3 -11.6,-4.7 -17.3,-7.1l0 -54.7c5.8,2.5 11.7,4.9 17.7,7.2l0 54.7zm-51.2 -23.3c-4,-2.2 -8,-4.3 -11.8,-6.5l0 0c-2.1,-1.2 -4,-2.4 -6,-3.6l0 -54.6c2,1.2 4,2.3 6,3.5 3.9,2.2 7.8,4.4 11.8,6.5l0 54.7zm189 -9.7c-0.6,-0.1 -1.2,-0.2 -1.7,-0.2l0 0c0.5,0 1.1,0.1 1.7,0.2l0 0zm-35.2 -5.5c-6,-1.1 -11.9,-2.2 -17.8,-3.5l0 0c5.9,1.3 11.8,2.4 17.8,3.5l0 0zm-51.3 -11.6c-6,-1.6 -11.9,-3.4 -17.8,-5.2l0 0c5.9,1.8 11.8,3.5 17.8,5.2l0 0zm-153.8 -6.1c-6.3,-4.9 -12.2,-10 -17.7,-15.1l0 -54.6c5.5,5.1 11.4,10.1 17.7,15l0 54.7zm102.5 -10.6c-6,-2.3 -11.9,-4.8 -17.7,-7.3l0 0c5.8,2.5 11.7,4.9 17.7,7.3l0 0zm-51.2 -23.3c-2.9,-1.6 -5.7,-3.1 -8.5,-4.7 2.8,1.6 5.6,3.1 8.5,4.7l0 0zm-8.7 -4.8c-0.6,-0.4 -1.3,-0.8 -2,-1.2 0.7,0.4 1.4,0.8 2,1.2zm-3.1 -1.8l0 0c-0.2,-0.1 -0.3,-0.2 -0.5,-0.3 0.2,0.1 0.3,0.2 0.5,0.3l0 0zm-0.7 -0.4c0,0 -0.1,-0.1 -0.2,-0.1 0.1,0 0.2,0.1 0.2,0.1zm-0.5 -0.3c-0.1,0 -0.1,-0.1 -0.2,-0.1 0.1,0 0.1,0.1 0.2,0.1zm-0.5 -0.3c0,0 -0.1,0 -0.1,-0.1 0,0.1 0.1,0.1 0.1,0.1zm-0.5 -0.2c0,-0.1 0,-0.1 -0.1,-0.1 0.1,0 0.1,0 0.1,0.1zm-0.4 -0.3c0,0 -0.1,-0.1 -0.1,-0.1 0,0 0,0.1 0.1,0.1zm-0.5 -0.3c0,0 -0.1,0 -0.1,0 0,0 0.1,0 0.1,0zm-0.5 -0.3c0,0 0,0 0,0 0,0 0,0 0,0zm-0.4 -0.2c-0.1,0 -0.1,-0.1 -0.1,-0.1l0.1 0.1z"/>
    </g>
    <path class="fil46" d="M4019.7 2268.3l0 -54.6c6.3,-4.5 12.2,-9.1 17.8,-13.8l0 54.6c-5.6,4.7 -11.5,9.3 -17.8,13.8zm0 -66.8l0 0c0.1,-0.1 0.2,-0.1 0.3,-0.2 -0.1,0.1 -0.2,0.1 -0.3,0.2zm0.4 -0.3c0.1,0 0.1,-0.1 0.2,-0.1 -0.1,0 -0.1,0.1 -0.2,0.1z"/>
    <path class="fil49" d="M3319.9 2208.2c-7.3,-10.5 -13.2,-21.2 -17.8,-32.1l0 -54.8c4.6,10.9 10.5,21.7 17.8,32.2l0 54.7z"/>
    <path class="fil45" d="M3989.9 2220.7c-160,92.4 -419.3,92.4 -579.3,0 -160,-92.3 -160,-242.1 0,-334.4 159.9,-92.4 419.3,-92.4 579.3,0 159.9,92.3 159.9,242.1 0,334.4z"/>
    <path class="fil57" d="M3407.1 1888.3c0,0 0,0 0.1,0 -0.1,0 -0.1,0 -0.1,0zm0.4 -0.2c0,0 0,-0.1 0.1,-0.1 -0.1,0 -0.1,0.1 -0.1,0.1zm0.9 -0.6c0.1,0 0.1,-0.1 0.2,-0.1 -0.1,0.1 -0.1,0.1 -0.2,0.1zm0.4 -0.2c0.1,0 0.1,-0.1 0.2,-0.1 -0.1,0 -0.1,0.1 -0.2,0.1zm0.5 -0.3c0.1,-0.1 0.2,-0.1 0.3,-0.2 -0.1,0.1 -0.2,0.1 -0.3,0.2zm0.4 -0.3c0.1,0 0.2,-0.1 0.3,-0.1 -0.1,0 -0.2,0.1 -0.3,0.1zm0.5 -0.2c0.1,-0.1 0.2,-0.2 0.4,-0.2 -0.2,0 -0.3,0.1 -0.4,0.2zm0.4 -0.2c0.2,-0.1 0.3,-0.2 0.5,-0.3 -0.2,0.1 -0.4,0.2 -0.5,0.3z"/>
    <path class="fil50" d="M3502.5 2163.1c-63.5,0 -127,-8.5 -185,-25.4 -9.8,-14.9 -16.9,-30.2 -21.4,-45.7 -3,-10.8 -4.7,-21.6 -5.2,-32.4 0,0.1 0,0.2 0,0.3 -3,-61.8 35.7,-124 116.2,-171.6 0,0 0,0 0.1,0 0.1,-0.1 0.2,-0.2 0.3,-0.2 0,0 0,-0.1 0.1,-0.1 0.2,-0.1 0.5,-0.3 0.8,-0.5 0.1,0 0.1,0 0.2,-0.1 0.1,0 0.1,-0.1 0.2,-0.1 0.1,0 0.1,-0.1 0.2,-0.1 0.1,-0.1 0.2,-0.1 0.3,-0.2 0.1,-0.1 0.2,-0.1 0.3,-0.2 0,0 0.1,0 0.1,-0.1 0.1,0 0.2,-0.1 0.3,-0.1 0.1,0 0.1,-0.1 0.2,-0.1 0.1,-0.1 0.2,-0.2 0.4,-0.2l0 0c0.1,-0.1 0.3,-0.2 0.5,-0.3 79.9,-46 184.4,-69 289,-69 63.5,0 127,8.5 185,25.4 55.6,84.4 24.6,183.5 -93.1,251.5 -80,46.1 -184.7,69.2 -289.5,69.2z"/>
    <path class="fil51" d="M3700.2 2302.2c-7.2,0 -14.3,-0.1 -21.5,-0.4l0 -12.2c7.2,0.3 14.3,0.4 21.5,0.4 4,0 8,-0.1 12,-0.1l0 12.2c-4,0 -8,0.1 -12,0.1zm29.7 -0.6l0 -12.3c11.2,-0.4 22.4,-1.1 33.5,-2.1l0 12.2c-11.1,0.9 -22.2,1.7 -33.5,2.2zm-69 -0.5c-11.2,-0.6 -22.4,-1.5 -33.5,-2.7l0 -12.2c11.1,1.2 22.3,2.1 33.5,2.7l0 12.2zm120.3 -3.6l0 -12.2c11.2,-1.3 22.4,-2.8 33.5,-4.7l0 12.2c-11.1,1.9 -22.2,3.4 -33.5,4.7zm51.2 -7.9l0 -12.2c11.4,-2.3 22.5,-4.8 33.5,-7.6l0 12.2c-11,2.8 -22.1,5.3 -33.5,7.6zm51.3 -12.4l0 -12.2c11.4,-3.3 22.6,-6.9 33.5,-10.9l0 12.2c-10.9,4 -22.1,7.6 -33.5,10.9zm51.3 -17.7l0 -12.2c11.5,-4.6 22.7,-9.6 33.5,-15.1l0 12.2c-10.9,5.4 -22,10.5 -33.5,15.1zm51.2 -24.5l0 -12.2c1.2,-0.7 2.5,-1.4 3.7,-2.1 0.3,-0.2 0.7,-0.4 1.1,-0.6l0 12.2c-0.4,0.2 -0.8,0.4 -1.1,0.6 -1.2,0.7 -2.5,1.4 -3.7,2.1z"/>
    <path class="fil52" d="M3609.7 2296.3c-11.3,-1.4 -22.5,-3.2 -33.5,-5.2l0 -12.2c11,2 22.2,3.8 33.5,5.3l0 12.1zm-51.3 -8.7c-11.3,-2.4 -22.5,-5.1 -33.5,-8.1l0 -12.2c11,3 22.2,5.7 33.5,8.1l0 12.2zm-51.3 -13.3c-11.4,-3.5 -22.5,-7.4 -33.5,-11.6l0 -12.1c11,4.1 22.1,8 33.5,11.5l0 12.2zm-51.2 -18.8c-11.6,-4.9 -22.7,-10.3 -33.5,-16.1l0 -12.1c10.8,5.7 21.9,11.1 33.5,16l0 12.2zm-51.3 -26.1c-12.1,-7.3 -23.3,-15 -33.5,-22.9l0 -12.2c10.2,8 21.4,15.6 33.5,22.9l0 12.2zm-51.2 -37.9c-13.3,-12.1 -24.5,-24.9 -33.5,-38l0 -12.1c9,13.1 20.2,25.8 33.5,38l0 12.1zm-51.3 -70.2c-8.2,-19.8 -12,-40.1 -11.3,-60.4 0.9,16.3 4.7,32.5 11.3,48.4l0 12z"/>
    <path class="fil53" d="M3991 2232.3l0 -12.2c10.2,-6 19.8,-12.2 28.7,-18.6l0 12.2c-8.9,6.4 -18.5,12.6 -28.7,18.6zm46.5 -32.4l0 -12.1c12.9,-10.8 24,-22 33.5,-33.6l0 12.1c-9.5,11.6 -20.6,22.9 -33.5,33.6zm51.2 -59.3l0 -12.1c12.7,-21.9 19.7,-44.7 20.9,-67.6 1,26.9 -6,53.9 -20.9,79.7z"/>
    <path class="fil53" d="M4071 2166.3l0 -12.1c6.8,-8.4 12.7,-17 17.7,-25.7l0 12.1c-5,8.7 -10.9,17.3 -17.7,25.7z"/>
    <path class="fil54" d="M3712.2 2302.1l0 -12.2c5.9,-0.1 11.8,-0.3 17.7,-0.6l0 12.3c-5.9,0.2 -11.8,0.4 -17.7,0.5zm-33.5 -0.3c-5.9,-0.1 -11.9,-0.4 -17.8,-0.7l0 -12.2c5.9,0.3 11.9,0.6 17.8,0.7l0 12.2zm84.7 -2.4l0 -12.2c6,-0.6 11.9,-1.2 17.8,-1.9l0 12.2c-5.9,0.7 -11.8,1.3 -17.8,1.9zm-136 -1c-5.3,-0.5 -10.7,-1.2 -16,-1.8l0 -12.2c5.3,0.6 10.6,1.3 16,1.8l0 12.2zm187.3 -5.6l0 -12.2c5.9,-1 11.9,-2.1 17.7,-3.2l0 12.2c-5.8,1.1 -11.8,2.2 -17.7,3.2zm51.2 -10.8l0 -12.2c6,-1.5 11.9,-3.1 17.8,-4.8l0 12.2c-5.9,1.7 -11.8,3.3 -17.8,4.8zm51.3 -15.7l0 -12.2c6,-2.1 11.9,-4.4 17.8,-6.8l0 12.2c-5.9,2.4 -11.8,4.7 -17.8,6.8zm51.3 -21.9l0 -12.2c6,-3 11.9,-6.1 17.7,-9.4l0 12.2c-5.8,3.2 -11.7,6.4 -17.7,9.4z"/>
    <path class="fil55" d="M3611.4 2296.6c-0.6,-0.1 -1.2,-0.2 -1.7,-0.3l0 -12.1c0.5,0 1.1,0.1 1.7,0.2l0 12.2zm-35.2 -5.5c-6,-1.1 -11.9,-2.2 -17.8,-3.5l0 -12.2c5.9,1.3 11.8,2.4 17.8,3.5l0 12.2zm-51.3 -11.6c-6,-1.7 -11.9,-3.4 -17.8,-5.2l0 -12.2c5.9,1.8 11.8,3.6 17.8,5.2l0 12.2zm-51.3 -16.8c-6,-2.3 -11.9,-4.7 -17.7,-7.2l0 -12.2c5.8,2.5 11.7,5 17.7,7.3l0 12.1zm-51.2 -23.3c-4,-2.1 -7.9,-4.3 -11.8,-6.5 -2,-1.2 -4,-2.3 -6,-3.5l0 -12.2c0.7,0.4 1.3,0.7 1.9,1.1 0,0 0,0.1 0.1,0.1 0.1,0 0.2,0.1 0.4,0.2 0,0 0,0 0,0 0.2,0.1 0.3,0.2 0.4,0.3 0,0 0.1,0 0.1,0 0.1,0.1 0.2,0.1 0.4,0.2 0,0 0.1,0.1 0.1,0.1 0.1,0.1 0.2,0.1 0.3,0.2 0.1,0 0.1,0 0.1,0.1 0.2,0 0.2,0.1 0.4,0.1 0,0.1 0.1,0.1 0.1,0.1 0.1,0.1 0.2,0.2 0.3,0.2 0.1,0 0.1,0.1 0.2,0.1 0.1,0.1 0.2,0.1 0.3,0.2 0.1,0 0.2,0.1 0.2,0.1 0.1,0.1 0.2,0.1 0.2,0.1 0.2,0.1 0.3,0.2 0.5,0.3l0 0c0.4,0.2 0.7,0.4 1.1,0.6 0.7,0.4 1.4,0.8 2,1.2 0.1,0 0.2,0.1 0.2,0.1 2.8,1.6 5.6,3.1 8.5,4.7l0 12.1zm-51.3 -32.9c-6.3,-4.9 -12.2,-9.9 -17.7,-15l0 -12.1c5.5,5.1 11.4,10.1 17.7,14.9l0 12.2z"/>
    <path class="fil53" d="M4019.7 2213.7l0 -12.2c0.1,-0.1 0.2,-0.1 0.3,-0.2 0,0 0.1,-0.1 0.1,-0.1 0.1,0 0.1,-0.1 0.2,-0.1 6,-4.4 11.8,-8.8 17.2,-13.3l0 12.1c-5.6,4.7 -11.5,9.3 -17.8,13.8z"/>
    <path class="fil55" d="M3319.9 2153.5c-7.3,-10.5 -13.2,-21.3 -17.8,-32.2l0 -12c4.6,10.9 10.5,21.6 17.8,32.1l0 12.1z"/>
    <path class="fil52" d="M3413.9 2222.6c0,0 -0.1,-0.1 -0.2,-0.1 0.1,0 0.2,0.1 0.2,0.1zm-2.2 -1.3c-0.4,-0.2 -0.7,-0.4 -1.1,-0.6 0.4,0.2 0.7,0.4 1.1,0.6zm-1.6 -0.9c0,0 -0.1,0 -0.2,-0.1 0.1,0.1 0.2,0.1 0.2,0.1zm-0.4 -0.2c-0.1,-0.1 -0.2,-0.1 -0.3,-0.2 0.1,0.1 0.2,0.1 0.3,0.2zm-0.5 -0.3c-0.1,0 -0.2,-0.1 -0.3,-0.2 0.1,0.1 0.2,0.2 0.3,0.2zm-0.4 -0.3c-0.2,0 -0.2,-0.1 -0.4,-0.1 0.2,0 0.3,0.1 0.4,0.1zm-0.5 -0.2c-0.1,-0.1 -0.2,-0.1 -0.3,-0.2 0.1,0 0.2,0.1 0.3,0.2zm-0.4 -0.3c-0.2,-0.1 -0.3,-0.1 -0.4,-0.2 0.1,0.1 0.2,0.1 0.4,0.2zm-0.5 -0.2c-0.1,-0.1 -0.2,-0.2 -0.4,-0.3 0.2,0.1 0.3,0.2 0.4,0.3zm-0.4 -0.3c-0.2,-0.1 -0.3,-0.2 -0.4,-0.2 0.1,0 0.2,0.1 0.4,0.2zm-0.5 -0.3c-0.6,-0.4 -1.2,-0.7 -1.9,-1.1 -12.1,-7.3 -23.3,-14.9 -33.5,-22.9 -6.3,-4.8 -12.2,-9.8 -17.7,-14.9 -13.3,-12.2 -24.5,-24.9 -33.5,-38 -7.3,-10.5 -13.2,-21.2 -17.8,-32.1 -6.6,-15.9 -10.4,-32.1 -11.3,-48.4 0,-0.3 0,-0.7 0.1,-1 0.5,10.7 2.2,21.4 5.2,32.1 13.1,46.1 49.9,90.4 110.4,126.3zm613.5 -17c0,0 0.1,-0.1 0.1,-0.1 0,0 -0.1,0.1 -0.1,0.1zm0.3 -0.2c57.3,-41.4 87,-91.3 89.3,-141.5 0,0.4 0,0.8 0,1.3 -1.2,22.9 -8.2,45.7 -20.9,67.6 -5,8.7 -10.9,17.3 -17.7,25.7 -9.5,11.6 -20.6,22.8 -33.5,33.6 -5.4,4.5 -11.2,8.9 -17.2,13.3z"/>
    <path class="fil56" d="M3296.1 2092c-3,-10.7 -4.7,-21.4 -5.2,-32.1 0,-0.1 0,-0.2 0,-0.3 0.5,10.8 2.2,21.6 5.2,32.4z"/>
    <path class="fil46" d="M3905.8 2172.2c-113.5,65.5 -297.6,65.5 -411.2,0 -113.5,-65.6 -113.5,-171.9 0,-237.4 113.6,-65.6 297.7,-65.6 411.2,0 113.6,65.5 113.6,171.8 0,237.4z"/>
    <path class="fil44" d="M3494.6 1950.1c113.6,-65.5 297.7,-65.5 411.2,0 53.4,30.8 81.7,70.7 84.9,111 3.5,-45.4 -24.7,-91.6 -84.9,-126.3 -113.5,-65.6 -297.6,-65.6 -411.2,0 -60.1,34.7 -88.4,80.9 -84.8,126.3 3.2,-40.3 31.4,-80.2 84.8,-111z"/>
    <path class="fil44" d="M3843.2 1974.2l-22.5 6.4 6.4 2.6 -22 12.7c-18,-8.8 -36.6,-13.1 -55.8,-13 -19.2,0.1 -37.1,4.9 -53.8,14.5 -6.6,3.8 -12,7.8 -16.2,11.8 -4.1,3.9 -7,8.1 -8.7,12.4 -1.6,4.3 -2.6,8.3 -2.8,11.9 -0.3,3.7 -0.1,8 0.5,12.9l2.6 20.5c0.8,5.9 0.9,10.7 0.5,14.4 -0.4,3.8 -2,7.6 -4.8,11.7 -2.9,4 -7.2,7.7 -13,11 -10.3,6 -19.5,6.7 -27.6,2 -6.1,-3.5 -7.7,-7.9 -4.7,-13.2 3.1,-5.3 11.2,-11.9 24.6,-19.8l0 -15.4 -19.3 7.2 -27.7 -11.7c-17,10.4 -27.9,20.2 -32.9,29.5l-3.1 -3.6 0 15.1 0 0c0.1,10.4 8,20.6 23.9,30.7l-10.9 6.3 -14.9 -6.8 0 15.4 13.4 7.7 26 -15.1c16.4,7.7 34,11.2 52.8,10.5 18.8,-0.6 35.4,-5 49.7,-13.3 7.2,-4.2 13.1,-8.5 17.7,-13.1 4.6,-4.6 7.8,-9.4 9.8,-14.3 1.9,-4.9 3.1,-9.6 3.6,-14.1 0.5,-4.5 0.5,-9.4 0,-14.9l-2.3 -19.9c-0.3,-4 -0.5,-6.9 -0.5,-8.7 0,-1.8 0.4,-4.3 1,-7.5 0.7,-3.2 2.2,-6.1 4.5,-8.6 2.3,-2.5 5.5,-4.9 9.6,-7.3 4.2,-2.4 9.1,-4 14.8,-4.7 5.6,-0.7 10.5,0.2 14.8,2.5 2.1,1.1 3.7,2.3 4.6,3.6l0.8 2.5 -22.9 4.8 0 15.4 46.4 20.7c3.8,-2.4 7.2,-4.7 10.2,-6.7 3,-2.1 6.1,-4.6 9.3,-7.5 3.3,-2.9 5.9,-5.7 7.8,-8.4 2,-2.7 3.4,-5.7 4.4,-9.1 0.5,-1.5 0.7,-3.1 0.8,-4.6l0 0 0 -16.2 -5.9 1.2 -0.2 -0.3c-3,-3.6 -7.1,-7.2 -12.4,-10.6l24.4 -14.1 0 -15.4z"/>
    <path class="fil45" d="M3561 2124.3l25.8 -14.9c-17.6,-11.2 -25.5,-22.6 -23.7,-34.2 1.9,-11.5 13.8,-24 35.8,-37.5l47 19.9c-13.4,7.9 -21.5,14.5 -24.6,19.8 -3,5.3 -1.4,9.7 4.7,13.2 8.1,4.7 17.3,4 27.6,-2 5.8,-3.3 10.1,-7 13,-11 2.8,-4.1 4.4,-7.9 4.8,-11.7 0.4,-3.7 0.3,-8.5 -0.5,-14.4l-2.6 -20.5c-0.6,-5 -0.8,-9.2 -0.5,-12.9 0.2,-3.6 1.2,-7.6 2.8,-11.9 1.7,-4.3 4.6,-8.4 8.7,-12.4 4.2,-4 9.6,-8 16.2,-11.8 16.7,-9.6 34.6,-14.4 53.8,-14.5 19.2,-0.1 37.8,4.2 55.8,13l24.5 -14.2 13.6 7.9 -24.4 14.1c5.3,3.4 9.4,7 12.4,10.6 3,3.6 4.9,7 5.7,10.1 0.7,3.2 0.6,6.5 -0.4,9.8 -1,3.4 -2.4,6.4 -4.4,9.1 -1.9,2.7 -4.5,5.5 -7.8,8.4 -3.2,2.9 -6.3,5.4 -9.3,7.5 -3,2 -6.4,4.3 -10.2,6.7l-46.4 -20.7c3.5,-2.1 6.4,-3.9 8.6,-5.4 2.3,-1.4 4.6,-3 6.9,-4.8 2.4,-1.7 4.1,-3.3 5.1,-4.6 1,-1.2 1.8,-2.6 2.2,-4 0.4,-1.4 0.2,-2.7 -0.7,-3.9 -0.9,-1.3 -2.5,-2.4 -4.6,-3.6 -4.3,-2.3 -9.2,-3.2 -14.8,-2.5 -5.7,0.7 -10.6,2.3 -14.8,4.8 -4.1,2.3 -7.3,4.7 -9.6,7.2 -2.3,2.5 -3.8,5.4 -4.5,8.6 -0.6,3.2 -1,5.7 -1,7.5 0,1.8 0.2,4.7 0.5,8.7l2.3 19.9c0.5,5.5 0.5,10.5 0,14.9 -0.5,4.5 -1.7,9.2 -3.6,14.1 -2,4.9 -5.2,9.7 -9.8,14.3 -4.6,4.6 -10.5,8.9 -17.7,13.1 -14.3,8.3 -30.9,12.7 -49.7,13.4 -18.8,0.6 -36.4,-2.9 -52.8,-10.6l-26 15.1 -13.4 -7.7z"/>
   </g>
  </g>
 </g>
</svg>
