<?xml version="1.0" encoding="UTF-8"?>
<!DOCTYPE svg PUBLIC "-//W3C//DTD SVG 1.1//EN" "http://www.w3.org/Graphics/SVG/1.1/DTD/svg11.dtd">
<!-- Creator: CorelDRAW 2019 (64-Bit) -->
<svg xmlns="http://www.w3.org/2000/svg" xml:space="preserve" width="366px" height="343px" version="1.1" style="shape-rendering:geometricPrecision; text-rendering:geometricPrecision; image-rendering:optimizeQuality; fill-rule:evenodd; clip-rule:evenodd"
viewBox="0 0 3660 3423.9"
 xmlns:xlink="http://www.w3.org/1999/xlink"
 xmlns:xodm="http://www.corel.com/coreldraw/odm/2003">
 <defs>
  <style type="text/css">
   <![CDATA[
    .fil1 {fill:#8A8BC3}
    .fil23 {fill:#FFF7D7;fill-rule:nonzero}
    .fil27 {fill:#FDF7E0;fill-rule:nonzero}
    .fil26 {fill:#FDF0CC;fill-rule:nonzero}
    .fil22 {fill:#FDEFC7;fill-rule:nonzero}
    .fil16 {fill:#FDD95D;fill-rule:nonzero}
    .fil25 {fill:#FBECC2;fill-rule:nonzero}
    .fil21 {fill:#FCE180;fill-rule:nonzero}
    .fil15 {fill:#F8C121;fill-rule:nonzero}
    .fil24 {fill:#F9E7B9;fill-rule:nonzero}
    .fil12 {fill:#F5E9E5;fill-rule:nonzero}
    .fil20 {fill:#F5C430;fill-rule:nonzero}
    .fil19 {fill:#F3B605;fill-rule:nonzero}
    .fil17 {fill:#E7A513;fill-rule:nonzero}
    .fil9 {fill:#DCD1E8;fill-rule:nonzero}
    .fil11 {fill:#9F8FC3;fill-rule:nonzero}
    .fil4 {fill:#8A8BC3;fill-rule:nonzero}
    .fil18 {fill:#6E6441;fill-rule:nonzero}
    .fil14 {fill:#6769AD;fill-rule:nonzero}
    .fil28 {fill:#4A6396;fill-rule:nonzero}
    .fil10 {fill:#52559F;fill-rule:nonzero}
    .fil6 {fill:#414E9A;fill-rule:nonzero}
    .fil32 {fill:url(#id1)}
    .fil35 {fill:url(#id2)}
    .fil0 {fill:url(#id3)}
    .fil2 {fill:url(#id4)}
    .fil34 {fill:url(#id5)}
    .fil5 {fill:url(#id6)}
    .fil29 {fill:url(#id7)}
    .fil8 {fill:url(#id8)}
    .fil31 {fill:url(#id9)}
    .fil33 {fill:url(#id10)}
    .fil3 {fill:url(#id11)}
    .fil13 {fill:url(#id12)}
    .fil30 {fill:url(#id13)}
    .fil7 {fill:url(#id14)}
   ]]>
  </style>
    <clipPath id="id0">
     <path d="M2130.8 1647.3l0 0 0 0 0 0 0 0z"/>
    </clipPath>
  <linearGradient id="id1" gradientUnits="userSpaceOnUse" x1="509.2" y1="666.7" x2="1331.3" y2="666.7">
   <stop offset="0" style="stop-opacity:1; stop-color:#F3E9DD"/>
   <stop offset="1" style="stop-opacity:1; stop-color:#D0C5D3"/>
  </linearGradient>
  <linearGradient id="id2" gradientUnits="objectBoundingBox" x1="0%" y1="50%" x2="100%" y2="50%">
   <stop offset="0" style="stop-opacity:0; stop-color:#FFED00"/>
   <stop offset="0.439216" style="stop-opacity:0; stop-color:#FFED00"/>
   <stop offset="1" style="stop-opacity:0.337255; stop-color:#FFED00"/>
  </linearGradient>
  <linearGradient id="id3" gradientUnits="userSpaceOnUse" x1="2259" y1="1876.2" x2="2938.6" y2="1876.2">
   <stop offset="0" style="stop-opacity:0; stop-color:#7F7BB8"/>
   <stop offset="1" style="stop-opacity:0.298039; stop-color:#7F7BB8"/>
  </linearGradient>
  <linearGradient id="id4" gradientUnits="userSpaceOnUse" xlink:href="#id3" x1="29.6" y1="2148.5" x2="933.6" y2="2148.5">
  </linearGradient>
  <linearGradient id="id5" gradientUnits="userSpaceOnUse" xlink:href="#id1" x1="2612.2" y1="1373" x2="3251.5" y2="1373">
  </linearGradient>
  <linearGradient id="id6" gradientUnits="userSpaceOnUse" x1="978.6" y1="1542.4" x2="865.4" y2="1542.4">
   <stop offset="0" style="stop-opacity:1; stop-color:#7F7BB8"/>
   <stop offset="1" style="stop-opacity:1; stop-color:#BFAED5"/>
  </linearGradient>
  <linearGradient id="id7" gradientUnits="userSpaceOnUse" x1="2986.6" y1="1823.5" x2="2887.6" y2="1823.5">
   <stop offset="0" style="stop-opacity:1; stop-color:#7F7BB8"/>
   <stop offset="1" style="stop-opacity:1; stop-color:#9F8FC3"/>
  </linearGradient>
  <linearGradient id="id8" gradientUnits="userSpaceOnUse" x1="1427.3" y1="1908.5" x2="1511.4" y2="1833.1">
   <stop offset="0" style="stop-opacity:1; stop-color:#6E6CAF"/>
   <stop offset="1" style="stop-opacity:1; stop-color:#52559F"/>
  </linearGradient>
  <linearGradient id="id9" gradientUnits="userSpaceOnUse" x1="3050.5" y1="2249.7" x2="3099.9" y2="1910.6">
   <stop offset="0" style="stop-opacity:1; stop-color:#4957A1"/>
   <stop offset="1" style="stop-opacity:1; stop-color:#70C7DA"/>
  </linearGradient>
  <linearGradient id="id10" gradientUnits="userSpaceOnUse" xlink:href="#id7" x1="2986.4" y1="1505.4" x2="2887.3" y2="1505.4">
  </linearGradient>
  <linearGradient id="id11" gradientUnits="userSpaceOnUse" x1="2673.7" y1="1736.6" x2="-889" y2="4476.8">
   <stop offset="0" style="stop-opacity:1; stop-color:#8AADDC"/>
   <stop offset="0.470588" style="stop-opacity:1; stop-color:#8B8DC4"/>
   <stop offset="1" style="stop-opacity:1; stop-color:#7066AA"/>
  </linearGradient>
  <linearGradient id="id12" gradientUnits="userSpaceOnUse" xlink:href="#id11" x1="4327" y1="5101.5" x2="-3209.7" y2="-942">
  </linearGradient>
  <linearGradient id="id13" gradientUnits="userSpaceOnUse" x1="3982" y1="2599.8" x2="2762.8" y2="1299">
   <stop offset="0" style="stop-opacity:1; stop-color:#4F4D99"/>
   <stop offset="1" style="stop-opacity:1; stop-color:#FFF5E1"/>
  </linearGradient>
  <linearGradient id="id14" gradientUnits="userSpaceOnUse" xlink:href="#id8" x1="1442.3" y1="2195.9" x2="1527.7" y2="2119.3">
  </linearGradient>
 </defs>
 <g id="Layer_x0020_1">
  <metadata id="CorelCorpID_0Corel-Layer"/>
  <g id="_1438809920">
   <rect class="fil0" x="2259" y="1680.8" width="679.7" height="390.9"/>
   <path class="fil1" d="M2932.6 1438.6c-7.7,0 -15.9,1.9 -22.2,5.5l-643.5 371.5c-5.1,3 -8.2,6.7 -8.2,10 0,3.1 2.8,5.3 5.1,6.7l649.8 375.1c9.6,5.6 27.2,4.8 38.5,-1.8l643.5 -371.5c5.2,-3 8.2,-6.7 8.2,-10 0,-3.1 -2.7,-5.3 -5.1,-6.7l-649.7 -375.1c-4.3,-2.5 -10.2,-3.7 -16.4,-3.7zm-2.6 782.2c-7.9,0 -15.5,-1.6 -21.3,-5l-649.7 -375.1c-6.4,-3.7 -10,-9.1 -10,-15.1 0,-6.9 4.8,-13.6 13.1,-18.4l643.5 -371.5c14.4,-8.3 35.6,-9.1 48.2,-1.8l649.8 375.2c6.4,3.7 9.9,9 9.9,15 0,6.9 -4.7,13.6 -13,18.4l-643.6 371.5c-7.8,4.5 -17.5,6.8 -26.9,6.8z"/>
   <rect class="fil2" x="29.7" y="1871.4" width="903.9" height="554.2"/>
   <path class="fil3" d="M1384.5 2995.9c-29.5,0 -59,-6.5 -81.5,-19.4l-310.3 -179.2 12.8 -7.3 303.9 175.4c20.7,12 47.9,17.9 75.1,17.9 27.2,0 54.4,-5.9 75.2,-17.9l1025.1 -591.9c18.8,-10.8 29.1,-24.9 29.1,-39.6 0,-14.8 -10.3,-28.9 -29.1,-39.7l-300.9 -173.7 12.9 -7.4 294.4 170c22.9,13.2 35.5,31.2 35.5,50.8 0,19.5 -12.6,37.5 -35.5,50.7l-1025.1 591.9c-22.5,12.9 -52,19.4 -81.6,19.4z"/>
   <g>
    <path class="fil4" d="M1609.8 1617.6c7.7,0 15.5,2 22.3,6l271 156.4c3.1,1.8 4.9,5 4.9,8.6 0,3.6 -1.8,6.8 -4.9,8.6l-271 156.4c-13.8,8 -30.8,8 -44.6,0l-271 -156.4c-3.1,-1.8 -4.9,-5 -4.9,-8.6 0,-3.6 1.8,-6.8 4.9,-8.6l271 -156.4c6.9,-4 14.6,-6 22.3,-6zm0 351.7c9.4,0 18.8,-2.5 27.2,-7.3l270.9 -156.4c6.2,-3.6 9.8,-9.9 9.8,-17 0,-7.1 -3.6,-13.4 -9.8,-17l-270.9 -156.4c-16.8,-9.7 -37.6,-9.7 -54.4,0l-270.9 156.4c-6.1,3.6 -9.8,9.9 -9.8,17 0,7.1 3.7,13.4 9.8,17l270.9 156.4c8.4,4.8 17.8,7.3 27.2,7.3z"/>
    <path class="fil4" d="M2008.7 1839.4c9,0 18,2.3 26,6.9l80.4 46c3.9,2.3 6.3,6.4 6.3,11 0,4.6 -2.4,8.7 -6.4,11l-263.1 151.9c-16,9.3 -35.9,9.3 -51.9,0l-80.3 -46c-4,-2.3 -6.4,-6.4 -6.4,-11 0,-4.6 2.4,-8.7 6.4,-11l263.1 -151.9c8,-4.6 17,-6.9 25.9,-6.9zm-182.7 243.4c10.6,0 21.3,-2.7 30.8,-8.2l263.1 -151.9c7,-4 11.2,-11.3 11.2,-19.4 0,-8.1 -4.2,-15.4 -11.2,-19.4l-80.4 -46c-19,-11 -42.6,-11 -61.5,0l-263.2 151.9c-7,4 -11.2,11.3 -11.2,19.4 0,8.1 4.2,15.4 11.2,19.4l80.4 46c9.5,5.5 20.1,8.2 30.8,8.2z"/>
    <path class="fil4" d="M2204.3 1961.1c9,0 18,2.3 26,7l80.4 46c3.9,2.2 6.3,6.4 6.3,11 0,4.6 -2.4,8.7 -6.3,11l-263.2 151.9c-16,9.3 -35.9,9.2 -51.9,0l-80.3 -46c-4,-2.3 -6.4,-6.4 -6.4,-11 0,-4.6 2.4,-8.7 6.4,-11l263.1 -151.9c8,-4.7 17,-7 25.9,-7zm-182.7 243.5c10.6,0 21.3,-2.7 30.8,-8.2l263.1 -151.9c7,-4.1 11.2,-11.3 11.2,-19.4 0,-8.1 -4.2,-15.4 -11.2,-19.4l-80.4 -46.1c-18.9,-10.9 -42.5,-10.9 -61.5,0.1l-263.2 151.9c-7,4 -11.2,11.3 -11.2,19.4 0.1,8.1 4.2,15.3 11.2,19.4l80.4 46c9.5,5.5 20.1,8.2 30.8,8.2z"/>
   </g>
   <path class="fil5" d="M1331.2 2195.8l0 -1517 -821 -16.2 0 1510.1c-2.9,9.1 0.9,18.3 11.9,24.8l372.5 220.2c19.3,11.4 53.2,10.4 75.7,-2.3l342.2 -192.8c13.5,-7.6 19.8,-17.6 18.7,-26.8z"/>
   <g>
    <polygon class="fil6" points="1328.8,2554.5 1162,2459.9 1162.1,2361.5 1328.8,2456.1 "/>
    <polygon class="fil6" points="1488.9,2462.2 1328.8,2372.8 1489,2363.4 "/>
    <polygon class="fil7" points="1362.3,2122.8 1362.1,2315.6 1539.2,2253.9 1649.5,2076.2 1548,1992.9 "/>
    <polygon class="fil8" points="1362.4,1836.1 1362.3,2002.8 1573.4,1908.1 1607.4,1743.3 1505.8,1718.9 "/>
    <polygon class="fil9" points="1086.5,1684.4 1162.5,1640.6 1329.3,1735.2 1253.3,1779 "/>
    <polygon class="fil9" points="1489.4,1643.4 1322.6,1548.7 1244.8,1593.2 1411.6,1687.8 "/>
    <polygon class="fil9" points="1621.5,1603.7 1462.2,1512.2 1411.6,1565.8 1582.8,1636.8 "/>
    <polygon class="fil10" points="1162.6,1542.2 1329.4,1636.8 1329.3,1735.2 1162.5,1640.6 "/>
    <polygon class="fil10" points="1322.7,1449.9 1489.5,1544.6 1489.4,1643.4 1322.6,1548.7 "/>
    <polygon class="fil9" points="1405,1402.5 1571.8,1497.1 1489.5,1544.6 1322.7,1449.9 "/>
    <polygon class="fil9" points="1244.8,1494.8 1411.6,1589.4 1329.4,1636.8 1162.6,1542.2 "/>
    <path class="fil11" d="M1362.4 1836.1l-0.1 166.7 71.6 -41.3c42.5,-24.5 69,-40.6 79.3,-48.2 18.7,-13.7 33.4,-30.8 44.2,-51.2 10.6,-20.4 16,-42.3 16,-65.6 0,-22.3 -4.6,-37.7 -13.8,-46.3 -9.2,-8.6 -22.9,-9.2 -41.1,-1.6 -10.8,4.6 -42,21.7 -93.4,51.3l-62.7 36.2zm-0.1 286.7l-0.2 192.8 101.1 -58.3c39.4,-22.7 64.3,-38.6 74.9,-47.6 16.3,-13.3 29.5,-30.5 39.7,-51.7 10.2,-21.1 15.4,-44.5 15.4,-70 0,-21.7 -4,-37.8 -11.8,-48.3 -7.9,-10.5 -19.2,-15 -34.1,-13.3 -14.9,1.7 -47.2,16.9 -96.9,45.5l-88.1 50.9zm126.6 339.4l0.1 -98.8c-15.5,9.2 -32.9,19.4 -52.1,30.4l-25.8 14.9 0 98.4 -82.3 47.4 0 -98.4 -76 43.9 0.5 -721 76 -43.8 0.1 -98.4 82.2 -47.4 0 98.4 57.9 -33.4c6.9,-4 13.5,-7.6 19.9,-11l0.1 -98.8 82.3 -47.5 -0.1 107.2c18.4,-5.4 35,-5.6 49.8,-0.6 16.7,5.4 30.6,17.4 41.7,36.1 11,18.7 16.5,43.7 16.5,74.8 0,33.8 -6.9,68.7 -20.6,104.8 -13.6,36 -32.1,67.8 -55.5,95.4 32.9,-6.2 58.3,1 76,21.6 17.6,20.6 26.5,51.7 26.4,93.4 0,32.8 -5.7,67.9 -17.2,105.5 -11.4,37.6 -27.1,71.5 -47.1,101.6 -19.1,29.1 -42.6,54 -70.5,74.6l0 103.3 -82.3 47.4z"/>
    <polygon class="fil10" points="1086.5,1684.4 1253.3,1779 1252.8,2500 1086,2405.3 "/>
   </g>
   <path class="fil12" d="M616.7 986.4l-55.1 -31.9c-3.7,-2.2 -6.7,-7.9 -6.7,-12.9l0.1 -89.2c0,-5 2.9,-7.2 6.7,-5.1l55.1 31.9c3.7,2.2 6.7,7.9 6.7,12.9l0 89.2c0,4.9 -3,7.2 -6.8,5.1z"/>
   <path class="fil12" d="M715.2 1043.4l-55.1 -31.9c-3.7,-2.1 -6.7,-7.8 -6.7,-12.8l0 -89.2c0,-5 3,-7.2 6.7,-5.1l55.2 31.9c3.7,2.1 6.7,7.9 6.7,12.8l0 89.3c-0.1,4.9 -3.1,7.2 -6.8,5z"/>
   <path class="fil12" d="M813.7 1100.5l-55.2 -31.9c-3.7,-2.1 -6.7,-7.9 -6.7,-12.8l0.1 -89.3c0,-4.9 3,-7.2 6.7,-5l55.1 31.8c3.7,2.2 6.7,8 6.7,12.9l0 89.2c0,5 -3,7.3 -6.7,5.1z"/>
   <path class="fil12" d="M616.7 1127l-55.1 -31.8c-3.7,-2.2 -6.7,-8 -6.7,-12.9l0.1 -89.2c0,-5 2.9,-7.3 6.7,-5.1l55.1 31.9c3.7,2.1 6.7,7.9 6.7,12.8l0 89.3c0,4.9 -3,7.2 -6.8,5z"/>
   <path class="fil12" d="M715.2 1184.1l-55.1 -31.9c-3.7,-2.1 -6.7,-7.9 -6.7,-12.8l0 -89.3c0,-4.9 3,-7.2 6.7,-5l55.2 31.8c3.7,2.2 6.7,7.9 6.7,12.9l0 89.2c-0.1,5 -3.1,7.2 -6.8,5.1z"/>
   <path class="fil12" d="M813.7 1241.2l-55.2 -31.9c-3.7,-2.1 -6.7,-7.9 -6.7,-12.9l0.1 -89.2c0,-4.9 3,-7.2 6.7,-5.1l55.1 31.9c3.7,2.1 6.7,7.9 6.7,12.9l0 89.2c0,4.9 -3,7.2 -6.7,5.1z"/>
   <path class="fil12" d="M715.2 1324.8l-55.1 -31.9c-3.7,-2.2 -6.7,-7.9 -6.7,-12.9l0 -89.2c0,-4.9 3,-7.2 6.7,-5.1l55.2 31.9c3.7,2.2 6.7,7.9 6.7,12.9l0 89.2c-0.1,4.9 -3.1,7.2 -6.8,5.1z"/>
   <path class="fil12" d="M813.7 1522.5l-55.2 -31.9c-3.7,-2.1 -6.7,-7.9 -6.7,-12.8l0.1 -89.3c0,-4.9 3,-7.2 6.7,-5.1l55.1 31.9c3.7,2.2 6.7,7.9 6.7,12.9l0 89.2c0,5 -3,7.2 -6.7,5.1z"/>
   <path class="fil12" d="M616.7 1689.7l-55.1 -31.9c-3.7,-2.2 -6.7,-7.9 -6.7,-12.9l0.1 -89.2c0,-4.9 2.9,-7.2 6.7,-5.1l55.1 31.9c3.7,2.2 6.7,7.9 6.7,12.9l0 89.2c0,4.9 -3,7.2 -6.8,5.1z"/>
   <g style="clip-path:url(#id0)">
    <image x="2117.8" y="1630" width="27.4" height="25.7" xlink:href="promo-d3_Images\promo-d3_ImgID1.png"/>
   </g>
   <path class="fil13" d="M879.4 2752.5c-23.5,0 -47,3.4 -69.9,10.2 -57.6,17.2 -92,49.7 -92,87.2 0,37.4 34.4,70 92,87.1 22.9,6.8 46.4,10.2 69.9,10.2 23.5,0 47,-3.4 69.8,-10.2 57.6,-17.1 92,-49.7 92,-87.1 0,-18.5 -8.4,-35.9 -23.8,-50.7l-7.7 4.5c-1,0.6 -2.1,0.9 -3.2,0.9 -1.1,0 -2,-0.3 -2.9,-0.7 16.1,13.4 24.9,29.2 24.9,46 0,31.4 -31,59.4 -82.9,74.9 -21.7,6.4 -44,9.6 -66.2,9.6 -22.3,0 -44.6,-3.2 -66.3,-9.6 -51.9,-15.5 -82.9,-43.5 -82.9,-74.9 0,-31.5 31,-59.5 82.9,-74.9 21.7,-6.5 44,-9.7 66.3,-9.7 22.2,0 44.5,3.2 66.2,9.7 23,6.8 42,16.2 55.9,27.2 -0.2,-0.3 -0.4,-0.5 -0.5,-0.8 -1.8,-3.1 -0.8,-7 2.2,-8.7l3.9 -2.3c-15,-11.3 -34.6,-20.7 -57.9,-27.7 -22.8,-6.8 -46.3,-10.2 -69.8,-10.2z"/>
   <g>
    <path class="fil14" d="M736.3 2752.2c-60.1,34.6 -157.4,34.6 -217.4,0 -60,-34.7 -60,-90.8 0,-125.5 60,-34.7 157.3,-34.7 217.4,0 60,34.7 60,90.8 0,125.5z"/>
    <path class="fil15" d="M770.5 2632.8l-6.6 0c-7.5,-14.6 -21.2,-28.4 -41.2,-39.9 -63.8,-36.9 -167.1,-36.9 -230.9,0 -20,11.5 -33.7,25.3 -41.2,39.9l-6.6 0 0 26.7c0,24.1 15.9,48.3 47.8,66.7 63.8,36.8 167.1,36.8 230.9,0 31.9,-18.4 47.8,-42.6 47.8,-66.7l0 -26.7z"/>
    <path class="fil16" d="M571.8 2567.5c-29.3,3.7 -57.2,12.2 -80,25.4 -20,11.5 -33.7,25.3 -41.2,39.9l-6.6 0 0 26.7c0,24.1 15.9,48.3 47.8,66.7 22.8,13.1 50.7,21.6 80,25.3l0 -184z"/>
    <path class="fil17" d="M723.1 2725.9c31.6,-18.4 47.4,-42.4 47.4,-66.4l0 -26.7 -6.6 0c-6.4,-12.4 -17.3,-24.3 -32.8,-34.7l-8 0 0 127.8z"/>
    <path class="fil17" d="M755 2699.6l0 -21.8c2.7,-3.3 5.1,-6.7 7.1,-10.2l0 21.8c-2,3.4 -4.3,6.9 -7.1,10.2z"/>
    <path class="fil18" d="M592.5 2753.4c-0.3,0 -0.6,0 -0.9,-0.1l0 0c0.3,0.1 0.6,0.1 0.9,0.1z"/>
    <path class="fil19" d="M612 2753.7l0 -21.8c2.4,0 4.7,-0.1 7.1,-0.2l0 21.8c-2.4,0.1 -4.7,0.2 -7.1,0.2zm-13.3 -0.1c-2.1,0 -4.2,-0.1 -6.2,-0.2 -0.3,0 -0.6,0 -0.9,-0.1l0 -21.8c2.3,0.2 4.7,0.3 7.1,0.3l0 21.8zm33.7 -1l0 -21.7c2.4,-0.3 4.8,-0.5 7.1,-0.8l0 21.8c-2.3,0.3 -4.7,0.5 -7.1,0.7zm-54.2 -0.3c-2.3,-0.3 -4.7,-0.6 -7.1,-0.9l0 0c0.3,0.1 0.5,0.1 0.7,0.1l0 -21.8c2.1,0.3 4.3,0.6 6.4,0.8l0 21.8zm74.7 -2.3l0 -21.8c2.3,-0.4 4.7,-0.8 7.1,-1.3l0 21.8c-2.4,0.5 -4.8,0.9 -7.1,1.3zm20.4 -4.3l0 -21.8c2.4,-0.6 4.8,-1.2 7.1,-1.9l0 21.8c-2.4,0.7 -4.7,1.3 -7.1,1.9zm-135.9 -1c-1.6,-0.4 -3.1,-0.8 -4.7,-1.3 1.6,0.5 3.1,0.9 4.7,1.3l0 0zm156.3 -5.2l0 -21.8c2.4,-0.9 4.8,-1.8 7.1,-2.7l0 21.7c-2.3,1 -4.7,1.9 -7.1,2.8zm20.5 -8.8l0 -21.7c2.4,-1.3 4.7,-2.5 7.1,-3.8l0 21.8c-2.4,1.3 -4.7,2.5 -7.1,3.7z"/>
    <path class="fil20" d="M571.8 2751.5c-0.2,0 -0.4,0 -0.7,-0.1l0 -21.7c0.3,0 0.5,0 0.7,0l0 21.8zm-14 -2.2c-2.4,-0.4 -4.7,-0.9 -7.1,-1.4l0 -21.7c2.3,0.5 4.7,0.9 7.1,1.4l0 21.7zm-20.4 -4.6c-1.6,-0.4 -3.1,-0.8 -4.7,-1.3 -0.8,-0.2 -1.6,-0.5 -2.4,-0.7l0 -21.8c2.3,0.7 4.7,1.4 7.1,2l0 21.8zm-20.5 -6.7c-2.4,-0.9 -4.7,-1.8 -7.1,-2.8l0 -21.8c2.4,1 4.7,1.9 7.1,2.9l0 21.7zm-20.4 -9.3c-1.5,-0.8 -3,-1.6 -4.5,-2.4 -0.1,0 -0.1,-0.1 -0.2,-0.1l0 0c-0.8,-0.5 -1.6,-1 -2.4,-1.5l0 -21.7c0.8,0.4 1.6,0.9 2.4,1.4 1.5,0.9 3.1,1.7 4.7,2.6l0 21.7zm-20.4 -13.1c-2.6,-1.9 -4.9,-3.9 -7.1,-6l0 -21.7c2.2,2 4.6,4 7.1,6l0 21.7zm20.4 -13.5c-1.6,-0.8 -3.2,-1.7 -4.7,-2.6 -0.8,-0.5 -1.6,-0.9 -2.4,-1.4l0 0c0.8,0.5 1.6,0.9 2.4,1.4 1.5,0.9 3.1,1.8 4.7,2.6l0 0z"/>
    <path class="fil17" d="M734.6 2718.5l0 -21.8c2.5,-1.8 4.8,-3.6 7.1,-5.5l0 21.8c-2.3,1.9 -4.6,3.7 -7.1,5.5z"/>
    <path class="fil20" d="M455.6 2694.5c-2.9,-4.2 -5.2,-8.4 -7.1,-12.8l0 -21.8c1.9,4.3 4.2,8.6 7.1,12.8l0 21.8z"/>
    <path class="fil16" d="M722.7 2699.5c-63.8,36.8 -167.1,36.8 -230.9,0 -63.8,-36.8 -63.8,-96.5 0,-133.3 63.8,-36.8 167.1,-36.8 230.9,0 63.8,36.8 63.8,96.5 0,133.3z"/>
    <path class="fil21" d="M498.2 2674.9c-15,-1.6 -29.6,-4.4 -43.5,-8.5 -4.5,-6.7 -7.5,-13.7 -9.2,-20.8 -0.8,-3.4 -1.3,-6.9 -1.4,-10.3 0,0 0,0 0,0.1 -0.6,-12.8 3.2,-25.6 11.5,-37.6l0 13.6c0,22.8 14.2,45.6 42.6,63.5z"/>
    <path class="fil22" d="M607.2 2732c-2.8,0 -5.7,-0.1 -8.5,-0.2l0 -4.8c2.8,0.1 5.7,0.1 8.6,0.1 1.5,0 3.1,0 4.7,0l0 4.8c-1.6,0.1 -3.2,0.1 -4.8,0.1zm11.9 -0.3l0 -4.8c4.5,-0.2 8.9,-0.5 13.3,-0.9l0 4.9c-4.4,0.3 -8.8,0.6 -13.3,0.8zm-27.5 -0.2c-4.5,-0.2 -8.9,-0.6 -13.4,-1l0 -4.9c4.4,0.5 8.9,0.8 13.4,1.1l0 4.8zm47.9 -1.4l0 -4.8c4.5,-0.6 9,-1.2 13.4,-1.9l0 4.8c-4.4,0.8 -8.9,1.4 -13.4,1.9zm20.5 -3.2l0 -4.8c4.5,-0.9 8.9,-1.9 13.3,-3l0 4.8c-4.4,1.2 -8.8,2.2 -13.3,3zm20.4 -4.9l0 -4.9c4.5,-1.3 9,-2.7 13.3,-4.3l0 4.9c-4.3,1.6 -8.8,3 -13.3,4.3zm20.4 -7l0 -4.9c4.6,-1.8 9.1,-3.8 13.4,-6l0 4.9c-4.3,2.1 -8.8,4.1 -13.4,6zm20.5 -9.8l0 -4.9c0.4,-0.2 0.9,-0.5 1.4,-0.8 0.1,0 0.1,-0.1 0.2,-0.1 0,0 0,0 0,0 0,0 0.1,-0.1 0.2,-0.1 0,0 0,0 0,0 0,0 0,0 0,0l0 4.8c-0.1,0.1 -0.2,0.2 -0.4,0.3 -0.5,0.2 -1,0.5 -1.4,0.8z"/>
    <path class="fil23" d="M571.1 2729.7c-4.4,-0.6 -8.9,-1.3 -13.3,-2.1l0 -4.9c4.4,0.8 8.9,1.5 13.3,2.1l0 4.9zm-20.4 -3.5c-4.5,-1 -9,-2.1 -13.3,-3.3l0 -4.8c4.3,1.2 8.8,2.2 13.3,3.2l0 4.9zm-20.4 -5.3c-4.6,-1.4 -9,-3 -13.4,-4.6l0 -4.9c4.4,1.7 8.8,3.2 13.4,4.6l0 4.9zm-20.5 -7.5c-4.6,-2 -9,-4.1 -13.3,-6.4l0 -4.9c4.3,2.3 8.7,4.4 13.3,6.4l0 4.9zm-20.4 -10.4c-4.8,-2.9 -9.3,-6 -13.3,-9.1l0 -4.9c2.4,1.9 5,3.8 7.7,5.6 0,0 0.1,0 0.1,0 0,0 0,0 0.1,0.1 0,0 0,0 0.1,0 0,0 0,0.1 0,0.1 0.1,0 0.1,0 0.1,0 0.1,0 0.1,0.1 0.1,0.1 0,0 0.1,0 0.1,0.1l0 0c1.6,1 3.3,2.1 5,3.1l0 4.9zm-20.4 -15.1c-5.3,-4.9 -9.8,-9.9 -13.4,-15.2l0 -4.8c3.6,5.2 8.1,10.3 13.4,15.1l0 4.9zm-20.5 -28c-3.2,-7.9 -4.7,-16 -4.5,-24.1 0.4,6.5 1.9,12.9 4.5,19.3l0 4.8z"/>
    <path class="fil24" d="M723.1 2704.1l0 -4.8c0.1,-0.1 0.1,-0.1 0.2,-0.1 0,0 0,0 0,-0.1 0.1,0 0.1,0 0.1,0 0.1,0 0.1,-0.1 0.1,-0.1 0,0 0.1,0 0.1,0 0,0 0.1,-0.1 0.1,-0.1 0,0 0.1,0 0.1,0 0,-0.1 0.1,-0.1 0.1,-0.1 0,0 0,0 0.1,0 0,-0.1 0,-0.1 0.1,-0.1 0,0 0,0 0,0 0.1,-0.1 0.1,-0.1 0.2,-0.1 0,0 0,0 0,0 0.1,-0.1 0.1,-0.1 0.2,-0.1 0,0 0,0 0,-0.1 0.1,0 0.1,0 0.1,0 0.1,0 0.1,0 0.1,-0.1 0,0 0.1,0 0.1,0 0,-0.1 0,-0.1 0.1,-0.1 0,0 0.1,0 0.1,-0.1l0 0c3.4,-2 6.6,-4.1 9.6,-6.3l0 4.9c-3.6,2.6 -7.4,5 -11.5,7.4zm18.6 -12.9l0 -4.8c5.1,-4.3 9.6,-8.8 13.3,-13.4l0 4.8c-3.7,4.6 -8.2,9.1 -13.3,13.4zm20.4 -23.6l0 -4.8c2.4,-4.1 4.2,-8.3 5.6,-12.5 0.6,-0.8 1.2,-1.6 1.8,-2.4 -1.2,6.7 -3.7,13.3 -7.4,19.7z"/>
    <path class="fil24" d="M755 2677.8l0 -4.8c2.7,-3.4 5.1,-6.8 7.1,-10.2l0 4.8c-2,3.5 -4.4,6.9 -7.1,10.2z"/>
    <path class="fil25" d="M612 2731.9l0 -4.8c2.4,-0.1 4.7,-0.1 7.1,-0.2l0 4.8c-2.4,0.1 -4.7,0.2 -7.1,0.2zm-13.3 -0.1c-2.4,0 -4.8,-0.1 -7.1,-0.3l0 -4.8c2.3,0.1 4.7,0.2 7.1,0.3l0 4.8zm33.7 -0.9l0 -4.9c2.4,-0.2 4.8,-0.5 7.1,-0.7l0 4.8c-2.3,0.3 -4.7,0.5 -7.1,0.8zm-54.2 -0.4c-2.1,-0.2 -4.3,-0.5 -6.4,-0.8l0 -4.8c2.2,0.3 4.3,0.5 6.4,0.7l0 4.9zm74.7 -2.3l0 -4.8c2.3,-0.4 4.7,-0.8 7.1,-1.3l0 4.8c-2.4,0.5 -4.8,0.9 -7.1,1.3zm20.4 -4.3l0 -4.8c2.4,-0.6 4.8,-1.3 7.1,-2l0 4.9c-2.3,0.7 -4.7,1.3 -7.1,1.9zm20.4 -6.2l0 -4.9c2.4,-0.8 4.8,-1.7 7.1,-2.7l0 4.9c-2.3,0.9 -4.7,1.8 -7.1,2.7zm20.5 -8.7l0 -4.9c2.4,-1.2 4.7,-2.5 7.1,-3.8l0 4.9c-2.4,1.3 -4.7,2.5 -7.1,3.8z"/>
    <path class="fil26" d="M571.8 2729.7c-0.2,0 -0.4,0 -0.7,0l0 -4.9c0.3,0 0.5,0 0.7,0.1l0 4.8zm-14 -2.1c-2.4,-0.5 -4.8,-0.9 -7.1,-1.4l0 -4.9c2.3,0.5 4.7,1 7.1,1.4l0 4.9zm-20.4 -4.7c-2.4,-0.6 -4.8,-1.3 -7.1,-2l0 -4.9c2.3,0.7 4.7,1.4 7.1,2.1l0 4.8zm-20.5 -6.6c-2.4,-1 -4.7,-1.9 -7.1,-2.9l0 -4.9c2.4,1 4.7,2 7.1,2.9l0 4.9zm-20.4 -9.3c-1.6,-0.9 -3.2,-1.7 -4.7,-2.6 -0.8,-0.5 -1.6,-1 -2.4,-1.4l0 -4.9c0.8,0.5 1.6,0.9 2.4,1.4 1.5,0.9 3.1,1.8 4.7,2.6l0 4.9zm-20.4 -13.1c-2.5,-2 -4.9,-4 -7.1,-6l0 -4.9c2.2,2 4.6,4 7.1,6l0 4.9z"/>
    <path class="fil24" d="M734.6 2696.7l0 -4.9c2.5,-1.7 4.8,-3.6 7.1,-5.4l0 4.8c-2.3,1.9 -4.6,3.7 -7.1,5.5z"/>
    <path class="fil26" d="M455.6 2672.7c-2.9,-4.2 -5.2,-8.5 -7.1,-12.8l0 -4.8c1.9,4.3 4.2,8.6 7.1,12.8l0 4.8z"/>
    <path class="fil23" d="M722.9 2699.4c0,0 0,0 0,0 0,0 0,0 0,0zm0.2 -0.1c0,0 0,0 0,0 0,0 0,0 0,0zm0.2 -0.1c0,0 0,0 0,-0.1 0,0.1 0,0.1 0,0.1zm0.1 -0.1c0.1,0 0.1,-0.1 0.1,-0.1 0,0 0,0.1 -0.1,0.1zm0.2 -0.1c0,0 0.1,-0.1 0.1,-0.1 0,0 -0.1,0.1 -0.1,0.1zm0.2 -0.1c0,-0.1 0.1,-0.1 0.1,-0.1 0,0 -0.1,0 -0.1,0.1zm0.2 -0.1c0,-0.1 0,-0.1 0.1,-0.1 -0.1,0 -0.1,0 -0.1,0.1zm0.1 -0.1c0.1,-0.1 0.1,-0.1 0.2,-0.1 -0.1,0 -0.1,0 -0.2,0.1zm0.2 -0.1c0.1,-0.1 0.1,-0.1 0.2,-0.1 -0.1,0 -0.1,0 -0.2,0.1zm0.2 -0.2c0.1,0 0.1,0 0.1,0 0,0 0,0 -0.1,0zm0.2 -0.1c0,0 0.1,0 0.1,0 0,0 -0.1,0 -0.1,0zm0.2 -0.1c0,0 0.1,0 0.1,-0.1 0,0.1 -0.1,0.1 -0.1,0.1zm0.1 -0.1c22.8,-13.6 37,-30.3 42.6,-47.7 0.1,0 0.1,0 0.1,-0.1 -1.4,4.2 -3.2,8.4 -5.6,12.5 -2,3.4 -4.4,6.8 -7.1,10.2 -3.7,4.6 -8.2,9.1 -13.3,13.4 -2.3,1.8 -4.6,3.7 -7.1,5.4 -3,2.2 -6.2,4.3 -9.6,6.3zm-240.6 -3.1l0 0 0 0zm-0.1 -0.1c0,0 0,-0.1 -0.1,-0.1 0.1,0 0.1,0.1 0.1,0.1zm-0.2 -0.1c0,0 0,-0.1 0,-0.1 0,0 0,0.1 0,0.1zm-0.1 -0.1c-0.1,-0.1 -0.1,-0.1 -0.1,-0.1 0,0 0,0 0.1,0.1zm-0.2 -0.1c-2.7,-1.8 -5.3,-3.7 -7.7,-5.6 -2.5,-2 -4.9,-4 -7.1,-6 -5.3,-4.8 -9.8,-9.9 -13.4,-15.1 -2.9,-4.2 -5.2,-8.5 -7.1,-12.8 -2.6,-6.4 -4.1,-12.8 -4.5,-19.3 0.1,-0.2 0.1,-0.3 0.1,-0.4 0.1,3.4 0.6,6.8 1.4,10.2 4.1,17.6 16.9,34.7 38.3,49z"/>
    <path class="fil27" d="M445.5 2645.6c-0.8,-3.4 -1.3,-6.8 -1.4,-10.2 0,-0.1 0,-0.1 0,-0.1 0.1,3.4 0.6,6.9 1.4,10.3z"/>
    <path class="fil17" d="M689.2 2680.2c-45.3,26.1 -118.7,26.1 -163.9,0 -45.3,-26.2 -45.3,-68.5 0,-94.7 45.2,-26.1 118.6,-26.1 163.9,0 45.3,26.2 45.3,68.5 0,94.7z"/>
    <path class="fil15" d="M525.3 2591.6c45.2,-26.1 118.6,-26.1 163.9,0 21.3,12.3 32.6,28.2 33.8,44.3 1.4,-18.1 -9.8,-36.5 -33.8,-50.4 -45.3,-26.1 -118.7,-26.1 -163.9,0 -24,13.9 -35.3,32.3 -33.8,50.4 1.2,-16.1 12.5,-32 33.8,-44.3z"/>
    <path class="fil15" d="M664.2 2601.2l-8.9 2.6 2.5 1 -8.8 5.1c-7.1,-3.5 -14.6,-5.2 -22.2,-5.2 -7.7,0 -14.8,2 -21.4,5.8 -2.7,1.5 -4.8,3.1 -6.5,4.7 -1.6,1.6 -2.8,3.2 -3.4,4.9 -0.7,1.7 -1.1,3.3 -1.2,4.8 -0.1,1.4 0,3.1 0.2,5.1l1.1 8.2c0.3,2.3 0.3,4.2 0.2,5.7 -0.2,1.5 -0.9,3.1 -2,4.7 -1.1,1.6 -2.8,3 -5.1,4.4 -4.2,2.4 -7.8,2.6 -11,0.8 -2.5,-1.4 -3.1,-3.2 -1.9,-5.3 1.2,-2.1 4.5,-4.7 9.8,-7.9l0 -6.1 -7.7 2.9 -11 -4.7c-6.8,4.1 -11.2,8 -13.1,11.7l-1.3 -1.4 0 6 0 0c0.1,4.2 3.2,8.2 9.5,12.3l-4.3 2.5 -6 -2.7 0 6.1 5.4 3.1 10.4 -6c6.5,3 13.5,4.4 21,4.2 7.5,-0.3 14.1,-2.1 19.8,-5.4 2.9,-1.6 5.2,-3.4 7.1,-5.2 1.8,-1.8 3.1,-3.7 3.9,-5.7 0.8,-1.9 1.2,-3.8 1.4,-5.6 0.2,-1.8 0.2,-3.8 0,-5.9l-0.9 -8c-0.1,-1.5 -0.2,-2.7 -0.2,-3.4 0,-0.7 0.1,-1.8 0.4,-3 0.3,-1.3 0.8,-2.4 1.8,-3.4 0.9,-1 2.2,-2 3.8,-2.9 1.7,-1 3.7,-1.6 5.9,-1.9 2.2,-0.3 4.2,0 5.9,1 0.9,0.4 1.5,0.9 1.8,1.4l0.4 1 -9.2 1.9 0 6.1 18.5 8.3c1.6,-1 2.9,-1.9 4.1,-2.7 1.2,-0.8 2.4,-1.8 3.7,-3 1.3,-1.1 2.3,-2.3 3.1,-3.3 0.8,-1.1 1.4,-2.3 1.8,-3.6 0.2,-0.6 0.3,-1.3 0.3,-1.9l0 0 0 -6.4 -2.4 0.4 0 -0.1c-1.2,-1.4 -2.9,-2.8 -5,-4.2l9.7 -5.6 0 -6.2z"/>
    <path class="fil16" d="M551.7 2661.1l10.3 -6c-7,-4.4 -10.1,-9 -9.4,-13.6 0.7,-4.6 5.5,-9.6 14.3,-15l18.7 8c-5.3,3.1 -8.6,5.8 -9.8,7.9 -1.2,2.1 -0.6,3.8 1.9,5.2 3.2,1.9 6.8,1.6 11,-0.8 2.3,-1.3 4,-2.8 5.1,-4.4 1.1,-1.6 1.8,-3.1 2,-4.6 0.1,-1.5 0.1,-3.4 -0.2,-5.7l-1.1 -8.2c-0.2,-2 -0.3,-3.7 -0.2,-5.2 0.1,-1.4 0.5,-3 1.2,-4.7 0.6,-1.7 1.8,-3.4 3.4,-5 1.7,-1.6 3.8,-3.1 6.5,-4.7 6.6,-3.8 13.7,-5.7 21.4,-5.7 7.6,-0.1 15.1,1.7 22.2,5.2l9.8 -5.7 5.4 3.1 -9.7 5.7c2.1,1.3 3.8,2.7 5,4.2 1.2,1.4 1.9,2.8 2.2,4 0.3,1.3 0.3,2.6 -0.1,3.9 -0.4,1.4 -1,2.6 -1.8,3.6 -0.8,1.1 -1.8,2.2 -3.1,3.4 -1.3,1.1 -2.5,2.2 -3.7,3 -1.2,0.8 -2.5,1.7 -4.1,2.6l-18.5 -8.2c1.4,-0.9 2.6,-1.6 3.5,-2.1 0.9,-0.6 1.8,-1.3 2.7,-2 0.9,-0.7 1.6,-1.3 2,-1.8 0.4,-0.5 0.7,-1 0.9,-1.6 0.2,-0.6 0.1,-1.1 -0.3,-1.6 -0.3,-0.4 -0.9,-0.9 -1.8,-1.4 -1.7,-0.9 -3.7,-1.2 -5.9,-1 -2.2,0.3 -4.2,0.9 -5.9,1.9 -1.6,1 -2.9,1.9 -3.8,2.9 -1,1 -1.5,2.1 -1.8,3.4 -0.3,1.3 -0.4,2.3 -0.4,3 0,0.8 0.1,1.9 0.2,3.5l0.9 7.9c0.2,2.2 0.2,4.2 0,6 -0.2,1.7 -0.6,3.6 -1.4,5.6 -0.8,1.9 -2.1,3.8 -3.9,5.7 -1.9,1.8 -4.2,3.5 -7.1,5.2 -5.7,3.3 -12.3,5.1 -19.8,5.3 -7.5,0.3 -14.5,-1.1 -21,-4.2l-10.4 6 -5.4 -3z"/>
    <path class="fil15" d="M782.2 2584.8l-6.7 0c-7.4,-14.7 -21.1,-28.5 -41.1,-40 -63.8,-36.8 -167.2,-36.8 -230.9,0 -20.1,11.5 -33.8,25.3 -41.2,40l-6.7 0 0 26.6c0,24.2 16,48.3 47.9,66.7 63.7,36.8 167.1,36.8 230.9,0 31.9,-18.4 47.8,-42.5 47.8,-66.7l0 -26.6z"/>
    <path class="fil16" d="M583.5 2519.4c-29.3,3.8 -57.2,12.2 -80,25.4 -20.1,11.5 -33.8,25.3 -41.2,40l-6.7 0 0 26.6c0,24.2 16,48.3 47.9,66.7 22.8,13.2 50.7,21.6 80,25.4l0 -184.1z"/>
    <path class="fil17" d="M734.8 2677.8c31.6,-18.3 47.4,-42.3 47.4,-66.4l0 -26.6 -6.7 0c-6.3,-12.5 -17.3,-24.3 -32.7,-34.7l-8 0 0 127.7z"/>
    <path class="fil17" d="M766.7 2651.6l0 -21.8c2.7,-3.4 5.1,-6.8 7.1,-10.3l0 21.8c-2,3.5 -4.4,6.9 -7.1,10.3z"/>
    <path class="fil19" d="M623.7 2705.7l0 -21.8c2.3,-0.1 4.7,-0.1 7.1,-0.2l0 21.7c-2.4,0.1 -4.8,0.2 -7.1,0.3zm-13.4 -0.1c-2.3,-0.1 -4.7,-0.2 -7.1,-0.3l0 -21.8c2.4,0.1 4.8,0.2 7.1,0.3l0 21.8zm33.8 -1l0 -21.8c2.4,-0.2 4.7,-0.5 7.1,-0.7l0 21.8c-2.4,0.2 -4.7,0.5 -7.1,0.7zm-54.2 -0.4c-2.4,-0.2 -4.7,-0.5 -7.1,-0.8l0 0c0.2,0 0.5,0 0.7,0.1l0 -21.8c2.1,0.3 4.3,0.5 6.4,0.7l0 21.8zm74.6 -2.2l0 -21.8c2.4,-0.4 4.8,-0.8 7.1,-1.3l0 21.8c-2.3,0.4 -4.7,0.9 -7.1,1.3zm20.5 -4.3l0 -21.8c2.4,-0.6 4.7,-1.3 7,-1.9l0 21.7c-2.3,0.7 -4.6,1.4 -7,2zm-136 -1c-0.4,-0.2 -0.8,-0.3 -1.2,-0.4 0.4,0.1 0.8,0.2 1.2,0.4l0 0zm156.4 -5.3l0 -21.8c2.4,-0.8 4.8,-1.7 7.1,-2.7l0 21.8c-2.3,0.9 -4.7,1.8 -7.1,2.7zm-176.8 -1.4c-0.1,0 -0.1,0 -0.2,-0.1 0.1,0.1 0.1,0.1 0.2,0.1l0 0zm197.2 -7.3l0 -21.8c2.4,-1.2 4.8,-2.5 7.1,-3.8l0 21.8c-2.3,1.3 -4.7,2.6 -7.1,3.8zm-102.1 -3.7l0 0c2.3,0 4.7,-0.1 7.1,-0.2l0 0c-2.4,0.1 -4.8,0.2 -7.1,0.2zm-13.4 -0.1c-2.3,0 -4.7,-0.1 -7.1,-0.3l0 0c2.4,0.2 4.8,0.3 7.1,0.3l0 0zm33.8 -1l0 0c2.4,-0.2 4.7,-0.4 7.1,-0.7l0 0c-2.4,0.3 -4.7,0.5 -7.1,0.7zm-54.2 -0.3c-2.2,-0.3 -4.3,-0.5 -6.4,-0.8l0 0c2.1,0.3 4.2,0.5 6.4,0.8l0 0zm74.6 -2.3l0 0c2.4,-0.4 4.8,-0.8 7.1,-1.3l0 0c-2.3,0.5 -4.7,0.9 -7.1,1.3zm20.5 -4.3l0 0c2.4,-0.6 4.7,-1.2 7,-1.9l0 0c-2.3,0.7 -4.7,1.3 -7,1.9zm20.4 -6.2l0 0c2.4,-0.9 4.8,-1.8 7.1,-2.7l0 0c-2.4,0.9 -4.7,1.8 -7.1,2.7zm20.4 -8.8l0 0c2.4,-1.2 4.8,-2.4 7.1,-3.7l0 0c-2.3,1.3 -4.7,2.5 -7.1,3.7z"/>
    <g>
     <path class="fil20" d="M583.5 2703.5c-0.2,-0.1 -0.5,-0.1 -0.7,-0.1l0 -21.8c0.2,0 0.5,0.1 0.7,0.1l0 21.8zm-14 -2.2c-2.4,-0.4 -4.8,-0.9 -7.1,-1.4l0 -21.8c2.3,0.5 4.7,1 7.1,1.4l0 21.8zm-20.5 -4.6c-0.4,-0.2 -0.8,-0.3 -1.2,-0.4 -2,-0.5 -3.9,-1.1 -5.9,-1.7l0 -21.8c2.4,0.7 4.7,1.4 7.1,2.1l0 21.8 0 0zm-20.4 -6.7c-0.1,0 -0.1,0 -0.2,-0.1 -2.3,-0.9 -4.6,-1.8 -6.9,-2.8l0 -21.8c2.3,1 4.7,2 7.1,2.9l0 21.8zm-20.4 -9.3c-1.6,-0.9 -3.2,-1.7 -4.7,-2.6l0 0c-0.9,-0.5 -1.6,-1 -2.4,-1.4l0 -21.8c0.8,0.5 1.5,0.9 2.4,1.4 1.5,0.9 3.1,1.8 4.7,2.6l0 21.8zm75.3 -3.9c-0.2,0 -0.5,0 -0.7,-0.1l0 0c0.2,0.1 0.5,0.1 0.7,0.1l0 0zm-14 -2.2c-2.4,-0.4 -4.8,-0.9 -7.1,-1.3l0 0c2.3,0.4 4.7,0.9 7.1,1.3l0 0zm-20.5 -4.6c-2.4,-0.6 -4.7,-1.3 -7.1,-2l0 0c2.4,0.7 4.7,1.4 7.1,2l0 0zm-61.3 -2.4c-2.5,-2 -4.8,-4 -7.1,-6l0 -21.8c2.3,2 4.6,4 7.1,6l0 21.8zm40.9 -4.3c-2.4,-0.9 -4.8,-1.8 -7.1,-2.8l0 0c2.3,1 4.7,1.9 7.1,2.8l0 0zm-20.4 -9.2c-1.2,-0.6 -2.3,-1.3 -3.4,-1.9 1.1,0.6 2.2,1.3 3.4,1.9l0 0zm-3.5 -1.9c-0.3,-0.2 -0.5,-0.3 -0.8,-0.5 0.3,0.2 0.5,0.3 0.8,0.5zm-1.2 -0.8l0 0c-0.1,0 -0.2,0 -0.2,-0.1 0,0.1 0.1,0.1 0.2,0.1l0 0zm-0.3 -0.1c0,0 -0.1,0 -0.1,-0.1 0,0.1 0.1,0.1 0.1,0.1zm-0.2 -0.1c0,0 -0.1,-0.1 -0.1,-0.1 0,0 0.1,0.1 0.1,0.1zm-0.2 -0.1c0,0 -0.1,-0.1 -0.1,-0.1 0,0 0.1,0.1 0.1,0.1zm-0.2 -0.2c0,0 0,0 -0.1,0 0.1,0 0.1,0 0.1,0zm-0.2 -0.1c0,0 0,0 0,0 0,0 0,0 0,0zm-0.2 -0.1c0,0 0,0 0,0 0,0 0,0 0,0zm-0.2 -0.1c0,0 0,0 0,0 0,0 0,0 0,0zm-0.2 -0.1c0,0 0,0 0,0l0 0z"/>
    </g>
    <path class="fil17" d="M746.3 2670.4l0 -21.8c2.5,-1.7 4.8,-3.6 7.1,-5.4l0 21.7c-2.3,1.9 -4.6,3.7 -7.1,5.5zm0 -26.6l0 0c0,0 0,-0.1 0.1,-0.1 -0.1,0 -0.1,0.1 -0.1,0.1zm0.1 -0.1c0.1,0 0.1,-0.1 0.1,-0.1 0,0.1 0,0.1 -0.1,0.1z"/>
    <path class="fil20" d="M467.3 2646.5c-2.9,-4.2 -5.3,-8.5 -7.1,-12.8l0 -21.9c1.8,4.4 4.2,8.7 7.1,12.9l0 21.8z"/>
    <path class="fil16" d="M734.4 2651.4c-63.8,36.9 -167.2,36.9 -230.9,0 -63.8,-36.8 -63.8,-96.5 0,-133.3 63.7,-36.8 167.1,-36.8 230.9,0 63.7,36.8 63.7,96.5 0,133.3z"/>
    <path class="fil28" d="M502.1 2518.9c0,0 0,0 0,0 0,0 0,0 0,0zm0.1 0c0,-0.1 0,-0.1 0,-0.1 0,0 0,0 0,0.1zm0.4 -0.3c0,0 0,0 0.1,0 -0.1,0 -0.1,0 -0.1,0zm0.1 -0.1c0.1,0 0.1,0 0.1,0 0,0 0,0 -0.1,0zm0.2 -0.1c0.1,0 0.1,0 0.1,0 0,0 0,0 -0.1,0zm0.2 -0.1c0.1,0 0.1,0 0.1,0 0,0 -0.1,0 -0.1,0zm0.2 -0.1c0,0 0.1,0 0.2,-0.1 -0.1,0.1 -0.2,0.1 -0.2,0.1zm0.2 -0.1c0,0 0.1,0 0.2,-0.1 -0.1,0.1 -0.2,0.1 -0.2,0.1z"/>
    <path class="fil21" d="M540.1 2628.5c-25.3,0 -50.6,-3.4 -73.8,-10.1 -3.9,-6 -6.7,-12.1 -8.5,-18.3 -1.2,-4.3 -1.9,-8.6 -2.1,-12.9 0,0.1 0,0.1 0,0.1 -1.2,-24.6 14.3,-49.4 46.4,-68.4 0,0 0,0 0,0 0,0 0.1,0 0.1,0 0,-0.1 0,-0.1 0,-0.1 0.2,0 0.3,-0.1 0.4,-0.2 0,0 0,0 0.1,0 0,0 0,0 0,-0.1 0.1,0 0.1,0 0.1,0 0.1,0 0.1,-0.1 0.1,-0.1 0.1,0 0.1,0 0.1,0 0.1,0 0.1,-0.1 0.1,-0.1 0,0 0.1,0 0.1,0 0,-0.1 0.1,-0.1 0.1,-0.1 0,0 0.1,0 0.2,-0.1l0 0c0,0 0.1,0 0.2,-0.1 31.8,-18.3 73.5,-27.5 115.1,-27.5 25.4,0 50.7,3.4 73.8,10.2 22.2,33.6 9.8,73.1 -37.1,100.2 -31.9,18.4 -73.6,27.6 -115.4,27.6z"/>
    <path class="fil22" d="M618.9 2683.9c-2.9,0 -5.7,0 -8.6,-0.1l0 -4.9c2.9,0.1 5.7,0.2 8.6,0.2 1.6,0 3.2,-0.1 4.8,-0.1l0 4.9c-1.6,0 -3.2,0 -4.8,0zm11.9 -0.2l0 -4.9c4.4,-0.2 8.9,-0.5 13.3,-0.9l0 4.9c-4.4,0.4 -8.9,0.7 -13.3,0.9zm-27.6 -0.2c-4.4,-0.3 -8.9,-0.6 -13.3,-1.1l0 -4.8c4.4,0.4 8.9,0.8 13.3,1l0 4.9zm48 -1.4l0 -4.9c4.5,-0.5 8.9,-1.1 13.3,-1.9l0 4.9c-4.4,0.7 -8.8,1.4 -13.3,1.9zm20.4 -3.2l0 -4.9c4.5,-0.9 9,-1.9 13.4,-3l0 4.9c-4.4,1.1 -8.9,2.1 -13.4,3zm20.4 -4.9l0 -4.9c4.6,-1.3 9.1,-2.8 13.4,-4.3l0 4.8c-4.3,1.6 -8.8,3.1 -13.4,4.4zm20.5 -7.1l0 -4.8c4.6,-1.9 9,-3.9 13.3,-6.1l0 4.9c-4.3,2.2 -8.7,4.2 -13.3,6zm20.4 -9.8l0 -4.8c0.5,-0.3 1,-0.6 1.5,-0.9 0.1,0 0.3,-0.1 0.4,-0.2l0 4.9c-0.1,0 -0.3,0.1 -0.4,0.2 -0.5,0.3 -1,0.6 -1.5,0.8z"/>
    <path class="fil23" d="M582.8 2681.6c-4.5,-0.6 -8.9,-1.3 -13.3,-2.1l0 -4.9c4.4,0.9 8.8,1.6 13.3,2.1l0 4.9zm-20.4 -3.5c-4.5,-1 -9,-2 -13.4,-3.2l0 -4.9c4.4,1.2 8.9,2.3 13.4,3.3l0 4.8zm-20.5 -5.3c-4.5,-1.4 -9,-2.9 -13.3,-4.6l0 -4.9c4.3,1.7 8.8,3.2 13.3,4.7l0 4.8zm-20.4 -7.5c-4.6,-2 -9,-4.1 -13.3,-6.4l0 -4.8c4.3,2.3 8.7,4.4 13.3,6.4l0 4.8zm-20.4 -10.4c-4.9,-2.9 -9.3,-5.9 -13.4,-9.1l0 -4.9c4.1,3.2 8.5,6.2 13.4,9.1l0 4.9zm-20.5 -15.1c-5.2,-4.8 -9.7,-9.9 -13.3,-15.1l0 -4.9c3.6,5.3 8.1,10.3 13.3,15.2l0 4.8zm-20.4 -28c-3.3,-7.9 -4.8,-16 -4.5,-24.1 0.4,6.5 1.9,13 4.5,19.3l0 4.8z"/>
    <path class="fil24" d="M734.8 2656.1l0 -4.9c4.1,-2.4 7.9,-4.9 11.5,-7.4l0 4.8c-3.6,2.6 -7.4,5.1 -11.5,7.5zm18.6 -12.9l0 -4.9c5.1,-4.3 9.5,-8.8 13.3,-13.4l0 4.9c-3.8,4.6 -8.2,9.1 -13.3,13.4zm20.4 -23.7l0 -4.8c5,-8.7 7.8,-17.8 8.3,-27 0.4,10.8 -2.4,21.5 -8.3,31.8z"/>
    <path class="fil24" d="M766.7 2629.8l0 -4.9c2.7,-3.3 5.1,-6.7 7.1,-10.2l0 4.8c-2,3.5 -4.4,6.9 -7.1,10.3z"/>
    <path class="fil25" d="M623.7 2683.9l0 -4.9c2.3,0 4.7,-0.1 7.1,-0.2l0 4.9c-2.4,0.1 -4.8,0.1 -7.1,0.2zm-13.4 -0.1c-2.3,-0.1 -4.7,-0.2 -7.1,-0.3l0 -4.9c2.4,0.2 4.8,0.3 7.1,0.3l0 4.9zm33.8 -1l0 -4.9c2.4,-0.2 4.7,-0.4 7.1,-0.7l0 4.9c-2.4,0.2 -4.7,0.5 -7.1,0.7zm-54.2 -0.4c-2.1,-0.2 -4.3,-0.4 -6.4,-0.7l0 -4.9c2.1,0.3 4.2,0.5 6.4,0.8l0 4.8zm74.6 -2.2l0 -4.9c2.4,-0.4 4.8,-0.8 7.1,-1.3l0 4.9c-2.3,0.5 -4.7,0.9 -7.1,1.3zm20.5 -4.3l0 -4.9c2.3,-0.6 4.7,-1.2 7,-1.9l0 4.9c-2.3,0.6 -4.6,1.3 -7,1.9zm20.4 -6.3l0 -4.8c2.4,-0.9 4.7,-1.8 7.1,-2.7l0 4.8c-2.3,1 -4.7,1.9 -7.1,2.7zm20.4 -8.7l0 -4.9c2.4,-1.2 4.8,-2.4 7.1,-3.7l0 4.8c-2.3,1.3 -4.7,2.6 -7.1,3.8z"/>
    <path class="fil26" d="M583.5 2681.7c-0.2,0 -0.5,-0.1 -0.7,-0.1l0 -4.9c0.2,0.1 0.5,0.1 0.7,0.1l0 4.9zm-14 -2.2c-2.4,-0.4 -4.8,-0.9 -7.1,-1.4l0 -4.8c2.3,0.4 4.7,0.9 7.1,1.3l0 4.9zm-20.5 -4.6c-2.4,-0.7 -4.7,-1.4 -7.1,-2.1l0 -4.8c2.4,0.7 4.7,1.4 7.1,2l0 4.9zm-20.4 -6.7c-2.4,-0.9 -4.8,-1.9 -7.1,-2.9l0 -4.8c2.3,1 4.7,1.9 7.1,2.8l0 4.9zm-20.4 -9.3c-1.6,-0.8 -3.2,-1.7 -4.7,-2.6 -0.9,-0.5 -1.6,-0.9 -2.4,-1.4l0 -4.9c0.2,0.2 0.5,0.3 0.7,0.5 0,0 0,0 0,0 0.1,0 0.2,0.1 0.2,0.1 0,0 0,0 0,0 0.1,0.1 0.1,0.1 0.2,0.1 0,0 0,0 0,0 0.1,0.1 0.1,0.1 0.2,0.1 0,0 0,0 0,0 0.1,0.1 0.1,0.1 0.1,0.1 0.1,0 0.1,0 0.1,0 0,0.1 0.1,0.1 0.1,0.1 0,0 0.1,0.1 0.1,0.1 0,0 0.1,0 0.1,0 0,0 0.1,0.1 0.1,0.1 0,0 0,0 0.1,0 0,0.1 0.1,0.1 0.1,0.1 0,0 0.1,0 0.1,0 0,0.1 0.1,0.1 0.2,0.1l0 0c0.1,0.1 0.2,0.2 0.4,0.3 0.3,0.2 0.5,0.3 0.8,0.5 0,0 0.1,0 0.1,0 1.1,0.6 2.2,1.3 3.4,1.9l0 4.8zm-20.5 -13.1c-2.5,-2 -4.8,-4 -7.1,-6l0 -4.8c2.3,2 4.6,4 7.1,5.9l0 4.9z"/>
    <path class="fil24" d="M746.3 2648.6l0 -4.8c0,0 0,-0.1 0.1,-0.1 0,0 0,0 0,0 0.1,0 0.1,0 0.1,-0.1 2.4,-1.7 4.7,-3.5 6.9,-5.3l0 4.9c-2.3,1.8 -4.6,3.7 -7.1,5.4z"/>
    <path class="fil26" d="M467.3 2624.7c-2.9,-4.2 -5.3,-8.5 -7.1,-12.9l0 -4.8c1.8,4.4 4.2,8.6 7.1,12.8l0 4.9z"/>
    <path class="fil23" d="M504.8 2652.2c0,0 -0.1,0 -0.1,0 0,0 0.1,0 0.1,0zm-0.9 -0.5c-0.2,-0.1 -0.3,-0.2 -0.4,-0.3 0.1,0.1 0.2,0.2 0.4,0.3zm-0.6 -0.4c0,0 -0.1,0 -0.1,0 0,0 0.1,0 0.1,0zm-0.2 -0.1c-0.1,0 -0.1,0 -0.1,0 0,0 0,0 0.1,0zm-0.2 -0.1c0,0 -0.1,0 -0.1,0 0,0 0.1,0 0.1,0zm-0.2 -0.1c0,0 -0.1,0 -0.1,-0.1 0,0.1 0.1,0.1 0.1,0.1zm-0.2 -0.1c0,0 0,0 -0.1,-0.1 0.1,0.1 0.1,0.1 0.1,0.1zm-0.1 -0.1c-0.1,0 -0.1,0 -0.2,-0.1 0.1,0.1 0.1,0.1 0.2,0.1zm-0.2 -0.1c-0.1,0 -0.1,0 -0.2,-0.1 0.1,0.1 0.1,0.1 0.2,0.1zm-0.2 -0.1c0,0 -0.1,-0.1 -0.2,-0.1 0.1,0 0.2,0.1 0.2,0.1zm-0.2 -0.1c-0.2,-0.2 -0.5,-0.3 -0.7,-0.5 -4.9,-2.9 -9.3,-5.9 -13.4,-9.1 -2.5,-1.9 -4.8,-3.9 -7.1,-5.9 -5.2,-4.9 -9.7,-9.9 -13.3,-15.2 -2.9,-4.2 -5.3,-8.4 -7.1,-12.8 -2.6,-6.3 -4.1,-12.8 -4.5,-19.3 0,-0.1 0,-0.2 0,-0.4 0.2,4.3 0.9,8.6 2.1,12.8 5.2,18.4 19.9,36.1 44,50.4zm244.6 -6.8c0,0 0,0 0,0 0,0 0,0 0,0zm0.1 -0.1c22.9,-16.5 34.7,-36.4 35.6,-56.4 0,0.2 0,0.4 0,0.5 -0.5,9.2 -3.3,18.3 -8.3,27 -2,3.5 -4.4,6.9 -7.1,10.2 -3.8,4.6 -8.2,9.1 -13.3,13.4 -2.2,1.8 -4.5,3.6 -6.9,5.3z"/>
    <path class="fil27" d="M457.8 2600.1c-1.2,-4.2 -1.9,-8.5 -2.1,-12.8 0,0 0,0 0,-0.1 0.2,4.3 0.9,8.6 2.1,12.9z"/>
    <path class="fil17" d="M700.9 2632.1c-45.3,26.1 -118.7,26.1 -163.9,0 -45.3,-26.1 -45.3,-68.5 0,-94.6 45.2,-26.2 118.6,-26.2 163.9,0 45.2,26.1 45.2,68.5 0,94.6z"/>
    <path class="fil15" d="M537 2543.6c45.2,-26.2 118.6,-26.2 163.9,0 21.2,12.3 32.5,28.2 33.8,44.2 1.4,-18.1 -9.9,-36.5 -33.8,-50.3 -45.3,-26.2 -118.7,-26.2 -163.9,0 -24,13.8 -35.3,32.2 -33.9,50.3 1.3,-16 12.6,-31.9 33.9,-44.2z"/>
    <path class="fil15" d="M675.9 2553.2l-9 2.6 2.6 1 -8.8 5c-7.2,-3.5 -14.6,-5.2 -22.2,-5.2 -7.7,0.1 -14.8,2 -21.5,5.8 -2.6,1.6 -4.8,3.1 -6.4,4.7 -1.7,1.6 -2.8,3.3 -3.5,5 -0.6,1.7 -1,3.3 -1.1,4.7 -0.1,1.5 -0.1,3.2 0.2,5.2l1 8.1c0.3,2.4 0.4,4.3 0.2,5.8 -0.1,1.5 -0.8,3 -1.9,4.6 -1.1,1.6 -2.9,3.1 -5.2,4.4 -4.1,2.4 -7.8,2.7 -11,0.8 -2.4,-1.4 -3.1,-3.1 -1.8,-5.2 1.2,-2.2 4.4,-4.8 9.7,-7.9l0 -6.2 -7.6 2.9 -11.1 -4.7c-6.7,4.2 -11.1,8.1 -13.1,11.8l-1.2 -1.4 0 6 0 0c0,4.1 3.2,8.2 9.5,12.2l-4.4 2.5 -5.9 -2.7 0 6.1 5.3 3.1 10.4 -6c6.5,3.1 13.6,4.5 21.1,4.2 7.5,-0.2 14.1,-2 19.8,-5.3 2.9,-1.7 5.2,-3.4 7,-5.2 1.9,-1.9 3.2,-3.8 3.9,-5.7 0.8,-2 1.3,-3.9 1.5,-5.6 0.2,-1.8 0.2,-3.8 0,-6l-0.9 -7.9c-0.2,-1.6 -0.2,-2.8 -0.2,-3.5 0,-0.7 0.1,-1.7 0.4,-3 0.2,-1.3 0.8,-2.4 1.7,-3.4 1,-1 2.2,-2 3.9,-2.9 1.7,-1 3.6,-1.6 5.9,-1.9 2.2,-0.3 4.2,0.1 5.9,1 0.8,0.5 1.4,0.9 1.8,1.4l0.3 1.1 -9.1 1.8 0 6.2 18.5 8.2c1.5,-0.9 2.9,-1.8 4.1,-2.6 1.1,-0.9 2.4,-1.9 3.7,-3 1.3,-1.2 2.3,-2.3 3.1,-3.4 0.8,-1 1.3,-2.2 1.7,-3.6 0.2,-0.6 0.3,-1.2 0.4,-1.8l0 0 0 -6.5 -2.4 0.5 -0.1 -0.1c-1.2,-1.5 -2.8,-2.9 -4.9,-4.3l9.7 -5.6 0 -6.1z"/>
    <path class="fil16" d="M563.4 2613l10.3 -5.9c-7,-4.5 -10.2,-9 -9.4,-13.6 0.7,-4.7 5.5,-9.6 14.2,-15l18.7 7.9c-5.3,3.2 -8.5,5.8 -9.7,7.9 -1.3,2.1 -0.6,3.9 1.8,5.3 3.2,1.8 6.9,1.6 11,-0.8 2.3,-1.3 4.1,-2.8 5.2,-4.4 1.1,-1.6 1.8,-3.2 1.9,-4.7 0.2,-1.5 0.1,-3.4 -0.2,-5.7l-1 -8.2c-0.3,-1.9 -0.3,-3.7 -0.2,-5.1 0.1,-1.5 0.5,-3 1.1,-4.8 0.7,-1.7 1.8,-3.3 3.5,-4.9 1.6,-1.6 3.8,-3.2 6.4,-4.7 6.7,-3.8 13.8,-5.8 21.5,-5.8 7.6,0 15,1.7 22.2,5.2l9.8 -5.6 5.4 3.1 -9.7 5.6c2.1,1.4 3.7,2.8 4.9,4.2 1.2,1.5 2,2.8 2.3,4.1 0.3,1.2 0.2,2.5 -0.2,3.9 -0.4,1.3 -0.9,2.5 -1.7,3.6 -0.8,1.1 -1.8,2.2 -3.1,3.3 -1.3,1.2 -2.6,2.2 -3.7,3 -1.2,0.8 -2.6,1.7 -4.1,2.7l-18.5 -8.3c1.4,-0.8 2.6,-1.5 3.4,-2.1 0.9,-0.6 1.9,-1.2 2.8,-1.9 0.9,-0.7 1.6,-1.3 2,-1.8 0.4,-0.6 0.7,-1.1 0.9,-1.6 0.2,-0.6 0.1,-1.1 -0.3,-1.6 -0.4,-0.5 -1,-1 -1.8,-1.4 -1.7,-1 -3.7,-1.3 -5.9,-1 -2.3,0.3 -4.2,0.9 -5.9,1.9 -1.7,0.9 -2.9,1.9 -3.9,2.9 -0.9,1 -1.5,2.1 -1.7,3.4 -0.3,1.3 -0.4,2.3 -0.4,3 0,0.7 0,1.8 0.2,3.4l0.9 8c0.2,2.1 0.2,4.1 0,5.9 -0.2,1.8 -0.7,3.7 -1.5,5.6 -0.7,2 -2,3.9 -3.9,5.7 -1.8,1.9 -4.1,3.6 -7,5.2 -5.7,3.3 -12.3,5.1 -19.8,5.4 -7.5,0.2 -14.6,-1.2 -21.1,-4.2l-10.4 6 -5.3 -3.1z"/>
   </g>
   <path class="fil29" d="M3250.8 1893.1l-1.5 -302.5 -637.6 -12.5 1.4 297.1c-2.3,7 0.7,14.2 9.3,19.2l289.2 171.1c15,8.9 41.3,8.1 58.9,-1.8l265.8 -149.8c10.4,-5.9 15.3,-13.6 14.5,-20.8z"/>
   <path class="fil30" d="M2936.4 1765.6c-9.8,0 -19.2,-2 -26.2,-6.1l-289.3 -171.1c-15,-8.9 -12.9,-24 4.6,-33.9l34.7 -19.5 241.4 -127.7c6.9,4.1 16.3,6.1 26.2,6.1 11.3,0 23.2,-2.7 32.6,-7.9l241.3 146.2 37.8 22.3c14.9,8.8 12.9,24 -4.6,33.9l-265.9 149.8c-9.3,5.2 -21.2,7.9 -32.6,7.9z"/>
   <path class="fil12" d="M2713 1778.2l-36.9 -21.4c-2.5,-1.4 -4.6,-5.3 -4.6,-8.6l0.1 -59.8c0,-3.3 2,-4.9 4.5,-3.4l37 21.3c2.4,1.5 4.5,5.3 4.5,8.7l-0.1 59.8c0,3.3 -2,4.8 -4.5,3.4z"/>
   <path class="fil12" d="M2779 1816.5l-36.9 -21.4c-2.5,-1.5 -4.5,-5.3 -4.5,-8.6l0 -59.9c0,-3.3 2,-4.8 4.5,-3.4l37 21.4c2.5,1.5 4.5,5.3 4.5,8.6l0 59.9c-0.1,3.3 -2.1,4.8 -4.6,3.4z"/>
   <path class="fil12" d="M2845.1 1854.7l-37 -21.3c-2.5,-1.5 -4.5,-5.3 -4.5,-8.7l0 -59.8c0,-3.3 2,-4.8 4.5,-3.4l37 21.4c2.5,1.4 4.5,5.3 4.5,8.6l0 59.8c0,3.4 -2,4.9 -4.5,3.4z"/>
   <path class="fil12" d="M2713 1872.5l-36.9 -21.4c-2.5,-1.4 -4.6,-5.3 -4.6,-8.6l0.1 -59.8c0,-3.3 2,-4.9 4.5,-3.4l37 21.4c2.4,1.4 4.5,5.3 4.5,8.6l-0.1 59.8c0,3.3 -2,4.8 -4.5,3.4z"/>
   <path class="fil12" d="M2779 1910.8l-36.9 -21.4c-2.5,-1.4 -4.5,-5.3 -4.5,-8.6l0 -59.8c0,-3.4 2,-4.9 4.5,-3.4l37 21.3c2.5,1.5 4.5,5.3 4.5,8.7l0 59.8c-0.1,3.3 -2.1,4.8 -4.6,3.4z"/>
   <path class="fil12" d="M2845.1 1949l-37 -21.3c-2.5,-1.5 -4.5,-5.3 -4.5,-8.7l0 -59.8c0,-3.3 2,-4.8 4.5,-3.4l37 21.4c2.5,1.4 4.5,5.3 4.5,8.6l0 59.8c0,3.4 -2,4.9 -4.5,3.4z"/>
   <path class="fil31" d="M3088 1784.8l0 39 16.8 -9.7c9.9,-5.7 16.1,-9.5 18.5,-11.2 4.4,-3.3 7.8,-7.3 10.3,-12 2.6,-4.8 3.8,-9.9 3.8,-15.4 0,-5.2 -1.1,-8.8 -3.2,-10.8 -2.2,-2 -5.4,-2.2 -9.6,-0.4 -2.6,1.1 -9.8,5.1 -21.9,12l-14.7 8.5zm0 67.1l0 45 23.6 -13.6c9.2,-5.3 15.1,-9 17.5,-11.1 3.8,-3.1 6.9,-7.2 9.3,-12.1 2.4,-5 3.6,-10.4 3.6,-16.4 0,-5.1 -0.9,-8.8 -2.7,-11.3 -1.9,-2.4 -4.5,-3.5 -8,-3.1 -3.5,0.4 -11,3.9 -22.7,10.7l-20.6 11.9zm29.6 79.4l0 -23.2c-3.6,2.2 -7.6,4.6 -12.1,7.2l-6.1 3.4 0 23 -19.2 11.1 0 -23 -17.8 10.3 0.1 -168.7 17.8 -10.2 0 -23 19.3 -11.1 -0.1 23 13.6 -7.8c1.6,-0.9 3.2,-1.8 4.7,-2.6l0 -23.1 19.2 -11.1 0 25.1c4.3,-1.3 8.2,-1.3 11.7,-0.2 3.9,1.3 7.1,4.1 9.7,8.5 2.6,4.3 3.9,10.2 3.9,17.5 0,7.9 -1.6,16 -4.8,24.5 -3.2,8.4 -7.6,15.8 -13,22.3 7.7,-1.5 13.6,0.2 17.7,5.1 4.2,4.8 6.2,12.1 6.2,21.8 0,7.7 -1.3,15.9 -4,24.7 -2.7,8.8 -6.4,16.7 -11,23.7 -4.5,6.9 -10,12.7 -16.5,17.5l0 24.2 -19.3 11.1z"/>
   <path class="fil32" d="M894.6 896.2l-372.5 -220.2c-19.3,-11.4 -16.6,-31 5.9,-43.7l342.2 -192.8c22.6,-12.7 56.5,-13.8 75.8,-2.4l372.4 220.3c19.3,11.4 16.7,30.9 -5.9,43.6l-342.2 192.9c-22.5,12.7 -56.5,13.7 -75.7,2.3z"/>
   <g id="_1438822752">
    <path class="fil33" d="M2937.9 1689.9c-9.8,0 -19.2,-2 -26.2,-6.1l-251.5 -148.8 -2.3 -1.4 -35.5 -20.9c-6.6,-4 -9.9,-9.2 -10,-14.6l0 -130.2c0.4,5.1 3.6,10 10,13.8l289.3 171.1c7,4.1 16.4,6.1 26.2,6.1 11.4,0 23.3,-2.6 32.6,-7.9l265.9 -149.8c9.1,-5.2 14,-11.8 14.5,-18.1l0 129.1c0.4,6.9 -4.5,14.3 -14.5,19.9l-34.7 19.6 -231.2 130.2c-9.3,5.3 -21.2,8 -32.6,8z"/>
    <path class="fil34" d="M2911.9 1551.6l-289.5 -169.9c-15,-8.9 -13.2,-25.6 4.3,-35.4l266.3 -150.1c17.6,-9.9 43.9,-10.7 59,-1.8l289.8 171.4c15,8.8 12.2,25.5 -5.4,35.4l-265.5 148.6c-17.6,9.9 -44,10.7 -59,1.8z"/>
    <animateTransform xmlns="http://www.w3.org/2000/svg" attributeName="transform" type="translate" values="0 0;0 -180;0 0" begin="0s" dur="8s" repeatCount="indefinite"/>
   </g>
   <polygon class="fil35" points="626.6,885 558.1,845.4 123.6,955.1 278.3,1300.3 624.6,979.5 ">
    <animate xmlns="http://www.w3.org/2000/svg" attributeName="fill-opacity" attributeType="CSS" values="1;1;1;0;1;1;1;0;;1;1;1;1;" begin="1s" dur="6s" fill="freeze" repeatCount="indefinite"/>
  </polygon>
   <polygon class="fil35" points="826,1141.2 757.5,1101.5 323,1211.3 477.7,1556.4 824,1235.6 ">
    <animate xmlns="http://www.w3.org/2000/svg" attributeName="fill-opacity" attributeType="CSS" values="1;1;0;1;1;1;0;1;1;1;1;1;" begin="2s" dur="5s" fill="freeze" repeatCount="indefinite"/>
  </polygon>
   <polygon class="fil35" points="624.6,1584.8 556,1545.1 121.6,1654.9 276.2,2000 622.5,1679.2 ">
     <animate xmlns="http://www.w3.org/2000/svg" attributeName="fill-opacity" attributeType="CSS" values="1;1;0;1;1;1;0;1;1;1;1;1;" begin="0.5s" dur="8s" fill="freeze" repeatCount="indefinite"/>
   </polygon>
  </g>
 </g>
</svg>
