<?xml version="1.0" encoding="UTF-8"?>
<!DOCTYPE svg PUBLIC "-//W3C//DTD SVG 1.1//EN" "http://www.w3.org/Graphics/SVG/1.1/DTD/svg11.dtd">
<!-- Creator: CorelDRAW 2019 (64-Bit) -->
<svg xmlns="http://www.w3.org/2000/svg" xml:space="preserve" width="366px" height="343px" version="1.1" style="shape-rendering:geometricPrecision; text-rendering:geometricPrecision; image-rendering:optimizeQuality; fill-rule:evenodd; clip-rule:evenodd"
viewBox="0 0 3660 3423.9"
 xmlns:xlink="http://www.w3.org/1999/xlink"
 xmlns:xodm="http://www.corel.com/coreldraw/odm/2003">
 <defs>
  <style type="text/css">
   <![CDATA[
    .fil1 {fill:#8A8BC3}
    .fil45 {fill:#FFF7D7;fill-rule:nonzero}
    .fil49 {fill:#FDF7E0;fill-rule:nonzero}
    .fil48 {fill:#FDF0CC;fill-rule:nonzero}
    .fil44 {fill:#FDEFC7;fill-rule:nonzero}
    .fil38 {fill:#FDD95D;fill-rule:nonzero}
    .fil47 {fill:#FBECC2;fill-rule:nonzero}
    .fil43 {fill:#FCE180;fill-rule:nonzero}
    .fil37 {fill:#F8C121;fill-rule:nonzero}
    .fil46 {fill:#F9E7B9;fill-rule:nonzero}
    .fil17 {fill:#F5E9E5;fill-rule:nonzero}
    .fil42 {fill:#F5C430;fill-rule:nonzero}
    .fil41 {fill:#F3B605;fill-rule:nonzero}
    .fil39 {fill:#E7A513;fill-rule:nonzero}
    .fil14 {fill:#DCD1E8;fill-rule:nonzero}
    .fil20 {fill:#9F92C6;fill-rule:nonzero}
    .fil16 {fill:#9F8FC3;fill-rule:nonzero}
    .fil8 {fill:#8A8BC3;fill-rule:nonzero}
    .fil40 {fill:#6E6441;fill-rule:nonzero}
    .fil36 {fill:#6769AD;fill-rule:nonzero}
    .fil50 {fill:#4A6396;fill-rule:nonzero}
    .fil15 {fill:#52559F;fill-rule:nonzero}
    .fil11 {fill:#414E9A;fill-rule:nonzero}
    .fil51 {fill:url(#id3)}
    .fil4 {fill:url(#id4)}
    .fil0 {fill:url(#id5)}
    .fil3 {fill:url(#id6)}
    .fil2 {fill:url(#id7)}
    .fil52 {fill:url(#id8)}
    .fil29 {fill:url(#id9)}
    .fil9 {fill:url(#id10)}
    .fil21 {fill:url(#id11)}
    .fil26 {fill:url(#id12)}
    .fil34 {fill:url(#id13)}
    .fil13 {fill:url(#id14)}
    .fil33 {fill:url(#id15)}
    .fil18 {fill:url(#id16)}
    .fil7 {fill:url(#id17)}
    .fil22 {fill:url(#id18)}
    .fil6 {fill:url(#id19)}
    .fil23 {fill:url(#id20)}
    .fil35 {fill:url(#id21)}
    .fil31 {fill:url(#id22)}
    .fil10 {fill:url(#id23)}
    .fil32 {fill:url(#id24)}
    .fil27 {fill:url(#id25)}
    .fil24 {fill:url(#id26)}
    .fil28 {fill:url(#id27)}
    .fil5 {fill:url(#id28)}
    .fil12 {fill:url(#id29)}
    .fil30 {fill:url(#id30)}
    .fil25 {fill:url(#id31)}
    .fil19 {fill:url(#id32)}
   ]]>
  </style>
     <clipPath id="id0">
      <path d="M3299.9 3186.2l-94.1 -54.3 0 -14.7 94.1 54.3 0 14.7 0 0z"/>
     </clipPath>
    <clipPath id="id1">
     <path d="M815.3 731.3l-0.1 0 0 -42.4c0,-2.5 0.2,-4.9 0.4,-7.2 0.2,-1.3 0.4,-2.6 0.7,-3.8 -0.7,3.4 -1,7.1 -1,11.1l0 42.3 0 0z"/>
    </clipPath>
    <clipPath id="id2">
     <path d="M948.7 1557.4l-94.2 -54.4c-22.1,-12.9 -40,-47.2 -39.9,-76.8l0.4 -695 0.2 0 -0.4 693.8c0,10.7 2.3,22.1 6.4,32.7 7,18.9 19.4,35.8 33.5,44l94 54.5 0 1.2 0 0z"/>
    </clipPath>
  <linearGradient id="id3" gradientUnits="userSpaceOnUse" x1="956.1" y1="674" x2="956.1" y2="1529.3">
   <stop offset="0" style="stop-opacity:1; stop-color:#6DC5CD"/>
   <stop offset="1" style="stop-opacity:1; stop-color:#38529E"/>
  </linearGradient>
  <linearGradient id="id4" gradientUnits="userSpaceOnUse" x1="1039" y1="1824.7" x2="1718.7" y2="1824.7">
   <stop offset="0" style="stop-opacity:0; stop-color:#7F7BB8"/>
   <stop offset="1" style="stop-opacity:0.298039; stop-color:#7F7BB8"/>
  </linearGradient>
  <linearGradient id="id5" gradientUnits="userSpaceOnUse" x1="2325" y1="1883.3" x2="3209.8" y2="1883.3">
   <stop offset="0" style="stop-opacity:1; stop-color:#F3E4F1"/>
   <stop offset="1" style="stop-opacity:1; stop-color:#C3A7CF"/>
  </linearGradient>
  <linearGradient id="id6" gradientUnits="userSpaceOnUse" xlink:href="#id4" x1="1872.1" y1="2882.5" x2="2776" y2="2882.5">
  </linearGradient>
  <linearGradient id="id7" gradientUnits="userSpaceOnUse" xlink:href="#id4" x1="169.6" y1="1336.8" x2="1905.3" y2="1336.8">
  </linearGradient>
  <linearGradient id="id8" gradientUnits="objectBoundingBox" x1="0%" y1="50%" x2="99.9994%" y2="50%">
   <stop offset="0" style="stop-opacity:0; stop-color:#FFED00"/>
   <stop offset="0.439216" style="stop-opacity:0; stop-color:#FFED00"/>
   <stop offset="1" style="stop-opacity:0.337255; stop-color:#FFED00"/>
  </linearGradient>
  <linearGradient id="id9" gradientUnits="userSpaceOnUse" x1="1734.7" y1="1461.9" x2="1635.5" y2="1461.9">
   <stop offset="0" style="stop-opacity:1; stop-color:#7F7BB8"/>
   <stop offset="1" style="stop-opacity:1; stop-color:#9F8FC3"/>
  </linearGradient>
  <linearGradient id="id10" gradientUnits="userSpaceOnUse" xlink:href="#id9" x1="2829.4" y1="2512" x2="2706.9" y2="2512">
  </linearGradient>
  <linearGradient id="id11" gradientUnits="userSpaceOnUse" x1="882" y1="1521.6" x2="951.9" y2="836.6">
   <stop offset="0" style="stop-opacity:1; stop-color:#3B519D"/>
   <stop offset="1" style="stop-opacity:1; stop-color:#6FC4C1"/>
  </linearGradient>
  <linearGradient id="id12" gradientUnits="userSpaceOnUse" x1="1658.1" y1="1378.9" x2="1745.5" y2="777.5">
   <stop offset="0" style="stop-opacity:1; stop-color:#4957A1"/>
   <stop offset="1" style="stop-opacity:1; stop-color:#70C7DA"/>
  </linearGradient>
  <linearGradient id="id13" gradientUnits="userSpaceOnUse" x1="2279" y1="1724.9" x2="1424.8" y2="1157.3">
   <stop offset="0" style="stop-opacity:1; stop-color:#614B98"/>
   <stop offset="1" style="stop-opacity:1; stop-color:#FEF7F1"/>
  </linearGradient>
  <linearGradient id="id14" gradientUnits="userSpaceOnUse" x1="3189.6" y1="2652.7" x2="3254.9" y2="2594.2">
   <stop offset="0" style="stop-opacity:1; stop-color:#6E6CAF"/>
   <stop offset="1" style="stop-opacity:1; stop-color:#52559F"/>
  </linearGradient>
  <linearGradient id="id15" gradientUnits="userSpaceOnUse" xlink:href="#id13" x1="2806.1" y1="2149" x2="1518.3" y2="1213.5">
  </linearGradient>
  <linearGradient id="id16" gradientUnits="userSpaceOnUse" xlink:href="#id13" x1="4756.5" y1="3327.9" x2="2247.6" y2="1505.4">
  </linearGradient>
  <linearGradient id="id17" gradientUnits="userSpaceOnUse" x1="5204.7" y1="-510.8" x2="-2332" y2="5532.6">
   <stop offset="0" style="stop-opacity:1; stop-color:#8AADDC"/>
   <stop offset="0.470588" style="stop-opacity:1; stop-color:#8B8DC4"/>
   <stop offset="1" style="stop-opacity:1; stop-color:#7066AA"/>
  </linearGradient>
  <linearGradient id="id18" gradientUnits="userSpaceOnUse" x1="1001.8" y1="1296.6" x2="1052.3" y2="1373.1">
   <stop offset="0" style="stop-opacity:1; stop-color:#60529C"/>
   <stop offset="1" style="stop-opacity:1; stop-color:#CEC0DF"/>
  </linearGradient>
  <linearGradient id="id19" gradientUnits="userSpaceOnUse" xlink:href="#id17" x1="4585" y1="4133.9" x2="-2891.8" y2="-1909.5">
  </linearGradient>
  <linearGradient id="id20" gradientUnits="userSpaceOnUse" x1="799.9" y1="1569.8" x2="869.7" y2="884.9">
   <stop offset="0" style="stop-opacity:1; stop-color:#5956A0"/>
   <stop offset="1" style="stop-opacity:1; stop-color:#9F92C6"/>
  </linearGradient>
  <linearGradient id="id21" gradientUnits="userSpaceOnUse" x1="1695.2" y1="1287.3" x2="1636.2" y2="1287.3">
   <stop offset="0" style="stop-opacity:1; stop-color:#AC96C7"/>
   <stop offset="1" style="stop-opacity:1; stop-color:#C1A9D1"/>
  </linearGradient>
  <linearGradient id="id22" gradientUnits="userSpaceOnUse" x1="2279" y1="1725" x2="1424.8" y2="1157.2">
   <stop offset="0" style="stop-opacity:1; stop-color:#4F4D99"/>
   <stop offset="1" style="stop-opacity:1; stop-color:#FFF5E1"/>
  </linearGradient>
  <linearGradient id="id23" gradientUnits="userSpaceOnUse" xlink:href="#id22" x1="4756.5" y1="3313.9" x2="2247.6" y2="1491.3">
  </linearGradient>
  <linearGradient id="id24" gradientUnits="userSpaceOnUse" xlink:href="#id9" x1="1695.2" y1="1287.3" x2="1636.2" y2="1287.3">
  </linearGradient>
  <linearGradient id="id25" gradientUnits="userSpaceOnUse" xlink:href="#id9" x1="1734.8" y1="1779.9" x2="1635.8" y2="1779.9">
  </linearGradient>
  <linearGradient id="id26" gradientUnits="userSpaceOnUse" x1="881.8" y1="1522.9" x2="951.8" y2="837.8">
   <stop offset="0" style="stop-opacity:1; stop-color:#6F68AC"/>
   <stop offset="1" style="stop-opacity:1; stop-color:#80CFF4"/>
  </linearGradient>
  <linearGradient id="id27" gradientUnits="userSpaceOnUse" xlink:href="#id22" x1="2730.2" y1="2567.1" x2="1511" y2="1249.4">
  </linearGradient>
  <linearGradient id="id28" gradientUnits="userSpaceOnUse" xlink:href="#id17" x1="4614.3" y1="4360.4" x2="-2922.4" y2="-1683.1">
  </linearGradient>
  <linearGradient id="id29" gradientUnits="userSpaceOnUse" xlink:href="#id14" x1="3201.2" y1="2875.8" x2="3267.6" y2="2816.3">
  </linearGradient>
  <linearGradient id="id30" gradientUnits="userSpaceOnUse" xlink:href="#id22" x1="2805.7" y1="2149" x2="1518.2" y2="1213.5">
  </linearGradient>
  <linearGradient id="id31" gradientUnits="userSpaceOnUse" xlink:href="#id26" x1="881.4" y1="1523" x2="950.9" y2="838">
  </linearGradient>
  <linearGradient id="id32" gradientUnits="userSpaceOnUse" x1="1337" y1="665.6" x2="1279.6" y2="564.6">
   <stop offset="0" style="stop-opacity:1; stop-color:#6E6BAE"/>
   <stop offset="1" style="stop-opacity:1; stop-color:#CEC0DF"/>
  </linearGradient>
 </defs>
 <g id="Layer_x0020_1">
  <metadata id="CorelCorpID_0Corel-Layer"/>
  <g id="_1430206560">
   <path class="fil0" d="M2739.8 2131.5l-400.9 -238.1c-20.8,-12.4 -17.9,-33.5 6.3,-47.2l368.4 -208.5c24.3,-13.8 60.7,-14.9 81.5,-2.6l400.9 238.2c20.7,12.3 17.9,33.4 -6.4,47.2l-368.4 208.5c-24.2,13.7 -60.7,14.9 -81.4,2.5z"/>
   <path class="fil1" d="M2789.5 2413.1c-9.4,0 -19.3,2.3 -26.9,6.7l-782 451.4c-6.2,3.6 -9.9,8.2 -9.9,12.1 0,3.8 3.3,6.5 6.1,8.1l789.6 455.9c11.6,6.7 33,5.7 46.7,-2.2l782 -451.5c6.2,-3.5 10,-8.1 10,-12.1 0,-3.7 -3.4,-6.5 -6.2,-8.1l-789.5 -455.8c-5.2,-3 -12.4,-4.5 -19.9,-4.5zm-3.2 950.5c-9.6,0 -18.8,-2.1 -25.8,-6.1l-789.6 -455.8c-7.7,-4.5 -12,-11 -12,-18.4 0,-8.3 5.8,-16.4 15.8,-22.3l782 -451.4c17.5,-10.1 43.2,-11 58.5,-2.2l789.6 455.8c7.7,4.5 12,11 12,18.3 0,8.4 -5.8,16.5 -15.8,22.4l-782 451.4c-9.4,5.5 -21.3,8.3 -32.7,8.3z"/>
   <polygon class="fil2" points="1073.6,1681.6 169.6,1681.6 175.4,991.9 1905.3,1010.1 "/>
   <rect class="fil3" x="1872.2" y="2605.3" width="903.9" height="554.2"/>
   <rect class="fil4" x="1039" y="1629.2" width="679.7" height="390.9"/>
   <path class="fil5" d="M1166.7 2011.5c-23.5,0 -47,3.4 -69.9,10.2 -57.6,17.1 -92,49.7 -92,87.1 0,37.4 34.4,70 92,87.2 22.9,6.8 46.4,10.2 69.9,10.2 23.5,0 47,-3.4 69.8,-10.2 57.7,-17.2 92.1,-49.8 92.1,-87.2 0,-18.5 -8.5,-35.8 -23.9,-50.7l-7.7 4.5c-1,0.6 -2.1,0.9 -3.2,0.9 -1,0 -2,-0.2 -2.9,-0.7 16.1,13.4 24.9,29.2 24.9,46 0,31.5 -31,59.5 -82.9,74.9 -21.7,6.4 -44,9.7 -66.2,9.7 -22.3,0 -44.6,-3.3 -66.2,-9.7 -52,-15.4 -83,-43.4 -83,-74.9 0,-31.5 31,-59.5 83,-74.9 21.6,-6.4 43.9,-9.7 66.2,-9.7 22.2,0 44.5,3.3 66.2,9.7 23.1,6.9 42,16.2 55.9,27.2 -0.2,-0.2 -0.4,-0.5 -0.5,-0.8 -1.8,-3 -0.8,-6.9 2.2,-8.7l3.9 -2.2c-15,-11.3 -34.5,-20.8 -57.9,-27.7 -22.8,-6.8 -46.3,-10.2 -69.8,-10.2z"/>
   <path class="fil6" d="M1504.2 1927.7c-1.1,0 -2.2,0.2 -3.2,0.8l-9.5 5.6 -201 117.5 -3.8 2.2c-3,1.8 -4,5.7 -2.3,8.8 0.2,0.2 0.4,0.5 0.6,0.7 0.6,0.8 1.3,1.3 2.1,1.7 0.8,0.5 1.8,0.7 2.8,0.7 1.1,0 2.2,-0.3 3.3,-0.9l7.6 -4.5 203.4 -118.9 3.2 -1.8c3.1,-1.8 4.1,-5.7 2.3,-8.8 -0.5,-0.8 -1.2,-1.6 -2,-2.1 -0.2,-0.1 -0.4,-0.2 -0.6,-0.4 -0.9,-0.4 -1.9,-0.6 -2.9,-0.6z"/>
   <g>
    <path class="fil7" d="M3505 3308.3l-211.5 0c-3.5,0 -6.4,-2.8 -6.4,-6.4l0 -109 33.7 -19.5 184.2 0c3.5,0 6.4,2.9 6.4,6.4l0 122.1c0,3.6 -2.9,6.4 -6.4,6.4zm-205.1 -122.1l0 109.4 198.7 0 0 -109.4 -198.7 0z"/>
    <g style="clip-path:url(#id0)">
     <image x="3196.6" y="3110.8" width="113.4" height="83.9" xlink:href="promo-d4_Images\promo-d4_ImgID1.png"/>
    </g>
   </g>
   <g>
    <path class="fil8" d="M743.2 955.2c-7.7,0 -15.4,2 -22.3,6l-270.9 156.4c-3.1,1.8 -5,5 -5,8.6 0,3.5 1.9,6.8 5,8.6l270.9 156.4c13.8,7.9 30.9,7.9 44.7,0l270.9 -156.4c3.1,-1.8 4.9,-5 4.9,-8.6 0,-3.6 -1.8,-6.8 -4.9,-8.6l-271 -156.4c-6.9,-4 -14.6,-6 -22.3,-6zm0 351.6c-9.4,0 -18.8,-2.4 -27.1,-7.2l-271 -156.5c-6.1,-3.5 -9.8,-9.8 -9.8,-16.9 0,-7.1 3.7,-13.5 9.8,-17l270.9 -156.4c16.8,-9.7 37.6,-9.7 54.4,0l270.9 156.4c6.2,3.5 9.8,9.9 9.8,17 0,7.1 -3.6,13.4 -9.8,16.9l-270.9 156.5c-8.4,4.8 -17.8,7.2 -27.2,7.2z"/>
    <path class="fil8" d="M344.3 1176.9c-9,0 -18,2.3 -26,7l-80.3 46c-4,2.3 -6.4,6.4 -6.4,11 0,4.6 2.4,8.7 6.4,11l263.1 151.9c16,9.3 35.9,9.2 51.9,0l80.3 -46c4,-2.3 6.4,-6.4 6.4,-11 0,-4.6 -2.4,-8.7 -6.4,-11l-263.1 -151.9c-8,-4.7 -17,-7 -25.9,-7zm182.8 243.5c-10.7,0 -21.3,-2.7 -30.8,-8.2l-263.2 -151.9c-7,-4.1 -11.2,-11.3 -11.2,-19.4 0,-8.1 4.2,-15.4 11.2,-19.4l80.4 -46c19,-11 42.6,-11 61.6,0l263.1 151.9c7,4 11.2,11.3 11.2,19.4 0,8.1 -4.2,15.3 -11.2,19.4l-80.4 46c-9.5,5.5 -20.1,8.2 -30.7,8.2z"/>
    <path class="fil8" d="M148.7 1298.7c-9,0 -18,2.3 -26,6.9l-80.3 46c-4,2.3 -6.4,6.4 -6.4,11 0,4.6 2.4,8.8 6.4,11.1l263.1 151.9c16,9.2 35.9,9.2 51.9,0l80.3 -46c4,-2.3 6.4,-6.4 6.4,-11 0,-4.6 -2.4,-8.8 -6.4,-11.1l-263.1 -151.9c-8,-4.6 -17,-6.9 -25.9,-6.9zm182.7 243.5c-10.6,0 -21.3,-2.7 -30.7,-8.2l-263.2 -151.9c-7,-4.1 -11.2,-11.4 -11.2,-19.5 0,-8.1 4.2,-15.3 11.2,-19.4l80.4 -46c19,-10.9 42.6,-10.9 61.6,0l263.1 151.9c7,4.1 11.2,11.4 11.2,19.5 0,8.1 -4.2,15.3 -11.2,19.4l-80.4 46c-9.5,5.5 -20.1,8.2 -30.8,8.2z"/>
   </g>
   <path class="fil9" d="M2776 3159.6c-13.6,0 -26.7,-2.9 -36.4,-8.6 -143,-84.5 -274.6,-167.4 -415,-257.2l-0.1 -614.2 0 -400.3c2,4.9 6.2,9.5 12.5,13.2l402.4 238c9.7,5.7 22.8,8.5 36.5,8.5 15.8,0 32.3,-3.7 45.3,-11.1l369.8 -208.3c11.8,-6.6 18.5,-15 20,-23.2l0 897.1 0 117.8c1.2,10 -5.6,20.8 -20.1,28.9l-369.5 208.3c-13.1,7.3 -29.6,11.1 -45.4,11.1z"/>
   <path class="fil10" d="M2775.8 1883.8c-13.7,0 -26.8,-2.8 -36.5,-8.5l-230.7 -136.4 230.7 136.4c9.7,5.7 22.8,8.5 36.5,8.5 15.7,0 32.3,-3.7 45.3,-11l204.6 -115.4 0.1 0 -204.7 115.4c-13,7.3 -29.6,11 -45.3,11z"/>
   <g>
    <polygon class="fil11" points="3113.2,3154.1 2983.7,3080.6 2983.8,3004.3 3113.2,3077.7 "/>
    <polygon class="fil11" points="3237.4,3082.4 3113.2,3013 3237.5,3005.7 "/>
    <polygon class="fil12" points="3139.1,2819 3139,2968.6 3276.5,2920.8 3362,2782.8 3283.3,2718.2 "/>
    <polygon class="fil13" points="3139.3,2596.5 3139.2,2725.9 3303,2652.4 3329.4,2524.5 3250.5,2505.6 "/>
    <polygon class="fil14" points="2925.1,2478.8 2984.1,2444.8 3113.6,2518.2 3054.6,2552.2 "/>
    <polygon class="fil14" points="3237.8,2446.9 3108.4,2373.5 3047.9,2408 3177.4,2481.4 "/>
    <polygon class="fil14" points="3340.3,2416.1 3216.7,2345.1 3177.5,2386.8 3310.3,2441.9 "/>
    <polygon class="fil15" points="2984.2,2368.4 3113.6,2441.9 3113.6,2518.2 2984.1,2444.8 "/>
    <polygon class="fil15" points="3108.4,2296.8 3237.9,2370.2 3237.8,2446.9 3108.4,2373.5 "/>
    <polygon class="fil14" points="3172.3,2260 3301.7,2333.4 3237.9,2370.2 3108.4,2296.8 "/>
    <polygon class="fil14" points="3048,2331.6 3177.5,2405.1 3113.6,2441.9 2984.2,2368.4 "/>
    <path class="fil16" d="M3139.3 2596.5l-0.1 129.4 55.5 -32c33,-19.1 53.6,-31.6 61.6,-37.5 14.5,-10.6 25.9,-23.9 34.3,-39.7 8.3,-15.9 12.4,-32.8 12.4,-50.9 0,-17.3 -3.5,-29.3 -10.7,-36 -7.1,-6.7 -17.8,-7.1 -31.9,-1.2 -8.4,3.5 -32.6,16.8 -72.5,39.8l-48.6 28.1zm-0.2 222.5l-0.1 149.6 78.5 -45.2c30.5,-17.6 49.9,-29.9 58.1,-37 12.6,-10.3 22.9,-23.6 30.8,-40 7.9,-16.4 11.9,-34.6 11.9,-54.4 0,-16.8 -3,-29.3 -9.1,-37.5 -6.1,-8.2 -14.9,-11.6 -26.5,-10.3 -11.5,1.3 -36.6,13.1 -75.1,35.3l-68.5 39.5zm98.3 263.4l0.1 -76.7c-12.1,7.2 -25.5,15.1 -40.4,23.7l-20.1 11.5 0 76.4 -63.8 36.8 0 -76.4 -59 34.1 0.4 -559.6 59 -34 0 -76.3 63.9 -36.8 -0.1 76.3 45 -25.9c5.3,-3.1 10.5,-5.9 15.4,-8.6l0.1 -76.7 63.8 -36.8 0 83.2c14.3,-4.2 27.2,-4.3 38.6,-0.5 13,4.2 23.8,13.6 32.4,28.1 8.5,14.5 12.8,33.8 12.8,58 0,26.2 -5.3,53.3 -15.9,81.3 -10.6,28 -25,52.7 -43.2,74.1 25.6,-4.8 45.3,0.8 59,16.7 13.7,16.1 20.6,40.2 20.6,72.5 -0.1,25.4 -4.5,52.8 -13.4,81.9 -8.9,29.2 -21.1,55.5 -36.6,78.9 -14.9,22.6 -33.1,41.9 -54.7,57.9l0 80.1 -63.9 36.8z"/>
    <polygon class="fil15" points="2925.1,2478.8 3054.6,2552.2 3054.2,3111.8 2924.8,3038.3 "/>
    <animateTransform xmlns="http://www.w3.org/2000/svg" attributeName="transform" type="translate" values="0 0;0 -180;0 0" begin="0s" dur="15s" repeatCount="indefinite"/>
   </g>
   <path class="fil17" d="M2441 2196.6l-59.5 -34.5c-4,-2.3 -7.2,-8.5 -7.2,-13.9l0 -96.3c0,-5.3 3.3,-7.8 7.3,-5.5l59.5 34.4c4,2.4 7.3,8.6 7.3,13.9l-0.1 96.4c0,5.3 -3.2,7.8 -7.3,5.5z"/>
   <path class="fil17" d="M2547.4 2258.2l-59.6 -34.5c-4,-2.3 -7.2,-8.5 -7.2,-13.8l0 -96.4c0,-5.3 3.3,-7.8 7.3,-5.4l59.5 34.4c4,2.3 7.3,8.5 7.3,13.9l-0.1 96.3c0,5.3 -3.2,7.8 -7.2,5.5z"/>
   <path class="fil17" d="M2653.7 2319.8l-59.5 -34.4c-4,-2.3 -7.3,-8.6 -7.3,-13.9l0 -96.3c0,-5.4 3.3,-7.8 7.3,-5.5l59.5 34.4c4.1,2.3 7.3,8.5 7.3,13.9l-0.1 96.3c0,5.4 -3.2,7.8 -7.2,5.5z"/>
   <path class="fil17" d="M2441 2348.4l-59.5 -34.4c-4,-2.3 -7.2,-8.5 -7.2,-13.9l0 -96.3c0,-5.4 3.3,-7.8 7.3,-5.5l59.5 34.4c4,2.3 7.3,8.6 7.3,13.9l-0.1 96.4c0,5.3 -3.2,7.8 -7.3,5.4z"/>
   <path class="fil17" d="M2547.4 2410.1l-59.6 -34.5c-4,-2.3 -7.2,-8.5 -7.2,-13.9l0 -96.3c0,-5.3 3.3,-7.8 7.3,-5.5l59.5 34.5c4,2.3 7.3,8.5 7.3,13.8l-0.1 96.4c0,5.3 -3.2,7.8 -7.2,5.5z"/>
   <path class="fil17" d="M2653.7 2471.7l-59.5 -34.4c-4,-2.4 -7.3,-8.6 -7.3,-13.9l0 -96.4c0,-5.3 3.3,-7.8 7.3,-5.5l59.5 34.5c4.1,2.3 7.3,8.5 7.3,13.9l-0.1 96.3c0,5.3 -3.2,7.8 -7.2,5.5z"/>
   <path class="fil17" d="M2547.4 2561.9l-59.6 -34.4c-4,-2.3 -7.2,-8.5 -7.2,-13.9l0 -96.3c0,-5.3 3.3,-7.8 7.3,-5.5l59.5 34.4c4,2.4 7.3,8.6 7.3,13.9l-0.1 96.4c0,5.3 -3.2,7.8 -7.2,5.4z"/>
   <path class="fil17" d="M2441 2652.2l-59.5 -34.4c-4,-2.4 -7.2,-8.6 -7.2,-13.9l0 -96.4c0,-5.3 3.3,-7.8 7.3,-5.4l59.5 34.4c4,2.3 7.3,8.5 7.3,13.9l-0.1 96.3c0,5.3 -3.2,7.8 -7.3,5.5z"/>
   <path class="fil17" d="M2653.7 2927.3l-59.5 -34.4c-4,-2.3 -7.3,-8.5 -7.3,-13.9l0 -96.3c0,-5.4 3.3,-7.8 7.3,-5.5l59.5 34.4c4.1,2.3 7.3,8.5 7.3,13.9l-0.1 96.3c0,5.4 -3.2,7.9 -7.2,5.5z"/>
   <path class="fil18" d="M2775.8 1897.9c-13.7,0 -26.8,-2.8 -36.5,-8.5l-230.7 -136.4 204.7 -115.4c13.1,-7.3 29.6,-11 45.3,-11 13.7,0 26.8,2.8 36.5,8.5l230.6 136.4 -204.6 115.3c-13,7.4 -29.6,11.1 -45.3,11.1z"/>
   <path class="fil19" d="M1894.2 192.4l-212.7 -123.3c-15,-8.7 -28.8,-9.6 -39.6,-4l-0.5 0.3 -862.1 496.7 294.3 1119.5 857.6 -494.2c14.5,-6.8 23.9,-25.1 23.9,-51.6l1.5 -823.7c0,-46.1 -27.9,-99.7 -62.4,-119.7z"/>
   <path class="fil20" d="M1033.5 1677.8l-212.7 -123.3c-34.5,-20 -62.4,-73.5 -62.4,-119.6l1.5 -823.8c0.1,-46 28.1,-67.2 62.7,-47.2l212.6 123.4c34.6,20 62.5,73.5 62.4,119.6l-1.5 823.7c0,46.1 -28.1,67.2 -62.6,47.2z"/>
   <path class="fil21" d="M1030.9 1530.6l-0.2 0 0.5 -715.1c0,-29.5 -17.8,-63.8 -39.9,-76.6l-109.8 -63.6 0 -1.3 -26.1 -15.2c-5.7,-3.2 -11.1,-4.8 -16,-4.8 -11.5,0 -20.3,8.7 -23.1,23.9 -0.3,1.2 -0.5,2.5 -0.7,3.8 2,-17.6 11.2,-27.9 23.8,-27.9 4.9,0 10.3,1.6 15.9,4.9l136.1 78.9c22.1,12.8 40,47.1 39.9,76.6l-0.4 716.4z"/>
   <path class="fil22" d="M1029.8 1562.3c0.6,-3.3 0.9,-6.9 0.9,-10.7l0 -21 0.2 0 0 0.1 0 19.7c0,4.4 -0.4,8.3 -1.1,11.9zm-213.5 -884.4c2.8,-15.2 11.6,-23.9 23.1,-23.9 4.9,0 10.3,1.6 16,4.8l26.1 15.2 0 1.3 -26.4 -15.3c-5.6,-3.3 -11,-4.8 -15.9,-4.8 -11.3,0 -19.9,8.3 -22.9,22.7z"/>
   <path class="fil23" d="M941.7 1624.6l-120.9 -70.1c-34.5,-20 -62.4,-73.5 -62.4,-119.6l1.3 -732.7c4.2,0.4 8.7,2 13.4,4.7l41.9 24.3 -0.4 695.1c-0.1,29.5 17.8,63.8 39.9,76.6l94.2 54.6 0 41c0,11.2 -2.6,20.1 -7,26.1z"/>
   <path class="fil24" d="M1006.5 1586.6c-4.9,0 -10.2,-1.5 -15.9,-4.8l-41.9 -24.3 0 -1.3 42.1 24.4c5.7,3.3 11.1,4.9 16,4.9 11.4,0 20,-8.5 23,-23.2 -2.8,15.4 -11.6,24.3 -23.3,24.3z"/>
   <path class="fil25" d="M815.2 731.3l-0.2 -0.1 0.1 -41c0,-3 0.1,-5.8 0.5,-8.5 -0.2,2.3 -0.4,4.7 -0.4,7.2l0 42.4z"/>
   <g style="clip-path:url(#id1)">
    <image x="801.3" y="667.9" width="27.4" height="74.7" xlink:href="promo-d4_Images\promo-d4_ImgID2.png"/>
   </g>
   <g style="clip-path:url(#id2)">
    <image x="801.3" y="716.9" width="155.8" height="853.8" xlink:href="promo-d4_Images\promo-d4_ImgID3.png"/>
   </g>
   <path class="fil26" d="M1724.6 554.3l-0.1 69.2 29.7 -17.1c17.7,-10.2 28.7,-16.8 32.9,-20 7.8,-5.7 13.9,-12.8 18.4,-21.3 4.4,-8.4 6.6,-17.5 6.6,-27.2 0,-9.2 -1.9,-15.6 -5.7,-19.2 -3.8,-3.6 -9.5,-3.8 -17.1,-0.7 -4.4,1.9 -17.4,9 -38.7,21.3l-26 15zm-0.1 119l0 80 41.9 -24.2c16.3,-9.4 26.7,-16 31.1,-19.8 6.7,-5.5 12.2,-12.6 16.5,-21.4 4.2,-8.8 6.3,-18.4 6.3,-29.1 0,-8.9 -1.6,-15.6 -4.9,-20 -3.2,-4.3 -8,-6.2 -14.1,-5.5 -6.2,0.7 -19.6,7 -40.2,18.9l-36.6 21.1zm52.6 140.8l0 -41c-6.4,3.8 -13.6,8.1 -21.6,12.6l-10.7 6.2 0 40.8 -34.2 19.7 0.1 -40.8 -31.6 18.2 0.2 -299.1 31.6 -18.2 0 -40.8 34.1 -19.7 0 40.8 24 -13.8c2.9,-1.7 5.6,-3.2 8.3,-4.6l0 -41 34.2 -19.7 -0.1 44.5c7.7,-2.2 14.6,-2.3 20.7,-0.3 6.9,2.3 12.7,7.3 17.3,15 4.5,7.8 6.8,18.1 6.8,31.1 0,14 -2.8,28.4 -8.5,43.4 -5.7,15 -13.4,28.2 -23,39.6 13.6,-2.6 24.1,0.4 31.5,9 7.3,8.5 11,21.4 11,38.7 0,13.6 -2.4,28.2 -7.2,43.8 -4.7,15.6 -11.3,29.6 -19.5,42.1 -8,12.1 -17.7,22.4 -29.3,31l0 42.8 -34.1 19.7z">
    <animate xmlns="http://www.w3.org/2000/svg" attributeName="fill-opacity" attributeType="CSS" values="1;1;0;1;1;1;0;1;1;1;1;1;" begin="0.5s" dur="16s" fill="freeze" repeatCount="indefinite"/>
   </path>
   <path class="fil27" d="M1999 1849.5l-1.5 -302.5 -637.6 -12.5 1.4 297.2c-2.3,7 0.7,14.1 9.3,19.2l289.3 171c14.9,8.9 41.3,8.1 58.8,-1.8l265.8 -149.8c10.4,-5.8 15.3,-13.6 14.5,-20.8z"/>
   <path class="fil28" d="M1684.7 1722c-9.9,0 -19.3,-2 -26.3,-6.1l-289.3 -171.1c-14.9,-8.8 -12.9,-24 4.6,-33.9l34.7 -19.5 228.9 -132.4c7,4.1 16.4,6.2 26.2,6.2 11.3,0 23.2,-2.7 32.6,-8l253.8 150.9 37.8 22.3c14.9,8.9 12.9,24 -4.6,33.9l-265.9 149.8c-9.3,5.3 -21.2,7.9 -32.5,7.9z"/>
   <g>
    <path class="fil29" d="M1686.1 1646.3c-9.8,0 -19.2,-2 -26.2,-6.1l-251.5 -148.8 -2.3 -1.4 -35.5 -20.9c-6.6,-4 -9.9,-9.2 -10,-14.6l0 -130.2c0.4,5.2 3.7,10.1 10,13.8l289.3 171.1c7,4.1 16.4,6.2 26.2,6.2 11.4,0 23.3,-2.7 32.6,-8l265.9 -149.8c9.1,-5.1 14.1,-11.7 14.5,-18.1l0 129.1c0.5,6.9 -4.5,14.3 -14.5,20l-34.7 19.5 -231.2 130.2c-9.3,5.3 -21.2,8 -32.6,8z"/>
    <path class="fil30" d="M1686.1 1515.4c-9.8,0 -19.2,-2.1 -26.2,-6.2l-289.3 -171.1c-6.3,-3.7 -9.6,-8.6 -10,-13.8 0,-0.7 0,-1.4 0.1,-2.1 1.5,3.2 4.4,6.1 8.5,8.6l289.3 171.1c7,4.1 16.4,6.1 26.2,6.1 11.3,0 23.2,-2.7 32.6,-8l265.9 -149.7c9.1,-5.2 14,-11.7 14.5,-18.1 1.2,2.3 1.7,4.8 1.4,7.3 -0.4,6.4 -5.4,13 -14.5,18.1l-265.9 149.8c-9.3,5.3 -21.2,8 -32.6,8zm103.9 -239.8l0 0 60.3 -34 0 0 -60.3 34z"/>
    <path class="fil31" d="M1684.6 1324.6c-9.8,0 -19.3,-2.1 -26.2,-6.2l-39.5 -23.3 39.5 23.3c6.9,4.1 16.4,6.2 26.2,6.2 11.3,0 23.2,-2.7 32.6,-8l26.4 -14.9 0 0 -26.4 14.9c-9.4,5.3 -21.3,8 -32.6,8zm105.2 -48.9l0 0 0.2 -0.1 0 0 -0.2 0.1z"/>
    <polygon class="fil32" points="1743.6,1301.7 1743.6,1301.7 1789.8,1275.7 1789.8,1275.7 "/>
    <path class="fil33" d="M1790 1275.6l-96.4 -57.1c-4.3,-2.5 -10,-3.7 -16,-3.7 -7,0 -14.3,1.6 -20,4.9l-85.1 47.9 -64.6 -38.2 133.1 -75c9.4,-5.3 21.3,-7.9 32.6,-7.9 9.9,0 19.3,2 26.3,6.1l144 85.2 6.4 3.8 -60.3 34zm-105.2 232.5c-10,0 -19.3,-2.1 -26.3,-6.2l-289.2 -171.1c-4.2,-2.5 -7,-5.4 -8.7,-8.6 0.5,-6.3 5.4,-12.9 14.5,-18l132.8 -74.8 64.5 38.2 -77.8 43.8c-5.8,3.4 -8.8,7.8 -8.8,11.9 0,3.5 1.8,6.7 6.2,9.2l29.5 17.5 0.3 -0.1 147.3 87.1c4.4,2.6 10,3.8 16.1,3.8 7,0 14.3,-1.7 20,-4.9l135.8 -76.5 0.3 0.2 26.8 -15.2c5.9,-3.3 8.9,-7.7 8.9,-11.9 0,-3.4 -1.9,-6.7 -6.2,-9.2l-80.8 -47.7 60.4 -34 138.8 82.1c4.1,2.5 7,5.3 8.5,8.5 -0.6,6.3 -5.5,12.9 -14.5,18.1l-265.9 149.8c-9.3,5.2 -21.2,8 -32.5,8l0 0z"/>
    <path class="fil34" d="M1684.6 1324.6l-0.4 0 0.5 0 1.5 0 -1.6 0zm-26.2 -6.2l-39.5 -23.3 38.7 -21.8c5.7,-3.2 13,-4.9 20,-4.9 6,0 11.7,1.3 16,3.8l50 29.5 -6.4 3.6 6.4 -3.6 97.4 57.7 -135.8 76.5c-5.7,3.3 -13,4.9 -19.9,4.9 -6.2,0 -11.9,-1.2 -16.1,-3.8l-147.4 -87.1 97.1 -54.8 39.5 23.3 0 0zm218.7 14.1c-0.2,-3.3 -2.2,-6.4 -6.3,-8.8l-81 -48 0 0 -96.2 -56.8c-4.2,-2.6 -10,-3.8 -16,-3.8 -7,0 -14.3,1.6 -20,4.9l-84.8 47.8 -0.3 -0.1 0.2 0.1 -78 43.9c-5.8,3.3 -8.9,7.6 -8.9,11.6l0 0c-0.1,-4.1 2.9,-8.5 8.9,-11.9l77.8 -43.8 0 0 85.1 -47.9c5.7,-3.3 13,-4.9 20,-4.9 6,0 11.7,1.2 16,3.7l96.4 57.1 0 0 80.8 47.8c4.3,2.4 6.3,5.7 6.3,9.1z"/>
    <path class="fil35" d="M1743.6 1301.7l-50 -29.5c-4.3,-2.5 -10,-3.8 -16,-3.8 -7,0 -14.3,1.7 -20,4.9l-38.7 21.8 -46.1 -27.3 84.8 -47.8c5.7,-3.3 13,-4.9 20,-4.9 6,0 11.8,1.2 16,3.8l96.2 56.8 -46.2 26zm97.8 57.8l-0.4 -0.1 -97.4 -57.7 46.2 -26 81 48c4.1,2.4 6.1,5.5 6.3,8.8 0,4.2 -3.1,8.6 -9.1,12l-26.6 15zm-319.9 -9.5l-29.6 -17.5c-4.2,-2.4 -6.2,-5.7 -6.1,-9.1 0,-4.1 3.1,-8.3 8.9,-11.6l78 -44 46.2 27.3 -97.1 54.7 -0.3 0.2 0 0z"/>
    <animateTransform xmlns="http://www.w3.org/2000/svg" attributeName="transform" type="translate" values="0 0;0 -120;0 0" begin="0s" dur="6s" repeatCount="indefinite"/>
   </g>
   <path class="fil17" d="M1461.2 1734.6l-36.9 -21.4c-2.5,-1.4 -4.6,-5.3 -4.6,-8.6l0.1 -59.8c0,-3.3 2,-4.8 4.5,-3.4l37 21.4c2.4,1.4 4.5,5.3 4.5,8.6l-0.1 59.8c0,3.3 -2,4.9 -4.5,3.4z"/>
   <path class="fil17" d="M1527.2 1772.9l-36.9 -21.4c-2.5,-1.4 -4.5,-5.3 -4.5,-8.6l0 -59.8c0,-3.4 2,-4.9 4.5,-3.4l37 21.3c2.5,1.5 4.5,5.4 4.5,8.7l0 59.8c0,3.3 -2.1,4.8 -4.6,3.4z"/>
   <path class="fil17" d="M1593.3 1811.2l-37 -21.4c-2.5,-1.5 -4.5,-5.3 -4.5,-8.7l0 -59.8c0,-3.3 2.1,-4.8 4.5,-3.4l37 21.4c2.5,1.5 4.5,5.3 4.5,8.6l0 59.9c0,3.3 -2,4.8 -4.5,3.4z"/>
   <path class="fil17" d="M1461.2 1828.9l-36.9 -21.3c-2.5,-1.5 -4.6,-5.3 -4.6,-8.7l0.1 -59.8c0,-3.3 2,-4.8 4.5,-3.4l37 21.4c2.4,1.4 4.5,5.3 4.5,8.6l-0.1 59.8c0,3.4 -2,4.9 -4.5,3.4z"/>
   <path class="fil17" d="M1527.2 1867.2l-36.9 -21.4c-2.5,-1.4 -4.5,-5.3 -4.5,-8.6l0 -59.8c0,-3.4 2,-4.9 4.5,-3.4l37 21.3c2.5,1.5 4.5,5.3 4.5,8.7l0 59.8c0,3.3 -2.1,4.8 -4.6,3.4z"/>
   <path class="fil17" d="M1593.3 1905.5l-37 -21.4c-2.5,-1.5 -4.5,-5.3 -4.5,-8.6l0 -59.9c0,-3.3 2.1,-4.8 4.5,-3.4l37 21.4c2.5,1.5 4.5,5.3 4.5,8.6l0 59.9c0,3.3 -2,4.8 -4.5,3.4z"/>
   <g>
    <path class="fil36" d="M1285.5 2181.7c-60.1,34.7 -157.4,34.7 -217.4,0 -60,-34.6 -60,-90.8 0,-125.5 60,-34.6 157.3,-34.6 217.4,0 60,34.7 60,90.9 0,125.5z"/>
    <path class="fil37" d="M1319.7 2062.4l-6.6 0c-7.5,-14.6 -21.2,-28.4 -41.2,-40 -63.8,-36.8 -167.1,-36.8 -230.9,0 -20,11.6 -33.7,25.4 -41.2,40l-6.6 0 0 26.7c0,24.1 15.9,48.2 47.8,66.6 63.8,36.8 167.1,36.8 230.9,0 31.9,-18.4 47.8,-42.5 47.8,-66.6l0 -26.7z"/>
    <path class="fil38" d="M1121 1997c-29.3,3.8 -57.2,12.2 -80,25.4 -20,11.6 -33.7,25.4 -41.2,40l-6.6 0 0 26.7c0,24.1 15.9,48.2 47.8,66.6 22.8,13.2 50.7,21.6 80,25.4l0 -184.1z"/>
    <path class="fil39" d="M1272.3 2155.5c31.6,-18.4 47.4,-42.4 47.4,-66.4l0 -26.7 -6.6 0c-6.4,-12.5 -17.3,-24.3 -32.8,-34.7l-8 0 0 127.8z"/>
    <path class="fil39" d="M1304.2 2129.2l0 -21.8c2.8,-3.4 5.1,-6.8 7.1,-10.3l0 21.8c-2,3.5 -4.3,6.9 -7.1,10.3z"/>
    <path class="fil40" d="M1141.7 2183c-0.3,-0.1 -0.6,-0.1 -0.9,-0.1l0 0c0.3,0 0.6,0 0.9,0.1z"/>
    <path class="fil41" d="M1161.2 2183.3l0 -21.8c2.4,0 4.7,-0.1 7.1,-0.2l0 21.8c-2.4,0.1 -4.7,0.1 -7.1,0.2zm-13.3 -0.1c-2.1,-0.1 -4.2,-0.1 -6.2,-0.2 -0.3,-0.1 -0.6,-0.1 -0.9,-0.1l0 -21.8c2.3,0.1 4.7,0.2 7.1,0.3l0 21.8zm33.7 -1l0 -21.8c2.4,-0.2 4.8,-0.4 7.1,-0.7l0 21.8c-2.3,0.2 -4.7,0.5 -7.1,0.7zm-54.2 -0.4c-2.3,-0.2 -4.7,-0.5 -7.1,-0.8l0 0c0.3,0 0.5,0.1 0.7,0.1l0 -21.8c2.1,0.3 4.3,0.5 6.4,0.7l0 21.8zm74.7 -2.2l0 -21.8c2.3,-0.4 4.7,-0.8 7.1,-1.3l0 21.8c-2.4,0.5 -4.8,0.9 -7.1,1.3zm20.4 -4.3l0 -21.8c2.4,-0.6 4.8,-1.3 7.1,-1.9l0 21.7c-2.4,0.7 -4.7,1.4 -7.1,2zm-135.9 -1c-1.6,-0.4 -3.1,-0.9 -4.7,-1.3 1.6,0.4 3.1,0.9 4.7,1.3l0 0zm156.3 -5.3l0 -21.8c2.4,-0.8 4.8,-1.7 7.1,-2.7l0 21.8c-2.3,1 -4.7,1.8 -7.1,2.7zm20.5 -8.7l0 -21.8c2.4,-1.2 4.7,-2.5 7.1,-3.8l0 21.8c-2.4,1.3 -4.7,2.6 -7.1,3.8z"/>
    <path class="fil42" d="M1121 2181.1c-0.2,0 -0.4,-0.1 -0.7,-0.1l0 -21.8c0.3,0 0.5,0.1 0.7,0.1l0 21.8zm-14 -2.2c-2.4,-0.4 -4.7,-0.9 -7.1,-1.4l0 -21.8c2.4,0.5 4.7,1 7.1,1.4l0 21.8zm-20.4 -4.6c-1.6,-0.4 -3.1,-0.9 -4.7,-1.3 -0.8,-0.3 -1.6,-0.5 -2.4,-0.8l0 -21.8c2.3,0.8 4.7,1.4 7.1,2.1l0 21.8zm-20.5 -6.7c-2.4,-0.9 -4.7,-1.9 -7,-2.9l0 -21.8c2.3,1 4.6,2 7,2.9l0 21.8zm-20.4 -9.3c-1.5,-0.8 -3,-1.6 -4.5,-2.4 -0.1,-0.1 -0.1,-0.1 -0.2,-0.2l0 0c-0.8,-0.4 -1.6,-0.9 -2.4,-1.4l0 -21.8c0.8,0.5 1.6,1 2.4,1.4 1.5,0.9 3.1,1.8 4.7,2.6l0 21.8zm-20.4 -13.1c-2.6,-2 -4.9,-4 -7.1,-6l0 -21.8c2.2,2.1 4.6,4.1 7.1,6l0 21.8zm20.4 -13.5c-1.6,-0.9 -3.2,-1.7 -4.7,-2.6 -0.8,-0.5 -1.6,-1 -2.4,-1.4l0 0c0.8,0.4 1.6,0.9 2.4,1.4 1.5,0.9 3.1,1.7 4.7,2.6l0 0z"/>
    <path class="fil39" d="M1283.8 2148.1l0 -21.8c2.5,-1.8 4.9,-3.7 7.1,-5.5l0 21.7c-2.2,1.9 -4.6,3.7 -7.1,5.6z"/>
    <path class="fil42" d="M1004.8 2124.1c-2.9,-4.2 -5.2,-8.5 -7.1,-12.8l0 -21.9c1.9,4.4 4.2,8.7 7.1,12.9l0 21.8z"/>
    <path class="fil38" d="M1271.9 2129.1c-63.8,36.8 -167.1,36.8 -230.9,0 -63.8,-36.9 -63.8,-96.5 0,-133.4 63.8,-36.8 167.1,-36.8 230.9,0.1 63.8,36.8 63.8,96.4 0,133.3z"/>
    <path class="fil43" d="M1047.4 2104.5c-15,-1.6 -29.6,-4.5 -43.5,-8.5 -4.5,-6.8 -7.5,-13.8 -9.2,-20.9 -0.8,-3.4 -1.3,-6.8 -1.4,-10.3 0,0.1 0,0.1 0,0.1 -0.6,-12.7 3.2,-25.5 11.5,-37.5l0 13.6c0,22.8 14.2,45.5 42.6,63.5z"/>
    <path class="fil44" d="M1156.4 2161.5c-2.8,0 -5.7,0 -8.5,-0.1l0 -4.9c2.8,0.1 5.7,0.2 8.6,0.2 1.5,0 3.1,0 4.7,-0.1l0 4.9c-1.6,0 -3.2,0 -4.8,0zm11.9 -0.2l0 -4.9c4.5,-0.2 8.9,-0.4 13.3,-0.8l0 4.8c-4.4,0.4 -8.8,0.7 -13.3,0.9zm-27.5 -0.2c-4.5,-0.2 -8.9,-0.6 -13.4,-1.1l0 -4.8c4.4,0.4 8.9,0.8 13.4,1l0 4.9zm47.9 -1.4l0 -4.9c4.5,-0.5 9,-1.1 13.4,-1.9l0 4.9c-4.4,0.7 -8.9,1.4 -13.4,1.9zm20.5 -3.2l0 -4.9c4.5,-0.8 8.9,-1.8 13.3,-3l0 4.9c-4.4,1.1 -8.8,2.1 -13.3,3zm20.4 -4.9l0 -4.9c4.5,-1.3 9,-2.7 13.3,-4.3l0 4.8c-4.3,1.6 -8.8,3.1 -13.3,4.4zm20.4 -7.1l0 -4.8c4.6,-1.9 9.1,-3.9 13.4,-6l0 4.8c-4.3,2.2 -8.8,4.2 -13.4,6zm20.5 -9.8l0 -4.8c0.4,-0.3 0.9,-0.6 1.4,-0.8 0.1,-0.1 0.1,-0.1 0.2,-0.1 0,0 0,0 0,0 0,-0.1 0.1,-0.1 0.2,-0.2 0,0 0,0 0,0 0,0 0,0 0,0l0 4.9c-0.1,0.1 -0.2,0.1 -0.4,0.2 -0.5,0.3 -1,0.6 -1.4,0.8z"/>
    <path class="fil45" d="M1120.3 2159.2c-4.4,-0.6 -8.9,-1.3 -13.3,-2.1l0 -4.8c4.4,0.8 8.9,1.5 13.3,2l0 4.9zm-20.4 -3.5c-4.5,-0.9 -9,-2 -13.3,-3.2l0 -4.9c4.3,1.2 8.8,2.3 13.3,3.3l0 4.8zm-20.4 -5.3c-4.6,-1.4 -9,-2.9 -13.4,-4.6l0 -4.8c4.4,1.6 8.8,3.2 13.4,4.6l0 4.8zm-20.4 -7.5c-4.7,-1.9 -9.1,-4.1 -13.4,-6.4l0 -4.8c4.3,2.3 8.7,4.4 13.4,6.4l0 4.8zm-20.5 -10.4c-4.8,-2.9 -9.3,-5.9 -13.3,-9.1l0 -4.9c2.4,2 5,3.8 7.7,5.6 0,0 0.1,0 0.1,0 0,0.1 0,0.1 0.1,0.1 0,0 0,0.1 0.1,0.1 0,0 0,0 0,0 0.1,0 0.1,0.1 0.1,0.1 0.1,0 0.1,0 0.1,0 0,0.1 0.1,0.1 0.1,0.1l0 0c1.6,1.1 3.3,2.1 5,3.2l0 4.8zm-20.4 -15.1c-5.3,-4.8 -9.8,-9.9 -13.4,-15.1l0 -4.8c3.6,5.2 8.1,10.2 13.4,15.1l0 4.8zm-20.5 -28c-3.2,-7.9 -4.7,-16 -4.5,-24.1 0.4,6.5 1.9,13 4.5,19.3l0 4.8z"/>
    <path class="fil46" d="M1272.3 2133.7l0 -4.9c0.1,0 0.1,0 0.2,-0.1 0,0 0,0 0,0 0.1,0 0.1,0 0.1,-0.1 0.1,0 0.1,0 0.1,0 0,0 0.1,-0.1 0.1,-0.1 0,0 0.1,0 0.1,0 0,0 0.1,-0.1 0.1,-0.1 0,0 0.1,0 0.1,0 0,-0.1 0,-0.1 0.1,-0.1 0,0 0,0 0.1,0 0,-0.1 0,-0.1 0,-0.1 0.1,0 0.1,0 0.2,-0.1 0,0 0,0 0,0 0.1,0 0.1,0 0.2,-0.1 0,0 0,0 0,0 0.1,0 0.1,-0.1 0.1,-0.1 0.1,0 0.1,0 0.1,0 0,0 0.1,-0.1 0.1,-0.1 0,0 0,0 0.1,0 0,0 0.1,-0.1 0.1,-0.1l0 0c3.4,-2 6.6,-4.1 9.6,-6.3l0 4.9c-3.6,2.5 -7.4,5 -11.5,7.4zm18.6 -12.9l0 -4.9c5.1,-4.3 9.6,-8.7 13.3,-13.4l0 4.9c-3.7,4.6 -8.2,9.1 -13.3,13.4zm20.4 -23.7l0 -4.8c2.4,-4.1 4.2,-8.2 5.6,-12.4 0.6,-0.8 1.2,-1.6 1.8,-2.4 -1.2,6.6 -3.7,13.2 -7.4,19.6z"/>
    <path class="fil46" d="M1304.2 2107.4l0 -4.9c2.8,-3.3 5.1,-6.7 7.1,-10.2l0 4.8c-2,3.5 -4.3,6.9 -7.1,10.3z"/>
    <path class="fil47" d="M1161.2 2161.5l0 -4.9c2.4,0 4.7,-0.1 7.1,-0.2l0 4.9c-2.4,0.1 -4.7,0.2 -7.1,0.2zm-13.3 -0.1c-2.4,-0.1 -4.8,-0.2 -7.1,-0.3l0 -4.9c2.3,0.2 4.7,0.3 7.1,0.3l0 4.9zm33.7 -1l0 -4.8c2.4,-0.3 4.8,-0.5 7.1,-0.8l0 4.9c-2.3,0.3 -4.7,0.5 -7.1,0.7zm-54.2 -0.4c-2.1,-0.2 -4.3,-0.4 -6.4,-0.7l0 -4.9c2.2,0.3 4.3,0.6 6.4,0.8l0 4.8zm74.7 -2.2l0 -4.9c2.3,-0.4 4.7,-0.8 7.1,-1.3l0 4.9c-2.4,0.5 -4.8,0.9 -7.1,1.3zm20.4 -4.3l0 -4.9c2.4,-0.6 4.8,-1.2 7.1,-1.9l0 4.9c-2.3,0.6 -4.7,1.3 -7.1,1.9zm20.4 -6.3l0 -4.8c2.4,-0.9 4.8,-1.8 7.1,-2.7l0 4.8c-2.3,1 -4.7,1.9 -7.1,2.7zm20.5 -8.7l0 -4.8c2.4,-1.3 4.7,-2.5 7.1,-3.8l0 4.8c-2.4,1.3 -4.7,2.6 -7.1,3.8z"/>
    <path class="fil48" d="M1121 2159.3c-0.2,0 -0.4,-0.1 -0.7,-0.1l0 -4.9c0.3,0.1 0.5,0.1 0.7,0.1l0 4.9zm-14 -2.2c-2.4,-0.4 -4.7,-0.9 -7.1,-1.4l0 -4.8c2.4,0.5 4.7,0.9 7.1,1.4l0 4.8zm-20.4 -4.6c-2.4,-0.7 -4.8,-1.3 -7.1,-2.1l0 -4.8c2.3,0.7 4.7,1.4 7.1,2l0 4.9zm-20.5 -6.7c-2.4,-0.9 -4.7,-1.9 -7,-2.9l0 -4.8c2.3,1 4.6,1.9 7,2.9l0 4.8zm-20.4 -9.3c-1.6,-0.8 -3.2,-1.7 -4.7,-2.6 -0.8,-0.4 -1.6,-0.9 -2.4,-1.4l0 -4.8c0.8,0.4 1.6,0.9 2.4,1.4 1.5,0.9 3.1,1.7 4.7,2.6l0 4.8zm-20.4 -13.1c-2.5,-1.9 -4.9,-3.9 -7.1,-6l0 -4.8c2.2,2 4.6,4 7.1,5.9l0 4.9z"/>
    <path class="fil46" d="M1283.8 2126.3l0 -4.9c2.5,-1.8 4.9,-3.6 7.1,-5.5l0 4.9c-2.2,1.8 -4.6,3.7 -7.1,5.5z"/>
    <path class="fil48" d="M1004.8 2102.3c-2.9,-4.2 -5.2,-8.5 -7.1,-12.9l0 -4.8c1.9,4.4 4.2,8.7 7.1,12.9l0 4.8z"/>
    <path class="fil45" d="M1272.1 2129c0,0 0,0 0,0 0,0 0,0 0,0zm0.2 -0.2c0,0 0,0 0,0 0,0 0,0 0,0zm0.2 -0.1c0,0 0,0 0,0 0,0 0,0 0,0zm0.1 -0.1c0.1,0 0.1,0 0.1,0 0,0 0,0 -0.1,0zm0.2 -0.1c0,0 0.1,0 0.1,0 0,0 -0.1,0 -0.1,0zm0.2 -0.1c0,0 0.1,0 0.1,0 0,0 -0.1,0 -0.1,0zm0.2 -0.1c0,0 0,0 0.1,0 -0.1,0 -0.1,0 -0.1,0zm0.1 -0.1c0.1,0 0.1,0 0.2,-0.1 -0.1,0.1 -0.1,0.1 -0.2,0.1zm0.2 -0.1c0.1,0 0.1,0 0.2,-0.1 -0.1,0.1 -0.1,0.1 -0.2,0.1zm0.2 -0.1c0.1,0 0.1,-0.1 0.1,-0.1 0,0 0,0.1 -0.1,0.1zm0.2 -0.1c0,0 0.1,-0.1 0.1,-0.1 0,0 -0.1,0.1 -0.1,0.1zm0.2 -0.1c0,0 0.1,-0.1 0.1,-0.1 0,0 -0.1,0.1 -0.1,0.1zm0.1 -0.1c22.8,-13.7 37,-30.3 42.6,-47.7 0.1,0 0.1,-0.1 0.1,-0.1 -1.4,4.2 -3.2,8.3 -5.6,12.4 -2,3.5 -4.3,6.9 -7.1,10.2 -3.7,4.7 -8.2,9.1 -13.3,13.4 -2.2,1.9 -4.6,3.7 -7.1,5.5 -3,2.2 -6.2,4.3 -9.6,6.3zm-240.6 -3.2l0 0 0 0zm-0.1 -0.1c0,0 0,0 -0.1,0 0.1,0 0.1,0 0.1,0zm-0.2 -0.1c0,0 0,0 0,0 0,0 0,0 0,0zm-0.1 -0.1c-0.1,0 -0.1,0 -0.1,-0.1 0,0.1 0,0.1 0.1,0.1zm-0.2 -0.1c-2.7,-1.8 -5.3,-3.6 -7.7,-5.6 -2.5,-1.9 -4.9,-3.9 -7.1,-5.9 -5.3,-4.9 -9.8,-9.9 -13.4,-15.1 -2.9,-4.2 -5.2,-8.5 -7.1,-12.9 -2.6,-6.3 -4.1,-12.8 -4.5,-19.3 0.1,-0.1 0.1,-0.2 0.1,-0.4 0.1,3.4 0.6,6.9 1.4,10.2 4.1,17.7 16.9,34.8 38.3,49z"/>
    <path class="fil49" d="M994.7 2075.1c-0.8,-3.3 -1.3,-6.8 -1.4,-10.2 0,0 0,0 0,-0.1 0.1,3.5 0.6,6.9 1.4,10.3z"/>
    <path class="fil39" d="M1238.4 2109.7c-45.3,26.1 -118.7,26.1 -163.9,0 -45.3,-26.1 -45.3,-68.5 0,-94.6 45.2,-26.1 118.6,-26.1 163.9,0 45.3,26.1 45.3,68.5 0,94.6z"/>
    <path class="fil37" d="M1074.5 2021.2c45.2,-26.1 118.6,-26.1 163.9,0 21.3,12.3 32.6,28.2 33.8,44.3 1.4,-18.2 -9.8,-36.6 -33.8,-50.4 -45.3,-26.1 -118.7,-26.1 -163.9,0 -24,13.8 -35.3,32.2 -33.8,50.4 1.2,-16.1 12.5,-32 33.8,-44.3z"/>
    <path class="fil37" d="M1213.4 2030.8l-8.9 2.6 2.5 1 -8.8 5c-7.1,-3.4 -14.6,-5.2 -22.2,-5.1 -7.7,0 -14.8,1.9 -21.4,5.7 -2.7,1.6 -4.8,3.1 -6.5,4.7 -1.6,1.6 -2.8,3.3 -3.4,5 -0.7,1.7 -1.1,3.3 -1.2,4.7 -0.1,1.5 0,3.2 0.2,5.2l1.1 8.2c0.3,2.3 0.3,4.2 0.2,5.7 -0.2,1.5 -0.9,3 -2,4.6 -1.1,1.6 -2.8,3.1 -5.1,4.4 -4.2,2.4 -7.8,2.7 -11,0.8 -2.5,-1.4 -3.1,-3.1 -1.9,-5.2 1.2,-2.1 4.5,-4.8 9.8,-7.9l0 -6.2 -7.7 2.9 -11 -4.7c-6.8,4.2 -11.2,8.1 -13.1,11.8l-1.3 -1.4 0 6 0 0c0.1,4.1 3.2,8.2 9.5,12.2l-4.3 2.5 -6 -2.7 0 6.2 5.4 3 10.4 -6c6.5,3.1 13.5,4.5 21,4.2 7.5,-0.2 14.1,-2 19.8,-5.3 2.9,-1.7 5.2,-3.4 7.1,-5.2 1.8,-1.9 3.1,-3.8 3.9,-5.7 0.8,-2 1.2,-3.9 1.4,-5.6 0.2,-1.8 0.2,-3.8 0,-6l-0.9 -7.9c-0.1,-1.6 -0.2,-2.7 -0.2,-3.5 0,-0.7 0.1,-1.7 0.4,-3 0.3,-1.3 0.8,-2.4 1.8,-3.4 0.9,-1 2.2,-1.9 3.8,-2.9 1.7,-1 3.7,-1.6 5.9,-1.9 2.2,-0.2 4.2,0.1 5.9,1 0.9,0.5 1.5,1 1.8,1.4l0.4 1.1 -9.2 1.9 0 6.1 18.5 8.2c1.6,-0.9 2.9,-1.8 4.1,-2.6 1.2,-0.8 2.4,-1.9 3.7,-3 1.3,-1.2 2.3,-2.3 3.1,-3.4 0.8,-1 1.4,-2.2 1.8,-3.6 0.2,-0.6 0.3,-1.2 0.3,-1.8l0 0 0 -6.5 -2.4 0.5 0 -0.1c-1.2,-1.5 -2.9,-2.9 -5,-4.2l9.7 -5.7 0 -6.1z"/>
    <path class="fil38" d="M1100.9 2090.6l10.3 -5.9c-7,-4.5 -10.1,-9 -9.4,-13.6 0.7,-4.6 5.5,-9.6 14.3,-15l18.7 7.9c-5.3,3.2 -8.6,5.8 -9.8,7.9 -1.2,2.1 -0.6,3.9 1.9,5.3 3.2,1.9 6.8,1.6 11,-0.8 2.3,-1.3 4,-2.8 5.1,-4.4 1.1,-1.6 1.8,-3.1 2,-4.6 0.1,-1.5 0.1,-3.4 -0.2,-5.8l-1.1 -8.2c-0.2,-1.9 -0.3,-3.6 -0.2,-5.1 0.1,-1.5 0.5,-3 1.2,-4.7 0.6,-1.8 1.8,-3.4 3.4,-5 1.7,-1.6 3.8,-3.2 6.5,-4.7 6.6,-3.8 13.7,-5.7 21.4,-5.8 7.6,0 15.1,1.7 22.2,5.2l9.8 -5.6 5.4 3.1 -9.7 5.6c2.1,1.4 3.8,2.8 5,4.2 1.2,1.5 1.9,2.8 2.2,4.1 0.3,1.2 0.3,2.6 -0.1,3.9 -0.4,1.3 -1,2.5 -1.8,3.6 -0.8,1.1 -1.8,2.2 -3.1,3.4 -1.3,1.1 -2.5,2.1 -3.7,2.9 -1.2,0.9 -2.5,1.7 -4.1,2.7l-18.5 -8.2c1.4,-0.9 2.6,-1.6 3.5,-2.2 0.9,-0.6 1.8,-1.2 2.7,-1.9 0.9,-0.7 1.6,-1.3 2,-1.8 0.4,-0.5 0.7,-1.1 0.9,-1.6 0.2,-0.6 0.1,-1.1 -0.3,-1.6 -0.3,-0.5 -0.9,-1 -1.8,-1.4 -1.7,-1 -3.7,-1.3 -5.9,-1 -2.2,0.3 -4.2,0.9 -5.9,1.9 -1.6,0.9 -2.9,1.9 -3.8,2.9 -1,1 -1.5,2.1 -1.8,3.4 -0.3,1.3 -0.4,2.3 -0.4,3 0,0.7 0.1,1.9 0.2,3.5l0.9 7.9c0.2,2.2 0.2,4.1 0,5.9 -0.2,1.8 -0.6,3.7 -1.4,5.6 -0.8,2 -2.1,3.9 -3.9,5.7 -1.9,1.9 -4.2,3.6 -7.1,5.3 -5.7,3.3 -12.3,5 -19.8,5.3 -7.5,0.2 -14.5,-1.2 -21,-4.2l-10.4 6 -5.4 -3.1z"/>
    <path class="fil37" d="M1331.4 2014.3l-6.7 0c-7.4,-14.6 -21.1,-28.4 -41.1,-39.9 -63.8,-36.9 -167.2,-36.9 -230.9,-0.1 -20.1,11.6 -33.8,25.4 -41.2,40l-6.7 0 0 26.7c0,24.1 16,48.3 47.9,66.7 63.7,36.8 167.1,36.8 230.9,0 31.9,-18.4 47.8,-42.6 47.8,-66.7l0 -26.7z"/>
    <path class="fil38" d="M1132.7 1949c-29.3,3.8 -57.2,12.2 -80,25.3 -20.1,11.6 -33.8,25.4 -41.2,40l-6.7 0 0 26.7c0,24.1 16,48.3 47.9,66.7 22.8,13.1 50.7,21.6 80,25.3l0 -184z"/>
    <path class="fil39" d="M1284 2107.4c31.6,-18.4 47.4,-42.4 47.4,-66.4l0 -26.7 -6.7 0c-6.3,-12.4 -17.3,-24.3 -32.7,-34.7l-8 0 0 127.8z"/>
    <path class="fil39" d="M1315.9 2081.1l0 -21.8c2.7,-3.3 5.1,-6.7 7.1,-10.2l0 21.8c-2,3.4 -4.4,6.9 -7.1,10.2z"/>
    <path class="fil41" d="M1172.9 2135.2l0 -21.8c2.3,0 4.7,-0.1 7.1,-0.2l0 21.8c-2.4,0.1 -4.8,0.2 -7.1,0.2zm-13.4 -0.1c-2.3,0 -4.7,-0.1 -7.1,-0.3l0 -21.8c2.4,0.2 4.8,0.3 7.1,0.4l0 21.7zm33.8 -1l0 -21.7c2.4,-0.3 4.7,-0.5 7.1,-0.8l0 21.8c-2.4,0.3 -4.7,0.5 -7.1,0.7zm-54.2 -0.3c-2.4,-0.3 -4.7,-0.6 -7.1,-0.9l0 0c0.2,0.1 0.5,0.1 0.7,0.1l0 -21.8c2.1,0.3 4.3,0.6 6.4,0.8l0 21.8zm74.6 -2.3l0 -21.8c2.4,-0.4 4.8,-0.8 7.1,-1.2l0 21.7c-2.3,0.5 -4.7,0.9 -7.1,1.3zm20.5 -4.3l0 -21.8c2.4,-0.6 4.7,-1.2 7,-1.9l0 21.8c-2.3,0.7 -4.6,1.3 -7,1.9zm-136 -1c-0.4,-0.1 -0.8,-0.2 -1.2,-0.3 0.4,0.1 0.8,0.2 1.2,0.3l0 0zm156.4 -5.2l0 -21.8c2.4,-0.9 4.8,-1.8 7.1,-2.7l0 21.7c-2.3,1 -4.7,1.9 -7.1,2.8zm-176.8 -1.4c-0.1,-0.1 -0.1,-0.1 -0.2,-0.1 0.1,0 0.1,0 0.2,0.1l0 0zm197.2 -7.4l0 -21.7c2.4,-1.3 4.8,-2.5 7.1,-3.8l0 21.8c-2.3,1.3 -4.7,2.5 -7.1,3.7zm-102.1 -3.6l0 0c2.3,-0.1 4.7,-0.1 7.1,-0.2l0 0c-2.4,0.1 -4.8,0.1 -7.1,0.2zm-13.4 -0.1c-2.3,-0.1 -4.7,-0.2 -7.1,-0.3l0 0c2.4,0.1 4.8,0.2 7.1,0.3l0 0zm33.8 -1l0 0c2.4,-0.2 4.7,-0.5 7.1,-0.7l0 0c-2.4,0.2 -4.7,0.5 -7.1,0.7zm-54.2 -0.4c-2.2,-0.2 -4.3,-0.4 -6.4,-0.7l0 0c2.1,0.3 4.2,0.5 6.4,0.7l0 0zm74.6 -2.2l0 0c2.4,-0.4 4.8,-0.8 7.1,-1.3l0 0c-2.3,0.5 -4.7,0.9 -7.1,1.3zm20.5 -4.3l0 0c2.4,-0.6 4.7,-1.3 7,-1.9l0 0c-2.3,0.6 -4.7,1.3 -7,1.9zm20.4 -6.3l0 0c2.4,-0.8 4.8,-1.7 7.1,-2.7l0 0c-2.4,1 -4.7,1.9 -7.1,2.7zm20.4 -8.7l0 0c2.4,-1.2 4.8,-2.5 7.1,-3.8l0 0c-2.3,1.3 -4.7,2.6 -7.1,3.8z"/>
    <g>
     <path class="fil42" d="M1132.7 2133c-0.2,0 -0.5,0 -0.7,-0.1l0 -21.7c0.2,0 0.5,0 0.7,0l0 21.8zm-14 -2.1c-2.4,-0.5 -4.8,-1 -7.1,-1.5l0 -21.7c2.3,0.5 4.7,0.9 7.1,1.4l0 21.8zm-20.5 -4.7c-0.4,-0.1 -0.8,-0.2 -1.2,-0.3 -2,-0.6 -3.9,-1.2 -5.9,-1.7l0 -21.8c2.4,0.7 4.7,1.4 7.1,2l0 21.8 0 0zm-20.4 -6.6c-0.1,-0.1 -0.1,-0.1 -0.2,-0.1 -2.3,-0.9 -4.6,-1.8 -6.9,-2.8l0 -21.8c2.3,1 4.7,1.9 7.1,2.9l0 21.8zm-20.4 -9.4c-1.6,-0.8 -3.2,-1.7 -4.7,-2.5l0 0c-0.9,-0.5 -1.6,-1 -2.4,-1.5l0 -21.7c0.8,0.4 1.5,0.9 2.4,1.4 1.5,0.9 3.1,1.7 4.7,2.6l0 21.7zm75.3 -3.8c-0.2,0 -0.5,-0.1 -0.7,-0.1l0 0c0.2,0 0.5,0.1 0.7,0.1l0 0zm-14 -2.2c-2.4,-0.4 -4.8,-0.9 -7.1,-1.4l0 0c2.3,0.5 4.7,1 7.1,1.4l0 0zm-20.5 -4.6c-2.4,-0.7 -4.7,-1.4 -7.1,-2.1l0 0c2.4,0.7 4.7,1.4 7.1,2.1l0 0zm-61.3 -2.5c-2.5,-1.9 -4.8,-3.9 -7.1,-6l0 -21.7c2.3,2 4.6,4 7.1,5.9l0 21.8zm40.9 -4.2c-2.4,-0.9 -4.8,-1.9 -7.1,-2.9l0 0c2.3,1 4.7,2 7.1,2.9l0 0zm-20.4 -9.3c-1.2,-0.6 -2.3,-1.2 -3.4,-1.8 1.1,0.6 2.2,1.2 3.4,1.8l0 0zm-3.5 -1.9c-0.3,-0.1 -0.5,-0.3 -0.8,-0.4 0.3,0.1 0.5,0.3 0.8,0.4zm-1.2 -0.7l0 0c-0.1,0 -0.2,-0.1 -0.2,-0.1 0,0 0.1,0.1 0.2,0.1l0 0zm-0.3 -0.1c0,-0.1 -0.1,-0.1 -0.1,-0.1 0,0 0.1,0 0.1,0.1zm-0.2 -0.2c0,0 -0.1,0 -0.1,0 0,0 0.1,0 0.1,0zm-0.2 -0.1c0,0 -0.1,0 -0.1,0 0,0 0.1,0 0.1,0zm-0.2 -0.1c0,0 0,0 -0.1,0 0.1,0 0.1,0 0.1,0zm-0.2 -0.1c0,0 0,0 0,0 0,0 0,0 0,0zm-0.2 -0.1c0,0 0,0 0,0 0,0 0,0 0,0zm-0.2 -0.1c0,0 0,0 0,0 0,0 0,0 0,0zm-0.2 -0.1c0,0 0,0 0,0l0 0z"/>
    </g>
    <path class="fil39" d="M1295.5 2100l0 -21.8c2.5,-1.8 4.8,-3.6 7.1,-5.5l0 21.8c-2.3,1.9 -4.6,3.7 -7.1,5.5zm0 -26.6l0 0c0,-0.1 0,-0.1 0.1,-0.1 -0.1,0 -0.1,0 -0.1,0.1zm0.1 -0.2c0.1,0 0.1,0 0.1,0 0,0 0,0 -0.1,0z"/>
    <path class="fil42" d="M1016.5 2076c-2.9,-4.2 -5.3,-8.4 -7.1,-12.8l0 -21.8c1.8,4.3 4.2,8.6 7.1,12.8l0 21.8z"/>
    <path class="fil38" d="M1283.6 2081c-63.8,36.8 -167.2,36.8 -230.9,0 -63.8,-36.8 -63.8,-96.5 0,-133.3 63.7,-36.8 167.1,-36.8 230.9,0 63.7,36.8 63.7,96.5 0,133.3z"/>
    <path class="fil50" d="M1051.3 1948.5c0,0 0,0 0,0 0,0 0,0 0,0zm0.1 -0.1c0,0 0,0 0,0 0,0 0,0 0,0zm0.4 -0.2c0,0 0,0 0.1,-0.1 -0.1,0.1 -0.1,0.1 -0.1,0.1zm0.1 -0.1c0.1,0 0.1,0 0.1,0 0,0 0,0 -0.1,0zm0.2 -0.1c0.1,0 0.1,-0.1 0.2,-0.1 -0.1,0 -0.1,0.1 -0.2,0.1zm0.2 -0.1c0.1,0 0.1,-0.1 0.1,-0.1 0,0 -0.1,0.1 -0.1,0.1zm0.2 -0.1c0,0 0.1,-0.1 0.2,-0.1 -0.1,0 -0.2,0.1 -0.2,0.1zm0.2 -0.1c0,0 0.1,-0.1 0.2,-0.1 -0.1,0 -0.2,0.1 -0.2,0.1z"/>
    <path class="fil43" d="M1089.3 2058.1c-25.3,0 -50.6,-3.4 -73.8,-10.2 -3.9,-5.9 -6.7,-12 -8.5,-18.2 -1.2,-4.3 -1.9,-8.6 -2.1,-12.9 0,0 0,0.1 0,0.1 -1.2,-24.6 14.3,-49.4 46.4,-68.4 0,0 0,0 0,0 0,0 0.1,-0.1 0.1,-0.1 0,0 0,0 0,0 0.2,-0.1 0.3,-0.1 0.4,-0.2 0,0 0,0 0.1,-0.1 0,0 0,0 0,0 0.1,0 0.1,0 0.1,0 0.1,-0.1 0.1,-0.1 0.1,-0.1 0.1,0 0.1,-0.1 0.2,-0.1 0,0 0,0 0,0 0,0 0.1,-0.1 0.1,-0.1 0,0 0.1,0 0.1,0 0,0 0.1,-0.1 0.2,-0.1l0 0c0,0 0.1,-0.1 0.2,-0.1 31.8,-18.4 73.5,-27.5 115.1,-27.5 25.4,0 50.7,3.4 73.8,10.1 22.2,33.7 9.8,73.2 -37.1,100.2 -31.9,18.5 -73.6,27.7 -115.4,27.7z"/>
    <path class="fil44" d="M1168.1 2113.5c-2.9,0 -5.7,-0.1 -8.6,-0.1l0 -4.9c2.9,0.1 5.7,0.1 8.6,0.1 1.6,0 3.2,0 4.8,0l0 4.8c-1.6,0.1 -3.2,0.1 -4.8,0.1zm11.9 -0.3l0 -4.8c4.4,-0.2 8.9,-0.5 13.3,-0.9l0 4.9c-4.4,0.4 -8.9,0.6 -13.3,0.8zm-27.6 -0.2c-4.4,-0.2 -8.9,-0.6 -13.3,-1l0 -4.9c4.4,0.5 8.9,0.8 13.3,1.1l0 4.8zm48 -1.4l0 -4.8c4.5,-0.6 8.9,-1.2 13.3,-1.9l0 4.8c-4.4,0.8 -8.8,1.4 -13.3,1.9zm20.4 -3.1l0 -4.9c4.5,-0.9 9,-1.9 13.4,-3l0 4.8c-4.4,1.2 -8.9,2.2 -13.4,3.1zm20.4 -5l0 -4.8c4.6,-1.4 9.1,-2.8 13.4,-4.4l0 4.9c-4.3,1.6 -8.8,3 -13.4,4.3zm20.5 -7l0 -4.9c4.6,-1.8 9,-3.8 13.3,-6l0 4.9c-4.3,2.1 -8.7,4.1 -13.3,6zm20.4 -9.8l0 -4.9c0.5,-0.2 1,-0.5 1.5,-0.8 0.1,-0.1 0.3,-0.2 0.4,-0.2l0 4.8c-0.1,0.1 -0.3,0.2 -0.4,0.3 -0.5,0.2 -1,0.5 -1.5,0.8z"/>
    <path class="fil45" d="M1132 2111.2c-4.5,-0.6 -8.9,-1.3 -13.3,-2.1l0 -4.9c4.4,0.8 8.8,1.5 13.3,2.1l0 4.9zm-20.4 -3.5c-4.5,-1 -9,-2.1 -13.4,-3.3l0 -4.8c4.4,1.2 8.9,2.2 13.4,3.2l0 4.9zm-20.5 -5.3c-4.5,-1.4 -9,-3 -13.3,-4.6l0 -4.9c4.3,1.7 8.8,3.2 13.3,4.6l0 4.9zm-20.4 -7.5c-4.6,-2 -9,-4.1 -13.3,-6.4l0 -4.9c4.3,2.3 8.7,4.4 13.3,6.4l0 4.9zm-20.4 -10.4c-4.9,-3 -9.3,-6 -13.4,-9.2l0 -4.8c4.1,3.1 8.5,6.2 13.4,9.1l0 4.9zm-20.5 -15.1c-5.2,-4.9 -9.7,-9.9 -13.3,-15.2l0 -4.8c3.6,5.2 8.1,10.3 13.3,15.1l0 4.9zm-20.4 -28c-3.3,-7.9 -4.8,-16 -4.5,-24.1 0.4,6.5 1.9,12.9 4.5,19.3l0 4.8z"/>
    <path class="fil46" d="M1284 2085.6l0 -4.8c4.1,-2.4 7.9,-4.9 11.5,-7.4l0 4.8c-3.6,2.6 -7.4,5 -11.5,7.4zm18.6 -12.9l0 -4.8c5.1,-4.3 9.5,-8.8 13.3,-13.4l0 4.8c-3.8,4.6 -8.2,9.1 -13.3,13.4zm20.4 -23.6l0 -4.8c5,-8.8 7.8,-17.9 8.3,-27 0.4,10.7 -2.4,21.5 -8.3,31.8z"/>
    <path class="fil46" d="M1315.9 2059.3l0 -4.8c2.7,-3.4 5.1,-6.8 7.1,-10.2l0 4.8c-2,3.5 -4.4,6.9 -7.1,10.2z"/>
    <path class="fil47" d="M1172.9 2113.4l0 -4.8c2.3,-0.1 4.7,-0.1 7.1,-0.2l0 4.8c-2.4,0.1 -4.8,0.2 -7.1,0.2zm-13.4 0c-2.3,-0.1 -4.7,-0.2 -7.1,-0.4l0 -4.8c2.4,0.1 4.8,0.2 7.1,0.3l0 4.9zm33.8 -1l0 -4.9c2.4,-0.2 4.7,-0.5 7.1,-0.7l0 4.8c-2.4,0.3 -4.7,0.5 -7.1,0.8zm-54.2 -0.4c-2.1,-0.2 -4.3,-0.5 -6.4,-0.8l0 -4.8c2.1,0.3 4.2,0.5 6.4,0.7l0 4.9zm74.6 -2.3l0 -4.8c2.4,-0.4 4.8,-0.8 7.1,-1.3l0 4.9c-2.3,0.4 -4.7,0.8 -7.1,1.2zm20.5 -4.3l0 -4.8c2.3,-0.6 4.7,-1.3 7,-1.9l0 4.8c-2.3,0.7 -4.6,1.3 -7,1.9zm20.4 -6.2l0 -4.9c2.4,-0.8 4.7,-1.7 7.1,-2.7l0 4.9c-2.3,0.9 -4.7,1.8 -7.1,2.7zm20.4 -8.7l0 -4.9c2.4,-1.2 4.8,-2.5 7.1,-3.8l0 4.9c-2.3,1.3 -4.7,2.5 -7.1,3.8z"/>
    <path class="fil48" d="M1132.7 2111.2c-0.2,0 -0.5,0 -0.7,0l0 -4.9c0.2,0 0.5,0.1 0.7,0.1l0 4.8zm-14 -2.1c-2.4,-0.5 -4.8,-0.9 -7.1,-1.4l0 -4.9c2.3,0.5 4.7,1 7.1,1.4l0 4.9zm-20.5 -4.7c-2.4,-0.6 -4.7,-1.3 -7.1,-2l0 -4.9c2.4,0.7 4.7,1.4 7.1,2.1l0 4.8zm-20.4 -6.6c-2.4,-1 -4.8,-1.9 -7.1,-2.9l0 -4.9c2.3,1 4.7,2 7.1,2.9l0 4.9zm-20.4 -9.3c-1.6,-0.9 -3.2,-1.7 -4.7,-2.6 -0.9,-0.5 -1.6,-1 -2.4,-1.4l0 -4.9c0.2,0.2 0.5,0.3 0.7,0.5 0,0 0,0 0,0 0.1,0 0.2,0 0.2,0.1 0,0 0,0 0,0 0.1,0 0.1,0 0.2,0.1 0,0 0,0 0,0 0.1,0 0.1,0 0.2,0.1 0,0 0,0 0,0 0.1,0 0.1,0.1 0.1,0.1 0.1,0 0.1,0 0.1,0 0,0 0.1,0.1 0.1,0.1 0,0 0.1,0 0.1,0 0,0 0.1,0.1 0.1,0.1 0,0 0.1,0 0.1,0 0,0.1 0.1,0.1 0.1,0.1 0,0 0.1,0 0.1,0.1 0,0 0.1,0 0.1,0 0,0 0.1,0.1 0.2,0.1l0 0c0.1,0.1 0.2,0.2 0.4,0.3 0.3,0.1 0.5,0.3 0.8,0.4 0,0 0.1,0 0.1,0.1 1.1,0.6 2.2,1.2 3.4,1.8l0 4.9zm-20.5 -13.2c-2.5,-1.9 -4.8,-3.9 -7.1,-5.9l0 -4.9c2.3,2.1 4.6,4 7.1,6l0 4.8z"/>
    <path class="fil46" d="M1295.5 2078.2l0 -4.8c0,-0.1 0,-0.1 0.1,-0.1 0,0 0,-0.1 0,-0.1 0.1,0 0.1,0 0.1,0 2.4,-1.7 4.7,-3.5 6.9,-5.3l0 4.8c-2.3,1.9 -4.6,3.7 -7.1,5.5z"/>
    <path class="fil48" d="M1016.5 2054.2c-2.9,-4.2 -5.3,-8.5 -7.1,-12.8l0 -4.8c1.8,4.3 4.2,8.6 7.1,12.8l0 4.8z"/>
    <path class="fil45" d="M1054 2081.8c0,-0.1 -0.1,-0.1 -0.1,-0.1 0,0 0.1,0 0.1,0.1zm-0.9 -0.5c-0.2,-0.1 -0.3,-0.2 -0.4,-0.3 0.1,0.1 0.2,0.2 0.4,0.3zm-0.6 -0.4c0,0 -0.1,0 -0.1,0 0,0 0.1,0 0.1,0zm-0.2 -0.1c0,0 -0.1,0 -0.1,-0.1 0,0.1 0.1,0.1 0.1,0.1zm-0.2 -0.1c0,0 -0.1,-0.1 -0.1,-0.1 0,0 0.1,0.1 0.1,0.1zm-0.2 -0.1c0,0 -0.1,-0.1 -0.1,-0.1 0,0 0.1,0.1 0.1,0.1zm-0.2 -0.1c0,0 0,-0.1 -0.1,-0.1 0.1,0 0.1,0.1 0.1,0.1zm-0.1 -0.1c-0.1,-0.1 -0.1,-0.1 -0.2,-0.1 0.1,0 0.1,0 0.2,0.1zm-0.2 -0.1c-0.1,-0.1 -0.1,-0.1 -0.2,-0.1 0.1,0 0.1,0 0.2,0.1zm-0.2 -0.1c0,-0.1 -0.1,-0.1 -0.2,-0.1 0.1,0 0.2,0 0.2,0.1zm-0.2 -0.1c-0.2,-0.2 -0.5,-0.3 -0.7,-0.5 -4.9,-2.9 -9.3,-6 -13.4,-9.1 -2.5,-2 -4.8,-3.9 -7.1,-6 -5.2,-4.8 -9.7,-9.9 -13.3,-15.1 -2.9,-4.2 -5.3,-8.5 -7.1,-12.8 -2.6,-6.4 -4.1,-12.8 -4.5,-19.3 0,-0.1 0,-0.3 0,-0.4 0.2,4.3 0.9,8.6 2.1,12.8 5.2,18.4 19.9,36 44,50.4zm244.6 -6.8c0,0 0,-0.1 0,-0.1 0,0 0,0.1 0,0.1zm0.1 -0.1c22.9,-16.5 34.7,-36.4 35.6,-56.4 0,0.2 0,0.3 0,0.5 -0.5,9.1 -3.3,18.2 -8.3,27 -2,3.4 -4.4,6.8 -7.1,10.2 -3.8,4.6 -8.2,9.1 -13.3,13.4 -2.2,1.8 -4.5,3.6 -6.9,5.3z"/>
    <path class="fil49" d="M1007 2029.7c-1.2,-4.2 -1.9,-8.5 -2.1,-12.8 0,0 0,-0.1 0,-0.1 0.2,4.3 0.9,8.6 2.1,12.9z"/>
    <path class="fil39" d="M1250.1 2061.7c-45.3,26.1 -118.7,26.1 -163.9,0 -45.3,-26.2 -45.3,-68.5 0,-94.7 45.2,-26.1 118.6,-26.1 163.9,0 45.2,26.2 45.2,68.5 0,94.7z"/>
    <path class="fil37" d="M1086.2 1973.1c45.2,-26.1 118.6,-26.1 163.9,0 21.2,12.3 32.5,28.2 33.8,44.3 1.4,-18.1 -9.9,-36.5 -33.8,-50.4 -45.3,-26.1 -118.7,-26.1 -163.9,0 -24,13.9 -35.3,32.3 -33.9,50.4 1.3,-16.1 12.6,-32 33.9,-44.3z"/>
    <path class="fil37" d="M1225.1 1982.8l-9 2.5 2.6 1 -8.8 5.1c-7.2,-3.5 -14.6,-5.2 -22.2,-5.2 -7.7,0 -14.8,2 -21.5,5.8 -2.6,1.5 -4.8,3.1 -6.4,4.7 -1.7,1.6 -2.8,3.2 -3.5,4.9 -0.6,1.7 -1,3.3 -1.1,4.8 -0.1,1.4 -0.1,3.2 0.2,5.1l1 8.2c0.3,2.3 0.4,4.2 0.2,5.7 -0.1,1.5 -0.8,3.1 -1.9,4.7 -1.1,1.6 -2.9,3.1 -5.2,4.4 -4.1,2.4 -7.8,2.6 -11,0.8 -2.4,-1.4 -3,-3.2 -1.8,-5.3 1.2,-2.1 4.4,-4.7 9.7,-7.9l0 -6.1 -7.6 2.9 -11.1 -4.7c-6.7,4.1 -11.1,8 -13.1,11.7l-1.2 -1.4 0 6 0 0c0,4.2 3.2,8.2 9.5,12.3l-4.4 2.5 -5.9 -2.7 0 6.1 5.3 3.1 10.4 -6c6.5,3 13.6,4.4 21.1,4.2 7.5,-0.3 14.1,-2.1 19.8,-5.4 2.9,-1.6 5.2,-3.4 7,-5.2 1.9,-1.8 3.2,-3.7 3.9,-5.7 0.8,-1.9 1.3,-3.8 1.5,-5.6 0.2,-1.8 0.2,-3.8 0,-5.9l-0.9 -8c-0.2,-1.6 -0.2,-2.7 -0.2,-3.4 0,-0.7 0.1,-1.7 0.4,-3 0.2,-1.3 0.8,-2.5 1.7,-3.4 1,-1 2.2,-2 3.9,-2.9 1.7,-1 3.6,-1.6 5.9,-1.9 2.2,-0.3 4.2,0 5.9,1 0.8,0.4 1.4,0.9 1.8,1.4l0.3 1 -9.1 1.9 0 6.1 18.5 8.3c1.5,-1 2.9,-1.9 4.1,-2.7 1.1,-0.8 2.4,-1.8 3.7,-3 1.3,-1.1 2.3,-2.3 3.1,-3.3 0.8,-1.1 1.4,-2.3 1.7,-3.6 0.2,-0.7 0.3,-1.3 0.4,-1.9l0 0 0 -6.4 -2.4 0.4 -0.1 -0.1c-1.2,-1.4 -2.8,-2.8 -4.9,-4.2l9.7 -5.6 0 -6.1z"/>
    <path class="fil38" d="M1112.6 2042.6l10.3 -6c-7,-4.4 -10.2,-9 -9.4,-13.6 0.7,-4.6 5.5,-9.6 14.2,-15l18.7 8c-5.3,3.1 -8.5,5.8 -9.7,7.9 -1.2,2.1 -0.6,3.8 1.8,5.3 3.2,1.8 6.9,1.5 11,-0.9 2.3,-1.3 4.1,-2.7 5.2,-4.4 1.1,-1.6 1.8,-3.1 1.9,-4.6 0.2,-1.5 0.1,-3.4 -0.2,-5.7l-1 -8.2c-0.3,-2 -0.3,-3.7 -0.2,-5.2 0.1,-1.4 0.5,-3 1.1,-4.7 0.7,-1.7 1.8,-3.4 3.5,-5 1.6,-1.5 3.8,-3.1 6.4,-4.6 6.7,-3.9 13.8,-5.8 21.5,-5.8 7.6,-0.1 15,1.6 22.2,5.2l9.8 -5.7 5.4 3.2 -9.7 5.6c2.1,1.3 3.7,2.7 4.9,4.2 1.2,1.4 2,2.8 2.3,4 0.3,1.3 0.2,2.6 -0.2,3.9 -0.3,1.4 -0.9,2.6 -1.7,3.6 -0.8,1.1 -1.8,2.2 -3.1,3.4 -1.3,1.2 -2.6,2.1 -3.7,3 -1.2,0.8 -2.6,1.7 -4.1,2.6l-18.5 -8.2c1.4,-0.8 2.6,-1.6 3.4,-2.1 0.9,-0.6 1.9,-1.3 2.8,-1.9 0.9,-0.8 1.6,-1.4 2,-1.9 0.4,-0.5 0.7,-1 0.9,-1.6 0.2,-0.6 0.1,-1.1 -0.3,-1.6 -0.4,-0.5 -1,-0.9 -1.8,-1.4 -1.7,-0.9 -3.7,-1.2 -5.9,-1 -2.3,0.3 -4.2,0.9 -5.9,1.9 -1.7,1 -2.9,1.9 -3.9,2.9 -0.9,1 -1.5,2.2 -1.7,3.4 -0.3,1.3 -0.4,2.3 -0.4,3 0,0.7 0,1.9 0.2,3.5l0.9 7.9c0.2,2.2 0.2,4.2 0,6 -0.2,1.8 -0.7,3.6 -1.5,5.6 -0.7,2 -2,3.8 -3.9,5.7 -1.8,1.8 -4.1,3.5 -7,5.2 -5.7,3.3 -12.3,5.1 -19.8,5.3 -7.5,0.3 -14.6,-1.1 -21.1,-4.2l-10.4 6 -5.3 -3z"/>
   </g>
   <path class="fil51" d="M1030.7 1529.3l-82 -47.5 -27.7 -16.1c-22.1,-12.8 -40,-47.2 -40,-76.5l0.4 -620.8 0.1 0 0 -94.4 109.8 63.5c22,12.8 39.9,47.3 39.8,76.6l-0.4 715.2 0 0z"/>
   <polygon class="fil52" points="2556.1,2150.9 2485.1,2106 2035.6,2230.1 2195.6,2620.6 2553.9,2257.7 ">
    <animate xmlns="http://www.w3.org/2000/svg" attributeName="fill-opacity" attributeType="CSS" values="1;1;0;1;1;1;0;1;0;1;1;1;1;" begin="0.5s" dur="4s" fill="freeze" repeatCount="indefinite"/>
  </polygon>
   <polygon class="fil52" points="2663.6,2361.7 2592.7,2316.9 2143.1,2441 2303.2,2831.5 2661.5,2468.6 ">
    <animate xmlns="http://www.w3.org/2000/svg" attributeName="fill-opacity" attributeType="CSS" values="1;1;0;1;1;1;0;1;1;1;1;1;" begin="0.5s" dur="6s" fill="freeze" repeatCount="indefinite"/>
  </polygon>
  </g>
 </g>
</svg>
