<?xml version="1.0" encoding="UTF-8"?>
<!DOCTYPE svg PUBLIC "-//W3C//DTD SVG 1.1//EN" "http://www.w3.org/Graphics/SVG/1.1/DTD/svg11.dtd">
<!-- Creator: CorelDRAW 2019 (64-Bit) -->
<svg xmlns="http://www.w3.org/2000/svg" xml:space="preserve" width="283px" height="248px" version="1.1" style="shape-rendering:geometricPrecision; text-rendering:geometricPrecision; image-rendering:optimizeQuality; fill-rule:evenodd; clip-rule:evenodd"
viewBox="0 0 2830 2476.2"
 xmlns:xlink="http://www.w3.org/1999/xlink"
 xmlns:xodm="http://www.corel.com/coreldraw/odm/2003">
 <defs>
  <style type="text/css">
   <![CDATA[
    .fil2 {fill:#FEFEFE;fill-rule:nonzero}
    .fil17 {fill:#FFF7D7;fill-rule:nonzero}
    .fil1 {fill:#E8348A;fill-rule:nonzero}
    .fil21 {fill:#FDF7E0;fill-rule:nonzero}
    .fil20 {fill:#FDF0CC;fill-rule:nonzero}
    .fil16 {fill:#FDEFC7;fill-rule:nonzero}
    .fil10 {fill:#FDD95D;fill-rule:nonzero}
    .fil19 {fill:#FBECC2;fill-rule:nonzero}
    .fil15 {fill:#FCE180;fill-rule:nonzero}
    .fil9 {fill:#F8C121;fill-rule:nonzero}
    .fil18 {fill:#F9E7B9;fill-rule:nonzero}
    .fil14 {fill:#F5C430;fill-rule:nonzero}
    .fil13 {fill:#F3B605;fill-rule:nonzero}
    .fil11 {fill:#E7A513;fill-rule:nonzero}
    .fil7 {fill:#D11981;fill-rule:nonzero}
    .fil6 {fill:#DFEEFB;fill-rule:nonzero}
    .fil0 {fill:#95A4C3;fill-rule:nonzero}
    .fil26 {fill:#8E9DB7;fill-rule:nonzero}
    .fil23 {fill:#8B9CB7;fill-rule:nonzero}
    .fil12 {fill:#6E6441;fill-rule:nonzero}
    .fil24 {fill:#7491B6;fill-rule:nonzero}
    .fil3 {fill:#6097D0;fill-rule:nonzero}
    .fil22 {fill:#4A6396;fill-rule:nonzero}
    .fil29 {fill:#4766A2;fill-rule:nonzero}
    .fil5 {fill:#3F6AA9;fill-rule:nonzero}
    .fil31 {fill:#3F67A3;fill-rule:nonzero}
    .fil4 {fill:#2F3E74;fill-rule:nonzero}
    .fil25 {fill:#2E3C6A;fill-rule:nonzero}
    .fil8 {fill:#2E3760;fill-rule:nonzero}
    .fil30 {fill:#313663;fill-rule:nonzero}
    .fil27 {fill:url(#id0)}
    .fil28 {fill:url(#id1)}
   ]]>
  </style>
  <linearGradient id="id0" gradientUnits="userSpaceOnUse" x1="2549.6" y1="1836.8" x2="2549.6" y2="840.6">
   <stop offset="0" style="stop-opacity:1; stop-color:#3D316F"/>
   <stop offset="1" style="stop-opacity:1; stop-color:#5F4D99"/>
  </linearGradient>
  <linearGradient id="id1" gradientUnits="objectBoundingBox" x1="0%" y1="44.9554%" x2="93.6613%" y2="54.0895%">
   <stop offset="0" style="stop-opacity:1; stop-color:#4E3E8E"/>
   <stop offset="1" style="stop-opacity:1; stop-color:#634E99"/>
  </linearGradient>
 </defs>
 <g id="Layer_x0020_1">
  <metadata id="CorelCorpID_0Corel-Layer"/>
  <g id="_1918299552">
   <path class="fil0" d="M839 871.2c-40.4,0 -80.7,-8.1 -111.5,-24.3 -61.5,-32.4 -61.5,-85 0,-117.4 30.8,-16.2 71.1,-24.3 111.5,-24.3 40.3,0 80.6,8.1 111.4,24.3 61.5,32.4 61.5,85 0,117.4 -30.8,16.2 -71.1,24.3 -111.4,24.3z"/>
   <path class="fil1" d="M1018.2 717.2l0 -45.9 -9.5 0c-8.5,-13.4 -22.8,-26 -43,-36.7 -70,-36.8 -183.5,-36.8 -253.5,0 -20.2,10.7 -34.5,23.3 -43,36.7l-9.5 0 0 45.7 0 0c-0.1,24.2 17.4,48.5 52.5,67 70,36.9 183.5,36.9 253.5,0 35,-18.4 52.5,-42.6 52.5,-66.8z"/>
   <path class="fil1" d="M965.7 738.1c-70,36.8 -183.5,36.8 -253.5,0 -70,-36.9 -70,-96.7 0,-133.5 70,-36.9 183.5,-36.9 253.5,0 70,36.8 70,96.6 0,133.5z"/>
   <path class="fil2" d="M965.7 738.1c-70,36.8 -183.5,36.8 -253.5,0 -33.5,-17.7 -50.8,-40.6 -52.2,-63.8 -1.5,25.2 15.8,50.6 52.2,69.8 70,36.9 183.5,36.9 253.5,0 36.5,-19.2 53.7,-44.6 52.2,-69.8 -1.4,23.2 -18.7,46.1 -52.2,63.8z"/>
   <path class="fil2" d="M752.6 702.6c-3.1,-1.6 -4.8,-3.8 -4.8,-6l0.2 -61.6c0,-4.6 7.3,-8.4 16.2,-8.4 8.9,0 16.1,3.8 16.1,8.5l-0.2 51 162.3 -18.2c8.7,-0.9 17.3,2 19.1,6.6 1.9,4.6 -3.7,9.1 -12.4,10.1l-181.8 20.3c-4.7,0.5 -9.7,-0.1 -13.5,-1.7l-1.2 -0.6z"/>
   <path class="fil0" d="M955.9 1974.6c-21,0 -40.9,-4.3 -55.9,-12.9l-604.1 -349.8c-32.8,-19 -28.6,-52.1 9.3,-74l34.7 -20 542.6 314.2c20,11.6 46.9,17.3 75.1,17.3 33.1,0 68.1,-7.9 95.7,-23.3 0,0 0,0 0,0 0.1,-0.1 0.2,-0.1 0.3,-0.2 0,0 0,0 0,0 0.1,-0.1 0.2,-0.1 0.3,-0.1 0,-0.1 0.1,-0.1 0.1,-0.1 0.1,0 0.1,-0.1 0.2,-0.1 0.1,0 0.1,-0.1 0.2,-0.1 0,0 0.1,-0.1 0.1,-0.1 0.1,-0.1 0.2,-0.1 0.3,-0.2l828.4 -476.7 0 116 -855 492.1c-20.7,11.9 -47.2,18 -72.3,18z"/>
   <path class="fil3" d="M882.5 1832.1l-628.7 -364c-20.7,-12 -30.3,-28.1 -29.6,-44.9l-0.2 0 0.3 -91.2 35 41c2.2,-1.5 4.5,-3 7,-4.5l1286.1 -740.1c51.1,-29.4 128.2,-32.5 172.4,-6.9l619.8 358.9c12.6,-13.7 38.9,-42.7 38.9,-42.7l-0.3 89.2 0 0c0.9,20.1 -13.4,41.6 -42.2,58.2l-1286.2 740.1c-51,29.4 -128.2,32.5 -172.3,6.9z"/>
   <path class="fil4" d="M542.5 1608.8l36.2 20.9c4.8,2.8 8.7,-0.2 8.7,-6.6 0,-6.4 -3.9,-13.9 -8.7,-16.6l-36.2 -20.9c-4.8,-2.8 -8.7,0.1 -8.7,6.5 0,6.4 3.9,13.9 8.7,16.7z"/>
   <path class="fil5" d="M1552.4 628.4c51.1,-29.4 128.2,-32.5 172.4,-6.9l619.8 358.9c12.6,-13.7 38.9,-42.7 38.9,-42.7l-0.3 89.2 0 0c0.9,20.1 -13.4,41.6 -42.2,58.2l-1286.2 740.1c-26.6,15.3 -60.3,23.4 -92.8,24.1l1.2 -881.9 589.2 -339z"/>
   <path class="fil6" d="M2353.7 893.8l-628.7 -364c-44.1,-25.6 -121.3,-22.5 -172.3,6.9l-1286.2 740.1c-51,29.4 -56.6,74 -12.5,99.5l628.7 364.1c44.2,25.6 121.4,22.5 172.4,-6.9l1286.1 -740.2c51.1,-29.3 56.7,-73.9 12.5,-99.5z"/>
   <path class="fil2" d="M882.2 1750.1l-628.6 -364c-22.8,-13.2 -32.2,-31.5 -29.1,-50.1 1.1,15.1 10.8,29.5 29.5,40.3l628.7 364.1c44.2,25.6 121.4,22.5 172.4,-6.9l1286.1 -740.2c24.8,-14.2 38.7,-32 41.6,-49.4 1.5,20.4 -12.7,42.3 -42,59.2l-1286.2 740.1c-51,29.4 -128.2,32.5 -172.4,6.9z"/>
   <path class="fil4" d="M2305.3 908.2l-604.1 -349.9c-32.8,-19 -90.2,-16.6 -128.1,5.2l-1267.9 729.6c-37.9,21.9 -42.1,55 -9.3,74l604.1 349.8c32.9,19 90.2,16.7 128.2,-5.1l1267.8 -729.7c38,-21.8 42.1,-54.9 9.3,-73.9z"/>
   <polygon class="fil6" points="1052.2,1535.2 625.9,1289.1 653.1,1273.4 1079.4,1519.5 "/>
   <polygon class="fil6" points="755.6,1463.5 539.8,1338.9 567,1323.1 782.8,1447.8 "/>
   <polygon class="fil1" points="860.4,1524 790.3,1483.5 817.6,1467.8 887.6,1508.2 "/>
   <polygon class="fil2" points="966.1,1585 896,1544.6 923.3,1528.8 993.3,1569.3 "/>
   <polygon class="fil2" points="758,1415.1 582.8,1314 610.1,1298.3 785.2,1399.4 "/>
   <polygon class="fil6" points="971.9,1538.6 796.7,1437.4 823.9,1421.7 999.1,1522.9 "/>
   <path class="fil1" d="M842.2 1322.4c-8.8,5 -23,5 -31.8,0 -8.7,-5.1 -8.7,-13.3 0,-18.3 8.8,-5.1 23,-5.1 31.8,0 8.7,5 8.7,13.2 0,18.3z"/>
   <path class="fil2" d="M889.6 1349.8c-8.8,5 -23,5 -31.7,0 -8.8,-5.1 -8.8,-13.3 0,-18.4 8.7,-5 22.9,-5 31.7,0 8.8,5.1 8.8,13.3 0,18.4z"/>
   <path class="fil6" d="M937 1377.1c-8.7,5.1 -23,5.1 -31.7,0 -8.8,-5 -8.8,-13.2 0,-18.3 8.7,-5 23,-5 31.7,0 8.8,5.1 8.8,13.3 0,18.3z"/>
   <path class="fil1" d="M984.5 1404.5c-8.8,5.1 -23,5.1 -31.8,0 -8.8,-5 -8.8,-13.2 0,-18.3 8.8,-5.1 23,-5.1 31.8,0 8.7,5.1 8.7,13.3 0,18.3z"/>
   <path class="fil2" d="M1031.9 1431.9c-8.8,5.1 -23,5.1 -31.8,0 -8.7,-5 -8.7,-13.2 0,-18.3 8.8,-5.1 23,-5.1 31.8,0 8.7,5.1 8.7,13.3 0,18.3z"/>
   <polygon class="fil1" points="1985.3,910.9 1913.5,869.4 1941.4,853.3 2013.2,894.8 "/>
   <polygon class="fil2" points="2085.2,968.6 2013.5,927.1 2041.4,911 2113.1,952.5 "/>
   <polygon class="fil2" points="1664.7,724 1592.9,682.6 1620.8,666.5 1692.6,707.9 "/>
   <polygon class="fil2" points="1969.3,952.6 1869.4,894.9 1897.3,878.8 1997.2,936.5 "/>
   <polygon class="fil6" points="2041.1,994.1 1997.2,968.8 2025.1,952.6 2069,978 "/>
   <path class="fil0" d="M2263.7 764.6l-57.7 -33.3 121.4 -70.1 121.5 70.1 -40.5 23.4 -53.5 -30.9c-3.9,-2.2 -7.6,-3.3 -10.9,-3.3 -2.5,0 -4.8,0.6 -6.9,1.8l-73.4 42.3z"/>
   <polygon class="fil7" points="2448.9,642.3 2327.4,712.4 2327.4,572.1 2448.9,502 "/>
   <polygon class="fil1" points="2327.4,572.1 2206,502 2327.4,431.9 2448.9,502 "/>
   <polygon class="fil1" points="2327.4,712.4 2206,642.3 2206,502 2327.4,572.1 "/>
   <polygon class="fil2" points="2283.7,636.6 2249.7,617 2249.7,577.8 2283.7,597.4 "/>
   <polygon class="fil0" points="168,1243.2 41.5,1170.1 168,1097.1 294.4,1170.1 "/>
   <polygon class="fil4" points="294.4,1077.4 168,1150.5 168,1004.4 294.4,931.4 "/>
   <polygon class="fil6" points="168,1004.4 41.5,931.4 168,858.4 294.4,931.4 "/>
   <polygon class="fil3" points="168,1150.5 41.5,1077.4 41.5,931.4 168,1004.4 "/>
   <polygon class="fil2" points="122.4,1071.6 87,1051.1 87,1010.3 122.4,1030.7 "/>
   <path class="fil8" d="M1590.2 1278c-114.3,66 -299.6,66 -413.9,0 -114.3,-65.9 -114.3,-172.9 0,-238.9 114.3,-66 299.6,-66 413.9,0 114.3,66 114.3,173 0,238.9z"/>
   <path class="fil9" d="M1655.4 1050.8l-12.6 0c-14.2,-27.9 -40.3,-54.2 -78.4,-76.2 -121.5,-70.1 -318.3,-70.1 -439.7,0 -38.1,22 -64.3,48.3 -78.5,76.2l-12.6 0 0 50.8c0,45.9 30.4,91.8 91.1,126.9 121.4,70.1 318.3,70.1 439.7,0 60.7,-35.1 91,-81 91,-126.9l0 -50.8z"/>
   <path class="fil10" d="M1277.1 926.3c-55.9,7.2 -109,23.2 -152.4,48.3 -38.1,22 -64.3,48.3 -78.5,76.2l-12.6 0 0 50.8c0,45.9 30.4,91.8 91.1,126.9 43.4,25.1 96.5,41.1 152.4,48.3l0 -350.5z"/>
   <path class="fil11" d="M1565.2 1228c60.2,-35 90.2,-80.7 90.2,-126.4l0 -50.8 -12.6 0c-12.1,-23.8 -33,-46.4 -62.4,-66.1l-15.2 0 0 243.3z"/>
   <path class="fil11" d="M1625.9 1177.9l0 -41.5c5.2,-6.3 9.7,-12.9 13.5,-19.5l0 41.5c-3.8,6.6 -8.3,13.1 -13.5,19.5z"/>
   <path class="fil12" d="M1316.4 1280.3c-0.6,0 -1.1,0 -1.7,-0.1l0 0c0.6,0.1 1.1,0.1 1.7,0.1z"/>
   <path class="fil13" d="M1353.6 1280.9l0 -41.4c4.5,-0.1 9,-0.2 13.5,-0.4l0 41.4c-4.5,0.2 -9,0.4 -13.5,0.4zm-25.4 -0.1c-4,-0.1 -7.9,-0.3 -11.8,-0.5 -0.6,0 -1.1,0 -1.7,-0.1l0 -41.5c4.5,0.3 8.9,0.5 13.5,0.6l0 41.5zm64.3 -1.9l0 -41.5c4.5,-0.4 9,-0.9 13.5,-1.4l0 41.5c-4.5,0.5 -9,1 -13.5,1.4zm-103.2 -0.7c-4.6,-0.5 -9.1,-1 -13.5,-1.6l0 0c0.4,0 0.8,0.1 1.3,0.2l0 -41.5c4,0.5 8.1,1 12.2,1.4l0 41.5zm142.1 -4.3l0 -41.5c4.5,-0.7 9,-1.6 13.5,-2.4l0 41.5c-4.5,0.8 -9,1.7 -13.5,2.4zm38.9 -8.2l0 -41.4c4.5,-1.2 9,-2.4 13.5,-3.7l0 41.5c-4.5,1.2 -8.9,2.5 -13.5,3.6zm-258.9 -1.9c-2.9,-0.8 -5.9,-1.6 -8.8,-2.5 2.9,0.9 5.9,1.7 8.8,2.5l0 0zm297.8 -10l0 -41.5c4.6,-1.6 9.1,-3.3 13.5,-5.1l0 41.4c-4.4,1.8 -8.9,3.5 -13.5,5.2zm38.9 -16.6l0 -41.5c4.6,-2.3 9.1,-4.7 13.5,-7.2l0 41.5c-4.4,2.5 -8.9,4.9 -13.5,7.2z"/>
   <path class="fil12" d="M1125.1 1228.7c-0.2,-0.1 -0.3,-0.1 -0.4,-0.2l0 0c0.1,0.1 0.2,0.1 0.4,0.2z"/>
   <path class="fil13" d="M1125.1 1228.7c0,0 0,0 0,0 -0.2,-0.1 -0.3,-0.1 -0.4,-0.2 0.1,0.1 0.2,0.2 0.4,0.2z"/>
   <path class="fil14" d="M1277.1 1276.8c-0.5,-0.1 -0.9,-0.2 -1.3,-0.2l0 -41.5c0.4,0.1 0.8,0.1 1.3,0.2l0 41.5zm-26.8 -4.2c-4.5,-0.8 -9,-1.7 -13.4,-2.6l0 -41.5c4.4,0.9 8.9,1.8 13.4,2.7l0 41.4zm-38.9 -8.8c-2.9,-0.8 -5.9,-1.6 -8.8,-2.5 -1.6,-0.5 -3.1,-0.9 -4.6,-1.4l0 -41.5c4.4,1.4 8.9,2.7 13.4,3.9l0 41.5zm-38.9 -12.7c-4.5,-1.7 -9,-3.6 -13.4,-5.5l0 -41.5c4.4,2 8.9,3.8 13.4,5.5l0 41.5zm-38.9 -17.7c-2.8,-1.5 -5.7,-3.1 -8.5,-4.7 -0.2,0 -0.3,-0.1 -0.4,-0.2l0 0c-1.6,-0.9 -3.1,-1.8 -4.6,-2.8l0 -41.4c1.5,0.9 3,1.8 4.6,2.7 2.9,1.7 5.9,3.3 8.9,4.9l0 41.5zm-38.9 -25c-4.8,-3.7 -9.2,-7.5 -13.5,-11.4l0 -41.4c4.2,3.8 8.7,7.6 13.5,11.4l0 41.4zm38.9 -25.7c-3,-1.6 -6,-3.3 -8.9,-5 -1.6,-0.9 -3.1,-1.8 -4.6,-2.6l0 0c1.5,0.8 3,1.7 4.6,2.6 2.9,1.7 5.9,3.4 8.9,5l0 0z"/>
   <path class="fil11" d="M1587 1213.9l0 -41.5c4.8,-3.4 9.3,-6.9 13.5,-10.4l0 41.4c-4.2,3.5 -8.7,7 -13.5,10.5z"/>
   <path class="fil14" d="M1055.8 1168.2c-5.5,-7.9 -10,-16.1 -13.5,-24.3l0 -41.7c3.5,8.3 8,16.5 13.5,24.5l0 41.5z"/>
   <path class="fil10" d="M1564.4 1177.7c-121.4,70.1 -318.3,70.1 -439.7,0 -121.5,-70.1 -121.5,-183.7 0,-253.9 121.4,-70 318.2,-70 439.7,0.1 121.4,70.1 121.4,183.7 0,253.8z"/>
   <path class="fil15" d="M1136.8 1130.9c-28.5,-3.1 -56.4,-8.5 -82.8,-16.2 -8.5,-12.9 -14.3,-26.2 -17.5,-39.7 -1.5,-6.5 -2.4,-13 -2.7,-19.6 0,0.1 0,0.1 0,0.2 -1.2,-24.3 6.2,-48.7 22,-71.5l0 25.9c0,43.4 27,86.7 81,120.9z"/>
   <path class="fil16" d="M1344.5 1239.6c-5.4,0 -10.9,-0.1 -16.3,-0.3l0 -9.3c5.4,0.2 10.9,0.3 16.3,0.3 3.1,0 6.1,0 9.1,-0.1l0 9.3c-3,0 -6.1,0.1 -9.1,0.1zm22.6 -0.5l0 -9.3c8.5,-0.3 17,-0.9 25.4,-1.6l0 9.2c-8.4,0.8 -16.9,1.3 -25.4,1.7zm-52.4 -0.4c-8.5,-0.4 -17,-1.1 -25.4,-2l0 -9.2c8.4,0.8 16.9,1.5 25.4,2l0 9.2zm91.3 -2.7l0 -9.2c8.5,-1 17,-2.2 25.4,-3.6l0 9.2c-8.4,1.4 -16.9,2.6 -25.4,3.6zm38.9 -6l0 -9.3c8.6,-1.7 17.1,-3.6 25.4,-5.7l0 9.3c-8.3,2.1 -16.8,4 -25.4,5.7zm38.9 -9.4l0 -9.3c8.6,-2.5 17.1,-5.2 25.4,-8.2l0 9.2c-8.3,3 -16.8,5.8 -25.4,8.3zm38.9 -13.4l0 -9.3c8.7,-3.5 17.2,-7.3 25.4,-11.4l0 9.2c-8.2,4.1 -16.7,7.9 -25.4,11.5zm38.9 -18.7l0 -9.2c0.9,-0.5 1.9,-1.1 2.8,-1.6 0.1,-0.1 0.2,-0.1 0.3,-0.2 0,0 0,0 0,0 0.1,-0.1 0.3,-0.1 0.4,-0.2 0,0 0,0 0.1,-0.1 0,0 0,0 0,0l0 9.3c-0.3,0.1 -0.6,0.3 -0.8,0.5 -0.9,0.5 -1.9,1 -2.8,1.5z"/>
   <path class="fil17" d="M1275.8 1235.1c-8.6,-1.1 -17.1,-2.4 -25.5,-3.9l0 -9.3c8.4,1.5 16.9,2.9 25.5,4l0 9.2zm-38.9 -6.6c-8.6,-1.8 -17.1,-3.9 -25.5,-6.2l0 -9.2c8.4,2.3 16.9,4.3 25.5,6.1l0 9.3zm-38.9 -10.1c-8.7,-2.7 -17.2,-5.6 -25.5,-8.8l0 -9.2c8.3,3.2 16.8,6.1 25.5,8.8l0 9.2zm-38.9 -14.3c-8.8,-3.7 -17.3,-7.8 -25.5,-12.2l0 -9.2c8.2,4.4 16.7,8.4 25.5,12.2l0 9.2zm-39 -19.8c-9.2,-5.5 -17.6,-11.3 -25.4,-17.3l0 -9.3c4.7,3.6 9.6,7.2 14.8,10.6 0,0 0,0 0.1,0.1 0,0 0.1,0.1 0.2,0.1 0,0 0.1,0.1 0.1,0.1 0.1,0 0.1,0.1 0.2,0.1 0,0 0.1,0.1 0.2,0.1 0,0 0,0.1 0.1,0.1 0.1,0.1 0.2,0.1 0.3,0.2l0 0c3,2 6.2,4 9.4,6l0 9.2zm-38.9 -28.7c-10,-9.3 -18.5,-18.9 -25.4,-28.9l0 -9.2c6.9,9.9 15.4,19.6 25.4,28.8l0 9.3zm-38.9 -53.4c-6.2,-15 -9.1,-30.4 -8.6,-45.8 0.7,12.3 3.6,24.6 8.6,36.7l0 9.1z"/>
   <path class="fil18" d="M1565.2 1186.5l0 -9.3c0.1,0 0.1,0 0.2,-0.1 0.1,0 0.1,0 0.2,-0.1 0,0 0.1,-0.1 0.2,-0.1 0,0 0.1,-0.1 0.1,-0.1 0.1,0 0.1,-0.1 0.2,-0.1 0.1,0 0.1,-0.1 0.2,-0.1 0,0 0.1,-0.1 0.2,-0.1 0,0 0.1,-0.1 0.1,-0.1 0.1,0 0.1,-0.1 0.2,-0.1 0.1,0 0.1,-0.1 0.2,-0.1 0,0 0.1,-0.1 0.1,-0.1 0.1,0 0.2,-0.1 0.3,-0.1 0,-0.1 0,-0.1 0.1,-0.1 0,0 0.1,-0.1 0.2,-0.1 0,-0.1 0.1,-0.1 0.1,-0.1 0.1,0 0.2,-0.1 0.3,-0.2 0,0 0,0 0,0 0.1,0 0.2,-0.1 0.3,-0.2 0,0 0,0 0.1,0 0.1,-0.1 0.2,-0.1 0.3,-0.2l0 0c6.4,-3.9 12.5,-7.9 18.2,-12l0 9.3c-6.7,4.8 -14,9.6 -21.8,14.1zm35.3 -24.5l0 -9.3c9.8,-8.2 18.3,-16.7 25.4,-25.5l0 9.2c-7.1,8.8 -15.6,17.4 -25.4,25.6zm38.9 -45.1l0 -9.2c4.5,-7.7 8.1,-15.6 10.7,-23.6 1.2,-1.5 2.3,-3.1 3.4,-4.6 -2.3,12.7 -7,25.2 -14.1,37.4z"/>
   <path class="fil18" d="M1625.9 1136.4l0 -9.2c5.2,-6.4 9.7,-12.9 13.5,-19.5l0 9.2c-3.8,6.6 -8.3,13.2 -13.5,19.5z"/>
   <path class="fil19" d="M1353.6 1239.5l0 -9.3c4.5,-0.1 9,-0.2 13.5,-0.4l0 9.3c-4.5,0.2 -9,0.3 -13.5,0.4zm-25.4 -0.2c-4.6,-0.1 -9,-0.3 -13.5,-0.6l0 -9.2c4.5,0.2 8.9,0.4 13.5,0.5l0 9.3zm64.3 -1.9l0 -9.2c4.5,-0.5 9,-0.9 13.5,-1.4l0 9.2c-4.5,0.5 -9,1 -13.5,1.4zm-103.2 -0.7c-4.1,-0.4 -8.2,-0.9 -12.2,-1.4l0 -9.3c4,0.6 8.1,1 12.2,1.5l0 9.2zm142.1 -4.3l0 -9.2c4.5,-0.8 9,-1.6 13.5,-2.5l0 9.3c-4.5,0.8 -9,1.7 -13.5,2.4zm38.9 -8.1l0 -9.3c4.5,-1.2 9,-2.4 13.5,-3.7l0 9.3c-4.5,1.3 -9,2.5 -13.5,3.7zm38.9 -12l0 -9.2c4.6,-1.7 9.1,-3.4 13.5,-5.2l0 9.3c-4.4,1.8 -8.9,3.5 -13.5,5.1zm38.9 -16.6l0 -9.2c4.6,-2.3 9.1,-4.7 13.5,-7.2l0 9.2c-4.4,2.5 -8.9,4.9 -13.5,7.2z"/>
   <path class="fil20" d="M1277.1 1235.3c-0.5,-0.1 -0.9,-0.1 -1.3,-0.2l0 -9.2c0.4,0 0.8,0.1 1.3,0.1l0 9.3zm-26.8 -4.1c-4.5,-0.9 -9,-1.8 -13.4,-2.7l0 -9.3c4.4,1 8.9,1.9 13.4,2.7l0 9.3zm-38.9 -8.9c-4.5,-1.2 -9,-2.5 -13.4,-3.9l0 -9.2c4.4,1.3 8.9,2.6 13.4,3.9l0 9.2zm-38.9 -12.7c-4.5,-1.7 -9,-3.5 -13.4,-5.5l0 -9.2c4.4,1.9 8.9,3.7 13.4,5.5l0 9.2zm-38.9 -17.7c-3,-1.6 -6,-3.2 -8.9,-4.9 -1.6,-0.9 -3.1,-1.8 -4.6,-2.7l0 -9.2c1.5,0.8 3,1.7 4.6,2.6 2.9,1.7 5.9,3.4 8.9,5l0 9.2zm-38.9 -24.9c-4.8,-3.8 -9.3,-7.6 -13.5,-11.4l0 -9.3c4.2,3.9 8.7,7.7 13.5,11.4l0 9.3z"/>
   <path class="fil18" d="M1587 1172.4l0 -9.3c4.8,-3.4 9.3,-6.8 13.5,-10.4l0 9.3c-4.2,3.5 -8.7,7 -13.5,10.4z"/>
   <path class="fil20" d="M1055.8 1126.7c-5.5,-8 -10,-16.2 -13.5,-24.5l0 -9.1c3.5,8.3 8,16.4 13.5,24.4l0 9.2z"/>
   <path class="fil17" d="M1564.7 1177.5c0,0 0,0 0,0 0,0 0,0 0,0zm0.4 -0.2c0,0 0,0 0.1,-0.1 -0.1,0.1 -0.1,0.1 -0.1,0.1zm0.3 -0.2c0.1,0 0.1,0 0.2,-0.1 -0.1,0.1 -0.1,0.1 -0.2,0.1zm0.4 -0.2c0,0 0.1,-0.1 0.1,-0.1 0,0 -0.1,0.1 -0.1,0.1zm0.3 -0.2c0.1,0 0.1,-0.1 0.2,-0.1 -0.1,0 -0.1,0.1 -0.2,0.1zm0.4 -0.2c0,0 0.1,-0.1 0.1,-0.1 0,0 -0.1,0.1 -0.1,0.1zm0.3 -0.2c0.1,0 0.1,-0.1 0.2,-0.1 -0.1,0 -0.1,0.1 -0.2,0.1zm0.3 -0.2c0.1,0 0.2,-0.1 0.3,-0.1 -0.1,0 -0.2,0.1 -0.3,0.1zm0.4 -0.2c0,0 0.1,-0.1 0.2,-0.1 -0.1,0 -0.2,0.1 -0.2,0.1zm0.3 -0.2c0.1,0 0.2,-0.1 0.3,-0.2 -0.1,0.1 -0.2,0.2 -0.3,0.2zm0.3 -0.2c0.1,0 0.2,-0.1 0.3,-0.2 -0.1,0.1 -0.2,0.2 -0.3,0.2zm0.4 -0.2c0.1,-0.1 0.2,-0.1 0.3,-0.2 -0.1,0.1 -0.2,0.1 -0.3,0.2zm0.3 -0.2c43.3,-26 70.3,-57.7 81.1,-90.8 0.1,-0.1 0.1,-0.2 0.2,-0.2 -2.6,8 -6.2,15.9 -10.7,23.6 -3.8,6.6 -8.3,13.1 -13.5,19.5 -7.1,8.8 -15.6,17.3 -25.4,25.5 -4.2,3.6 -8.7,7 -13.5,10.4 -5.7,4.1 -11.8,8.1 -18.2,12zm-458.1 -6l0 0 0 0zm-0.3 -0.2c-0.1,0 -0.1,-0.1 -0.1,-0.1 0,0.1 0,0.1 0.1,0.1zm-0.3 -0.2c-0.1,0 -0.1,-0.1 -0.2,-0.1 0.1,0 0.1,0.1 0.2,0.1zm-0.3 -0.2c-0.1,0 -0.2,-0.1 -0.2,-0.1 0,0 0.1,0.1 0.2,0.1zm-0.3 -0.2c-5.2,-3.4 -10.1,-7 -14.8,-10.6 -4.8,-3.7 -9.3,-7.5 -13.5,-11.4 -10,-9.2 -18.5,-18.9 -25.4,-28.8 -5.5,-8 -10,-16.1 -13.5,-24.4 -5,-12.1 -7.9,-24.4 -8.6,-36.7 0.1,-0.3 0.1,-0.6 0.1,-0.8 0.3,6.5 1.2,13 2.7,19.4 7.9,33.6 32.2,66.2 73,93.3z"/>
   <path class="fil21" d="M1036.5 1075c-1.5,-6.4 -2.4,-12.9 -2.7,-19.4 0,-0.1 0,-0.1 0,-0.2 0.3,6.6 1.2,13.1 2.7,19.6z"/>
   <path class="fil11" d="M1500.6 1140.9c-86.2,49.7 -226,49.7 -312.1,0 -86.2,-49.8 -86.2,-130.5 -0.1,-180.2 86.2,-49.8 226,-49.8 312.2,0 86.2,49.7 86.2,130.4 0,180.2z"/>
   <path class="fil9" d="M1188.4 972.3c86.2,-49.7 226,-49.7 312.2,0 40.5,23.4 62,53.7 64.4,84.3 2.7,-34.5 -18.8,-69.6 -64.4,-95.9 -86.2,-49.8 -226,-49.8 -312.2,0 -45.6,26.3 -67.1,61.4 -64.3,95.9 2.4,-30.7 23.8,-60.9 64.3,-84.3z"/>
   <path class="fil9" d="M1453.1 990.6l-17.2 4.9 4.9 1.9 -16.7 9.7c-13.7,-6.7 -27.8,-10 -42.4,-9.9 -14.5,0.1 -28.1,3.7 -40.7,11 -5.1,2.9 -9.2,5.9 -12.4,8.9 -3.1,3.1 -5.3,6.2 -6.5,9.5 -1.3,3.2 -2,6.3 -2.2,9 -0.2,2.8 -0.1,6.1 0.4,9.8l2 15.6c0.5,4.4 0.7,8.1 0.4,10.9 -0.4,2.9 -1.6,5.8 -3.7,8.9 -2.2,3 -5.4,5.8 -9.8,8.3 -7.9,4.6 -14.9,5.1 -21,1.6 -4.7,-2.7 -5.9,-6.1 -3.6,-10.1 2.3,-4 8.5,-9 18.7,-15l0 -11.7 -14.7 5.5 -21 -8.9c-12.9,7.9 -21.2,15.3 -24.9,22.4l-2.4 -2.7 0 11.4 0 0c0.1,7.9 6.1,15.6 18.1,23.3l-8.3 4.8 -11.3 -5.2 0 11.7 10.2 5.9 19.8 -11.5c12.4,5.8 25.7,8.5 40,8 14.3,-0.5 26.9,-3.8 37.8,-10.1 5.4,-3.2 9.9,-6.5 13.4,-10 3.5,-3.5 5.9,-7.1 7.4,-10.8 1.5,-3.8 2.4,-7.3 2.8,-10.7 0.3,-3.4 0.3,-7.2 -0.1,-11.4l-1.7 -15c-0.2,-3.1 -0.4,-5.3 -0.3,-6.6 -0.1,-1.4 0.2,-3.3 0.7,-5.7 0.5,-2.5 1.6,-4.6 3.4,-6.5 1.8,-1.9 4.2,-3.8 7.3,-5.6 3.2,-1.8 6.9,-3 11.2,-3.5 4.3,-0.6 8,0.1 11.2,1.8 1.7,0.9 2.9,1.8 3.5,2.7l0.7 2 -17.5 3.6 0 11.7 35.3 15.7c2.9,-1.8 5.5,-3.5 7.7,-5.1 2.3,-1.6 4.7,-3.5 7.1,-5.7 2.5,-2.2 4.5,-4.3 5.9,-6.3 1.5,-2.1 2.6,-4.4 3.4,-6.9 0.3,-1.2 0.5,-2.4 0.6,-3.5l0 -0.1 0 -12.3 -4.5 1 -0.2 -0.3c-2.2,-2.7 -5.4,-5.4 -9.4,-8l18.6 -10.7 0 -11.7z"/>
   <path class="fil10" d="M1238.8 1104.5l19.6 -11.3c-13.4,-8.5 -19.4,-17.1 -18,-25.9 1.5,-8.8 10.5,-18.3 27.2,-28.5l35.7 15.1c-10.2,6 -16.4,11 -18.7,15 -2.3,4 -1.1,7.4 3.6,10.1 6.1,3.5 13.1,3 21,-1.5 4.4,-2.6 7.6,-5.4 9.8,-8.4 2.1,-3.1 3.3,-6 3.7,-8.9 0.3,-2.8 0.1,-6.5 -0.4,-10.9l-2 -15.6c-0.5,-3.7 -0.6,-7 -0.4,-9.8 0.2,-2.7 0.9,-5.7 2.2,-9 1.2,-3.3 3.4,-6.4 6.5,-9.4 3.2,-3.1 7.3,-6.1 12.4,-9 12.6,-7.3 26.2,-10.9 40.7,-11 14.6,-0.1 28.7,3.2 42.4,9.9l18.6 -10.8 10.4 6 -18.6 10.7c4,2.6 7.2,5.3 9.4,8 2.3,2.8 3.8,5.4 4.3,7.8 0.6,2.3 0.5,4.8 -0.2,7.4 -0.8,2.5 -1.9,4.8 -3.4,6.9 -1.4,2 -3.4,4.1 -5.9,6.3 -2.4,2.2 -4.8,4.1 -7.1,5.7 -2.2,1.6 -4.8,3.3 -7.7,5.1l-35.3 -15.7c2.7,-1.6 4.9,-3 6.6,-4.1 1.7,-1.1 3.5,-2.3 5.3,-3.6 1.7,-1.4 3,-2.5 3.8,-3.5 0.8,-1 1.3,-2 1.7,-3.1 0.3,-1 0.1,-2 -0.6,-3 -0.6,-0.9 -1.8,-1.8 -3.5,-2.7 -3.2,-1.7 -6.9,-2.4 -11.2,-1.8 -4.3,0.5 -8,1.7 -11.2,3.6 -3.1,1.7 -5.5,3.6 -7.3,5.5 -1.8,1.9 -2.9,4 -3.4,6.5 -0.5,2.4 -0.8,4.3 -0.7,5.7 -0.1,1.4 0.1,3.6 0.3,6.6l1.7 15.1c0.4,4.1 0.4,7.9 0.1,11.3 -0.4,3.4 -1.3,7 -2.8,10.7 -1.5,3.7 -3.9,7.3 -7.4,10.8 -3.5,3.5 -8,6.8 -13.4,10 -10.9,6.3 -23.5,9.7 -37.8,10.1 -14.3,0.5 -27.6,-2.2 -40,-8l-19.8 11.5 -10.2 -5.9z"/>
   <path class="fil9" d="M1677.6 959.3l-12.6 0c-14.2,-27.9 -40.3,-54.2 -78.4,-76.2 -121.4,-70.1 -318.3,-70.1 -439.7,0 -38.1,22 -64.3,48.3 -78.4,76.2l-12.7 0 0 50.7c0,46 30.4,91.9 91.1,127 121.4,70.1 318.3,70.1 439.7,0 60.7,-35.1 91,-81 91,-127l0 -50.7z"/>
   <path class="fil10" d="M1299.3 834.8c-55.9,7.2 -109,23.2 -152.4,48.3 -38.1,22 -64.3,48.3 -78.4,76.2l-12.7 0 0 50.7c0,46 30.4,91.9 91.1,127 43.4,25.1 96.5,41.1 152.4,48.3l0 -350.5z"/>
   <path class="fil11" d="M1587.4 1136.5c60.2,-35 90.2,-80.7 90.2,-126.5l0 -50.7 -12.6 0c-12.1,-23.8 -33,-46.4 -62.4,-66.2l-15.2 0 0 243.4z"/>
   <path class="fil11" d="M1648.2 1086.4l0 -41.5c5.1,-6.4 9.6,-12.9 13.4,-19.5l0 41.5c-3.8,6.6 -8.2,13.1 -13.4,19.5z"/>
   <path class="fil13" d="M1375.8 1189.4l0 -41.4c4.5,-0.1 9,-0.2 13.5,-0.4l0 41.4c-4.5,0.2 -9,0.4 -13.5,0.4zm-25.4 -0.1c-4.5,-0.1 -9,-0.3 -13.5,-0.6l0 -41.5c4.5,0.3 9,0.5 13.5,0.6l0 41.5zm64.3 -1.9l0 -41.5c4.5,-0.4 9,-0.9 13.5,-1.4l0 41.5c-4.5,0.5 -9,1 -13.5,1.4zm-103.2 -0.7c-4.5,-0.5 -9,-1 -13.5,-1.6l0 0c0.4,0 0.9,0.1 1.3,0.2l0 -41.5c4,0.5 8.1,1 12.2,1.4l0 41.5zm142.1 -4.3l0 -41.5c4.5,-0.7 9,-1.5 13.5,-2.4l0 41.5c-4.5,0.8 -9,1.7 -13.5,2.4zm38.9 -8.2l0 -41.5c4.6,-1.1 9.1,-2.3 13.5,-3.6l0 41.4c-4.4,1.3 -8.9,2.5 -13.5,3.7zm-258.9 -1.9c-0.7,-0.2 -1.5,-0.4 -2.3,-0.7 0.8,0.3 1.6,0.5 2.3,0.7l0 0zm297.8 -10l0 -41.5c4.6,-1.6 9.1,-3.3 13.5,-5.1l0 41.4c-4.4,1.8 -8.9,3.5 -13.5,5.2zm-336.7 -2.7c-0.1,0 -0.2,-0.1 -0.3,-0.1 0.1,0 0.2,0.1 0.3,0.1l0 0zm375.6 -13.9l0 -41.5c4.6,-2.3 9.1,-4.7 13.5,-7.2l0 41.5c-4.4,2.5 -8.9,4.9 -13.5,7.2zm-194.5 -7l0 0c4.5,-0.1 9,-0.2 13.5,-0.4l0 0c-4.5,0.2 -9,0.3 -13.5,0.4zm-25.4 -0.2c-4.5,-0.1 -9,-0.3 -13.5,-0.5l0 0c4.5,0.2 9,0.4 13.5,0.5l0 0zm64.3 -1.9l0 0c4.5,-0.4 9,-0.8 13.5,-1.3l0 0c-4.5,0.5 -9,0.9 -13.5,1.3zm-103.2 -0.7c-4.1,-0.4 -8.2,-0.8 -12.2,-1.4l0 0c4,0.6 8.1,1 12.2,1.4l0 0zm142.1 -4.2l0 0c4.5,-0.8 9,-1.6 13.5,-2.5l0 0c-4.5,0.9 -9,1.7 -13.5,2.5zm38.9 -8.2l0 0c4.6,-1.2 9.1,-2.4 13.5,-3.7l0 0c-4.4,1.3 -8.9,2.5 -13.5,3.7zm38.9 -11.9l0 0c4.6,-1.7 9.1,-3.4 13.5,-5.2l0 0c-4.4,1.8 -8.9,3.5 -13.5,5.2zm38.9 -16.6l0 0c4.6,-2.3 9.1,-4.7 13.5,-7.2l0 0c-4.4,2.5 -8.9,4.9 -13.5,7.2z"/>
   <g>
    <path class="fil14" d="M1299.3 1185.3c-0.4,-0.1 -0.9,-0.2 -1.3,-0.2l0 -41.5c0.4,0.1 0.9,0.1 1.3,0.2l0 41.5zm-26.7 -4.2c-4.6,-0.8 -9.1,-1.7 -13.5,-2.6l0 -41.5c4.4,0.9 8.9,1.8 13.5,2.6l0 41.5zm-39 -8.8c-0.7,-0.2 -1.5,-0.4 -2.3,-0.7 -3.8,-1 -7.5,-2.1 -11.1,-3.2l0 -41.5c4.4,1.4 8.9,2.7 13.4,3.9l0 41.5 0 0zm-38.9 -12.7c-0.1,0 -0.2,-0.1 -0.3,-0.1 -4.4,-1.7 -8.8,-3.5 -13.1,-5.4l0 -41.5c4.4,1.9 8.9,3.8 13.4,5.5l0 41.5zm-38.9 -17.7c-3,-1.6 -6,-3.2 -8.9,-4.9l0 0c-1.6,-0.9 -3,-1.9 -4.5,-2.8l0 -41.4c1.4,0.9 2.9,1.8 4.5,2.7 2.9,1.7 5.9,3.3 8.9,4.9l0 41.5zm143.5 -7.4c-0.4,0 -0.9,-0.1 -1.3,-0.1l0 0c0.4,0 0.9,0.1 1.3,0.1l0 0zm-26.7 -4.1c-4.6,-0.8 -9.1,-1.7 -13.5,-2.7l0 0c4.4,1 8.9,1.9 13.5,2.7l0 0zm-39 -8.8c-4.5,-1.3 -9,-2.6 -13.4,-4l0 0c4.4,1.4 8.9,2.7 13.4,4l0 0zm-116.7 -4.7c-4.8,-3.7 -9.2,-7.5 -13.5,-11.4l0 -41.4c4.3,3.8 8.7,7.6 13.5,11.3l0 41.5zm77.8 -8c-4.5,-1.8 -9,-3.6 -13.4,-5.5l0 0c4.4,1.9 8.9,3.7 13.4,5.5l0 0zm-38.9 -17.7c-2.1,-1.2 -4.3,-2.3 -6.4,-3.5 2.1,1.2 4.3,2.3 6.4,3.5l0 0zm-6.5 -3.6c-0.6,-0.3 -1.1,-0.6 -1.6,-0.9 0.5,0.3 1,0.6 1.6,0.9zm-2.4 -1.4l0 0c-0.1,-0.1 -0.3,-0.1 -0.4,-0.2 0.1,0.1 0.3,0.1 0.4,0.2l0 0zm-0.5 -0.3c-0.1,0 -0.2,-0.1 -0.2,-0.1 0,0 0.1,0.1 0.2,0.1zm-0.4 -0.2c-0.1,0 -0.1,-0.1 -0.2,-0.1 0.1,0 0.1,0.1 0.2,0.1zm-0.4 -0.2c0,0 -0.1,-0.1 -0.1,-0.1 0,0 0.1,0.1 0.1,0.1zm-0.3 -0.2c-0.1,-0.1 -0.1,-0.1 -0.2,-0.1 0.1,0 0.1,0 0.2,0.1zm-0.4 -0.2c0,-0.1 -0.1,-0.1 -0.1,-0.1 0,0 0.1,0 0.1,0.1zm-0.4 -0.3c0,0 0,0 0,0 0,0 0,0 0,0zm-0.3 -0.2c0,0 -0.1,0 -0.1,0 0,0 0.1,0 0.1,0zm-0.4 -0.2c0,0 0,0 0,0l0 0z"/>
   </g>
   <path class="fil11" d="M1609.2 1122.4l0 -41.5c4.8,-3.4 9.3,-6.9 13.5,-10.5l0 41.5c-4.2,3.5 -8.7,7.1 -13.5,10.5zm0 -50.8l0 0c0.1,0 0.2,-0.1 0.3,-0.1 -0.1,0 -0.2,0.1 -0.3,0.1zm0.4 -0.2c0,0 0,-0.1 0.1,-0.1 -0.1,0.1 -0.1,0.1 -0.1,0.1z"/>
   <path class="fil14" d="M1078 1076.7c-5.5,-7.9 -10,-16.1 -13.5,-24.4l0 -41.6c3.5,8.3 8,16.5 13.5,24.5l0 41.5z"/>
   <path class="fil10" d="M1586.6 1086.2c-121.4,70.1 -318.3,70.1 -439.7,0 -121.4,-70.1 -121.4,-183.8 0,-253.9 121.4,-70.1 318.3,-70.1 439.7,0 121.4,70.1 121.4,183.8 0,253.9z"/>
   <path class="fil22" d="M1144.2 833.9c0.1,0 0.1,0 0.1,0 0,0 0,0 -0.1,0zm0.3 -0.2c0,0 0,0 0.1,0 -0.1,0 -0.1,0 -0.1,0zm0.7 -0.4c0.1,0 0.1,-0.1 0.2,-0.1 -0.1,0 -0.1,0.1 -0.2,0.1zm0.3 -0.2c0.1,0 0.1,0 0.2,-0.1 -0.1,0.1 -0.1,0.1 -0.2,0.1zm0.4 -0.2c0.1,0 0.1,-0.1 0.2,-0.1 -0.1,0 -0.1,0.1 -0.2,0.1zm0.3 -0.2c0.1,0 0.2,-0.1 0.2,-0.1 0,0 -0.1,0.1 -0.2,0.1zm0.4 -0.2c0.1,0 0.2,-0.1 0.3,-0.2 -0.1,0.1 -0.2,0.2 -0.3,0.2zm0.3 -0.2c0.1,0 0.2,-0.1 0.4,-0.2 -0.2,0.1 -0.3,0.2 -0.4,0.2z"/>
   <path class="fil15" d="M1216.6 1042.5c-48.2,0 -96.4,-6.4 -140.4,-19.3 -7.4,-11.3 -12.8,-22.9 -16.2,-34.7 -2.3,-8.2 -3.6,-16.4 -4,-24.6 0,0.1 0,0.2 0,0.2 -2.2,-46.8 27.2,-94.1 88.2,-130.2 0.1,0 0.1,0 0.1,0 0,-0.1 0.1,-0.1 0.2,-0.2 0,0 0,0 0.1,0 0.2,-0.1 0.4,-0.3 0.6,-0.4 0.1,0 0.1,-0.1 0.2,-0.1 0,0 0.1,0 0.1,-0.1 0.1,0 0.1,0 0.2,-0.1 0,0 0.1,0 0.2,-0.1 0.1,0 0.1,-0.1 0.2,-0.1 0,0 0.1,-0.1 0.1,-0.1 0.1,0 0.2,-0.1 0.2,-0.1 0.1,0 0.1,-0.1 0.2,-0.1 0.1,0 0.2,-0.1 0.3,-0.2l0 0c0.1,0 0.2,-0.1 0.4,-0.2 60.6,-34.9 139.9,-52.3 219.3,-52.3 48.2,0 96.4,6.4 140.4,19.3 42.2,64 18.8,139.2 -70.6,190.8 -60.7,35.1 -140.2,52.6 -219.8,52.6z"/>
   <path class="fil16" d="M1366.7 1148c-5.4,0 -10.9,0 -16.3,-0.2l0 -9.3c5.4,0.2 10.9,0.3 16.3,0.3 3.1,0 6.1,0 9.1,-0.1l0 9.3c-3,0 -6,0 -9.1,0zm22.6 -0.4l0 -9.3c8.5,-0.3 17,-0.9 25.4,-1.7l0 9.3c-8.4,0.8 -16.9,1.3 -25.4,1.7zm-52.4 -0.4c-8.5,-0.4 -17,-1.1 -25.4,-2l0 -9.3c8.4,0.9 16.9,1.6 25.4,2.1l0 9.2zm91.3 -2.7l0 -9.2c8.5,-1 17,-2.2 25.4,-3.6l0 9.2c-8.4,1.4 -16.9,2.6 -25.4,3.6zm38.9 -6l0 -9.3c8.6,-1.7 17.1,-3.6 25.4,-5.7l0 9.2c-8.3,2.2 -16.8,4.1 -25.4,5.8zm38.9 -9.4l0 -9.3c8.7,-2.5 17.1,-5.2 25.4,-8.2l0 9.2c-8.3,3 -16.7,5.8 -25.4,8.3zm38.9 -13.4l0 -9.3c8.7,-3.5 17.2,-7.3 25.4,-11.4l0 9.2c-8.2,4.1 -16.7,7.9 -25.4,11.5zm38.9 -18.7l0 -9.2c1,-0.5 1.9,-1.1 2.8,-1.6 0.3,-0.2 0.5,-0.3 0.8,-0.5l0 9.3c-0.3,0.1 -0.5,0.3 -0.8,0.5 -0.9,0.5 -1.8,1 -2.8,1.5z"/>
   <path class="fil17" d="M1298 1143.6c-8.6,-1.1 -17.1,-2.4 -25.4,-4l0 -9.2c8.3,1.5 16.8,2.8 25.4,4l0 9.2zm-38.9 -6.6c-8.6,-1.9 -17.1,-3.9 -25.5,-6.2l0 -9.2c8.4,2.3 16.9,4.3 25.5,6.1l0 9.3zm-38.9 -10.1c-8.7,-2.7 -17.2,-5.6 -25.5,-8.8l0 -9.2c8.3,3.1 16.8,6.1 25.5,8.7l0 9.3zm-38.9 -14.3c-8.8,-3.7 -17.3,-7.8 -25.5,-12.2l0 -9.2c8.2,4.4 16.7,8.4 25.5,12.2l0 9.2zm-38.9 -19.8c-9.3,-5.5 -17.7,-11.4 -25.5,-17.4l0 -9.2c7.8,6 16.2,11.8 25.5,17.3l0 9.3zm-39 -28.7c-10,-9.3 -18.5,-18.9 -25.4,-28.9l0 -9.2c6.9,10 15.4,19.6 25.4,28.8l0 9.3zm-38.9 -53.4c-6.2,-15 -9.1,-30.4 -8.5,-45.8 0.6,12.3 3.5,24.7 8.5,36.7l0 9.1z"/>
   <path class="fil18" d="M1587.4 1095l0 -9.3c7.8,-4.5 15.1,-9.2 21.8,-14.1l0 9.3c-6.7,4.9 -14,9.5 -21.8,14.1zm35.3 -24.6l0 -9.2c9.8,-8.2 18.3,-16.7 25.5,-25.5l0 9.2c-7.2,8.8 -15.7,17.4 -25.5,25.5zm38.9 -45l0 -9.2c9.7,-16.6 15,-33.9 15.9,-51.3 0.7,20.4 -4.6,40.9 -15.9,60.5z"/>
   <path class="fil18" d="M1648.2 1044.9l0 -9.2c5.1,-6.4 9.6,-12.9 13.4,-19.5l0 9.2c-3.8,6.6 -8.3,13.1 -13.4,19.5z"/>
   <path class="fil19" d="M1375.8 1148l0 -9.3c4.5,-0.1 9,-0.2 13.5,-0.4l0 9.3c-4.5,0.2 -9,0.3 -13.5,0.4zm-25.4 -0.2c-4.5,-0.1 -9,-0.3 -13.5,-0.6l0 -9.2c4.5,0.2 9,0.4 13.5,0.5l0 9.3zm64.3 -1.9l0 -9.3c4.5,-0.4 9,-0.8 13.5,-1.3l0 9.2c-4.5,0.5 -9,1 -13.5,1.4zm-103.2 -0.7c-4.1,-0.4 -8.2,-0.9 -12.2,-1.4l0 -9.3c4,0.6 8.1,1 12.2,1.4l0 9.3zm142.1 -4.3l0 -9.2c4.5,-0.8 9,-1.6 13.5,-2.5l0 9.3c-4.5,0.9 -9,1.7 -13.5,2.4zm38.9 -8.2l0 -9.2c4.6,-1.2 9.1,-2.4 13.5,-3.7l0 9.3c-4.4,1.3 -8.9,2.5 -13.5,3.6zm38.9 -11.9l0 -9.2c4.6,-1.7 9.1,-3.4 13.5,-5.2l0 9.3c-4.4,1.8 -8.9,3.5 -13.5,5.1zm38.9 -16.6l0 -9.2c4.6,-2.3 9.1,-4.7 13.5,-7.2l0 9.2c-4.4,2.5 -8.9,4.9 -13.5,7.2z"/>
   <path class="fil20" d="M1299.3 1143.8c-0.4,-0.1 -0.9,-0.1 -1.3,-0.2l0 -9.2c0.4,0 0.9,0.1 1.3,0.1l0 9.3zm-26.7 -4.2c-4.6,-0.8 -9.1,-1.7 -13.5,-2.6l0 -9.3c4.4,1 8.9,1.9 13.5,2.7l0 9.2zm-39 -8.8c-4.5,-1.2 -9,-2.5 -13.4,-3.9l0 -9.3c4.4,1.4 8.9,2.7 13.4,4l0 9.2zm-38.9 -12.7c-4.5,-1.7 -9,-3.6 -13.4,-5.5l0 -9.2c4.4,1.9 8.9,3.7 13.4,5.5l0 9.2zm-38.9 -17.7c-3,-1.6 -6,-3.2 -8.9,-4.9 -1.6,-0.9 -3.1,-1.8 -4.5,-2.7l0 -9.3c0.4,0.3 0.9,0.6 1.4,0.9 0,0 0,0 0,0 0.1,0.1 0.2,0.1 0.3,0.2 0,0 0.1,0 0.1,0 0.1,0.1 0.2,0.1 0.3,0.2 0,0 0,0 0,0 0.1,0.1 0.2,0.2 0.3,0.2 0,0 0.1,0 0.1,0.1 0.1,0 0.2,0.1 0.2,0.1 0.1,0 0.1,0 0.2,0.1 0,0 0.1,0.1 0.2,0.1 0,0 0.1,0.1 0.1,0.1 0.1,0 0.1,0.1 0.2,0.1 0.1,0 0.1,0.1 0.2,0.1 0,0 0.1,0.1 0.2,0.1 0,0 0.1,0.1 0.2,0.1 0,0.1 0.1,0.1 0.1,0.1 0.1,0.1 0.3,0.1 0.4,0.2l0 0c0.3,0.2 0.5,0.3 0.8,0.5 0.5,0.3 1,0.6 1.6,0.9 0,0 0.1,0 0.1,0.1 2.1,1.2 4.3,2.3 6.4,3.5l0 9.2zm-38.9 -25c-4.8,-3.7 -9.2,-7.5 -13.5,-11.3l0 -9.3c4.3,3.9 8.8,7.7 13.5,11.4l0 9.2z"/>
   <path class="fil18" d="M1609.2 1080.9l0 -9.3c0.1,0 0.2,-0.1 0.3,-0.1 0,0 0,-0.1 0.1,-0.1 0,0 0,0 0.1,-0.1 4.6,-3.3 8.9,-6.7 13,-10.1l0 9.2c-4.2,3.6 -8.7,7.1 -13.5,10.5z"/>
   <path class="fil20" d="M1078 1035.2c-5.5,-8 -10,-16.2 -13.5,-24.5l0 -9.1c3.5,8.3 8,16.4 13.5,24.4l0 9.2z"/>
   <path class="fil17" d="M1149.4 1087.7c0,-0.1 -0.1,-0.1 -0.1,-0.1 0,0 0.1,0 0.1,0.1zm-1.7 -1c-0.3,-0.2 -0.5,-0.3 -0.8,-0.5 0.3,0.2 0.5,0.3 0.8,0.5zm-1.2 -0.7c0,0 -0.1,0 -0.1,-0.1 0,0.1 0.1,0.1 0.1,0.1zm-0.3 -0.2c-0.1,0 -0.2,-0.1 -0.2,-0.1 0,0 0.1,0.1 0.2,0.1zm-0.4 -0.2c-0.1,0 -0.1,-0.1 -0.2,-0.1 0.1,0 0.1,0.1 0.2,0.1zm-0.3 -0.2c-0.1,0 -0.2,-0.1 -0.2,-0.1 0,0 0.1,0.1 0.2,0.1zm-0.4 -0.2c0,0 -0.1,-0.1 -0.2,-0.1 0.1,0 0.2,0.1 0.2,0.1zm-0.3 -0.2c-0.1,0 -0.2,-0.1 -0.3,-0.2 0.1,0.1 0.2,0.2 0.3,0.2zm-0.3 -0.2c-0.1,-0.1 -0.2,-0.1 -0.3,-0.2 0.1,0.1 0.2,0.1 0.3,0.2zm-0.4 -0.2c-0.1,-0.1 -0.2,-0.1 -0.3,-0.2 0.1,0.1 0.2,0.1 0.3,0.2zm-0.3 -0.2c-0.5,-0.3 -1,-0.6 -1.4,-0.9 -9.3,-5.5 -17.7,-11.3 -25.5,-17.3 -4.7,-3.7 -9.2,-7.5 -13.5,-11.4 -10,-9.2 -18.5,-18.8 -25.4,-28.8 -5.5,-8 -10,-16.1 -13.5,-24.4 -5,-12 -7.9,-24.4 -8.5,-36.7 0,-0.2 0,-0.5 0,-0.8 0.4,8.2 1.7,16.3 4,24.4 9.9,35 37.8,68.6 83.8,95.9zm465.7 -12.9c0,0 0,-0.1 0.1,-0.1 -0.1,0 -0.1,0.1 -0.1,0.1zm0.2 -0.2c43.5,-31.4 66.1,-69.3 67.8,-107.4 0,0.3 0,0.7 0,1 -0.9,17.4 -6.2,34.7 -15.9,51.3 -3.8,6.6 -8.3,13.1 -13.4,19.5 -7.2,8.8 -15.7,17.3 -25.5,25.5 -4.1,3.4 -8.4,6.8 -13,10.1z"/>
   <path class="fil21" d="M1060 988.5c-2.3,-8.1 -3.6,-16.2 -4,-24.4 0,0 0,-0.1 0,-0.2 0.4,8.2 1.7,16.4 4,24.6z"/>
   <path class="fil11" d="M1522.8 1049.4c-86.2,49.7 -225.9,49.7 -312.1,0 -86.2,-49.8 -86.2,-130.5 0,-180.2 86.1,-49.8 225.9,-49.8 312.1,0 86.2,49.7 86.2,130.4 0,180.2z"/>
   <path class="fil9" d="M1210.7 880.8c86.1,-49.8 225.9,-49.8 312.1,0 40.5,23.4 62,53.7 64.4,84.3 2.7,-34.5 -18.8,-69.6 -64.4,-95.9 -86.2,-49.8 -226,-49.8 -312.1,0 -45.7,26.3 -67.2,61.4 -64.4,95.9 2.4,-30.7 23.8,-60.9 64.4,-84.3z"/>
   <path class="fil9" d="M1475.3 899.1l-17.1 4.9 4.8 1.9 -16.7 9.7c-13.6,-6.7 -27.8,-10 -42.3,-9.9 -14.6,0.1 -28.2,3.7 -40.8,11 -5.1,2.9 -9.2,5.9 -12.3,8.9 -3.2,3.1 -5.4,6.2 -6.6,9.5 -1.3,3.2 -2,6.2 -2.2,9 -0.2,2.8 -0.1,6 0.4,9.8l2 15.6c0.6,4.4 0.7,8.1 0.4,10.9 -0.4,2.8 -1.6,5.8 -3.7,8.8 -2.2,3.1 -5.4,5.9 -9.8,8.4 -7.9,4.6 -14.9,5.1 -21,1.6 -4.7,-2.7 -5.9,-6.1 -3.6,-10.1 2.3,-4 8.5,-9 18.7,-15l0 -11.7 -14.7 5.5 -21 -8.9c-12.9,7.9 -21.1,15.3 -24.9,22.3l-2.4 -2.7 0 11.5 0 0c0.1,7.9 6.1,15.6 18.1,23.3l-8.3 4.8 -11.3 -5.2 0 11.7 10.2 5.8 19.8 -11.4c12.4,5.8 25.7,8.5 40,8 14.3,-0.5 26.9,-3.8 37.8,-10.1 5.4,-3.2 9.9,-6.5 13.4,-10 3.5,-3.5 6,-7.1 7.4,-10.8 1.5,-3.8 2.4,-7.3 2.8,-10.7 0.3,-3.4 0.3,-7.2 -0.1,-11.4l-1.6 -15c-0.3,-3.1 -0.4,-5.3 -0.4,-6.6 0,-1.4 0.2,-3.3 0.7,-5.7 0.5,-2.5 1.6,-4.7 3.4,-6.6 1.8,-1.8 4.2,-3.7 7.3,-5.5 3.2,-1.8 6.9,-3 11.2,-3.5 4.3,-0.6 8,0 11.3,1.8 1.6,0.9 2.8,1.8 3.4,2.7l0.7 2 -17.4 3.6 0 11.7 35.2 15.7c2.9,-1.8 5.5,-3.5 7.8,-5.1 2.2,-1.6 4.6,-3.5 7.1,-5.7 2.4,-2.2 4.4,-4.3 5.8,-6.4 1.5,-2 2.6,-4.3 3.4,-6.8 0.4,-1.2 0.5,-2.4 0.6,-3.5l0 -0.1 0 -12.3 -4.5 1 -0.1 -0.3c-2.3,-2.7 -5.4,-5.4 -9.4,-8l18.5 -10.7 0 -11.7z"/>
   <path class="fil10" d="M1261 1013l19.6 -11.3c-13.3,-8.5 -19.3,-17.1 -17.9,-25.9 1.4,-8.8 10.4,-18.3 27.1,-28.5l35.7 15.1c-10.2,6 -16.4,11 -18.7,15 -2.3,4 -1.1,7.4 3.6,10.1 6.1,3.5 13.1,3 21,-1.6 4.4,-2.5 7.6,-5.3 9.8,-8.3 2.1,-3.1 3.3,-6 3.7,-8.9 0.3,-2.8 0.2,-6.5 -0.4,-10.9l-2 -15.6c-0.5,-3.7 -0.6,-7 -0.4,-9.8 0.2,-2.7 0.9,-5.8 2.2,-9 1.2,-3.3 3.4,-6.4 6.6,-9.5 3.1,-3 7.2,-6 12.3,-8.9 12.6,-7.3 26.2,-10.9 40.8,-11 14.5,-0.1 28.7,3.2 42.3,9.9l18.6 -10.8 10.4 6 -18.5 10.7c4,2.6 7.1,5.3 9.4,8 2.2,2.8 3.7,5.4 4.3,7.7 0.5,2.4 0.5,4.9 -0.3,7.5 -0.8,2.5 -1.9,4.8 -3.4,6.9 -1.4,2 -3.4,4.1 -5.8,6.3 -2.5,2.2 -4.9,4.1 -7.1,5.7 -2.3,1.6 -4.9,3.3 -7.8,5.1l-35.2 -15.7c2.6,-1.6 4.8,-3 6.6,-4.1 1.7,-1.1 3.4,-2.3 5.2,-3.6 1.7,-1.4 3,-2.5 3.8,-3.5 0.8,-1 1.4,-2 1.7,-3.1 0.3,-1 0.1,-2 -0.6,-3 -0.6,-0.9 -1.8,-1.8 -3.4,-2.7 -3.3,-1.8 -7,-2.4 -11.3,-1.8 -4.3,0.5 -8,1.7 -11.2,3.5 -3.1,1.8 -5.5,3.7 -7.3,5.6 -1.8,1.9 -2.9,4 -3.4,6.5 -0.5,2.4 -0.7,4.3 -0.7,5.7 0,1.3 0.1,3.5 0.4,6.6l1.6 15c0.4,4.2 0.4,8 0.1,11.4 -0.4,3.4 -1.3,6.9 -2.8,10.7 -1.4,3.7 -3.9,7.3 -7.4,10.8 -3.5,3.5 -8,6.8 -13.4,10 -10.9,6.3 -23.5,9.6 -37.8,10.1 -14.3,0.5 -27.6,-2.2 -40,-8l-19.8 11.5 -10.2 -5.9z"/>
   <polygon class="fil23" points="1903.7,633.2 1725,529.8 "/>
   <path class="fil24" d="M1376.9 676.4l-33.5 -19.3 209.3 -120.4c27.8,-16.1 63.4,-24.3 97.2,-24.3 28.2,0 55.1,5.7 75.1,17.4l0 0 178.7 103.4 -36.6 21.2 -165.9 -96.1c-14.9,-8.6 -34.9,-12.8 -55.8,-12.8 -25.2,0 -51.6,6.1 -72.3,18l-196.2 112.9z"/>
   <path class="fil25" d="M1602.9 806.9l-226 -130.5 196.2 -112.9c20.7,-11.9 47.1,-18 72.3,-18 20.9,0 40.9,4.2 55.8,12.8l165.9 96.1 -264.2 152.5zm17.9 -140.4l-27.9 16.1 71.8 41.4 27.9 -16.1 -71.8 -41.4z"/>
   <polygon class="fil26" points="1664.7,724 1592.9,682.6 1620.8,666.5 1692.6,707.9 "/>
   <path class="fil4" d="M1954.9 438.7l-51.4 -29.7 189.5 -109.4c9,-5.2 9,-13.6 0,-18.8l-193.6 -111.8c-9,-5.1 -23.5,-5.1 -32.5,0l-189.5 109.5 -51.4 -29.7 189.5 -109.4c37.3,-21.6 98,-21.6 135.3,0l193.6 111.7c37.3,21.6 37.3,56.6 0,78.1l-189.5 109.5z"/>
   <path class="fil6" d="M2037.8 451.7c0,-27.4 -16.7,-59.4 -37.3,-71.3l-343.4 -198.2c-9.2,-5.4 -17.7,-5.7 -24.2,-2.1l0 0 -410 238.2 396.5 298.8 403.9 -234.4c1.3,-0.6 2.5,-1.2 3.6,-2.1l0 0c6.7,-5.1 10.9,-15.1 10.9,-28.9z"/>
   <path class="fil5" d="M1619.4 717.1l403.9 -234.4c1.3,-0.6 2.5,-1.2 3.6,-2.1l0 0 0 0c6.7,-5.1 10.9,-15.1 10.9,-28.9 0,-13.1 -3.8,-27.2 -10,-39.7l-460.5 265.9 52.1 39.2z"/>
   <path class="fil4" d="M1593.5 716.1l-343.3 -198.3c-20.7,-11.9 -37.4,-43.8 -37.4,-71.3 0,-27.5 16.7,-40.1 37.4,-28.2l343.3 198.3c20.7,11.8 37.4,43.8 37.4,71.3 0,27.4 -16.7,40.1 -37.4,28.2z"/>
   <path class="fil2" d="M1597.7 614.7l-343.4 -198.3c-9.5,-5.5 -18.1,-5.7 -24.7,-1.7 5.9,-1.8 12.9,-0.8 20.6,3.6l343.3 198.3c20.7,11.9 37.4,43.8 37.4,71.3 0,14.8 -4.9,25.3 -12.7,29.9 10.1,-3 16.8,-14.5 16.8,-31.8 0,-27.5 -16.7,-59.4 -37.3,-71.3z"/>
   <path class="fil1" d="M1542.1 649.2l-41.3 -23.8c-4.1,-2.4 -7.4,-8.7 -7.4,-14.2 0,-5.5 3.3,-8 7.4,-5.7l41.3 23.9c4.1,2.4 7.5,8.7 7.5,14.2 0,5.5 -3.4,8 -7.5,5.6z"/>
   <path class="fil3" d="M1588.7 367.3c12.4,-7.4 12.3,-19.1 -0.3,-26.2 -12.6,-7.1 -32.9,-6.9 -45.4,0.5 -12.4,7.4 -12.3,19.1 0.3,26.2 12.6,7.1 32.9,6.9 45.4,-0.5z"/>
   <path class="fil2" d="M1657.8 406.3c12.5,-7.4 12.4,-19.1 -0.2,-26.2 -12.7,-7.1 -33,-6.9 -45.4,0.5 -12.5,7.3 -12.3,19 0.3,26.2 12.6,7.1 32.9,6.8 45.3,-0.5z"/>
   <path class="fil2" d="M1727 445.2c12.4,-7.3 12.3,-19.1 -0.3,-26.2 -12.6,-7.1 -32.9,-6.8 -45.4,0.5 -12.4,7.4 -12.3,19.1 0.3,26.2 12.6,7.1 32.9,6.9 45.4,-0.5z"/>
   <path class="fil0" d="M1473.6 2276.6c-9.3,0 -18,-1.9 -24.6,-5.7l-236.6 -136.5c-14.5,-8.4 -12.6,-23 4.1,-32.7l228.4 -131.9c9.2,-5.3 20.9,-8 32,-8 9.3,0 18,1.9 24.6,5.7l236.5 136.5c14.6,8.4 12.7,23.1 -4,32.7l-228.4 131.9c-9.2,5.3 -20.9,8 -32,8z"/>
   <path class="fil5" d="M1747.8 2038l0 -81.6 -183 -0.1 -63.3 -36.5c-14.5,-8.4 -39.8,-7.3 -56.6,2.3l-59 34.1 -183.2 -0.1 0 83.9c-0.4,5.7 2.8,11.2 9.7,15.2l236.6 136.6c14.5,8.3 39.8,7.3 56.6,-2.4l228.4 -131.8c9.6,-5.6 14.3,-12.8 13.8,-19.6z"/>
   <path class="fil5" d="M1475.2 1914.2c-10.6,0.2 -21.6,2.9 -30.3,7.9l-59 34.1 -183.2 -0.1 0 83.9c-0.4,5.7 2.8,11.2 9.7,15.2l236.6 136.6c6.9,4 16.4,5.8 26.2,5.6l0 -283.2z"/>
   <path class="fil3" d="M1223.5 1956.1l-20.8 0 0 83.9c-0.4,5.7 2.8,11.2 9.7,15.2l11.1 6.4 0 -105.5z"/>
   <path class="fil3" d="M1452.6 2193.6c12.5,5.3 30.6,5 45.3,-0.6l0 -95.3 -45.3 0 0 95.9z"/>
   <path class="fil6" d="M1449 2108.1l-236.6 -136.5c-14.5,-8.4 -12.6,-23 4.1,-32.7l228.4 -131.9c16.8,-9.6 42.1,-10.7 56.6,-2.3l236.5 136.5c14.6,8.4 12.7,23.1 -4,32.7l-228.4 131.9c-16.8,9.7 -42.1,10.7 -56.6,2.3z"/>
   <path class="fil2" d="M1734 1957.9l-228.4 131.8c-16.8,9.7 -42.1,10.8 -56.6,2.4l-236.6 -136.6c-3.2,-1.8 -5.6,-4 -7.2,-6.4 -5,8 -2.7,16.7 7.2,22.5l236.6 136.5c14.5,8.4 39.8,7.4 56.6,-2.3l228.4 -131.9c13,-7.5 17,-18 11.3,-26.2 -2.3,3.6 -6.1,7.1 -11.3,10.2z"/>
   <path class="fil6" d="M1660.8 2059.6c0,6.1 -4.3,13.5 -9.6,16.5 -5.2,3.1 -9.5,0.6 -9.5,-5.5 0,-6.1 4.3,-13.5 9.5,-16.6 5.3,-3 9.6,-0.5 9.6,5.6z"/>
   <path class="fil6" d="M1691.5 2041.8c0,6.1 -4.3,13.5 -9.5,16.6 -5.3,3 -9.6,0.5 -9.6,-5.6 0,-6 4.3,-13.5 9.6,-16.5 5.2,-3.1 9.5,-0.6 9.5,5.5z"/>
   <path class="fil6" d="M1722.3 2024.1c0,6.1 -4.3,13.5 -9.6,16.5 -5.3,3.1 -9.5,0.6 -9.5,-5.5 0,-6.1 4.2,-13.5 9.5,-16.6 5.3,-3 9.6,-0.5 9.6,5.6z"/>
   <path class="fil3" d="M1463 2023.5l-110.7 -63.9c-6.8,-3.9 -6,-10.8 1.9,-15.3l106.8 -61.7c7.9,-4.6 19.8,-5 26.6,-1.1l110.6 63.9c6.8,3.9 6,10.8 -1.9,15.3l-106.8 61.7c-7.9,4.5 -19.8,5 -26.5,1.1z"/>
   <path class="fil6" d="M1473.5 1970l-15.3 -8.9c-0.9,-0.5 -0.8,-1.5 0.3,-2.1l14.8 -8.5c1.1,-0.7 2.7,-0.7 3.7,-0.2l15.3 8.9c0.9,0.5 0.8,1.5 -0.3,2.1l-14.8 8.5c-1.1,0.6 -2.7,0.7 -3.7,0.2z"/>
   <path class="fil5" d="M1352.3 1959.6l0.3 0.2 1.6 -1.1 106.8 -61.7c7.9,-4.6 19.8,-5.1 26.6,-1.1l110.3 63.7c6.3,-4.5 6.6,-10.6 0.3,-14.2l-110.6 -63.9c-6.8,-3.9 -18.7,-3.5 -26.6,1.1l-106.8 61.7c-7.9,4.5 -8.7,11.4 -1.9,15.3z"/>
   <path class="fil0" d="M2316.8 2354.3c-8.5,0 -16.6,-1.7 -22.6,-5.2l-364.2 -210.3c-13.3,-7.7 -11.7,-21.1 3.7,-30l95.5 -55.3 270.8 156.4c3.9,2.2 7.6,3.3 10.9,3.3 3,0 5.8,-0.9 8.1,-2.5l310.2 -178.9 106.8 61.6c13.3,7.7 11.7,21.2 -3.7,30.1l-386.1 223.4c-8.4,4.9 -19.2,7.4 -29.4,7.4z"/>
   <path class="fil27" d="M2744.3 1953.6l-389.4 -224.8c-15.2,-8.8 -27.5,-32.2 -27.5,-52.4l0 -931.9c0,-20.2 12.3,-29.5 27.5,-20.7l389.4 224.8c15.1,8.8 27.4,32.2 27.4,52.4l0 931.9c0,20.2 -12.3,29.4 -27.4,20.7z"/>
   <path class="fil5" d="M2744.3 948.6l-389.4 -224.8c-6.8,-3.9 -13,-4.2 -17.8,-1.5l-444.5 256.4 20.9 77.5 405.4 1154.5 442.8 -255.4 0.2 -0.1 0.8 -0.4 0 -0.1c5.5,-3.5 9,-11.1 9,-21.8l0 -931.9c0,-20.2 -12.3,-43.6 -27.4,-52.4z"/>
   <path class="fil6" d="M2744.3 948.6l-389.4 -224.8c-6.8,-3.9 -13,-4.2 -17.8,-1.5l-444.5 256.4 20.9 77.5 111.5 317.5 20.9 12.1 718.1 -414.6c-5,-9.7 -12,-18.1 -19.7,-22.6z"/>
   <path class="fil3" d="M2300 2209.9l-389.4 -224.9c-15.1,-8.7 -27.4,-32.2 -27.4,-52.4l0 -931.8c0,-20.2 12.3,-29.5 27.4,-20.7l389.4 224.8c15.2,8.7 27.4,32.2 27.4,52.4l0 931.8c0,20.2 -12.2,29.5 -27.4,20.8z"/>
   <path class="fil28" d="M2275.5 2153.8l-340.4 -196.6c-13.2,-7.6 -24,-28.1 -24,-45.8l0 -865.4c0,-17.7 10.8,-25.8 24,-18.1l340.4 196.5c13.3,7.7 24,28.2 24,45.8l0 865.4c0,17.7 -10.7,25.8 -24,18.2z"/>
   <path class="fil28" d="M2275.5 2153.8l-340.4 -196.6c-13.2,-7.6 -24,-28.1 -24,-45.8l0 -865.4c0,-17.7 10.8,-25.8 24,-18.1l340.4 196.5c13.3,7.7 24,28.2 24,45.8l0 865.4c0,17.7 -10.7,25.8 -24,18.2z"/>
   <path class="fil4" d="M2275.5 2153.8l-340.4 -196.6c-13.2,-7.6 -24,-28.1 -24,-45.8l0 -865.4c0,-17.7 10.8,-25.8 24,-18.1l340.4 196.5c13.3,7.7 24,28.2 24,45.8l0 865.4c0,17.7 -10.7,25.8 -24,18.2z"/>
   <path class="fil5" d="M2286.7 2147.2l-340.5 -196.5c-13.2,-7.7 -23.9,-28.2 -23.9,-45.8l0 -865.5c0,-6 1.2,-10.8 3.4,-14.4 -8.6,-0.1 -14.6,7.8 -14.6,21l0 865.4c0,17.7 10.8,38.2 24,45.8l340.4 196.6c8.8,5 16.4,3.2 20.6,-3.7 -2.9,0 -6.1,-1 -9.4,-2.9z"/>
   <path class="fil4" d="M2275.5 1756.4l-126.5 -73 -201.8 116.5 352.3 203.4 0 -201.1c0,-17.6 -10.7,-38.1 -24,-45.8z"/>
   <path class="fil4" d="M2275.5 1579.1l-126.5 -73.1 -201.8 116.5 352.3 203.4 0 -201c0,-17.7 -10.7,-38.2 -24,-45.8z"/>
   <path class="fil4" d="M2275.5 1401.7l-126.5 -73 -201.8 116.5 352.3 203.4 0 -201.1c0,-17.6 -10.7,-38.1 -24,-45.8z"/>
   <path class="fil4" d="M2275.5 1224.4l-126.5 -73 -201.8 116.5 352.3 203.4 0 -201.1c0,-17.6 -10.7,-38.2 -24,-45.8z"/>
   <path class="fil4" d="M2275.5 1224.4l-280.1 -161.7 -48.2 27.8 352.3 203.4 0 -23.7c0,-17.6 -10.7,-38.2 -24,-45.8z"/>
   <polygon class="fil3" points="2299.5,1293.9 1947.2,1090.5 1947.2,1202.6 2299.5,1406 "/>
   <polygon class="fil3" points="2299.5,1471.3 1947.2,1267.9 1947.2,1379.9 2299.5,1583.3 "/>
   <polygon class="fil3" points="2299.5,1648.6 1947.2,1445.2 1947.2,1557.3 2299.5,1760.7 "/>
   <polygon class="fil3" points="2299.5,1825.9 1947.2,1622.5 1947.2,1734.6 2299.5,1938 "/>
   <polygon class="fil3" points="2299.5,2003.3 1947.2,1799.9 1947.2,1912 2299.5,2115.4 "/>
   <path class="fil4" d="M2268.4 1366.1l-265.3 -153.2c-7.5,-4.4 -13.6,-16 -13.6,-26l0 -30c0,-10 6.1,-14.6 13.6,-10.2l265.3 153.2c7.5,4.3 13.6,15.9 13.6,25.9l0 30c0,10 -6.1,14.6 -13.6,10.3z"/>
   <path class="fil29" d="M2268.6 1366.2c0,0 0,-0.1 -0.1,-0.1 0.1,0 0.1,0.1 0.1,0.1zm-0.1 -0.1c0,0 0,0 -0.1,0l-265.3 -153.2c-7.5,-4.4 -13.6,-16 -13.6,-26 0,10 6.1,21.6 13.6,26l265.3 153.2c0.1,0 0.1,0 0.1,0zm-279 -209.3c0,-7.3 3.4,-11.7 8.1,-11.8 -4.7,0.1 -8.1,4.5 -8.1,11.8zm13.9 -9.9l-0.3 -0.2 0.3 0.2 0 0z"/>
   <path class="fil30" d="M2273.8 1367.7c-1.6,0 -3.4,-0.5 -5.2,-1.5 0,0 0,-0.1 -0.1,-0.1 0,0 0,0 0,0 0,0 0,0 -0.1,0l-265.3 -153.2c-7.5,-4.4 -13.6,-16 -13.6,-26l0 -30c0,0 0,0 0,-0.1 0,-7.3 3.4,-11.7 8.1,-11.8 0,0 0.1,0 0.1,0 0,0 0,0 0,0 1.7,0 3.5,0.6 5.4,1.7l0 0 0.3 0.2c-0.3,1.3 -0.5,2.7 -0.5,4.3l0 30c0,10 6.1,21.6 13.6,25.9l265 153c-1.1,4.8 -4,7.6 -7.7,7.6z"/>
   <path class="fil2" d="M2185.1 1283.8l-159.6 -92.2c-2.7,-1.5 -4.8,-5.6 -4.8,-9.1 0,-3.5 2.1,-5.1 4.8,-3.6l159.6 92.2c2.7,1.5 4.8,5.6 4.8,9.1 0,3.5 -2.1,5.1 -4.8,3.6z"/>
   <path class="fil4" d="M2268.4 1542.3l-265.3 -153.2c-7.5,-4.3 -13.6,-15.9 -13.6,-25.9l0 -30c0,-10 6.1,-14.6 13.6,-10.3l265.3 153.2c7.5,4.3 13.6,15.9 13.6,25.9l0 30.1c0,9.9 -6.1,14.5 -13.6,10.2z"/>
   <path class="fil29" d="M2269.1 1542.7l0 0zm-0.1 -0.1c-0.2,0 -0.4,-0.2 -0.6,-0.3l-265.3 -153.2c-7.5,-4.3 -13.6,-15.9 -13.6,-25.9l0 0c0,10 6.1,21.6 13.6,25.9l265.3 153.2c0.2,0.1 0.4,0.3 0.6,0.3zm-279.5 -209.5c0,-7.4 3.4,-11.8 8.1,-11.8 -4.7,0 -8.1,4.4 -8.1,11.8zm13.9 -10l-0.3 -0.2 0.3 0.2 0 0zm-5.7 -1.8c0,0 0,0 0,0l0 0c0,0 0,0 0,0z"/>
   <path class="fil30" d="M2273.8 1543.9c-1.5,0 -3,-0.4 -4.7,-1.2l0 0c0,0 0,0 -0.1,-0.1 -0.2,0 -0.4,-0.2 -0.6,-0.3l-265.3 -153.2c-7.5,-4.3 -13.6,-15.9 -13.6,-25.9l0 -30c0,-0.1 0,-0.1 0,-0.1 0,-7.4 3.4,-11.8 8.1,-11.8 0,0 0.1,0 0.1,0 0,0 0,0 0,0 1.7,0 3.5,0.5 5.4,1.6l0 0 0.3 0.2c-0.3,1.3 -0.5,2.7 -0.5,4.3l0 30c0,10 6.1,21.6 13.6,26l265 153c-1.1,4.8 -4,7.5 -7.7,7.5z"/>
   <path class="fil2" d="M2185.1 1460l-159.6 -92.2c-2.7,-1.5 -4.8,-5.6 -4.8,-9.1 0,-3.5 2.1,-5.1 4.8,-3.6l159.6 92.2c2.7,1.5 4.8,5.6 4.8,9.1 0,3.5 -2.1,5.2 -4.8,3.6z"/>
   <path class="fil4" d="M2268.4 1720.2l-265.3 -153.2c-7.5,-4.3 -13.6,-15.9 -13.6,-25.9l0 -30c0,-10 6.1,-14.6 13.6,-10.3l265.3 153.2c7.5,4.3 13.6,15.9 13.6,25.9l0 30c0,10 -6.1,14.6 -13.6,10.3z"/>
   <path class="fil29" d="M2269 1720.5c0,0 0,0 0,0 0,0 0,0 0,0zm0 0c-0.2,-0.1 -0.4,-0.2 -0.6,-0.3l-265.3 -153.2c-7.5,-4.3 -13.6,-15.9 -13.6,-25.9l0 0c0,10 6.1,21.6 13.6,25.9l265.3 153.2c0.2,0.1 0.4,0.2 0.6,0.3zm-279.5 -209.4c0,-7.5 3.4,-11.9 8.2,-11.9 -4.8,0 -8.2,4.4 -8.2,11.9zm13.9 -10.1l-0.3 -0.2 0.3 0.2 0 0zm-0.3 -0.2c-0.1,0 -0.1,-0.1 -0.2,-0.1 0.1,0 0.1,0.1 0.2,0.1zm-5.4 -1.6c0,0 0,0 0,0l0 0c0,0 0,0 0,0z"/>
   <path class="fil30" d="M2273.8 1721.8c-1.5,0 -3.1,-0.4 -4.8,-1.3 0,0 0,0 0,0 0,0 0,0 0,0 -0.2,-0.1 -0.4,-0.2 -0.6,-0.3l-265.3 -153.2c-7.5,-4.3 -13.6,-15.9 -13.6,-25.9l0 -30c0,-7.5 3.4,-11.9 8.2,-11.9 0,0 0,0 0,0 0,0 0,0 0,0 1.6,0 3.4,0.5 5.2,1.5 0.1,0 0.1,0.1 0.2,0.1l0 0 0.3 0.2c-0.3,1.3 -0.5,2.7 -0.5,4.3l0 30c0,10 6.1,21.6 13.6,25.9l265 153c-1.1,4.8 -4,7.6 -7.7,7.6z"/>
   <path class="fil6" d="M2185.1 1637.9l-159.6 -92.2c-2.7,-1.5 -4.8,-5.6 -4.8,-9.1 0,-3.5 2.1,-5.1 4.8,-3.6l159.6 92.2c2.7,1.5 4.8,5.6 4.8,9.1 0,3.5 -2.1,5.1 -4.8,3.6z"/>
   <path class="fil4" d="M2268.4 1899.7l-265.3 -153.2c-7.5,-4.3 -13.6,-15.9 -13.6,-25.9l0 -30c0,-10 6.1,-14.6 13.6,-10.3l265.3 153.2c7.5,4.4 13.6,16 13.6,26l0 30c0,10 -6.1,14.5 -13.6,10.2z"/>
   <path class="fil29" d="M2271 1900.9c-0.8,-0.3 -1.7,-0.6 -2.6,-1.2l-265.3 -153.2c-7.5,-4.3 -13.6,-15.9 -13.6,-25.9l0 0c0,10 6.1,21.6 13.6,25.9l265.3 153.2c0.9,0.5 1.8,0.9 2.6,1.2zm-281.5 -210.3c0,-7.4 3.4,-11.9 8.1,-11.9 -4.7,0 -8.1,4.5 -8.1,11.9zm13.9 -10.1l-0.3 -0.2 0.3 0.2 0 0zm-5.7 -1.8l0 0z"/>
   <path class="fil30" d="M2273.8 1901.3c-0.9,0 -1.8,-0.1 -2.8,-0.4 -0.8,-0.3 -1.7,-0.7 -2.6,-1.2l-265.3 -153.2c-7.5,-4.3 -13.6,-15.9 -13.6,-25.9l0 -30c0,-7.4 3.4,-11.9 8.1,-11.9 0.1,0 0.1,0 0.1,0l0 0c1.6,0 3.5,0.5 5.4,1.6l0 0 0.3 0.2c-0.3,1.3 -0.5,2.7 -0.5,4.4l0 30c0,9.9 6.1,21.6 13.6,25.9l265 153c-1.1,4.8 -4,7.5 -7.7,7.5z"/>
   <path class="fil1" d="M2185.1 1817.4l-159.6 -92.1c-2.7,-1.6 -4.8,-5.6 -4.8,-9.2 0,-3.5 2.1,-5.1 4.8,-3.6l159.6 92.2c2.7,1.6 4.8,5.6 4.8,9.1 0,3.6 -2.1,5.2 -4.8,3.6z"/>
   <path class="fil4" d="M2268.4 2075.7l-265.3 -153.2c-7.5,-4.3 -13.6,-15.9 -13.6,-25.9l0 -30c0,-10 6.1,-14.6 13.6,-10.3l265.3 153.2c7.5,4.3 13.6,15.9 13.6,25.9l0 30c0,10 -6.1,14.6 -13.6,10.3z"/>
   <path class="fil29" d="M2269.1 2076.1c0,0 0,0 0,0 0,0 0,0 0,0zm-0.1 -0.1c-0.2,-0.1 -0.4,-0.2 -0.6,-0.3l-265.3 -153.2c-7.5,-4.3 -13.6,-15.9 -13.6,-25.9l0 0c0,10 6.1,21.6 13.6,25.9l265.3 153.2c0.2,0.1 0.4,0.2 0.6,0.3zm-279.5 -209.4c0,-7.5 3.4,-11.9 8.1,-11.9 -4.7,0 -8.1,4.4 -8.1,11.9zm13.9 -10.1l-0.3 -0.2 0.3 0.2c0,0 0,0 0,0zm-5.7 -1.8l0 0z"/>
   <path class="fil30" d="M2273.8 2077.3c-1.5,0 -3,-0.4 -4.7,-1.2 0,0 0,0 0,0 0,0 0,-0.1 -0.1,-0.1 -0.2,-0.1 -0.4,-0.2 -0.6,-0.3l-265.3 -153.2c-7.5,-4.3 -13.6,-15.9 -13.6,-25.9l0 -30c0,-7.5 3.4,-11.9 8.1,-11.9 0.1,0 0.1,0 0.1,0l0 0c1.6,0 3.5,0.5 5.4,1.6l0 0 0.3 0.2c-0.3,1.3 -0.5,2.7 -0.5,4.3l0 30c0,10 6.1,21.6 13.6,25.9l265 153.1c-1.1,4.7 -4,7.5 -7.7,7.5z"/>
   <path class="fil6" d="M2185.1 1993.4l-159.6 -92.2c-2.7,-1.5 -4.8,-5.6 -4.8,-9.1 0,-3.5 2.1,-5.1 4.8,-3.6l159.6 92.2c2.7,1.5 4.8,5.6 4.8,9.1 0,3.5 -2.1,5.1 -4.8,3.6z"/>
   <polygon class="fil4" points="1974.9,1218.6 1947.2,1202.6 1974.9,1218.6 "/>
   <polygon class="fil31" points="1974.9,1218.6 1947.2,1202.6 1947.2,1090.5 1974.9,1106.5 "/>
   <polygon class="fil4" points="1974.9,1396 1947.2,1379.9 1974.9,1396 "/>
   <polygon class="fil31" points="1974.9,1396 1947.2,1379.9 1947.2,1267.9 1974.9,1283.9 "/>
   <polygon class="fil4" points="1974.9,1573.3 1947.2,1557.3 1974.9,1573.3 "/>
   <polygon class="fil31" points="1974.9,1573.3 1947.2,1557.3 1947.2,1445.2 1974.9,1461.2 "/>
   <polygon class="fil4" points="1974.9,1750.6 1947.2,1734.6 1974.9,1750.6 "/>
   <polygon class="fil31" points="1974.9,1750.6 1947.2,1734.6 1947.2,1622.5 1974.9,1638.6 "/>
   <polygon class="fil4" points="1974.9,1928 1947.2,1912 1974.9,1928 "/>
   <polygon class="fil31" points="1974.9,1928 1947.2,1912 1947.2,1799.9 1974.9,1815.9 1974.9,1928 "/>
   <path class="fil6" d="M2216.6 1294.9c0,3.5 -2.5,5 -5.6,3.2 -3.1,-1.8 -5.6,-6.1 -5.6,-9.7 0,-3.6 2.5,-5.1 5.6,-3.3 3.1,1.8 5.6,6.2 5.6,9.8z"/>
   <path class="fil1" d="M2240.4 1308.6c0,3.6 -2.5,5 -5.6,3.2 -3.1,-1.7 -5.6,-6.1 -5.6,-9.7 0,-3.6 2.5,-5 5.6,-3.2 3.1,1.8 5.6,6.1 5.6,9.7z"/>
   <path class="fil6" d="M2264.2 1322.4c0,3.5 -2.5,5 -5.6,3.2 -3.1,-1.8 -5.6,-6.1 -5.6,-9.7 0,-3.6 2.5,-5.1 5.6,-3.3 3.1,1.8 5.6,6.2 5.6,9.8z"/>
   <path class="fil1" d="M2216.6 1472.1c0,3.6 -2.5,5 -5.6,3.2 -3.1,-1.7 -5.6,-6.1 -5.6,-9.7 0,-3.6 2.5,-5 5.6,-3.2 3.1,1.8 5.6,6.1 5.6,9.7z"/>
   <path class="fil6" d="M2240.4 1485.9c0,3.5 -2.5,5 -5.6,3.2 -3.1,-1.8 -5.6,-6.1 -5.6,-9.7 0,-3.6 2.5,-5.1 5.6,-3.3 3.1,1.8 5.6,6.2 5.6,9.8z"/>
   <path class="fil2" d="M2264.2 1499.6c0,3.6 -2.5,5 -5.6,3.2 -3.1,-1.8 -5.6,-6.1 -5.6,-9.7 0,-3.6 2.5,-5 5.6,-3.2 3.1,1.8 5.6,6.1 5.6,9.7z"/>
   <path class="fil2" d="M2216.6 1650.7c0,3.6 -2.5,5 -5.6,3.2 -3.1,-1.7 -5.6,-6.1 -5.6,-9.7 0,-3.6 2.5,-5 5.6,-3.2 3.1,1.8 5.6,6.1 5.6,9.7z"/>
   <path class="fil1" d="M2240.4 1664.4c0,3.6 -2.5,5.1 -5.6,3.3 -3.1,-1.8 -5.6,-6.2 -5.6,-9.7 0,-3.6 2.5,-5.1 5.6,-3.3 3.1,1.8 5.6,6.2 5.6,9.7z"/>
   <path class="fil2" d="M2264.2 1678.2c0,3.6 -2.5,5 -5.6,3.2 -3.1,-1.7 -5.6,-6.1 -5.6,-9.7 0,-3.6 2.5,-5 5.6,-3.2 3.1,1.8 5.6,6.1 5.6,9.7z"/>
   <path class="fil2" d="M2216.6 1826.7c0,3.6 -2.5,5 -5.6,3.2 -3.1,-1.8 -5.6,-6.1 -5.6,-9.7 0,-3.6 2.5,-5 5.6,-3.2 3.1,1.7 5.6,6.1 5.6,9.7z"/>
   <path class="fil6" d="M2240.4 1840.4c0,3.6 -2.5,5.1 -5.6,3.3 -3.1,-1.8 -5.6,-6.2 -5.6,-9.7 0,-3.6 2.5,-5.1 5.6,-3.3 3.1,1.8 5.6,6.2 5.6,9.7z"/>
   <path class="fil6" d="M2264.2 1854.2c0,3.6 -2.5,5 -5.6,3.2 -3.1,-1.8 -5.6,-6.1 -5.6,-9.7 0,-3.6 2.5,-5 5.6,-3.2 3.1,1.8 5.6,6.1 5.6,9.7z"/>
   <path class="fil2" d="M2216.6 2005.1c0,3.6 -2.5,5 -5.6,3.2 -3.1,-1.8 -5.6,-6.1 -5.6,-9.7 0,-3.6 2.5,-5 5.6,-3.2 3.1,1.7 5.6,6.1 5.6,9.7z"/>
   <path class="fil1" d="M2240.4 2018.8c0,3.6 -2.5,5.1 -5.6,3.3 -3.1,-1.8 -5.6,-6.2 -5.6,-9.8 0,-3.5 2.5,-5 5.6,-3.2 3.1,1.8 5.6,6.1 5.6,9.7z"/>
   <path class="fil6" d="M2264.2 2032.6c0,3.6 -2.5,5 -5.6,3.2 -3.1,-1.8 -5.6,-6.1 -5.6,-9.7 0,-3.6 2.5,-5 5.6,-3.3 3.1,1.8 5.6,6.2 5.6,9.8z"/>
   <path class="fil4" d="M2392.7 1294.2l0 778.3 320.1 -184.8 0 -778.3 -320.1 184.8zm-6.6 789.7l0 -793.5 1.6 -0.9 331.7 -191.5 0 793.5 -1.7 0.9 -331.6 191.5z"/>
   <path class="fil4" d="M2633.2 1455l-148.7 85.9c-10,5.7 -18.1,-0.4 -18.1,-13.7l0 -82.4c0,-13.4 8.1,-28.8 18.1,-34.6l148.7 -85.9c10,-5.7 18.1,0.4 18.1,13.7l0 82.5c0,13.3 -8.1,28.8 -18.1,34.5z"/>
   <path class="fil3" d="M2636.8 1322.7c0.9,2.4 1.4,5.1 1.4,8.3l0 82.5c0,13.3 -8.1,28.8 -18.1,34.5l-148.7 85.9c-1.2,0.7 -2.5,1.2 -3.6,1.6 2.7,7.2 9.1,9.8 16.7,5.4l148.7 -85.9c10,-5.7 18.1,-21.2 18.1,-34.5l0 -82.5c0,-11.6 -6.2,-17.8 -14.5,-15.3z"/>
   <path class="fil2" d="M2606.1 1405.4c2.7,-1.6 4.9,-0.3 4.9,2.8l0 18.8c0,3.2 -2.2,7.1 -4.9,8.6 -2.8,1.6 -5,0.3 -5,-2.8l0 -18.8c0,-3.2 2.2,-7 5,-8.6z"/>
   <path class="fil6" d="M2584.7 1420c2.8,-1.6 5,-0.3 5,2.9l0 16.4c0,3.2 -2.2,7.1 -5,8.7 -2.7,1.5 -5,0.3 -5,-2.9l0 -16.5c0,-3.1 2.3,-7 5,-8.6z"/>
   <path class="fil1" d="M2563.4 1414c2.7,-1.6 5,-0.3 5,2.9l0 34.7c0,3.2 -2.3,7.1 -5,8.7 -2.8,1.6 -5,0.3 -5,-2.9l0 -34.8c0,-3.1 2.2,-7 5,-8.6z"/>
   <path class="fil6" d="M2542.1 1406.3c2.7,-1.6 4.9,-0.3 4.9,2.9l0 54.8c0,3.1 -2.2,7 -4.9,8.6 -2.8,1.6 -5,0.3 -5,-2.9l0 -54.8c0,-3.2 2.2,-7 5,-8.6z"/>
   <path class="fil6" d="M2520.7 1424.4c2.8,-1.6 5,-0.3 5,2.8l0 49.1c0,3.2 -2.2,7 -5,8.6 -2.7,1.6 -4.9,0.3 -4.9,-2.9l0 -49c0,-3.2 2.2,-7.1 4.9,-8.6z"/>
   <path class="fil2" d="M2499.4 1459.1c2.8,-1.6 5,-0.3 5,2.9l0 26.6c0,3.2 -2.2,7 -5,8.6 -2.8,1.6 -5,0.3 -5,-2.9l0 -26.6c0,-3.2 2.2,-7 5,-8.6z"/>
   <path class="fil1" d="M2601.2 1395.9c0,3.1 2.2,4.4 4.9,2.8 2.7,-1.6 4.8,-5.4 4.8,-8.5 0,-3.1 -2.1,-4.3 -4.8,-2.8 -2.7,1.6 -4.9,5.4 -4.9,8.5z"/>
   <path class="fil2" d="M2601.2 1378.2c0,3.1 2.2,4.4 4.9,2.9 2.7,-1.6 4.8,-5.4 4.8,-8.5 0,-3.2 -2.1,-4.4 -4.8,-2.9 -2.7,1.6 -4.9,5.4 -4.9,8.5z"/>
  </g>
 </g>
</svg>
