<?xml version="1.0" encoding="UTF-8"?>
<!DOCTYPE svg PUBLIC "-//W3C//DTD SVG 1.1//EN" "http://www.w3.org/Graphics/SVG/1.1/DTD/svg11.dtd">
<!-- Creator: CorelDRAW 2019 (64-Bit) -->
<svg xmlns="http://www.w3.org/2000/svg" xml:space="preserve" width="283px" height="248px" version="1.1" style="shape-rendering:geometricPrecision; text-rendering:geometricPrecision; image-rendering:optimizeQuality; fill-rule:evenodd; clip-rule:evenodd"
viewBox="0 0 2830 2476.2"
 xmlns:xlink="http://www.w3.org/1999/xlink"
 xmlns:xodm="http://www.corel.com/coreldraw/odm/2003">
 <defs>
  <style type="text/css">
   <![CDATA[
    .fil10 {fill:#FDDEAF}
    .fil12 {fill:#FCCB00}
    .fil46 {fill:#F9EFF7}
    .fil9 {fill:#F2C67E}
    .fil8 {fill:#F0F6F9}
    .fil23 {fill:#E9DFEA}
    .fil7 {fill:#E4ECED}
    .fil39 {fill:#DEE5F1}
    .fil1 {fill:#DDE4E4}
    .fil14 {fill:#D4E5F5}
    .fil40 {fill:#D3D9E7}
    .fil19 {fill:#D3C7D4}
    .fil6 {fill:#D2DEDF}
    .fil45 {fill:#CEDFE1}
    .fil3 {fill:#C9D2D2}
    .fil38 {fill:#C4C9D8}
    .fil35 {fill:#BACCCE}
    .fil41 {fill:#6C3522}
    .fil48 {fill:#ACAAA8}
    .fil24 {fill:#A8B5B7}
    .fil37 {fill:#A1A6B3}
    .fil49 {fill:#959390}
    .fil36 {fill:#8C8E99}
    .fil43 {fill:#827E7D}
    .fil20 {fill:#392B25}
    .fil34 {fill:#6C6359}
    .fil11 {fill:#392D26}
    .fil42 {fill:#6D6867}
    .fil47 {fill:#55C0D6}
    .fil25 {fill:#554F46}
    .fil44 {fill:#555552}
    .fil32 {fill:#4CA9B5}
    .fil22 {fill:#523C4F}
    .fil0 {fill:#1FB2C2}
    .fil18 {fill:#2C2A28}
    .fil17 {fill:#252422}
    .fil31 {fill:#3D7E85}
    .fil2 {fill:#0F9AA8}
    .fil16 {fill:#466B8F}
    .fil28 {fill:#3F6578}
    .fil15 {fill:#3D5A79}
    .fil27 {fill:#365362}
    .fil26 {fill:#304956}
    .fil29 {fill:#282F3B}
    .fil33 {fill:#282D39}
    .fil13 {fill:#284574}
    .fil30 {fill:#283C5D}
    .fil21 {fill:#26344B}
    .fil5 {fill:#293B5E}
    .fil4 {fill:#27334B}
   ]]>
  </style>
 </defs>
 <g id="Layer_x0020_1">
  <metadata id="CorelCorpID_0Corel-Layer"/>
  <g id="_978513584">
   <path class="fil0" d="M745.1 1515c6.5,22.6 12,28.4 21.9,38.5 7.4,7.5 47.5,33 50.3,40.4 2.2,5.6 2.3,14.9 -6.5,20.5 -9.3,6 -27.3,5.8 -39.7,3.9 -26,-4 -46.2,-19.2 -66.9,-34.6 -2.1,2.1 -11.4,-1 -20.1,-6.1 -7.1,-4.2 -10.7,-7.7 -11.6,-14.4 -0.6,-4.6 0.3,-14.7 0.9,-19.6 1.6,-13.5 7.3,-24.1 13.4,-37.7l25.7 -5.8 32.6 14.9z"/>
   <path class="fil1" d="M818.4 1598.1c0.7,5.4 -0.8,12 -7.6,16.3 -9.3,6 -27.3,5.8 -39.7,3.9 -26,-4 -46.2,-19.2 -66.9,-34.6 -2.1,2.2 -11.4,-1 -20.1,-6.1 -7.1,-4.2 -10.7,-7.7 -11.6,-14.4 -0.4,-2.4 -0.2,-6.3 0,-10.2 3.3,9.9 24.1,19.8 34.1,20.1 20.7,15.4 41.1,29.8 67.1,33.7 12.3,1.9 30.3,2.1 39.6,-3.8 2.2,-1.5 3.9,-3.1 5.1,-4.9z"/>
   <path class="fil2" d="M871.7 1485.5c6.6,22.5 12,28.4 21.9,38.4 7.4,7.6 47.4,33.1 50.3,40.4 2.2,5.7 2.3,15 -6.5,20.6 -9.3,6 -27.3,5.7 -39.7,3.9 -26,-4 -46.2,-19.2 -66.9,-34.6 -2.1,2.1 -11.4,-1 -20.1,-6.1 -7.1,-4.2 -10.7,-7.8 -11.6,-14.5 -0.6,-4.5 0.3,-14.6 0.9,-19.5 1.6,-13.5 7.3,-24.1 13.4,-37.7l25.7 -5.9 32.6 15z"/>
   <path class="fil3" d="M945 1568.6c0.7,5.3 -0.8,11.9 -7.6,16.3 -9.3,6 -27.3,5.7 -39.7,3.9 -26,-4 -46.2,-19.2 -66.9,-34.6 -2.1,2.1 -11.4,-1 -20.1,-6.1 -7.1,-4.2 -10.7,-7.8 -11.6,-14.5 -0.3,-2.4 -0.2,-6.3 0,-10.2 3.3,10 24.1,19.8 34.1,20.2 20.7,15.4 41.1,29.7 67.1,33.7 12.4,1.9 30.3,2.1 39.6,-3.9 2.2,-1.4 3.9,-3 5.1,-4.8z"/>
   <path class="fil4" d="M741.6 957.5c-6.4,30.3 -14.1,56.5 -16.5,87.1 -4.3,57.6 59.1,152.5 62.8,215l-2.4 45.3c-4.7,47 3.7,107.8 15,183.7 12.3,28.1 76.5,33.4 83.6,25.5 1.3,-1.9 -11.1,-266.3 -7.3,-299.1 3.7,-92.9 -33.7,-177.5 -30.5,-276.6l-104.7 19.1z"/>
   <path class="fil5" d="M671.5 972.9c-5.5,48.9 -17.1,72.2 -7.5,124.6 9.5,52.2 16.6,110.9 19.7,163.8l-7.6 68.3c-4.8,47.1 5.7,110.7 1.6,183.1 -8.7,32.7 74.3,53.9 83.1,35l18 -305.3c3.6,-93 6.6,-166.9 9.8,-266l-117.1 -3.5z"/>
   <path class="fil6" d="M844.1 836.5c7.6,22.5 38.2,24.9 54.3,17.9 9.9,-4.3 15.2,-27.7 16.7,-39.7 -4.7,-37.9 -33.4,-168.6 -53.1,-187.3 -23.3,-22.1 -65.2,-24.4 -72.7,38.5 -3.3,28.1 35.9,116.5 54.8,170.6z"/>
   <path class="fil7" d="M652.4 724.5c-9.8,30.3 -2.3,71.2 1.5,102.5 5.5,46 9.9,70.5 10.3,127.8 0.1,17.1 -5.9,70.5 -3.6,101.2 44.6,27.8 175.1,-11.4 183.8,-64.6l24.2 -224.3c6.5,-39.6 16.2,-165.5 -45.8,-157.1 -23.2,3.2 -58.2,1.7 -91.8,21.1 -42.8,24.8 -78.4,73.2 -78.6,93.4z"/>
   <path class="fil8" d="M697.2 914.1c21.2,28.5 69.3,7.1 69.4,-15.6l-24.8 -168.2c-7.4,-56.1 -110,-66.4 -83.2,43.6 8.7,36 25.2,82.3 33.2,125.1 1,5.2 2.1,10.7 5.4,15.1z"/>
   <path class="fil9" d="M736.9 578.5c2,16.6 -0.9,50.9 -4.4,65.8 -6.1,26 70,51.2 67.6,2.1 -0.4,-7.2 0.4,-14.2 1.2,-21.5l-64.4 -46.4z"/>
   <path class="fil9" d="M866.9 564.7c7.9,19.8 22.5,41.3 18,61.5 -1.7,7.5 -7.8,14.3 -4.1,30.4l-33.2 10c-1.1,-10.8 -0.2,-15.6 -1.2,-20.1 -1.5,-6.2 -10.7,-8.7 -14.7,-22.6 -5.3,-9.6 -12,-19.7 -6.3,-22.8 3.2,-1.7 6.9,3.3 9.7,6.9 2.9,3.7 4.7,6 7.8,9.8 0.6,-3.8 1.2,-7.5 1.7,-11.2 -2.5,-6.7 -5.1,-13.4 -7.6,-20l-6.5 -21.8c-1.2,-4.5 8.3,-10.4 15.9,-12.5 14.2,-4 16.9,3.2 20.5,12.4z"/>
   <path class="fil8" d="M732.7 631.6c11.1,23.7 33.8,37.1 46.9,43.3l-10.4 29.2c-32.6,-22.8 -38.9,-37.2 -44.8,-50.3l8.3 -22.2z"/>
   <path class="fil8" d="M800.9 641.7c-3.5,13 -10.9,19.9 -21.9,32.9 5,8.5 9.9,16.9 14.9,25.3 10.6,-19.2 12.2,-25.9 9.3,-44.9l-2.3 -13.3z"/>
   <path class="fil10" d="M844.9 561.7c0.4,22.8 -18.8,80.3 -36.1,93.2 -3.8,2.8 -13.1,4.5 -18.1,3.9 -10,-1 -33.1,-22.7 -38.7,-29.1 -9.1,-10.4 -9.3,-18 -12.6,-38.5l-5.9 -17 2.7 -57c33.2,-12 62.5,-20.4 78.7,-15.2 16.4,5.1 29.2,18 30,59.7z"/>
   <path class="fil11" d="M857.7 570.2c-3.5,-11.6 6.6,-35.9 -14.9,-58.6 3.3,2.3 6.7,5.7 10.1,9.6 -2.5,-12.9 -4.3,-19.9 -20.2,-25.2 4.3,0.8 6.1,1.7 10.6,2.9 -9.8,-21.2 -57.7,-34.6 -84.2,-17.8 -27,7.5 -42.5,30.4 -41.5,53.8 0.8,16.9 7.4,37.7 15.1,55 3,6.7 4.8,13 4.9,17l2.4 -18.3c-6.7,-12.5 -3.9,-29.9 5.3,-32.3 13.5,-3.6 14.2,7.5 14.2,29.6 9.5,-21.3 9.7,-22.8 25.2,-40.9 16.1,-3.4 49,32.7 73,25.2z"/>
   <path class="fil8" d="M780.9 830.8l78.6 -30.1c18,2.1 30.7,22.4 24.6,40 -49,31.9 -94,64.9 -133,80.1 -22.5,8.7 -28.6,13.9 -43.9,-10.4 -12.1,-19.4 17.4,-50.4 39.2,-63 9.4,-5.4 22.8,-12.1 34.5,-16.6z"/>
   <path class="fil6" d="M849 759.3l-7.2 -107.4c7,-11.1 33.6,-15.3 41.5,-5.6 10.6,56.3 33.7,103.9 32.5,145.1 -0.6,23.8 2.9,60.6 -26,66 -22.8,4.4 -33.2,-32.6 -36.4,-57 -1.4,-10.6 -3.5,-28.9 -4.4,-41.1z"/>
   <path class="fil2" d="M1698.9 657.4c-13,31.6 -26.9,97.8 -26.8,141.7 0,28.7 33.1,41.8 43.5,16.9 17.2,-41.2 42,-107.7 33.5,-144.3 -7.5,-32.3 -41.3,-35.9 -50.2,-14.3z"/>
   <path class="fil5" d="M1813.4 1331.8c6.4,12.4 11.1,29.1 12.2,46.7 2.1,33.1 -2.5,67.5 9,69.2 13,1.9 22.8,-10.5 29.7,-19.5 16.2,-20.8 21.7,-49.5 26.1,-74.9 3.3,-3.1 4.3,-9.9 7.1,-19.6 2.3,-7.9 2.4,-13 -1.6,-18.5 -2.7,-3.7 -6.9,-9.2 -10.9,-12.2 -20.6,-15.1 -35.2,-8.9 -44,-13.1l-14.4 8.5 -13.2 33.4z"/>
   <path class="fil12" d="M1832.7 1447.1c0.6,0.3 1.2,0.5 1.9,0.6 13,1.9 22.8,-10.5 29.7,-19.5 16.2,-20.8 21.7,-49.5 26.1,-74.9 3.3,-3.1 4.3,-9.9 7.1,-19.6 2.3,-7.9 2.4,-13 -1.5,-18.5 -2.7,-3.7 -7,-9.2 -11,-12.2 -3.9,-2.8 -7.6,-4.9 -11,-6.5 2.6,2.8 5.2,6.1 7,8.6 8.6,12 -1.2,37.7 -3.8,50.7 -4.6,23 -11.9,47.5 -22.7,68.2 -4.3,8.2 -12,19.7 -21.8,23.1z"/>
   <path class="fil12" d="M1798.2 1328.9c0.3,-4.6 13.1,-13.2 24.5,-10.6 15,3.5 12.3,43.2 7.3,63.3 -6.7,-23.7 -32.6,-42.6 -31.8,-52.7z"/>
   <path class="fil13" d="M1783.4 1409.1c-3.9,13.4 -12.1,28.8 -23.4,42.3 -21.3,25.4 -48.4,47.1 -41.2,56.3 8.1,10.3 23.7,8.1 35,6.4 26,-3.9 49.8,-20.9 70.5,-36.3 4.6,0 10,-4.2 18.7,-9.3 7.1,-4.2 10.7,-7.7 11.6,-14.4 0.6,-4.6 1.3,-11.6 0.5,-16.5 -4.5,-25.1 -19.4,-30.7 -22.9,-39.8l-16.2 -3.7 -32.6 15z"/>
   <path class="fil12" d="M1717.9 1506c0.2,0.6 0.5,1.2 0.9,1.7 8.1,10.3 23.7,8.1 35,6.4 26,-3.9 49.8,-20.9 70.5,-36.3 4.6,0 10,-4.2 18.7,-9.3 7.1,-4.2 10.7,-7.7 11.6,-14.4 0.6,-4.6 1.3,-11.6 0.5,-16.5 -0.9,-4.7 -2.1,-8.7 -3.5,-12.2 0,3.8 -0.5,8 -0.9,11 -2,14.6 -26.8,26.5 -37.7,34.1 -19.1,13.6 -41.3,26.2 -63.4,33.7 -8.8,3 -22.3,6.1 -31.7,1.8z"/>
   <path class="fil14" d="M1800.1 652.4c40.7,13.1 65.4,31.2 55.1,40.6 -10.2,9.3 -51.5,6.4 -92.2,-6.6 -40.7,-13.1 -65.4,-31.2 -55.1,-40.6 10.3,-9.3 51.5,-6.4 92.2,6.6z"/>
   <path class="fil15" d="M1700.2 1112.7l104.8 216.1 0 0c0.6,1.1 1.5,1.6 2.7,1.5 5.8,-0.2 17,-13.2 25,-28.9 6.4,-12.5 8.9,-23 6.9,-26.6 -13.2,-46.7 -28.1,-100.8 -55.1,-141.7 -9.6,-14.4 -13,-12.4 -22.4,-24.5 -23.7,-30.4 -64.5,-21.2 -61.9,4.1z"/>
   <path class="fil15" d="M1700.7 1104.7c-7.1,22.7 41.1,45.2 64.5,14.3l114.9 -198.6 -111.2 -82.6c-13.3,39.5 -17.9,47.7 -28.5,89.3 -14.7,57.5 -29.7,128.9 -39.7,177.6z"/>
   <path class="fil16" d="M1817.8 879.3l-8.4 -0.5 -6 45.9c-20,49.8 -17.6,162.5 -17.1,209 0.1,7 0,14.2 -0.1,19.8 -0.7,38.1 57.8,24.3 65,4.1 12.6,-35.6 16.2,-52.3 27,-93.5 18.5,-70.3 59.8,-126.5 -12.6,-189.1l-47.8 4.3z"/>
   <path class="fil16" d="M1786.8 1155.5l-6.2 273.5 0.1 0c0,1.2 0.6,2.1 1.7,2.6 5.3,2.3 24.2,-0.6 38.4,-11.2 11.2,-8.3 14.9,-20.5 14.7,-24.7 10.2,-56 24.7,-122.1 23.4,-163.3 -1.2,-39.8 -6.3,-60.8 -6.1,-77.8 0.5,-38.5 -65.2,-71.6 -66,0.9z"/>
   <path class="fil17" d="M1733.2 476.7c-23.3,3.2 -39,9.9 -44.5,22 -24,53.1 37.6,161.2 18.2,204.2l55.3 -15.1 14.8 -147.8 -43.8 -63.3z"/>
   <path class="fil9" d="M1776.3 576.4c0.7,11.3 -3.8,38.6 14,63.8l-32.8 38.5 -22.5 -13.6c-0.1,-24.7 -2,-39.2 -11.3,-59.4l52.6 -29.3z"/>
   <path class="fil0" d="M1788.1 632.4c13.5,17.7 26.3,26.1 45.7,32.6 35.9,11.9 26.2,75.1 19.2,117 -4,23.9 -1.7,41.1 1.2,54.3 1.9,9.1 3.1,16.5 9.4,23.9 25.3,30 48,69.2 46.1,97.3l-0.8 -0.1c-0.4,1.3 -1.2,2.6 -2.4,3.8 -11.5,10.5 -58,7.2 -103.7,-7.5 -41.9,-13.4 -68.7,-31.6 -64.1,-42.7 1.9,-21.6 2.7,-54.6 -0.1,-63.8 -2.6,-8.5 -17.2,-48.4 -29.2,-67.5 -14.3,-12.8 -21.6,-28.4 -24,-41.9 -2.6,-13.8 13.2,-73 21,-88.8 3.3,-6.5 17,-6.6 26.6,-4.9 0,16.9 42.3,22.6 55.1,-11.7z"/>
   <path class="fil10" d="M1696.4 499.4c-15.3,36.9 -1.1,57.1 1.3,84.2 1.3,14.3 7.5,24.8 12.3,32.3 6.9,10.7 13.5,15.2 20.7,15.9 13.8,1.4 63.4,-33.1 63.9,-51.7l1.7 -72.1 -99.9 -8.6z"/>
   <path class="fil18" d="M1768.9 622.3c6.4,31.7 3.4,76.7 -1.9,91.4 28.2,-9.3 51.9,-36.4 55.8,-72 2.9,-25.3 -1.2,-78.3 -6.6,-108.2 -7.8,-44 -38.7,-80 -94.1,-59.6 -12.4,3.7 -30.4,13.3 -31.7,33.8 -4.7,68.3 81,50.4 78.5,114.6z"/>
   <path class="fil12" d="M1771.5 1395.1c3.4,-3.1 18.6,-0.5 25.1,9.3 8.5,12.8 -20.9,39.7 -38.3,50.8 11.4,-21.7 5.7,-53.3 13.2,-60.1z"/>
   <path class="fil19" d="M1426.2 749.4c15.2,18.1 2.2,149.7 0.3,176.7 -3.3,6.2 -16.3,17.4 -36.7,15 -4.7,-5.8 -5.2,-13 -5.4,-14.4 -3.9,-37.6 0.9,-107.6 -0.1,-145.4l41.9 -31.9z"/>
   <path class="fil20" d="M1305.5 658.7c-5.5,27.2 -2.4,53.7 -5.5,72.9 -3.8,23.6 -18.7,36 -27.1,49.4 -25.3,40.5 124.5,-34.4 124.1,-36.5 -8,-35.6 -37.2,-54.7 -64.6,-74.5 0,0 -27.2,-10.9 -26.9,-11.3z"/>
   <path class="fil9" d="M1351.3 946.3l8.5 0 -1.5 77.9c2.3,45.2 10.5,133.9 11.9,178.6 0.9,28.8 -6.4,43.1 -5.5,64.5 2.6,60.9 -5.4,120.6 -6.4,183.5l-27.6 26.5c-12.9,-94.7 -33.4,-146.4 -31.2,-200.8 3.8,-90.5 0,-89.1 -9.7,-145.6 -15,-87.2 -4.3,-25.3 -1.4,-60 2.3,-26.4 7.1,-60.2 28.9,-127.4l34 2.8z"/>
   <path class="fil10" d="M1291.4 991.5l8.5 0 -1.4 77.9c2.3,45.2 10.5,133.9 11.9,178.6 0.8,28.8 -6.4,43.1 -5.5,64.5 2.5,60.9 -5.4,120.6 -6.4,183.5l-27.6 26.5c-13,-94.7 -33.4,-146.4 -31.2,-200.8 3.7,-90.5 0,-89.1 -9.8,-145.6 -15,-87.2 -4.3,-25.3 -1.3,-59.9 2.2,-26.5 7,-60.3 28.8,-127.5l34 2.8z"/>
   <path class="fil10" d="M1298.9 1469.6c-0.7,17.4 2.7,26.5 4.9,32.5 5.5,14.7 31.4,32.7 42.2,43.4l-3.6 14.4 -13.2 0.6 -17.2 -1.4c-9.3,-7.7 -18.7,-17.4 -24.9,-22.4 -24.2,-19.7 -32,-21.1 -26.6,-35.6 2.1,-5.4 5.7,-29.3 -0.6,-56.8l39 25.3z"/>
   <path class="fil5" d="M1337.5 1538c2.1,2.9 4.3,6.2 4.4,9.2 0.1,4 -3.8,6.9 -12.5,7.6 -10.4,0.8 -27.4,-11.4 -38.5,-22.7 -11.7,-11.9 -23.1,-22.3 -29.2,-36.5 -7.1,8.5 -9.3,18.4 -6.7,31.6l1.9 14.9 16.3 8.7 6.9 -2.7 0.6 -4.9c8.6,5.9 18.9,19.9 26,23.8 17.2,9.4 29.5,8.8 38.6,8.7 6.7,-0.1 13.9,-4.8 12.9,-11.9 -1.6,-12 -15.3,-22.3 -20.7,-25.8z"/>
   <path class="fil9" d="M1358.4 1436.6c-0.7,17.4 2.7,26.5 4.9,32.4 5.5,14.8 31.3,32.8 42.1,43.5l-3.5 14.4 -13.3 0.6 -17.1 -1.4c-9.4,-7.7 -18.7,-17.4 -24.9,-22.5 -24.2,-19.6 -32,-21 -26.6,-35.5 2,-5.4 5.7,-29.3 -0.6,-56.8l39 25.3z"/>
   <path class="fil21" d="M1396.9 1505c2.2,2.9 4.4,6.2 4.5,9.2 0.1,4 -3.9,6.9 -12.5,7.6 -10.4,0.8 -27.4,-11.5 -38.5,-22.7 -11.7,-11.9 -23.2,-22.3 -29.2,-36.5 -7.1,8.5 -9.3,18.4 -6.7,31.6l1.9 14.9 16.3 8.7 6.9 -2.7 0.5 -4.9c8.7,5.9 19,19.9 26.1,23.7 17.2,9.5 29.4,8.9 38.6,8.8 6.7,-0.1 13.9,-4.8 12.9,-12 -1.6,-11.9 -15.4,-22.2 -20.8,-25.7z"/>
   <path class="fil22" d="M1206.7 1054.5c0.1,49.9 17.9,108.5 25.6,183.8 0,6.1 3.1,11.4 9.7,15.2 19.8,11.5 63.5,4.9 97.5,-14.7 24.4,-14.1 37.3,-31.1 35.2,-43.8l0 -0.1c13.3,-176.7 9.8,-197.5 -1.8,-234.2 -6.6,-20.7 -19.6,-42.2 -18.8,-52 -40.5,43.4 -84.6,5.1 -114.2,30.5 -12.3,44.8 -33.2,50.2 -33.2,115.3z"/>
   <path class="fil23" d="M1298.4 758.8c-21.7,12.5 -40.2,29.4 -44.2,55.7 -3.7,24.9 -7.4,63.6 -7.4,103.4 0,132.8 145.9,-24 146.2,-24.1 11.2,-6.9 27.8,-10.3 36.9,-28.2 13.4,-26.4 5.5,-64.8 2.4,-102.1 0.4,-8.1 -3.5,-15.2 -12.1,-20.2 -24.8,-14.4 -79.5,-9 -121.8,15.5z"/>
   <path class="fil22" d="M1432.3 763.5c3.1,37.3 11,75.7 -2.4,102.1 -9.1,17.9 -25.7,21.3 -36.9,28.2 -11,6.6 -22.4,26.1 -33.7,74.7l-130.4 58.3c-18.7,-41 9.6,-67.5 17.9,-108.9 0.5,-2.7 1,-5.5 1.4,-8.2 18.1,6.9 39.8,-3.2 47.3,-28.5 18.7,-62.2 10.5,-102.4 -16,-109.9 10.5,-8.3 19.2,-15.1 33.2,-20 31.5,28.8 60,72.8 68.2,114.6 25.2,-42 28.1,-86.3 19.2,-129.3 7.8,1.3 14.7,3.5 20.1,6.7 8.6,5 12.5,12.1 12.1,20.2z"/>
   <path class="fil9" d="M1334.1 703.6c-0.7,12.2 -1.8,38.1 -3.9,46.8 -0.8,27.8 37.4,43.5 54.8,22.4l7.1 -42.5 -58 -26.7z"/>
   <path class="fil20" d="M1398.3 623.7c47.3,20.1 28.8,110.8 -6.6,126l-44.3 -17.1 -7.4 -43.1 24.1 -44.1 34.2 -21.7z"/>
   <path class="fil10" d="M1417.7 674.2c3,10.6 2.6,29 -3.7,48.8 -3.9,12.3 -6.7,18 -10.6,24.6 -3.8,6.6 -10.7,14.2 -16.6,14.7 -11.5,0.9 -37.6,-17.3 -42.1,-20.6 -7.3,-5.5 -11.2,-9.9 -11.2,-16.3l-0.1 -6c-4.2,-2.7 -8.7,-2.5 -12.7,-8.1 -3.9,-5.6 -8.2,-10.3 -9.7,-24.1 -3.9,-35.5 15.3,-50.8 36.1,-56.4 27.4,-7.3 60,5.4 70.6,43.4z"/>
   <path class="fil20" d="M1337.2 719.2c-2,-4.6 -3.2,-12.1 -4.5,-18.4 -1.5,-7.3 -3.7,-13.8 -12.6,-13.8 -5.1,0 -8.2,7.1 -2.3,20.8 -27.7,-27.8 -11.2,-82.8 27.8,-91.7 36.6,-8.3 79.2,9.2 58.9,45.6 -9.9,17.7 -32.8,24.7 -55.1,35 -4.1,1.9 -11.6,15.2 -12.2,22.5z"/>
   <path class="fil17" d="M1406.9 698.3c-3.6,0.9 -8,2 -11.1,3.7 -1.8,0.9 -2.8,1.8 -3.3,2.8 -0.5,0.9 -0.5,2.1 -0.3,3.6l0 0 0.1 0.1c0.3,2 1.1,4.2 2.7,5.7 1.7,1.4 4.3,2.3 8.2,1.6l0 0 0.1 0 0 0c1.4,-0.2 2.9,-0.5 4.4,-0.9l0 0c1.5,-0.4 2.9,-0.9 4.1,-1.6 1.3,-0.8 2.6,-2.4 3.7,-4.3 1.2,-2.1 2.1,-4.6 2.6,-7l0 0 0.2 -0.8c0.4,-2.1 0.8,-4.3 -0.1,-4.6 -0.9,-0.4 -2.2,-0.3 -3.7,-0.1 -1.6,0.2 -3.5,0.7 -5.2,1.1l0 0 -2.4 0.7 0 0zm-12.3 1.3c3.4,-1.8 7.9,-3 11.7,-3.9l0 -0.1 2.3 -0.6 0 0c1.9,-0.4 3.8,-0.9 5.5,-1.2 1.9,-0.2 3.6,-0.2 5,0.3 3.1,1.1 2.4,4.4 1.7,7.6l-0.1 0.8c-0.5,2.7 -1.6,5.4 -2.9,7.8 -1.3,2.3 -3,4.3 -4.7,5.3 -1.4,0.9 -3.1,1.5 -4.7,1.9l0 0c-1.6,0.4 -3.2,0.7 -4.7,1l0 0 -0.1 0 0 0c-4.8,0.8 -8.1,-0.4 -10.3,-2.3 -2.2,-2 -3.2,-4.8 -3.7,-7.3l0 0 0 -0.1c-0.3,-2 -0.2,-3.7 0.5,-5.3 0.8,-1.5 2.2,-2.7 4.5,-3.9l0 0z"/>
   <path class="fil17" d="M1376.3 700.9c2.7,0.3 4.6,1.1 5.9,2.3 1.3,1.2 2,2.9 2.4,5.1l0 0 0 0.1 0 0c0.5,2.6 0.5,5.8 -1,8.5 -2.7,5.2 -9.4,5.9 -14.7,6.4 -5,0.4 -8,0.1 -11.9,-3.2 -1.4,-1.2 -3.6,-3.5 -5.2,-6 -2.1,-3.4 -3.4,-7.3 -0.6,-9.7 1.2,-1 2.9,-1.7 4.9,-2.1 5.2,-1.1 16.2,-2 20.2,-1.4zm-0.3 2.6c-3.8,-0.5 -14.4,0.4 -19.3,1.4 -1.6,0.4 -3,0.8 -3.8,1.5 -1.5,1.3 -0.1,4 1.6,6.5 1.6,2.4 3.5,4.6 4.1,5.1 3.5,3 5.7,3 10,2.6 4.4,-0.4 10.5,-0.7 12.7,-4.9 1.1,-2.2 1.1,-4.7 0.7,-6.8l0 0 0 -0.1c-0.3,-1.6 -0.8,-2.8 -1.6,-3.6 -0.9,-0.9 -2.3,-1.4 -4.4,-1.7l0 0z"/>
   <polygon class="fil17" points="1383.4,706 1390.6,705.1 1391.1,709.1 1383.9,710 "/>
   <polygon class="fil17" points="1351.8,707.7 1343.3,703.4 1341.3,706.7 1350.9,711.6 "/>
   <path class="fil24" d="M1274 1163.5c0.4,26.8 -41.1,39.1 -44.8,27 -37.8,-31.5 -75.2,-63.5 -112.3,-95.9l25.9 -65.8c58.9,21.7 96.1,85.2 131.2,134.7z"/>
   <path class="fil25" d="M1261.3 1662.8c4.6,20.1 51.7,57.3 61,67.6 5.8,6.5 2.2,22.4 -6.6,28 -9.3,6 -25.1,5.7 -37.5,3.8 -14.4,-2.2 -31.3,-17.3 -50.3,-29.1 -18.9,-11.9 -42.2,-20 -42.2,-30.8 1,-14.8 5,-26.1 8.1,-47.4l27.3 7.3 40.2 0.6z"/>
   <path class="fil26" d="M971.9 1638.5c0,0.4 0.1,0.8 0.2,1.2 0,0.1 0.1,0.1 0.1,0.2 0.1,0.3 0.3,0.7 0.5,1.1 0.1,0 0.1,0.1 0.2,0.2 0.2,0.3 0.5,0.7 0.9,1 0.2,0.2 0.5,0.4 0.8,0.6 0.3,0.2 0.5,0.4 0.8,0.5l93.4 54.3 0.1 15 -93.5 -54.3c0,0 -0.1,-0.1 -0.1,-0.1 -0.3,-0.1 -0.4,-0.3 -0.6,-0.4 -0.3,-0.2 -0.6,-0.4 -0.8,-0.6 -0.1,-0.1 -0.1,-0.1 -0.1,-0.1 -0.3,-0.3 -0.6,-0.5 -0.8,-0.8 0,-0.1 0,-0.1 -0.1,-0.2 0,0 -0.1,-0.1 -0.1,-0.2 -0.1,-0.1 -0.2,-0.2 -0.2,-0.3 -0.2,-0.2 -0.3,-0.5 -0.4,-0.7 0,0 0,0 0,-0.1 0,0 0,-0.1 0,-0.1 -0.1,-0.2 -0.1,-0.3 -0.2,-0.4 0,-0.3 0,-0.5 0,-0.7 0,-0.1 0,-0.1 0,-0.1l0 0 -0.1 -15z"/>
   <path class="fil27" d="M1072.4 1699c0.2,0.1 0.4,0.1 0.6,0.2 1.3,0.3 2.7,0.4 4.1,0.4 0,0 0.1,0 0.1,0 1.5,0 3,-0.1 4.4,-0.4 0,-0.1 0.1,-0.1 0.1,-0.1 1.4,-0.3 2.7,-0.8 3.9,-1.5l108.3 -62.5c2.4,-1.4 3.5,-3.1 3.5,-4.9l0 15c0.1,1.7 -1.1,3.5 -3.4,4.8l-108.4 62.6c-0.5,0.3 -1.1,0.6 -1.7,0.8 -0.5,0.2 -0.9,0.4 -1.4,0.5 -0.3,0.1 -0.5,0.1 -0.8,0.2 0,0 -0.1,0 -0.1,0 -0.1,0 -0.2,0.1 -0.4,0.1 -0.4,0.1 -0.7,0.2 -1.1,0.2 -0.4,0.1 -0.8,0.1 -1.2,0.1 -0.4,0.1 -0.8,0.1 -1.2,0.1 -0.1,0 -0.3,0 -0.4,0 -0.1,0 -0.1,0 -0.2,0 -0.2,0 -0.4,0 -0.6,0 -0.4,0 -0.9,0 -1.3,-0.1 -0.5,0 -1,-0.1 -1.5,-0.2 -0.2,-0.1 -0.4,-0.1 -0.7,-0.2 -0.2,0 -0.3,-0.1 -0.5,-0.1 -0.4,-0.1 -0.7,-0.2 -1.1,-0.3 -0.9,-0.3 -1.7,-0.6 -2.5,-1.1l-0.1 -15c1.1,0.7 2.3,1.1 3.6,1.4z"/>
   <path class="fil28" d="M975.4 1633.6c-4.6,2.7 -4.6,7.1 0,9.7l93.4 54.3c4.6,2.7 12.1,2.7 16.8,0l108.3 -62.5c4.6,-2.7 4.7,-7.1 0.1,-9.7l-93.5 -54.3c-4.5,-2.7 -12.1,-2.7 -16.7,0l-108.4 62.5z"/>
   <polygon class="fil29" points="1084.4,1381.8 1081,1454.8 1084.7,1649.7 1104,1638.6 1103.7,1370.7 "/>
   <polygon class="fil30" points="1084.4,1381.8 1065.5,1370.8 1065.8,1638.7 1084.7,1649.7 "/>
   <polygon class="fil31" points="1163.8,1470.3 1179.2,1461.4 1179.2,1449.5 1163.9,1458.5 "/>
   <path class="fil29" d="M987.6 1329.2c-0.3,-1.9 -0.4,-3.7 -0.4,-5.6l15.4 -8.9c0,2.1 0.2,4.3 0.5,6.5 0,0.4 0.1,0.7 0.2,1.1 0.3,2 0.8,4.1 1.4,6.2 0.1,0.2 0.1,0.4 0.2,0.6 0.7,2.2 1.5,4.5 2.5,6.7 0,0 0,0.1 0,0.1 1,2.3 2.1,4.5 3.4,6.7 0,0 0.1,0.1 0.1,0.2 1.2,2.1 2.6,4.1 4,6.1 0.1,0.1 0.2,0.3 0.4,0.5 1.3,1.8 2.7,3.4 4.1,5 0.4,0.4 0.7,0.7 1,1 1.1,1.2 2.4,2.3 3.6,3.4 0.5,0.5 1.1,1 1.6,1.5 1.8,1.3 3.6,2.6 5.4,3.7l-15.4 8.9c-1.8,-1.1 -3.6,-2.3 -5.3,-3.7 -0.6,-0.5 -1.1,-1 -1.7,-1.5 -0.8,-0.7 -1.7,-1.4 -2.5,-2.2 -0.3,-0.3 -0.7,-0.7 -1.1,-1.1 -0.3,-0.4 -0.6,-0.7 -0.9,-1.1 -0.4,-0.3 -0.7,-0.7 -1.1,-1.1 -0.8,-0.9 -1.6,-1.8 -2.3,-2.8 -0.3,-0.4 -0.5,-0.7 -0.8,-1.1 -0.1,-0.1 -0.2,-0.3 -0.4,-0.5 -0.2,-0.3 -0.5,-0.7 -0.7,-1 -0.6,-0.8 -1.1,-1.6 -1.7,-2.5 -0.5,-0.8 -1,-1.6 -1.4,-2.4 -0.1,-0.1 -0.1,-0.1 -0.2,-0.2 0,-0.1 0,-0.1 -0.1,-0.2 -0.4,-0.7 -0.7,-1.3 -1.1,-2 -0.4,-0.8 -0.8,-1.6 -1.2,-2.4 -0.4,-0.8 -0.7,-1.5 -1,-2.2 -0.1,-0.1 -0.1,-0.1 -0.1,-0.2 0,0 0,-0.1 -0.1,-0.1 -0.3,-0.9 -0.7,-1.7 -1,-2.6 -0.4,-0.9 -0.7,-1.8 -1,-2.7 -0.1,-0.4 -0.2,-0.9 -0.4,-1.3 0,-0.2 -0.1,-0.4 -0.2,-0.6 -0.1,-0.3 -0.2,-0.6 -0.3,-1 -0.3,-1.1 -0.5,-2.2 -0.8,-3.3 -0.1,-0.6 -0.2,-1.3 -0.3,-1.9 -0.1,-0.4 -0.1,-0.7 -0.2,-1.1 0,-0.3 -0.1,-0.6 -0.1,-0.9z"/>
   <polygon class="fil29" points="987.2,1323.6 1002.6,1314.7 1003,1154.8 987.6,1163.7 "/>
   <polygon class="fil32" points="987.6,1163.7 1003,1154.8 992.7,1148.9 977.3,1157.8 "/>
   <polygon class="fil32" points="1031,1364 1179.2,1449.5 1163.9,1458.5 1015.6,1372.9 "/>
   <path class="fil30" d="M977.3 1157.8l10.3 5.9 -0.4 159.9c-0.1,18.1 12.7,40.2 28.4,49.3l148.3 85.6 -0.1 11.8 -148.2 -85.6c-21.4,-12.4 -38.8,-42.4 -38.7,-67l0.4 -159.9z"/>
   <path class="fil26" d="M923.6 1394c0,0.7 0.1,1.3 0.3,1.9 0,0.1 0,0.2 0,0.2 0.2,0.6 0.6,1.2 0.9,1.7 0.1,0.1 0.2,0.2 0.2,0.3 0.4,0.6 0.9,1.1 1.5,1.6 0.3,0.3 0.8,0.7 1.2,1 0.4,0.2 0.7,0.5 1.2,0.8l143.7 83.5 0.1 23 -143.8 -83.5c0,-0.1 -0.1,-0.1 -0.2,-0.1 -0.4,-0.3 -0.6,-0.5 -0.9,-0.7 -0.4,-0.3 -0.9,-0.6 -1.3,-1 0,0 -0.1,0 -0.1,0 -0.4,-0.4 -0.8,-0.8 -1.1,-1.3 -0.1,-0.1 -0.1,-0.2 -0.2,-0.3 -0.1,-0.1 -0.1,-0.2 -0.2,-0.3 -0.1,-0.1 -0.3,-0.3 -0.4,-0.4 -0.1,-0.4 -0.3,-0.7 -0.4,-1.1 -0.1,0 -0.1,-0.1 -0.1,-0.1 0,-0.1 0,-0.2 0,-0.3 -0.1,-0.2 -0.2,-0.4 -0.2,-0.6 -0.1,-0.4 -0.1,-0.7 -0.1,-1.1 0,0 0,-0.1 0,-0.1l0 0 -0.1 -23.1z"/>
   <path class="fil27" d="M1078.2 1487.2c0.3,0 0.6,0.1 0.9,0.2 2,0.4 4.1,0.7 6.2,0.7 0.1,0 0.2,0 0.3,0 2.2,0 4.5,-0.3 6.6,-0.8 0.1,0 0.2,0 0.3,0 2.1,-0.5 4.1,-1.3 5.9,-2.3l166.7 -96.2c3.6,-2.1 5.3,-4.8 5.3,-7.5l0.1 23c0,2.7 -1.8,5.4 -5.3,7.5l-166.8 96.2c-0.8,0.5 -1.6,0.9 -2.6,1.3 -0.7,0.3 -1.4,0.5 -2.2,0.7 -0.3,0.1 -0.7,0.2 -1.1,0.3 -0.1,0 -0.1,0 -0.2,0.1 -0.2,0 -0.4,0.1 -0.6,0.1 -0.6,0.1 -1.2,0.2 -1.8,0.3 -0.6,0.1 -1.2,0.2 -1.7,0.2 -0.7,0.1 -1.2,0.1 -1.8,0.1 -0.3,0 -0.5,0 -0.8,0 0,0 -0.1,0 -0.2,0 -0.3,0 -0.6,0 -0.9,0 -0.7,0 -1.4,-0.1 -2,-0.1 -0.8,-0.1 -1.6,-0.2 -2.4,-0.4 -0.3,0 -0.6,-0.1 -1,-0.2 -0.3,-0.1 -0.6,-0.1 -0.8,-0.2 -0.6,-0.2 -1.1,-0.3 -1.6,-0.4 -1.5,-0.5 -2.8,-1.1 -4,-1.8l-0.1 -23c1.7,1 3.6,1.6 5.6,2.2z"/>
   <path class="fil28" d="M928.9 1386.5c-7.1,4.2 -7.1,10.9 0,15l143.7 83.5c7.1,4.1 18.6,4.1 25.8,0l166.7 -96.2c7.1,-4.1 7.1,-10.9 0.1,-15l-143.8 -83.5c-7,-4.1 -18.7,-4.1 -25.8,0l-166.7 96.2z"/>
   <path class="fil26" d="M894.4 1199.3l0.2 116.3c0,1 0.1,1.9 0.3,2.8 0,0 0,0 0,0 0.2,0.9 0.4,1.6 0.7,2.3 0,0 0,0 0,0 0.3,0.5 0.5,0.8 0.8,1.2 0.6,0.8 1.2,1.5 2,2l-19.9 -11.6c-0.8,-0.5 -1.4,-1.2 -2,-2 -0.1,-0.1 -0.2,-0.1 -0.2,-0.2 -0.2,-0.3 -0.4,-0.6 -0.5,-0.9 0,0 0,0 0,0 -0.1,0 -0.1,0 -0.1,-0.1 -0.1,-0.2 -0.2,-0.4 -0.3,-0.6 0,-0.2 -0.1,-0.5 -0.2,-0.7 0,-0.2 -0.1,-0.4 -0.1,-0.7 -0.1,-0.1 -0.1,-0.1 -0.1,-0.2 0,-0.1 0,-0.1 0,-0.1 0,-0.1 0,-0.2 -0.1,-0.3 0,-0.2 0,-0.4 -0.1,-0.6 0,-0.2 0,-0.4 0,-0.6 0,-0.2 -0.1,-0.4 -0.1,-0.6 0,-0.2 0,-0.4 0,-0.7 0,0 0,0 0,0l-0.2 -116.2 19.9 11.5z"/>
   <path class="fil28" d="M902.2 1181.1c0,0 0,0 0,0 -0.8,0.8 -1.5,1.7 -2.2,2.6 0,0 0,0.1 0,0.1 -0.7,0.9 -1.3,1.8 -1.8,2.8 -0.1,0.1 -0.1,0.1 -0.1,0.2 -0.6,1 -1.1,2 -1.5,3 0,0 -0.1,0 -0.1,0 -0.4,1 -0.8,2.1 -1.1,3.2 0,0 0,0 0,0 -0.4,1.1 -0.6,2.1 -0.8,3.2 0,0 0,0 0,0 -0.1,1.1 -0.2,2.1 -0.2,3.1l-19.9 -11.5c0,-0.2 0,-0.4 0,-0.6 0,-0.2 0,-0.4 0,-0.6 0,-0.2 0,-0.5 0,-0.7 0.1,-0.2 0.1,-0.4 0.1,-0.6 0.1,-0.2 0.1,-0.4 0.1,-0.6 0,0 0,-0.1 0,-0.1 0,0 0,0 0,0 0.1,-0.2 0.1,-0.4 0.1,-0.6 0.1,-0.2 0.1,-0.4 0.2,-0.7 0,-0.2 0.1,-0.4 0.1,-0.6 0.1,-0.3 0.1,-0.5 0.2,-0.7 0,-0.2 0.1,-0.4 0.1,-0.5 0.1,-0.1 0.1,-0.1 0.1,-0.1 0,0 0,-0.1 0,-0.1 0.1,-0.2 0.1,-0.4 0.2,-0.7 0.1,-0.2 0.2,-0.4 0.2,-0.6 0.1,-0.2 0.2,-0.5 0.3,-0.7 0.1,-0.2 0.2,-0.4 0.2,-0.6 0.1,-0.2 0.2,-0.3 0.2,-0.5 0.1,0 0.1,0 0.1,0 0,0 0,-0.1 0,-0.1 0.1,-0.2 0.2,-0.4 0.3,-0.6 0.1,-0.3 0.2,-0.5 0.3,-0.7 0.2,-0.3 0.3,-0.5 0.4,-0.8 0.2,-0.3 0.3,-0.5 0.5,-0.8 0,0 0,-0.1 0.1,-0.2 0,0 0,-0.1 0.1,-0.1 0.3,-0.6 0.6,-1.1 0.9,-1.6 0.3,-0.4 0.5,-0.7 0.8,-1.1 0,0 0,0 0,0 0,0 0,0 0,0 0.2,-0.3 0.4,-0.6 0.6,-0.8 0.2,-0.2 0.3,-0.4 0.5,-0.6 0.2,-0.2 0.3,-0.4 0.5,-0.6 0.2,-0.2 0.4,-0.4 0.5,-0.6 0,0 0.1,0 0.1,0 0,-0.1 0,-0.1 0,-0.1 0.2,-0.1 0.3,-0.3 0.4,-0.4 0.2,-0.2 0.4,-0.4 0.6,-0.5 0.2,-0.2 0.4,-0.4 0.6,-0.6 0.1,-0.2 0.3,-0.3 0.5,-0.5 0.1,-0.1 0.2,-0.1 0.3,-0.2 0,0 0.1,0 0.1,-0.1 0,0 0.1,-0.1 0.2,-0.1 0.2,-0.2 0.4,-0.3 0.6,-0.5 0.2,-0.1 0.3,-0.3 0.5,-0.4 0.2,-0.1 0.4,-0.2 0.6,-0.3 0.2,-0.2 0.3,-0.3 0.5,-0.4 0.1,0 0.1,0 0.1,0l166.7 -96.3c0.1,0 0.3,-0.1 0.4,-0.2 0.2,-0.1 0.4,-0.2 0.5,-0.3 0.2,0 0.4,-0.1 0.5,-0.2 0.2,-0.1 0.4,-0.2 0.6,-0.2 0.1,-0.1 0.3,-0.2 0.5,-0.2 0,0 0.1,0 0.1,0 0,-0.1 0,-0.1 0,-0.1 0.1,0 0.3,0 0.4,-0.1 0.2,0 0.4,-0.1 0.5,-0.1 0.2,-0.1 0.4,-0.1 0.6,-0.1 0.2,-0.1 0.3,-0.1 0.5,-0.1 0.2,-0.1 0.3,-0.1 0.4,-0.1 0,0 0.1,0 0.1,0 0,0 0.1,0 0.1,0 0.2,0 0.4,0 0.6,0 0.2,0 0.5,0 0.7,0 0.2,0 0.5,0.1 0.7,0.1 0,0 0,0 0,0 0.1,0 0.1,0 0.1,0 0.3,0.1 0.6,0.2 0.8,0.3 0.4,0.1 0.7,0.3 1.1,0.4l19.9 11.6c-0.6,-0.3 -1.2,-0.5 -1.9,-0.7 0,0 0,0 -0.1,0 -0.6,-0.2 -1.4,-0.2 -2.1,-0.1 0,0 -0.1,0 -0.1,0 -0.7,0 -1.5,0.2 -2.4,0.5 0,0 0,0 0,0 -0.8,0.3 -1.7,0.7 -2.6,1.2l-166.6 96.2c-0.9,0.5 -1.8,1.1 -2.6,1.8 0,0 -0.1,0 -0.1,0.1 -0.8,0.6 -1.6,1.4 -2.4,2.2z"/>
   <path class="fil27" d="M907.3 1177l166.6 -96.2c7.1,-4.1 12.9,-0.8 13,7.4l0.2 116.2c0,8.2 -5.7,18.2 -12.9,22.4l-166.6 96.2c-7.2,4.1 -13,0.7 -13,-7.4l-0.2 -116.3c-0.1,-8.1 5.7,-18.2 12.9,-22.3z"/>
   <path class="fil33" d="M1186 1413.9l-10.8 61.5 4.6 201c7.9,28.1 75.6,32.2 85.9,-17.5 2.1,-89.8 3,-183 2.9,-266.1 -15.3,-26.7 -78,-69.8 -91.8,-71.6l9.2 92.7z"/>
   <path class="fil33" d="M1112.3 1276c44.6,17.5 123.2,64.8 149.8,91.3 4.3,4.3 4.9,10.7 5.7,16.1 6.2,42.6 -33.5,55.1 -54.9,48.6 -59.7,-18.1 -104.9,-61.1 -159.7,-104.8l59.1 -51.2z"/>
   <path class="fil4" d="M1046.7 1312.4c44.6,17.5 134,77 157.1,111.9 3.4,5 5,10.6 5.8,16 6.1,42.6 -34.5,60.9 -55.8,54.4 -42.9,-13 -105.3,-44.6 -149.3,-75.1 -18.4,-12.7 -73.8,-22.1 -54.9,-129.2l97.1 22z"/>
   <path class="fil34" d="M1196.6 1706.3c4.6,20.1 51.7,57.4 61,67.6 5.8,6.5 2.2,22.5 -6.6,28.1 -9.3,5.9 -25.2,5.7 -37.5,3.8 -14.4,-2.2 -31.3,-17.3 -50.3,-29.2 -18.9,-11.9 -42.3,-19.9 -42.2,-30.8 0.9,-14.8 5,-26.1 8.1,-47.4l27.3 7.4 40.2 0.5z"/>
   <path class="fil4" d="M1127.2 1455.5l-10.8 61.6 5.7 181c0,27 84.4,46.2 84.7,3.2 2.2,-88.2 3.3,-174.3 3.2,-257.5 -15.3,-26.7 -78.3,-79.1 -92,-81l9.2 92.7z"/>
   <path class="fil35" d="M981.6 1067.1c28.9,-48.5 111.8,-58.6 139.5,-55.9 18.6,1.8 41.9,11 50.6,27.6 31.8,61.1 -56.9,164 -65.9,200.6 -2.1,8.3 2.4,16 7,24.7 -30.1,89.7 -168.4,63.6 -165.3,27.1 1.5,-17.6 13.6,-55.3 21.6,-94.7 11.8,-58.3 -5.8,-98.6 12.5,-129.4z"/>
   <polygon class="fil36" points="1626.9,964.2 1627.6,1295.5 1663.7,1316.5 1663,964.2 "/>
   <polygon class="fil37" points="1663,964.2 1663.7,1316.5 1698.9,1296.2 1698.2,964.2 "/>
   <polygon class="fil36" points="771.8,1457.7 772.5,1789.1 808.6,1810 807.9,1457.7 "/>
   <polygon class="fil37" points="807.9,1457.7 808.6,1810 843.8,1789.7 843.1,1457.7 "/>
   <polygon class="fil36" points="1978.8,1207.1 1979.4,1494.9 2015.5,1515.9 2014.9,1207.1 "/>
   <polygon class="fil37" points="2014.9,1207.1 2015.5,1515.9 2050.7,1495.6 2050.1,1207.1 "/>
   <polygon class="fil36" points="1159.5,1563.3 1123.4,1542.3 1124.3,1988.5 1160.4,2009.5 "/>
   <polygon class="fil37" points="1159.5,1563.3 1160.4,2009.5 1195.6,1989.1 1194.7,1543 "/>
   <path class="fil38" d="M654.6 1462.1l0.2 59.6c210.9,122.6 278.3,160.5 489.2,283l-0.1 -59.5c-211,-122.6 -278.3,-160.5 -489.3,-283.1z"/>
   <path class="fil39" d="M1676.2 874.8l-1021.6 587.3c211,122.6 278.3,160.5 489.3,283.1l1021.5 -587.3c-210.9,-122.6 -278.2,-160.5 -489.2,-283.1z"/>
   <polygon class="fil40" points="1143.9,1745.2 1144,1804.7 2165.6,1217.5 2165.4,1157.9 "/>
   <path class="fil9" d="M1120 987.2c-9.6,22.9 -21.1,29.3 -32.4,49.8 -5.6,20.5 23.1,52.7 46.1,42.7 11,-13.5 24.8,-25 35,-36.5l-48.7 -56z"/>
   <path class="fil10" d="M1206.3 974.1c2.4,21.2 6.7,14.3 -0.9,49.6 -2.3,10.6 -20.3,37.8 -23,40.2 -3.5,3.2 -12.6,5.7 -17.7,5.6 -10,-0.1 -35,-19.6 -41.1,-25.5 -14.5,-13.9 -21,-17.4 -20,-34.4l-3.5 -19.2 -2.5 -56.9c32,-15 60.4,-26.1 77.1,-22.4 16.6,3.6 27.1,21.5 31.6,63z"/>
   <path class="fil41" d="M1100.4 911.1c-46,19.4 -13.2,83.8 -1.5,103.4 2.9,-2.1 7,-1.1 6.6,-5.3 -0.6,-9 2.9,-17.6 8,-19.2 6.2,-2 11.8,4.5 14.9,22.1 4.8,-7.7 11.2,-16.8 15.9,-31.2 0.6,0.3 68.5,0.2 76,-39.2 -11,-4.6 -29.3,-43.5 -51.2,-48 -26.7,-5.4 -56.8,2.5 -68.7,17.4z"/>
   <polygon class="fil42" points="1227.8,1346 1116.9,1308 1116.9,1315.4 1224.7,1378 "/>
   <path class="fil43" d="M1116.9 1308l107.8 40.1c74.8,-43.2 149.7,-86.4 224.5,-129.6l-107.8 -40.2 -224.5 129.7z"/>
   <path class="fil44" d="M1449.3 1248.4l0 -29.9 -0.1 0c-74.8,43.2 -149.7,86.4 -224.5,129.6l0 29.9c74.9,-43.2 149.7,-86.4 224.6,-129.6z"/>
   <path class="fil10" d="M1085.5 1281.5c4.3,1.1 8.6,1.4 19.5,-0.7 10.2,-2 22.4,-8.2 26.4,-7.7l34.5 4c10.8,2.1 14,7.4 12,10.2 -2.3,3.3 -11.5,4 -22.2,3.7 19.2,11.9 24.6,15.8 36.1,30.1 9.2,11.3 -13.3,20.5 -18.2,20.5 -21.8,0 -36.4,-16.4 -57.7,-17.2 -23.6,-0.9 -31.1,-5.7 -52.6,-15.2l22.2 -27.7z"/>
   <path class="fil45" d="M1040.4 1101.4c-8.5,54.1 -60.1,136.3 -84.3,179.6l-42.2 -6.1c0.8,-2.6 -5.1,-11 -4.3,-13.7 16.9,-55.4 38.7,-138.5 64.8,-184 10.8,-18.8 29.6,-30.1 44.4,-24.4 21.3,8.3 24.8,28.8 21.6,48.6z"/>
   <path class="fil45" d="M948.6 1231.3c48.4,8.4 105.9,32.7 154.3,45.3 4.8,8.1 -7.2,41.2 -14,46.6 -48.6,-10.1 -100,-16.6 -148.1,-28.4 -25.9,-6.4 -33,-18.5 -31.9,-31.9 1.1,-15 14.7,-36 39.7,-31.6z"/>
   <path class="fil9" d="M1460.3 1028.8c7.8,21.7 16.7,22.1 25.8,33.3 4,5.1 12.2,25.8 13.6,34.1 1.7,8.7 0.4,19.4 -7.9,20.2 -6.7,-6.2 -13.9,-16 -17.5,-23.4 -7.3,-6.1 -13.7,-12.4 -23.3,-17.9 0,6.4 3.1,19.3 2.3,24.1 -0.9,5.4 -10.9,5.2 -12.1,-1 -0.7,-3.2 -0.2,-8.1 -1.3,-15.2 -0.2,-1.4 -4.1,-13.6 -4.1,-13.6 -3.7,-8.8 -4.7,-10.3 -1.6,-16.8l3.1 -17 23 -6.8z"/>
   <path class="fil19" d="M1426 922.4c14.9,28.7 29.7,90.9 37.3,111.9 0.4,10.7 -26,10.3 -28.4,4.2 -9.1,-16.3 -37,-71.7 -47.7,-103.4 8.9,-9.7 26.8,-16.6 38.8,-12.7z"/>
   <path class="fil10" d="M1477 984c42.7,23.5 18.5,3 62.5,14.3 12.3,3.1 18.5,24.9 35.1,45.8 4.5,5.9 5.6,11.4 1.8,15.9 -7.1,8.6 -20.4,-3.8 -30.8,-11.3 -13.9,-10.1 -26.8,-8.3 -39.6,-12.3 -8.2,-2.5 -12.3,-5.9 -20,-12.5l-22.7 -15.9c3.7,-8.9 8.2,-14.1 13.7,-24z"/>
   <path class="fil46" d="M1503.5 995c4.7,9.6 -9.8,28 -20.8,28.4l-126.1 -71.8c-5.4,-3.9 -8.1,-3.9 -11.8,-9.8 -4.3,-10.1 13.2,-54.9 47.5,-23.9 28.9,23.1 80.7,56.4 111.2,77.1z"/>
   <path class="fil46" d="M1285.1 781.2c18.3,8.7 36.4,43.1 45,55 13.3,18.4 35.6,55.8 50.1,70.5 3,12.9 -11.1,41 -32.7,38.6 -10.9,-12.7 -37.8,-37.6 -52.2,-55.1 -22,-28.4 -34.3,-44.7 -39.7,-58.1 -9.7,-23.8 7.2,-61.5 29.5,-50.9z"/>
   <path class="fil47" d="M1808.5 683.8c-8.8,33 -8.8,103.4 -3.2,146.9 3.7,28.5 40.8,45.7 45.7,19.3 8.3,-44.3 22.3,-123.2 9.1,-158.5 -11.5,-31.1 -45.6,-30.3 -51.6,-7.7z"/>
   <path class="fil9" d="M1807.6 972.1l-9.9 30.2c-15.7,21.2 -29.6,15.9 -47.6,25.6 -5.4,3 -17.7,15.5 -23.3,18.8 -5,3 -11,3.5 -21,-2.3 1.4,-10.6 11.9,-38.6 42.1,-61 24,-2.5 25.6,2.2 34.8,-11.4l24.9 0.1z"/>
   <path class="fil47" d="M1769.3 979c8.1,-36.3 20.6,-86.4 28.2,-120.3 3.5,-15.1 4.4,-19.3 10.2,-34.8 33.2,0.8 46.5,11 42.3,33.5 -5.8,31.7 -32.8,107.3 -46.2,135.8 -5.8,5 -37.3,-1.5 -34.5,-14.2z"/>
   <path class="fil9" d="M1606.5 972.5c-4.7,5.8 -4.5,13.3 -11.9,27.8 -6.8,10.2 -7.1,17 -4.8,20.4 1.9,2.6 4.7,4.3 11.3,-3l10.8 -21.9 -1.3 14.1 -1 10.2c1,13.6 -1.5,30.8 4.6,36.2 3.7,3.3 11.2,5.1 23.2,3.5 8.5,-2.9 7.8,-20.9 18.1,-40.9 3.4,-14.3 5.8,-13 3.7,-37.5l0 -32 -29.1 -1c-2.8,4 -7.4,11.9 -11,15.1 -8.3,7.3 -6.4,1.5 -12.6,9z"/>
   <path class="fil43" d="M1688.2 1340.4c0.4,-0.1 0.9,0 1.2,0.2l0 0 -87.9 -51.1c-0.1,0 -0.1,0 -0.2,-0.1 0,0 -0.1,0 -0.2,0 -0.1,-0.1 -0.1,-0.1 -0.2,-0.1 -0.1,0 -0.1,0 -0.2,0 -0.1,0 -0.2,0 -0.3,0 0,0 0,0 -0.1,0 0,0 0,0 0,0 0,0 -0.1,0 -0.1,0 -0.2,0 -0.3,0 -0.4,0.1 -0.1,0 -0.3,0.1 -0.4,0.1 -0.2,0.1 -0.4,0.2 -0.5,0.3l-92.6 53.4 87.9 51.1 92.5 -53.4c0.5,-0.3 1,-0.5 1.5,-0.5 0,0 0,0 0,0z"/>
   <path class="fil42" d="M1590.4 1400.9c0,-0.6 0.1,-1.2 0.2,-1.9 0,0 0,0 0.1,0 0.1,-0.6 0.4,-1.3 0.8,-1.8l0 -0.1c0.3,-0.5 0.7,-1.1 1.2,-1.5 0,-0.1 0,-0.1 0,-0.1 0.4,-0.5 0.9,-0.9 1.5,-1.2l-87.9 -51.1c-0.4,0.3 -0.9,0.6 -1.3,1 0,0.1 -0.1,0.2 -0.2,0.2 0,0 0,0.1 0,0.1 -0.1,0 -0.1,0.1 -0.2,0.2 -0.1,0.1 -0.2,0.2 -0.3,0.4 -0.1,0.1 -0.2,0.2 -0.3,0.3 0,0.1 -0.1,0.2 -0.2,0.3 -0.1,0.1 -0.1,0.2 -0.2,0.3 0,0.1 0,0.1 0,0.1l0 0c-0.1,0.1 -0.1,0.2 -0.2,0.3 0,0.1 -0.1,0.2 -0.1,0.3 -0.1,0.1 -0.1,0.2 -0.2,0.3 0,0.1 -0.1,0.3 -0.1,0.4 -0.1,0.1 -0.1,0.2 -0.1,0.3 -0.1,0.1 -0.1,0.2 -0.1,0.2 0,0.1 0,0.1 0,0.1 0,0 0,0.1 -0.1,0.1 0,0.2 0,0.3 -0.1,0.5 0,0.1 0,0.3 -0.1,0.5 0,0.2 0,0.5 0,0.7l0 3.2c0,1.1 0.4,2 1.1,2.4l87.9 51.1c-0.7,-0.4 -1.1,-1.3 -1.1,-2.5l0 -3.1z"/>
   <path class="fil44" d="M1690.5 1343.1c0,-2.5 -1.7,-3.4 -3.8,-2.2l-92.5 53.4c-2.1,1.2 -3.9,4.2 -3.8,6.6l0 3.1c0,2.4 1.7,3.4 3.8,2.2l92.6 -53.5c2,-1.1 3.7,-4.1 3.7,-6.5l0 -3.1z"/>
   <polygon class="fil48" points="1549.1,1306.6 1545,1358.1 1562.6,1368.3 1566.7,1316.9 "/>
   <polygon class="fil49" points="1639.9,1274.6 1620.5,1266.4 1566.7,1316.9 1562.6,1368.3 1644.3,1321.2 "/>
   <path class="fil49" d="M1441.6 1349.4l2.4 -205.5 -20.6 -10.5 0.6 205.8 0 4.1 0 19.8c0,2.1 0.4,3.9 1.1,5.4 0.7,1.5 1.7,2.6 2.9,3.3l17.7 10.3c-2.5,-1.5 -4.1,-4.5 -4.1,-8.8l0 -19.7 0 -4.2z"/>
   <path class="fil49" d="M1753.2 948c0.7,-0.3 1.4,-0.4 2,-0.5 0.1,-0.1 0.1,-0.1 0.2,-0.1 0.7,0 1.3,-0.1 2,0 0,0 0.1,0 0.1,0 0.7,0.1 1.3,0.2 1.9,0.5l-17.6 -10.3c-0.2,0 -0.4,-0.1 -0.7,-0.2 -0.2,-0.1 -0.5,-0.1 -0.7,-0.2 -0.2,0 -0.3,0 -0.5,0 0,0 -0.1,0 -0.1,0 -0.1,0 -0.2,-0.1 -0.3,-0.1 -0.3,0 -0.6,0 -0.9,0 -0.3,0 -0.6,0.1 -0.8,0.1 -0.1,0 -0.1,0 -0.2,0 0,0 0,0 -0.1,0 -0.4,0.1 -0.7,0.2 -1.1,0.3 -0.3,0.1 -0.5,0.2 -0.7,0.2 -0.2,0.1 -0.4,0.1 -0.5,0.2 -0.2,0 -0.3,0.1 -0.4,0.1 -0.6,0.3 -1.3,0.6 -1.9,1l-295.8 170.8c-7.5,4.2 -13.6,14.7 -13.7,23.3l0 0.3 17.6 10.3c0,-9 8.5,-17.8 15.7,-21.9l293.8 -172.6c0.8,-0.5 1.5,-0.8 2.3,-1.1 0.1,0 0.3,-0.1 0.4,-0.1z"/>
   <path class="fil48" d="M1764.2 957c0,-4.7 -1.9,-7.9 -4.8,-9.1 -2.4,-1 -5.5,-0.7 -8.9,1.3l-295.8 170.8c-7.6,4.3 -13.7,15 -13.7,23.7l0.6 205.7 0 4.2 0 19.7c0.1,8.7 6.3,12.2 13.8,7.8l295.8 -170.8c7.6,-4.3 13.7,-15 13.7,-23.6l-0.1 -19.8 -0.6 -209.9z"/>
   <path class="fil2" d="M1624.3 955c11.9,-35.9 24.3,-91 35.3,-126.8 4.6,-14.8 10.7,-19.7 17.6,-34.7 33.1,3.4 41.7,18.4 35.8,40.5 -8.2,31.1 -37.4,99.6 -53,127 -9,6.3 -29.1,3 -35.7,-6z"/>
   <path class="fil24" d="M1278.7 1182.9c-3.7,39.2 -37.5,38 -47.7,24.1l-55.5 -61.8 47.6 -52.4c20.8,25 39.1,66.8 55.6,90.1z"/>
   <path class="fil10" d="M1334.6 1010.3c5.8,-4.7 13.3,-4.4 27.9,-11.8 10.2,-6.6 16.9,-6.9 20.3,-4.5 2.7,1.8 4.3,4.7 -3,11.2l-17.6 13.3 16.8 3 10.1 -1 25.5 -15.7c7.9,-5.6 9.9,-0.1 14.9,9.1 7.5,11.8 -9.6,22.5 -26.2,36.5 -15.8,10.4 -14,13.5 -32.3,10.9l-28.5 -4.1 -14.5 13.4 -24.3 -27.6c4.1,-2.8 11.9,-7.3 15.2,-10.9 7.4,-8.2 8.1,-15.7 15.7,-21.8z"/>
   <path class="fil24" d="M1311.1 1032.7c14.1,-1 32.7,18.3 38.7,25.5l-61.3 110.9c-10.3,18.5 -20.4,47.3 -46.7,42.2 -16.4,-3.1 -26.1,-22.4 -23.3,-35.6 10,-48.3 56.4,-93.6 92.6,-143z"/>
  </g>
 </g>
</svg>
