<?xml version="1.0" encoding="UTF-8"?>
<!DOCTYPE svg PUBLIC "-//W3C//DTD SVG 1.1//EN" "http://www.w3.org/Graphics/SVG/1.1/DTD/svg11.dtd">
<!-- Creator: CorelDRAW 2019 (64-Bit) -->
<svg xmlns="http://www.w3.org/2000/svg" xml:space="preserve" width="283px" height="248px" version="1.1" style="shape-rendering:geometricPrecision; text-rendering:geometricPrecision; image-rendering:optimizeQuality; fill-rule:evenodd; clip-rule:evenodd"
viewBox="0 0 2830 2476.2"
 xmlns:xlink="http://www.w3.org/1999/xlink"
 xmlns:xodm="http://www.corel.com/coreldraw/odm/2003">
 <defs>
  <style type="text/css">
   <![CDATA[
    .fil6 {fill:#FDDEAF}
    .fil21 {fill:#F7A90F}
    .fil20 {fill:#E8514C}
    .fil17 {fill:#FAFDFC}
    .fil29 {fill:#F9EFF7}
    .fil23 {fill:#F9D195}
    .fil9 {fill:#F2C67E}
    .fil27 {fill:#E9DFEA}
    .fil16 {fill:#E9F0F1}
    .fil36 {fill:#E3F0FB}
    .fil3 {fill:#DBE2E5}
    .fil15 {fill:#DBDADB}
    .fil34 {fill:#D4E5F5}
    .fil24 {fill:#D3C7D4}
    .fil32 {fill:#C0D2E5}
    .fil22 {fill:#97724D}
    .fil14 {fill:#9D9895}
    .fil10 {fill:#3F2C25}
    .fil18 {fill:#85807E}
    .fil31 {fill:#392B25}
    .fil7 {fill:#42BCD0}
    .fil35 {fill:#64717D}
    .fil33 {fill:#4CA9B5}
    .fil5 {fill:#1FB2C2}
    .fil25 {fill:#399DD7}
    .fil19 {fill:#29A9BA}
    .fil4 {fill:#413C44}
    .fil28 {fill:#252422}
    .fil0 {fill:#373337}
    .fil1 {fill:#3F6578}
    .fil8 {fill:#365362}
    .fil26 {fill:#2C3C47}
    .fil11 {fill:#284574}
    .fil2 {fill:#283C5D}
    .fil30 {fill:#26344B}
    .fil13 {fill:#293B5E}
    .fil12 {fill:#27334B}
   ]]>
  </style>
 </defs>
 <g id="Layer_x0020_1">
  <metadata id="CorelCorpID_0Corel-Layer"/>
  <path class="fil0" d="M606.7 1827.5c8.2,37 -17.5,67.2 -22.6,87.8l-9 35.9 -83.2 120.8c-24.5,17.4 -76,-19.4 -65.9,-43l93.8 -188.5c19,-43.3 68.6,-20.2 86.9,-13z"/>
  <path class="fil1" d="M459.7 2152c-40.4,-72.9 -7.5,-152.4 44.1,-204.4 93,-93.4 290.4,-148.8 415.6,-86.4 114.6,57.1 175.4,206.5 76.3,292.6 -107.2,93.3 -512.2,41.2 -536,-1.8z"/>
  <path class="fil2" d="M404.6 2078.1l29.9 24.2c-1.1,28.1 -1.4,41.9 -12.5,48.9 -13.4,8.6 -35.6,0.8 -49,-5.7l-3.3 -11c-18.4,-3.1 -13.5,0.1 -31.6,-10.9 -21.9,-13.4 -48.4,-31.8 -52,-52.8 -1,-6 3.8,-16.6 9.8,-15.4l66.3 12.6 42.4 10.1z"/>
  <path class="fil3" d="M430.5 2140.2c-1.7,4.8 -4.3,8.4 -8.5,11 -13.4,8.6 -35.6,0.8 -49,-5.7l-3.3 -11c-18.4,-3.1 -13.5,0.1 -31.6,-10.9 -21.9,-13.4 -48.4,-31.8 -52,-52.8 -0.8,-4.3 1.6,-11 5.2,-14 -0.6,2.1 -0.8,4.3 -0.5,6.1 3.5,20.9 30,39.4 52,52.7 18.1,11.1 13.2,7.9 31.6,10.9l3.3 11c13.4,6.6 35.5,14.3 49,5.8 1.5,-0.9 2.7,-2 3.8,-3.1z"/>
  <path class="fil4" d="M549.6 1862.7c8.2,36.9 -17.5,67.2 -22.6,87.7l-9 35.9 -83.2 120.8c-24.5,17.4 -76,-19.4 -65.9,-42.9l93.8 -188.6c19,-43.3 68.6,-20.2 86.9,-12.9z"/>
  <path class="fil0" d="M728.6 2010.4c-41,-9.4 -114.2,-72.6 -162,-106.6l-42.2 -21.6c-2.8,-43.7 0.4,-57.8 20.6,-64.7 38.2,-13.1 150.2,38.7 200.1,63.1l-16.5 129.8z"/>
  <path class="fil4" d="M805 1894.8l26.5 14.4c9.5,43.1 4.1,73.7 -15.7,94.5 -28.6,29.9 -87.9,52.2 -143.2,39.6 -41,-9.4 -114.2,-72.6 -162,-106.6l-42.2 -21.6c-2.8,-43.7 0.3,-58.2 20.6,-64.7 41.3,-13.1 145.8,40.9 195.1,65.3l120.9 -20.9z"/>
  <path class="fil5" d="M954.1 1579.2c57.9,83.5 -35.4,274.4 -62.3,330.3 -33.2,69 -230.8,94.9 -206.7,-4.7 49.9,-121.5 30.1,-143 38.8,-223.7 2.8,-26.5 4.7,-40.8 19.4,-56.1 28,-29.1 180.6,-89.4 210.8,-45.8z"/>
  <path class="fil6" d="M615.3 1849.3c-20.1,-4.4 -21.9,-6.2 -42.3,-17.5 -7.6,-4.2 -11.4,-6.4 -23.5,-7.6 -11.5,-1.3 -31.8,12.7 -51.8,18.2 -13.3,3.7 -12.6,15.1 -10.3,21.2 4.2,11.7 21.1,12.1 34.8,16.2 12,3.5 18.1,6 33.1,6.7 9.6,0.4 21,-2.1 30.6,-1.6l27.7 -0.8 1.2 -32.5 -0.8 -0.2 1.3 -2.1z"/>
  <path class="fil7" d="M712 1814.1l-122.9 26.9c-5.5,7.5 -8,32 2.5,46.9 14.6,0.4 142.5,-9.4 185.7,-20.3 19.7,-5 22,-13.8 18.3,-33.5 -6.9,-34.2 -49.8,-27.5 -83.6,-20z"/>
  <path class="fil7" d="M725.7 1671.3c-2.2,33.8 3.7,82.9 5.7,125 4.9,42.9 -3.1,69.4 39.6,70.2 20.2,1.5 25.1,-6.1 27.8,-26l17.8 -128.2c1,-47.9 -20.6,-85.8 -43.3,-95.1 -21.7,-9 -44.6,8.4 -47.6,54.1z"/>
  <path class="fil8" d="M448.2 2111.7c-0.4,39.5 24.5,79 71,122.5 107.1,100.3 420.9,144.6 584.3,-11.3 161.1,-153.7 98.6,-486.8 -79.5,-551.4 -27.9,-10.1 -124.2,52.8 -131.2,71.6 -14.7,39.2 -42.5,92.7 -80.8,135.2 -91.9,101.7 -171.1,106.6 -229.1,116.6 -67.4,11.6 -133.8,34.1 -134.7,116.8z"/>
  <path class="fil9" d="M899.9 1510.8c-13.1,42.8 -14.2,41.1 -12.3,73.3 1.3,21.8 -62,16.4 -61.6,-2.5 6.3,-37.6 1.1,-55.6 -5,-111.4l78.9 40.6z"/>
  <path class="fil6" d="M806.5 1431.7c-7.6,11.5 -12.5,21.1 -14.2,37.1 -1.4,12.9 -1.4,32.1 -1.2,45.1 0.1,10.7 -1.5,49.9 6.3,55.2 5.5,3.7 37.7,-3.3 49.8,-13.6 8.7,-7.4 4.6,-30.7 8.8,-35.3l-11.9 -80.8 -37.6 -7.7z"/>
  <path class="fil10" d="M901.3 1425.3c28.4,25 25.6,64.6 5.2,94.1 -9.2,13.2 -14.6,21.8 -19.7,46.6 -22.6,4.9 -34.2,-1.3 -46.7,-24.5 -12.6,-23.2 -7,-46.2 -19.4,-48.8 -5.1,-1.1 -10.3,4.9 -10.8,25.2 -6.5,-20.4 -6,-46.8 -17.1,-64 -5.2,-8.1 -7.1,-16 -6.2,-27 11.9,0 22.3,-11.7 36.7,-15.7 29.1,-8 64.6,-7 78,14.1z"/>
  <path class="fil5" d="M887.8 1571.6c-2.5,17.9 -44.9,18 -61.7,2.6l-7.4 12.8c12.2,25.6 68.1,34.2 71.7,6.2l-2.6 -21.6z"/>
  <polygon class="fil11" points="666.3,1299.9 713.3,1272.6 713.5,1224.4 666.5,1251.7 "/>
  <polygon class="fil12" points="666.5,1251.7 713.5,1224.4 559.7,1135.6 512.7,1163 "/>
  <polygon class="fil13" points="512.7,1163 512.5,1211.1 666.3,1299.9 666.5,1251.7 "/>
  <polygon class="fil11" points="383.5,1461.6 430.6,1434.3 430.7,1386.1 383.7,1413.4 "/>
  <polygon class="fil12" points="383.7,1413.4 430.7,1386.1 277,1297.3 229.9,1324.7 "/>
  <polygon class="fil13" points="229.9,1324.7 229.8,1372.8 383.5,1461.6 383.7,1413.4 "/>
  <polygon class="fil14" points="644.2,768.7 616.4,752.6 588.4,768.7 616.2,784.9 "/>
  <polygon class="fil13" points="616.2,784.9 608.7,966.1 617.4,1212.7 645.4,1196.6 644.2,768.7 "/>
  <polygon class="fil12" points="616.2,784.9 588.4,768.7 589.6,1196.6 617.4,1212.7 "/>
  <polygon class="fil13" points="336.4,946.6 320.9,1152.2 337.6,1374.4 365.6,1358.3 364.4,930.4 "/>
  <polygon class="fil12" points="336.4,946.6 308.6,930.5 309.8,1358.3 337.6,1374.4 "/>
  <polygon class="fil14" points="364.4,930.4 336.6,914.3 308.6,930.5 336.4,946.6 "/>
  <polygon class="fil13" points="295.6,943 257.8,921.1 257.9,960.7 295.7,982.6 "/>
  <polygon class="fil12" points="682.7,719.5 644.9,697.6 257.8,921.1 295.6,943 "/>
  <polygon class="fil11" points="295.6,943 295.7,982.6 682.8,759.1 682.7,719.5 "/>
  <polygon class="fil15" points="662.1,122.6 647,113.8 276.7,327.6 291.8,336.4 "/>
  <polygon class="fil16" points="291.8,336.4 276.7,327.6 278.3,921 293.4,929.8 "/>
  <polygon class="fil17" points="291.8,336.4 293.4,929.8 663.8,716 662.1,122.6 "/>
  <path class="fil18" d="M327.9 445.3l0 -3.9 -6.5 3.7 0 4 6.5 -3.8zm13.4 -7.7l0 -3.9 -6.7 3.8 0 3.9 6.7 -3.8 0 0zm13.4 -7.7l0 -4 -6.8 3.9 0.1 3.9 6.7 -3.8 0 0zm13.1 -7.6l0 -4 -6.5 3.8 0 3.9 6.5 -3.7 0 0zm13.4 -7.7l0 -4 -6.8 3.9 0.1 3.9 6.7 -3.8 0 0zm26.4 -15.3l0 -3.9 -6.4 3.7 0 3.9 6.4 -3.7 0 0zm13.5 -7.8l-0.1 -3.9 -6.7 3.9 0 3.9 6.8 -3.9 0 0zm13.3 -10.4l0 -1.2 -6.7 3.9 0 3.9 3.7 -2.1 0 4.9 3.2 -1.8 0 -7.7 -0.2 0.1 0 0zm13.1 -4.9l0 -3.9 -6.5 3.8 0 3.9 6.5 -3.8 0 0zm13.4 -7.7l0 -3.9 -6.6 3.8 0 4 6.6 -3.9 0 0zm13.4 -7.7l0 -3.9 -6.7 3.8 0 4 6.7 -3.9 0 0zm13.1 -7.6l0 -3.9 -6.7 3.8 0 4 6.7 -3.9 0 0zm13.4 -7.7l0 -3.9 -6.7 3.8 0 4 6.7 -3.9 0 0zm13.3 -7.7l0 -4 -6.6 3.9 0 3.9 6.6 -3.8 0 0zm13.2 -7.6l0 -3.9 -6.7 3.8 0 1.2 -0.7 0.4 0.1 7.7 3.2 -1.9 0 -4.9 4.1 -2.4 0 0zm13.4 -7.7l0 -4 -6.7 3.9 0 3.9 6.7 -3.8 0 0zm13.3 -7.7l0 -4 -6.7 3.9 0 3.9 6.7 -3.8 0 0zm13.2 -10.4l0 -1.2 -6.7 3.9 0 3.9 3.7 -2.1 0 5 3.4 -2 0 -7.7 -0.4 0.2 0 0zm13.3 -4.9l0 -4 -6.6 3.9 0 3.9 6.6 -3.8 0 0zm13.4 -7.8l0 -3.9 -6.7 3.9 0 3.9 6.7 -3.9 0 0zm13.2 -7.6l0 -3.9 -6.7 3.9 0 3.9 6.7 -3.9 0 0zm13.3 -7.7l0 -3.9 -6.7 3.9 0 3.9 6.7 -3.9 0 0zm13.2 -7.6l-0.1 -3.9 -6.4 3.7 0 4 6.5 -3.8 0 0zm13.3 -7.7l0 -3.9 -6.6 3.8 0 4 6.6 -3.9 0 0zm-332 239.1l-6.7 3.9 0 3.7 6.7 -3.9 0 -3.7 0 0zm13.2 -3.8l-0.1 -3.7 -6.5 3.7 0.1 3.7 6.5 -3.7 0 0zm13.3 -7.8l0 -3.7 -6.6 3.9 0 3.7 6.6 -3.9 0 0zm13.4 -7.7l0 -3.7 -6.7 3.9 0 3.7 6.7 -3.9 0 0zm13.1 -7.6l0 -3.7 -6.5 3.8 0.1 3.7 6.4 -3.8 0 0zm13.4 -7.7l0 -3.7 -6.7 3.9 0 3.7 6.7 -3.9 0 0zm13.3 -11.4l-4.3 2.5 0 -4 -3.2 1.8 0 7.7 0.9 -0.5 2.3 -1.3 4.3 -2.5 0 -3.7 0 0zm13.2 -3.9l0 -3.7 -6.5 3.7 0.1 3.7 6.4 -3.7 0 0zm13.4 -7.7l0 -3.7 -6.7 3.8 0 3.8 6.7 -3.9 0 0zm10.3 -9.7l-3.7 2.1 0 3.7 3.7 -2.1 3.1 -1.7 0.2 -0.2 -0.1 -7.7 -3.2 1.9 0 4 0 0zm16.2 -5.6l0 -3.7 -6.5 3.7 0 3.7 6.5 -3.7 0 0zm13.3 -7.7l0 -3.7 -6.6 3.8 0 3.7 6.6 -3.8 0 0zm13.4 -7.8l0 -3.7 -6.7 3.9 0 3.7 6.7 -3.9 0 0zm13.2 -7.6l0 -3.7 -6.7 3.9 0 3.7 6.7 -3.9 0 0zm13.3 -7.7l0 -3.7 -6.7 3.9 0 3.7 6.7 -3.9 0 0zm13.4 -7.7l0 -3.7 -6.7 3.9 0 3.7 6.7 -3.9 0 0zm13.1 -11.3l-4.1 2.4 0 -4 -3.2 1.9 0 7.7 0.7 -0.4 2.5 -1.5 4.1 -2.4 0 -3.7 0 0zm13.4 -4l0 -3.7 -6.7 3.9 0 3.7 6.7 -3.9 0 0zm13.4 -7.7l0 -3.7 -6.7 3.9 0 3.7 6.7 -3.9 0 0zm10.1 -9.6l-3.7 2.2 0 3.7 3.7 -2.2 3 -1.7 0.4 -0.2 0 -7.7 -3.4 1.9 0 4 0 0zm16.4 -5.7l0 -3.7 -6.7 3.8 0 3.7 6.7 -3.8 0 0zm13.4 -7.7l0 -3.7 -6.7 3.8 0 3.7 6.7 -3.8 0 0zm13.1 -7.6l0 -3.7 -6.7 3.9 0 3.6 6.7 -3.8 0 0zm13.4 -7.7l-0.1 -3.7 -6.6 3.8 0 3.7 6.7 -3.8 0 0zm13.1 -7.6l0 -3.7 -6.4 3.7 0 3.7 6.4 -3.7 0 0zm13.4 -7.7l-0.1 -3.7 -6.6 3.8 0 3.7 6.7 -3.8 0 0zm-332.1 239l-6.7 3.9 0.1 4 6.7 -3.9 -0.1 -4 0 0zm13.2 -3.6l0 -4 -6.5 3.8 0 4 6.5 -3.8 0 0zm13.3 -7.7l0 -4 -6.6 3.8 0 4.1 6.6 -3.9 0 0zm13.5 -7.7l0 -4 -6.8 3.8 0.1 4 6.7 -3.8 0 0zm13.1 -7.6l0 -4 -6.5 3.7 0 4 6.5 -3.7 0 0zm13.3 -7.7l0 -4 -6.7 3.8 0 4.1 6.7 -3.9 0 0zm9.1 -10.7l-3.2 1.9 -0.1 -7.7 3.2 -1.9 0.1 7.7 0 0zm4.3 3l0 -4 -6.7 3.8 0.1 4 6.6 -3.8 0 0zm13.1 -7.6l0 -4 -6.4 3.7 0 4 6.4 -3.7 0 0zm13.4 -7.8l0 -4 -6.7 3.9 0 4 6.7 -3.9 0 0zm13.6 -13.2l-3.2 1.8 -0.1 -7.7 3.3 -1.8 0 7.7 0 0zm0 15.3l-3.2 1.9 0 -7.7 3.2 -1.9 0 7.7 0 0zm-0.2 -9.8l0 -4 -6.7 3.9 0 4 6.7 -3.9 0 0zm13.1 -7.5l0 -4.1 -6.5 3.8 0 4 6.5 -3.7 0 0zm13.4 -7.7l0 -4.1 -6.7 3.9 0 4 6.7 -3.8 0 0zm13.4 -7.8l0 -4 -6.7 3.9 0 4 6.7 -3.9 0 0zm13.1 -7.6l0 -4 -6.7 3.9 0 4 6.7 -3.9 0 0zm13.4 -7.7l0 -4 -6.7 3.9 0 4 6.7 -3.9 0 0zm13.3 -7.7l0 -4 -6.6 3.8 0 4 6.6 -3.8 0 0zm13.2 -7.6l-6.7 3.9 0 -4.1 6.6 -3.8 0.1 4 0 0zm13.4 -7.7l0 -4 -6.7 3.8 0 4.1 6.7 -3.9 0 0zm13.3 -7.7l0 -4 -6.7 3.8 0 4 6.7 -3.8 0 0zm13.6 -13.3l-3.5 2 0 -7.7 3.4 -2 0.1 7.7 0 0zm0 15.3l-3.4 2 0 -7.7 3.4 -2 0 7.7 0 0zm-0.4 -9.6l0 -4 -6.7 3.8 0 4.1 6.7 -3.9 0 0zm13.3 -7.7l0 -4 -6.6 3.8 0 4 6.6 -3.8 0 0zm13.4 -7.8l0 -4 -6.7 3.9 0 4 6.7 -3.9 0 0zm13.2 -7.6l0 -4 -6.8 3.9 0.1 4 6.7 -3.9 0 0zm13.3 -7.7l0 -4 -6.7 3.9 0 4 6.7 -3.9 0 0zm13.2 -7.6l-0.1 -4 -6.4 3.8 0 4 6.5 -3.8 0 0zm13.3 -7.6l0 -4.1 -6.7 3.9 0.1 4 6.6 -3.8 0 0zm-332 239l-6.7 3.8 0 3.8 6.7 -3.8 0 -3.8 0 0zm13.1 -3.8l0 -3.8 -6.5 3.7 0 3.8 6.5 -3.7 0 0zm13.4 -7.7l0 -3.8 -6.7 3.8 0 3.8 6.7 -3.8 0 0zm13.4 -7.8l0 -3.8 -6.7 3.9 0 3.8 6.7 -3.9 0 0zm13.1 -7.6l0 -3.8 -6.5 3.8 0.1 3.8 6.4 -3.8 0 0zm13.4 -7.7l0 -3.8 -6.7 3.9 0 3.8 6.7 -3.9 0 0zm13.3 -7.7l0 -3.8 -6.6 3.9 0 1 -0.9 0.5 0 7.7 3.2 -1.8 0 -5 4.3 -2.5 0 0zm13.2 -7.6l0 -3.7 -6.5 3.7 0 3.7 6.5 -3.7 0 0zm13.4 -7.7l0 -3.8 -6.7 3.9 0 3.8 6.7 -3.9 0 0zm13.3 -10.5l0 -1 -6.7 3.9 0 3.8 3.7 -2.2 0 5 3.3 -1.9 -0.1 -7.7 -0.2 0.1 0 0zm13.2 -4.8l0 -3.8 -6.5 3.8 0 3.7 6.5 -3.7 0 0zm13.3 -7.7l0 -3.8 -6.6 3.8 0 3.8 6.6 -3.8 0 0zm13.4 -7.7l0 -3.8 -6.7 3.8 0 3.8 6.7 -3.8 0 0zm13.2 -7.6l0 -3.8 -6.7 3.9 0 3.7 6.7 -3.8 0 0zm13.3 -7.7l0 -3.8 -6.7 3.9 0 3.7 6.7 -3.8 0 0zm13.4 -7.8l0 -3.7 -6.7 3.8 0 3.8 6.7 -3.9 0 0zm26.5 -15.3l0 -3.8 -6.7 3.9 0 3.8 6.7 -3.9 0 0zm13.4 -7.7l0 -3.8 -6.8 3.9 0.1 3.8 6.7 -3.9 0 0zm13.1 -10.3l0 -1 -6.7 3.8 0 3.8 3.7 -2.1 0 4.9 3.4 -2 0 -7.7 -0.4 0.3 0 0zm13.4 -5l-0.1 -3.8 -6.6 3.9 0 3.7 6.7 -3.8 0 0zm13.4 -7.7l0 -3.8 -6.7 3.9 0 3.7 6.7 -3.8 0 0zm13.1 -7.6l0 -3.8 -6.7 3.9 0 3.8 6.7 -3.9 0 0zm13.4 -7.7l-0.1 -3.8 -6.7 3.9 0 3.8 6.8 -3.9 0 0zm13.1 -7.6l0 -3.8 -6.4 3.7 0 3.8 6.4 -3.7 0 0zm13.4 -7.7l-0.1 -3.8 -6.6 3.8 0 3.8 6.7 -3.8 0 0zm-332.1 239l-6.7 3.9 0 4 6.7 -3.9 0 -4 0 0zm13.2 -3.6l0 -4 -6.5 3.8 0 4 6.5 -3.8 0 0zm13.3 -7.7l0 -4 -6.6 3.8 0 4.1 6.6 -3.9 0 0zm13.4 -7.7l0 -4 -6.7 3.8 0 4.1 6.7 -3.9 0 0zm13.2 -7.6l0 -4 -6.5 3.8 0 4 6.5 -3.8 0 0zm13.3 -7.7l0 -4 -6.7 3.9 0 4 6.7 -3.9 0 0zm6.8 -4.2l0 0.3 6.6 -3.8 0 -4 -4.3 2.5 0 -4 -3.3 1.9 0.1 7.6 0.9 -0.5 0 0zm19.7 -11.1l0 -4 -6.4 3.7 0 4 6.4 -3.7 0 0zm13.4 -7.7l0 -4 -6.7 3.8 0 4 6.7 -3.8 0 0zm26.5 -15.3l0 -4 -6.5 3.7 0 4 6.5 -3.7 0 0zm13.4 -7.7l0 -4.1 -6.7 3.9 0 4 6.7 -3.8 0 0zm13.4 -7.8l0 -4 -6.7 3.9 0 4 6.7 -3.9 0 0zm13.1 -7.6l0 -4 -6.7 3.9 0 4 6.7 -3.9 0 0zm13.4 -7.7l0 -4 -6.8 3.9 0.1 4 6.7 -3.9 0 0zm13.3 -7.7l0 -4 -6.6 3.8 0 4 6.6 -3.8 0 0zm26.6 -15.3l0 -4 -6.7 3.8 0 4.1 6.7 -3.9 0 0zm13.3 -7.7l0 -4 -6.7 3.8 0 4.1 6.7 -3.9 0 0zm26.5 -15.3l0 -4 -6.6 3.8 0 4 6.6 -3.8 0 0zm13.4 -7.7l0 -4.1 -6.7 3.9 0 4 6.7 -3.8 0 0zm13.2 -7.6l-0.1 -4.1 -6.7 3.9 0.1 4 6.7 -3.8 0 0zm13.3 -7.7l0 -4.1 -6.7 3.9 0 4 6.7 -3.8 0 0zm13.2 -7.6l-0.1 -4 -6.4 3.7 0 4 6.5 -3.7 0 0zm13.3 -7.7l0 -4.1 -6.7 3.9 0.1 4 6.6 -3.8 0 0zm-80 -192.3l-3.4 2 0 7.6 3.4 -2 0 -7.6 0 0zm0.1 23l-0.1 -7.7 -3.4 2 0 7.7 3.5 -2 0 0zm0 30.7l0 -7.6 -3.4 2 0 7.6 3.4 -2 0 0zm0.1 15.4l0 -7.7 -3.5 2 0.1 7.7 3.4 -2 0 0zm0.1 30.7l0 -7.6 -3.5 2 0 7.6 3.5 -2 0 0zm0 15.1l0 -7.6 -3.4 1.9 0 7.7 3.4 -2 0 0zm0.1 46.1l0 -7.7 -3.4 2 0 7.7 3.4 -2 0 0zm0.1 15.3l0 -7.6 -3.5 2 0.1 7.6 3.4 -2 0 0zm0.1 30.8l0 -7.7 -3.5 1.9 0.1 7.7 3.4 -1.9 0 0zm0 15.3l0 -7.6 -3.4 2 0 7.6 3.4 -2 0 0zm0.1 15.4l-0.1 -7.7 -3.4 2 0 3.9 -3.7 2.2 0.1 4 6.7 -3.9 0 -0.3 0.4 -0.2 0 0zm0 15.4l0 -7.7 -3.4 1.9 0 7.7 3.4 -1.9 0 0zm0.1 15.3l-0.1 -7.7 -3.4 2 0 7.7 3.5 -2 0 0zm43.4 -294l-3.2 1.8 0 7.7 3.2 -1.9 0 -7.6 0 0zm0.1 23l0 -7.7 -3.3 1.9 0.1 7.7 3.2 -1.9 0 0zm0 15.4l0 -7.8 -3.2 1.9 0 7.7 3.2 -1.8 0 0zm0.1 15.3l-0.1 -7.6 -3.2 1.8 0 7.7 3.3 -1.9 0 0zm0 15.4l0 -7.7 -3.2 1.9 0 7.7 3.2 -1.9 0 0zm0.1 15.3l-0.1 -7.7 -3.2 1.9 0 7.7 3.3 -1.9 0 0zm0 15.4l0 -7.6 -3.3 1.8 0.1 7.6 3.2 -1.8 0 0zm0 15.1l0 -7.7 -3.2 1.9 0 7.6 3.2 -1.8 0 0zm0.1 15.4l-0.1 -7.7 -3.2 1.8 0.1 7.8 3.2 -1.9 0 0zm0 15.3l0 -7.7 -3.2 1.9 0 7.7 3.2 -1.9 0 0zm0.1 15.4l-0.1 -7.7 -3.2 1.8 0 7.7 3.3 -1.8 0 0zm0 15.3l0 -7.6 -3.2 1.8 0 7.7 3.2 -1.9 0 0zm0 15.4l0 -7.7 -3.2 1.9 0 7.7 3.2 -1.9 0 0zm0.1 15.4l0 -7.8 -3.2 1.9 0 7.7 3.2 -1.8 0 0zm0 15.3l0 -7.6 -3.2 1.8 0 7.6 3.2 -1.8 0 0zm0.1 15.3l0 -7.6 -3.3 1.9 0.1 7.6 3.2 -1.9 0 0zm0 15.4l0 -7.7 -3.2 1.9 0 7.7 3.2 -1.9 0 0zm0.1 15.4l-0.1 -7.7 -3.2 1.8 0.1 7.7 3.2 -1.8 0 0zm-89.4 -217.3l-3.2 1.8 0 7.6 3.2 -1.8 0 -7.6 0 0zm0 23l0 -7.7 -3.2 1.8 0 7.7 3.2 -1.8 0 0zm0.1 30.7l0 -7.7 -3.2 1.9 0 7.6 3.2 -1.8 0 0zm0.1 15.4l-0.1 -7.7 -3.2 1.8 0 7.7 3.3 -1.8 0 0zm0.1 30.7l-0.1 -7.7 -3.2 1.9 0 7.6 3.3 -1.8 0 0zm0 15.1l0 -7.7 -3.2 1.9 0 7.6 3.2 -1.8 0 0zm0 15.4l0 -7.7 -3.2 1.8 0 7.7 3.2 -1.8 0 0zm0.1 15.3l0 -7.7 -3.3 1.8 0.1 7.7 3.2 -1.8 0 0zm0 15.3l0 -7.7 -3.2 1.9 0 7.7 3.2 -1.9 0 0zm0.1 15.4l-0.1 -7.7 -3.2 1.9 0.1 7.6 3.2 -1.8 0 0zm-2.5 9.1l-0.7 0.4 0 7.7 3.2 -1.8 0 -5 4.1 -2.3 0 -3.8 -6.6 3.8 0 1 0 0zm2.6 21.6l-0.1 -7.7 -3.2 1.9 0 7.7 3.3 -1.9 0 0zm0 15.4l0 -7.7 -3.2 1.9 0 7.6 3.2 -1.8 0 0zm0 11.6l0 -3.9 -3.2 1.8 0 7.6 0.7 -0.4 0 0.4 6.7 -3.9 -0.1 -4 -4.1 2.4 0 0zm0.1 19.1l0 -7.7 -3.2 1.8 0 7.8 3.2 -1.9 0 0zm0 15.3l0 -7.7 -3.2 1.9 0 7.7 3.2 -1.9 0 0zm-44.9 -243l-3.5 2 0.1 7.7 3.5 -2 -0.1 -7.7 0 0zm0.1 23.1l0 -7.7 -3.5 2 0 7.7 3.5 -2 0 0zm0 15.3l0 -7.7 -3.5 2 0.1 7.7 3.4 -2 0 0zm0.1 15.3l0 -7.6 -3.5 2 0 7.7 3.5 -2.1 0 0zm0 15.5l0 -7.7 -3.5 2 0 7.7 3.5 -2 0 0zm0.1 15.3l-0.1 -7.7 -3.4 2 0 7.7 3.5 -2 0 0zm0 15.3l0 -7.6 -3.5 2 0 7.7 3.5 -2.1 0 0zm0 15.1l0 -7.6 -3.5 2 0.1 7.7 3.4 -2.1 0 0zm0.1 15.5l0 -7.8 -3.5 2.1 0 7.7 3.5 -2 0 0zm0 15.3l0 -7.7 -3.5 2 0.1 7.7 3.4 -2 0 0zm0.1 15.3l0 -7.7 -3.5 2 0 7.7 3.5 -2 0 0zm0 15.4l0 -7.7 -3.5 2 0 7.7 3.5 -2 0 0zm0.1 15.4l-0.1 -7.7 -3.4 2 0 7.7 3.5 -2 0 0zm0 15.3l0 -7.7 -3.5 2 0 7.7 3.5 -2 0 0zm0.1 15.3l-0.1 -7.6 -3.5 2 0.1 7.7 3.5 -2.1 0 0zm0 15.4l0 -7.6 -3.5 2 0 7.6 3.5 -2 0 0zm0 15.4l0 -7.7 -3.5 2 0.1 7.7 3.4 -2 0 0zm0.1 15.3l0 -7.7 -3.5 2 0 7.7 3.5 -2 0 0zm-45.2 -242.8l-3.2 1.8 0 7.7 3.2 -1.9 0 -7.6 0 0zm0.1 23l0 -7.7 -3.3 1.9 0.1 7.7 3.2 -1.9 0 0zm0.1 30.7l0 -7.6 -3.3 1.8 0.1 7.7 3.2 -1.9 0 0zm0 15.4l0 -7.7 -3.2 1.9 0 7.7 3.2 -1.9 0 0zm0.1 30.7l0 -7.7 -3.2 1.9 0 7.6 3.2 -1.8 0 0zm0 15.1l0 -7.6 -3.2 1.8 0 7.6 3.2 -1.8 0 0zm0.2 46.1l-0.1 -7.7 -3.2 1.8 0.1 7.7 3.2 -1.8 0 0zm0 15.3l0 -7.6 -3.2 1.8 0 7.7 3.2 -1.9 0 0zm0.1 30.7l0 -7.7 -3.2 1.9 0 7.7 3.2 -1.9 0 0zm0 15.4l0 -7.6 -3.2 1.8 0 7.6 3.2 -1.8 0 0zm0.1 15.3l0 -7.6 -3.3 1.8 0.1 4 -3.7 2.1 0 4 6.7 -3.8 0 -0.4 0.2 -0.1 0 0zm0 15.4l0 -7.7 -3.2 1.9 0 7.7 3.2 -1.9 0 0zm0.1 15.4l0 -7.7 -3.3 1.8 0.1 7.7 3.2 -1.8 0 0zm-45.2 -242.9l-3.2 1.9 0 7.6 3.2 -1.9 0 -7.6 0 0zm0.1 23.1l-0.1 -7.7 -3.2 1.8 0 7.7 3.3 -1.8 0 0zm-2.3 8.9l-0.9 0.5 0 7.8 3.2 -1.9 0 -5 4.3 -2.4 0 -4 -6.6 3.9 0 1.1 0 0zm2.4 21.7l-0.1 -7.6 -3.2 1.9 0 7.6 3.3 -1.9 0 0zm0 15.5l0 -7.7 -3.2 1.8 0 7.7 3.2 -1.8 0 0zm0.1 30.6l0 -7.6 -3.3 1.8 0.1 7.7 3.2 -1.9 0 0zm0 15.1l0 -7.6 -3.2 1.9 0 7.6 3.2 -1.9 0 0zm0.1 30.8l0 -7.7 -3.2 1.8 0 7.7 3.2 -1.8 0 0zm0.1 15.3l-0.1 -7.7 -3.2 1.9 0 7.7 3.3 -1.9 0 0zm0 15.3l0 -7.6 -3.2 1.9 0 7.6 3.2 -1.9 0 0zm0.1 30.8l0 -7.7 -3.3 1.8 0.1 7.8 3.2 -1.9 0 0zm0 15.3l0 -7.6 -3.2 1.9 0 7.6 3.2 -1.9 0 0zm0.1 30.8l0 -7.7 -3.2 1.8 0 7.7 3.2 -1.8 0 0zm0.1 15.3l-0.1 -7.7 -3.2 1.9 0.1 7.7 3.2 -1.9 0 0zm-44.9 -243l-3.3 1.9 0 7.6 3.3 -1.9 0 -7.6 0 0zm0 23.1l0 -7.8 -3.3 2 0 7.7 3.3 -1.9 0 0zm0.1 15.3l-0.1 -7.7 -3.3 1.9 0.1 7.7 3.3 -1.9 0 0zm0 15.3l0 -7.6 -3.3 1.9 0 7.6 3.3 -1.9 0 0zm0.1 15.4l-0.1 -7.7 -3.3 1.9 0.1 7.7 3.3 -1.9 0 0zm0 15.4l0 -7.7 -3.3 1.9 0 7.7 3.3 -1.9 0 0zm0 15.3l0 -7.6 -3.3 1.9 0 7.6 3.3 -1.9 0 0zm0.1 15.1l0 -7.6 -3.3 1.9 0 7.6 3.3 -1.9 0 0zm0 15.4l0 -7.7 -3.3 1.9 0 7.7 3.3 -1.9 0 0zm0.1 15.4l-0.1 -7.7 -3.2 1.8 0 7.8 3.3 -1.9 0 0zm0 15.3l0 -7.7 -3.3 1.9 0 7.7 3.3 -1.9 0 0zm0.1 15.3l-0.1 -7.6 -3.3 1.9 0.1 7.6 3.3 -1.9 0 0zm0 15.4l0 -7.7 -3.3 1.9 0 7.7 3.3 -1.9 0 0zm0 15.4l0 -7.7 -3.3 1.9 0.1 7.7 3.2 -1.9 0 0zm0.1 15.3l0 -7.6 -3.3 1.9 0 7.6 3.3 -1.9 0 0zm0 15.4l0 -7.7 -3.3 1.9 0 7.6 3.3 -1.8 0 0zm0.1 15.4l0 -7.7 -3.3 1.9 0 7.7 3.3 -1.9 0 0zm0 15.3l0 -7.7 -3.3 1.9 0 7.7 3.3 -1.9 0 0zm-31.9 -220.9l-6.8 3.8 0.1 4 6.7 -3.9 0 -3.9 0 0z"/>
  <polygon class="fil13" points="295.6,311.4 257.8,289.5 257.9,329.1 295.7,351.1 "/>
  <polygon class="fil12" points="682.7,87.9 644.9,66 257.8,289.5 295.6,311.4 "/>
  <polygon class="fil11" points="295.6,311.4 295.7,351.1 682.8,127.6 682.7,87.9 "/>
  <polygon class="fil19" points="390.8,479.3 351.7,635.1 384.8,615.9 430.8,589.4 407.6,525.7 "/>
  <polygon class="fil20" points="442.9,385.7 407.6,525.7 430.8,589.4 384.8,615.9 421.5,594.8 502.1,548.2 463.1,441 "/>
  <polygon class="fil11" points="494,326.7 463.1,441 502.1,548.2 421.5,594.8 500.7,549.1 567.6,510.4 532.5,422.7 "/>
  <polygon class="fil21" points="558.7,318.7 532.5,422.7 567.6,510.4 500.7,549.1 617.7,481.5 "/>
  <path class="fil6" d="M362.7 714.4l1.4 -0.1c9.4,-7.8 14,-10.8 18.6,-15.7 5.7,-6 10.3,-13.2 15.8,-26.7 2.6,-6.6 3.6,-7.3 10,-10.6l13.3 -6.8c8.4,-4.3 9.5,-3 19.4,-2.8 7.9,0.3 16.6,0.8 16.2,6.2 -0.3,5.3 -7.7,5.9 -15.7,7.8 -3.6,12.7 -7.1,21.9 -7.5,35.1 -10.1,13.9 -14.4,22.6 -25,26.2 -3.7,1.3 -7.7,0.8 -13.5,0.7l-19.3 23.4 -13.7 -36.7z"/>
  <path class="fil9" d="M457.2 659.2c-1.4,4.1 -8.2,4.8 -15.5,6.5 -0.3,1.2 -3.9,5.8 -3.2,6.4 1.3,1.2 7.4,-1.9 7.7,-0.1 0.8,7.2 1.2,15.9 -0.8,25.4 -0.7,1 -12.6,5.4 -13.3,6.4 -8.7,12.2 -13.1,19.9 -22.9,23.2 -2.7,0.9 -5.5,0.9 -9.1,0.8 3.5,-14.4 0.9,-40.9 7.8,-52.2 3.6,-5.8 8.3,-10.4 23.5,-16.5 11.8,-0.9 21,-1.4 25.8,0.1z"/>
  <path class="fil22" d="M413.5 693.1c-1.5,3.1 1.3,10.1 5.3,9.9l0 0c4,-0.1 8.4,1.4 9.6,-1.9l99.2 -243.1 -114.1 235.1z"/>
  <path class="fil23" d="M432.6 684.2c4.4,-1.3 11,-3.5 13.7,-6.1 1.4,-1.2 1.2,-4.3 0.8,-6.2 -0.4,-2 -0.1,-2.8 -4.3,-1.8 -2.9,0.7 -7,2.2 -10,3.7 -5.9,3.1 -8.3,12.8 -0.2,10.4z"/>
  <path class="fil6" d="M430.5 696.7c4.4,-1 13,-5.3 15.8,-7.7 1.3,-1.2 1.2,-4.2 0.8,-6.3 -0.4,-1.9 -0.8,-2.9 -3.5,-2 -2.8,1 -9.9,4.3 -12.9,5.7 -5.9,2.8 -8.3,12.3 -0.2,10.3z"/>
  <path class="fil6" d="M432.3 705.1c3.5,-0.8 10.4,-4.2 12.6,-6.2 1.1,-0.9 1,-3.3 0.6,-4.9 -0.3,-1.6 -0.6,-2.4 -2.7,-1.7 -2.3,0.9 -7.9,3.5 -10.3,4.6 -4.4,2.1 -6.4,8.8 -1.3,8.4 0.3,0 0.7,-0.1 1.1,-0.2z"/>
  <path class="fil6" d="M409.3 669c8,2.6 18.6,-2.2 26,-9.8 3.2,-3.2 6.3,-6.4 9,-7.8 1.8,-0.6 3.5,-0.5 4.9,0.6 2.5,2 2.5,11.3 -6.2,18.2l-13.7 10.8c-5.8,20.9 -10.4,26.8 -31.8,32.9l-11.1 -13.6 12.5 -22 10.4 -9.3z"/>
  <path class="fil24" d="M261.7 800.9l114.8 -101.8c14.2,5 28.5,17 29.5,31.1l-102.1 114.1c-33.4,29.1 -76.3,-2 -42.2,-43.4z"/>
  <path class="fil24" d="M287.4 671.9l14.7 113.4c4.7,37.6 -47.7,66.3 -56.6,18.1l-33.7 -138.5c-8.9,-79.3 30.1,-79.5 53.7,-62.4 18.6,13.5 19,46.9 21.9,69.4z"/>
  <path class="fil25" d="M160.3 1439.1c6.1,21 11.2,26.4 20.5,35.8 6.9,7.1 44.2,30.9 46.9,37.7 2,5.3 2.1,14 -6.1,19.2 -8.7,5.6 -25.4,5.4 -37,3.6 -24.2,-3.7 -43.2,-17.9 -62.5,-32.2 -1.9,2 -10.6,-1 -18.7,-5.7 -6.7,-3.9 -10,-7.2 -10.8,-13.5 -0.6,-4.3 0.3,-13.7 0.8,-18.3 1.5,-12.5 6.9,-22.4 12.5,-35.2l24 -5.4 30.4 14z"/>
  <path class="fil26" d="M228.7 1516.6c0.6,5 -0.7,11.1 -7.1,15.2 -8.7,5.6 -25.4,5.4 -37,3.6 -24.2,-3.7 -43.2,-17.9 -62.5,-32.2 -1.9,2 -10.6,-1 -18.7,-5.7 -6.7,-3.9 -10,-7.2 -10.8,-13.5 -0.4,-2.2 -0.2,-5.9 0,-9.5 3,9.2 22.5,18.5 31.8,18.8 19.3,14.4 38.3,27.7 62.6,31.4 11.5,1.8 28.3,2 37,-3.6 2,-1.3 3.6,-2.8 4.7,-4.5z"/>
  <path class="fil25" d="M220.3 1403.8c6.1,21 11.2,26.5 20.4,35.9 6.9,7 44.3,30.8 46.9,37.7 2.1,5.2 2.2,13.9 -6,19.2 -8.7,5.6 -25.4,5.3 -37,3.6 -24.3,-3.7 -43.2,-17.9 -62.5,-32.3 -2,2 -10.6,-0.9 -18.8,-5.7 -6.6,-3.9 -10,-7.2 -10.8,-13.5 -0.6,-4.2 0.3,-13.6 0.9,-18.2 1.5,-12.6 6.8,-22.5 12.4,-35.2l24.1 -5.5 30.4 14z"/>
  <path class="fil26" d="M288.6 1481.4c0.7,5 -0.7,11.1 -7,15.2 -8.7,5.5 -25.4,5.3 -37,3.6 -24.3,-3.7 -43.2,-17.9 -62.5,-32.3 -2,2 -10.6,-0.9 -18.8,-5.7 -6.6,-3.9 -10,-7.2 -10.8,-13.5 -0.3,-2.2 -0.2,-5.8 0,-9.5 3.1,9.3 22.5,18.5 31.9,18.9 19.3,14.3 38.3,27.7 62.5,31.4 11.6,1.7 28.3,2 37,-3.6 2.1,-1.3 3.6,-2.9 4.7,-4.5z"/>
  <path class="fil12" d="M160.9 913.3c-6,28.2 -13.2,52.7 -15.4,81.3 -4,53.7 20,142.3 23.5,200.6l-2.2 42.3c-4.5,43.9 -2.1,90.1 -5.9,157.7 -0.3,2 -0.4,4 -0.2,6 -8.9,7.1 -1.9,20.7 16.6,31.3 19.6,11.4 44.7,15.1 56.2,8.5 3.1,-1.8 4.9,-4.3 5.4,-7.1l0.1 -0.1c1.2,-1.7 9.4,-249.6 12.9,-280.2 3.4,-86.7 3.7,-165.6 6.7,-258.1l-97.7 17.8z"/>
  <path class="fil13" d="M95.5 927.7c-5.1,45.6 -15.9,67.4 -7.1,116.2 8.9,48.7 15.5,103.5 18.5,152.9l-7.2 63.7c-4.4,43.9 1.6,115 -2.2,182.6l0 0c-2.2,7.5 5.2,17.9 20,26.4 19.6,11.4 44.8,15.2 56.2,8.5 3.4,-2 5.2,-4.6 5.6,-7.7l0.1 -0.2 16.2 -290.9c3.4,-86.8 6.2,-155.8 9.1,-248.3l-109.2 -3.2z"/>
  <path class="fil27" d="M62.5 693.1c-4,26.1 13.6,73.7 16.6,98.4 5.1,42.9 9.2,65.8 9.6,119.3 0,13.6 -3.3,50.7 -4.4,79.8 -1.3,9 2.4,16.9 11.7,22.4 24.5,14.2 78.4,6.1 120.4,-18.2 26.8,-15.5 42.3,-33.8 43.6,-48.7l0 -0.1 21.6 -224.7c5.1,-52.3 6.4,-111.6 -28.6,-127.3 -27.4,-15.9 -78.5,-8.9 -125.5,18.2 -42.1,24.3 -67,54.5 -65,80.9z"/>
  <path class="fil9" d="M152.1 562.3c-1.5,15.7 -4.3,35.3 -4.6,50 -0.4,27.2 55.2,38.5 62.3,14.5 0.9,-13.7 3.7,-27.6 5,-41.1l-62.7 -23.4z"/>
  <path class="fil6" d="M242.5 522.1c-1.4,20 2.4,28.1 -10,60.1 -3.7,9.5 -9.5,21 -12.4,22.8 -3.8,2.3 -15,8.3 -19.6,7.4 -9.3,-1.8 -28.2,-14.2 -35.2,-18.2 -15.4,-8.7 -14.1,-13.2 -16.7,-32l-6.9 -27 7.4 -53c32.1,-8.4 60.2,-13.7 74.9,-7.5 14.8,6.2 21.4,8.3 18.5,47.4z"/>
  <path class="fil28" d="M155.5 462c-17.4,4.4 -28.3,25.2 -27.7,47.8 0.5,22.3 12.1,44.8 21.7,61.7 1.8,-15.5 -4.6,-32.1 2.5,-36.1 3.9,-2.3 15.8,-1.7 21,19.3 4.5,-13.7 3.3,-17.5 5.6,-30.6 3,-41.2 60.8,0.6 74,-39.4 -9.7,-5.9 -14.6,-22.1 -31.3,-30.7 -17.9,-9.3 -51.9,-7.9 -65.8,8z"/>
  <path class="fil6" d="M106.8 1001.2c4.2,8.3 7.1,10.1 11.8,17.3 4.7,7.2 2.6,26.5 2.9,32.5 0.3,6.4 -8.5,9.6 -9.8,1.2 -0.9,-6 1.4,-14.6 -4.3,-17.6 -1,6.7 1.4,19.1 2.4,23 2.5,10 13.7,-5.3 12.2,10.8 -3.5,1.6 -7.2,3.7 -15.5,5.6 -6.6,1.5 -10.2,2.5 -17,1.1 -9,-1.9 -17.8,-2.4 -22.8,-9.5l-1.1 -31.2 -3.4 -30 44.6 -3.2z"/>
  <path class="fil29" d="M94.2 643c-14,11.5 -25.7,23.4 -29.2,31.7 -17.8,43.1 -11.3,105 -18,166.1l10.1 167.4c13.5,6.4 43.8,8 54.4,-1.3l-4 -167.4 24.3 -96.6c6.8,-62.3 -18.9,-107.7 -37.6,-99.9z"/>
  <path class="fil8" d="M1665.4 1021.4c58.3,122.6 141,279.4 102,404.8 -18.3,59 -109,189.7 -288.9,204.1 -192.6,15.5 -415.3,-49.9 -447.2,-254.8 -16.6,-106.6 50.2,-193.9 182.4,-296 101.3,-78.2 169.5,-170.3 245.6,-175.8 62.2,-4.5 169.9,40.9 206.1,117.7z"/>
  <path class="fil1" d="M1665.4 1021.4c58.3,122.6 141,279.4 102,404.8 -18.3,59 -109,189.7 -288.9,204.1 -76.6,6.2 -157.9,-0.5 -230.1,-23.6 1.7,-50.4 -1.1,-98.2 1.6,-146.6 5.9,-108.3 7.8,-127.8 161.4,-160.3 52.8,-11.2 66.3,-20.7 98.6,-74.4 64.3,-106.7 15.4,-170.7 62.8,-234.7 33.1,-44.7 71.4,-13.8 92.6,30.7z"/>
  <path class="fil9" d="M1154 1468c0.6,19.5 -1.3,84.9 -5.6,100.6 -2,7.2 -4.1,15.4 -9.8,27.4 0,0 18.1,6.1 20.3,6.2 2.1,0.1 30.4,-10.5 30.4,-10.5 0,0 9.1,-48.9 8.9,-51.6 -2.9,-31.3 14.2,-29.5 -5.8,-51.6 -8.9,-9.7 -8,-24.3 -8.8,-36.8l-29.6 16.3z"/>
  <path class="fil30" d="M1143.8 1583.5c-4,12.4 -9.9,15.6 -8.8,22.3 1.5,8.8 19.4,7.7 25.4,6.9 8.7,-1.2 24.3,-10.2 30.5,-19.5 1.1,-19.1 5.4,-35.7 8.5,-54.5l4 45.4 4.1 -0.9c-0.3,-16.3 0.9,-35.7 2.5,-49.8 0.7,-5.7 2.8,-11.3 2.9,-14.4 0.3,-13.5 -10.7,-21.5 -19.1,-30.6 -2.9,25.1 -2.8,81.8 -26.1,95.5 -7.9,4.7 -19.5,3 -23.9,-0.4z"/>
  <path class="fil31" d="M1531.1 782.8c-20.8,-6.9 -36.7,-7.9 -46.3,-0.1 -42.2,34.3 -54.2,131.7 -23.2,161.5l-1.2 9.3 81 -99.6 -10.3 -71.1z"/>
  <path class="fil6" d="M1327.1 1153c-4.1,5.2 -12.5,14.6 -22.8,23.2 -20.4,17 -47.4,34.4 -57,34.9 14.7,-20.9 23.1,-51.1 37.2,-64.6 5.4,-5.1 23.2,-9.3 32.3,-16 2.4,-1.7 16.2,15.1 10.3,22.5z"/>
  <path class="fil32" d="M1430.5 924.4c-35.8,6.1 -54.7,98.8 -67.7,142.9 -3.1,10.6 -10.6,13.7 -59.1,68.6 -0.5,7.3 4.1,24 15.9,27.7 41.9,-22.8 79.3,-72.1 82.3,-79.8l44.5 -111.6 -15.9 -47.8z"/>
  <polygon class="fil33" points="1319.3,1194.3 1180.9,1274.2 1195.3,1282.5 1333.6,1202.6 "/>
  <path class="fil34" d="M1539.3 986.1c30.9,47.9 -86.7,112.4 -100.3,204.9 -15.3,1.3 -93.4,-27.2 -99.7,-55.4 15.7,-45.4 14.1,-56.7 16.9,-89.2 -4.7,-17.3 -2.4,-33.2 2.5,-45 6.9,-16.4 24.3,-32.7 39.9,-50.8 9.2,-10.5 15.8,-19.6 24.3,-24.6 36.9,-21.5 99.1,33.2 116.4,60.1z"/>
  <path class="fil9" d="M1150.9 1305.1c-2.5,56.6 2.3,136.9 3.2,195.3l25.7 24.7c12.1,-88.1 31.1,-136.2 29,-186.7 -1.2,-29.4 -1.5,-48.4 -1.1,-62.8 -1,-7.8 -55,-13.4 -56.8,29.5z"/>
  <path class="fil6" d="M1198.8 1299.5c-0.8,26.7 5.9,40 5.1,59.9 -2.4,56.7 5,112.2 5.9,170.7l25.7 24.7c12.1,-88.2 31.1,-136.3 29,-186.8 -1.1,-26.6 -1.5,-44.7 -1.2,-58.7 2.2,-126.3 -64.8,-66 -64.5,-9.8z"/>
  <path class="fil35" d="M1269.2 1366c-0.3,1.4 -1.3,2.5 -2.7,3.4 -10.2,5.9 -44,-4 -75.4,-22.1 -26.2,-15.2 -42.6,-31.3 -41.2,-39.7 -1.3,-14.9 -0.8,-24.5 20.9,-40.6 30.9,-23 91,-66.7 122,-82.1 20.8,-17.3 21.1,-10.9 46.6,-49.4 10.7,20 79.5,54.6 100.8,49.8 -4.5,22.6 -0.3,63 -24.4,98.9 -23.2,34.7 -96.6,39.5 -146.6,81.8z"/>
  <path class="fil36" d="M1506.3 998.4c-17.5,33 -2.9,116.5 1.9,156.8l29.8 7.6c0.2,-1.9 6.4,-5.9 6.6,-8 4.1,-41.6 12.4,-103.1 7.4,-140.6 -2,-15.6 -11.4,-28.3 -22.8,-28.5 -8.5,-0.2 -19.1,5.4 -22.9,12.7z"/>
  <path class="fil6" d="M1483.3 1255.9l-13.2 0.5c-15,-0.4 -19.6,1.3 -26.6,8.5 -6.8,7 -16.6,18.6 -23.5,29.8l12 10.8c8.2,-4.9 14.8,-13.7 22.5,-19.3 7.6,-5.6 19.7,2.4 24.8,-1.7l18.7 -15 -14.7 -13.6z"/>
  <path class="fil36" d="M1507 1150.1c-11.5,32.5 -17,70.1 -31.8,103.1 1.8,8.9 15.6,15.1 23.3,16.6 16.4,-31.9 30.3,-63.4 43.4,-96.7 2.7,-6.9 3.2,-9.8 3.2,-14.5 -0.1,-7.2 -0.7,-14.6 -5.5,-17.9 -8.9,-6.1 -26.5,-7.9 -32.6,9.4z"/>
  <path class="fil6" d="M1208 1499c0.6,19.5 -1.3,84.8 -5.6,100.6 -2,7.2 -4,15.4 -9.8,27.4 0,0 18.1,6 20.3,6.1 2.2,0.1 30.4,-10.4 30.4,-10.4 0,0 9.1,-48.9 8.9,-51.7 -2.9,-31.2 14.3,-29.5 -5.7,-51.5 -8.9,-9.8 -8.1,-24.4 -8.9,-36.8l-29.6 16.3z"/>
  <path class="fil13" d="M1197.8 1614.5c-4,12.3 -9.8,15.6 -8.8,22.3 1.5,8.7 19.5,7.7 25.4,6.9 8.7,-1.2 24.4,-10.2 30.5,-19.5 1.1,-19.1 5.4,-35.7 8.6,-54.5l3.9 45.3 4.1 -0.8c-0.3,-16.4 0.9,-35.7 2.6,-49.9 0.6,-5.6 2.7,-11.3 2.8,-14.3 0.3,-13.6 -10.6,-21.6 -19.1,-30.7 -2.9,25.1 -2.8,81.8 -26.1,95.6 -7.9,4.7 -19.5,3 -23.9,-0.4z"/>
  <path class="fil9" d="M1519.7 893c-5.3,9.3 -22.6,28.3 -21.6,57.1l-58.5 13.2c3.9,-32.8 19.4,-42.5 24,-74.1l56.1 3.8z"/>
  <path class="fil6" d="M1490.9 786.5c-28.1,24.4 -18.8,33.4 -28,57 -4.9,12.4 -8.7,33.8 -8.8,42 -0.1,11.9 4.6,21.9 10.4,25.5 10.9,6.9 66.5,-2.3 74.8,-17.6l31.5 -58.2 -79.9 -48.7z"/>
  <path class="fil36" d="M1501.9 943.2c-21,6 -40.9,11.1 -61.6,18.2l-6.6 23.3c10.7,2 60.2,-10 73,-25l-4.8 -16.5z"/>
  <path class="fil31" d="M1526.6 872.8c4.8,-13.8 12.7,-12.9 15.7,-11.1 5,2.8 4.3,8.2 0.9,13.9 -3.1,5.3 -6.8,13.4 -12.3,17.5 -3.8,2.9 -4.2,-2.6 -7.4,-1.7 -20,16 -39.1,57 -20.6,75.7 17.5,23.9 55.1,26.9 70.2,12.8 -9.5,-27.2 -13.3,-59.5 1.1,-108.5 11.7,-40 3.6,-89.5 -51.2,-95.5 -11.9,-2.1 -29.7,-0.8 -40.6,15 -22.5,32.7 40.8,49.6 44.2,81.9z"/>
  <path class="fil36" d="M1453 921.6c-5.9,15.4 -9.8,23.1 -12.8,39.9 -7.1,2.2 -14.5,6.1 -21.7,7.9 3.1,-21.8 7.8,-35.2 20.3,-48.4l14.2 0.6z"/>
 </g>
</svg>
