<?xml version="1.0" encoding="UTF-8"?>
<!DOCTYPE svg PUBLIC "-//W3C//DTD SVG 1.1//EN" "http://www.w3.org/Graphics/SVG/1.1/DTD/svg11.dtd">
<!-- Creator: CorelDRAW 2019 (64-Bit) -->
<svg xmlns="http://www.w3.org/2000/svg" xml:space="preserve" width="283px" height="248px" version="1.1" style="shape-rendering:geometricPrecision; text-rendering:geometricPrecision; image-rendering:optimizeQuality; fill-rule:evenodd; clip-rule:evenodd"
viewBox="0 0 2830 2476.2"
 xmlns:xlink="http://www.w3.org/1999/xlink"
 xmlns:xodm="http://www.corel.com/coreldraw/odm/2003">
 <defs>
  <style type="text/css">
   <![CDATA[
    .fil6 {fill:#FEFEFE;fill-rule:nonzero}
    .fil10 {fill:#F59E24;fill-rule:nonzero}
    .fil11 {fill:#F0811A;fill-rule:nonzero}
    .fil14 {fill:#E94771;fill-rule:nonzero}
    .fil16 {fill:#F3CEBD;fill-rule:nonzero}
    .fil13 {fill:#DC2127;fill-rule:nonzero}
    .fil17 {fill:#EDDDEB;fill-rule:nonzero}
    .fil19 {fill:#BD6028;fill-rule:nonzero}
    .fil24 {fill:#CFAD9C;fill-rule:nonzero}
    .fil20 {fill:#95C1BE;fill-rule:nonzero}
    .fil25 {fill:#3F2C25;fill-rule:nonzero}
    .fil22 {fill:#87A7C4;fill-rule:nonzero}
    .fil18 {fill:#392B25;fill-rule:nonzero}
    .fil15 {fill:#59BDB7;fill-rule:nonzero}
    .fil3 {fill:#4E4A4A;fill-rule:nonzero}
    .fil4 {fill:#35302F;fill-rule:nonzero}
    .fil2 {fill:#252422;fill-rule:nonzero}
    .fil9 {fill:#14A39D;fill-rule:nonzero}
    .fil12 {fill:#3976AD;fill-rule:nonzero}
    .fil0 {fill:#4862AA;fill-rule:nonzero}
    .fil21 {fill:#108075;fill-rule:nonzero}
    .fil23 {fill:#365D86;fill-rule:nonzero}
    .fil5 {fill:#2F3F53;fill-rule:nonzero}
    .fil7 {fill:#2B303D;fill-rule:nonzero}
    .fil8 {fill:#3F4582;fill-rule:nonzero}
    .fil1 {fill:url(#id0)}
   ]]>
  </style>
  <radialGradient id="id0" gradientUnits="userSpaceOnUse" gradientTransform="matrix(15.4941 -0 -0 -15.4942 -44418 46011)" cx="3064.5" cy="2789.5" r="604.1" fx="3064.5" fy="2789.5">
   <stop offset="0" style="stop-opacity:1; stop-color:#526BB0"/>
   <stop offset="1" style="stop-opacity:1; stop-color:#4862AA"/>
  </radialGradient>
 </defs>
 <g id="Layer_x0020_1">
  <metadata id="CorelCorpID_0Corel-Layer"/>
  <g id="_1936223200">
   <path class="fil0" d="M1326.1 1849.2c-13.2,0 -23.6,-6.5 -24.8,-14.9l9.3 -5.4 0 3.8c0,2.8 6.2,7.1 15.5,7.1 7.7,0 13.2,-2.8 14.9,-5.4l8.1 4.6c-3.6,6 -12.5,10.2 -23,10.2zm24.9 -17.7l-9.4 -5.4 0 -15.1 9.4 -5.4 0 25.9zm-49.8 -5.8l0 -14.3 9.4 5.4 0 3.5 -9.4 5.4zm9.4 -17.5l-9.4 -5.4 0 -47.8 -82.6 0 -16.3 -9.3 108.3 0 0 62.5zm31 -5.8l0 -56.7 98.3 0 -16.3 9.3 -72.6 0 0 42 -9.4 5.4zm147.3 -47.4l-6.5 0 -16.2 -9.3 22.7 0c9.4,0 15.7,-4.2 15.7,-6.9 0,-2.8 -6.3,-7 -15.7,-7l-10.1 0 15.6 -9c11.3,1.6 19.6,8 19.6,16 0,9.1 -11.1,16.2 -25.1,16.2zm-21.4 0l-29 0 14.5 -8.3 14.5 8.3zm-263.8 0l-29 0 14.5 -8.3 14.5 8.3zm-43.7 -0.1c-12.4,-1 -21.7,-7.7 -21.7,-16.1 0,-6.2 5,-11.5 12.5,-14.3l12.6 7.3 -0.1 0c-9.4,0 -15.7,4.2 -15.7,7 0,2.7 6.3,6.9 15.7,6.9l12.7 0 -16 9.2zm303.9 -23.1l-21.8 0 -16.2 -9.4 54.2 0 -16.2 9.4zm-36.7 0l-85.6 0 0 -49.4 9.4 5.4 0 34.6 60 0 16.2 9.4zm-116.6 0l-95.6 0 16.2 -9.4 70 0 0 -40.4 9.4 -5.4 0 55.2zm-110.5 0l-21.8 0 -16.2 -9.4c0.4,0 0.8,0 1.2,0l53 0 -16.2 9.4zm150.9 -52.6l-9.4 -5.4 0 -15.1 9.4 -5.4 0 25.9zm-49.8 -5.8l0 -14.3 9.4 5.4 0 3.5 -9.4 5.4zm9.4 -17.5l-9.4 -5.5 0 -5.6c0,-9.2 11,-16.5 24.9,-16.5 13.9,0 24.8,7.2 24.9,16.4l-9.4 5.4 0 -5.3c0,-2.9 -6,-7.1 -15.5,-7.1 -9.4,0 -15.5,4.2 -15.5,7.1l0 11.1z"/>
   <path class="fil1" d="M1349.1 1839l-8.1 -4.6c0.4,-0.6 0.6,-1.2 0.6,-1.7l0 -6.6 9.4 5.4 0 1.2c0,2.3 -0.7,4.4 -1.9,6.3zm-47.8 -4.7c0,-0.6 -0.1,-1.1 -0.1,-1.6l0 -7 9.4 -5.4 0 8.6 -9.3 5.4zm9.3 -17.5l-9.4 -5.4 0 -8.6 9.4 5.4 0 8.6zm31 -5.8l0 -8.6 9.4 -5.4 0 8.6 -9.4 5.4zm140.8 -56l-14.9 0 -14.5 -8.3 -14.5 8.3 -14.9 0 16.3 -9.3 26.3 0 16.2 9.3zm-263.8 0l-14.9 0 -14.5 -8.3 -14.5 8.3 -11.4 0c-1.1,0 -2.2,0 -3.3,-0.1l16 -9.2 26.3 0 16.3 9.3zm260.2 -23.2l-14.9 0 16.2 -9.4 8.8 0c1.9,0 3.7,0.1 5.5,0.4l-15.6 9zm-36.7 0l-14.9 0 -16.2 -9.4 14.9 0 16.2 9.4zm-227.1 0l-14.9 0 16.2 -9.4 14.9 0 -16.2 9.4zm-36.7 0l-14.9 0 -12.6 -7.3c3.3,-1.2 7.2,-1.9 11.3,-2.1l16.2 9.4zm172.7 -44l-9.4 -5.4 0 -8.6 9.4 5.4 0 8.6zm-49.8 -5.8l0 -8.6 9.4 -5.4 0 8.6 -9.4 5.4zm9.4 -17.5l-9.4 -5.4 0 -8.7 9.4 5.5 0 8.6zm31 -5.8l0 -8.6 9.4 -5.4c0,0 0,0.1 0,0.1l0 8.5 -9.4 5.4z"/>
   <path class="fil2" d="M1346.3 1644.7c0,-6.4 -9.1,-11.7 -20.2,-11.7 -11.1,0 -20.2,5.3 -20.2,11.7l0 80.6 -162.9 0 0 13.5c0,6.3 9.1,11.6 20.3,11.6l142.6 0 0 82.3c0,6.5 9.1,11.8 20.2,11.8 11.1,0 20.2,-5.3 20.2,-11.8l0 -82.3 142.6 0c11.2,0 20.4,-5.3 20.4,-11.6l0 -13.5 -163 0 0 -80.6z"/>
   <path class="fil3" d="M1488.9 1713.7l-142.6 0 0 -82.3c0,-6.6 -9.1,-11.8 -20.2,-11.8 -11.1,0 -20.2,5.2 -20.2,11.8l0 82.3 -142.6 0c-11.2,0 -20.3,5.2 -20.3,11.6 0,6.4 9.1,11.6 20.3,11.6l142.6 0 0 82.4c0,6.5 9.1,11.7 20.2,11.7 11.1,0 20.2,-5.2 20.2,-11.7l0 -82.4 142.6 0c11.2,0 20.4,-5.2 20.4,-11.6 0,-6.4 -9.2,-11.6 -20.4,-11.6z"/>
   <path class="fil3" d="M1337.6 1055.7c-2.1,-1.2 -4.6,-2 -7.2,-2.4l-4.2 -0.3c-4.1,0 -8.1,0.9 -11.2,2.7 -6.3,3.6 -6.3,9.5 0,13 6.2,3.6 16.3,3.6 22.6,0 6.2,-3.5 6.2,-9.4 0,-13z"/>
   <path class="fil4" d="M1337.6 1068.7c-6.3,3.6 -16.4,3.6 -22.6,0 -3,-1.7 -4.5,-3.9 -4.7,-6.1l0 663.1c0,0 0,3.5 4.7,6.5 6,3.9 16.3,3.6 22.6,0 3.2,-1.9 4.8,-4.4 4.6,-6.9l0 -657.6 0 -5.5c0,2.4 -1.5,4.8 -4.6,6.5z"/>
   <polygon class="fil5" points="894.1,886.9 893.6,1407.5 908.9,1416.3 1757.2,407 1741.9,398.2 "/>
   <polygon class="fil6" points="927.7,1381.6 1746.7,909.4 1747.2,437.7 928.1,909.8 "/>
   <polygon class="fil5" points="1278.8,1193.8 1301.5,1206.9 1301.5,1190 1287.1,1180.3 "/>
   <path class="fil7" d="M928.1 909.8l819.1 -472.1 -0.4 470.7 -819.1 472.2 0.4 -470.8zm-19.2 506.5l847.8 -488.7 0.5 -520.6 -847.8 488.8 -0.5 520.5z"/>
   <polygon class="fil7" points="1301.5,1206.9 1378.3,1162.6 1378.3,1145.7 1301.5,1190 "/>
   <path class="fil8" d="M1368.4 909.6l-70.7 40.8c-17.5,-31 -13.4,-102.1 -13.4,-102.1l70.6 -40.8c0,0 0.7,90 13.5,102.1z"/>
   <path class="fil9" d="M1325.4 834.3c0,2.9 -2,6.5 -4.5,7.9 -2.6,1.4 -4.6,0.3 -4.6,-2.6 0,-2.9 2,-6.5 4.6,-8 2.5,-1.4 4.5,-0.3 4.5,2.7z"/>
   <path class="fil10" d="M1520.7 766.7l-70.7 40.8c-17.5,-31 -13.5,-102.1 -13.5,-102.1l70.7 -40.8c0,0 0.7,90 13.5,102.1z"/>
   <path class="fil9" d="M1477.7 691.4c0,2.9 -2,6.5 -4.6,7.9 -2.5,1.5 -4.5,0.3 -4.5,-2.6 0,-3 2,-6.5 4.5,-7.9 2.6,-1.5 4.6,-0.3 4.6,2.6z"/>
   <path class="fil11" d="M1169.6 1079l-70.7 40.8c-17.5,-31 -13.5,-102.1 -13.5,-102.1l70.7 -40.8c0,0 0.7,90 13.5,102.1z"/>
   <path class="fil9" d="M1126.6 1003.7c0,2.9 -2,6.4 -4.6,7.9 -2.5,1.5 -4.5,0.3 -4.5,-2.6 0,-2.9 2,-6.5 4.5,-8 2.6,-1.4 4.6,-0.2 4.6,2.7z"/>
   <path class="fil12" d="M1234 933.1l-70.7 40.8c-17.5,-31 -13.4,-102.1 -13.4,-102.1l70.6 -40.8c0,0 0.7,90 13.5,102.1z"/>
   <path class="fil9" d="M1191 857.8c0,2.9 -2,6.4 -4.6,7.9 -2.5,1.4 -4.5,0.3 -4.5,-2.6 0,-3 2,-6.5 4.5,-8 2.6,-1.4 4.6,-0.3 4.6,2.7z"/>
   <path class="fil9" d="M1596.2 873.5l-70.6 40.8c-17.5,-31 -13.5,-102.1 -13.5,-102.1l70.7 -40.8c0,0 0.7,89.9 13.4,102.1z"/>
   <path class="fil9" d="M1553.3 798.1c0,2.9 -2.1,6.5 -4.6,7.9 -2.5,1.5 -4.6,0.3 -4.6,-2.6 0,-2.9 2.1,-6.4 4.6,-7.9 2.5,-1.5 4.6,-0.3 4.6,2.6z"/>
   <path class="fil13" d="M1694.7 730.6l-70.6 40.8c-17.5,-31 -13.5,-102.1 -13.5,-102.1l70.7 -40.8c0,0 0.7,90 13.4,102.1z"/>
   <path class="fil9" d="M1651.8 655.2c0,3 -2.1,6.5 -4.6,8 -2.5,1.4 -4.6,0.2 -4.6,-2.7 0,-2.9 2.1,-6.5 4.6,-7.9 2.5,-1.5 4.6,-0.3 4.6,2.6z"/>
   <path class="fil14" d="M1489.1 989.4l-70.6 40.8c-17.5,-31 -13.5,-102.1 -13.5,-102.1l70.7 -40.8c0,0 0.7,89.9 13.4,102.1z"/>
   <path class="fil9" d="M1446.2 914c0,2.9 -2.1,6.5 -4.6,8 -2.5,1.4 -4.6,0.2 -4.6,-2.7 0,-2.9 2.1,-6.5 4.6,-7.9 2.5,-1.5 4.6,-0.3 4.6,2.6z"/>
   <path class="fil15" d="M1310.4 1092.9l-70.6 40.8c-17.5,-31 -13.5,-102.1 -13.5,-102.1l70.7 -40.8c0,0 0.7,89.9 13.4,102.1z"/>
   <path class="fil9" d="M1267.5 1017.5c0,2.9 -2,6.5 -4.6,7.9 -2.5,1.5 -4.5,0.3 -4.5,-2.6 0,-2.9 2,-6.5 4.5,-7.9 2.6,-1.5 4.6,-0.3 4.6,2.6z"/>
   <path class="fil5" d="M1069.6 1237.6l-70.7 40.7c-17.5,-31 -13.4,-102 -13.4,-102l70.6 -40.8c0,0 0.7,89.9 13.5,102.1z"/>
   <path class="fil9" d="M1026.6 1162.2c0,2.9 -2,6.5 -4.6,7.9 -2.5,1.5 -4.5,0.3 -4.5,-2.6 0,-2.9 2,-6.5 4.5,-7.9 2.6,-1.5 4.6,-0.3 4.6,2.6z"/>
   <path class="fil10" d="M1049.2 1014.1l-70.6 40.8c-17.5,-31 -13.5,-102.1 -13.5,-102.1l70.7 -40.8c0,0 0.7,90 13.4,102.1z"/>
   <path class="fil9" d="M1006.3 938.7c0,2.9 -2.1,6.5 -4.6,8 -2.5,1.4 -4.6,0.2 -4.6,-2.7 0,-2.9 2.1,-6.4 4.6,-7.9 2.5,-1.5 4.6,-0.3 4.6,2.6z"/>
   <path class="fil6" d="M1276.1 1940.3c-13.5,-3.5 -56.3,12.1 -34.9,34.7 23.3,24.8 36.4,44.8 42.2,50.1 5.9,5.3 30.6,5.5 34.5,-3.7 4,-9.2 -7.4,-55.9 -7.4,-55.9 0,0 -26.4,-23.2 -34.4,-25.2z"/>
   <path class="fil6" d="M1398.9 1987.5c15.1,0.1 45,14.4 29.9,33.8 -5,6.5 -31.7,39.4 -40.6,49.9 -8.9,10.5 -25.9,9.3 -32.9,4.6 -7,-4.7 -0.2,-36 -0.2,-36 0,0 35.7,-51.4 43.8,-52.3z"/>
   <path class="fil5" d="M1224.5 1497c-22.3,148.6 24.6,175.6 21.1,251.3 -6.2,90.7 34,153.6 22.7,217.2 -4.3,23.8 42.9,18.4 42.2,0 -3.3,-94.1 16.6,-146.3 -7.8,-210.4 2.3,-19.3 18.6,-128.2 22.7,-190.4 6.4,107.9 26.6,227.9 29.7,241.2 -19.8,113.6 8.4,146.5 0,233.9 43,7.6 46.9,-25.8 46.9,-25.8 -15.6,-95.6 24.3,-107.4 6.7,-238.6 -3,-57 39.3,-139.2 14.7,-278.4 -7.1,-14.4 -194.7,-15 -198.9,0z"/>
   <polygon class="fil7" points="1272.2,1564.7 1396.1,1555.6 1268.2,1576.7 "/>
   <path class="fil16" d="M1478.4 1414c-25.7,24.8 -51,44.1 -51,44.1 0,0 -11.7,-4.5 -17.4,-3.3 -5.6,1.2 8.8,37.3 8.8,37.3 0,0 23.5,5.5 29.4,-5.4 40.7,-26.9 63.5,-40.1 63.5,-40.1l-11.7 -21.1c0,0 -18.1,-11 -21.6,-11.5z"/>
   <path class="fil17" d="M1414 1225.7l-27 -2.1 -123.2 5.6c0,0 -25.6,4.2 -33.4,4.7 -30.5,1.9 -22.1,71.9 -22.1,71.9 0,0 23.2,47.7 23.2,98.2 0,50.4 -9.9,79.7 -11.7,91.5 23.5,2.3 25.8,69.2 105.6,69.2 79.7,0 72.1,-55.2 101.4,-69.8 -1.3,-6 -18.7,-65.1 -18.7,-95 0,-30 23.6,-79.6 23.6,-79.6l-17.7 -94.6z"/>
   <path class="fil18" d="M1331.6 1037.2c-6.6,-3.9 -28.1,-12.9 -44.5,-5.1 -32.1,15.2 -51.2,122.9 -50,133.7 2.7,-3.1 4.2,-4.3 4.2,-4.3 0,0 -8.2,49.3 23.5,82.5 0.2,-5.4 4.9,-7.2 4.9,-7.2 0,0 16.7,17.9 54.9,21.3 16.3,-3.7 23.1,-14.1 23.1,-14.1 0,0 1.3,6.3 -0.3,10.7 27,-7.4 34.3,-29.4 34.3,-29.4 0,0 0.3,5.8 -2.1,15 37.7,-27.9 21.7,-95.2 21.7,-95.2 0,0 -27.1,-129 -69.7,-107.9z"/>
   <path class="fil19" d="M1339.2 1075.5c-8.5,1.2 -7.6,-38.3 -7.6,-38.3 0,0 16.1,37.1 7.6,38.3z"/>
   <path class="fil20" d="M1499 1391.1c-8,4.3 -17.7,10.8 -20.2,19.6 -3.6,12.3 19.6,41.9 35.2,38.7 18.6,-3.8 29.6,-15.5 31,-24 0.3,-20.2 -24.3,-46.1 -46,-34.3z"/>
   <path class="fil17" d="M1414 1225.7c2.6,-0.9 36.1,-16.9 65,56.3 5.9,14.8 78.9,99.1 79.8,112 0.9,12.9 -18.2,34 -18.2,34 0,0 -34.6,2.9 -41.6,-31.7 -4.9,-5.5 -67.3,-76 -67.3,-76 0,0 -30.4,-51.6 -17.7,-94.6z"/>
   <path class="fil16" d="M1158 1176.3c0,0 26.7,-55.3 35.1,-63.6 8.4,-8.2 21.2,-14 22.8,-22.4 1.6,-8.3 -4.7,-20.7 -4.7,-20.7 0,0 3.5,-54.7 -2.2,-54.7 -6.2,0 -9,23.5 -9,23.5 0,0 -29.1,5.4 -35.3,15.2 -6.3,9.8 0.4,37.8 -0.4,42 -4.3,15.1 -43.1,62.7 -43.1,62.7l13.4 18 23.4 0z"/>
   <path class="fil20" d="M1151.4 1205.5c5,-7.6 9.6,-17.6 7.6,-26.6 -2.8,-12.5 -33.6,-27.6 -45.7,-17.4 -14.6,12.3 -20.2,27.2 -17.5,35.4 9.4,18 42,29.3 55.6,8.6z"/>
   <path class="fil17" d="M1234 1233.5c0,0 -13,-9.9 -51.7,-14.1 -14.1,-6.1 -38.4,-11.6 -38.4,-11.6 0,0 -15.3,-26.4 -45.7,-16.9 -2.2,3.4 -24.6,36.7 -8.2,50.8 16.4,14.1 118.3,64.1 118.3,64.1l22.8 -35.2 2.9 -37.1z"/>
   <path class="fil6" d="M1700.2 1756.1c-8.2,4.3 -5.5,12.2 -2.8,18.4 10.6,23.4 49.7,38.3 49.7,38.3 0,0 18.5,33.6 33.3,40.9 11.9,5.8 20.7,2.1 26.1,-5.7 2.8,-4 3.5,-11.4 3.3,-19.4 -20.2,-1.8 -71.5,-34.1 -109.6,-72.5z"/>
   <path class="fil21" d="M1747.5 1749.6c-9,-2.8 -39.1,-3.5 -47.3,0.8 -8.2,4.2 -5.5,12.2 -2.8,18.3 10.6,23.5 49.7,38.4 49.7,38.4 0,0 22.9,35.8 33.3,40.9 11.9,5.8 20.7,2.1 26.1,-5.8 8.2,-11.7 -1.5,-53.5 -1.5,-53.5 0,0 -60.6,-41.4 -57.5,-39.1z"/>
   <path class="fil22" d="M1758 1710.5c0,0 -10.5,-1.6 -15.6,12.5 -2.2,6 -2.1,46.5 0.8,53.2 13.6,31 54.6,26 64.9,16 10.3,-10 12.6,-50.1 11.7,-60.1 -0.6,-7.1 -6.1,-12.4 -6.1,-12.4l-55.7 -9.2z"/>
   <path class="fil23" d="M1751.8 1727.2c16.7,18.9 59.1,19.6 62.9,2.4 7.5,-33.1 15.7,-84.8 7.5,-165.6 10.9,-53.2 33.6,-211.8 33.6,-211.8 0,0 -122.8,52.3 -126.9,70.2 21.1,174.5 16.8,298 22.9,304.8z"/>
   <path class="fil6" d="M1570.3 1826.4c-11.8,7.3 -13.8,32 7.3,39.9 10.1,3.8 42.8,12.3 65.1,13.8 18.8,9.3 48.1,11 51.9,8.3 18.2,-12.7 -5.2,-27 -5.2,-27 0,0 -102.4,-5.9 -119.1,-35z"/>
   <path class="fil21" d="M1627.6 1812.4c-23.3,3.8 -45.6,1.2 -57.3,8.5 -11.8,7.4 -13.8,32 7.3,39.9 10.1,3.8 42.8,12.3 65.1,13.8 18.8,9.4 48.1,11 51.9,8.3 18.2,-12.7 8.5,-52 8.5,-52 0,0 -52.2,-22.4 -75.5,-18.5z"/>
   <path class="fil22" d="M1636.6 1753c0,0 -6.3,2.8 -8.8,8.7 -2.4,5.9 -2.4,46.7 0.5,53.3 13.6,31.2 64.5,25.9 74.8,15.9 10.3,-10 8.1,-49 7.2,-58.9 -0.6,-7.1 -6.1,-12.4 -6.1,-12.4l-67.6 -6.6z"/>
   <path class="fil12" d="M1643.9 1346.4c-31.7,96.8 -15.3,231.1 -15.3,231.1 0,0 -0.4,173.8 7.3,187.3 11.5,20.4 48.5,24 62.7,10.6 9.2,-8.7 17.8,-98.4 5.1,-162.7 22.9,-68.6 53.4,-191.6 53.4,-191.6 0,0 69.5,-27.1 84.7,-41 16.9,-15.3 17.6,-40.9 11.3,-73.2 -5,-10.6 -200.4,17.8 -209.2,39.5z"/>
   <path class="fil16" d="M1910.8 1100.1c0,0 13.5,59.8 7,71.5 -17,30.5 -83.5,10.2 -83.5,10.2l3.7 -69.4 72.8 -12.3z"/>
   <path class="fil24" d="M1853.7 1119.8c6.5,19 17.9,49.8 17.9,49.8 0,0 -23.6,-25.1 -17.9,-49.8z"/>
   <path class="fil13" d="M1823.5 966.4c0,0 32.4,-14.8 51.5,-3.2 41,24.9 19.3,58.3 35.7,128.9 7.2,30.6 -63.5,42 -65.7,26.6 -2.1,-15.5 -21.5,-152.3 -21.5,-152.3z"/>
   <path class="fil16" d="M1701 940.4c11.1,0.9 16.8,1.3 18.5,4.6 1.8,3.4 1,39.9 -1.1,52.4 0.7,3.6 20.1,17 58.8,1 38.7,-16 29.7,-35.2 29.7,-35.2 0,0 -4.5,-14.5 -4.1,-31.3 -6.6,-6 -33.6,-18.5 -33.6,-18.5l-48 2.3 -17.1 8.4c0,0 -6.5,15.4 -3.1,16.3z"/>
   <path class="fil6" d="M1655 1042.5c38.1,-21 55.7,-36.3 63.4,-45.1 80.7,-0.9 88.5,-34.2 88.5,-34.2 0,0 54.6,2.6 66.9,55.4 8.3,35.7 -28.8,142.9 -27.6,189 1.2,46.1 12.3,100.7 12.3,100.7 0,0 -24.5,50.9 -118.4,69.3 -65.7,12.8 -100.9,-27.7 -100.9,-27.7 0,0 9.9,-110.2 3.8,-211.2 -2.6,-16.9 0.9,-77 12,-96.2z"/>
   <path class="fil16" d="M1625.5 986c-15.7,19.4 -83.7,82.1 -93.1,107.9 -9.4,25.8 -3.8,58.4 10,63.1 17.2,5.8 64.3,-9.4 64.3,-9.4l18.8 -94.2 27 -41.3 -6.9 -26.1c0,0 -10.3,-5.8 -20.1,0z"/>
   <path class="fil24" d="M1584.8 1077.3c-16.2,11.8 -38.7,29.6 -38.7,29.6 0,0 13.5,-27.8 38.7,-29.6z"/>
   <path class="fil16" d="M1698.8 832.9c-12.3,11.2 -9.2,39.4 -9.2,39.4 0,0 -9.2,32.1 3,63.7 4.8,12.3 27.1,-4.6 27.1,-4.6 0,0 13.5,4.8 18.6,-7.7 8.9,-12.2 17.8,-24.4 17.8,-24.4l-23.7 -77.4c0,0 -29.5,8.2 -33.6,11z"/>
   <path class="fil25" d="M1703.1 835.4c-2.9,25 4.7,43 2.7,62.3 3.4,3.3 11.2,-4.8 20.5,5.3 9.3,10.2 11.4,38.8 11.4,38.8 0,0 7.8,8.7 27,8.3 19.2,-0.4 32.2,-12.7 38.1,-18.2 11,-31.6 16.8,-27.3 20.3,-64.7 0,0 6.5,0.4 11,1.8 -2.1,-7.4 -12.5,-16.4 -12.5,-16.4 0,0 4.1,-9.2 1.7,-22 -3.1,4.4 -7.3,3.8 -7.3,3.8 0,0 -18.4,-28.9 -44.3,-34.6 0.4,3.3 1.4,5.7 1.4,5.7 0,0 -35.4,-13.4 -60,-7.2 7,5 2.6,9.7 2.6,9.7 0,0 -26.1,16.8 -26.1,26.1 5.3,-3.2 10.2,-1.5 13.5,1.3z"/>
   <path class="fil16" d="M1625.9 984.7c5.1,-15.1 5.1,-31.3 6.8,-38.9 1.8,-7.6 13.8,-24.5 23.8,-29.2 10,-4.7 39.4,-2.5 41,6.6 1.7,9.1 -22.3,43.3 -19.6,45.9 2.6,2.5 20.3,-20.9 25.2,-17.1 4.9,3.8 -9.7,27.3 -13.5,32.7 -3.8,5.4 -16.8,15.8 -37.1,27.4 -8.3,-0.3 -31.4,-13 -26.6,-27.4z"/>
   <path class="fil13" d="M1706.1 1075.5c-12.6,-39.2 -54.3,-37.7 -75.6,-25.1 -21.2,12.5 -27.3,18.8 -42.5,25.1 -23.5,9.7 -2.4,77.6 20.3,71.9 22.7,-5.7 34.4,-8.5 51.6,-13.2 17.2,-4.7 58.7,-19.7 46.2,-58.7z"/>
  </g>
 </g>
</svg>
