<?xml version="1.0" encoding="UTF-8"?>
<!DOCTYPE svg PUBLIC "-//W3C//DTD SVG 1.1//EN" "http://www.w3.org/Graphics/SVG/1.1/DTD/svg11.dtd">
<!-- Creator: CorelDRAW 2019 (64-Bit) -->
<svg xmlns="http://www.w3.org/2000/svg" xml:space="preserve" width="283px" height="248px" version="1.1" style="shape-rendering:geometricPrecision; text-rendering:geometricPrecision; image-rendering:optimizeQuality; fill-rule:evenodd; clip-rule:evenodd"
viewBox="0 0 2830 2476.2"
 xmlns:xlink="http://www.w3.org/1999/xlink"
 xmlns:xodm="http://www.corel.com/coreldraw/odm/2003">
 <defs>
  <style type="text/css">
   <![CDATA[
    .fil0 {fill:#FEFEFE;fill-rule:nonzero}
    .fil10 {fill:#E8348A;fill-rule:nonzero}
    .fil1 {fill:#DFEEFB;fill-rule:nonzero}
    .fil2 {fill:#95A4C3;fill-rule:nonzero}
    .fil5 {fill:#6097D0;fill-rule:nonzero}
    .fil8 {fill:#4766A2;fill-rule:nonzero}
    .fil4 {fill:#3F6AA9;fill-rule:nonzero}
    .fil11 {fill:#3F67A3;fill-rule:nonzero}
    .fil7 {fill:#2F3E74;fill-rule:nonzero}
    .fil9 {fill:#313663;fill-rule:nonzero}
    .fil3 {fill:url(#id0)}
    .fil6 {fill:url(#id1)}
   ]]>
  </style>
  <linearGradient id="id0" gradientUnits="userSpaceOnUse" x1="1282.4" y1="1422.5" x2="1282.4" y2="537.9">
   <stop offset="0" style="stop-opacity:1; stop-color:#3D316F"/>
   <stop offset="1" style="stop-opacity:1; stop-color:#5F4D99"/>
  </linearGradient>
  <linearGradient id="id1" gradientUnits="objectBoundingBox" x1="0%" y1="44.9558%" x2="93.6622%" y2="54.0898%">
   <stop offset="0" style="stop-opacity:1; stop-color:#4E3E8E"/>
   <stop offset="1" style="stop-opacity:1; stop-color:#634E99"/>
  </linearGradient>
 </defs>
 <g id="Layer_x0020_1">
  <metadata id="CorelCorpID_0Corel-Layer"/>
  <g id="_1758410064">
   <polygon class="fil0" points="870,651.6 806.3,614.8 831.1,600.5 894.8,637.3 "/>
   <polygon class="fil0" points="767.1,637.4 678.3,586.2 703.1,571.9 791.9,623.1 "/>
   <polygon class="fil1" points="830.8,674.2 791.9,651.7 816.7,637.4 855.6,659.9 "/>
   <path class="fil2" d="M1075.7 1882.1c-7.6,0 -14.7,-1.5 -20.1,-4.6l-323.4 -186.8c-11.9,-6.8 -10.4,-18.7 3.3,-26.6l84.8 -49.1 240.5 138.8c3.4,2 6.7,2.9 9.6,2.9 2.7,0 5.2,-0.7 7.2,-2.2l275.4 -158.8 94.9 54.7c11.9,6.9 10.4,18.8 -3.3,26.7l-342.8 198.4c-7.5,4.4 -17,6.6 -26.1,6.6z"/>
   <path class="fil3" d="M1455.3 1526.3l-345.8 -199.7c-13.5,-7.7 -24.4,-28.6 -24.4,-46.5l0 -827.5c0,-17.9 10.9,-26.2 24.4,-18.4l345.8 199.6c13.4,7.8 24.3,28.6 24.3,46.6l0 827.4c0,18 -10.9,26.2 -24.3,18.5z"/>
   <path class="fil4" d="M1455.3 633.8l-345.8 -199.6c-6,-3.5 -11.5,-3.7 -15.8,-1.4l-394.8 227.8 18.6 68.8 360 1025.2 393.2 -226.8 0.2 -0.1 0.7 -0.4 0 0c4.9,-3.1 8,-9.9 8,-19.5l0 -827.4c0,-18 -10.9,-38.8 -24.3,-46.6z"/>
   <path class="fil1" d="M1455.3 633.8l-345.8 -199.6c-6,-3.5 -11.5,-3.7 -15.8,-1.4l-394.8 227.8 18.6 68.8 99 281.9 18.7 10.8 637.6 -368.2c-4.4,-8.6 -10.6,-16.1 -17.5,-20.1z"/>
   <path class="fil5" d="M1060.8 1753.8l-345.8 -199.6c-13.5,-7.8 -24.4,-28.6 -24.4,-46.5l0 -827.5c0,-18 10.9,-26.2 24.4,-18.4l345.8 199.6c13.4,7.8 24.3,28.6 24.3,46.5l0 827.5c0,18 -10.9,26.2 -24.3,18.4z"/>
   <path class="fil6" d="M1039 1704l-302.3 -174.5c-11.7,-6.8 -21.3,-25 -21.3,-40.7l0 -768.5c0,-15.7 9.6,-22.9 21.3,-16.1l302.3 174.6c11.8,6.7 21.3,24.9 21.3,40.6l0 768.5c0,15.7 -9.5,22.9 -21.3,16.1z"/>
   <path class="fil6" d="M1039 1704l-302.3 -174.5c-11.7,-6.8 -21.3,-25 -21.3,-40.7l0 -768.5c0,-15.7 9.6,-22.9 21.3,-16.1l302.3 174.6c11.8,6.7 21.3,24.9 21.3,40.6l0 768.5c0,15.7 -9.5,22.9 -21.3,16.1z"/>
   <path class="fil7" d="M1039 1704l-302.3 -174.5c-11.7,-6.8 -21.3,-25 -21.3,-40.7l0 -768.5c0,-15.7 9.6,-22.9 21.3,-16.1l302.3 174.6c11.8,6.7 21.3,24.9 21.3,40.6l0 768.5c0,15.7 -9.5,22.9 -21.3,16.1z"/>
   <path class="fil4" d="M1048.9 1698.2l-302.3 -174.5c-11.8,-6.8 -21.3,-25 -21.3,-40.7l0 -768.5c0,-5.3 1.1,-9.7 3.1,-12.8 -7.6,-0.1 -13,6.9 -13,18.6l0 768.5c0,15.7 9.6,33.9 21.3,40.7l302.3 174.5c7.8,4.5 14.5,2.8 18.3,-3.3 -2.6,0 -5.4,-0.8 -8.4,-2.5z"/>
   <path class="fil7" d="M1039 1351.2l-112.3 -64.9 -179.2 103.5 312.8 180.6 0 -178.5c0,-15.7 -9.5,-33.9 -21.3,-40.7z"/>
   <path class="fil7" d="M1039 1193.7l-112.3 -64.9 -179.2 103.5 312.8 180.6 0 -178.5c0,-15.7 -9.5,-33.9 -21.3,-40.7z"/>
   <path class="fil7" d="M1039 1036.2l-112.3 -64.8 -179.2 103.4 312.8 180.6 0 -178.5c0,-15.7 -9.5,-33.9 -21.3,-40.7z"/>
   <path class="fil7" d="M1039 878.8l-112.3 -64.9 -179.2 103.4 312.8 180.7 0 -178.6c0,-15.7 -9.5,-33.9 -21.3,-40.6z"/>
   <path class="fil7" d="M1039 878.8l-248.7 -143.7 -42.8 24.8 312.8 180.6 0 -21.1c0,-15.7 -9.5,-33.9 -21.3,-40.6z"/>
   <polygon class="fil5" points="1060.3,940.5 747.5,759.9 747.5,859.4 1060.3,1040 "/>
   <polygon class="fil5" points="1060.3,1098 747.5,917.3 747.5,1016.9 1060.3,1197.5 "/>
   <polygon class="fil5" points="1060.3,1255.4 747.5,1074.8 747.5,1174.4 1060.3,1355 "/>
   <polygon class="fil5" points="1060.3,1412.9 747.5,1232.3 747.5,1331.8 1060.3,1512.4 "/>
   <polygon class="fil5" points="1060.3,1570.4 747.5,1389.8 747.5,1489.3 1060.3,1669.9 "/>
   <path class="fil7" d="M1032.7 1004.5l-235.6 -136c-6.7,-3.9 -12.1,-14.1 -12.1,-23l0 -26.7c0,-8.8 5.4,-12.9 12.1,-9.1l235.6 136.1c6.7,3.8 12.1,14.1 12.1,23l0 26.6c0,8.9 -5.4,13 -12.1,9.1z"/>
   <path class="fil8" d="M1032.9 1004.6c0,0 -0.1,0 -0.1,0 0,0 0.1,0 0.1,0zm-0.1 0c0,0 -0.1,0 -0.1,-0.1l-235.6 -136c-6.7,-3.9 -12.1,-14.1 -12.1,-23 0,8.9 5.4,19.1 12.1,23l235.6 136c0,0.1 0.1,0.1 0.1,0.1zm-247.8 -185.8c0.1,-6.6 3,-10.5 7.2,-10.5 -4.2,0 -7.1,3.9 -7.2,10.5zm12.4 -8.9l-0.3 -0.2 0.3 0.2 0 0z"/>
   <path class="fil9" d="M1037.5 1006c-1.5,0 -3,-0.5 -4.6,-1.4 0,0 -0.1,0 -0.1,0 0,0 0,0 0,0 0,0 -0.1,0 -0.1,-0.1l-235.6 -136c-6.7,-3.9 -12.1,-14.1 -12.1,-23l0 -26.7c0,0 0,0 0,0 0.1,-6.6 3,-10.5 7.2,-10.5 0.1,0 0.1,0 0.1,0 0,0 0,0 0,0 1.5,0 3.1,0.4 4.8,1.4l0 0 0.3 0.2c-0.3,1.2 -0.5,2.4 -0.5,3.8l0 26.7c0,8.8 5.4,19.2 12.1,23l235.3 135.8c-0.9,4.3 -3.5,6.8 -6.8,6.8z"/>
   <path class="fil0" d="M958.8 931.5l-141.8 -81.9c-2.4,-1.3 -4.3,-5 -4.3,-8.1 0,-3.1 1.9,-4.5 4.3,-3.2l141.8 81.9c2.3,1.3 4.2,5 4.2,8.1 0,3.1 -1.9,4.5 -4.2,3.2z"/>
   <path class="fil7" d="M1032.7 1161l-235.6 -136c-6.7,-3.8 -12.1,-14.1 -12.1,-23l0 -26.7c0,-8.8 5.4,-12.9 12.1,-9.1l235.6 136.1c6.7,3.8 12.1,14.1 12.1,23l0 26.6c0,8.9 -5.4,13 -12.1,9.1z"/>
   <path class="fil8" d="M1033.3 1161.4l0 0zm0 -0.1c-0.2,0 -0.4,-0.2 -0.6,-0.3l-235.6 -136c-6.7,-3.8 -12.1,-14.1 -12.1,-23l0 0c0,8.9 5.4,19.2 12.1,23l235.6 136c0.2,0.1 0.4,0.3 0.6,0.3zm-248.3 -186c0.1,-6.6 3,-10.5 7.2,-10.5 -4.2,0 -7.1,3.9 -7.2,10.5zm12.4 -8.9l-0.3 -0.2 0.3 0.2 0 0zm-5.1 -1.6c0,0 0,0 0,0l0 0c0,0 0,0 0,0z"/>
   <path class="fil9" d="M1037.5 1162.5c-1.3,0 -2.7,-0.4 -4.2,-1.1l0 0c0,0 0,0 0,-0.1 -0.2,0 -0.4,-0.2 -0.6,-0.3l-235.6 -136c-6.7,-3.8 -12.1,-14.1 -12.1,-23l0 -26.7c0,0 0,0 0,0 0.1,-6.6 3,-10.5 7.2,-10.5 0.1,0 0.1,0 0.1,0 0,0 0,0 0,0 1.5,0 3.1,0.4 4.8,1.4l0 0 0.3 0.2c-0.3,1.2 -0.5,2.4 -0.5,3.8l0 26.7c0,8.8 5.4,19.2 12.1,23l235.3 135.9c-0.9,4.2 -3.5,6.7 -6.8,6.7z"/>
   <path class="fil0" d="M958.8 1088l-141.8 -81.9c-2.4,-1.3 -4.3,-5 -4.3,-8.1 0,-3.1 1.9,-4.5 4.3,-3.2l141.8 81.9c2.3,1.3 4.2,5 4.2,8.1 0,3.1 -1.9,4.5 -4.2,3.2z"/>
   <path class="fil7" d="M1032.7 1319l-235.6 -136c-6.7,-3.9 -12.1,-14.2 -12.1,-23.1l0 -26.6c0,-8.9 5.4,-13 12.1,-9.1l235.6 136c6.7,3.9 12.1,14.2 12.1,23l0 26.7c0,8.9 -5.4,12.9 -12.1,9.1z"/>
   <path class="fil8" d="M1033.3 1319.3c-0.1,0 -0.1,0 -0.1,0 0,0 0,0 0.1,0zm-0.1 0c-0.2,-0.1 -0.3,-0.2 -0.5,-0.3l-235.6 -136c-6.7,-3.9 -12.1,-14.2 -12.1,-23.1l0 0c0,8.9 5.4,19.2 12.1,23.1l235.6 136c0.2,0.1 0.3,0.2 0.5,0.3zm-248.2 -186c0,-6.6 3,-10.5 7.3,-10.6 -4.3,0.1 -7.3,4 -7.3,10.6zm12.4 -8.9l-0.3 -0.2 0.3 0.2 0 0zm-0.3 -0.2c-0.1,0 -0.1,-0.1 -0.2,-0.1 0.1,0 0.1,0.1 0.2,0.1zm-4.8 -1.5c0,0 0,0 0,0l0 0c0,0 0,0 0,0z"/>
   <path class="fil9" d="M1037.5 1320.4c-1.3,0 -2.8,-0.3 -4.2,-1.1 -0.1,0 -0.1,0 -0.1,0 0,0 0,0 0,0 -0.2,-0.1 -0.3,-0.2 -0.5,-0.3l-235.6 -136c-6.7,-3.9 -12.1,-14.2 -12.1,-23.1l0 -26.6c0,-6.6 3,-10.5 7.3,-10.6 0,0 0,0 0,0 0,0 0,0 0,0 1.4,0 3,0.5 4.6,1.4 0.1,0 0.1,0.1 0.2,0.1l0 0 0.3 0.2c-0.3,1.1 -0.5,2.4 -0.5,3.8l0 26.7c0,8.8 5.4,19.1 12.1,23l235.3 135.8c-0.9,4.3 -3.5,6.7 -6.8,6.7z"/>
   <path class="fil1" d="M958.8 1245.9l-141.8 -81.8c-2.4,-1.4 -4.3,-5 -4.3,-8.1 0,-3.1 1.9,-4.6 4.3,-3.2l141.8 81.8c2.3,1.4 4.2,5 4.2,8.1 0,3.2 -1.9,4.6 -4.2,3.2z"/>
   <path class="fil7" d="M1032.7 1478.4l-235.6 -136c-6.7,-3.9 -12.1,-14.2 -12.1,-23l0 -26.7c0,-8.9 5.4,-12.9 12.1,-9.1l235.6 136c6.7,3.9 12.1,14.2 12.1,23.1l0 26.6c0,8.9 -5.4,13 -12.1,9.1z"/>
   <path class="fil8" d="M1035 1479.5c-0.7,-0.3 -1.5,-0.6 -2.3,-1.1l-235.6 -136c-6.7,-3.9 -12.1,-14.2 -12.1,-23l0 0c0,8.8 5.4,19.1 12.1,23l235.6 136c0.8,0.5 1.6,0.8 2.3,1.1zm-250 -186.8c0,-6.6 3,-10.5 7.3,-10.5 -4.3,0 -7.3,3.9 -7.3,10.5zm12.4 -8.9l-0.3 -0.2 0.3 0.2 0 0zm-5.1 -1.6l0 0z"/>
   <path class="fil9" d="M1037.5 1479.9c-0.8,0 -1.6,-0.2 -2.5,-0.4 -0.7,-0.3 -1.5,-0.6 -2.3,-1.1l-235.6 -136c-6.7,-3.9 -12.1,-14.2 -12.1,-23l0 -26.7c0,-6.6 3,-10.5 7.3,-10.5 0,0 0,0 0,0l0 0c1.5,0 3.1,0.4 4.8,1.4l0 0 0.3 0.2c-0.3,1.1 -0.5,2.4 -0.5,3.8l0 26.7c0,8.8 5.4,19.1 12.1,23l235.3 135.9c-0.9,4.2 -3.5,6.7 -6.8,6.7z"/>
   <path class="fil10" d="M958.8 1405.4l-141.8 -81.9c-2.4,-1.3 -4.3,-5 -4.3,-8.1 0,-3.1 1.9,-4.6 4.3,-3.2l141.8 81.9c2.3,1.3 4.2,4.9 4.2,8.1 0,3.1 -1.9,4.5 -4.2,3.2z"/>
   <path class="fil7" d="M1032.7 1634.7l-235.6 -136c-6.7,-3.9 -12.1,-14.2 -12.1,-23.1l0 -26.6c0,-8.9 5.4,-13 12.1,-9.1l235.6 136c6.7,3.9 12.1,14.2 12.1,23l0 26.7c0,8.9 -5.4,12.9 -12.1,9.1z"/>
   <path class="fil8" d="M1033.3 1635c0,0 0,0 0,0 0,0 0,0 0,0zm0 0c-0.2,-0.1 -0.4,-0.2 -0.6,-0.3l-235.6 -136c-6.7,-3.9 -12.1,-14.2 -12.1,-23.1l0 0c0,8.9 5.4,19.2 12.1,23.1l235.6 136c0.2,0.1 0.4,0.2 0.6,0.3zm-248.3 -186c0,-6.6 3,-10.6 7.3,-10.6 -4.3,0 -7.3,4 -7.3,10.6zm12.4 -9l-0.3 -0.1 0.3 0.1c0,0 0,0 0,0zm-5.1 -1.6l0 0z"/>
   <path class="fil9" d="M1037.5 1636.1c-1.3,0 -2.7,-0.3 -4.2,-1.1 0,0 0,0 0,0 0,0 0,0 0,0 -0.2,-0.1 -0.4,-0.2 -0.6,-0.3l-235.6 -136c-6.7,-3.9 -12.1,-14.2 -12.1,-23.1l0 -26.6c0,-6.6 3,-10.6 7.3,-10.6 0,0 0,0 0,0l0 0c1.5,0 3.1,0.5 4.8,1.5l0 0 0.3 0.1c-0.3,1.2 -0.5,2.5 -0.5,3.9l0 26.6c0,8.9 5.4,19.2 12.1,23l235.3 135.9c-0.9,4.3 -3.5,6.7 -6.8,6.7z"/>
   <path class="fil1" d="M958.8 1561.6l-141.8 -81.8c-2.4,-1.4 -4.3,-5 -4.3,-8.1 0,-3.1 1.9,-4.6 4.3,-3.2l141.8 81.8c2.3,1.4 4.2,5 4.2,8.1 0,3.2 -1.9,4.6 -4.2,3.2z"/>
   <polygon class="fil7" points="772.1,873.6 747.5,859.4 772.1,873.6 "/>
   <polygon class="fil11" points="772.1,873.6 747.5,859.4 747.5,759.9 772.1,774.1 "/>
   <polygon class="fil7" points="772.1,1031.1 747.5,1016.9 772.1,1031.1 "/>
   <polygon class="fil11" points="772.1,1031.1 747.5,1016.9 747.5,917.3 772.1,931.6 "/>
   <polygon class="fil7" points="772.1,1188.6 747.5,1174.4 772.1,1188.6 "/>
   <polygon class="fil11" points="772.1,1188.6 747.5,1174.4 747.5,1074.8 772.1,1089 "/>
   <polygon class="fil7" points="772.1,1346 747.5,1331.8 772.1,1346 "/>
   <polygon class="fil11" points="772.1,1346 747.5,1331.8 747.5,1232.3 772.1,1246.5 "/>
   <polygon class="fil7" points="772.1,1503.5 747.5,1489.3 772.1,1503.5 "/>
   <polygon class="fil11" points="772.1,1503.5 747.5,1489.3 747.5,1389.8 772.1,1404 772.1,1503.5 "/>
   <path class="fil1" d="M986.7 941.3c0,3.2 -2.2,4.5 -5,2.9 -2.7,-1.6 -5,-5.5 -5,-8.6 0,-3.2 2.3,-4.5 5,-2.9 2.8,1.6 5,5.4 5,8.6z"/>
   <path class="fil10" d="M1007.9 953.5c0,3.2 -2.3,4.5 -5,2.9 -2.8,-1.6 -5,-5.5 -5,-8.6 0,-3.2 2.2,-4.5 5,-2.9 2.7,1.6 5,5.4 5,8.6z"/>
   <path class="fil1" d="M1029 965.7c0,3.2 -2.2,4.5 -5,2.9 -2.7,-1.6 -5,-5.4 -5,-8.6 0,-3.2 2.3,-4.5 5,-2.9 2.8,1.6 5,5.5 5,8.6z"/>
   <path class="fil10" d="M986.7 1098.7c0,3.2 -2.2,4.5 -5,2.9 -2.7,-1.6 -5,-5.5 -5,-8.7 0,-3.1 2.3,-4.4 5,-2.8 2.8,1.6 5,5.4 5,8.6z"/>
   <path class="fil1" d="M1007.9 1110.9c0,3.2 -2.3,4.5 -5,2.9 -2.8,-1.6 -5,-5.5 -5,-8.6 0,-3.2 2.2,-4.5 5,-2.9 2.7,1.6 5,5.4 5,8.6z"/>
   <path class="fil0" d="M1029 1123.1c0,3.2 -2.2,4.5 -5,2.9 -2.7,-1.6 -5,-5.5 -5,-8.6 0,-3.2 2.3,-4.5 5,-2.9 2.8,1.6 5,5.4 5,8.6z"/>
   <path class="fil0" d="M986.7 1257.3c0,3.2 -2.2,4.5 -5,2.9 -2.7,-1.6 -5,-5.5 -5,-8.7 0,-3.2 2.3,-4.4 5,-2.8 2.8,1.5 5,5.4 5,8.6z"/>
   <path class="fil10" d="M1007.9 1269.5c0,3.2 -2.3,4.5 -5,2.9 -2.8,-1.6 -5,-5.5 -5,-8.7 0,-3.1 2.2,-4.4 5,-2.8 2.7,1.6 5,5.4 5,8.6z"/>
   <path class="fil0" d="M1029 1281.7c0,3.2 -2.2,4.5 -5,2.9 -2.7,-1.6 -5,-5.5 -5,-8.6 0,-3.2 2.3,-4.5 5,-2.9 2.8,1.6 5,5.4 5,8.6z"/>
   <path class="fil0" d="M986.7 1413.6c0,3.2 -2.2,4.4 -5,2.9 -2.7,-1.6 -5,-5.5 -5,-8.7 0,-3.2 2.3,-4.5 5,-2.9 2.8,1.6 5,5.5 5,8.7z"/>
   <path class="fil1" d="M1007.9 1425.8c0,3.2 -2.3,4.4 -5,2.9 -2.8,-1.6 -5,-5.5 -5,-8.7 0,-3.2 2.2,-4.4 5,-2.9 2.7,1.6 5,5.5 5,8.7z"/>
   <path class="fil1" d="M1029 1438c0,3.2 -2.2,4.5 -5,2.9 -2.7,-1.6 -5,-5.5 -5,-8.7 0,-3.2 2.3,-4.4 5,-2.8 2.8,1.5 5,5.4 5,8.6z"/>
   <path class="fil0" d="M986.7 1572c0,3.2 -2.2,4.4 -5,2.9 -2.7,-1.6 -5,-5.5 -5,-8.7 0,-3.2 2.3,-4.5 5,-2.9 2.8,1.6 5,5.5 5,8.7z"/>
   <path class="fil10" d="M1007.9 1584.2c0,3.2 -2.3,4.5 -5,2.9 -2.8,-1.6 -5,-5.5 -5,-8.7 0,-3.2 2.2,-4.4 5,-2.9 2.7,1.6 5,5.5 5,8.7z"/>
   <path class="fil1" d="M1029 1596.4c0,3.2 -2.2,4.5 -5,2.9 -2.7,-1.6 -5,-5.5 -5,-8.7 0,-3.1 2.3,-4.4 5,-2.8 2.8,1.6 5,5.4 5,8.6z"/>
   <path class="fil7" d="M1143 940.7l0 691.2 284.3 -164.2 0 -691.1 -284.3 164.1zm-5.8 701.3l0 -704.6 1.5 -0.9 294.4 -170 0 704.6 -1.4 0.9 -294.5 170z"/>
   <path class="fil7" d="M1356.6 1083.5l-132 76.3c-8.9,5.1 -16.1,-0.3 -16.1,-12.2l0 -73.2c0,-11.8 7.2,-25.6 16.1,-30.7l132 -76.2c8.9,-5.1 16.1,0.3 16.1,12.1l0 73.2c0,11.9 -7.2,25.6 -16.1,30.7z"/>
   <path class="fil5" d="M1359.9 966.1c0.7,2 1.1,4.5 1.1,7.3l0 73.2c0,11.9 -7.2,25.6 -16,30.7l-132.1 76.3c-1.1,0.6 -2.1,1 -3.2,1.4 2.4,6.4 8.2,8.6 14.9,4.8l132 -76.3c8.9,-5.1 16.1,-18.8 16.1,-30.7l0 -73.2c0,-10.3 -5.5,-15.8 -12.8,-13.5z"/>
   <path class="fil0" d="M1332.5 1039.4c2.5,-1.4 4.5,-0.2 4.5,2.6l0 16.7c0,2.8 -2,6.2 -4.5,7.6 -2.4,1.4 -4.4,0.3 -4.4,-2.5l0 -16.7c0,-2.8 2,-6.2 4.4,-7.7z"/>
   <path class="fil1" d="M1313.6 1052.5c2.4,-1.4 4.4,-0.3 4.4,2.5l0 14.6c0,2.8 -2,6.2 -4.4,7.7 -2.5,1.4 -4.4,0.2 -4.4,-2.6l0 -14.6c0,-2.8 1.9,-6.2 4.4,-7.6z"/>
   <path class="fil10" d="M1294.6 1047.1c2.5,-1.4 4.5,-0.3 4.5,2.6l0 30.8c0,2.9 -2,6.3 -4.5,7.7 -2.4,1.4 -4.4,0.3 -4.4,-2.6l0 -30.8c0,-2.9 2,-6.3 4.4,-7.7z"/>
   <path class="fil1" d="M1275.7 1040.3c2.4,-1.4 4.4,-0.3 4.4,2.5l0 48.7c0,2.8 -2,6.2 -4.4,7.6 -2.4,1.4 -4.4,0.3 -4.4,-2.5l0 -48.7c0,-2.8 2,-6.2 4.4,-7.6z"/>
   <path class="fil1" d="M1256.8 1056.3c2.4,-1.4 4.4,-0.3 4.4,2.6l0 43.5c0,2.8 -2,6.3 -4.4,7.7 -2.5,1.4 -4.5,0.2 -4.5,-2.6l0 -43.5c0,-2.9 2,-6.3 4.5,-7.7z"/>
   <path class="fil0" d="M1237.8 1087.1c2.5,-1.4 4.4,-0.2 4.4,2.6l0 23.6c0,2.9 -1.9,6.3 -4.4,7.7 -2.4,1.4 -4.4,0.3 -4.4,-2.5l0 -23.7c0,-2.8 2,-6.3 4.4,-7.7z"/>
   <path class="fil10" d="M1328.2 1031c0,2.8 1.9,3.9 4.3,2.5 2.4,-1.4 4.4,-4.7 4.4,-7.5 0,-2.8 -2,-3.9 -4.4,-2.5 -2.4,1.4 -4.3,4.7 -4.3,7.5z"/>
   <path class="fil0" d="M1328.2 1015.3c0,2.8 1.9,3.9 4.3,2.5 2.4,-1.3 4.4,-4.7 4.4,-7.5 0,-2.7 -2,-3.9 -4.4,-2.5 -2.4,1.4 -4.3,4.8 -4.3,7.5z"/>
   <g>
    <path class="fil2" d="M1829 2046.2c-10.2,0 -20,-2 -27.4,-6.3l-263.7 -152.2c-16.2,-9.3 -14.1,-25.7 4.6,-36.5l254.6 -147c10.2,-5.9 23.3,-8.9 35.7,-8.9 10.3,0 20.1,2.1 27.4,6.3l263.7 152.3c16.2,9.3 14.2,25.6 -4.5,36.4l-254.6 147c-10.3,5.9 -23.4,8.9 -35.8,8.9z"/>
    <path class="fil4" d="M2134.7 1780.3l0 -91 -204 -0.1 -70.5 -40.7c-16.2,-9.4 -44.4,-8.2 -63.1,2.6l-65.8 38 -204.2 -0.2 0 93.6c-0.5,6.3 3.1,12.4 10.8,16.9l263.7 152.3c16.2,9.3 44.5,8.1 63.2,-2.7l254.6 -147c10.7,-6.2 16,-14.2 15.3,-21.7z"/>
    <path class="fil4" d="M1830.9 1642.2c-11.8,0.3 -24.1,3.3 -33.8,8.9l-65.8 38 -204.2 -0.2 0 93.6c-0.5,6.3 3.1,12.4 10.8,16.9l263.7 152.3c7.8,4.5 18.4,6.5 29.3,6.2l0 -315.7z"/>
    <path class="fil5" d="M1550.2 1689l-23.1 -0.1 0 93.6c-0.5,6.3 3.1,12.4 10.8,16.9l12.3 7.1 0 -117.5z"/>
    <path class="fil5" d="M1805.7 1953.7c13.9,5.9 34.1,5.6 50.4,-0.6l0 -106.3 -50.4 0 0 106.9z"/>
    <path class="fil1" d="M1801.6 1858.4l-263.7 -152.2c-16.2,-9.4 -14.1,-25.7 4.6,-36.5l254.6 -147c18.7,-10.7 46.9,-11.9 63.1,-2.6l263.7 152.3c16.2,9.3 14.2,25.6 -4.5,36.4l-254.6 147c-18.7,10.8 -47,12 -63.2,2.6z"/>
    <path class="fil0" d="M2119.4 1690.9l-254.6 147c-18.7,10.8 -47,12 -63.2,2.6l-263.7 -152.2c-3.6,-2.1 -6.2,-4.5 -8,-7.2 -5.6,9 -3.1,18.7 8,25.1l263.7 152.2c16.2,9.4 44.5,8.2 63.2,-2.6l254.6 -147c14.5,-8.4 18.9,-20.1 12.6,-29.3 -2.6,4.1 -6.8,8 -12.6,11.4z"/>
    <path class="fil1" d="M2037.8 1804.3c0,6.8 -4.8,15 -10.7,18.4 -5.9,3.4 -10.7,0.7 -10.7,-6.1 0,-6.8 4.8,-15.1 10.7,-18.5 5.9,-3.4 10.7,-0.6 10.7,6.2z"/>
    <path class="fil1" d="M2072 1784.5c0,6.8 -4.8,15 -10.6,18.4 -5.9,3.4 -10.7,0.7 -10.7,-6.1 0,-6.8 4.8,-15.1 10.7,-18.5 5.8,-3.4 10.6,-0.6 10.6,6.2z"/>
    <path class="fil1" d="M2106.3 1764.7c0,6.8 -4.8,15.1 -10.7,18.4 -5.8,3.5 -10.6,0.7 -10.6,-6.1 0,-6.8 4.8,-15.1 10.6,-18.4 5.9,-3.4 10.7,-0.7 10.7,6.1z"/>
    <path class="fil5" d="M1817.2 1764.1l-123.4 -71.3c-7.5,-4.4 -6.6,-12 2.1,-17.1l119.2 -68.7c8.7,-5.1 22,-5.6 29.5,-1.3l123.4 71.3c7.6,4.4 6.6,12 -2.1,17l-119.1 68.8c-8.8,5.1 -22,5.6 -29.6,1.3z"/>
    <path class="fil1" d="M1829 1704.4l-17 -9.9c-1.1,-0.6 -1,-1.6 0.2,-2.3l16.5 -9.5c1.2,-0.7 3.1,-0.8 4.1,-0.2l17.1 9.9c1,0.6 0.9,1.6 -0.3,2.3l-16.5 9.5c-1.2,0.7 -3,0.8 -4.1,0.2z"/>
    <path class="fil4" d="M1693.8 1692.8l0.4 0.2 1.7 -1.2 119.2 -68.8c8.7,-5 22,-5.6 29.5,-1.2l123.1 71c7,-5 7.3,-11.8 0.3,-15.8l-123.4 -71.3c-7.5,-4.3 -20.8,-3.8 -29.5,1.3l-119.2 68.7c-8.7,5.1 -9.6,12.7 -2.1,17.1z"/>
   </g>
  </g>
 </g>
</svg>
