<?xml version="1.0" encoding="UTF-8"?>
<!DOCTYPE svg PUBLIC "-//W3C//DTD SVG 1.1//EN" "http://www.w3.org/Graphics/SVG/1.1/DTD/svg11.dtd">
<!-- Creator: CorelDRAW 2019 (64-Bit) -->
<svg xmlns="http://www.w3.org/2000/svg" xml:space="preserve" width="283px" height="248px" version="1.1" style="shape-rendering:geometricPrecision; text-rendering:geometricPrecision; image-rendering:optimizeQuality; fill-rule:evenodd; clip-rule:evenodd"
viewBox="0 0 2830 2476.2"
 xmlns:xlink="http://www.w3.org/1999/xlink"
 xmlns:xodm="http://www.corel.com/coreldraw/odm/2003">
 <defs>
  <style type="text/css">
   <![CDATA[
    .fil4 {fill:#FEFEFE;fill-rule:nonzero}
    .fil5 {fill:#FCFDFE;fill-rule:nonzero}
    .fil3 {fill:#DFEEFB;fill-rule:nonzero}
    .fil0 {fill:#C2DBF0;fill-rule:nonzero}
    .fil7 {fill:#9ABFE6;fill-rule:nonzero}
    .fil2 {fill:#6097D0;fill-rule:nonzero}
    .fil1 {fill:#3F6AA9;fill-rule:nonzero}
    .fil6 {fill:#2F3E74;fill-rule:nonzero}
   ]]>
  </style>
 </defs>
 <g id="Layer_x0020_1">
  <metadata id="CorelCorpID_0Corel-Layer"/>
  <g id="_1020160112">
   <path class="fil0" d="M2205.1 1629.1c-5.4,0 -10.8,-1.5 -15.5,-4.3l-93 -55.8 5.6 -9.4 93 55.8c6,3.6 13.5,3.6 19.6,0.1l151.3 -88.5c2.5,-1.4 3.9,-4 3.8,-6.7 0,-2.8 -1.5,-5.3 -4,-6.6l-201.7 -108 5.1 -9.7 201.8 108c6,3.3 9.6,9.2 9.8,16.1 0.1,6.8 -3.4,12.9 -9.2,16.3l-151.4 88.5c-4.7,2.8 -10,4.2 -15.2,4.2z"/>
   <path class="fil0" d="M1828.9 2466.7c-6.6,0 -13.1,-1.7 -19,-5l-371.2 -206.6c-5.5,-3 -8.8,-8.6 -8.8,-14.8 0,-6.3 3.2,-11.9 8.7,-15l168 -94.7c2.6,-1.5 2.9,-4 2.9,-5 0,-1.1 -0.3,-3.6 -2.9,-5.1l-186.9 -107.3c-5.1,-3 -8.3,-8.3 -8.4,-14.2 -0.1,-5.9 2.8,-11.4 7.8,-14.6l76.3 -48.3 5.9 9.2 -76.3 48.4c-2.6,1.6 -2.8,4 -2.7,5 0,1 0.3,3.5 2.9,5l186.9 107.3c5.2,3 8.4,8.5 8.4,14.6 -0.1,6.1 -3.2,11.5 -8.6,14.5l-167.9 94.8c-2.8,1.6 -3.1,4.2 -3.1,5.3 0,1.1 0.3,3.8 3.1,5.4l371.2 206.6c8.8,4.9 19.7,4.7 28.3,-0.5l141.2 -86.8c1.1,-0.7 1.3,-1.7 1.3,-2.3 -0.1,-0.5 -0.2,-1.6 -1.3,-2.3l-102.2 -62.1 5.7 -9.3 102.1 62.1c4.1,2.4 6.6,6.8 6.6,11.6 0,4.7 -2.4,9.1 -6.5,11.6l-141.2 86.8c-6.2,3.8 -13.3,5.7 -20.3,5.7z"/>
   <path class="fil0" d="M1989.2 1634.7l-179 -103.3c-10.9,-6.3 -9.6,-17.4 3.1,-24.8l172.8 -99.7c12.7,-7.3 31.9,-8.1 42.9,-1.8l178.9 103.3c11,6.4 9.6,17.5 -3.1,24.8l-172.8 99.7c-12.6,7.3 -31.8,8.1 -42.8,1.8z"/>
   <path class="fil1" d="M2267.3 1429.7l0 -77.3 -173.4 -0.1 -59.9 -34.6c-13.8,-7.9 -37.8,-6.9 -53.7,2.3l-55.9 32.2 -173.5 -0.1 0 79.5c-0.4,5.4 2.6,10.6 9.2,14.4l224.1 129.4c13.7,7.9 37.8,6.9 53.6,-2.2l216.4 -124.9c9.2,-5.3 13.6,-12.2 13.1,-18.6z"/>
   <path class="fil1" d="M2009.1 1312.4c-10.1,0.2 -20.5,2.8 -28.8,7.6l-55.9 32.2 -173.5 -0.1 0 79.5c-0.4,5.4 2.6,10.6 9.2,14.4l224.1 129.4c6.6,3.8 15.6,5.5 24.9,5.3l0 -268.3z"/>
   <path class="fil2" d="M1770.5 1352.1l-19.6 0 0 79.5c-0.4,5.4 2.6,10.6 9.2,14.4l10.4 6 0 -99.9z"/>
   <path class="fil2" d="M1987.6 1577.1c11.9,5.1 29.1,4.8 42.9,-0.5l0 -90.3 -42.9 0 0 90.8z"/>
   <path class="fil3" d="M1984.2 1496.2l-224.1 -129.4c-13.8,-7.9 -12,-21.8 3.9,-31l216.3 -124.9c15.9,-9.2 39.9,-10.2 53.7,-2.2l224.1 129.3c13.7,8 12,21.9 -3.9,31l-216.4 124.9c-15.8,9.2 -39.9,10.2 -53.6,2.3z"/>
   <path class="fil2" d="M1988.2 1472.9l-187.8 -108.4c-11.5,-6.7 -10,-18.3 3.3,-26l181.3 -104.7c13.3,-7.7 33.4,-8.5 44.9,-1.8l187.8 108.4c11.6,6.6 10.1,18.2 -3.2,25.9l-181.3 104.7c-13.3,7.7 -33.5,8.5 -45,1.9z"/>
   <path class="fil3" d="M2184.9 1450.1c0,5.8 -4.1,12.8 -9.1,15.7 -5,2.9 -9,0.6 -9,-5.2 0,-5.8 4,-12.8 9,-15.7 5,-2.9 9.1,-0.5 9.1,5.2z"/>
   <path class="fil3" d="M2214 1433.3c0,5.8 -4.1,12.8 -9.1,15.7 -5,2.9 -9,0.5 -9,-5.2 0,-5.8 4,-12.8 9,-15.7 5,-2.9 9.1,-0.5 9.1,5.2z"/>
   <path class="fil3" d="M2243.1 1416.5c0,5.8 -4.1,12.8 -9.1,15.7 -5,2.9 -9,0.5 -9,-5.2 0,-5.8 4,-12.8 9,-15.7 5,-2.9 9.1,-0.6 9.1,5.2z"/>
   <path class="fil1" d="M2267.3 1306.2l0 -77.3 -173.4 -0.1 -59.9 -34.6c-13.8,-8 -37.8,-7 -53.7,2.2l-55.9 32.3 -173.5 -0.1 0 79.5c-0.4,5.4 2.6,10.6 9.2,14.4l224.1 129.3c13.7,8 37.8,7 53.6,-2.2l216.4 -124.9c9.2,-5.3 13.6,-12.1 13.1,-18.5z"/>
   <path class="fil1" d="M2009.1 1188.8c-10.1,0.3 -20.5,2.8 -28.8,7.6l-55.9 32.3 -173.5 -0.1 0 79.5c-0.4,5.4 2.6,10.6 9.2,14.4l224.1 129.3c6.6,3.9 15.6,5.6 24.9,5.4l0 -268.4z"/>
   <path class="fil2" d="M1770.5 1228.6l-19.6 0 0 79.5c-0.4,5.4 2.6,10.6 9.2,14.4l10.4 6 0 -99.9z"/>
   <path class="fil2" d="M1987.6 1453.5c11.9,5.1 29.1,4.8 42.9,-0.5l0 -90.2 -42.9 0 0 90.7z"/>
   <path class="fil3" d="M1984.2 1372.6l-224.1 -129.4c-13.8,-7.9 -12,-21.8 3.9,-30.9l216.3 -125c15.9,-9.1 39.9,-10.1 53.7,-2.2l224.1 129.4c13.7,7.9 12,21.8 -3.9,31l-216.4 124.9c-15.8,9.2 -39.9,10.2 -53.6,2.2z"/>
   <path class="fil2" d="M1988.2 1349.3l-187.8 -108.4c-11.5,-6.6 -10,-18.3 3.3,-25.9l181.3 -104.7c13.3,-7.7 33.4,-8.6 44.9,-1.9l187.8 108.4c11.6,6.7 10.1,18.3 -3.2,26l-181.3 104.7c-13.3,7.6 -33.5,8.5 -45,1.8z"/>
   <path class="fil3" d="M2184.9 1326.6c0,5.8 -4.1,12.8 -9.1,15.7 -5,2.8 -9,0.5 -9,-5.3 0,-5.7 4,-12.7 9,-15.6 5,-2.9 9.1,-0.6 9.1,5.2z"/>
   <path class="fil3" d="M2214 1309.8c0,5.7 -4.1,12.8 -9.1,15.6 -5,2.9 -9,0.6 -9,-5.2 0,-5.7 4,-12.8 9,-15.7 5,-2.8 9.1,-0.5 9.1,5.3z"/>
   <path class="fil3" d="M2243.1 1293c0,5.7 -4.1,12.8 -9.1,15.6 -5,2.9 -9,0.6 -9,-5.2 0,-5.8 4,-12.8 9,-15.7 5,-2.8 9.1,-0.5 9.1,5.3z"/>
   <path class="fil1" d="M2267.3 1182.6l0 -77.3 -173.4 -0.1 -59.9 -34.6c-13.8,-7.9 -37.8,-6.9 -53.7,2.2l-55.9 32.3 -173.5 -0.1 0 79.5c-0.4,5.4 2.6,10.6 9.2,14.4l224.1 129.4c13.7,7.9 37.8,6.9 53.6,-2.2l216.4 -125c9.2,-5.2 13.6,-12.1 13.1,-18.5z"/>
   <path class="fil1" d="M2009.1 1065.3c-10.1,0.2 -20.5,2.8 -28.8,7.5l-55.9 32.3 -173.5 -0.1 0 79.5c-0.4,5.4 2.6,10.6 9.2,14.4l224.1 129.4c6.6,3.8 15.6,5.5 24.9,5.3l0 -268.3z"/>
   <path class="fil2" d="M1770.5 1105l-19.6 0 0 79.5c-0.4,5.4 2.6,10.6 9.2,14.4l10.4 6 0 -99.9z"/>
   <path class="fil2" d="M1987.6 1330c11.9,5.1 29.1,4.8 42.9,-0.5l0 -90.3 -42.9 0 0 90.8z"/>
   <path class="fil3" d="M1984.2 1249.1l-224.1 -129.4c-13.8,-8 -12,-21.8 3.9,-31l216.3 -124.9c15.9,-9.2 39.9,-10.2 53.7,-2.2l224.1 129.3c13.7,8 12,21.8 -3.9,31l-216.4 124.9c-15.8,9.2 -39.9,10.2 -53.6,2.3z"/>
   <path class="fil4" d="M2254.2 1106.7l-216.4 124.9c-15.8,9.2 -39.9,10.2 -53.6,2.2l-224.1 -129.3c-3.1,-1.8 -5.3,-3.9 -6.9,-6.1 -4.7,7.6 -2.5,15.8 6.9,21.3l224.1 129.4c13.7,7.9 37.8,6.9 53.6,-2.3l216.4 -124.9c12.3,-7.1 16.1,-17.1 10.7,-24.9 -2.1,3.5 -5.7,6.8 -10.7,9.7z"/>
   <path class="fil3" d="M2184.9 1203c0,5.8 -4.1,12.8 -9.1,15.7 -5,2.9 -9,0.5 -9,-5.2 0,-5.8 4,-12.8 9,-15.7 5,-2.9 9.1,-0.5 9.1,5.2z"/>
   <path class="fil3" d="M2214 1186.2c0,5.8 -4.1,12.8 -9.1,15.7 -5,2.9 -9,0.5 -9,-5.2 0,-5.8 4,-12.8 9,-15.7 5,-2.9 9.1,-0.6 9.1,5.2z"/>
   <path class="fil3" d="M2243.1 1169.4c0,5.8 -4.1,12.8 -9.1,15.7 -5,2.9 -9,0.5 -9,-5.2 0,-5.8 4,-12.8 9,-15.7 5,-2.9 9.1,-0.6 9.1,5.2z"/>
   <path class="fil2" d="M1997.4 1168.8l-104.8 -60.5c-6.5,-3.7 -5.7,-10.2 1.8,-14.5l101.2 -58.4c7.5,-4.3 18.7,-4.8 25.1,-1.1l104.9 60.5c6.4,3.8 5.6,10.3 -1.8,14.5l-101.3 58.5c-7.4,4.3 -18.6,4.8 -25.1,1z"/>
   <path class="fil3" d="M2007.5 1118.2l-14.5 -8.4c-0.9,-0.5 -0.8,-1.4 0.2,-2l14 -8.1c1.1,-0.6 2.6,-0.7 3.5,-0.2l14.5 8.4c0.9,0.5 0.8,1.4 -0.2,2l-14.1 8.1c-1,0.6 -2.5,0.7 -3.4,0.2z"/>
   <path class="fil1" d="M1892.6 1108.3l0.3 0.2 1.5 -1.1 101.2 -58.4c7.5,-4.3 18.7,-4.8 25.1,-1.1l104.6 60.4c5.9,-4.2 6.2,-10 0.3,-13.5l-104.9 -60.5c-6.4,-3.7 -17.6,-3.2 -25.1,1.1l-101.2 58.4c-7.5,4.3 -8.3,10.8 -1.8,14.5z"/>
   <path class="fil0" d="M1586.1 2005.4l-386.7 -220.5c-14.2,-8.2 -12.4,-22.4 3.9,-31.9l222.5 -128.4c16.4,-9.5 41.1,-10.5 55.2,-2.3l386.8 220.5c14.1,8.2 12.4,22.4 -4,31.9l-222.5 128.4c-16.3,9.5 -41,10.5 -55.2,2.3z"/>
   <path class="fil1" d="M1902.3 1768.6l0 -902.9 -359 -94 -66.1 -38.2c-15.2,-8.7 -41.7,-7.6 -59.2,2.5l-61.7 35.6 -191.4 -0.1 56.7 871.6c-0.5,6 2.8,11.7 10.1,15.9l358.2 270.3c15.2,8.7 41.7,7.6 59.2,-2.5l238.8 -137.8c10.1,-5.8 14.9,-13.4 14.4,-20.4z"/>
   <path class="fil3" d="M1449.8 727.7c-11.2,0.2 -22.7,3 -31.8,8.3l-61.7 35.6 -191.4 -0.1 0 905.3c-0.5,6 2.8,11.7 10.1,15.9l414.9 236.6c7.3,4.2 17.2,6.1 27.5,5.9l4.3 -911 -171.9 -296.5z"/>
   <path class="fil2" d="M1593.7 1931.1c13.1,5.7 32.1,5.3 47.4,-0.5l0 -917.2 -47.4 0 0 917.7z"/>
   <path class="fil3" d="M1589.9 1024.3l-414.9 -236.6c-15.1,-8.8 -13.2,-24.1 4.3,-34.2l238.7 -137.8c17.5,-10.1 44,-11.2 59.2,-2.5l414.9 236.6c15.2,8.8 13.3,24.1 -4.2,34.2l-238.8 137.8c-17.5,10.1 -44,11.2 -59.2,2.5z"/>
   <path class="fil5" d="M1887.9 867.2l-238.8 137.8c-17.5,10.1 -44,11.2 -59.2,2.5l-414.9 -236.6c-3.3,-2 -5.8,-4.2 -7.5,-6.7 -5.3,8.4 -2.9,17.5 7.5,23.5l414.9 236.6c15.2,8.7 41.7,7.6 59.2,-2.5l238.8 -137.8c13.6,-7.9 17.7,-18.9 11.8,-27.5 -2.4,3.8 -6.4,7.5 -11.8,10.7z"/>
   <path class="fil6" d="M1601.7 928.4l-276.3 -160.1c-7.1,-4.1 -6.2,-11.3 2,-16l111.7 -64.5c8.2,-4.8 20.6,-5.3 27.7,-1.2l276.3 160.1c7.1,4.1 6.2,11.3 -2,16l-111.7 64.5c-8.2,4.8 -20.6,5.3 -27.7,1.2z"/>
   <path class="fil3" d="M1452.5 775.5l-16 -9.3c-0.9,-0.6 -0.8,-1.5 0.3,-2.2l15.5 -8.9c1.1,-0.7 2.8,-0.8 3.8,-0.2l16 9.2c1,0.6 0.9,1.6 -0.3,2.3l-15.4 8.9c-1.2,0.7 -2.9,0.7 -3.9,0.2z"/>
   <path class="fil3" d="M1506 806.2l-16 -9.2c-1,-0.6 -0.9,-1.6 0.3,-2.3l15.4 -8.9c1.2,-0.6 2.9,-0.7 3.9,-0.1l16 9.2c1,0.6 0.8,1.6 -0.3,2.2l-15.4 8.9c-1.2,0.7 -2.9,0.8 -3.9,0.2z"/>
   <path class="fil3" d="M1559.5 836.9l-16 -9.2c-1,-0.6 -0.9,-1.6 0.3,-2.2l15.4 -8.9c1.2,-0.7 2.9,-0.8 3.9,-0.2l16 9.3c0.9,0.5 0.8,1.5 -0.3,2.2l-15.5 8.9c-1.1,0.6 -2.8,0.7 -3.8,0.1z"/>
   <path class="fil3" d="M1613 867.7l-16 -9.2c-1,-0.6 -0.9,-1.6 0.2,-2.2l15.5 -9c1.1,-0.6 2.8,-0.7 3.8,-0.1l16 9.2c1,0.6 0.9,1.6 -0.2,2.2l-15.5 8.9c-1.1,0.7 -2.9,0.8 -3.8,0.2z"/>
   <path class="fil2" d="M1325.4 768.3l0.4 0.2c0.5,-0.4 1,-0.8 1.6,-1.2l111.7 -64.5c8.2,-4.7 20.6,-5.2 27.7,-1.1l275.9 159.9c6.6,-4.7 6.9,-11.1 0.4,-14.9l-276.3 -160.1c-7.1,-4.1 -19.5,-3.6 -27.7,1.2l-111.7 64.5c-8.2,4.7 -9.1,11.9 -2,16z"/>
   <path class="fil6" d="M1695.7 1203.2l157.1 -90c8.8,-5.1 16,-18.8 16,-30.5l0 -56.2c0,-11.8 -7.2,-17.2 -16,-12.1l-157.1 89.9c-8.8,5.1 -16,18.8 -16,30.6l0 56.2c0,11.7 7.2,17.1 16,12.1z"/>
   <path class="fil4" d="M1860.6 1012.7c2.4,2.3 4,6.3 4,11.7l0 56.2c0,11.7 -7.2,25.4 -16,30.5l-157.1 90c-2.8,1.6 -5.4,2 -7.7,1.6 2.9,2.8 7.1,3.2 11.9,0.5l157.1 -90c8.8,-5.1 16,-18.8 16,-30.5l0 -56.2c0,-8 -3.3,-13 -8.2,-13.8z"/>
   <path class="fil1" d="M1743 1142.1l14.4 -8.3c1.9,-1.1 3.5,-4.1 3.5,-6.6l0 -15.4c0,-2.6 -1.6,-3.8 -3.5,-2.7l-14.4 8.3c-1.9,1.2 -3.5,4.1 -3.5,6.7l0 15.4c0,2.6 1.6,3.7 3.5,2.6z"/>
   <path class="fil4" d="M1791.2 1114.3l14.4 -8.3c1.9,-1.1 3.5,-4.1 3.5,-6.7l0 -15.3c0,-2.6 -1.6,-3.8 -3.5,-2.7l-14.4 8.3c-2,1.2 -3.5,4.1 -3.5,6.7l0 15.4c0,2.6 1.5,3.7 3.5,2.6z"/>
   <path class="fil6" d="M1695.7 1609l157.1 -89.9c8.8,-5.1 16,-18.8 16,-30.6l0 -56.2c0,-11.7 -7.2,-17.2 -16,-12.1l-157.1 90c-8.8,5.1 -16,18.8 -16,30.5l0 56.2c0,11.8 7.2,17.2 16,12.1z"/>
   <path class="fil4" d="M1860.6 1418.6c2.4,2.3 4,6.2 4,11.6l0 56.2c0,11.8 -7.2,25.5 -16,30.6l-157.1 89.9c-2.8,1.6 -5.4,2.1 -7.7,1.7 2.9,2.8 7.1,3.2 11.9,0.4l157.1 -89.9c8.8,-5.1 16,-18.8 16,-30.6l0 -56.2c0,-8 -3.3,-12.9 -8.2,-13.7z"/>
   <path class="fil1" d="M1743 1548l14.4 -8.3c1.9,-1.1 3.5,-4.1 3.5,-6.7l0 -15.4c0,-2.5 -1.6,-3.7 -3.5,-2.6l-14.4 8.3c-1.9,1.1 -3.5,4.1 -3.5,6.7l0 15.4c0,2.5 1.6,3.7 3.5,2.6z"/>
   <path class="fil1" d="M1791.2 1520.2l14.4 -8.3c1.9,-1.2 3.5,-4.1 3.5,-6.7l0 -15.4c0,-2.6 -1.6,-3.7 -3.5,-2.6l-14.4 8.3c-2,1.1 -3.5,4.1 -3.5,6.7l0 15.4c0,2.5 1.5,3.7 3.5,2.6z"/>
   <path class="fil6" d="M1695.7 1811.9l157.1 -89.9c8.8,-5.1 16,-18.8 16,-30.6l0 -56.1c0,-11.8 -7.2,-17.2 -16,-12.1l-157.1 89.9c-8.8,5.1 -16,18.8 -16,30.6l0 56.1c0,11.8 7.2,17.2 16,12.1z"/>
   <path class="fil4" d="M1860.6 1621.5c2.4,2.3 4,6.3 4,11.7l0 56.1c0,11.8 -7.2,25.5 -16,30.6l-157.1 89.9c-2.8,1.7 -5.4,2.1 -7.7,1.7 2.9,2.8 7.1,3.2 11.9,0.4l157.1 -89.9c8.8,-5.1 16,-18.8 16,-30.6l0 -56.1c0,-8 -3.3,-13 -8.2,-13.8z"/>
   <path class="fil4" d="M1743 1750.9l14.4 -8.3c1.9,-1.1 3.5,-4.1 3.5,-6.7l0 -15.3c0,-2.6 -1.6,-3.8 -3.5,-2.7l-14.4 8.3c-1.9,1.1 -3.5,4.1 -3.5,6.7l0 15.4c0,2.6 1.6,3.7 3.5,2.6z"/>
   <path class="fil1" d="M1791.2 1723.1l14.4 -8.3c1.9,-1.1 3.5,-4.1 3.5,-6.7l0 -15.4c0,-2.5 -1.6,-3.7 -3.5,-2.6l-14.4 8.3c-2,1.1 -3.5,4.1 -3.5,6.7l0 15.4c0,2.5 1.5,3.7 3.5,2.6z"/>
   <path class="fil6" d="M1695.7 1406.1l157.1 -89.9c8.8,-5.1 16,-18.8 16,-30.6l0 -56.2c0,-11.8 -7.2,-17.2 -16,-12.1l-157.1 89.9c-8.8,5.1 -16,18.8 -16,30.6l0 56.2c0,11.8 7.2,17.2 16,12.1z"/>
   <path class="fil4" d="M1860.6 1215.6c2.4,2.4 4,6.3 4,11.7l0 56.2c0,11.8 -7.2,25.4 -16,30.6l-157.1 89.9c-2.8,1.6 -5.4,2.1 -7.7,1.7 2.9,2.7 7.1,3.2 11.9,0.4l157.1 -89.9c8.8,-5.1 16,-18.8 16,-30.6l0 -56.2c0,-8 -3.3,-12.9 -8.2,-13.8z"/>
   <path class="fil4" d="M1743 1345.1l14.4 -8.3c1.9,-1.2 3.5,-4.2 3.5,-6.7l0 -15.4c0,-2.6 -1.6,-3.7 -3.5,-2.6l-14.4 8.3c-1.9,1.1 -3.5,4.1 -3.5,6.6l0 15.4c0,2.6 1.6,3.8 3.5,2.7z"/>
   <path class="fil4" d="M1791.2 1317.3l14.4 -8.4c1.9,-1.1 3.5,-4.1 3.5,-6.6l0 -15.4c0,-2.6 -1.6,-3.8 -3.5,-2.6l-14.4 8.3c-2,1.1 -3.5,4.1 -3.5,6.6l0 15.4c0,2.6 1.5,3.8 3.5,2.7z"/>
   <path class="fil2" d="M1559.7 1145.7l-362.3 -209.2c-8.2,-4.7 -14.7,-17.3 -14.7,-28.1l0 -69.1c0,-10.8 6.5,-15.8 14.7,-11.1l362.3 209.2c8.1,4.7 14.7,17.2 14.7,28.1l0 69c0,10.9 -6.6,15.8 -14.7,11.2z"/>
   <path class="fil7" d="M1552.3 1122.3c-0.9,0 -1.9,-0.3 -3,-0.9l-341.5 -197.2c-4.1,-2.3 -7.5,-8.7 -7.5,-14.2l0 -51.9c0,-4.1 1.9,-6.6 4.5,-6.6 0.9,0 1.9,0.3 3,0.9l341.5 197.2c4.1,2.4 7.5,8.8 7.5,14.3l0 51.9c0,4.1 -1.9,6.5 -4.5,6.5z"/>
   <path class="fil3" d="M1278.9 939.1l-50.9 -29.5c-4,-2.3 -7.3,-8.4 -7.3,-13.8 0,-5.3 3.3,-7.7 7.3,-5.4l50.9 29.4c4,2.3 7.3,8.5 7.3,13.8 0,5.3 -3.3,7.8 -7.3,5.5z"/>
   <path class="fil6" d="M1322.4 954.5c0,5.3 -3.8,7.5 -8.4,4.8 -4.6,-2.6 -8.3,-9.1 -8.3,-14.4 0,-5.4 3.7,-7.5 8.3,-4.9 4.6,2.7 8.4,9.2 8.4,14.5z"/>
   <path class="fil6" d="M1351.9 971.5c0,5.4 -3.8,7.5 -8.4,4.8 -4.6,-2.6 -8.4,-9.1 -8.4,-14.4 0,-5.3 3.8,-7.5 8.4,-4.9 4.6,2.7 8.4,9.2 8.4,14.5z"/>
   <path class="fil3" d="M1381.3 988.5c0,5.4 -3.7,7.5 -8.3,4.9 -4.6,-2.7 -8.4,-9.2 -8.4,-14.5 0,-5.3 3.8,-7.5 8.4,-4.8 4.6,2.6 8.3,9.1 8.3,14.4z"/>
   <path class="fil6" d="M1410.8 1005.6c0,5.3 -3.7,7.4 -8.4,4.8 -4.6,-2.7 -8.3,-9.2 -8.3,-14.5 0,-5.3 3.7,-7.5 8.3,-4.8 4.7,2.6 8.4,9.1 8.4,14.5z"/>
   <path class="fil6" d="M1534.9 1092.5l-17.1 -9.9c-2.6,-1.5 -4.7,-5.5 -4.7,-8.9l0 -18.1c0,-3.5 2.1,-5 4.7,-3.6l17.1 10c2.6,1.4 4.7,5.4 4.7,8.8l0 18.2c0,3.4 -2.1,5 -4.7,3.5z"/>
   <path class="fil2" d="M1559.7 1267.5l-362.3 -209.2c-8.2,-4.7 -14.7,-17.2 -14.7,-28.1l0 -69c0,-10.9 6.5,-15.8 14.7,-11.2l362.3 209.3c8.1,4.6 14.7,17.2 14.7,28l0 69.1c0,10.8 -6.6,15.8 -14.7,11.1z"/>
   <path class="fil7" d="M1552.3 1244.2c-0.9,0 -1.9,-0.3 -3,-0.9l-341.5 -197.2c-4.1,-2.4 -7.5,-8.8 -7.5,-14.2l0 -52c0,-4.1 1.9,-6.5 4.5,-6.5 0.9,0 1.9,0.3 3,0.9l341.5 197.2c4.1,2.3 7.5,8.7 7.5,14.2l0 51.9c0,4.1 -1.9,6.6 -4.5,6.6z"/>
   <path class="fil3" d="M1278.9 1060.9l-50.9 -29.4c-4,-2.3 -7.3,-8.5 -7.3,-13.8 0,-5.4 3.3,-7.8 7.3,-5.5l50.9 29.4c4,2.3 7.3,8.5 7.3,13.8 0,5.4 -3.3,7.8 -7.3,5.5z"/>
   <path class="fil4" d="M1322.4 1076.3c0,5.4 -3.8,7.5 -8.4,4.9 -4.6,-2.7 -8.3,-9.2 -8.3,-14.5 0,-5.3 3.7,-7.5 8.3,-4.8 4.6,2.6 8.4,9.1 8.4,14.4z"/>
   <path class="fil6" d="M1351.9 1093.4c0,5.3 -3.8,7.4 -8.4,4.8 -4.6,-2.7 -8.4,-9.2 -8.4,-14.5 0,-5.3 3.8,-7.5 8.4,-4.8 4.6,2.7 8.4,9.1 8.4,14.5z"/>
   <path class="fil3" d="M1381.3 1110.4c0,5.3 -3.7,7.5 -8.3,4.8 -4.6,-2.7 -8.4,-9.1 -8.4,-14.5 0,-5.3 3.8,-7.4 8.4,-4.8 4.6,2.7 8.3,9.2 8.3,14.5z"/>
   <path class="fil6" d="M1410.8 1127.4c0,5.3 -3.7,7.5 -8.4,4.8 -4.6,-2.7 -8.3,-9.1 -8.3,-14.5 0,-5.3 3.7,-7.4 8.3,-4.8 4.7,2.7 8.4,9.2 8.4,14.5z"/>
   <path class="fil6" d="M1534.9 1214.3l-17.1 -9.9c-2.6,-1.4 -4.7,-5.4 -4.7,-8.8l0 -18.2c0,-3.4 2.1,-5 4.7,-3.5l17.1 9.9c2.6,1.5 4.7,5.4 4.7,8.9l0 18.1c0,3.4 -2.1,5 -4.7,3.5z"/>
   <path class="fil2" d="M1559.7 1389.3l-362.3 -209.2c-8.2,-4.6 -14.7,-17.2 -14.7,-28l0 -69.1c0,-10.8 6.5,-15.8 14.7,-11.1l362.3 209.2c8.1,4.7 14.7,17.2 14.7,28l0 69.1c0,10.8 -6.6,15.8 -14.7,11.1z"/>
   <path class="fil7" d="M1552.3 1366c-0.9,0 -1.9,-0.3 -3,-0.9l-341.5 -197.2c-4.1,-2.4 -7.5,-8.7 -7.5,-14.2l0 -52c0,-4 1.9,-6.5 4.5,-6.5 0.9,0 1.9,0.3 3,0.9l341.5 197.2c4.1,2.4 7.5,8.7 7.5,14.2l0 52c0,4.1 -1.9,6.5 -4.5,6.5z"/>
   <path class="fil3" d="M1278.9 1182.8l-50.9 -29.5c-4,-2.3 -7.3,-8.5 -7.3,-13.8 0,-5.3 3.3,-7.8 7.3,-5.5l50.9 29.5c4,2.3 7.3,8.5 7.3,13.8 0,5.3 -3.3,7.8 -7.3,5.5z"/>
   <path class="fil4" d="M1322.4 1198.2c0,5.3 -3.8,7.5 -8.4,4.8 -4.6,-2.7 -8.3,-9.1 -8.3,-14.5 0,-5.3 3.7,-7.4 8.3,-4.8 4.6,2.7 8.4,9.2 8.4,14.5z"/>
   <path class="fil6" d="M1351.9 1215.2c0,5.3 -3.8,7.5 -8.4,4.8 -4.6,-2.6 -8.4,-9.1 -8.4,-14.4 0,-5.4 3.8,-7.5 8.4,-4.9 4.6,2.7 8.4,9.2 8.4,14.5z"/>
   <path class="fil3" d="M1381.3 1232.2c0,5.3 -3.7,7.5 -8.3,4.8 -4.6,-2.6 -8.4,-9.1 -8.4,-14.4 0,-5.4 3.8,-7.5 8.4,-4.9 4.6,2.7 8.3,9.2 8.3,14.5z"/>
   <path class="fil6" d="M1410.8 1249.2c0,5.4 -3.7,7.5 -8.4,4.9 -4.6,-2.7 -8.3,-9.2 -8.3,-14.5 0,-5.3 3.7,-7.5 8.3,-4.8 4.7,2.6 8.4,9.1 8.4,14.4z"/>
   <path class="fil6" d="M1534.9 1336.2l-17.1 -9.9c-2.6,-1.5 -4.7,-5.5 -4.7,-8.9l0 -18.2c0,-3.4 2.1,-5 4.7,-3.5l17.1 9.9c2.6,1.5 4.7,5.5 4.7,8.9l0 18.2c0,3.4 -2.1,5 -4.7,3.5z"/>
   <path class="fil2" d="M1559.7 1511.2l-362.3 -209.2c-8.2,-4.7 -14.7,-17.3 -14.7,-28.1l0 -69.1c0,-10.8 6.5,-15.8 14.7,-11.1l362.3 209.2c8.1,4.7 14.7,17.3 14.7,28.1l0 69.1c0,10.8 -6.6,15.8 -14.7,11.1z"/>
   <path class="fil7" d="M1552.3 1487.8c-0.9,0 -1.9,-0.2 -3,-0.8l-341.5 -197.2c-4.1,-2.4 -7.5,-8.8 -7.5,-14.3l0 -51.9c0,-4.1 1.9,-6.5 4.5,-6.5 0.9,0 1.9,0.2 3,0.8l341.5 197.2c4.1,2.4 7.5,8.8 7.5,14.3l0 51.9c0,4.1 -1.9,6.5 -4.5,6.5z"/>
   <path class="fil3" d="M1278.9 1304.6l-50.9 -29.4c-4,-2.3 -7.3,-8.5 -7.3,-13.9 0,-5.3 3.3,-7.7 7.3,-5.4l50.9 29.4c4,2.3 7.3,8.5 7.3,13.8 0,5.4 -3.3,7.8 -7.3,5.5z"/>
   <path class="fil6" d="M1322.4 1320c0,5.4 -3.8,7.5 -8.4,4.8 -4.6,-2.6 -8.3,-9.1 -8.3,-14.4 0,-5.3 3.7,-7.5 8.3,-4.8 4.6,2.6 8.4,9.1 8.4,14.4z"/>
   <path class="fil6" d="M1351.9 1337c0,5.4 -3.8,7.5 -8.4,4.9 -4.6,-2.7 -8.4,-9.2 -8.4,-14.5 0,-5.3 3.8,-7.5 8.4,-4.8 4.6,2.6 8.4,9.1 8.4,14.4z"/>
   <path class="fil3" d="M1381.3 1354c0,5.4 -3.7,7.5 -8.3,4.9 -4.6,-2.7 -8.4,-9.2 -8.4,-14.5 0,-5.3 3.8,-7.5 8.4,-4.8 4.6,2.6 8.3,9.1 8.3,14.4z"/>
   <path class="fil6" d="M1410.8 1371.1c0,5.3 -3.7,7.5 -8.4,4.8 -4.6,-2.7 -8.3,-9.2 -8.3,-14.5 0,-5.3 3.7,-7.5 8.3,-4.8 4.7,2.7 8.4,9.1 8.4,14.5z"/>
   <path class="fil3" d="M1534.9 1458l-17.1 -9.9c-2.6,-1.5 -4.7,-5.4 -4.7,-8.9l0 -18.1c0,-3.4 2.1,-5 4.7,-3.5l17.1 9.9c2.6,1.5 4.7,5.4 4.7,8.9l0 18.1c0,3.4 -2.1,5 -4.7,3.5z"/>
   <path class="fil2" d="M1559.7 1633l-362.3 -209.2c-8.2,-4.7 -14.7,-17.2 -14.7,-28l0 -69.1c0,-10.8 6.5,-15.8 14.7,-11.1l362.3 209.2c8.1,4.6 14.7,17.2 14.7,28l0 69.1c0,10.8 -6.6,15.8 -14.7,11.1z"/>
   <path class="fil7" d="M1552.3 1609.7c-0.9,0 -1.9,-0.3 -3,-0.9l-341.5 -197.2c-4.1,-2.4 -7.5,-8.7 -7.5,-14.2l0 -52c0,-4.1 1.9,-6.5 4.5,-6.5 0.9,0 1.9,0.3 3,0.9l341.5 197.2c4.1,2.4 7.5,8.7 7.5,14.2l0 51.9c0,4.1 -1.9,6.6 -4.5,6.6z"/>
   <path class="fil3" d="M1278.9 1426.4l-50.9 -29.4c-4,-2.3 -7.3,-8.5 -7.3,-13.8 0,-5.3 3.3,-7.8 7.3,-5.5l50.9 29.4c4,2.3 7.3,8.5 7.3,13.9 0,5.3 -3.3,7.7 -7.3,5.4z"/>
   <path class="fil6" d="M1322.4 1441.9c0,5.3 -3.8,7.4 -8.4,4.8 -4.6,-2.7 -8.3,-9.2 -8.3,-14.5 0,-5.3 3.7,-7.5 8.3,-4.8 4.6,2.7 8.4,9.1 8.4,14.5z"/>
   <path class="fil4" d="M1351.9 1458.9c0,5.3 -3.8,7.5 -8.4,4.8 -4.6,-2.7 -8.4,-9.1 -8.4,-14.5 0,-5.3 3.8,-7.5 8.4,-4.8 4.6,2.7 8.4,9.1 8.4,14.5z"/>
   <path class="fil3" d="M1381.3 1475.9c0,5.3 -3.7,7.5 -8.3,4.8 -4.6,-2.6 -8.4,-9.1 -8.4,-14.5 0,-5.3 3.8,-7.4 8.4,-4.8 4.6,2.7 8.3,9.2 8.3,14.5z"/>
   <path class="fil4" d="M1410.8 1492.9c0,5.3 -3.7,7.5 -8.4,4.8 -4.6,-2.6 -8.3,-9.1 -8.3,-14.4 0,-5.4 3.7,-7.5 8.3,-4.9 4.7,2.7 8.4,9.2 8.4,14.5z"/>
   <path class="fil3" d="M1534.9 1579.9l-17.1 -9.9c-2.6,-1.5 -4.7,-5.5 -4.7,-8.9l0 -18.2c0,-3.4 2.1,-5 4.7,-3.5l17.1 9.9c2.6,1.5 4.7,5.5 4.7,8.9l0 18.1c0,3.5 -2.1,5 -4.7,3.6z"/>
   <path class="fil2" d="M1559.7 1754.9l-362.3 -209.2c-8.2,-4.7 -14.7,-17.3 -14.7,-28.1l0 -69.1c0,-10.8 6.5,-15.8 14.7,-11.1l362.3 209.2c8.1,4.7 14.7,17.3 14.7,28.1l0 69.1c0,10.8 -6.6,15.7 -14.7,11.1z"/>
   <path class="fil7" d="M1552.3 1731.5c-0.9,0 -1.9,-0.3 -3,-0.9l-341.5 -197.2c-4.1,-2.3 -7.5,-8.7 -7.5,-14.2l0 -51.9c0,-4.1 1.9,-6.6 4.5,-6.6 0.9,0 1.9,0.3 3,0.9l341.5 197.2c4.1,2.4 7.5,8.8 7.5,14.2l0 52c0,4.1 -1.9,6.5 -4.5,6.5z"/>
   <path class="fil3" d="M1278.9 1548.3l-50.9 -29.5c-4,-2.3 -7.3,-8.5 -7.3,-13.8 0,-5.3 3.3,-7.8 7.3,-5.5l50.9 29.5c4,2.3 7.3,8.5 7.3,13.8 0,5.3 -3.3,7.8 -7.3,5.5z"/>
   <path class="fil6" d="M1322.4 1563.7c0,5.3 -3.8,7.5 -8.4,4.8 -4.6,-2.6 -8.3,-9.1 -8.3,-14.4 0,-5.4 3.7,-7.5 8.3,-4.9 4.6,2.7 8.4,9.2 8.4,14.5z"/>
   <path class="fil6" d="M1351.9 1580.7c0,5.3 -3.8,7.5 -8.4,4.8 -4.6,-2.6 -8.4,-9.1 -8.4,-14.4 0,-5.4 3.8,-7.5 8.4,-4.8 4.6,2.6 8.4,9.1 8.4,14.4z"/>
   <path class="fil3" d="M1381.3 1597.7c0,5.4 -3.7,7.5 -8.3,4.9 -4.6,-2.7 -8.4,-9.2 -8.4,-14.5 0,-5.3 3.8,-7.5 8.4,-4.8 4.6,2.6 8.3,9.1 8.3,14.4z"/>
   <path class="fil6" d="M1410.8 1614.8c0,5.3 -3.7,7.4 -8.4,4.8 -4.6,-2.7 -8.3,-9.2 -8.3,-14.5 0,-5.3 3.7,-7.5 8.3,-4.8 4.7,2.6 8.4,9.1 8.4,14.5z"/>
   <path class="fil6" d="M1534.9 1701.7l-17.1 -9.9c-2.6,-1.5 -4.7,-5.5 -4.7,-8.9l0 -18.2c0,-3.4 2.1,-4.9 4.7,-3.5l17.1 10c2.6,1.4 4.7,5.4 4.7,8.8l0 18.2c0,3.4 -2.1,5 -4.7,3.5z"/>
   <path class="fil2" d="M1559.7 1876.7l-362.3 -209.2c-8.2,-4.7 -14.7,-17.3 -14.7,-28.1l0 -69.1c0,-10.8 6.5,-15.7 14.7,-11.1l362.3 209.2c8.1,4.7 14.7,17.3 14.7,28.1l0 69.1c0,10.8 -6.6,15.8 -14.7,11.1z"/>
   <path class="fil7" d="M1552.3 1853.4c-0.9,0 -1.9,-0.3 -3,-0.9l-341.5 -197.2c-4.1,-2.4 -7.5,-8.8 -7.5,-14.3l0 -51.9c0,-4.1 1.9,-6.5 4.5,-6.5 0.9,0 1.9,0.3 3,0.9l341.5 197.2c4.1,2.3 7.5,8.7 7.5,14.2l0 51.9c0,4.1 -1.9,6.6 -4.5,6.6z"/>
   <path class="fil3" d="M1278.9 1670.1l-50.9 -29.4c-4,-2.3 -7.3,-8.5 -7.3,-13.8 0,-5.4 3.3,-7.8 7.3,-5.5l50.9 29.4c4,2.3 7.3,8.5 7.3,13.8 0,5.4 -3.3,7.8 -7.3,5.5z"/>
   <path class="fil4" d="M1322.4 1685.5c0,5.4 -3.8,7.5 -8.4,4.9 -4.6,-2.7 -8.3,-9.2 -8.3,-14.5 0,-5.3 3.7,-7.5 8.3,-4.8 4.6,2.6 8.4,9.1 8.4,14.4z"/>
   <path class="fil6" d="M1351.9 1702.6c0,5.3 -3.8,7.4 -8.4,4.8 -4.6,-2.7 -8.4,-9.2 -8.4,-14.5 0,-5.3 3.8,-7.5 8.4,-4.8 4.6,2.6 8.4,9.1 8.4,14.5z"/>
   <path class="fil3" d="M1381.3 1719.6c0,5.3 -3.7,7.5 -8.3,4.8 -4.6,-2.7 -8.4,-9.1 -8.4,-14.5 0,-5.3 3.8,-7.5 8.4,-4.8 4.6,2.7 8.3,9.1 8.3,14.5z"/>
   <path class="fil6" d="M1410.8 1736.6c0,5.3 -3.7,7.5 -8.4,4.8 -4.6,-2.6 -8.3,-9.1 -8.3,-14.5 0,-5.3 3.7,-7.5 8.3,-4.8 4.7,2.7 8.4,9.2 8.4,14.5z"/>
   <path class="fil3" d="M1534.9 1823.5l-17.1 -9.9c-2.6,-1.5 -4.7,-5.4 -4.7,-8.8l0 -18.2c0,-3.4 2.1,-5 4.7,-3.5l17.1 9.9c2.6,1.5 4.7,5.5 4.7,8.9l0 18.1c0,3.4 -2.1,5 -4.7,3.5z"/>
   <path class="fil2" d="M1454.3 766.9c-3,0 -5.4,-2.5 -5.4,-5.5l0 -225.2c0,-3.1 2.4,-5.5 5.4,-5.5 3,0 5.5,2.4 5.5,5.5l0 225.2c0,3 -2.5,5.5 -5.5,5.5z"/>
   <polygon class="fil2" points="1434.8,606.4 1473.9,606.4 1473.9,522 1434.8,522 "/>
   <path class="fil2" d="M1468.2 614.4c-7.7,4.4 -20.1,4.4 -27.7,0 -7.6,-4.4 -7.7,-11.5 0,-15.9 7.6,-4.5 20,-4.5 27.7,0 7.6,4.4 7.6,11.5 0,15.9z"/>
   <polygon class="fil2" points="1422.6,536.8 1486,536.8 1486,404.3 1422.6,404.3 "/>
   <path class="fil1" d="M1434.8 535.9l0 28.6c11.4,5.2 27.6,5.2 39.1,0l0 -28.6c-11.5,-5.3 -27.7,-5.3 -39.1,0z"/>
   <path class="fil2" d="M1476.7 549.7c-12.4,7.1 -32.4,7.1 -44.8,0 -12.4,-7.2 -12.4,-18.7 0,-25.9 12.4,-7.1 32.4,-7.1 44.8,0 12.4,7.2 12.4,18.7 0,25.9z"/>
   <path class="fil2" d="M1507.8 798.8c-3,0 -5.5,-2.4 -5.5,-5.5l0 -225.2c0,-3 2.5,-5.5 5.5,-5.5 3,0 5.5,2.5 5.5,5.5l0 225.2c0,3.1 -2.5,5.5 -5.5,5.5z"/>
   <polygon class="fil2" points="1488.2,638.4 1527.4,638.4 1527.4,553.9 1488.2,553.9 "/>
   <path class="fil2" d="M1521.6 646.4c-7.6,4.4 -20,4.4 -27.6,0 -7.7,-4.4 -7.7,-11.6 0,-16 7.6,-4.4 20,-4.4 27.6,0 7.7,4.4 7.7,11.6 0,16z"/>
   <polygon class="fil2" points="1476.1,568.7 1539.5,568.7 1539.5,436.2 1476.1,436.2 "/>
   <path class="fil1" d="M1488.2 567.8l0 28.6c11.5,5.2 27.7,5.2 39.2,0l0 -28.6c-11.5,-5.2 -27.7,-5.2 -39.2,0z"/>
   <path class="fil2" d="M1530.2 581.6c-12.4,7.2 -32.4,7.2 -44.8,0 -12.4,-7.1 -12.4,-18.7 0,-25.9 12.4,-7.1 32.4,-7.1 44.8,0 12.4,7.2 12.4,18.8 0,25.9z"/>
   <path class="fil2" d="M1561.3 830.7c-3.1,0 -5.5,-2.4 -5.5,-5.4l0 -225.3c0,-3 2.4,-5.4 5.5,-5.4 3,0 5.4,2.4 5.4,5.4l0 225.3c0,3 -2.4,5.4 -5.4,5.4z"/>
   <polygon class="fil2" points="1541.7,670.3 1580.8,670.3 1580.8,585.9 1541.7,585.9 "/>
   <path class="fil2" d="M1575.1 678.3c-7.6,4.4 -20,4.4 -27.7,0 -7.6,-4.4 -7.6,-11.6 0,-16 7.7,-4.4 20.1,-4.4 27.7,0 7.6,4.4 7.6,11.6 0,16z"/>
   <polygon class="fil2" points="1529.6,600.6 1593,600.6 1593,468.2 1529.6,468.2 "/>
   <path class="fil1" d="M1541.7 599.8l0 28.5c11.5,5.3 27.7,5.3 39.1,0l0 -28.5c-11.4,-5.3 -27.6,-5.3 -39.1,0z"/>
   <path class="fil2" d="M1583.7 613.6c-12.4,7.1 -32.5,7.1 -44.8,0 -12.4,-7.2 -12.4,-18.8 -0.1,-25.9 12.4,-7.2 32.5,-7.2 44.9,0 12.4,7.1 12.4,18.7 0,25.9z"/>
   <path class="fil2" d="M1614.7 862.7c-3,0 -5.4,-2.5 -5.4,-5.5l0 -225.2c0,-3.1 2.4,-5.5 5.4,-5.5 3.1,0 5.5,2.4 5.5,5.5l0 225.2c0,3 -2.4,5.5 -5.5,5.5z"/>
   <polygon class="fil2" points="1595.2,702.2 1634.3,702.2 1634.3,617.8 1595.2,617.8 "/>
   <path class="fil2" d="M1628.6 710.2c-7.7,4.4 -20.1,4.4 -27.7,0 -7.6,-4.4 -7.6,-11.5 0,-16 7.6,-4.4 20,-4.4 27.7,0 7.6,4.5 7.6,11.6 0,16z"/>
   <polygon class="fil2" points="1583,632.5 1646.5,632.5 1646.5,500.1 1583,500.1 "/>
   <path class="fil1" d="M1595.2 631.7l0 28.6c11.5,5.2 27.6,5.2 39.1,0l0 -28.6c-11.5,-5.3 -27.6,-5.3 -39.1,0z"/>
   <path class="fil2" d="M1637.2 645.5c-12.4,7.1 -32.5,7.1 -44.9,0 -12.4,-7.2 -12.4,-18.7 0,-25.9 12.4,-7.1 32.5,-7.1 44.9,0 12.3,7.2 12.3,18.7 0,25.9z"/>
   <polygon class="fil2" points="1863.3,742.3 1948.3,692.2 1867.3,591.1 1846,625.9 "/>
   <polygon class="fil2" points="1245.9,187.6 1381.6,109.5 1376.5,187.6 1298.6,211.7 "/>
   <path class="fil2" d="M1886.9 488.1c-10.3,-5.9 -20.2,-9.4 -29.3,-10.9 -13.7,-71.9 -63.8,-148.2 -123.4,-182.7 -18,-10.3 -35,-15.9 -50.5,-17 -8.2,-87.2 -68.7,-186.2 -142.3,-228.7 -38.5,-22.2 -73.3,-24.8 -99.1,-11.3l0 0 -1.2 0.7c-0.7,0.4 -1.3,0.7 -2,1.1l-80 47.3 26.6 21c-23.9,10.4 -39,37.2 -39,76.8 0,72.9 51.3,161.6 114.5,198.1l425.7 304c47.5,27.4 85.9,5.2 85.9,-49.6 0,-54.8 -38.4,-121.4 -85.9,-148.8z"/>
   <path class="fil2" d="M1350.7 152.2l183.6 -107.3c-35.6,-18.6 -67.8,-20.1 -92,-7.4l0 0 -1.2 0.7c-0.7,0.4 -1.3,0.7 -2,1.1l-80 47.3 26.6 21c-16.7,7.3 -29,22.6 -35,44.6z"/>
   <path class="fil2" d="M1689.9 467.9l134 -78.7c-23,-39.7 -54.7,-74.4 -89.7,-94.7 -4.6,-2.6 -9.2,-5 -13.7,-7l-170.5 99.6 139.9 80.8z"/>
   <path class="fil3" d="M1396.9 95.4l59.7 34.4 109.3 -64.4c-7.9,-6.2 -16.1,-11.8 -24.5,-16.6 -13.3,-7.7 -26.1,-12.9 -38.2,-16.1l-106.3 62.7z"/>
   <path class="fil3" d="M1809.1 366.1l-107 63 37.2 41.5 97.1 -57.3c-7.7,-16.5 -16.9,-32.3 -27.3,-47.2z"/>
   <path class="fil3" d="M1802.9 537.6c-10.3,-6 -20.2,-9.4 -29.4,-10.9 -13.6,-71.9 -63.7,-148.2 -123.3,-182.7 -18,-10.3 -35,-15.9 -50.5,-17.1 -8.1,-87.1 -68.7,-186.2 -142.3,-228.6 -79.2,-45.7 -143.3,-8.7 -143.3,82.7 0,3.1 0.1,6.2 0.2,9.4 -57.9,-26.9 -103.1,3.3 -103.1,71.9 0,73 51.3,161.7 114.5,198.2l477.2 275.5c47.5,27.4 85.9,5.2 85.9,-49.6 0,-54.8 -38.4,-121.4 -85.9,-148.8z"/>
   <path class="fil4" d="M1314.3 190.4c-0.1,-3.2 -0.2,-6.3 -0.2,-9.4l0 -0.4c-32,-12.4 -59.5,-7 -76.7,12.9 18.7,-15.4 46,-17.5 76.9,-3.1z"/>
   <path class="fil4" d="M1809.9 530.8c-10.3,-6 -20.2,-9.5 -29.4,-10.9 -13.6,-71.9 -63.7,-148.3 -123.3,-182.7 -18,-10.3 -35,-15.9 -50.5,-17.1 -8.2,-87.1 -68.8,-186.2 -142.4,-228.6 -49.2,-28.5 -92.7,-24.9 -118.5,4 26.3,-22.4 66.5,-23.3 111.6,2.8 73.6,42.4 134.2,141.5 142.3,228.6 15.5,1.2 32.5,6.8 50.5,17.1 59.6,34.5 109.7,110.8 123.3,182.7 9.2,1.5 19.1,4.9 29.4,10.9 47.5,27.4 85.9,94 85.9,148.8 0,19.8 -5,35.2 -13.7,45.7 12.9,-9.9 20.7,-27.9 20.7,-52.5 0,-54.8 -38.5,-121.4 -85.9,-148.8z"/>
   <path class="fil1" d="M1304.2 212.1l35.9 16.7 -1.8 -39.5c-0.1,-2.8 -0.2,-5.6 -0.2,-8.3 0,-35.3 10.6,-60.8 29.9,-72 19.4,-11.2 46.8,-7.6 77.4,10 65.7,38 123,130.3 130.4,210.2l1.9 20.1 20.2 1.5c12.3,1 25.9,5.7 40.3,14 52.1,30.1 99.2,100.1 111.8,166.4l3.1 16.6 16.7 2.6c6.7,1.1 13.8,3.7 21.1,8 40.1,23.1 73.9,81.7 73.9,128 0,17.3 -4.8,30 -13.1,34.9 -8.4,4.8 -21.8,2.6 -36.8,-6.1l-477.3 -275.5c-55.5,-32 -102.4,-113.3 -102.4,-177.4 0,-25.2 7.4,-44.3 20.4,-52.6 5.3,-3.4 11.7,-5.1 19,-5.1 8.8,0 18.9,2.5 29.6,7.5z"/>
   <polygon class="fil2" points="1542.4,511.2 1555,504.9 1542.6,495.5 "/>
   <polygon class="fil2" points="1504.6,341.2 1516.8,335 1517.1,341.4 "/>
   <polygon class="fil2" points="1578.3,471.5 1591.1,465.1 1566.5,441.7 "/>
   <path class="fil2" d="M1551.3 504.5l-59.6 -35.1c-3,-1.8 -5.5,-6.3 -5.4,-10l0.2 -69 70.5 41.5 -0.2 69c0,3.8 -2.5,5.4 -5.5,3.6z"/>
   <path class="fil2" d="M1516.7 335.1l-64.4 41.4c-2.7,1.7 -0.5,8.3 3.6,10.7l65.8 38.8 65.7 38.7c4.2,2.4 6.4,-1.5 3.7,-6.5l-63.9 -117c-2.8,-5 -7.7,-7.9 -10.5,-6.1z"/>
   <path class="fil3" d="M1538.5 510.9l-59.6 -35.1c-3,-1.8 -5.4,-6.2 -5.4,-10l0.2 -69 70.5 41.6 -0.2 69c0,3.7 -2.4,5.3 -5.5,3.5z"/>
   <path class="fil3" d="M1503.9 341.5l-64.4 41.4c-2.7,1.8 -0.5,8.3 3.7,10.8l65.7 38.7 65.8 38.7c4.1,2.5 6.3,-1.5 3.6,-6.4l-63.9 -117c-2.8,-5.1 -7.7,-8 -10.5,-6.2z"/>
   <polygon class="fil4" points="1753.8,1734.4 1746.5,1734.4 1746.5,1326.5 1794.7,1298.6 1794.7,1097.8 1802,1097.8 1802,1302.9 1753.8,1330.7 "/>
   <path class="fil0" d="M595.7 1822.6c-4.2,0 -8.5,-1.1 -12.3,-3.3l-133.1 -75.4c-4.1,-2.3 -6.5,-6.4 -6.5,-11 0,-4.7 2.3,-8.9 6.3,-11.2l332.1 -192c19.1,-11.1 42.7,-11 61.8,0l379.5 219.3 -5.5 9.5 -379.5 -219.4c-15.7,-9 -35.1,-9 -50.8,0l-332.1 192.1c-0.8,0.5 -0.9,1.2 -0.9,1.6 0,0.4 0.2,1.1 1,1.6l133.1 75.4c4.6,2.6 10.1,2.4 14.6,-0.5l56.2 -36.3 6 9.2 -56.3 36.3c-4.1,2.7 -8.8,4.1 -13.6,4.1z"/>
   <path class="fil0" d="M769.1 1851.7l-179 -103.3c-11,-6.4 -9.6,-17.5 3.1,-24.8l172.8 -99.7c12.7,-7.4 31.8,-8.1 42.8,-1.8l179 103.3c11,6.4 9.6,17.4 -3.1,24.7l-172.8 99.8c-12.7,7.3 -31.9,8.1 -42.8,1.8z"/>
   <path class="fil1" d="M1047.1 1646.7l0 -77.3 -173.3 -0.1 -60 -34.6c-13.7,-7.9 -37.7,-6.9 -53.6,2.2l-55.9 32.3 -173.6 -0.1 0 79.5c-0.3,5.4 2.7,10.6 9.3,14.4l224 129.4c13.8,7.9 37.8,6.9 53.7,-2.2l216.4 -125c9.1,-5.3 13.6,-12.1 13,-18.5z"/>
   <path class="fil1" d="M788.9 1529.4c-10,0.2 -20.5,2.8 -28.7,7.5l-55.9 32.3 -173.6 -0.1 0 79.5c-0.3,5.4 2.7,10.6 9.3,14.4l224 129.4c6.7,3.8 15.6,5.5 24.9,5.3l0 -268.3z"/>
   <path class="fil2" d="M550.4 1569.1l-19.7 0 0 79.5c-0.3,5.4 2.7,10.6 9.3,14.4l10.4 6 0 -99.9z"/>
   <path class="fil2" d="M767.5 1794.1c11.9,5 29,4.8 42.9,-0.5l0 -90.3 -42.9 0 0 90.8z"/>
   <path class="fil3" d="M764 1713.1l-224 -129.3c-13.8,-8 -12.1,-21.8 3.8,-31l216.4 -124.9c15.9,-9.2 39.9,-10.2 53.6,-2.3l224.1 129.4c13.8,8 12.1,21.8 -3.8,31l-216.4 124.9c-15.9,9.2 -39.9,10.2 -53.7,2.2z"/>
   <path class="fil2" d="M768.1 1689.9l-187.8 -108.4c-11.5,-6.7 -10.1,-18.3 3.2,-26l181.3 -104.7c13.4,-7.7 33.5,-8.5 45,-1.9l187.8 108.5c11.5,6.6 10.1,18.2 -3.2,25.9l-181.4 104.7c-13.3,7.7 -33.4,8.5 -44.9,1.9z"/>
   <path class="fil3" d="M964.7 1667.1c0,5.8 -4,12.8 -9,15.7 -5,2.9 -9.1,0.5 -9.1,-5.2 0,-5.8 4.1,-12.8 9.1,-15.7 5,-2.9 9,-0.5 9,5.2z"/>
   <path class="fil3" d="M993.8 1650.3c0,5.8 -4,12.8 -9,15.7 -5,2.9 -9.1,0.5 -9.1,-5.2 0,-5.8 4.1,-12.8 9.1,-15.7 5,-2.9 9,-0.6 9,5.2z"/>
   <path class="fil3" d="M1023 1633.5c0,5.8 -4.1,12.8 -9.1,15.7 -5,2.9 -9,0.5 -9,-5.3 0,-5.7 4,-12.7 9,-15.6 5,-2.9 9.1,-0.6 9.1,5.2z"/>
   <path class="fil1" d="M1047.1 1523.2l0 -77.4 -173.3 -0.1 -60 -34.6c-13.7,-7.9 -37.7,-6.9 -53.6,2.3l-55.9 32.2 -173.6 0 0 79.5c-0.3,5.3 2.7,10.5 9.3,14.3l224 129.4c13.8,8 37.8,7 53.7,-2.2l216.4 -124.9c9.1,-5.3 13.6,-12.2 13,-18.5z"/>
   <path class="fil1" d="M788.9 1405.8c-10,0.3 -20.5,2.8 -28.7,7.6l-55.9 32.2 -173.6 0 0 79.5c-0.3,5.3 2.7,10.5 9.3,14.3l224 129.4c6.7,3.8 15.6,5.6 24.9,5.3l0 -268.3z"/>
   <path class="fil2" d="M550.4 1445.6l-19.7 0 0 79.5c-0.3,5.3 2.7,10.5 9.3,14.3l10.4 6.1 0 -99.9z"/>
   <path class="fil2" d="M767.5 1670.5c11.9,5.1 29,4.8 42.9,-0.5l0 -90.3 -42.9 0 0 90.8z"/>
   <path class="fil3" d="M764 1589.6l-224 -129.4c-13.8,-7.9 -12.1,-21.8 3.8,-31l216.4 -124.9c15.9,-9.2 39.9,-10.1 53.6,-2.2l224.1 129.4c13.8,7.9 12.1,21.8 -3.8,30.9l-216.4 125c-15.9,9.1 -39.9,10.1 -53.7,2.2z"/>
   <path class="fil2" d="M768.1 1566.3l-187.8 -108.4c-11.5,-6.7 -10.1,-18.3 3.2,-26l181.3 -104.7c13.4,-7.6 33.5,-8.5 45,-1.8l187.8 108.4c11.5,6.6 10.1,18.3 -3.2,26l-181.4 104.6c-13.3,7.7 -33.4,8.6 -44.9,1.9z"/>
   <path class="fil3" d="M964.7 1543.6c0,5.7 -4,12.7 -9,15.6 -5,2.9 -9.1,0.6 -9.1,-5.2 0,-5.8 4.1,-12.8 9.1,-15.7 5,-2.8 9,-0.5 9,5.3z"/>
   <path class="fil3" d="M993.8 1526.7c0,5.8 -4,12.8 -9,15.7 -5,2.9 -9.1,0.6 -9.1,-5.2 0,-5.8 4.1,-12.8 9.1,-15.7 5,-2.9 9,-0.5 9,5.2z"/>
   <path class="fil3" d="M1023 1509.9c0,5.8 -4.1,12.8 -9.1,15.7 -5,2.9 -9,0.6 -9,-5.2 0,-5.8 4,-12.8 9,-15.7 5,-2.9 9.1,-0.5 9.1,5.2z"/>
   <path class="fil1" d="M1047.1 1399.6l0 -77.3 -173.3 -0.1 -60 -34.6c-13.7,-8 -37.7,-7 -53.6,2.2l-55.9 32.3 -173.6 -0.1 0 79.5c-0.3,5.4 2.7,10.6 9.3,14.4l224 129.4c13.8,7.9 37.8,6.9 53.7,-2.3l216.4 -124.9c9.1,-5.3 13.6,-12.1 13,-18.5z"/>
   <path class="fil1" d="M788.9 1282.3c-10,0.2 -20.5,2.8 -28.7,7.5l-55.9 32.3 -173.6 -0.1 0 79.5c-0.3,5.4 2.7,10.6 9.3,14.4l224 129.4c6.7,3.8 15.6,5.5 24.9,5.3l0 -268.3z"/>
   <path class="fil2" d="M550.4 1322l-19.7 0 0 79.5c-0.3,5.4 2.7,10.6 9.3,14.4l10.4 6 0 -99.9z"/>
   <path class="fil2" d="M767.5 1546.9c11.9,5.1 29,4.8 42.9,-0.4l0 -90.3 -42.9 0 0 90.7z"/>
   <path class="fil3" d="M764 1466l-224 -129.3c-13.8,-8 -12.1,-21.9 3.8,-31l216.4 -124.9c15.9,-9.2 39.9,-10.2 53.6,-2.3l224.1 129.4c13.8,8 12.1,21.8 -3.8,31l-216.4 124.9c-15.9,9.2 -39.9,10.2 -53.7,2.2z"/>
   <path class="fil4" d="M1034.1 1323.7l-216.4 124.9c-15.9,9.2 -39.9,10.2 -53.7,2.2l-224 -129.4c-3.1,-1.7 -5.4,-3.8 -6.9,-6 -4.7,7.6 -2.6,15.8 6.9,21.3l224 129.3c13.8,8 37.8,7 53.7,-2.2l216.4 -124.9c12.3,-7.1 16.1,-17.1 10.7,-24.9 -2.2,3.5 -5.8,6.8 -10.7,9.7z"/>
   <path class="fil3" d="M964.7 1420c0,5.8 -4,12.8 -9,15.7 -5,2.9 -9.1,0.5 -9.1,-5.3 0,-5.7 4.1,-12.7 9.1,-15.6 5,-2.9 9,-0.6 9,5.2z"/>
   <path class="fil3" d="M993.8 1403.2c0,5.8 -4,12.8 -9,15.7 -5,2.9 -9.1,0.5 -9.1,-5.3 0,-5.7 4.1,-12.8 9.1,-15.6 5,-2.9 9,-0.6 9,5.2z"/>
   <path class="fil3" d="M1023 1386.4c0,5.7 -4.1,12.8 -9.1,15.7 -5,2.8 -9,0.5 -9,-5.3 0,-5.7 4,-12.8 9,-15.6 5,-2.9 9.1,-0.6 9.1,5.2z"/>
   <path class="fil2" d="M777.3 1385.8l-104.9 -60.5c-6.4,-3.7 -5.6,-10.2 1.8,-14.5l101.3 -58.5c7.4,-4.3 18.7,-4.7 25.1,-1l104.9 60.5c6.4,3.7 5.6,10.2 -1.8,14.5l-101.3 58.5c-7.4,4.3 -18.7,4.7 -25.1,1z"/>
   <path class="fil3" d="M787.3 1335.1l-14.5 -8.3c-0.9,-0.6 -0.8,-1.5 0.3,-2l14 -8.1c1,-0.6 2.6,-0.7 3.5,-0.2l14.5 8.4c0.9,0.5 0.7,1.4 -0.3,2l-14 8.1c-1,0.6 -2.6,0.7 -3.5,0.1z"/>
   <path class="fil1" d="M672.4 1325.3l0.3 0.2 1.5 -1.1 101.3 -58.4c7.4,-4.3 18.7,-4.8 25.1,-1.1l104.6 60.4c5.9,-4.3 6.2,-10 0.3,-13.5l-104.9 -60.5c-6.4,-3.7 -17.7,-3.3 -25.1,1l-101.3 58.5c-7.4,4.3 -8.2,10.8 -1.8,14.5z"/>
   <path class="fil3" d="M749.6 1488.6c0,3.9 -2.7,5.5 -6.1,3.5 -3.3,-1.9 -6.1,-6.6 -6.1,-10.5 0,-3.9 2.8,-5.5 6.1,-3.5 3.4,1.9 6.1,6.6 6.1,10.5z"/>
   <path class="fil3" d="M730.7 1477.8c0,3.9 -2.7,5.5 -6.1,3.5 -3.4,-1.9 -6.1,-6.7 -6.1,-10.5 0,-3.9 2.7,-5.5 6.1,-3.6 3.4,2 6.1,6.7 6.1,10.6z"/>
   <path class="fil3" d="M749.6 1511.4c0,3.9 -2.7,5.5 -6.1,3.5 -3.3,-1.9 -6.1,-6.6 -6.1,-10.5 0,-3.9 2.8,-5.5 6.1,-3.5 3.4,1.9 6.1,6.6 6.1,10.5z"/>
   <path class="fil3" d="M730.7 1500.6c0,3.9 -2.7,5.4 -6.1,3.5 -3.4,-1.9 -6.1,-6.7 -6.1,-10.5 0,-3.9 2.7,-5.5 6.1,-3.5 3.4,1.9 6.1,6.6 6.1,10.5z"/>
   <path class="fil3" d="M749.6 1611.6c0,3.9 -2.7,5.4 -6.1,3.5 -3.3,-2 -6.1,-6.7 -6.1,-10.6 0,-3.8 2.8,-5.4 6.1,-3.5 3.4,2 6.1,6.7 6.1,10.6z"/>
   <path class="fil3" d="M730.7 1600.7c0,3.9 -2.7,5.5 -6.1,3.5 -3.4,-1.9 -6.1,-6.6 -6.1,-10.5 0,-3.9 2.7,-5.5 6.1,-3.5 3.4,1.9 6.1,6.7 6.1,10.5z"/>
   <path class="fil3" d="M749.6 1634.4c0,3.9 -2.7,5.4 -6.1,3.5 -3.3,-1.9 -6.1,-6.7 -6.1,-10.6 0,-3.8 2.8,-5.4 6.1,-3.5 3.4,2 6.1,6.7 6.1,10.6z"/>
   <path class="fil3" d="M730.7 1623.5c0,3.9 -2.7,5.5 -6.1,3.5 -3.4,-1.9 -6.1,-6.6 -6.1,-10.5 0,-3.9 2.7,-5.5 6.1,-3.5 3.4,1.9 6.1,6.6 6.1,10.5z"/>
   <path class="fil3" d="M749.6 1734.5c0,3.9 -2.7,5.5 -6.1,3.5 -3.3,-1.9 -6.1,-6.6 -6.1,-10.5 0,-3.9 2.8,-5.5 6.1,-3.5 3.4,1.9 6.1,6.6 6.1,10.5z"/>
   <path class="fil3" d="M730.7 1723.7c0,3.9 -2.7,5.4 -6.1,3.5 -3.4,-1.9 -6.1,-6.7 -6.1,-10.6 0,-3.8 2.7,-5.4 6.1,-3.5 3.4,2 6.1,6.7 6.1,10.6z"/>
   <path class="fil3" d="M749.6 1757.3c0,3.9 -2.7,5.5 -6.1,3.5 -3.3,-1.9 -6.1,-6.6 -6.1,-10.5 0,-3.9 2.8,-5.5 6.1,-3.5 3.4,1.9 6.1,6.6 6.1,10.5z"/>
   <path class="fil3" d="M730.7 1746.5c0,3.9 -2.7,5.4 -6.1,3.5 -3.4,-1.9 -6.1,-6.7 -6.1,-10.5 0,-3.9 2.7,-5.5 6.1,-3.6 3.4,2 6.1,6.7 6.1,10.6z"/>
   <path class="fil0" d="M791.9 1943.6c-6.5,0 -12.9,-1.6 -18.6,-4.9l-112.9 -65.6c-3.8,-2.2 -6.1,-6.2 -6.1,-10.6 0,-4.5 2.3,-8.4 6.1,-10.7l74.3 -43 5.5 9.5 -74.3 43 -0.7 1.2 0.7 1.2 112.9 65.5c8,4.6 17.9,4.6 25.9,0.1l221.2 -126c11.4,-6.5 25.5,-6.5 36.8,0.1l185.3 107c8,4.7 18,4.7 26,0.1l89.4 -51.7 5.5 9.5 -89.4 51.6c-11.4,6.7 -25.6,6.6 -37,0l-185.3 -107c-8,-4.6 -17.9,-4.7 -25.9,-0.1l-221.2 126c-5.6,3.2 -11.9,4.8 -18.2,4.8z"/>
   <path class="fil0" d="M1772.8 2360.5l-179 -103.3c-11,-6.3 -9.6,-17.4 3.1,-24.7l172.8 -99.8c12.7,-7.3 31.9,-8.1 42.8,-1.7l179 103.3c11,6.3 9.6,17.4 -3.1,24.7l-172.8 99.8c-12.7,7.3 -31.9,8.1 -42.8,1.7z"/>
   <path class="fil1" d="M2050.8 2155.6l0 -77.3 -173.3 -0.1 -59.9 -34.6c-13.8,-8 -37.8,-7 -53.7,2.2l-55.9 32.3 -173.5 -0.1 0 79.5c-0.4,5.4 2.6,10.6 9.2,14.4l224 129.3c13.8,8 37.8,7 53.7,-2.2l216.4 -124.9c9.1,-5.3 13.6,-12.1 13,-18.5z"/>
   <path class="fil1" d="M1792.7 2038.2c-10.1,0.3 -20.6,2.8 -28.8,7.6l-55.9 32.3 -173.5 -0.1 0 79.5c-0.4,5.4 2.6,10.6 9.2,14.4l224 129.3c6.7,3.8 15.6,5.6 25,5.3l0 -268.3z"/>
   <path class="fil2" d="M1554.1 2078l-19.6 0 0 79.5c-0.4,5.4 2.6,10.6 9.2,14.4l10.4 6 0 -99.9z"/>
   <path class="fil2" d="M1771.2 2302.9c11.9,5.1 29,4.8 42.9,-0.5l0 -90.3 -42.9 0 0 90.8z"/>
   <path class="fil3" d="M1767.7 2222l-224 -129.4c-13.8,-7.9 -12,-21.8 3.8,-30.9l216.4 -125c15.9,-9.1 39.9,-10.1 53.7,-2.2l224 129.4c13.8,7.9 12.1,21.8 -3.8,31l-216.4 124.9c-15.9,9.1 -39.9,10.1 -53.7,2.2z"/>
   <path class="fil2" d="M1771.8 2198.7l-187.8 -108.4c-11.5,-6.7 -10.1,-18.3 3.2,-26l181.3 -104.6c13.4,-7.7 33.5,-8.6 45,-1.9l187.8 108.4c11.5,6.7 10.1,18.3 -3.2,26l-181.3 104.7c-13.4,7.6 -33.5,8.5 -45,1.8z"/>
   <path class="fil3" d="M1968.4 2176c0,5.8 -4,12.8 -9,15.7 -5,2.8 -9.1,0.5 -9.1,-5.3 0,-5.7 4.1,-12.8 9.1,-15.6 5,-2.9 9,-0.6 9,5.2z"/>
   <path class="fil3" d="M1997.5 2159.2c0,5.7 -4,12.8 -9,15.6 -5,2.9 -9.1,0.6 -9.1,-5.2 0,-5.8 4.1,-12.8 9.1,-15.7 5,-2.8 9,-0.5 9,5.3z"/>
   <path class="fil3" d="M2026.7 2142.4c0,5.7 -4.1,12.7 -9.1,15.6 -5,2.9 -9,0.6 -9,-5.2 0,-5.8 4,-12.8 9,-15.7 5,-2.9 9.1,-0.5 9.1,5.3z"/>
   <path class="fil1" d="M2050.8 2032l0 -77.3 -173.3 -0.1 -59.9 -34.6c-13.8,-7.9 -37.8,-6.9 -53.7,2.2l-55.9 32.3 -173.5 -0.1 0 79.5c-0.4,5.4 2.6,10.6 9.2,14.4l224 129.4c13.8,7.9 37.8,6.9 53.7,-2.2l216.4 -125c9.1,-5.3 13.6,-12.1 13,-18.5z"/>
   <path class="fil1" d="M1792.7 1914.7c-10.1,0.2 -20.6,2.8 -28.8,7.5l-55.9 32.3 -173.5 -0.1 0 79.5c-0.4,5.4 2.6,10.6 9.2,14.4l224 129.4c6.7,3.8 15.6,5.5 25,5.3l0 -268.3z"/>
   <path class="fil2" d="M1554.1 1954.4l-19.6 0 0 79.5c-0.4,5.4 2.6,10.6 9.2,14.4l10.4 6 0 -99.9z"/>
   <path class="fil2" d="M1771.2 2179.4c11.9,5.1 29,4.8 42.9,-0.5l0 -90.3 -42.9 0 0 90.8z"/>
   <path class="fil3" d="M1767.7 2098.5l-224 -129.4c-13.8,-8 -12,-21.8 3.8,-31l216.4 -124.9c15.9,-9.2 39.9,-10.2 53.7,-2.2l224 129.3c13.8,8 12.1,21.8 -3.8,31l-216.4 124.9c-15.9,9.2 -39.9,10.2 -53.7,2.3z"/>
   <path class="fil2" d="M1771.8 2075.2l-187.8 -108.5c-11.5,-6.6 -10.1,-18.2 3.2,-25.9l181.3 -104.7c13.4,-7.7 33.5,-8.5 45,-1.9l187.8 108.5c11.5,6.6 10.1,18.2 -3.2,25.9l-181.3 104.7c-13.4,7.7 -33.5,8.5 -45,1.9z"/>
   <path class="fil3" d="M1968.4 2052.4c0,5.8 -4,12.8 -9,15.7 -5,2.9 -9.1,0.5 -9.1,-5.2 0,-5.8 4.1,-12.8 9.1,-15.7 5,-2.9 9,-0.6 9,5.2z"/>
   <path class="fil3" d="M1997.5 2035.6c0,5.8 -4,12.8 -9,15.7 -5,2.9 -9.1,0.5 -9.1,-5.2 0,-5.8 4.1,-12.8 9.1,-15.7 5,-2.9 9,-0.6 9,5.2z"/>
   <path class="fil3" d="M2026.7 2018.8c0,5.8 -4.1,12.8 -9.1,15.7 -5,2.9 -9,0.5 -9,-5.3 0,-5.7 4,-12.7 9,-15.6 5,-2.9 9.1,-0.6 9.1,5.2z"/>
   <path class="fil1" d="M2050.8 1908.5l0 -77.4 -173.3 -0.1 -59.9 -34.6c-13.8,-7.9 -37.8,-6.9 -53.7,2.3l-55.9 32.3 -173.5 -0.2 0 79.6c-0.4,5.3 2.6,10.5 9.2,14.3l224 129.4c13.8,8 37.8,7 53.7,-2.2l216.4 -124.9c9.1,-5.3 13.6,-12.2 13,-18.5z"/>
   <path class="fil1" d="M1792.7 1791.1c-10.1,0.3 -20.6,2.8 -28.8,7.6l-55.9 32.3 -173.5 -0.2 0 79.6c-0.4,5.3 2.6,10.5 9.2,14.3l224 129.4c6.7,3.8 15.6,5.6 25,5.3l0 -268.3z"/>
   <path class="fil2" d="M1554.1 1830.9l-19.6 -0.1 0 79.6c-0.4,5.3 2.6,10.5 9.2,14.3l10.4 6.1 0 -99.9z"/>
   <path class="fil2" d="M1771.2 2055.8c11.9,5.1 29,4.8 42.9,-0.5l0 -90.3 -42.9 0 0 90.8z"/>
   <path class="fil3" d="M1767.7 1974.9l-224 -129.4c-13.8,-7.9 -12,-21.8 3.8,-31l216.4 -124.9c15.9,-9.2 39.9,-10.1 53.7,-2.2l224 129.4c13.8,7.9 12.1,21.8 -3.8,30.9l-216.4 125c-15.9,9.1 -39.9,10.1 -53.7,2.2z"/>
   <path class="fil4" d="M2037.8 1832.5l-216.4 125c-15.9,9.1 -39.9,10.1 -53.7,2.2l-224 -129.4c-3.1,-1.8 -5.3,-3.8 -6.9,-6.1 -4.7,7.6 -2.6,15.9 6.9,21.3l224 129.4c13.8,7.9 37.8,6.9 53.7,-2.2l216.4 -125c12.3,-7.1 16.1,-17 10.7,-24.8 -2.2,3.4 -5.7,6.8 -10.7,9.6z"/>
   <path class="fil3" d="M1968.4 1928.9c0,5.7 -4,12.8 -9,15.6 -5,2.9 -9.1,0.6 -9.1,-5.2 0,-5.8 4.1,-12.8 9.1,-15.7 5,-2.9 9,-0.5 9,5.3z"/>
   <path class="fil3" d="M1997.5 1912c0,5.8 -4,12.8 -9,15.7 -5,2.9 -9.1,0.6 -9.1,-5.2 0,-5.8 4.1,-12.8 9.1,-15.7 5,-2.9 9,-0.5 9,5.2z"/>
   <path class="fil3" d="M2026.7 1895.2c0,5.8 -4.1,12.8 -9.1,15.7 -5,2.9 -9,0.6 -9,-5.2 0,-5.8 4,-12.8 9,-15.7 5,-2.9 9.1,-0.5 9.1,5.2z"/>
   <path class="fil2" d="M1781 1894.7l-104.8 -60.6c-6.5,-3.7 -5.7,-10.2 1.7,-14.5l101.3 -58.4c7.4,-4.3 18.7,-4.8 25.1,-1.1l104.9 60.6c6.4,3.7 5.6,10.2 -1.8,14.5l-101.3 58.4c-7.4,4.3 -18.7,4.8 -25.1,1.1z"/>
   <path class="fil3" d="M1791 1844l-14.5 -8.4c-0.9,-0.5 -0.7,-1.4 0.3,-2l14 -8.1c1,-0.6 2.6,-0.6 3.5,-0.1l14.5 8.4c0.9,0.5 0.8,1.4 -0.3,2l-14 8.1c-1,0.5 -2.6,0.6 -3.5,0.1z"/>
   <path class="fil1" d="M1676.2 1834.1l0.2 0.2 1.5 -1 101.3 -58.5c7.4,-4.3 18.7,-4.7 25.1,-1l104.6 60.3c5.9,-4.2 6.2,-10 0.3,-13.4l-104.9 -60.6c-6.4,-3.7 -17.7,-3.2 -25.1,1.1l-101.3 58.4c-7.4,4.3 -8.2,10.8 -1.7,14.5z"/>
   <path class="fil3" d="M1448.3 591.8c0,3.9 -2.7,5.5 -6.1,3.5 -3.3,-1.9 -6.1,-6.6 -6.1,-10.5 0,-3.9 2.8,-5.5 6.1,-3.5 3.4,1.9 6.1,6.6 6.1,10.5z"/>
   <path class="fil3" d="M1502 624.3c0,3.9 -2.8,5.5 -6.1,3.5 -3.4,-1.9 -6.1,-6.6 -6.1,-10.5 0,-3.9 2.7,-5.5 6.1,-3.5 3.3,1.9 6.1,6.7 6.1,10.5z"/>
   <path class="fil3" d="M1555.6 656.9c0,3.9 -2.7,5.4 -6.1,3.5 -3.3,-2 -6.1,-6.7 -6.1,-10.6 0,-3.9 2.8,-5.4 6.1,-3.5 3.4,2 6.1,6.7 6.1,10.6z"/>
   <path class="fil3" d="M1609.3 689.4c0,3.9 -2.8,5.5 -6.1,3.5 -3.4,-1.9 -6.1,-6.6 -6.1,-10.5 0,-3.9 2.7,-5.5 6.1,-3.6 3.3,2 6.1,6.7 6.1,10.6z"/>
   <path class="fil3" d="M1485.7 656.7c0,3 -2.4,5.5 -5.5,5.5 -3,0 -5.5,-2.5 -5.5,-5.5 0,-3 2.5,-5.5 5.5,-5.5 3.1,0 5.5,2.5 5.5,5.5z"/>
   <path class="fil3" d="M1535.7 686.7c0,3 -2.4,5.5 -5.4,5.5 -3.1,0 -5.5,-2.5 -5.5,-5.5 0,-3.1 2.4,-5.5 5.5,-5.5 3,0 5.4,2.4 5.4,5.5z"/>
   <path class="fil3" d="M1585.7 716.6c0,3.1 -2.4,5.5 -5.4,5.5 -3.1,0 -5.5,-2.4 -5.5,-5.5 0,-3 2.4,-5.4 5.5,-5.4 3,0 5.4,2.4 5.4,5.4z"/>
   <path class="fil3" d="M1635.8 745.4c0,3.1 -2.5,5.5 -5.5,5.5 -3,0 -5.5,-2.4 -5.5,-5.5 0,-3 2.5,-5.4 5.5,-5.4 3,0 5.5,2.4 5.5,5.4z"/>
  </g>
 </g>
</svg>
