<?xml version="1.0" encoding="UTF-8"?>
<!DOCTYPE svg PUBLIC "-//W3C//DTD SVG 1.1//EN" "http://www.w3.org/Graphics/SVG/1.1/DTD/svg11.dtd">
<!-- Creator: CorelDRAW 2019 (64-Bit) -->
<svg xmlns="http://www.w3.org/2000/svg" xml:space="preserve" width="283px" height="248px" version="1.1" style="shape-rendering:geometricPrecision; text-rendering:geometricPrecision; image-rendering:optimizeQuality; fill-rule:evenodd; clip-rule:evenodd"
viewBox="0 0 2830 2476.2"
 xmlns:xlink="http://www.w3.org/1999/xlink"
 xmlns:xodm="http://www.corel.com/coreldraw/odm/2003">
 <defs>
  <style type="text/css">
   <![CDATA[
    .fil0 {fill:#97AF6B}
    .fil1 {fill:#835D3F;fill-rule:nonzero}
    .fil6 {fill:#879A5D;fill-rule:nonzero}
    .fil3 {fill:#97AF6B;fill-rule:nonzero}
    .fil2 {fill:#996E52;fill-rule:nonzero}
    .fil7 {fill:#E25252;fill-rule:nonzero}
    .fil5 {fill:#EFE1BF;fill-rule:nonzero}
    .fil8 {fill:#F96464;fill-rule:nonzero}
    .fil9 {fill:#F9F7F6;fill-rule:nonzero}
    .fil4 {fill:#F2EFE8;fill-rule:nonzero}
   ]]>
  </style>
 </defs>
 <g id="Layer_x0020_1">
  <metadata id="CorelCorpID_0Corel-Layer"/>
  <g id="_1015137552">
   <polygon class="fil0" points="1428.3,1204.1 1440.6,1216.5 1440.7,1230.3 1428.5,1242.7 1419.7,1247.8 1407.5,1260.2 1407.5,1274.1 1419.9,1286.5 1446.1,1301.6 1458.4,1314 1458.5,1327.8 1446.3,1340.2 1416.8,1357.4 1404.5,1369.7 1404.6,1383.6 1416.9,1396 1495.4,1441.3 1507.7,1453.7 1507.8,1467.5 1495.6,1479.9 1008.7,1762.9 987.3,1770 963.4,1770 942,1762.9 931.2,1756.6 909.7,1749.5 885.8,1749.5 864.4,1756.6 843.1,1763.7 819.2,1763.7 797.8,1756.6 691,1695 669.6,1687.9 645.7,1687.9 624.3,1695 602,1707.9 580.7,1715.1 556.8,1715.1 535.3,1707.9 280.9,1561.1 268.6,1548.7 268.5,1534.8 280.7,1522.4 369.5,1470.8 381.7,1458.5 381.6,1444.6 369.3,1432.2 327.4,1408.1 315.1,1395.7 315,1381.8 327.2,1369.4 511.9,1262.1 524.1,1249.7 524,1235.9 511.7,1223.5 486,1208.7 473.7,1196.3 473.6,1182.5 485.8,1170.1 625.8,1088.7 647.1,1081.6 671,1081.6 692.4,1088.7 718.1,1103.5 739.5,1110.7 763.4,1110.6 784.7,1103.5 814.1,1086.4 835.5,1079.3 859.4,1079.3 880.8,1086.4 935.7,1118.1 957.1,1125.2 981,1125.2 1002.4,1118.1 1107.1,1057.2 1128.5,1050.1 1152.4,1050.1 1173.8,1057.2 "/>
   <path class="fil1" d="M485.9 1266.2l25.6 14.8c9.3,5.4 13.9,12.4 13.9,19.5l0.2 -57.6c0,-7 -4.7,-14 -13.9,-19.4l-25.7 -14.8c-9.3,-5.4 -13.9,-12.4 -13.9,-19.5l-0.2 57.6c0,7 4.7,14.1 14,19.4zm933.6 39.2l0 0 8.8 -5.1c9.1,-5.3 13.7,-12.3 13.7,-19.2l0.2 -57.6c0,7 -4.6,13.9 -13.7,19.2l-8.8 5.1c-9.1,5.3 -13.7,12.3 -13.7,19.2l-0.2 57.5c0,-6.9 4.6,-13.8 13.7,-19.1zm-2.9 109.5l0 0 29.5 -17.2c9.1,-5.3 13.7,-12.2 13.7,-19.1l0.2 -57.6c0,7 -4.6,13.9 -13.7,19.2l-29.5 17.2c-9.2,5.3 -13.7,12.2 -13.8,19.1l-0.1 57.6c0,-7 4.6,-13.9 13.7,-19.2zm-1089.3 50.7l0 0 41.8 24.1c9.3,5.4 13.9,12.5 13.9,19.5l0.2 -57.5c0,-7.1 -4.7,-14.1 -13.9,-19.5l-41.9 -24.1c-9.3,-5.4 -13.9,-12.5 -13.9,-19.5l-0.2 57.5c0,7.1 4.7,14.1 14,19.5zm1168.3 14.3l0 0 -486.9 283c-18.4,10.6 -48.3,10.6 -66.7,0l-10.8 -6.3c-18.5,-10.6 -48.4,-10.6 -66.8,0 -18.3,10.7 -48.1,10.7 -66.6,0l-106.8 -61.6c-18.5,-10.7 -48.3,-10.7 -66.7,0l-22.3 12.9c-18.3,10.7 -48.2,10.7 -66.7,0l-254.4 -146.8c-9.3,-5.4 -13.9,-12.5 -13.9,-19.5l-0.2 57.6c0,7 4.7,14 13.9,19.4l254.5 146.9c18.4,10.6 48.3,10.6 66.7,0l22.3 -13c18.3,-10.7 48.2,-10.7 66.6,0l106.8 61.6c18.5,10.7 48.4,10.7 66.7,0.1 18.3,-10.7 48.2,-10.7 66.7,0l10.8 6.2c18.5,10.7 48.3,10.7 66.7,0l486.9 -283c9.1,-5.3 13.7,-12.2 13.7,-19.2l0.2 -57.5c0,7 -4.6,13.9 -13.7,19.2z"/>
   <path class="fil2" d="M485.9 1266.2l25.6 14.8c9.3,5.4 13.9,12.4 13.9,19.5l0.2 -57.6c0,-7 -4.7,-14 -13.9,-19.4l-25.7 -14.8c-9.3,-5.4 -13.9,-12.4 -13.9,-19.5l-0.2 57.6c0,7 4.7,14.1 14,19.4zm933.6 39.2l0 0 8.8 -5.1c9.1,-5.3 13.7,-12.3 13.7,-19.2l0.2 -57.6c0,7 -4.6,13.9 -13.7,19.2l-8.8 5.1c-9.1,5.3 -13.7,12.3 -13.7,19.2l-0.2 57.5c0,-6.9 4.6,-13.8 13.7,-19.1zm-2.9 109.5l0 0 29.5 -17.2c9.1,-5.3 13.7,-12.2 13.7,-19.1l0.2 -57.6c0,7 -4.6,13.9 -13.7,19.2l-29.5 17.2c-9.2,5.3 -13.7,12.2 -13.8,19.1l-0.1 57.6c0,-7 4.6,-13.9 13.7,-19.2zm-1089.3 50.7l0 0 41.8 24.1c9.3,5.4 13.9,12.5 13.9,19.5l0.2 -57.5c0,-7.1 -4.7,-14.1 -13.9,-19.5l-41.9 -24.1c-9.3,-5.4 -13.9,-12.5 -13.9,-19.5l-0.2 57.5c0,7.1 4.7,14.1 14,19.5zm1168.3 14.3l0 0 -486.9 283c-18.4,10.6 -48.3,10.6 -66.7,0l-10.8 -6.3c-18.5,-10.6 -48.4,-10.6 -66.8,0 -18.3,10.7 -48.1,10.7 -66.6,0l-106.8 -61.6c-18.5,-10.7 -48.3,-10.7 -66.7,0l-22.3 12.9c-18.3,10.7 -48.2,10.7 -66.7,0l-254.4 -146.8c-9.3,-5.4 -13.9,-12.5 -13.9,-19.5l-0.2 57.6c0,7 4.7,14 13.9,19.4l254.5 146.9c18.4,10.6 48.3,10.6 66.7,0l22.3 -13c18.3,-10.7 48.2,-10.7 66.6,0l106.8 61.6c18.5,10.7 48.4,10.7 66.7,0.1 18.3,-10.7 48.2,-10.7 66.7,0l10.8 6.2c18.5,10.7 48.3,10.7 66.7,0l486.9 -283c9.1,-5.3 13.7,-12.2 13.7,-19.2l0.2 -57.5c0,7 -4.6,13.9 -13.7,19.2z"/>
   <g>
    <g>
     <polygon class="fil3" points="1461.6,1499.7 1461.6,1469.4 1505.9,1469.4 1495.6,1479.9 "/>
     <polygon class="fil4" points="1484.4,1475.1 1468,1475.1 1468,1471 1484.4,1471 "/>
     <polygon class="fil4" points="1461.6,1499.7 1461.6,1497.1 1466.1,1497.1 "/>
    </g>
    <g>
     <path class="fil4" d="M1505.7 1469.4c-0.4,0.4 -1,0.6 -1.6,0.6 -0.6,0 -1.1,-0.2 -1.5,-0.6l3.1 0z"/>
    </g>
   </g>
   <g>
    <path class="fil5" d="M1335.8 1375.3l117.8 -68c-2,-2 -4.5,-4 -7.5,-5.7l-15.9 -9.2 -297 171.5 -152.7 -88.2 47.7 -27.5 -84.6 -48.9 77.8 -44.9 136 78.5 247 -142.6 -39.3 -22.7 -44.7 25.8 -224.5 -129.6 -39.2 22.8 224.4 129.5 -123.7 71.4 -136 -78.5 -117.1 67.6 -172.8 -99.7 152.9 -88.4 -3.6 -2.1c-18.5,-10.6 -48.3,-10.6 -66.7,0l-29.4 17.1c-4.4,2.6 -9.6,4.6 -15.1,5.9l-116.8 67.5 99.6 57.5 -269.8 155.8 -95.9 -55.4 -39.2 22.8 135.1 78 168.4 -97.2 157.8 91.1 -301.7 174.1 -183.6 -106 -39.2 22.8 183.5 105.9 -36.9 21.3 39.3 22.7 169.1 -97.6 261.6 151 -70.7 40.9c12.4,0.1 24.8,-2.5 34.2,-8 11.4,-6.6 27.1,-9.1 41.8,-7.5l19.3 -11.2 39.4 -22.7 338.7 -195.5 62 35.8 34.5 -20.1 -61.9 -35.8 67.1 -38.7 61.7 35.6 28.6 -16.6c3.7,-2.2 6.6,-4.6 8.8,-7.2l-168.6 -97.4zm-660.3 -51.1l0 0 116.2 -67.1 157.8 91.1 -116.2 67.1 -157.8 -91.1zm280.4 65.7l0 0 152.7 88.2 -115.6 66.8 -225.1 -46.5 188 -108.5zm-15.6 311.1l0 0 -261.6 -151 57.2 -33.1 261.3 53.9 197.5 -114 84.3 48.7 -338.7 195.5zm373.4 -215.6l0 0 -84.3 -48.6 67.1 -38.8 84.3 48.7 -67.1 38.7z"/>
    <path class="fil6" d="M1095.9 1070.8l221.5 127.8 3 1.8 3 -1.8 41.7 -24 27.2 15.7 -234.9 135.6 -132.9 -76.7 -3.1 -1.8 -3 1.8 -77.8 44.9 -9.1 5.2 9.1 5.3 75.5 43.6 -38.6 22.3 -9.1 5.2 9.1 5.3 152.7 88.1 3 1.8 3 -1.8 294 -169.7 12.5 7.2 -109.9 63.5 -9.1 5.2 9.1 5.3 161.3 93.1c-0.5,0.3 -1,0.7 -1.5,1l-25.6 14.8 -58.6 -33.8 -3.1 -1.8 -3 1.8 -67.1 38.7 -9.1 5.2 9.1 5.3 52.9 30.5 -22.5 13.1 -59 -34.1 -3 -1.7 -3 1.7 -338.8 195.6 -39.3 22.7 -17.7 10.2c-2.3,-0.2 -4.7,-0.3 -7.1,-0.3 -8,0 -15.7,1.1 -22.8,3.1l29.1 -16.7 9 -5.3 -9 -5.2 -261.6 -151 -3.1 -1.8 -3 1.8 -166.1 95.9 -27.2 -15.8 27.8 -16 9.1 -5.3 -9.1 -5.2 -174.5 -100.8 27.2 -15.7 180.6 104.2 3 1.8 3 -1.8 301.7 -174.1 9 -5.2 -9 -5.3 -157.8 -91.1 -3 -1.7 -3.1 1.7 -165.3 95.5 -123 -71 27.1 -15.8 92.8 53.6 3.1 1.7 3 -1.7 269.8 -155.8 9.1 -5.2 -9.1 -5.3 -90.5 -52.2 107 -61.8c5.9,-1.5 11.2,-3.7 15.9,-6.3l29.4 -17.1c7.9,-4.6 18.7,-7.2 30.2,-7.2 8.9,0 17.4,1.5 24.5,4.3l-143.4 82.8 -9.1 5.3 9.1 5.2 172.8 99.8 3 1.7 3 -1.7 114.1 -65.9 133 76.7 3 1.8 3 -1.8 123.7 -71.4 9.1 -5.2 -9.1 -5.2 -215.4 -124.4 27.2 -15.7zm-262.6 351.5l0 0 3.1 -1.8 116.2 -67.1 9 -5.2 -9 -5.3 -157.8 -91.1 -3.1 -1.7 -3 1.7 -116.2 67.1 -9 5.3 9 5.2 157.8 91.1 3 1.8zm160.7 128.9l0 0 2 -1.1 115.6 -66.8 9.1 -5.2 -9.1 -5.2 -152.7 -88.2 -3 -1.7 -3 1.7 -188 108.5 -13.7 8 15.5 3.2 225.1 46.4 2.2 0.4zm319.7 -58.8l0 0 3 -1.7 67.1 -38.8 9 -5.2 -9 -5.2 -84.3 -48.7 -3 -1.7 -3 1.7 -67.2 38.7 -9 5.3 9 5.2 84.3 48.7 3.1 1.7zm-317.5 72l0 0 -259.1 -53.4 -2.2 -0.4 -2 1.1 -57.2 33.1 -9.1 5.2 9.1 5.2 261.5 151.1 3.1 1.7 3 -1.7 338.7 -195.6 9.1 -5.2 -9.1 -5.3 -84.3 -48.6 -3 -1.8 -3 1.8 -195.5 112.8zm99.7 -500.6l0 0 -39.2 22.8 224.4 129.5 -123.7 71.4 -136 -78.5 -117.1 67.6 -172.8 -99.7 152.9 -88.4 -3.6 -2.1c-9.2,-5.3 -21.3,-7.9 -33.4,-7.9 -12,0 -24.1,2.6 -33.3,7.9l-29.4 17.1c-4.4,2.6 -9.6,4.6 -15.1,5.9l-116.8 67.5 99.6 57.5 -269.8 155.8 -95.9 -55.4 -39.2 22.8 135.1 78 168.4 -97.2 157.8 91.1 -301.7 174.1 -183.6 -106 -39.2 22.8 183.5 105.9 -36.9 21.3 39.3 22.7 169.1 -97.6 261.6 151 -70.7 40.9c0.3,0 0.6,0 1,0 12,0 24.1,-2.7 33.2,-8 9.2,-5.3 21.3,-8 33.3,-8 2.9,0 5.7,0.2 8.5,0.5l19.3 -11.2 39.4 -22.7 338.7 -195.5 62 35.8 34.5 -20.1 -61.9 -35.8 67.1 -38.7 61.7 35.6 28.6 -16.6c3.7,-2.2 6.6,-4.6 8.8,-7.2l-168.6 -97.4 117.8 -68c-2,-2 -4.5,-4 -7.5,-5.7l-15.9 -9.2 -297 171.5 -152.7 -88.2 47.7 -27.5 -84.6 -48.9 77.8 -44.9 136 78.5 247 -142.6 -39.3 -22.7 -44.7 25.8 -224.5 -129.6zm-262.6 351.5l0 0 -157.8 -91.1 116.2 -67.1 157.8 91.1 -116.2 67.1zm159.7 129.6l0 0 -225.1 -46.5 188 -108.5 152.7 88.2 -115.6 66.8zm320.7 -59.5l0 0 -84.3 -48.6 67.1 -38.8 84.3 48.7 -67.1 38.7zm-316.5 85.4l0 0 197.5 -114 84.3 48.7 -338.7 195.5 -261.6 -151 57.2 -33.1 261.3 53.9z"/>
   </g>
   <g>
    <path class="fil1" d="M648.7 1687.5c-8.9,1 -17.5,3.5 -24.4,7.5l-22.3 12.9c-7.6,4.5 -17.2,7 -27.2,7.8l0 57.5c9.9,-0.8 19.5,-3.3 27.1,-7.7l22.3 -13c6.9,-4 15.5,-6.5 24.5,-7.5l0 -57.5z"/>
    <path class="fil1" d="M978.8 1828.3c10.9,-0.5 21.5,-3.1 29.7,-7.9l486.9 -283c9.1,-5.3 13.7,-12.2 13.7,-19.2l0.2 -57.5c0,7 -4.6,13.9 -13.7,19.2l-486.9 283c-8.3,4.8 -19,7.4 -29.9,7.9l0 57.5z"/>
    <path class="fil1" d="M841 1821.5c8.5,-1.1 16.7,-3.5 23.3,-7.3 6.7,-4 15,-6.4 23.8,-7.5l0 -57.5c-8.7,1.1 -16.9,3.5 -23.7,7.4 -6.6,3.9 -14.8,6.3 -23.4,7.4l0 57.5z"/>
   </g>
  </g>
  <g id="_1015138704">
   <path class="fil7" d="M1010.6 500.3c68.9,-39.7 137.8,-49.3 190.5,-19.3l-108.9 -63.3c-52.7,-30 -121.7,-20.4 -190.5,19.3 -68.9,39.8 -137.7,109.7 -190,200.4 -82.9,143.6 -102,301.4 -47.2,389.7l240 386.5 108.9 63.3 -240 -386.5c-54.8,-88.3 -35.6,-246.1 47.2,-389.7 52.4,-90.7 121.1,-160.6 190,-200.4z"/>
   <path class="fil8" d="M1010.6 500.3c68.9,-39.7 137.8,-49.3 190.5,-19.3 83.4,47.6 103.4,182.9 49.2,334.1l-236.9 661.8 -240 -386.5c-54.8,-88.3 -35.7,-246.1 47.2,-389.7 52.4,-90.7 121.1,-160.6 190,-200.4z"/>
   <path class="fil9" d="M1205.2 699.8c0,115.1 -80.8,255 -180.5,312.6 -99.6,57.5 -180.5,10.9 -180.5,-104.2 0,-115.1 80.9,-255.1 180.5,-312.6 99.7,-57.6 180.5,-10.9 180.5,104.2z"/>
  </g>
 </g>
</svg>
