<?xml version="1.0" encoding="UTF-8"?>
<!DOCTYPE svg PUBLIC "-//W3C//DTD SVG 1.1//EN" "http://www.w3.org/Graphics/SVG/1.1/DTD/svg11.dtd">
<!-- Creator: CorelDRAW 2019 (64-Bit) -->
<svg xmlns="http://www.w3.org/2000/svg" xml:space="preserve" width="283px" height="248px" version="1.1" style="shape-rendering:geometricPrecision; text-rendering:geometricPrecision; image-rendering:optimizeQuality; fill-rule:evenodd; clip-rule:evenodd"
viewBox="0 0 2830 2476.2"
 xmlns:xlink="http://www.w3.org/1999/xlink"
 xmlns:xodm="http://www.corel.com/coreldraw/odm/2003">
 <defs>
  <style type="text/css">
   <![CDATA[
    .fil0 {fill:#6769AD}
    .fil14 {fill:#FFF7D7;fill-rule:nonzero}
    .fil2 {fill:#FFDB54;fill-rule:nonzero}
    .fil18 {fill:#FDF7E0;fill-rule:nonzero}
    .fil17 {fill:#FDF0CC;fill-rule:nonzero}
    .fil13 {fill:#FDEFC7;fill-rule:nonzero}
    .fil7 {fill:#FDD95D;fill-rule:nonzero}
    .fil16 {fill:#FBECC2;fill-rule:nonzero}
    .fil12 {fill:#FCE180;fill-rule:nonzero}
    .fil3 {fill:#F8C124;fill-rule:nonzero}
    .fil6 {fill:#F8C121;fill-rule:nonzero}
    .fil15 {fill:#F9E7B9;fill-rule:nonzero}
    .fil11 {fill:#F5C430;fill-rule:nonzero}
    .fil4 {fill:#F3B718;fill-rule:nonzero}
    .fil10 {fill:#F3B605;fill-rule:nonzero}
    .fil8 {fill:#E7A513;fill-rule:nonzero}
    .fil1 {fill:#DD8121;fill-rule:nonzero}
    .fil9 {fill:#6E6441;fill-rule:nonzero}
    .fil5 {fill:#6769AD;fill-rule:nonzero}
    .fil19 {fill:#4A6396;fill-rule:nonzero}
   ]]>
  </style>
 </defs>
 <g id="Layer_x0020_1">
  <metadata id="CorelCorpID_0Corel-Layer"/>
  <g id="_1013962416">
   <path class="fil0" d="M664.3 1828.9c-77,0 -129.6,-17 -141.6,-51.4 -26.4,-75.4 151.4,-206.2 397.2,-292.2 133.4,-46.7 259.5,-70.6 351,-70.6 77.1,0 129.6,16.9 141.7,51.3 26.4,75.5 -151.4,206.3 -397.2,292.3 -133.4,46.7 -259.5,70.6 -351.1,70.6z"/>
   <g>
    <polygon class="fil1" points="790.4,1191.7 793.4,1114.2 811.5,1068.8 822.9,1106.4 "/>
    <polygon class="fil2" points="1604.2,1206.5 1607.3,1130.4 1542.9,1196.2 "/>
    <path class="fil2" d="M1191.7 1432.2c-224.7,-5.4 -403,-119.6 -398.3,-318 4.8,-198.4 190.8,-354.9 415.5,-349.5 224.8,5.4 403,170.6 398.3,369 -4.7,198.3 -190.7,303.8 -415.5,298.5z"/>
    <path class="fil2" d="M1188.7 1560.7c-224.8,-5.4 -403.1,-170.6 -398.3,-369 4.7,-198.4 190.8,-354.8 415.5,-349.4 224.7,5.4 403,170.5 398.2,368.9 -4.7,198.4 -190.7,354.8 -415.4,349.5z"/>
    <path class="fil1" d="M913.3 942.7c-73.8,63 -120.6,150.9 -122.9,249 -4.8,198.4 173.5,363.6 398.3,369 111.1,2.6 212.8,-34.4 287.7,-96.4l-563.1 -521.6z"/>
    <path class="fil3" d="M1189 1544.6c-214.7,-5.1 -385,-162.9 -380.5,-352.5 4.6,-189.5 182.3,-339 397,-333.8 214.7,5.1 385,162.9 380.5,352.5 -4.5,189.5 -182.3,339 -397,333.8z"/>
    <path class="fil4" d="M1190.7 1477c-172.4,-4.2 -309.2,-130.9 -305.5,-283 3.7,-152.2 146.3,-272.2 318.7,-268 172.3,4.1 309.1,130.8 305.4,282.9 -3.6,152.2 -146.3,272.2 -318.6,268.1z"/>
    <path class="fil2" d="M1509.3 1208.9c0.2,-6.3 0,-12.5 -0.3,-18.7 -14.4,143.1 -152.2,253.2 -317.5,249.3 -165.1,-4 -297.6,-120.6 -305.1,-264.2 -0.6,6.1 -1.1,12.4 -1.2,18.7 -3.7,152.1 133.1,278.8 305.5,283 172.3,4.1 315,-115.9 318.6,-268.1z"/>
    <path class="fil2" d="M1257.1 1224.7l-64 -59.3c-61.6,14 -176.5,40.1 -268.2,61.7 22.7,68.7 78.4,125.3 151.1,155.4l181.1 -157.8z"/>
    <path class="fil2" d="M1156.4 1403.5c10.2,1.2 20.5,2 31,2.2 75.4,1.8 144.3,-22.9 195.6,-64.4l-104.4 -96.8 -122.2 159z"/>
    <path class="fil2" d="M1124.5 1101.8l-120.6 -111.7c-40.6,35.4 -76.8,74.5 -86.6,126.7l207.2 -15z"/>
    <path class="fil1" d="M1187.5 958.9c172.4,4.1 309.1,130.8 305.5,283 -0.8,30.8 -7.3,60.3 -18.5,87.7 21.3,-36.1 33.8,-77.1 34.8,-120.7 3.7,-152.1 -133.1,-278.8 -305.4,-282.9 -137.5,-3.3 -255.9,72.3 -300.2,180.2 53,-90 160.9,-150.2 283.8,-147.3z"/>
    <path class="fil1" d="M793.4 1114.2c-0.6,29.5 -3.4,50.8 3.5,78.5 9,-29.1 28.4,-116.2 28.4,-116.2l31 -69.1 25.8 -21.3 43.7 -31.9 3.6 -99.7c-81.3,63.6 -133.5,155.9 -136,259.7z"/>
    <polygon class="fil1" points="1580.9,1104 1582.7,1083.6 1587.7,1078.4 1589.3,1078.4 1594.1,1083.8 1592.4,1104.3 1587.3,1109.5 1585.8,1109.4 "/>
    <path class="fil1" d="M1545.2 1025.7l2.1 -36.8c0.1,-3.3 2.7,-6 5.8,-5.9l3.6 0.1c3.1,0.1 5.6,2.8 5.5,6.2l-2.1 36.7c-0.1,3.4 -2.7,6 -5.8,5.9l-3.6 -0.1c-3.1,0 -5.6,-2.8 -5.5,-6.1z"/>
    <path class="fil1" d="M1495.6 957.3l2.1 -35.6c0.1,-3.7 3,-6.8 6.6,-6.7l6.2 0.2c3.5,0.1 6.3,3.2 6.2,7l-2 35.6c-0.1,3.8 -3,6.8 -6.6,6.7l-6.2 -0.2c-3.6,-0.1 -6.4,-3.2 -6.3,-7z"/>
    <path class="fil1" d="M1421.5 902.2l2.2 -43.2c0.1,-3.8 3,-6.8 6.5,-6.7l6.3 0.2c3.5,0.1 6.3,3.2 6.2,6.9l-2.2 43.2c-0.1,3.8 -3,6.8 -6.6,6.7l-6.2 -0.2c-3.6,0 -6.4,-3.2 -6.2,-6.9z"/>
    <path class="fil1" d="M1346.8 865.9l2.4 -49.7c0.1,-3.8 3,-6.8 6.6,-6.7l6.2 0.2c3.5,0 6.3,3.2 6.3,6.9l-2.4 49.8c-0.2,3.8 -3.1,6.7 -6.7,6.7l-6.2 -0.2c-3.5,-0.1 -6.3,-3.2 -6.2,-7z"/>
    <path class="fil1" d="M1271.8 843.8l2.4 -47.8c0.1,-3.8 3,-6.7 6.6,-6.6l6.2 0.1c3.5,0.1 6.3,3.2 6.2,7l-2.4 47.8c0,3.8 -3,6.8 -6.5,6.7l-6.2 -0.2c-3.6,-0.1 -6.4,-3.2 -6.3,-7z"/>
    <path class="fil1" d="M1196.5 836.3l2.3 -48.5c0.1,-3.8 3.1,-6.8 6.6,-6.7l6.3 0.1c3.5,0.1 6.3,3.2 6.2,7l-2.4 48.6c-0.1,3.7 -3,6.7 -6.6,6.6l-6.2 -0.1c-3.5,-0.1 -6.3,-3.2 -6.2,-7z"/>
    <path class="fil1" d="M1120.9 837.9l2.3 -45.5c0.1,-3.7 3.1,-6.8 6.6,-6.7l6.2 0.2c3.6,0 6.4,3.2 6.3,7l-2.3 45.5c-0.1,3.7 -3.1,6.7 -6.6,6.6l-6.2 -0.1c-3.6,-0.1 -6.4,-3.2 -6.3,-7z"/>
    <path class="fil1" d="M1045 854.4l2.3 -44c0.1,-3.8 3,-6.8 6.6,-6.7l6.2 0.1c3.5,0.2 6.3,3.3 6.2,7l-2.2 44.1c-0.1,3.8 -3.1,6.8 -6.6,6.7l-6.2 -0.2c-3.6,-0.1 -6.4,-3.2 -6.3,-7z"/>
    <path class="fil1" d="M968.6 891.5l2.4 -47.6c0.1,-3.8 3,-6.8 6.5,-6.8l6.3 0.2c3.5,0.1 6.3,3.2 6.2,7l-2.4 47.7c0,3.8 -3,6.7 -6.5,6.7l-6.3 -0.2c-3.5,-0.1 -6.3,-3.2 -6.2,-7z"/>
   </g>
   <g>
    <path class="fil5" d="M2154.7 1819.7c-162,93.6 -424.6,93.6 -586.5,0 -162,-93.5 -162,-245.1 0,-338.6 161.9,-93.5 424.5,-93.5 586.5,0 162,93.5 162,245.1 0,338.6z"/>
    <path class="fil6" d="M2247.1 1497.7l-17.9 0c-20.1,-39.5 -57.1,-76.8 -111.1,-107.9 -172.1,-99.4 -451,-99.4 -623.1,0 -54,31.1 -91,68.4 -111.1,107.9l-17.9 0 0 71.9c0,65.1 43,130.3 129,179.9 172.1,99.4 451.1,99.4 623.1,0 86,-49.6 129.1,-114.8 129,-179.9l0 -71.9z"/>
    <path class="fil7" d="M1711 1321.4c-79.2,10.1 -154.4,32.8 -216,68.4 -54,31.1 -91,68.4 -111.1,107.9l-17.9 0 0 71.9c0,65.1 43,130.3 129,179.9 61.6,35.6 136.8,58.3 216,68.4l0 -496.5z"/>
    <path class="fil8" d="M2119.3 1748.8c85.2,-49.6 127.9,-114.4 127.8,-179.2l0 -71.9 -17.9 0c-17.1,-33.7 -46.7,-65.7 -88.4,-93.7l-21.5 0 0 344.8z"/>
    <path class="fil8" d="M2205.4 1677.9l0 -58.8c7.3,-9.1 13.7,-18.3 19.1,-27.7l0 58.8c-5.4,9.4 -11.8,18.6 -19.1,27.7z"/>
    <path class="fil9" d="M1766.7 1823c-0.8,0 -1.6,-0.1 -2.4,-0.1l0 0c0.8,0 1.6,0.1 2.4,0.1z"/>
    <path class="fil10" d="M1819.4 1823.9l0 -58.8c6.4,-0.1 12.8,-0.3 19.1,-0.6l0 58.8c-6.3,0.2 -12.7,0.4 -19.1,0.6zm-36 -0.2c-5.6,-0.2 -11.1,-0.4 -16.7,-0.7 -0.8,0 -1.6,-0.1 -2.4,-0.1l0 -58.9c6.3,0.4 12.7,0.6 19.1,0.8l0 58.9zm91.1 -2.7l0 -58.8c6.4,-0.6 12.8,-1.3 19.2,-2l0 58.8c-6.4,0.7 -12.8,1.4 -19.2,2zm-146.3 -1.1c-6.3,-0.6 -12.7,-1.4 -19.1,-2.2l0 0c0.7,0.1 1.3,0.2 1.9,0.2l0 -58.7c5.7,0.7 11.5,1.4 17.2,2l0 58.7zm201.5 -6l0 -58.8c6.4,-1.1 12.8,-2.2 19.1,-3.5l0 58.8c-6.3,1.3 -12.7,2.5 -19.1,3.5zm55.1 -11.6l0 -58.8c6.4,-1.6 12.8,-3.4 19.1,-5.2l0 58.8c-6.3,1.8 -12.6,3.5 -19.1,5.2zm-366.8 -2.7c-4.2,-1.2 -8.4,-2.4 -12.5,-3.6 4.1,1.2 8.3,2.4 12.5,3.6l0 0zm422 -14.2l0 -58.8c6.4,-2.3 12.8,-4.7 19.1,-7.3l0 58.8c-6.3,2.5 -12.7,4.9 -19.1,7.3zm55.1 -23.6l0 -58.7c6.5,-3.3 12.9,-6.7 19.1,-10.2l0 58.8c-6.2,3.5 -12.6,6.9 -19.1,10.1z"/>
    <path class="fil11" d="M1711 1817.9c-0.6,0 -1.2,-0.1 -1.9,-0.2l0 -58.8c0.7,0.1 1.3,0.2 1.9,0.3l0 58.7zm-37.9 -5.9c-6.4,-1.1 -12.8,-2.4 -19.1,-3.7l0 -58.8c6.3,1.4 12.7,2.6 19.1,3.8l0 58.7zm-55.1 -12.4c-4.2,-1.2 -8.4,-2.4 -12.5,-3.6 -2.2,-0.6 -4.5,-1.3 -6.6,-2l0 -58.8c6.3,2 12.6,3.8 19.1,5.6l0 58.8zm-55.2 -18c-6.4,-2.5 -12.8,-5.1 -19.1,-7.8l0 -58.8c6.3,2.7 12.7,5.3 19.1,7.8l0 58.8zm-55.1 -25.1c-4.1,-2.2 -8.1,-4.4 -12.1,-6.6 -0.2,-0.1 -0.4,-0.3 -0.6,-0.4l0 0c-2.2,-1.3 -4.3,-2.6 -6.4,-3.9l0 -58.7c2.1,1.3 4.2,2.5 6.4,3.8 4.2,2.4 8.4,4.7 12.7,7l0 58.8zm-55.1 -35.4c-6.8,-5.3 -13.1,-10.7 -19.1,-16.2l0 -58.7c5.9,5.5 12.3,10.8 19.1,16.1l0 58.8zm55.1 -36.5c-4.3,-2.3 -8.5,-4.6 -12.7,-7 -2.2,-1.3 -4.3,-2.5 -6.4,-3.8l0 0c2.1,1.3 4.2,2.5 6.4,3.8 4.2,2.4 8.4,4.7 12.7,7l0 0z"/>
    <path class="fil8" d="M2150.2 1728.8l0 -58.8c6.8,-4.8 13.1,-9.7 19.1,-14.8l0 58.7c-6,5.1 -12.3,10.1 -19.1,14.9z"/>
    <path class="fil11" d="M1397.4 1664.2c-7.8,-11.3 -14.2,-22.9 -19.1,-34.6l0 -59c4.9,11.7 11.3,23.4 19.1,34.7l0 58.9z"/>
    <path class="fil7" d="M2118.1 1677.6c-172,99.3 -451,99.3 -623.1,0 -172.1,-99.4 -172.1,-260.4 0,-359.8 172.1,-99.3 451,-99.3 623.1,0 172.1,99.4 172.1,260.4 0,359.8z"/>
    <path class="fil12" d="M1512.3 1611.2c-40.4,-4.3 -80,-12 -117.4,-22.9 -12,-18.2 -20.3,-37.1 -24.8,-56.2 -2.2,-9.3 -3.5,-18.5 -3.9,-27.8 0,0 0,0.1 0,0.2 -1.6,-34.4 8.8,-68.9 31.2,-101.4l0 36.9c0,61.4 38.3,122.8 114.9,171.2z"/>
    <path class="fil13" d="M1806.6 1765.2c-7.8,0 -15.5,-0.1 -23.2,-0.4l0 -13.1c7.7,0.3 15.5,0.4 23.2,0.4 4.3,0 8.5,-0.1 12.8,-0.1l0 13.1c-4.3,0.1 -8.6,0.1 -12.8,0.1zm31.9 -0.7l0 -13.1c12.1,-0.5 24.1,-1.3 36,-2.4l0 13.2c-11.9,1 -23.9,1.8 -36,2.3zm-74.2 -0.5c-12.1,-0.7 -24.1,-1.6 -36.1,-2.8l0 -13.2c12,1.3 24,2.2 36.1,2.9l0 13.1zm129.4 -3.8l0 -13.1c12.1,-1.4 24.1,-3.1 36,-5.1l0 13.1c-11.9,2 -23.9,3.7 -36,5.1zm55.1 -8.6l0 -13.1c12.2,-2.4 24.2,-5.1 36,-8.1l0 13.1c-11.8,3 -23.8,5.7 -36,8.1zm55.1 -13.3l0 -13.1c12.3,-3.5 24.3,-7.4 36.1,-11.7l0 13.1c-11.8,4.3 -23.8,8.2 -36.1,11.7zm55.2 -19l0 -13.1c12.3,-5 24.4,-10.4 36,-16.2l0 13.1c-11.6,5.8 -23.7,11.2 -36,16.2zm55.1 -26.4l0 -13.1c1.3,-0.7 2.6,-1.5 3.9,-2.2 0.2,-0.1 0.3,-0.2 0.5,-0.3 0,0 0,0 0,0 0.2,-0.1 0.4,-0.2 0.5,-0.3 0.1,0 0.1,-0.1 0.2,-0.1 0,0 0,0 0,0l0 13.1c-0.4,0.2 -0.8,0.5 -1.2,0.7 -1.3,0.7 -2.6,1.5 -3.9,2.2z"/>
    <path class="fil14" d="M1709.1 1758.9c-12.1,-1.6 -24.1,-3.4 -36,-5.6l0 -13.1c11.9,2.1 23.9,4 36,5.6l0 13.1zm-55.1 -9.4c-12.2,-2.6 -24.2,-5.5 -36,-8.7l0 -13.1c11.8,3.2 23.8,6.1 36,8.7l0 13.1zm-55.1 -14.3c-12.3,-3.8 -24.3,-7.9 -36.1,-12.4l0 -13.1c11.8,4.5 23.8,8.6 36.1,12.4l0 13.1zm-55.2 -20.2c-12.4,-5.3 -24.4,-11.1 -36,-17.3l0 -13.1c11.6,6.2 23.6,11.9 36,17.3l0 13.1zm-55.1 -28.1c-13,-7.8 -25.1,-16.1 -36,-24.6l0 -13.1c6.6,5.1 13.6,10.2 20.9,15 0.1,0.1 0.1,0.1 0.1,0.1 0.1,0.1 0.2,0.2 0.3,0.2 0.1,0.1 0.2,0.1 0.2,0.1 0.1,0.1 0.2,0.1 0.2,0.2 0.1,0.1 0.2,0.1 0.3,0.2 0.1,0 0.1,0 0.2,0.1 0.1,0.1 0.2,0.1 0.4,0.2l0 0c4.3,2.9 8.8,5.7 13.4,8.5l0 13.1zm-55.1 -40.7c-14.3,-13.1 -26.3,-26.8 -36.1,-40.9l0 -13c9.8,14 21.8,27.7 36.1,40.8l0 13.1zm-55.2 -75.6c-8.9,-21.3 -12.9,-43.2 -12.1,-65 0.9,17.5 5,35 12.1,52.1l0 12.9z"/>
    <path class="fil15" d="M2119.3 1690l0 -13.1c0.1,-0.1 0.2,-0.1 0.3,-0.2 0.1,0 0.1,-0.1 0.2,-0.1 0.1,-0.1 0.2,-0.1 0.3,-0.2 0.1,0 0.1,-0.1 0.2,-0.1 0.1,-0.1 0.2,-0.1 0.3,-0.2 0,0 0.1,-0.1 0.2,-0.1 0.1,0 0.2,-0.1 0.3,-0.1 0.1,-0.1 0.1,-0.2 0.2,-0.2 0.1,0 0.2,-0.1 0.2,-0.1 0.1,-0.1 0.2,-0.1 0.3,-0.2 0.1,0 0.2,-0.1 0.2,-0.1 0.1,-0.1 0.3,-0.2 0.4,-0.2 0,0 0.1,-0.1 0.1,-0.1 0.1,-0.1 0.2,-0.1 0.3,-0.2 0.1,0 0.1,-0.1 0.2,-0.1 0.1,0 0.2,-0.1 0.3,-0.2 0.1,0 0.1,0 0.1,-0.1 0.2,0 0.3,-0.1 0.4,-0.2 0.1,0 0.1,0 0.1,0 0.2,-0.1 0.3,-0.2 0.5,-0.3l0 0c9.1,-5.5 17.7,-11.2 25.8,-17l0 13.1c-9.6,6.9 -19.9,13.6 -30.9,20zm50 -34.8l0 -13.1c13.9,-11.5 25.9,-23.6 36.1,-36.1l0 13.1c-10.2,12.4 -22.2,24.6 -36.1,36.1zm55.2 -63.8l0 -13c6.4,-11 11.4,-22.2 15.1,-33.5 1.7,-2.2 3.3,-4.4 4.9,-6.5 -3.4,17.9 -10.1,35.7 -20,53z"/>
    <path class="fil15" d="M2205.4 1619.1l0 -13.1c7.3,-9 13.7,-18.2 19.1,-27.6l0 13c-5.4,9.4 -11.8,18.6 -19.1,27.7z"/>
    <path class="fil16" d="M1819.4 1765.1l0 -13.1c6.4,-0.1 12.8,-0.3 19.1,-0.6l0 13.1c-6.3,0.3 -12.7,0.5 -19.1,0.6zm-36 -0.3c-6.4,-0.2 -12.8,-0.4 -19.1,-0.8l0 -13.1c6.3,0.4 12.7,0.6 19.1,0.8l0 13.1zm91.1 -2.6l0 -13.2c6.4,-0.5 12.8,-1.2 19.2,-1.9l0 13.1c-6.4,0.7 -12.8,1.4 -19.2,2zm-146.3 -1c-5.7,-0.6 -11.5,-1.3 -17.2,-2l0 -13.1c5.7,0.7 11.5,1.3 17.2,1.9l0 13.2zm201.5 -6.1l0 -13.1c6.4,-1.1 12.8,-2.2 19.1,-3.5l0 13.1c-6.3,1.3 -12.7,2.4 -19.1,3.5zm55.1 -11.6l0 -13.1c6.4,-1.6 12.8,-3.4 19.1,-5.2l0 13.1c-6.3,1.8 -12.7,3.6 -19.1,5.2zm55.2 -16.9l0 -13.1c6.4,-2.3 12.8,-4.7 19.1,-7.3l0 13.1c-6.3,2.6 -12.7,5 -19.1,7.3zm55.1 -23.5l0 -13.1c6.5,-3.3 12.9,-6.7 19.1,-10.2l0 13.1c-6.2,3.5 -12.6,6.9 -19.1,10.2z"/>
    <path class="fil17" d="M1711 1759.2c-0.6,-0.1 -1.2,-0.2 -1.9,-0.3l0 -13.1c0.7,0.1 1.3,0.2 1.9,0.3l0 13.1zm-37.9 -5.9c-6.4,-1.2 -12.8,-2.4 -19.1,-3.8l0 -13.1c6.3,1.3 12.7,2.6 19.1,3.8l0 13.1zm-55.1 -12.5c-6.5,-1.8 -12.8,-3.6 -19.1,-5.6l0 -13.1c6.3,2 12.7,3.8 19.1,5.6l0 13.1zm-55.2 -18c-6.4,-2.5 -12.8,-5.1 -19.1,-7.8l0 -13.1c6.3,2.7 12.7,5.3 19.1,7.8l0 13.1zm-55.1 -25.1c-4.3,-2.3 -8.5,-4.6 -12.7,-7 -2.2,-1.3 -4.3,-2.5 -6.4,-3.8l0 -13.1c2.1,1.3 4.2,2.5 6.4,3.8 4.2,2.4 8.4,4.7 12.7,7l0 13.1zm-55.1 -35.4c-6.8,-5.3 -13.2,-10.6 -19.1,-16.1l0 -13.1c5.9,5.5 12.3,10.8 19.1,16.1l0 13.1z"/>
    <path class="fil15" d="M2150.2 1670l0 -13.1c6.8,-4.8 13.1,-9.7 19.1,-14.8l0 13.1c-6,5.1 -12.3,10 -19.1,14.8z"/>
    <path class="fil17" d="M1397.4 1605.3c-7.8,-11.3 -14.2,-23 -19.1,-34.7l0 -12.9c4.9,11.7 11.3,23.3 19.1,34.6l0 13z"/>
    <path class="fil14" d="M2118.6 1677.3c0,0 0,0 0,0 0,0 0,0 0,0zm0.5 -0.3c0.1,0 0.1,-0.1 0.2,-0.1 -0.1,0 -0.1,0.1 -0.2,0.1zm0.5 -0.3c0.1,0 0.1,-0.1 0.2,-0.1 -0.1,0 -0.1,0.1 -0.2,0.1zm0.5 -0.3c0.1,0 0.1,-0.1 0.2,-0.1 -0.1,0 -0.1,0.1 -0.2,0.1zm0.5 -0.3c0,0 0.1,-0.1 0.2,-0.1 -0.1,0 -0.2,0.1 -0.2,0.1zm0.5 -0.2c0.1,-0.1 0.1,-0.2 0.2,-0.2 -0.1,0 -0.1,0.1 -0.2,0.2zm0.4 -0.3c0.1,-0.1 0.2,-0.1 0.3,-0.2 -0.1,0.1 -0.2,0.1 -0.3,0.2zm0.5 -0.3c0.1,-0.1 0.3,-0.2 0.4,-0.2 -0.1,0 -0.3,0.1 -0.4,0.2zm0.5 -0.3c0.1,-0.1 0.2,-0.1 0.3,-0.2 -0.1,0.1 -0.2,0.1 -0.3,0.2zm0.5 -0.3c0.1,0 0.2,-0.1 0.3,-0.2 -0.1,0.1 -0.2,0.2 -0.3,0.2zm0.4 -0.3c0.2,0 0.3,-0.1 0.4,-0.2 -0.1,0.1 -0.2,0.2 -0.4,0.2zm0.5 -0.2c0.2,-0.1 0.3,-0.2 0.5,-0.3 -0.2,0.1 -0.3,0.2 -0.5,0.3zm0.5 -0.3c61.4,-36.9 99.6,-81.8 115,-128.8 0,-0.1 0.1,-0.1 0.2,-0.2 -3.7,11.3 -8.7,22.5 -15.1,33.5 -5.4,9.4 -11.8,18.6 -19.1,27.6 -10.2,12.5 -22.2,24.6 -36.1,36.1 -6,5.1 -12.3,10 -19.1,14.8 -8.1,5.8 -16.7,11.5 -25.8,17zm-649.2 -8.6l0 0 0 0zm-0.4 -0.2c-0.1,-0.1 -0.1,-0.1 -0.2,-0.1 0.1,0 0.1,0 0.2,0.1zm-0.5 -0.3c0,-0.1 -0.1,-0.1 -0.2,-0.2 0.1,0.1 0.2,0.1 0.2,0.2zm-0.4 -0.3c-0.1,0 -0.2,-0.1 -0.3,-0.2 0.1,0.1 0.2,0.2 0.3,0.2zm-0.4 -0.3c-7.3,-4.8 -14.3,-9.9 -20.9,-15 -6.8,-5.3 -13.2,-10.6 -19.1,-16.1 -14.3,-13.1 -26.3,-26.8 -36.1,-40.8 -7.8,-11.3 -14.2,-22.9 -19.1,-34.6 -7.1,-17.1 -11.2,-34.6 -12.1,-52.1 0,-0.4 0,-0.7 0,-1.1 0.4,9.2 1.7,18.4 3.9,27.6 11.2,47.6 45.6,93.7 103.4,132.1z"/>
    <path class="fil18" d="M1370.1 1532.1c-2.2,-9.2 -3.5,-18.4 -3.9,-27.6 0,-0.1 0,-0.2 0,-0.2 0.4,9.3 1.7,18.5 3.9,27.8z"/>
    <path class="fil8" d="M2027.7 1625.4c-122.1,70.5 -320.1,70.5 -442.3,0 -122.1,-70.6 -122.1,-184.9 0,-255.4 122.1,-70.5 320.2,-70.5 442.3,0 122.1,70.5 122.1,184.9 0,255.4z"/>
    <path class="fil6" d="M1585.4 1386.5c122.1,-70.5 320.2,-70.5 442.3,0 57.4,33.2 87.9,76 91.3,119.4 3.8,-48.9 -26.6,-98.5 -91.3,-135.9 -122.1,-70.5 -320.2,-70.5 -442.3,0 -64.7,37.4 -95.1,87 -91.3,135.9 3.5,-43.4 33.9,-86.2 91.3,-119.4z"/>
    <path class="fil6" d="M1960.4 1412.4l-24.3 7 6.9 2.7 -23.7 13.7c-19.3,-9.5 -39.3,-14.2 -60,-14.1 -20.6,0.2 -39.9,5.4 -57.8,15.7 -7.1,4.1 -12.9,8.3 -17.4,12.6 -4.5,4.3 -7.6,8.8 -9.4,13.4 -1.7,4.6 -2.8,8.9 -3,12.8 -0.3,3.9 -0.1,8.6 0.5,13.9l2.8 22.1c0.8,6.2 1,11.4 0.6,15.4 -0.5,4.1 -2.2,8.2 -5.3,12.6 -3,4.3 -7.6,8.2 -13.8,11.8 -11.2,6.5 -21.1,7.2 -29.8,2.2 -6.6,-3.8 -8.3,-8.6 -5,-14.2 3.3,-5.7 12,-12.8 26.4,-21.3l0 -16.6 -20.7 7.8 -29.8 -12.7c-18.3,11.2 -30,21.8 -35.4,31.8l-3.4 -3.8 0 16.2 0.1 0c0.1,11.1 8.6,22.1 25.7,33l-11.8 6.8 -16 -7.4 0 16.6 14.4 8.3 28 -16.2c17.6,8.2 36.5,12 56.8,11.3 20.2,-0.6 38.1,-5.4 53.5,-14.4 7.7,-4.4 14,-9.1 19,-14.1 4.9,-4.9 8.4,-10 10.5,-15.3 2.1,-5.3 3.4,-10.4 3.9,-15.2 0.5,-4.8 0.5,-10.1 0,-16l-2.4 -21.4c-0.4,-4.3 -0.6,-7.4 -0.6,-9.4 0,-1.9 0.4,-4.6 1.1,-8.1 0.7,-3.4 2.3,-6.5 4.8,-9.2 2.5,-2.7 5.9,-5.3 10.3,-7.8 4.6,-2.6 9.9,-4.3 15.9,-5.1 6.1,-0.7 11.4,0.2 15.9,2.7 2.4,1.2 4,2.5 5,3.8l0.9 2.8 -24.7 5.1 0 16.6 50 22.2c4.1,-2.6 7.7,-5 10.9,-7.2 3.2,-2.2 6.6,-4.9 10.1,-8.1 3.4,-3.1 6.3,-6.1 8.3,-9 2.1,-2.8 3.7,-6.1 4.8,-9.7 0.5,-1.7 0.7,-3.3 0.8,-5l0.1 0 0 -17.5 -6.4 1.4 -0.2 -0.4c-3.3,-3.9 -7.7,-7.7 -13.4,-11.4l26.3 -15.1 0 -16.6z"/>
    <path class="fil7" d="M1656.8 1573.8l27.8 -16c-19,-12 -27.5,-24.3 -25.5,-36.7 2,-12.5 14.8,-25.9 38.5,-40.4l50.5 21.4c-14.4,8.5 -23.1,15.6 -26.4,21.3 -3.3,5.7 -1.6,10.4 5,14.2 8.7,5.1 18.6,4.3 29.8,-2.1 6.2,-3.6 10.8,-7.6 13.8,-11.9 3.1,-4.3 4.8,-8.5 5.3,-12.5 0.4,-4.1 0.2,-9.2 -0.6,-15.5l-2.8 -22.1c-0.6,-5.3 -0.8,-9.9 -0.5,-13.8 0.2,-4 1.3,-8.3 3,-12.9 1.8,-4.6 4.9,-9.1 9.4,-13.3 4.5,-4.3 10.3,-8.6 17.4,-12.7 17.9,-10.3 37.2,-15.5 57.8,-15.6 20.7,-0.1 40.7,4.6 60,14l26.4 -15.2 14.7 8.4 -26.3 15.2c5.7,3.7 10.1,7.5 13.4,11.4 3.2,3.9 5.2,7.5 6,10.9 0.9,3.4 0.7,6.9 -0.3,10.5 -1.1,3.6 -2.7,6.9 -4.8,9.8 -2,2.8 -4.9,5.9 -8.3,9 -3.5,3.1 -6.9,5.8 -10.1,8.1 -3.2,2.2 -6.8,4.6 -10.9,7.2l-50 -22.3c3.8,-2.3 6.9,-4.2 9.3,-5.8 2.5,-1.5 4.9,-3.3 7.4,-5.1 2.5,-1.9 4.4,-3.6 5.5,-5 1.1,-1.3 1.9,-2.8 2.4,-4.3 0.4,-1.5 0.2,-2.9 -0.8,-4.2 -1,-1.4 -2.6,-2.6 -5,-3.9 -4.5,-2.5 -9.8,-3.4 -15.9,-2.6 -6,0.7 -11.3,2.4 -15.9,5.1 -4.4,2.5 -7.8,5.1 -10.3,7.8 -2.5,2.6 -4.1,5.7 -4.8,9.2 -0.7,3.5 -1.1,6.2 -1.1,8.1 0,1.9 0.2,5 0.6,9.3l2.4 21.4c0.5,5.9 0.5,11.3 0,16.1 -0.5,4.8 -1.8,9.8 -3.9,15.1 -2.1,5.3 -5.6,10.4 -10.5,15.4 -5,4.9 -11.3,9.6 -19,14.1 -15.4,8.9 -33.3,13.7 -53.5,14.4 -20.3,0.6 -39.2,-3.1 -56.8,-11.4l-28 16.2 -14.4 -8.3z"/>
    <path class="fil6" d="M2278.6 1368l-17.9 0c-20.1,-39.5 -57.1,-76.7 -111.1,-107.9 -172.1,-99.3 -451.1,-99.3 -623.1,0 -54,31.2 -91,68.4 -111.1,107.9l-18 0 0 72c0,65.1 43.1,130.2 129.1,179.8 172.1,99.4 451,99.4 623.1,0 86,-49.6 129,-114.7 129,-179.8l0 -72z"/>
    <path class="fil7" d="M1742.5 1191.7c-79.2,10.1 -154.5,32.8 -216,68.4 -54,31.2 -91,68.4 -111.1,107.9l-18 0 0 72c0,65.1 43.1,130.2 129.1,179.8 61.5,35.6 136.8,58.3 216,68.4l0 -496.5z"/>
    <path class="fil8" d="M2150.8 1619.1c85.2,-49.6 127.8,-114.3 127.8,-179.1l0 -72 -17.9 0c-17.1,-33.7 -46.7,-65.7 -88.4,-93.7l-21.5 0 0 344.8z"/>
    <path class="fil8" d="M2236.9 1548.2l0 -58.8c7.3,-9.1 13.7,-18.3 19.1,-27.7l0 58.8c-5.5,9.4 -11.8,18.7 -19.1,27.7z"/>
    <path class="fil10" d="M1850.9 1694.2l0 -58.8c6.4,-0.1 12.7,-0.3 19.1,-0.5l0 58.7c-6.4,0.3 -12.7,0.5 -19.1,0.6zm-36 -0.2c-6.4,-0.2 -12.8,-0.5 -19.1,-0.8l0 -58.9c6.3,0.4 12.7,0.7 19.1,0.9l0 58.8zm91.1 -2.7l0 -58.8c6.4,-0.6 12.8,-1.2 19.1,-2l0 58.8c-6.3,0.8 -12.7,1.4 -19.1,2zm-146.3 -1c-6.4,-0.7 -12.7,-1.5 -19.1,-2.3l0 0c0.6,0.1 1.3,0.2 1.9,0.2l0 -58.7c5.7,0.7 11.5,1.4 17.2,2l0 58.8zm201.5 -6.1l0 -58.8c6.4,-1 12.8,-2.2 19.1,-3.4l0 58.7c-6.4,1.3 -12.7,2.5 -19.1,3.5zm55.1 -11.6l0 -58.8c6.4,-1.6 12.8,-3.3 19.1,-5.1l0 58.7c-6.3,1.8 -12.7,3.5 -19.1,5.2zm-366.8 -2.7c-1.2,-0.3 -2.3,-0.6 -3.4,-0.9 1.1,0.3 2.2,0.6 3.4,0.9l0 0zm421.9 -14.2l0 -58.7c6.5,-2.4 12.9,-4.8 19.1,-7.3l0 58.7c-6.2,2.5 -12.6,5 -19.1,7.3zm-477.1 -3.8c-0.1,0 -0.3,-0.1 -0.4,-0.1 0.1,0 0.3,0.1 0.4,0.1l0 0zm532.3 -19.8l0 -58.7c6.5,-3.3 12.8,-6.6 19.1,-10.2l0 58.8c-6.2,3.5 -12.6,6.9 -19.1,10.1zm-275.7 -9.8l0 0c6.4,-0.1 12.7,-0.3 19.1,-0.6l0 0c-6.4,0.3 -12.7,0.5 -19.1,0.6zm-36 -0.3c-6.4,-0.1 -12.8,-0.4 -19.1,-0.8l0 0c6.3,0.4 12.7,0.7 19.1,0.8l0 0zm91.1 -2.6l0 0c6.4,-0.6 12.8,-1.3 19.1,-2l0 0c-6.3,0.7 -12.7,1.4 -19.1,2zm-146.3 -1c-5.7,-0.6 -11.5,-1.3 -17.2,-2l0 0c5.7,0.7 11.5,1.4 17.2,2l0 0zm201.5 -6.1l0 0c6.4,-1.1 12.7,-2.2 19.1,-3.5l0 0c-6.4,1.3 -12.7,2.4 -19.1,3.5zm55.1 -11.6l0 0c6.4,-1.6 12.8,-3.3 19.1,-5.2l0 0c-6.3,1.9 -12.7,3.6 -19.1,5.2zm55.1 -16.9l0 0c6.5,-2.3 12.9,-4.7 19.1,-7.3l0 0c-6.3,2.6 -12.6,5 -19.1,7.3zm55.2 -23.5l0 0c6.5,-3.3 12.8,-6.7 19.1,-10.2l0 0c-6.3,3.5 -12.6,6.9 -19.1,10.2z"/>
    <g>
     <path class="fil11" d="M1742.5 1688.2c-0.6,0 -1.3,-0.1 -1.9,-0.2l0 -58.7c0.6,0 1.3,0.1 1.9,0.2l0 58.7zm-37.9 -5.8c-6.4,-1.2 -12.8,-2.5 -19.1,-3.8l0 -58.8c6.3,1.4 12.7,2.6 19.1,3.8l0 58.8zm-55.1 -12.5c-1.2,-0.3 -2.3,-0.6 -3.4,-0.9 -5.3,-1.5 -10.5,-3.1 -15.7,-4.7l0 -58.7c6.3,1.9 12.6,3.8 19.1,5.5l0 58.8 0 0zm-55.2 -18c-0.1,0 -0.3,-0.1 -0.4,-0.1 -6.3,-2.5 -12.6,-5 -18.7,-7.7l0 -58.8c6.3,2.7 12.7,5.3 19.1,7.8l0 58.8zm-55.1 -25.1c-4.3,-2.3 -8.5,-4.6 -12.7,-7l0 0c-2.2,-1.2 -4.3,-2.6 -6.4,-3.9l0 -58.7c2.1,1.3 4.2,2.6 6.4,3.8 4.2,2.4 8.4,4.8 12.7,7.1l0 58.7zm203.3 -10.4c-0.6,-0.1 -1.3,-0.2 -1.9,-0.3l0 0c0.6,0.1 1.3,0.2 1.9,0.3l0 0zm-37.9 -5.9c-6.4,-1.2 -12.8,-2.4 -19.1,-3.8l0 0c6.3,1.4 12.7,2.6 19.1,3.8l0 0zm-55.1 -12.5c-6.5,-1.8 -12.9,-3.6 -19.1,-5.6l0 0c6.3,2 12.6,3.8 19.1,5.6l0 0zm-165.4 -6.6c-6.8,-5.3 -13.2,-10.7 -19.2,-16.2l0 -58.7c6,5.5 12.4,10.9 19.2,16.1l0 58.8zm110.2 -11.4c-6.4,-2.5 -12.8,-5.1 -19.1,-7.8l0 0c6.3,2.7 12.7,5.3 19.1,7.8l0 0zm-55.1 -25.1c-3.1,-1.6 -6.1,-3.3 -9.1,-5 3,1.7 6,3.4 9.1,5l0 0zm-9.3 -5.1c-0.8,-0.4 -1.5,-0.8 -2.2,-1.2 0.7,0.4 1.4,0.8 2.2,1.2zm-3.4 -1.9l0 0c-0.2,-0.1 -0.3,-0.2 -0.5,-0.3 0.2,0.1 0.3,0.2 0.5,0.3l0 0zm-0.7 -0.4c-0.1,-0.1 -0.2,-0.1 -0.3,-0.2 0.1,0.1 0.2,0.1 0.3,0.2zm-0.6 -0.3c-0.1,-0.1 -0.1,-0.1 -0.2,-0.2 0.1,0.1 0.1,0.1 0.2,0.2zm-0.5 -0.3c0,-0.1 -0.1,-0.1 -0.2,-0.2 0.1,0.1 0.2,0.1 0.2,0.2zm-0.5 -0.3c-0.1,-0.1 -0.1,-0.1 -0.2,-0.1 0.1,0 0.2,0 0.2,0.1zm-0.5 -0.3c-0.1,-0.1 -0.1,-0.1 -0.1,-0.1 0,0 0,0 0.1,0.1zm-0.5 -0.3c-0.1,-0.1 -0.1,-0.1 -0.1,-0.1 0,0 0,0 0.1,0.1zm-0.5 -0.3c-0.1,-0.1 -0.1,-0.1 -0.1,-0.1 0,0 0,0.1 0.1,0.1zm-0.5 -0.3c0,0 -0.1,-0.1 -0.1,-0.1l0.1 0.1z"/>
    </g>
    <path class="fil8" d="M2181.7 1599.1l0 -58.7c6.7,-4.9 13.1,-9.8 19.1,-14.8l0 58.7c-6,5 -12.3,10 -19.1,14.8zm0 -71.9l0 0c0.1,0 0.2,-0.1 0.3,-0.2 -0.1,0.1 -0.2,0.2 -0.3,0.2zm0.4 -0.3c0.1,0 0.2,-0.1 0.2,-0.1 0,0 -0.1,0.1 -0.2,0.1z"/>
    <path class="fil11" d="M1428.9 1534.5c-7.8,-11.3 -14.2,-22.9 -19.1,-34.6l0 -59c4.9,11.8 11.3,23.4 19.1,34.7l0 58.9z"/>
    <path class="fil7" d="M2149.6 1547.9c-172.1,99.3 -451,99.3 -623.1,0 -172.1,-99.4 -172.1,-260.4 0,-359.8 172,-99.3 451,-99.3 623.1,0 172,99.4 172.1,260.5 0,359.8z"/>
    <path class="fil19" d="M1522.7 1190.3c0.1,0 0.1,0 0.1,0 0,0 0,0 -0.1,0zm0.4 -0.2c0.1,0 0.1,0 0.1,0 0,0 0,0 -0.1,0zm1.1 -0.6c0,0 0.1,-0.1 0.1,-0.1 0,0 -0.1,0.1 -0.1,0.1zm0.4 -0.2c0.1,-0.1 0.1,-0.1 0.2,-0.2 -0.1,0.1 -0.1,0.1 -0.2,0.2zm0.5 -0.3c0.1,-0.1 0.2,-0.2 0.3,-0.2 -0.1,0 -0.2,0.1 -0.3,0.2zm0.5 -0.3c0.1,-0.1 0.2,-0.1 0.3,-0.2 -0.1,0.1 -0.2,0.1 -0.3,0.2zm0.4 -0.3c0.2,-0.1 0.3,-0.2 0.5,-0.3 -0.2,0.1 -0.3,0.2 -0.5,0.3zm0.5 -0.3c0.2,-0.1 0.3,-0.2 0.5,-0.3 -0.1,0.1 -0.3,0.2 -0.5,0.3z"/>
    <path class="fil12" d="M1625.3 1486c-68.3,0 -136.6,-9.2 -198.9,-27.4 -10.6,-16 -18.3,-32.5 -23,-49.2 -3.3,-11.5 -5.2,-23.2 -5.7,-34.8 0,0.1 0,0.2 0,0.3 -3.2,-66.4 38.5,-133.4 125,-184.6 0.1,0 0.1,0 0.1,0 0.1,-0.1 0.2,-0.1 0.3,-0.2 0.1,0 0.1,0 0.1,0 0.3,-0.2 0.6,-0.4 1,-0.6 0,0 0.1,-0.1 0.1,-0.1 0.1,-0.1 0.2,-0.1 0.3,-0.1 0.1,-0.1 0.1,-0.1 0.2,-0.2 0.1,0 0.2,-0.1 0.3,-0.1 0.1,-0.1 0.2,-0.2 0.3,-0.2 0.1,-0.1 0.1,-0.1 0.2,-0.1 0.1,-0.1 0.2,-0.1 0.3,-0.2 0,0 0.1,-0.1 0.1,-0.1 0.2,-0.1 0.3,-0.2 0.5,-0.3l0 0c0.2,-0.1 0.4,-0.2 0.5,-0.3 86,-49.4 198.4,-74.1 310.9,-74.1 68.3,0 136.6,9.1 199,27.3 59.8,90.8 26.5,197.4 -100.2,270.5 -86,49.6 -198.6,74.5 -311.4,74.5z"/>
    <path class="fil13" d="M1838 1635.5c-7.7,0 -15.4,-0.1 -23.1,-0.3l0 -13.2c7.7,0.3 15.4,0.4 23.1,0.4 4.3,0 8.6,0 12.9,-0.1l0 13.1c-4.3,0.1 -8.6,0.1 -12.9,0.1zm32 -0.6l0 -13.2c12,-0.5 24.1,-1.3 36,-2.3l0 13.1c-11.9,1.1 -23.9,1.8 -36,2.4zm-74.2 -0.6c-12.1,-0.6 -24.1,-1.6 -36.1,-2.8l0 -13.1c12,1.2 24,2.2 36.1,2.8l0 13.1zm129.3 -3.8l0 -13.1c12.1,-1.4 24.2,-3.1 36.1,-5.1l0 13.1c-11.9,2 -23.9,3.7 -36.1,5.1zm55.2 -8.5l0 -13.2c12.1,-2.4 24.2,-5.1 36,-8.1l0 13.1c-11.8,3.1 -23.9,5.8 -36,8.2zm55.1 -13.3l0 -13.2c12.3,-3.5 24.3,-7.4 36,-11.7l0 13.2c-11.7,4.2 -23.7,8.1 -36,11.7zm55.1 -19l0 -13.2c12.4,-5 24.5,-10.4 36.1,-16.2l0 13.1c-11.7,5.8 -23.7,11.2 -36.1,16.3zm55.2 -26.5l0 -13.1c1.3,-0.7 2.6,-1.5 3.9,-2.2 0.4,-0.2 0.8,-0.5 1.2,-0.7l0 13.1c-0.4,0.3 -0.8,0.5 -1.2,0.7 -1.3,0.8 -2.6,1.5 -3.9,2.2z"/>
    <path class="fil14" d="M1740.6 1629.3c-12.1,-1.6 -24.1,-3.5 -36,-5.7l0 -13.1c11.9,2.2 23.9,4.1 36,5.6l0 13.2zm-55.1 -9.5c-12.2,-2.5 -24.2,-5.5 -36,-8.7l0 -13.1c11.8,3.2 23.8,6.1 36,8.7l0 13.1zm-55.1 -14.2c-12.3,-3.8 -24.3,-8 -36.1,-12.5l0 -13.1c11.8,4.5 23.8,8.7 36.1,12.4l0 13.2zm-55.2 -20.3c-12.4,-5.3 -24.4,-11.1 -36,-17.2l0 -13.2c11.6,6.2 23.6,12 36,17.3l0 13.1zm-55.1 -28.1c-13.1,-7.8 -25.1,-16 -36,-24.6l0 -13.1c10.9,8.6 22.9,16.8 36,24.6l0 13.1zm-55.2 -40.7c-14.2,-13.1 -26.2,-26.8 -36,-40.9l0 -13c9.8,14.1 21.8,27.8 36,40.8l0 13.1zm-55.1 -75.6c-8.9,-21.3 -12.9,-43.1 -12.1,-64.9 0.9,17.5 5,34.9 12.1,52l0 12.9z"/>
    <path class="fil15" d="M2150.8 1560.3l0 -13.1c11,-6.4 21.3,-13.1 30.9,-20l0 13.2c-9.6,6.8 -19.9,13.5 -30.9,19.9zm50 -34.7l0 -13.2c13.9,-11.5 25.9,-23.6 36.1,-36.1l0 13.1c-10.2,12.5 -22.2,24.6 -36.1,36.2zm55.2 -63.9l0 -13c13.6,-23.6 21.1,-48.1 22.4,-72.7 1,28.9 -6.4,58 -22.4,85.7z"/>
    <path class="fil15" d="M2236.9 1489.4l0 -13.1c7.3,-9 13.7,-18.2 19.1,-27.6l0 13c-5.4,9.4 -11.8,18.6 -19.1,27.7z"/>
    <path class="fil16" d="M1850.9 1635.4l0 -13.1c6.4,-0.1 12.7,-0.3 19.1,-0.6l0 13.2c-6.4,0.2 -12.7,0.4 -19.1,0.5zm-36 -0.2c-6.4,-0.2 -12.8,-0.5 -19.1,-0.9l0 -13.1c6.3,0.4 12.7,0.7 19.1,0.8l0 13.2zm91.1 -2.7l0 -13.1c6.4,-0.6 12.8,-1.3 19.1,-2l0 13.1c-6.3,0.8 -12.7,1.4 -19.1,2zm-146.3 -1c-5.7,-0.6 -11.5,-1.3 -17.2,-2l0 -13.1c5.7,0.7 11.5,1.4 17.2,2l0 13.1zm201.5 -6.1l0 -13.1c6.4,-1.1 12.7,-2.2 19.1,-3.5l0 13.2c-6.3,1.2 -12.7,2.4 -19.1,3.4zm55.1 -11.6l0 -13.1c6.4,-1.6 12.8,-3.3 19.1,-5.2l0 13.2c-6.3,1.8 -12.7,3.5 -19.1,5.1zm55.1 -16.8l0 -13.2c6.5,-2.3 12.8,-4.7 19.1,-7.3l0 13.2c-6.2,2.5 -12.6,4.9 -19.1,7.3zm55.2 -23.6l0 -13.1c6.5,-3.3 12.8,-6.7 19.1,-10.2l0 13.1c-6.3,3.6 -12.6,6.9 -19.1,10.2z"/>
    <path class="fil17" d="M1742.5 1629.5c-0.6,-0.1 -1.3,-0.2 -1.9,-0.2l0 -13.2c0.6,0.1 1.3,0.2 1.9,0.3l0 13.1zm-37.9 -5.9c-6.4,-1.2 -12.8,-2.4 -19.1,-3.8l0 -13.1c6.3,1.4 12.7,2.6 19.1,3.8l0 13.1zm-55.1 -12.5c-6.5,-1.7 -12.8,-3.6 -19.1,-5.5l0 -13.2c6.2,2 12.6,3.8 19.1,5.6l0 13.1zm-55.2 -18c-6.4,-2.5 -12.8,-5.1 -19.1,-7.8l0 -13.1c6.3,2.7 12.7,5.3 19.1,7.8l0 13.1zm-55.1 -25c-4.3,-2.3 -8.5,-4.7 -12.7,-7.1 -2.2,-1.2 -4.3,-2.5 -6.4,-3.8l0 -13.1c0.7,0.4 1.3,0.8 2,1.2 0,0 0.1,0.1 0.1,0.1 0.1,0 0.2,0.1 0.4,0.2 0,0 0,0 0.1,0.1 0.1,0 0.2,0.1 0.4,0.2 0,0 0,0 0.1,0.1 0.1,0 0.2,0.1 0.4,0.2 0,0 0,0 0.1,0.1 0.1,0 0.2,0.1 0.3,0.2 0.1,0 0.1,0 0.2,0.1 0.1,0 0.2,0.1 0.3,0.1 0.1,0.1 0.2,0.1 0.2,0.2 0.1,0 0.2,0.1 0.3,0.1 0.1,0.1 0.1,0.1 0.2,0.2 0.1,0 0.2,0.1 0.3,0.1 0.1,0.1 0.2,0.1 0.3,0.2 0.1,0 0.1,0.1 0.2,0.1 0.2,0.1 0.3,0.2 0.5,0.3l0 0c0.4,0.2 0.8,0.5 1.2,0.7 0.7,0.4 1.4,0.8 2.2,1.2 0,0.1 0.1,0.1 0.2,0.1 3,1.7 6,3.4 9.1,5l0 13.2zm-55.1 -35.5c-6.8,-5.2 -13.2,-10.6 -19.2,-16.1l0 -13.1c6,5.5 12.4,10.9 19.2,16.1l0 13.1z"/>
    <path class="fil15" d="M2181.7 1540.4l0 -13.2c0.1,0 0.2,-0.1 0.3,-0.2 0,0 0.1,0 0.1,-0.1 0.1,0 0.2,-0.1 0.2,-0.1 6.5,-4.7 12.7,-9.5 18.5,-14.4l0 13.2c-6,5 -12.4,9.9 -19.1,14.8z"/>
    <path class="fil17" d="M1428.9 1475.6c-7.8,-11.3 -14.2,-22.9 -19.1,-34.7l0 -12.9c4.9,11.8 11.3,23.3 19.1,34.6l0 13z"/>
    <path class="fil14" d="M1530.1 1549.9c-0.1,0 -0.2,0 -0.2,-0.1 0,0.1 0.1,0.1 0.2,0.1zm-2.4 -1.3c-0.4,-0.2 -0.8,-0.5 -1.2,-0.7 0.4,0.2 0.8,0.5 1.2,0.7zm-1.7 -1c-0.1,0 -0.1,-0.1 -0.2,-0.1 0.1,0 0.1,0.1 0.2,0.1zm-0.5 -0.3c-0.1,0 -0.2,-0.1 -0.3,-0.1 0.1,0 0.2,0.1 0.3,0.1zm-0.5 -0.3c-0.1,0 -0.2,-0.1 -0.3,-0.1 0.1,0 0.2,0.1 0.3,0.1zm-0.5 -0.3c-0.1,0 -0.2,-0.1 -0.3,-0.1 0.1,0 0.2,0.1 0.3,0.1zm-0.5 -0.2c-0.1,-0.1 -0.2,-0.2 -0.3,-0.2 0.1,0 0.2,0.1 0.3,0.2zm-0.4 -0.3c-0.2,-0.1 -0.3,-0.2 -0.4,-0.2 0.1,0 0.2,0.1 0.4,0.2zm-0.5 -0.3c-0.2,-0.1 -0.3,-0.2 -0.4,-0.2 0.1,0 0.2,0.1 0.4,0.2zm-0.5 -0.3c-0.2,-0.1 -0.3,-0.2 -0.4,-0.2 0.1,0 0.2,0.1 0.4,0.2zm-0.5 -0.3c-0.7,-0.4 -1.3,-0.8 -2,-1.2 -13.1,-7.8 -25.1,-16 -36,-24.6 -6.8,-5.2 -13.2,-10.6 -19.2,-16.1 -14.2,-13 -26.2,-26.7 -36,-40.8 -7.8,-11.3 -14.2,-22.8 -19.1,-34.6 -7.1,-17.1 -11.2,-34.5 -12.1,-52 0,-0.3 0,-0.7 0,-1.1 0.5,11.6 2.4,23.1 5.7,34.5 14.1,49.6 53.6,97.3 118.7,135.9zm659.9 -18.3c0,0 0.1,0 0.1,-0.1 0,0.1 -0.1,0.1 -0.1,0.1zm0.3 -0.2c61.7,-44.5 93.7,-98.2 96.1,-152.2 0,0.4 0,0.9 0,1.4 -1.3,24.6 -8.8,49.1 -22.4,72.7 -5.4,9.4 -11.8,18.6 -19.1,27.6 -10.2,12.5 -22.2,24.6 -36.1,36.1 -5.8,4.9 -12,9.7 -18.5,14.4z"/>
    <path class="fil18" d="M1403.4 1409.4c-3.3,-11.4 -5.2,-22.9 -5.7,-34.5 0,-0.1 0,-0.2 0,-0.3 0.5,11.6 2.4,23.3 5.7,34.8z"/>
    <path class="fil8" d="M2059.2 1495.7c-122.1,70.5 -320.2,70.5 -442.3,0 -122.2,-70.5 -122.2,-184.9 0,-255.4 122.1,-70.5 320.1,-70.5 442.3,0 122.1,70.6 122.1,184.9 0,255.4z"/>
    <path class="fil6" d="M1616.9 1256.8c122.1,-70.5 320.1,-70.5 442.3,0 57.4,33.2 87.8,76 91.2,119.5 3.9,-49 -26.5,-98.6 -91.2,-136 -122.2,-70.5 -320.2,-70.5 -442.3,0 -64.7,37.4 -95.1,87 -91.3,135.9 3.4,-43.4 33.8,-86.2 91.3,-119.4z"/>
    <path class="fil6" d="M1991.8 1282.8l-24.2 6.9 6.9 2.7 -23.7 13.7c-19.3,-9.5 -39.4,-14.1 -60,-14 -20.7,0.1 -39.9,5.3 -57.8,15.6 -7.2,4.1 -13,8.3 -17.4,12.6 -4.5,4.3 -7.6,8.8 -9.4,13.4 -1.7,4.6 -2.8,8.9 -3.1,12.8 -0.2,4 -0.1,8.6 0.6,13.9l2.8 22.1c0.8,6.3 1,11.4 0.6,15.4 -0.5,4.1 -2.3,8.3 -5.3,12.6 -3,4.3 -7.6,8.2 -13.9,11.9 -11.1,6.4 -21,7.1 -29.7,2.1 -6.6,-3.8 -8.3,-8.5 -5,-14.2 3.2,-5.7 12,-12.8 26.4,-21.3l0 -16.6 -20.8 7.8 -29.8 -12.6c-18.2,11.2 -29.9,21.7 -35.3,31.7l-3.4 -3.8 0 16.2 0.1 0c0.1,11.2 8.6,22.2 25.7,33l-11.8 6.8 -16 -7.3 0 16.5 14.3 8.3 28.1 -16.2c17.6,8.2 36.5,12 56.8,11.3 20.2,-0.6 38,-5.4 53.5,-14.3 7.7,-4.5 14,-9.2 19,-14.1 4.9,-5 8.4,-10.1 10.5,-15.4 2.1,-5.3 3.4,-10.3 3.9,-15.1 0.5,-4.8 0.5,-10.2 -0.1,-16.1l-2.3 -21.4c-0.4,-4.3 -0.6,-7.4 -0.6,-9.3 0,-2 0.3,-4.7 1.1,-8.1 0.7,-3.5 2.3,-6.6 4.8,-9.2 2.5,-2.7 5.9,-5.3 10.3,-7.9 4.5,-2.6 9.8,-4.3 15.9,-5 6,-0.8 11.3,0.1 15.9,2.6 2.3,1.2 4,2.5 5,3.9l0.8 2.7 -24.6 5.1 0 16.6 49.9 22.2c4.1,-2.5 7.8,-4.9 11,-7.2 3.2,-2.2 6.5,-4.9 10.1,-8 3.4,-3.2 6.2,-6.2 8.3,-9 2.1,-2.9 3.7,-6.2 4.8,-9.8 0.5,-1.7 0.7,-3.3 0.8,-4.9l0 -0.1 0 -17.4 -6.3 1.3 -0.3 -0.3c-3.2,-3.9 -7.6,-7.7 -13.3,-11.4l26.2 -15.2 0 -16.5z"/>
    <path class="fil7" d="M1688.3 1444.2l27.8 -16.1c-19,-12 -27.5,-24.2 -25.5,-36.7 2,-12.4 14.8,-25.9 38.4,-40.4l50.6 21.4c-14.4,8.5 -23.2,15.6 -26.4,21.3 -3.3,5.7 -1.6,10.5 5,14.3 8.7,5 18.6,4.3 29.7,-2.2 6.3,-3.6 10.9,-7.6 13.9,-11.9 3,-4.3 4.8,-8.5 5.3,-12.5 0.4,-4.1 0.2,-9.2 -0.6,-15.5l-2.8 -22.1c-0.7,-5.3 -0.8,-9.9 -0.5,-13.8 0.2,-3.9 1.3,-8.2 3,-12.8 1.8,-4.7 4.9,-9.1 9.4,-13.4 4.4,-4.3 10.2,-8.5 17.4,-12.7 17.9,-10.3 37.1,-15.5 57.8,-15.6 20.6,-0.1 40.7,4.6 60,14l26.4 -15.2 14.6 8.5 -26.2 15.1c5.7,3.7 10.1,7.5 13.3,11.4 3.2,3.9 5.3,7.5 6.1,10.9 0.9,3.4 0.7,6.9 -0.3,10.5 -1.1,3.7 -2.7,6.9 -4.8,9.8 -2.1,2.9 -4.9,5.9 -8.3,9 -3.6,3.2 -6.9,5.8 -10.1,8.1 -3.2,2.2 -6.9,4.6 -11,7.2l-49.9 -22.3c3.8,-2.3 6.9,-4.2 9.3,-5.8 2.4,-1.5 4.9,-3.2 7.4,-5.1 2.5,-1.9 4.4,-3.5 5.5,-4.9 1.1,-1.4 1.9,-2.9 2.3,-4.4 0.5,-1.5 0.2,-2.9 -0.7,-4.2 -1,-1.3 -2.7,-2.6 -5,-3.8 -4.6,-2.6 -9.9,-3.5 -15.9,-2.7 -6.1,0.7 -11.4,2.4 -15.9,5.1 -4.4,2.5 -7.8,5.1 -10.3,7.8 -2.5,2.7 -4.1,5.8 -4.8,9.2 -0.8,3.5 -1.1,6.2 -1.1,8.1 0,2 0.2,5.1 0.6,9.4l2.3 21.3c0.6,5.9 0.6,11.3 0.1,16.1 -0.5,4.8 -1.8,9.8 -3.9,15.2 -2.1,5.2 -5.6,10.4 -10.5,15.3 -5,4.9 -11.3,9.6 -19,14.1 -15.5,8.9 -33.3,13.7 -53.5,14.4 -20.3,0.7 -39.2,-3.1 -56.8,-11.3l-28.1 16.2 -14.3 -8.3z"/>
   </g>
   <g id="_1013944432">
    <path class="fil6" d="M2273.1 1256l-17.9 0c-20.1,-39.5 -57.2,-76.8 -111.1,-107.9 -172.1,-99.4 -451.1,-99.4 -623.1,0 -54,31.1 -91,68.4 -111.2,107.9l-17.9 0 0 72c0,65.1 43,130.2 129.1,179.8 172,99.4 451,99.4 623.1,0 86,-49.6 129,-114.7 129,-179.8l0 -72z"/>
    <path class="fil7" d="M1737 1079.7c-79.2,10.1 -154.5,32.8 -216,68.4 -54,31.1 -91,68.4 -111.2,107.9l-17.9 0 0 72c0,65.1 43,130.2 129.1,179.8 61.5,35.6 136.8,58.3 216,68.4l0 -496.5z"/>
    <path class="fil8" d="M2145.3 1507.1c85.2,-49.6 127.8,-114.4 127.8,-179.1l0 -72 -17.9 0c-17.2,-33.7 -46.7,-65.7 -88.5,-93.7l-21.4 0 0 344.8z"/>
    <path class="fil8" d="M2231.3 1436.2l0 -58.8c7.4,-9.1 13.7,-18.3 19.1,-27.7l0 58.8c-5.4,9.4 -11.7,18.6 -19.1,27.7z"/>
    <path class="fil9" d="M1792.7 1581.3c-0.8,0 -1.7,-0.1 -2.5,-0.1l0 0c0.9,0 1.6,0.1 2.5,0.1z"/>
    <path class="fil10" d="M1845.4 1582.1l0 -58.7c6.4,-0.1 12.7,-0.3 19.1,-0.6l0 58.8c-6.4,0.3 -12.7,0.5 -19.1,0.5zm-36.1 -0.1c-5.5,-0.2 -11.1,-0.4 -16.6,-0.7 -0.9,0 -1.6,-0.1 -2.5,-0.1l0 -58.9c6.4,0.4 12.8,0.7 19.1,0.8l0 58.9zm91.2 -2.7l0 -58.8c6.4,-0.6 12.8,-1.3 19.1,-2l0 58.8c-6.3,0.7 -12.7,1.4 -19.1,2zm-146.3 -1.1c-6.4,-0.6 -12.8,-1.4 -19.1,-2.2l0 0c0.6,0.1 1.2,0.2 1.9,0.2l0 -58.7c5.7,0.7 11.4,1.4 17.2,2l0 58.7zm201.4 -6l0 -58.8c6.5,-1.1 12.8,-2.2 19.2,-3.5l0 58.8c-6.4,1.3 -12.7,2.4 -19.2,3.5zm55.2 -11.6l0 -58.8c6.4,-1.6 12.8,-3.4 19.1,-5.2l0 58.8c-6.3,1.8 -12.7,3.5 -19.1,5.2zm-366.9 -2.7c-4.2,-1.2 -8.3,-2.4 -12.5,-3.6 4.2,1.2 8.3,2.4 12.5,3.6l0 0zm422 -14.2l0 -58.8c6.5,-2.3 12.8,-4.7 19.1,-7.3l0 58.8c-6.2,2.5 -12.6,4.9 -19.1,7.3zm55.2 -23.6l0 -58.7c6.5,-3.3 12.8,-6.7 19.1,-10.2l0 58.8c-6.3,3.5 -12.7,6.8 -19.1,10.1z"/>
    <path class="fil11" d="M1737 1576.2c-0.7,0 -1.3,-0.1 -1.9,-0.2l0 -58.8c0.6,0.1 1.2,0.2 1.9,0.3l0 58.7zm-37.9 -5.8c-6.4,-1.2 -12.8,-2.5 -19.1,-3.8l0 -58.8c6.3,1.4 12.7,2.6 19.1,3.8l0 58.8zm-55.2 -12.5c-4.2,-1.2 -8.3,-2.4 -12.5,-3.6 -2.2,-0.6 -4.4,-1.3 -6.6,-2l0 -58.8c6.3,2 12.7,3.8 19.1,5.6l0 58.8zm-55.1 -18c-6.5,-2.5 -12.8,-5.1 -19.1,-7.8l0 -58.8c6.3,2.7 12.6,5.3 19.1,7.8l0 58.8zm-55.1 -25.1c-4.1,-2.2 -8.2,-4.4 -12.1,-6.6 -0.2,-0.2 -0.4,-0.3 -0.6,-0.4l0 0c-2.2,-1.2 -4.3,-2.6 -6.4,-3.9l0 -58.7c2.1,1.3 4.2,2.5 6.4,3.8 4.1,2.4 8.4,4.7 12.7,7l0 58.8zm-55.2 -35.4c-6.8,-5.3 -13.1,-10.7 -19.1,-16.2l0 -58.7c6,5.5 12.4,10.9 19.1,16.1l0 58.8zm55.2 -36.5c-4.3,-2.3 -8.6,-4.6 -12.7,-7 -2.2,-1.3 -4.3,-2.5 -6.4,-3.8l0 0c2.1,1.3 4.2,2.5 6.4,3.8 4.1,2.4 8.4,4.7 12.7,7l0 0z"/>
    <path class="fil8" d="M2176.2 1487.1l0 -58.8c6.7,-4.8 13.1,-9.7 19.1,-14.8l0 58.7c-6,5.1 -12.4,10.1 -19.1,14.9z"/>
    <path class="fil11" d="M1423.4 1422.5c-7.8,-11.3 -14.2,-22.9 -19.1,-34.6l0 -59c4.9,11.7 11.2,23.4 19.1,34.7l0 58.9z"/>
    <path class="fil7" d="M2144.1 1435.9c-172.1,99.3 -451.1,99.3 -623.1,0 -172.1,-99.4 -172.1,-260.4 0,-359.8 172,-99.3 451,-99.3 623.1,0 172,99.4 172,260.4 0,359.8z"/>
    <path class="fil12" d="M1538.2 1369.6c-40.4,-4.4 -79.9,-12.1 -117.4,-23 -12,-18.2 -20.2,-37.1 -24.7,-56.2 -2.2,-9.3 -3.5,-18.5 -3.9,-27.9 0,0.1 0,0.2 0,0.3 -1.6,-34.4 8.8,-68.9 31.2,-101.4l0 36.9c0,61.4 38.3,122.8 114.8,171.3z"/>
    <path class="fil13" d="M1832.5 1523.5c-7.7,0 -15.4,-0.1 -23.2,-0.4l0 -13.1c7.8,0.3 15.5,0.4 23.2,0.4 4.3,0 8.6,-0.1 12.9,-0.1l0 13.1c-4.3,0.1 -8.6,0.1 -12.9,0.1zm32 -0.7l0 -13.1c12,-0.5 24.1,-1.3 36,-2.3l0 13.1c-11.9,1 -24,1.8 -36,2.3zm-74.3 -0.5c-12,-0.6 -24,-1.6 -36,-2.8l0 -13.1c11.9,1.2 24,2.1 36,2.8l0 13.1zm129.4 -3.8l0 -13.1c12.1,-1.4 24.2,-3.1 36,-5.1l0 13.1c-11.8,2 -23.9,3.7 -36,5.1zm55.2 -8.6l0 -13.1c12.1,-2.4 24.1,-5.1 36,-8.1l0 13.1c-11.9,3 -23.9,5.7 -36,8.1zm55.1 -13.3l0 -13.1c12.2,-3.5 24.3,-7.4 36,-11.7l0 13.1c-11.7,4.3 -23.8,8.2 -36,11.7zm55.1 -19l0 -13.1c12.4,-5 24.4,-10.4 36.1,-16.2l0 13.1c-11.7,5.8 -23.7,11.2 -36.1,16.2zm55.2 -26.4l0 -13.1c1.3,-0.7 2.6,-1.5 3.9,-2.2 0.1,-0.1 0.3,-0.2 0.5,-0.3 0,0 0,0 0,0 0.1,-0.1 0.3,-0.2 0.5,-0.3 0,0 0.1,-0.1 0.1,-0.1 0,0 0,0 0.1,0l0 13.1c-0.4,0.2 -0.8,0.5 -1.2,0.7 -1.3,0.7 -2.6,1.5 -3.9,2.2z"/>
    <path class="fil14" d="M1735.1 1517.2c-12.1,-1.5 -24.1,-3.4 -36,-5.6l0 -13.1c11.9,2.2 23.9,4 36,5.6l0 13.1zm-55.1 -9.4c-12.2,-2.6 -24.2,-5.5 -36.1,-8.7l0 -13.1c11.9,3.2 23.9,6.1 36.1,8.7l0 13.1zm-55.2 -14.3c-12.2,-3.8 -24.3,-7.9 -36,-12.4l0 -13.1c11.7,4.5 23.7,8.6 36,12.4l0 13.1zm-55.1 -20.2c-12.4,-5.3 -24.4,-11.1 -36,-17.3l0 -13.1c11.6,6.2 23.6,12 36,17.3l0 13.1zm-55.1 -28.1c-13.1,-7.8 -25.1,-16.1 -36.1,-24.6l0 -13.1c6.6,5.1 13.6,10.2 21,15 0,0.1 0,0.1 0.1,0.1 0.1,0.1 0.2,0.2 0.3,0.2 0,0.1 0.1,0.1 0.2,0.1 0,0.1 0.1,0.2 0.2,0.2 0.1,0.1 0.2,0.1 0.3,0.2 0,0 0.1,0 0.1,0.1 0.1,0.1 0.3,0.1 0.4,0.2l0 0c4.4,2.9 8.9,5.7 13.5,8.5l0 13.1zm-55.2 -40.7c-14.3,-13.1 -26.3,-26.8 -36,-40.9l0 -13c9.7,14 21.7,27.7 36,40.8l0 13.1zm-55.1 -75.6c-8.9,-21.3 -12.9,-43.2 -12.2,-65 1,17.5 5,35 12.2,52.1l0 12.9z"/>
    <path class="fil15" d="M2145.3 1448.3l0 -13.1c0.1,-0.1 0.1,-0.1 0.3,-0.2 0,0 0.1,-0.1 0.2,-0.1 0,-0.1 0.2,-0.1 0.2,-0.2 0.1,0 0.2,-0.1 0.3,-0.1 0.1,0 0.1,-0.1 0.2,-0.2 0.1,0 0.2,0 0.3,-0.1 0,0 0.1,-0.1 0.2,-0.1 0.1,-0.1 0.2,-0.1 0.3,-0.2 0.1,0 0.1,-0.1 0.2,-0.1 0.1,-0.1 0.2,-0.2 0.3,-0.2 0.1,0 0.1,-0.1 0.2,-0.1 0.1,-0.1 0.2,-0.1 0.3,-0.2 0.1,0 0.1,-0.1 0.2,-0.1 0.1,-0.1 0.2,-0.1 0.3,-0.2 0,0 0.1,0 0.1,-0.1 0.2,0 0.3,-0.1 0.4,-0.2 0,0 0.1,0 0.1,-0.1 0.1,0 0.3,-0.1 0.4,-0.2 0,0 0,0 0.1,0 0.1,-0.1 0.3,-0.2 0.4,-0.3l0 0c9.1,-5.5 17.8,-11.2 25.9,-17l0 13.1c-9.6,6.9 -19.9,13.6 -30.9,20zm50 -34.8l0 -13.1c13.9,-11.5 25.9,-23.6 36,-36.1l0 13.1c-10.1,12.4 -22.1,24.5 -36,36.1zm55.1 -63.8l0 -13c6.4,-11 11.4,-22.2 15.1,-33.5 1.7,-2.2 3.3,-4.3 4.9,-6.5 -3.3,17.9 -10,35.7 -20,53z"/>
    <path class="fil15" d="M2231.3 1377.4l0 -13.1c7.4,-9 13.7,-18.2 19.1,-27.6l0 13c-5.4,9.4 -11.7,18.6 -19.1,27.7z"/>
    <path class="fil16" d="M1845.4 1523.4l0 -13.1c6.3,-0.1 12.7,-0.3 19.1,-0.6l0 13.1c-6.4,0.3 -12.7,0.5 -19.1,0.6zm-36.1 -0.3c-6.3,-0.1 -12.7,-0.4 -19.1,-0.8l0 -13.1c6.4,0.4 12.8,0.6 19.1,0.8l0 13.1zm91.2 -2.6l0 -13.1c6.4,-0.6 12.8,-1.3 19.1,-2l0 13.1c-6.3,0.7 -12.7,1.4 -19.1,2zm-146.3 -1c-5.8,-0.6 -11.5,-1.3 -17.2,-2l0 -13.1c5.7,0.7 11.4,1.3 17.2,2l0 13.1zm201.4 -6.1l0 -13.1c6.5,-1.1 12.8,-2.2 19.2,-3.5l0 13.1c-6.4,1.3 -12.7,2.4 -19.2,3.5zm55.2 -11.6l0 -13.1c6.4,-1.6 12.8,-3.4 19.1,-5.2l0 13.1c-6.3,1.8 -12.7,3.6 -19.1,5.2zm55.1 -16.9l0 -13.1c6.5,-2.3 12.8,-4.7 19.1,-7.3l0 13.1c-6.3,2.6 -12.6,5 -19.1,7.3zm55.2 -23.5l0 -13.1c6.5,-3.3 12.8,-6.7 19.1,-10.2l0 13.1c-6.3,3.5 -12.6,6.9 -19.1,10.2z"/>
    <path class="fil17" d="M1737 1517.5c-0.7,-0.1 -1.3,-0.2 -1.9,-0.3l0 -13.1c0.6,0.1 1.2,0.2 1.9,0.3l0 13.1zm-37.9 -5.9c-6.4,-1.2 -12.8,-2.4 -19.1,-3.8l0 -13.1c6.3,1.4 12.7,2.6 19.1,3.8l0 13.1zm-55.2 -12.5c-6.4,-1.8 -12.8,-3.6 -19.1,-5.6l0 -13.1c6.3,2 12.7,3.8 19.1,5.6l0 13.1zm-55.1 -18c-6.5,-2.5 -12.8,-5.1 -19.1,-7.8l0 -13.1c6.3,2.7 12.6,5.3 19.1,7.8l0 13.1zm-55.1 -25.1c-4.3,-2.3 -8.6,-4.6 -12.7,-7 -2.2,-1.3 -4.3,-2.5 -6.4,-3.8l0 -13.1c2.1,1.3 4.2,2.5 6.4,3.8 4.1,2.4 8.4,4.7 12.7,7l0 13.1zm-55.2 -35.4c-6.7,-5.2 -13.1,-10.6 -19.1,-16.1l0 -13.1c6,5.5 12.4,10.9 19.1,16.1l0 13.1z"/>
    <path class="fil15" d="M2176.2 1428.3l0 -13.1c6.7,-4.8 13.1,-9.7 19.1,-14.8l0 13.1c-6,5.1 -12.4,10 -19.1,14.8z"/>
    <path class="fil17" d="M1423.4 1363.6c-7.9,-11.3 -14.2,-23 -19.1,-34.7l0 -12.9c4.9,11.7 11.3,23.3 19.1,34.6l0 13z"/>
    <path class="fil14" d="M2144.6 1435.6c0,0 0,0 0,0 0,0 0,0 0,0zm0.5 -0.3c0,0 0.1,-0.1 0.1,-0.1 0,0 -0.1,0.1 -0.1,0.1zm0.5 -0.3c0,0 0.1,-0.1 0.2,-0.1 -0.1,0 -0.2,0.1 -0.2,0.1zm0.4 -0.3c0.1,0 0.2,-0.1 0.3,-0.1 -0.1,0 -0.2,0.1 -0.3,0.1zm0.5 -0.3c0.1,0 0.2,0 0.3,-0.1 -0.1,0.1 -0.2,0.1 -0.3,0.1zm0.5 -0.2c0.1,-0.1 0.2,-0.1 0.3,-0.2 -0.1,0.1 -0.2,0.1 -0.3,0.2zm0.5 -0.3c0.1,-0.1 0.2,-0.1 0.3,-0.2 -0.1,0 -0.2,0.1 -0.3,0.2zm0.5 -0.3c0.1,-0.1 0.2,-0.1 0.3,-0.2 -0.1,0.1 -0.2,0.1 -0.3,0.2zm0.5 -0.3c0.1,-0.1 0.2,-0.1 0.3,-0.2 -0.1,0.1 -0.2,0.1 -0.3,0.2zm0.4 -0.3c0.2,0 0.3,-0.1 0.4,-0.2 -0.1,0.1 -0.2,0.2 -0.4,0.2zm0.5 -0.3c0.1,0 0.3,-0.1 0.4,-0.2 -0.1,0.1 -0.3,0.2 -0.4,0.2zm0.5 -0.2c0.1,-0.1 0.3,-0.2 0.4,-0.3 -0.1,0.1 -0.3,0.2 -0.4,0.3zm0.4 -0.3c61.4,-36.9 99.7,-81.8 115,-128.8 0.1,-0.1 0.2,-0.1 0.2,-0.2 -3.7,11.3 -8.7,22.5 -15.1,33.5 -5.4,9.4 -11.7,18.6 -19.1,27.6 -10.1,12.5 -22.1,24.6 -36,36.1 -6,5.1 -12.4,10 -19.1,14.8 -8.1,5.8 -16.8,11.5 -25.9,17zm-649.2 -8.6l0 0 0 0zm-0.4 -0.2c0,-0.1 -0.1,-0.1 -0.1,-0.1 0,0 0.1,0 0.1,0.1zm-0.4 -0.3c-0.1,0 -0.2,-0.1 -0.2,-0.2 0.1,0.1 0.1,0.2 0.2,0.2zm-0.4 -0.3c-0.1,0 -0.2,-0.1 -0.3,-0.2 0.1,0.1 0.2,0.2 0.3,0.2zm-0.4 -0.3c-7.4,-4.8 -14.4,-9.9 -21,-15 -6.7,-5.2 -13.1,-10.6 -19.1,-16.1 -14.3,-13.1 -26.3,-26.8 -36,-40.8 -7.8,-11.3 -14.2,-22.9 -19.1,-34.6 -7.2,-17.1 -11.2,-34.6 -12.2,-52.1 0,-0.4 0.1,-0.7 0.1,-1.1 0.4,9.2 1.7,18.4 3.9,27.6 11.1,47.6 45.5,93.7 103.4,132.1z"/>
    <path class="fil18" d="M1396.1 1290.4c-2.2,-9.2 -3.5,-18.4 -3.9,-27.6 0,-0.1 0,-0.2 0,-0.3 0.4,9.4 1.7,18.6 3.9,27.9z"/>
    <path class="fil8" d="M2053.7 1383.7c-122.2,70.5 -320.2,70.5 -442.3,0 -122.2,-70.5 -122.2,-184.9 0,-255.4 122.1,-70.5 320.1,-70.5 442.3,0 122.1,70.5 122.1,184.9 0,255.4z"/>
    <path class="fil6" d="M1611.4 1144.8c122.1,-70.5 320.1,-70.5 442.3,0 57.4,33.2 87.8,76 91.2,119.5 3.9,-49 -26.5,-98.6 -91.2,-136 -122.2,-70.5 -320.2,-70.5 -442.3,0 -64.7,37.4 -95.1,87 -91.3,135.9 3.4,-43.4 33.8,-86.2 91.3,-119.4z"/>
    <path class="fil6" d="M1986.3 1170.7l-24.2 7 6.9 2.7 -23.7 13.7c-19.4,-9.5 -39.4,-14.2 -60,-14.1 -20.7,0.1 -39.9,5.4 -57.8,15.7 -7.2,4.1 -13,8.3 -17.5,12.6 -4.4,4.3 -7.5,8.8 -9.3,13.4 -1.8,4.6 -2.8,8.9 -3.1,12.8 -0.3,3.9 -0.1,8.6 0.6,13.9l2.8 22.1c0.8,6.2 1,11.4 0.5,15.4 -0.4,4.1 -2.2,8.2 -5.2,12.6 -3,4.3 -7.6,8.2 -13.9,11.8 -11.2,6.5 -21.1,7.2 -29.7,2.2 -6.6,-3.8 -8.3,-8.6 -5,-14.2 3.2,-5.7 12,-12.8 26.3,-21.3l0 -16.6 -20.7 7.8 -29.8 -12.7c-18.2,11.3 -30,21.8 -35.3,31.8l-3.4 -3.8 0 16.2 0.1 0c0.1,11.2 8.5,22.1 25.6,33l-11.7 6.8 -16 -7.4 0 16.6 14.3 8.3 28.1 -16.2c17.6,8.2 36.5,12 56.7,11.3 20.3,-0.6 38.1,-5.4 53.5,-14.4 7.8,-4.4 14.1,-9.1 19,-14.1 5,-4.9 8.5,-10 10.6,-15.3 2.1,-5.3 3.4,-10.4 3.9,-15.2 0.5,-4.8 0.5,-10.1 -0.1,-16l-2.4 -21.4c-0.3,-4.3 -0.5,-7.4 -0.5,-9.3 0,-2 0.3,-4.7 1,-8.1 0.7,-3.5 2.3,-6.6 4.9,-9.3 2.4,-2.7 5.9,-5.2 10.3,-7.8 4.5,-2.6 9.8,-4.3 15.9,-5.1 6,-0.7 11.3,0.2 15.9,2.7 2.3,1.2 4,2.5 4.9,3.8l0.9 2.8 -24.7 5.1 0 16.6 50 22.2c4.1,-2.6 7.8,-5 11,-7.2 3.2,-2.2 6.5,-4.9 10,-8 3.5,-3.2 6.3,-6.2 8.4,-9.1 2.1,-2.8 3.7,-6.1 4.7,-9.7 0.5,-1.7 0.8,-3.3 0.9,-5l0 0 0 -17.4 -6.3 1.3 -0.3 -0.4c-3.2,-3.9 -7.6,-7.7 -13.3,-11.4l26.2 -15.1 0 -16.6z"/>
    <path class="fil7" d="M1682.8 1332.1l27.7 -16c-19,-12 -27.4,-24.3 -25.4,-36.7 2,-12.4 14.8,-25.9 38.4,-40.4l50.5 21.4c-14.3,8.5 -23.1,15.6 -26.3,21.3 -3.3,5.7 -1.6,10.4 5,14.2 8.6,5.1 18.5,4.3 29.7,-2.1 6.3,-3.6 10.9,-7.6 13.9,-11.9 3,-4.3 4.8,-8.5 5.2,-12.5 0.5,-4.1 0.3,-9.2 -0.5,-15.5l-2.8 -22.1c-0.7,-5.3 -0.9,-9.9 -0.6,-13.8 0.3,-4 1.3,-8.2 3.1,-12.9 1.8,-4.6 4.9,-9 9.3,-13.3 4.5,-4.3 10.3,-8.6 17.5,-12.7 17.9,-10.3 37.1,-15.5 57.8,-15.6 20.6,-0.1 40.6,4.5 60,14l26.4 -15.2 14.6 8.4 -26.2 15.2c5.7,3.7 10.1,7.5 13.3,11.4 3.2,3.9 5.3,7.5 6.1,10.9 0.8,3.4 0.7,6.9 -0.4,10.5 -1,3.6 -2.6,6.9 -4.7,9.8 -2.1,2.8 -4.9,5.9 -8.4,9 -3.5,3.1 -6.8,5.8 -10,8.1 -3.2,2.2 -6.9,4.6 -11,7.2l-50 -22.3c3.9,-2.3 7,-4.2 9.4,-5.8 2.4,-1.5 4.9,-3.3 7.4,-5.1 2.5,-1.9 4.3,-3.6 5.4,-5 1.1,-1.3 2,-2.8 2.4,-4.3 0.5,-1.5 0.2,-2.9 -0.8,-4.2 -0.9,-1.4 -2.6,-2.6 -4.9,-3.9 -4.6,-2.5 -9.9,-3.4 -15.9,-2.6 -6.1,0.7 -11.4,2.4 -15.9,5 -4.4,2.6 -7.9,5.2 -10.3,7.9 -2.6,2.7 -4.2,5.7 -4.9,9.2 -0.7,3.5 -1,6.2 -1,8.1 0,1.9 0.2,5 0.5,9.4l2.4 21.3c0.6,5.9 0.6,11.3 0.1,16.1 -0.5,4.8 -1.8,9.8 -3.9,15.1 -2.1,5.3 -5.6,10.4 -10.6,15.4 -4.9,4.9 -11.2,9.6 -19,14.1 -15.4,8.9 -33.2,13.7 -53.5,14.4 -20.2,0.6 -39.1,-3.1 -56.7,-11.4l-28.1 16.2 -14.3 -8.3z"/>
    <path class="fil6" d="M2304.6 1126.3l-17.9 0c-20.2,-39.5 -57.2,-76.7 -111.2,-107.9 -172,-99.3 -451,-99.3 -623.1,0 -54,31.2 -91,68.4 -111.1,107.9l-17.9 0 0 72c0,65.1 43,130.2 129,179.9 172.1,99.3 451.1,99.3 623.2,0 86,-49.7 129,-114.8 129,-179.9l0 -72z"/>
    <path class="fil7" d="M1768.4 950c-79.1,10.1 -154.4,32.8 -216,68.4 -54,31.2 -91,68.4 -111.1,107.9l-17.9 0 0 72c0,65.1 43,130.2 129,179.9 61.6,35.5 136.9,58.2 216,68.4l0 -496.6z"/>
    <path class="fil8" d="M2176.7 1377.4c85.2,-49.6 127.9,-114.3 127.9,-179.1l0 -72 -17.9 0c-17.2,-33.7 -46.7,-65.7 -88.5,-93.7l-21.5 0 0 344.8z"/>
    <path class="fil8" d="M2262.8 1306.5l0 -58.8c7.4,-9.1 13.7,-18.3 19.1,-27.7l0 58.8c-5.4,9.4 -11.7,18.7 -19.1,27.7z"/>
    <path class="fil10" d="M1876.9 1452.5l0 -58.8c6.3,-0.1 12.7,-0.3 19.1,-0.5l0 58.7c-6.4,0.3 -12.8,0.5 -19.1,0.6zm-36.1 -0.2c-6.3,-0.2 -12.7,-0.5 -19.1,-0.8l0 -58.8c6.4,0.3 12.8,0.6 19.1,0.8l0 58.8zm91.2 -2.7l0 -58.8c6.4,-0.6 12.8,-1.2 19.1,-2l0 58.8c-6.3,0.8 -12.7,1.4 -19.1,2zm-146.3 -1c-6.4,-0.7 -12.8,-1.4 -19.1,-2.3l0 0c0.6,0.1 1.2,0.2 1.8,0.3l0 -58.8c5.8,0.7 11.5,1.4 17.3,2l0 58.8zm201.4 -6.1l0 -58.8c6.4,-1 12.8,-2.2 19.1,-3.4l0 58.7c-6.3,1.3 -12.7,2.5 -19.1,3.5zm55.2 -11.6l0 -58.8c6.4,-1.6 12.7,-3.3 19.1,-5.2l0 58.8c-6.3,1.8 -12.7,3.6 -19.1,5.2zm-366.9 -2.7c-1.1,-0.3 -2.2,-0.6 -3.4,-0.9 1.2,0.3 2.3,0.6 3.4,0.9l0 0zm422 -14.2l0 -58.7c6.4,-2.4 12.8,-4.8 19.1,-7.3l0 58.7c-6.3,2.5 -12.6,5 -19.1,7.3zm-477.1 -3.8c-0.2,0 -0.3,-0.1 -0.5,-0.1 0.2,0 0.3,0.1 0.5,0.1l0 0zm532.2 -19.8l0 -58.7c6.5,-3.3 12.9,-6.6 19.1,-10.2l0 58.8c-6.2,3.5 -12.6,6.9 -19.1,10.1zm-275.6 -9.8l0 0c6.3,-0.1 12.7,-0.3 19.1,-0.6l0 0c-6.4,0.3 -12.8,0.5 -19.1,0.6zm-36.1 -0.3c-6.3,-0.1 -12.7,-0.4 -19.1,-0.8l0 0c6.4,0.4 12.8,0.7 19.1,0.8l0 0zm91.2 -2.6l0 0c6.4,-0.6 12.8,-1.3 19.1,-2l0 0c-6.4,0.8 -12.7,1.4 -19.1,2zm-146.3 -1c-5.8,-0.6 -11.5,-1.3 -17.3,-2l0 0c5.8,0.7 11.5,1.4 17.3,2l0 0zm201.4 -6.1l0 0c6.4,-1.1 12.8,-2.2 19.1,-3.5l0 0c-6.3,1.3 -12.7,2.4 -19.1,3.5zm55.2 -11.6l0 0c6.4,-1.6 12.7,-3.3 19.1,-5.2l0 0c-6.3,1.9 -12.7,3.6 -19.1,5.2zm55.1 -16.8l0 -0.1c6.4,-2.3 12.8,-4.7 19.1,-7.3l0 0c-6.3,2.6 -12.6,5 -19.1,7.4zm55.1 -23.6l0 0c6.5,-3.3 12.9,-6.7 19.1,-10.2l0 0c-6.2,3.5 -12.6,6.9 -19.1,10.2z"/>
    <g>
     <path class="fil11" d="M1768.4 1446.6c-0.6,-0.1 -1.2,-0.2 -1.8,-0.3l0 -58.8c0.6,0.1 1.2,0.2 1.8,0.3l0 58.8zm-37.8 -5.9c-6.5,-1.2 -12.8,-2.4 -19.2,-3.8l0 -58.7c6.4,1.3 12.7,2.5 19.2,3.7l0 58.8zm-55.2 -12.5c-1.1,-0.3 -2.2,-0.6 -3.4,-0.9 -5.3,-1.5 -10.5,-3.1 -15.7,-4.6l0 -58.8c6.3,1.9 12.7,3.8 19.1,5.5l0 58.8 0 0zm-55.1 -18c-0.2,0 -0.3,-0.1 -0.5,-0.1 -6.3,-2.5 -12.5,-5 -18.6,-7.7l0 -58.8c6.3,2.7 12.6,5.3 19.1,7.8l0 58.8zm-55.2 -25.1c-4.2,-2.3 -8.5,-4.6 -12.7,-6.9l0 0c-2.2,-1.3 -4.2,-2.7 -6.4,-4l0 -58.7c2.2,1.3 4.3,2.6 6.4,3.8 4.2,2.4 8.5,4.8 12.7,7.1l0 58.7zm203.3 -10.4c-0.6,-0.1 -1.2,-0.2 -1.8,-0.3l0 0c0.6,0.1 1.2,0.2 1.8,0.3l0 0zm-37.8 -5.9c-6.4,-1.2 -12.8,-2.4 -19.2,-3.8l0 0c6.4,1.4 12.7,2.6 19.2,3.8l0 0zm-55.2 -12.5c-6.4,-1.8 -12.8,-3.6 -19.1,-5.6l0 0c6.3,2 12.7,3.8 19.1,5.6l0 0zm-165.4 -6.6c-6.8,-5.2 -13.1,-10.7 -19.1,-16.2l0 -58.7c6,5.5 12.3,10.9 19.1,16.1l0 58.8zm110.3 -11.4c-6.5,-2.5 -12.9,-5.1 -19.1,-7.8l0 0c6.3,2.7 12.6,5.3 19.1,7.8l0 0zm-55.2 -25.1c-3,-1.6 -6.1,-3.3 -9.1,-5 3,1.7 6.1,3.4 9.1,5l0 0zm-9.3 -5.1c-0.7,-0.4 -1.4,-0.8 -2.2,-1.2 0.8,0.4 1.5,0.8 2.2,1.2zm-3.4 -1.9l0 0c-0.1,-0.1 -0.3,-0.2 -0.5,-0.3 0.2,0.1 0.4,0.2 0.5,0.3l0 0zm-0.6 -0.4c-0.1,-0.1 -0.2,-0.1 -0.3,-0.2 0.1,0.1 0.2,0.2 0.3,0.2zm-0.6 -0.3c-0.1,-0.1 -0.2,-0.1 -0.2,-0.2 0,0.1 0.1,0.1 0.2,0.2zm-0.5 -0.3c-0.1,-0.1 -0.2,-0.1 -0.2,-0.1 0,0 0.1,0 0.2,0.1zm-0.5 -0.3c-0.1,-0.1 -0.2,-0.1 -0.2,-0.1 0,0 0.1,0 0.2,0.1zm-0.5 -0.3c-0.1,-0.1 -0.1,-0.1 -0.2,-0.1 0.1,0 0.1,0 0.2,0.1zm-0.6 -0.3c0,-0.1 0,-0.1 -0.1,-0.1 0.1,0 0.1,0 0.1,0.1zm-0.5 -0.3c0,-0.1 0,-0.1 0,-0.1 0,0 0,0.1 0,0.1zm-0.5 -0.3c0,0 0,0 0,0l0 0z"/>
    </g>
    <path class="fil8" d="M2207.7 1357.4l0 -58.7c6.7,-4.9 13.1,-9.8 19.1,-14.8l0 58.7c-6.1,5 -12.4,10 -19.1,14.8zm0 -71.8l0 0c0.1,-0.1 0.2,-0.2 0.3,-0.3 -0.1,0.1 -0.2,0.2 -0.3,0.3zm0.4 -0.4c0.1,0 0.1,-0.1 0.2,-0.1 -0.1,0.1 -0.1,0.1 -0.2,0.1z"/>
    <path class="fil11" d="M1454.9 1292.8c-7.9,-11.3 -14.2,-22.9 -19.1,-34.6l0 -59c4.9,11.8 11.2,23.4 19.1,34.8l0 58.8z"/>
    <path class="fil7" d="M2175.6 1306.2c-172.1,99.3 -451.1,99.3 -623.2,0 -172,-99.3 -172,-260.4 0,-359.8 172.1,-99.3 451.1,-99.3 623.1,0 172.1,99.4 172.1,260.5 0.1,359.8z"/>
    <path class="fil19" d="M1548.7 948.6c0,0 0,0 0.1,0 -0.1,0 -0.1,0 -0.1,0zm0.4 -0.2c0,0 0,0 0.1,-0.1 -0.1,0.1 -0.1,0.1 -0.1,0.1zm1 -0.6c0.1,0 0.1,-0.1 0.2,-0.1 -0.1,0 -0.1,0.1 -0.2,0.1zm0.4 -0.2c0.1,-0.1 0.2,-0.1 0.3,-0.2 -0.1,0.1 -0.2,0.1 -0.3,0.2zm0.6 -0.3c0,-0.1 0.2,-0.2 0.3,-0.2 -0.1,0 -0.3,0.1 -0.3,0.2zm0.4 -0.3c0.1,-0.1 0.2,-0.1 0.3,-0.2 -0.1,0.1 -0.2,0.1 -0.3,0.2zm0.5 -0.3c0.1,-0.1 0.3,-0.2 0.4,-0.3 -0.1,0.1 -0.3,0.2 -0.4,0.3zm0.4 -0.3c0.2,0 0.4,-0.2 0.6,-0.3 -0.2,0.1 -0.4,0.3 -0.6,0.3z"/>
    <path class="fil12" d="M1651.3 1244.3c-68.3,0 -136.6,-9.2 -199,-27.4 -10.5,-16 -18.2,-32.5 -22.9,-49.2 -3.3,-11.5 -5.2,-23.2 -5.7,-34.8 0,0.1 0,0.2 0,0.3 -3.2,-66.4 38.5,-133.4 125,-184.6 0,0 0,0 0.1,0 0.1,-0.1 0.2,-0.1 0.3,-0.2 0,0 0,0 0.1,-0.1 0.3,-0.1 0.6,-0.3 0.9,-0.5 0.1,0 0.1,-0.1 0.2,-0.1 0.1,-0.1 0.1,-0.1 0.2,-0.1 0.1,-0.1 0.2,-0.1 0.3,-0.2 0.1,0 0.1,-0.1 0.3,-0.1 0,-0.1 0.2,-0.2 0.3,-0.2 0,-0.1 0.1,-0.1 0.1,-0.1 0.1,-0.1 0.2,-0.1 0.3,-0.2 0.1,0 0.1,-0.1 0.2,-0.1 0.1,-0.1 0.3,-0.2 0.4,-0.3l0 0c0.2,0 0.4,-0.2 0.6,-0.3 85.9,-49.4 198.4,-74.1 310.8,-74.1 68.3,0 136.6,9.1 199,27.3 59.9,90.8 26.6,197.4 -100.1,270.5 -86,49.6 -198.7,74.5 -311.4,74.5z"/>
    <path class="fil13" d="M1864 1393.8c-7.7,0 -15.4,-0.1 -23.2,-0.3l0 -13.2c7.8,0.3 15.5,0.4 23.2,0.4 4.3,0 8.6,0 12.9,-0.1l0 13.1c-4.3,0.1 -8.6,0.1 -12.9,0.1zm32 -0.6l0 -13.2c12,-0.5 24,-1.3 36,-2.3l0 13.1c-12,1.1 -24,1.9 -36,2.4zm-74.3 -0.5c-12,-0.7 -24,-1.7 -36,-2.9l0 -13.1c12,1.2 24,2.2 36,2.8l0 13.2zm129.4 -3.9l0 -13.1c12.1,-1.4 24.1,-3.1 36,-5.1l0 13.1c-11.9,2 -23.9,3.7 -36,5.1zm55.1 -8.5l0 -13.2c12.2,-2.3 24.2,-5 36.1,-8.1l0 13.1c-11.9,3.1 -23.9,5.8 -36.1,8.2zm55.2 -13.4l0 -13.1c12.2,-3.5 24.3,-7.4 36,-11.6l0 13.1c-11.7,4.2 -23.8,8.1 -36,11.6zm55.1 -18.9l0 -13.2c12.4,-5 24.4,-10.4 36,-16.2l0 13.1c-11.6,5.8 -23.6,11.3 -36,16.3zm55.1 -26.5l0 -13.1c1.4,-0.7 2.7,-1.4 4,-2.2 0.3,-0.2 0.8,-0.4 1.1,-0.7l0 13.1c-0.3,0.3 -0.8,0.5 -1.1,0.7 -1.3,0.8 -2.6,1.5 -4,2.2z"/>
    <path class="fil14" d="M1766.6 1387.5c-12.1,-1.5 -24.2,-3.4 -36,-5.6l0 -13.1c11.8,2.2 23.9,4.1 36,5.6l0 13.1zm-55.2 -9.3c-12.1,-2.6 -24.2,-5.6 -36,-8.8l0 -13.1c11.8,3.2 23.8,6.1 36,8.7l0 13.2zm-55.1 -14.3c-12.3,-3.8 -24.3,-8 -36,-12.5l0 -13.1c11.7,4.5 23.7,8.7 36,12.4l0 13.2zm-55.1 -20.3c-12.4,-5.3 -24.5,-11.1 -36.1,-17.2l0 -13.2c11.6,6.2 23.7,12 36.1,17.3l0 13.1zm-55.2 -28.1c-13,-7.8 -25,-16 -36,-24.6l0 -13.1c11,8.6 23,16.8 36,24.6l0 13.1zm-55.1 -40.7c-14.3,-13.1 -26.3,-26.8 -36,-40.8l0 -13.1c9.7,14.1 21.7,27.8 36,40.8l0 13.1zm-55.1 -75.6c-8.9,-21.3 -12.9,-43.1 -12.2,-64.9 1,17.5 5,34.9 12.2,52l0 12.9z"/>
    <path class="fil15" d="M2176.7 1318.6l0 -13.1c11.1,-6.4 21.4,-13.1 31,-19.9l0 13.1c-9.6,6.8 -19.9,13.5 -31,19.9zm50.1 -34.7l0 -13.1c13.8,-11.6 25.9,-23.7 36,-36.2l0 13.1c-10.1,12.5 -22.1,24.6 -36,36.2zm55.1 -63.9l0 -12.9c13.7,-23.7 21.2,-48.2 22.5,-72.8 1,28.9 -6.5,58 -22.5,85.7z"/>
    <path class="fil15" d="M2262.8 1247.7l0 -13.1c7.4,-9 13.7,-18.2 19.1,-27.5l0 12.9c-5.4,9.4 -11.7,18.6 -19.1,27.7z"/>
    <path class="fil16" d="M1876.9 1393.7l0 -13.1c6.3,-0.1 12.7,-0.3 19.1,-0.6l0 13.2c-6.4,0.2 -12.8,0.4 -19.1,0.5zm-36.1 -0.2c-6.3,-0.2 -12.7,-0.5 -19.1,-0.8l0 -13.2c6.4,0.4 12.8,0.7 19.1,0.8l0 13.2zm91.2 -2.7l0 -13.1c6.4,-0.6 12.7,-1.2 19.1,-2l0 13.1c-6.3,0.8 -12.7,1.4 -19.1,2zm-146.3 -1c-5.8,-0.6 -11.5,-1.3 -17.3,-2l0 -13.1c5.8,0.7 11.5,1.4 17.3,2l0 13.1zm201.4 -6.1l0 -13.1c6.4,-1.1 12.8,-2.2 19.1,-3.5l0 13.2c-6.3,1.2 -12.7,2.4 -19.1,3.4zm55.2 -11.6l0 -13.1c6.4,-1.6 12.8,-3.3 19.1,-5.2l0 13.1c-6.4,1.9 -12.7,3.6 -19.1,5.2zm55.1 -16.8l0 -13.1c6.5,-2.4 12.8,-4.8 19.1,-7.4l0 13.2c-6.3,2.5 -12.7,4.9 -19.1,7.3zm55.1 -23.6l0 -13.1c6.5,-3.3 12.9,-6.7 19.1,-10.2l0 13.1c-6.2,3.6 -12.6,6.9 -19.1,10.2z"/>
    <path class="fil17" d="M1768.4 1387.8c-0.6,-0.1 -1.2,-0.2 -1.8,-0.3l0 -13.1c0.6,0.1 1.2,0.2 1.8,0.3l0 13.1zm-37.8 -5.9c-6.5,-1.2 -12.8,-2.4 -19.2,-3.7l0 -13.2c6.4,1.4 12.8,2.6 19.2,3.8l0 13.1zm-55.2 -12.5c-6.4,-1.7 -12.8,-3.6 -19.1,-5.5l0 -13.2c6.3,2 12.7,3.8 19.1,5.6l0 13.1zm-55.1 -18c-6.5,-2.5 -12.8,-5.1 -19.1,-7.8l0 -13.1c6.2,2.7 12.6,5.3 19.1,7.8l0 13.1zm-55.2 -25c-4.2,-2.3 -8.5,-4.7 -12.7,-7.1 -2.1,-1.2 -4.2,-2.5 -6.4,-3.8l0 -13.1c0.7,0.4 1.4,0.8 2.1,1.3 0,0 0,0 0,0 0.2,0 0.3,0.1 0.5,0.2 0,0 0,0 0,0.1 0.2,0 0.3,0.1 0.4,0.2 0.1,0 0.1,0 0.1,0.1 0.2,0 0.3,0.1 0.4,0.2 0.1,0 0.1,0 0.2,0.1 0.1,0 0.2,0.1 0.3,0.2 0,0 0.1,0 0.2,0.1 0.1,0 0.2,0.1 0.3,0.2 0,0 0.1,0 0.2,0.1 0.1,0 0.2,0.1 0.3,0.1 0,0.1 0.1,0.1 0.2,0.2 0.1,0 0.2,0.1 0.3,0.1 0.1,0.1 0.2,0.1 0.3,0.2 0,0 0.1,0.1 0.1,0.1 0.2,0.1 0.4,0.2 0.5,0.3l0 0c0.4,0.2 0.8,0.5 1.2,0.7 0.8,0.4 1.5,0.8 2.2,1.2 0.1,0.1 0.2,0.1 0.2,0.1 3,1.7 6.1,3.4 9.1,5l0 13.2zm-55.1 -35.5c-6.8,-5.2 -13.1,-10.6 -19.1,-16.1l0 -13.1c6,5.5 12.3,10.9 19.1,16.1l0 13.1z"/>
    <path class="fil15" d="M2207.7 1298.7l0 -13.1c0.1,-0.1 0.2,-0.2 0.3,-0.3 0,0 0,0 0.1,-0.1 0.1,0 0.1,0 0.2,-0.1 6.5,-4.7 12.6,-9.5 18.5,-14.3l0 13.1c-6,5 -12.4,9.9 -19.1,14.8z"/>
    <path class="fil17" d="M1454.9 1234c-7.9,-11.4 -14.2,-23 -19.1,-34.8l0 -12.9c4.9,11.8 11.2,23.3 19.1,34.6l0 13.1z"/>
    <path class="fil14" d="M1556 1308.2c0,0 -0.1,0 -0.2,-0.1 0.1,0.1 0.2,0.1 0.2,0.1zm-2.4 -1.3c-0.4,-0.2 -0.8,-0.5 -1.2,-0.7 0.4,0.2 0.8,0.5 1.2,0.7zm-1.7 -1c0,0 -0.1,-0.1 -0.1,-0.1 0,0 0.1,0.1 0.1,0.1zm-0.4 -0.3c-0.1,0 -0.2,-0.1 -0.3,-0.1 0.1,0 0.2,0.1 0.3,0.1zm-0.5 -0.3c-0.1,0 -0.2,-0.1 -0.3,-0.1 0.1,0 0.2,0.1 0.3,0.1zm-0.5 -0.2c-0.1,-0.1 -0.2,-0.2 -0.3,-0.2 0.1,0 0.2,0.1 0.3,0.2zm-0.5 -0.3c-0.1,-0.1 -0.2,-0.2 -0.3,-0.2 0.1,0 0.2,0.1 0.3,0.2zm-0.5 -0.3c-0.1,-0.1 -0.2,-0.2 -0.4,-0.2 0.2,0 0.3,0.1 0.4,0.2zm-0.5 -0.3c-0.1,-0.1 -0.2,-0.2 -0.4,-0.2 0.2,0 0.3,0.1 0.4,0.2zm-0.4 -0.3c-0.2,-0.1 -0.3,-0.2 -0.5,-0.2 0.2,0 0.3,0.1 0.5,0.2zm-0.5 -0.2c-0.7,-0.5 -1.4,-0.9 -2.1,-1.3 -13,-7.8 -25,-16 -36,-24.6 -6.8,-5.2 -13.1,-10.6 -19.1,-16.1 -14.3,-13 -26.3,-26.7 -36,-40.8 -7.9,-11.3 -14.2,-22.8 -19.1,-34.6 -7.2,-17.1 -11.2,-34.5 -12.2,-52 0,-0.3 0,-0.7 0.1,-1.1 0.5,11.6 2.4,23.1 5.7,34.5 14,49.6 53.5,97.3 118.7,136zm659.9 -18.4c0,0 0,0 0.1,-0.1 -0.1,0.1 -0.1,0.1 -0.1,0.1zm0.3 -0.2c61.7,-44.5 93.6,-98.2 96,-152.2 0,0.5 0.1,0.9 0.1,1.4 -1.3,24.6 -8.8,49.1 -22.5,72.8 -5.4,9.3 -11.7,18.5 -19.1,27.5 -10.1,12.5 -22.2,24.6 -36,36.2 -5.9,4.8 -12,9.6 -18.5,14.3z"/>
    <path class="fil18" d="M1429.4 1167.7c-3.3,-11.4 -5.2,-22.9 -5.7,-34.5 0,-0.1 0,-0.2 0,-0.3 0.5,11.6 2.4,23.3 5.7,34.8z"/>
    <path class="fil8" d="M2085.1 1254c-122.1,70.5 -320.1,70.5 -442.2,0 -122.2,-70.5 -122.2,-184.8 0,-255.4 122.1,-70.5 320.1,-70.5 442.2,0 122.2,70.6 122.2,184.9 0,255.4z"/>
    <path class="fil6" d="M1642.9 1015.1c122.1,-70.5 320.1,-70.5 442.2,0 57.5,33.2 87.9,76.1 91.3,119.5 3.9,-49 -26.6,-98.6 -91.3,-136 -122.1,-70.5 -320.1,-70.5 -442.2,0 -64.8,37.4 -95.2,87 -91.3,135.9 3.4,-43.4 33.8,-86.2 91.3,-119.4z"/>
    <path class="fil6" d="M2017.8 1041.1l-24.2 6.9 6.8 2.7 -23.6 13.7c-19.4,-9.5 -39.4,-14.1 -60,-14 -20.7,0.1 -40,5.3 -57.8,15.6 -7.2,4.1 -13,8.4 -17.5,12.7 -4.4,4.2 -7.6,8.7 -9.3,13.3 -1.8,4.6 -2.8,8.9 -3.1,12.8 -0.3,4 -0.1,8.6 0.6,13.9l2.8 22.1c0.8,6.3 1,11.4 0.5,15.5 -0.4,4 -2.2,8.2 -5.2,12.5 -3.1,4.3 -7.7,8.3 -13.9,11.9 -11.2,6.4 -21.1,7.1 -29.8,2.1 -6.5,-3.8 -8.2,-8.5 -5,-14.2 3.3,-5.7 12.1,-12.8 26.4,-21.3l0 -16.6 -20.7 7.8 -29.8 -12.6c-18.3,11.2 -30,21.7 -35.3,31.7l-3.4 -3.8 0 16.2 0 0c0.1,11.2 8.6,22.2 25.7,33l-11.8 6.8 -16 -7.3 0 16.5 14.4 8.3 28.1 -16.2c17.5,8.3 36.5,12 56.7,11.4 20.2,-0.7 38.1,-5.5 53.5,-14.4 7.8,-4.5 14.1,-9.2 19,-14.1 5,-5 8.4,-10.1 10.6,-15.4 2,-5.3 3.3,-10.3 3.8,-15.1 0.6,-4.8 0.5,-10.2 0,-16.1l-2.4 -21.4c-0.3,-4.3 -0.6,-7.4 -0.5,-9.3 -0.1,-2 0.3,-4.7 1,-8.1 0.7,-3.5 2.3,-6.6 4.8,-9.2 2.5,-2.7 6,-5.3 10.4,-7.9 4.5,-2.6 9.8,-4.3 15.9,-5 6,-0.8 11.3,0.1 15.9,2.6 2.3,1.3 4,2.5 4.9,3.9l0.9 2.7 -24.7 5.1 0 16.6 50 22.3c4.1,-2.6 7.7,-5 11,-7.3 3.2,-2.2 6.5,-4.9 10,-8 3.5,-3.2 6.3,-6.2 8.4,-9 2.1,-2.9 3.6,-6.2 4.7,-9.8 0.5,-1.7 0.8,-3.3 0.8,-4.9l0.1 -0.1 0 -17.4 -6.4 1.3 -0.2 -0.3c-3.2,-3.9 -7.7,-7.7 -13.3,-11.4l26.2 -15.2 0 -16.5z"/>
    <path class="fil7" d="M1714.2 1202.5l27.8 -16.1c-19,-12 -27.5,-24.2 -25.5,-36.7 2,-12.4 14.8,-25.9 38.5,-40.4l50.5 21.4c-14.3,8.5 -23.1,15.6 -26.4,21.3 -3.2,5.7 -1.5,10.5 5,14.3 8.7,5 18.6,4.2 29.8,-2.2 6.2,-3.6 10.8,-7.5 13.9,-11.9 3,-4.3 4.8,-8.5 5.2,-12.5 0.5,-4 0.3,-9.2 -0.5,-15.5l-2.8 -22.1c-0.7,-5.3 -0.9,-9.9 -0.6,-13.8 0.3,-4 1.3,-8.2 3.1,-12.8 1.7,-4.7 4.9,-9.1 9.3,-13.4 4.5,-4.3 10.3,-8.5 17.5,-12.7 17.8,-10.3 37.1,-15.5 57.8,-15.6 20.6,-0.1 40.6,4.6 60,14l26.4 -15.2 14.6 8.5 -26.2 15.1c5.6,3.7 10.1,7.5 13.3,11.4 3.2,3.9 5.2,7.6 6.1,10.9 0.8,3.4 0.7,6.9 -0.4,10.5 -1.1,3.7 -2.6,6.9 -4.7,9.8 -2.1,2.9 -4.9,5.9 -8.4,9 -3.5,3.2 -6.8,5.9 -10,8.1 -3.3,2.2 -6.9,4.6 -11,7.2l-50 -22.3c3.8,-2.3 7,-4.2 9.4,-5.8 2.4,-1.5 4.9,-3.2 7.4,-5.1 2.5,-1.9 4.3,-3.5 5.4,-4.9 1.1,-1.4 1.9,-2.9 2.4,-4.4 0.5,-1.5 0.2,-2.9 -0.8,-4.2 -0.9,-1.3 -2.6,-2.6 -4.9,-3.8 -4.6,-2.6 -9.9,-3.4 -15.9,-2.7 -6.1,0.7 -11.4,2.4 -15.9,5.1 -4.4,2.5 -7.9,5.1 -10.4,7.8 -2.5,2.7 -4.1,5.8 -4.8,9.2 -0.7,3.5 -1.1,6.2 -1,8.1 -0.1,1.9 0.2,5.1 0.5,9.4l2.4 21.3c0.5,5.9 0.6,11.3 0,16.1 -0.5,4.8 -1.8,9.9 -3.8,15.2 -2.2,5.2 -5.6,10.4 -10.6,15.3 -4.9,5 -11.2,9.7 -19,14.1 -15.4,8.9 -33.3,13.7 -53.5,14.4 -20.2,0.7 -39.2,-3.1 -56.7,-11.3l-28.1 16.2 -14.4 -8.3z"/>
   </g>
   <g>
    <path class="fil6" d="M2261.7 990.1l-17.9 0c-20.1,-39.5 -57.1,-76.8 -111.1,-108 -172.1,-99.3 -451.1,-99.3 -623.1,0 -54,31.2 -91,68.5 -111.2,108l-17.9 0 0 71.9c0,65.1 43,130.2 129.1,179.9 172,99.3 451,99.4 623.1,0 86,-49.7 129,-114.8 129,-179.9l0 -71.9z"/>
    <path class="fil7" d="M1725.6 813.7c-79.2,10.1 -154.5,32.9 -216,68.4 -54,31.2 -91,68.5 -111.2,108l-17.9 0 0 71.9c0,65.1 43,130.2 129.1,179.9 61.5,35.6 136.8,58.3 216,68.4l0 -496.6z"/>
    <path class="fil8" d="M2133.9 1241.2c85.2,-49.6 127.8,-114.4 127.8,-179.2l0 -71.9 -17.9 0c-17.1,-33.7 -46.7,-65.7 -88.5,-93.7l-21.4 0 0 344.8z"/>
    <path class="fil8" d="M2219.9 1170.3l0 -58.9c7.4,-9 13.7,-18.2 19.1,-27.6l0 58.8c-5.4,9.4 -11.7,18.6 -19.1,27.7z"/>
    <path class="fil9" d="M1781.3 1315.4c-0.8,-0.1 -1.6,-0.1 -2.5,-0.2l0 0c0.9,0.1 1.7,0.1 2.5,0.2z"/>
    <path class="fil10" d="M1834 1316.2l0 -58.7c6.4,-0.1 12.7,-0.3 19.1,-0.6l0 58.8c-6.4,0.2 -12.7,0.4 -19.1,0.5zm-36 -0.2c-5.6,-0.1 -11.2,-0.3 -16.7,-0.6 -0.8,-0.1 -1.6,-0.1 -2.5,-0.2l0 -58.8c6.4,0.4 12.8,0.6 19.2,0.8l0 58.8zm91.1 -2.7l0 -58.7c6.4,-0.6 12.8,-1.3 19.1,-2l0 58.8c-6.3,0.7 -12.7,1.4 -19.1,1.9zm-146.3 -1c-6.4,-0.6 -12.8,-1.4 -19.1,-2.2l0 0c0.6,0 1.3,0.1 1.9,0.2l0 -58.8c5.7,0.8 11.5,1.4 17.2,2l0 58.8zm201.5 -6l0 -58.8c6.4,-1.1 12.7,-2.3 19.1,-3.5l0 58.8c-6.4,1.2 -12.7,2.4 -19.1,3.5zm55.1 -11.6l0 -58.8c6.4,-1.6 12.8,-3.4 19.1,-5.2l0 58.8c-6.3,1.8 -12.7,3.5 -19.1,5.2zm-366.9 -2.7c-4.2,-1.2 -8.3,-2.4 -12.5,-3.6 4.2,1.2 8.3,2.4 12.5,3.6l0 0zm422 -14.2l0 -58.8c6.5,-2.3 12.9,-4.8 19.1,-7.3l0 58.7c-6.2,2.6 -12.6,5 -19.1,7.4zm55.2 -23.6l0 -58.8c6.5,-3.2 12.8,-6.6 19.1,-10.1l0 58.7c-6.3,3.6 -12.6,6.9 -19.1,10.2z"/>
    <path class="fil11" d="M1725.6 1310.3c-0.6,-0.1 -1.3,-0.2 -1.9,-0.2l0 -58.8c0.6,0.1 1.3,0.2 1.9,0.2l0 58.8zm-37.9 -5.9c-6.4,-1.1 -12.8,-2.4 -19.1,-3.7l0 -58.8c6.3,1.3 12.7,2.6 19.1,3.8l0 58.7zm-55.2 -12.4c-4.2,-1.2 -8.3,-2.4 -12.5,-3.6 -2.2,-0.7 -4.4,-1.3 -6.6,-2l0 -58.8c6.4,2 12.7,3.8 19.1,5.6l0 58.8zm-55.1 -18c-6.5,-2.5 -12.8,-5.1 -19.1,-7.8l0 -58.8c6.3,2.7 12.7,5.3 19.1,7.8l0 58.8zm-55.1 -25.1c-4.1,-2.2 -8.2,-4.4 -12.1,-6.6 -0.2,-0.2 -0.4,-0.3 -0.6,-0.4l0 0c-2.2,-1.3 -4.3,-2.6 -6.4,-3.9l0 -58.7c2.1,1.3 4.2,2.5 6.4,3.8 4.1,2.4 8.4,4.7 12.7,7l0 58.8zm-55.2 -35.4c-6.7,-5.3 -13.1,-10.7 -19.1,-16.2l0 -58.7c6,5.5 12.4,10.8 19.1,16.1l0 58.8zm55.2 -36.5c-4.3,-2.3 -8.6,-4.7 -12.7,-7.1 -2.2,-1.2 -4.3,-2.5 -6.4,-3.7l0 0c2.1,1.2 4.2,2.5 6.4,3.7 4.1,2.4 8.4,4.8 12.7,7.1l0 0z"/>
    <path class="fil8" d="M2164.8 1221.2l0 -58.8c6.7,-4.8 13.1,-9.8 19.1,-14.8l0 58.7c-6,5.1 -12.4,10 -19.1,14.9z"/>
    <path class="fil11" d="M1412 1156.5c-7.8,-11.3 -14.2,-22.8 -19.1,-34.5l0 -59c4.9,11.7 11.3,23.3 19.1,34.7l0 58.8z"/>
    <path class="fil7" d="M2132.7 1170c-172.1,99.3 -451.1,99.3 -623.1,-0.1 -172.1,-99.3 -172.1,-260.4 0,-359.7 172,-99.3 451,-99.3 623.1,0 172,99.4 172,260.4 0,359.8z"/>
    <path class="fil12" d="M1526.8 1103.6c-40.4,-4.3 -79.9,-12 -117.4,-22.9 -12,-18.3 -20.2,-37.1 -24.7,-56.2 -2.2,-9.3 -3.5,-18.6 -3.9,-27.9 0,0.1 0,0.2 0,0.3 -1.6,-34.4 8.8,-69 31.2,-101.4l0 36.8c0,61.5 38.3,122.9 114.8,171.3z"/>
    <path class="fil13" d="M1821.1 1257.6c-7.7,0 -15.4,-0.1 -23.1,-0.4l0 -13.1c7.7,0.2 15.4,0.3 23.2,0.3 4.2,0 8.5,0 12.8,0l0 13.1c-4.3,0 -8.6,0.1 -12.9,0.1zm32 -0.7l0 -13.1c12,-0.5 24.1,-1.3 36,-2.4l0 13.2c-11.9,1 -24,1.8 -36,2.3zm-74.3 -0.5c-12,-0.7 -24,-1.6 -36,-2.9l0 -13.1c12,1.3 24,2.2 36,2.9l0 13.1zm129.4 -3.8l0 -13.1c12.1,-1.4 24.2,-3.1 36.1,-5.1l0 13.1c-11.9,2 -24,3.7 -36.1,5.1zm55.2 -8.6l0 -13.1c12.1,-2.4 24.2,-5.1 36,-8.1l0 13.1c-11.8,3 -23.9,5.7 -36,8.1zm55.1 -13.3l0 -13.1c12.2,-3.6 24.3,-7.5 36,-11.7l0 13.1c-11.7,4.3 -23.8,8.1 -36,11.7zm55.1 -19l0 -13.1c12.4,-5 24.4,-10.4 36.1,-16.3l0 13.1c-11.7,5.9 -23.7,11.3 -36.1,16.3zm55.2 -26.4l0 -13.1c1.3,-0.8 2.6,-1.5 3.9,-2.2 0.1,-0.1 0.3,-0.2 0.5,-0.3 0,0 0,0 0,0 0.1,-0.1 0.3,-0.2 0.5,-0.3 0,-0.1 0.1,-0.1 0.1,-0.1 0.1,0 0.1,0 0.1,-0.1l0 13.2c-0.4,0.2 -0.8,0.4 -1.2,0.7 -1.3,0.7 -2.6,1.5 -3.9,2.2z"/>
    <path class="fil14" d="M1723.7 1251.3c-12.1,-1.6 -24.1,-3.4 -36,-5.6l0 -13.1c11.9,2.1 23.9,4 36,5.6l0 13.1zm-55.1 -9.4c-12.2,-2.6 -24.2,-5.5 -36.1,-8.7l0 -13.2c11.9,3.3 23.9,6.2 36.1,8.8l0 13.1zm-55.2 -14.3c-12.2,-3.8 -24.2,-7.9 -36,-12.4l0 -13.2c11.8,4.6 23.8,8.7 36,12.5l0 13.1zm-55.1 -20.2c-12.4,-5.3 -24.4,-11.1 -36,-17.3l0 -13.1c11.6,6.2 23.6,11.9 36,17.3l0 13.1zm-55.1 -28.1c-13.1,-7.9 -25.1,-16.1 -36.1,-24.6l0 -13.1c6.6,5.1 13.6,10.1 21,15 0,0.1 0.1,0.1 0.1,0.1 0.1,0.1 0.2,0.1 0.3,0.2 0.1,0.1 0.1,0.1 0.2,0.1 0.1,0.1 0.1,0.1 0.2,0.2 0.1,0 0.2,0.1 0.3,0.2 0,0 0.1,0 0.1,0 0.2,0.1 0.3,0.2 0.4,0.3l0 0c4.4,2.9 8.9,5.7 13.5,8.5l0 13.1zm-55.2 -40.7c-14.3,-13.1 -26.3,-26.8 -36,-40.9l0 -13.1c9.7,14.1 21.7,27.8 36,40.9l0 13.1zm-55.1 -75.6c-8.9,-21.4 -12.9,-43.2 -12.2,-65 1,17.5 5,34.9 12.2,52l0 13z"/>
    <path class="fil15" d="M2133.9 1182.4l0 -13.2c0.1,0 0.2,-0.1 0.3,-0.1 0,-0.1 0.1,-0.1 0.2,-0.1 0.1,-0.1 0.2,-0.1 0.2,-0.2 0.1,0 0.2,-0.1 0.3,-0.1 0.1,-0.1 0.1,-0.1 0.2,-0.2 0.1,0 0.2,-0.1 0.3,-0.1 0,-0.1 0.1,-0.1 0.2,-0.2 0.1,0 0.2,-0.1 0.3,-0.1 0.1,-0.1 0.1,-0.1 0.2,-0.1 0.1,-0.1 0.2,-0.2 0.3,-0.2 0.1,-0.1 0.1,-0.1 0.2,-0.1 0.1,-0.1 0.2,-0.2 0.3,-0.2 0.1,-0.1 0.1,-0.1 0.2,-0.1 0.1,-0.1 0.2,-0.2 0.3,-0.2 0.1,0 0.1,-0.1 0.1,-0.1 0.2,-0.1 0.3,-0.2 0.4,-0.2 0.1,0 0.1,-0.1 0.1,-0.1 0.1,-0.1 0.3,-0.1 0.4,-0.2 0,0 0.1,-0.1 0.1,-0.1 0.1,-0.1 0.3,-0.1 0.4,-0.2l0 0c9.2,-5.5 17.8,-11.2 25.9,-17l0 13.1c-9.6,6.9 -19.9,13.6 -30.9,20zm50 -34.8l0 -13.1c13.9,-11.6 25.9,-23.7 36,-36.1l0 13c-10.1,12.5 -22.1,24.6 -36,36.2zm55.1 -63.8l0 -13c6.4,-11 11.4,-22.2 15.1,-33.5 1.7,-2.2 3.3,-4.4 4.9,-6.6 -3.3,18 -10,35.8 -20,53.1z"/>
    <path class="fil15" d="M2219.9 1111.4l0 -13c7.4,-9.1 13.7,-18.2 19.1,-27.6l0 13c-5.4,9.4 -11.7,18.6 -19.1,27.6z"/>
    <path class="fil16" d="M1834 1257.5l0 -13.1c6.3,-0.2 12.7,-0.3 19.1,-0.6l0 13.1c-6.4,0.3 -12.7,0.5 -19.1,0.6zm-36 -0.3c-6.4,-0.2 -12.8,-0.4 -19.2,-0.8l0 -13.1c6.4,0.3 12.8,0.6 19.2,0.8l0 13.1zm91.1 -2.6l0 -13.2c6.4,-0.6 12.8,-1.2 19.1,-1.9l0 13.1c-6.3,0.7 -12.7,1.4 -19.1,2zm-146.3 -1.1c-5.7,-0.6 -11.5,-1.2 -17.2,-2l0 -13.1c5.7,0.8 11.4,1.4 17.2,2l0 13.1zm201.5 -6l0 -13.1c6.4,-1.1 12.7,-2.3 19.1,-3.5l0 13.1c-6.4,1.2 -12.7,2.4 -19.1,3.5zm55.1 -11.6l0 -13.1c6.4,-1.7 12.8,-3.4 19.1,-5.2l0 13.1c-6.3,1.8 -12.7,3.6 -19.1,5.2zm55.1 -16.9l0 -13.1c6.5,-2.3 12.9,-4.8 19.1,-7.3l0 13.1c-6.2,2.5 -12.6,5 -19.1,7.3zm55.2 -23.6l0 -13.1c6.5,-3.2 12.8,-6.6 19.1,-10.1l0 13.1c-6.3,3.5 -12.6,6.9 -19.1,10.1z"/>
    <path class="fil17" d="M1725.6 1251.5c-0.6,0 -1.3,-0.1 -1.9,-0.2l0 -13.1c0.6,0.1 1.3,0.1 1.9,0.2l0 13.1zm-37.9 -5.8c-6.4,-1.2 -12.8,-2.5 -19.1,-3.8l0 -13.1c6.3,1.3 12.7,2.6 19.1,3.8l0 13.1zm-55.2 -12.5c-6.4,-1.8 -12.7,-3.6 -19.1,-5.6l0 -13.1c6.3,1.9 12.7,3.8 19.1,5.5l0 13.2zm-55.1 -18c-6.4,-2.5 -12.8,-5.1 -19.1,-7.8l0 -13.1c6.3,2.7 12.7,5.3 19.1,7.7l0 13.2zm-55.1 -25.1c-4.3,-2.3 -8.6,-4.6 -12.7,-7 -2.2,-1.3 -4.3,-2.5 -6.4,-3.8l0 -13.1c2.1,1.2 4.2,2.5 6.4,3.7 4.1,2.4 8.4,4.8 12.7,7.1l0 13.1zm-55.2 -35.4c-6.7,-5.3 -13.1,-10.6 -19.1,-16.1l0 -13.1c6,5.5 12.4,10.8 19.1,16.1l0 13.1z"/>
    <path class="fil15" d="M2164.8 1162.4l0 -13.1c6.7,-4.8 13.1,-9.8 19.1,-14.8l0 13.1c-6,5 -12.4,10 -19.1,14.8z"/>
    <path class="fil17" d="M1412 1097.7c-7.8,-11.4 -14.2,-23 -19.1,-34.7l0 -13c4.9,11.8 11.3,23.3 19.1,34.6l0 13.1z"/>
    <path class="fil14" d="M2133.2 1169.7c0,0 0,0 0,0 0,0 0,0 0,0zm0.5 -0.3c0,-0.1 0.1,-0.1 0.1,-0.1 0,0 -0.1,0 -0.1,0.1zm0.5 -0.3c0,-0.1 0.1,-0.1 0.2,-0.1 -0.1,0 -0.2,0 -0.2,0.1zm0.4 -0.3c0.1,0 0.2,-0.1 0.3,-0.1 -0.1,0 -0.2,0.1 -0.3,0.1zm0.5 -0.3c0.1,0 0.2,-0.1 0.3,-0.1 -0.1,0 -0.2,0.1 -0.3,0.1zm0.5 -0.3c0.1,0 0.2,-0.1 0.3,-0.1 -0.1,0 -0.2,0.1 -0.3,0.1zm0.5 -0.2c0.1,-0.1 0.2,-0.2 0.3,-0.2 -0.1,0 -0.2,0.1 -0.3,0.2zm0.5 -0.3c0.1,-0.1 0.2,-0.2 0.3,-0.2 -0.1,0 -0.2,0.1 -0.3,0.2zm0.5 -0.3c0.1,-0.1 0.2,-0.2 0.3,-0.2 -0.1,0 -0.2,0.1 -0.3,0.2zm0.4 -0.3c0.2,-0.1 0.3,-0.2 0.4,-0.2 -0.1,0 -0.2,0.1 -0.4,0.2zm0.5 -0.3c0.1,-0.1 0.3,-0.1 0.4,-0.2 -0.1,0.1 -0.3,0.1 -0.4,0.2zm0.5 -0.3c0.1,-0.1 0.3,-0.1 0.4,-0.2 -0.1,0.1 -0.3,0.1 -0.4,0.2zm0.4 -0.2c61.4,-36.9 99.7,-81.8 115,-128.8 0.1,-0.1 0.2,-0.2 0.2,-0.2 -3.7,11.3 -8.7,22.5 -15.1,33.5 -5.4,9.4 -11.7,18.5 -19.1,27.6 -10.1,12.4 -22.1,24.5 -36,36.1 -6,5 -12.4,10 -19.1,14.8 -8.1,5.8 -16.7,11.5 -25.9,17zm-649.2 -8.6l0 0 0 0zm-0.4 -0.3c0,0 -0.1,0 -0.1,0 0,0 0.1,0 0.1,0zm-0.4 -0.2c-0.1,-0.1 -0.1,-0.1 -0.2,-0.2 0.1,0.1 0.1,0.1 0.2,0.2zm-0.4 -0.3c-0.1,-0.1 -0.2,-0.1 -0.3,-0.2 0.1,0.1 0.2,0.1 0.3,0.2zm-0.4 -0.3c-7.4,-4.9 -14.4,-9.9 -21,-15 -6.7,-5.3 -13.1,-10.6 -19.1,-16.1 -14.3,-13.1 -26.3,-26.8 -36,-40.9 -7.8,-11.3 -14.2,-22.8 -19.1,-34.6 -7.2,-17.1 -11.2,-34.5 -12.2,-52 0.1,-0.4 0.1,-0.8 0.1,-1.1 0.4,9.2 1.7,18.4 3.9,27.6 11.1,47.5 45.6,93.7 103.4,132.1z"/>
    <path class="fil18" d="M1384.7 1024.5c-2.2,-9.2 -3.5,-18.4 -3.9,-27.6 0,-0.1 0,-0.2 0,-0.3 0.4,9.3 1.7,18.6 3.9,27.9z"/>
    <path class="fil8" d="M2042.3 1117.8c-122.2,70.5 -320.2,70.5 -442.3,0 -122.2,-70.6 -122.2,-184.9 0,-255.4 122.1,-70.5 320.1,-70.5 442.3,0 122.1,70.5 122.1,184.8 0,255.4z"/>
    <path class="fil6" d="M1600 878.9c122.1,-70.5 320.1,-70.5 442.3,0 57.4,33.2 87.8,76 91.2,119.4 3.9,-48.9 -26.5,-98.5 -91.2,-135.9 -122.2,-70.5 -320.2,-70.5 -442.3,0 -64.7,37.4 -95.1,87 -91.3,135.9 3.4,-43.4 33.9,-86.3 91.3,-119.4z"/>
    <path class="fil6" d="M1974.9 904.8l-24.2 6.9 6.9 2.8 -23.7 13.6c-19.4,-9.4 -39.4,-14.1 -60,-14 -20.7,0.1 -39.9,5.3 -57.8,15.6 -7.2,4.2 -13,8.4 -17.4,12.7 -4.5,4.3 -7.6,8.8 -9.4,13.4 -1.8,4.6 -2.8,8.9 -3.1,12.8 -0.3,3.9 -0.1,8.5 0.6,13.9l2.8 22c0.8,6.3 1,11.5 0.6,15.5 -0.5,4 -2.3,8.2 -5.3,12.5 -3,4.4 -7.6,8.3 -13.9,11.9 -11.2,6.5 -21,7.2 -29.7,2.2 -6.6,-3.8 -8.3,-8.6 -5,-14.3 3.2,-5.7 12,-12.8 26.3,-21.2l0 -16.6 -20.7 7.8 -29.8 -12.7c-18.2,11.2 -29.9,21.8 -35.3,31.8l-3.4 -3.9 0 16.3 0.1 0c0.1,11.1 8.6,22.1 25.6,32.9l-11.7 6.8 -16 -7.3 0 16.6 14.3 8.3 28.1 -16.2c17.6,8.2 36.5,12 56.7,11.3 20.3,-0.7 38.1,-5.5 53.6,-14.4 7.7,-4.4 14,-9.1 18.9,-14.1 5,-4.9 8.5,-10 10.6,-15.3 2.1,-5.3 3.4,-10.4 3.9,-15.2 0.5,-4.8 0.5,-10.2 -0.1,-16.1l-2.4 -21.3c-0.3,-4.3 -0.5,-7.4 -0.5,-9.4 0,-1.9 0.3,-4.6 1,-8.1 0.7,-3.4 2.3,-6.5 4.9,-9.2 2.4,-2.7 5.9,-5.3 10.3,-7.8 4.5,-2.6 9.8,-4.3 15.9,-5.1 6,-0.7 11.3,0.1 15.9,2.7 2.3,1.2 4,2.5 5,3.8l0.8 2.8 -24.6 5.1 0 16.6 49.9 22.2c4.1,-2.6 7.8,-5 11,-7.2 3.2,-2.2 6.5,-4.9 10,-8.1 3.5,-3.1 6.3,-6.1 8.4,-9 2.1,-2.9 3.7,-6.1 4.8,-9.7 0.5,-1.7 0.7,-3.4 0.8,-5l0 -0.1 0 -17.4 -6.3 1.4 -0.3 -0.4c-3.2,-3.9 -7.6,-7.7 -13.3,-11.4l26.2 -15.1 0 -16.6z"/>
    <path class="fil7" d="M1671.4 1066.2l27.7 -16c-18.9,-12.1 -27.4,-24.3 -25.4,-36.7 2,-12.5 14.8,-25.9 38.4,-40.4l50.5 21.4c-14.3,8.5 -23.1,15.6 -26.3,21.3 -3.3,5.7 -1.6,10.4 5,14.2 8.7,5 18.5,4.3 29.7,-2.1 6.3,-3.6 10.9,-7.6 13.9,-11.9 3,-4.3 4.8,-8.5 5.3,-12.6 0.4,-4 0.2,-9.1 -0.6,-15.4l-2.8 -22.1c-0.7,-5.3 -0.9,-9.9 -0.6,-13.9 0.3,-3.9 1.3,-8.2 3.1,-12.8 1.8,-4.6 4.9,-9.1 9.4,-13.4 4.4,-4.3 10.2,-8.5 17.4,-12.6 17.9,-10.3 37.1,-15.5 57.8,-15.6 20.6,-0.2 40.6,4.5 60,14l26.4 -15.3 14.6 8.5 -26.2 15.2c5.7,3.7 10.1,7.5 13.3,11.4 3.2,3.9 5.3,7.5 6.1,10.9 0.8,3.4 0.7,6.9 -0.3,10.5 -1.1,3.6 -2.7,6.9 -4.8,9.7 -2.1,2.9 -4.9,5.9 -8.4,9.1 -3.5,3.1 -6.8,5.8 -10,8 -3.2,2.3 -6.9,4.7 -11,7.2l-49.9 -22.2c3.8,-2.3 6.9,-4.2 9.3,-5.8 2.4,-1.6 4.9,-3.3 7.4,-5.2 2.5,-1.8 4.3,-3.5 5.5,-4.9 1,-1.4 1.9,-2.8 2.3,-4.3 0.5,-1.5 0.2,-3 -0.7,-4.3 -1,-1.3 -2.7,-2.5 -5,-3.8 -4.6,-2.5 -9.9,-3.4 -15.9,-2.6 -6.1,0.7 -11.4,2.4 -15.9,5 -4.4,2.6 -7.9,5.2 -10.3,7.9 -2.6,2.6 -4.2,5.7 -4.9,9.2 -0.7,3.4 -1,6.1 -1,8.1 0,1.9 0.2,5 0.5,9.3l2.4 21.4c0.6,5.9 0.6,11.2 0.1,16.1 -0.5,4.8 -1.8,9.8 -3.9,15.1 -2.1,5.3 -5.6,10.4 -10.6,15.4 -4.9,4.9 -11.2,9.6 -18.9,14.1 -15.5,8.9 -33.3,13.7 -53.6,14.3 -20.2,0.7 -39.1,-3.1 -56.7,-11.3l-28.1 16.2 -14.3 -8.3z"/>
    <path class="fil6" d="M2293.2 860.4l-17.9 0c-20.1,-39.5 -57.2,-76.8 -111.2,-107.9 -172,-99.4 -451,-99.4 -623.1,0 -53.9,31.1 -91,68.4 -111.1,107.9l-17.9 0 0 71.9c0,65.1 43,130.2 129.1,179.9 172,99.4 451,99.4 623.1,0 86,-49.6 129,-114.8 129,-179.9l0 -71.9z"/>
    <path class="fil7" d="M1757.1 684.1c-79.2,10.1 -154.5,32.8 -216.1,68.4 -53.9,31.1 -91,68.4 -111.1,107.9l-17.9 0 0 71.9c0,65.1 43,130.2 129.1,179.9 61.5,35.6 136.8,58.3 216,68.4l0 -496.5z"/>
    <path class="fil8" d="M2165.4 1111.5c85.2,-49.6 127.8,-114.3 127.8,-179.2l0 -71.9 -17.9 0c-17.2,-33.7 -46.7,-65.7 -88.5,-93.7l-21.4 0 0 344.8z"/>
    <path class="fil8" d="M2251.4 1040.6l0 -58.8c7.4,-9.1 13.7,-18.3 19.1,-27.7l0 58.8c-5.4,9.4 -11.7,18.6 -19.1,27.7z"/>
    <path class="fil10" d="M1865.5 1186.6l0 -58.8c6.3,-0.1 12.7,-0.3 19.1,-0.6l0 58.8c-6.4,0.3 -12.8,0.4 -19.1,0.6zm-36.1 -0.3c-6.3,-0.1 -12.7,-0.4 -19.1,-0.7l0 -58.9c6.4,0.4 12.8,0.7 19.1,0.9l0 58.7zm91.2 -2.7l0 -58.7c6.4,-0.6 12.8,-1.3 19.1,-2l0 58.8c-6.3,0.7 -12.7,1.4 -19.1,1.9zm-146.3 -1c-6.4,-0.6 -12.8,-1.4 -19.1,-2.2l0 0c0.6,0.1 1.2,0.2 1.9,0.2l0 -58.7c5.7,0.7 11.4,1.4 17.2,2l0 58.7zm201.4 -6l0 -58.8c6.4,-1 12.8,-2.2 19.1,-3.5l0 58.8c-6.3,1.3 -12.7,2.4 -19.1,3.5zm55.2 -11.6l0 -58.8c6.4,-1.6 12.8,-3.3 19.1,-5.2l0 58.8c-6.3,1.8 -12.7,3.5 -19.1,5.2zm-366.9 -2.7c-1.1,-0.3 -2.2,-0.6 -3.4,-1 1.2,0.4 2.3,0.7 3.4,1l0 0zm422 -14.2l0 -58.8c6.5,-2.3 12.8,-4.7 19.1,-7.3l0 58.8c-6.3,2.5 -12.6,4.9 -19.1,7.3zm-477.1 -3.8c-0.2,-0.1 -0.3,-0.1 -0.5,-0.2 0.2,0.1 0.3,0.1 0.5,0.2l0 0zm532.2 -19.8l0 -58.7c6.5,-3.3 12.9,-6.7 19.2,-10.2l0 58.8c-6.3,3.5 -12.7,6.9 -19.2,10.1zm-275.6 -9.8l0 0c6.3,-0.1 12.7,-0.3 19.1,-0.6l0 0c-6.4,0.3 -12.8,0.5 -19.1,0.6zm-36.1 -0.3c-6.3,-0.2 -12.7,-0.4 -19.1,-0.8l0 0c6.4,0.4 12.8,0.6 19.1,0.8l0 0zm91.2 -2.7l0 0c6.4,-0.5 12.8,-1.2 19.1,-1.9l0 0c-6.4,0.7 -12.7,1.4 -19.1,1.9zm-146.3 -0.9c-5.8,-0.6 -11.5,-1.3 -17.2,-2l0 0c5.7,0.7 11.4,1.4 17.2,2l0 0zm201.4 -6.1l0 0c6.4,-1.1 12.8,-2.2 19.1,-3.5l0 0c-6.3,1.3 -12.7,2.4 -19.1,3.5zm55.2 -11.6l0 0c6.4,-1.6 12.8,-3.4 19.1,-5.2l0 0c-6.3,1.8 -12.7,3.6 -19.1,5.2zm55.1 -16.9l0 0c6.5,-2.3 12.8,-4.8 19.1,-7.3l0 0c-6.3,2.6 -12.6,5 -19.1,7.3zm55.1 -23.5l0 0c6.5,-3.3 12.9,-6.7 19.2,-10.2l0 0c-6.3,3.5 -12.7,6.9 -19.2,10.2z"/>
    <g>
     <path class="fil11" d="M1757.1 1180.6c-0.7,0 -1.3,-0.1 -1.9,-0.2l0 -58.8c0.6,0.1 1.2,0.2 1.9,0.3l0 58.7zm-37.9 -5.8c-6.4,-1.2 -12.8,-2.5 -19.1,-3.8l0 -58.8c6.3,1.4 12.6,2.6 19.1,3.8l0 58.8zm-55.2 -12.5c-1.1,-0.3 -2.2,-0.6 -3.4,-1 -5.3,-1.4 -10.5,-3 -15.7,-4.6l0 -58.8c6.3,2 12.7,3.8 19.1,5.6l0 58.8 0 0zm-55.1 -18c-0.2,-0.1 -0.3,-0.1 -0.5,-0.2 -6.3,-2.4 -12.5,-5 -18.6,-7.6l0 -58.8c6.3,2.7 12.6,5.3 19.1,7.8l0 58.8zm-55.1 -25.1c-4.3,-2.3 -8.6,-4.6 -12.7,-7l0 0c-2.3,-1.2 -4.3,-2.6 -6.4,-3.9l0 -58.7c2.1,1.3 4.2,2.5 6.4,3.8 4.1,2.4 8.4,4.7 12.7,7l0 58.8zm203.3 -10.4c-0.7,-0.1 -1.3,-0.2 -1.9,-0.3l0 0c0.6,0.1 1.2,0.2 1.9,0.3l0 0zm-37.9 -5.9c-6.4,-1.2 -12.8,-2.4 -19.1,-3.8l0 0c6.3,1.4 12.6,2.6 19.1,3.8l0 0zm-55.2 -12.5c-6.4,-1.8 -12.8,-3.6 -19.1,-5.6l0 0c6.3,2 12.7,3.8 19.1,5.6l0 0zm-165.4 -6.6c-6.8,-5.3 -13.1,-10.7 -19.1,-16.2l0 -58.7c6,5.5 12.3,10.9 19.1,16.1l0 58.8zm110.3 -11.4c-6.5,-2.5 -12.9,-5.1 -19.1,-7.8l0 0c6.3,2.7 12.6,5.3 19.1,7.8l0 0zm-55.1 -25.1c-3.1,-1.6 -6.1,-3.3 -9.2,-5 3.1,1.7 6.1,3.4 9.2,5l0 0zm-9.4 -5.1c-0.7,-0.4 -1.4,-0.8 -2.1,-1.2 0.7,0.4 1.4,0.8 2.1,1.2zm-3.3 -1.9l0 0c-0.2,-0.1 -0.4,-0.2 -0.5,-0.3 0.1,0.1 0.3,0.2 0.5,0.3l0 0zm-0.7 -0.4c-0.1,-0.1 -0.2,-0.1 -0.3,-0.2 0.1,0.1 0.2,0.1 0.3,0.2zm-0.6 -0.4c-0.1,0 -0.2,0 -0.2,-0.1 0,0.1 0.1,0.1 0.2,0.1zm-0.5 -0.3c-0.1,0 -0.1,0 -0.2,-0.1 0,0.1 0.1,0.1 0.2,0.1zm-0.5 -0.3c-0.1,0 -0.1,0 -0.2,-0.1 0,0.1 0.1,0.1 0.2,0.1zm-0.5 -0.2c-0.1,-0.1 -0.1,-0.1 -0.2,-0.1 0.1,0 0.1,0 0.2,0.1zm-0.5 -0.4c-0.1,0 -0.1,0 -0.2,0 0.1,0 0.1,0 0.2,0zm-0.6 -0.3c0,0 0,0 0,0 0,0 0,0 0,0zm-0.5 -0.3c0,0 0,0 0,0l0 0z"/>
    </g>
    <path class="fil8" d="M2196.3 1091.5l0 -58.8c6.7,-4.8 13.1,-9.7 19.1,-14.8l0 58.7c-6,5.1 -12.4,10.1 -19.1,14.9zm0 -71.9l0 0c0.1,-0.1 0.2,-0.1 0.3,-0.2 -0.1,0.1 -0.2,0.1 -0.3,0.2zm0.4 -0.3c0.1,0 0.1,-0.1 0.2,-0.1 -0.1,0 -0.1,0.1 -0.2,0.1z"/>
    <path class="fil11" d="M1443.5 1026.9c-7.9,-11.3 -14.2,-22.9 -19.1,-34.6l0 -59c4.9,11.8 11.2,23.4 19.1,34.7l0 58.9z"/>
    <path class="fil7" d="M2164.2 1040.3c-172.1,99.3 -451.1,99.3 -623.1,0 -172.1,-99.4 -172.1,-260.4 -0.1,-359.8 172.1,-99.3 451.1,-99.3 623.1,0 172.1,99.4 172.1,260.4 0.1,359.8z"/>
    <path class="fil19" d="M1537.3 682.7c0,0 0.1,0 0.1,0 0,0 -0.1,0 -0.1,0zm0.4 -0.2c0,0 0.1,-0.1 0.1,-0.1 0,0 -0.1,0.1 -0.1,0.1zm1 -0.6c0.1,-0.1 0.1,-0.1 0.2,-0.1 -0.1,0 -0.1,0 -0.2,0.1zm0.4 -0.3c0.1,0 0.2,-0.1 0.3,-0.1 -0.1,0 -0.2,0.1 -0.3,0.1zm0.6 -0.3c0.1,0 0.2,-0.1 0.3,-0.2 -0.1,0.1 -0.2,0.2 -0.3,0.2zm0.4 -0.3c0.2,0 0.2,-0.1 0.3,-0.1 -0.1,0 -0.2,0.1 -0.3,0.1zm0.5 -0.2c0.1,-0.1 0.3,-0.2 0.4,-0.3 -0.1,0.1 -0.3,0.2 -0.4,0.3zm0.4 -0.3c0.2,-0.1 0.4,-0.2 0.6,-0.3 -0.2,0.1 -0.4,0.2 -0.6,0.3z"/>
    <path class="fil12" d="M1639.9 978.3c-68.3,0 -136.6,-9.1 -199,-27.3 -10.5,-16 -18.2,-32.5 -22.9,-49.2 -3.3,-11.6 -5.2,-23.2 -5.7,-34.9 0,0.2 0,0.3 0,0.4 -3.2,-66.4 38.5,-133.4 125,-184.6 0,0 0.1,0 0.1,0 0.1,-0.1 0.2,-0.2 0.3,-0.2 0,0 0.1,-0.1 0.1,-0.1 0.3,-0.2 0.6,-0.3 0.9,-0.5 0.1,-0.1 0.1,-0.1 0.2,-0.1 0.1,-0.1 0.1,-0.1 0.2,-0.2 0.1,0 0.2,-0.1 0.3,-0.1 0.1,-0.1 0.2,-0.1 0.3,-0.2 0.1,0 0.2,-0.1 0.3,-0.2 0,0 0.1,0 0.1,-0.1 0.1,0 0.2,-0.1 0.3,-0.1 0.1,-0.1 0.1,-0.1 0.2,-0.1 0.1,-0.1 0.3,-0.2 0.4,-0.3l0 0c0.2,-0.1 0.4,-0.2 0.6,-0.3 85.9,-49.4 198.4,-74.1 310.8,-74.1 68.3,0 136.7,9.1 199,27.3 59.9,90.8 26.6,197.3 -100.1,270.5 -86,49.6 -198.7,74.4 -311.4,74.4z"/>
    <path class="fil13" d="M1852.6 1127.9c-7.7,0 -15.4,-0.1 -23.2,-0.3l0 -13.2c7.8,0.3 15.5,0.4 23.2,0.4 4.3,0 8.6,-0.1 12.9,-0.1l0 13.1c-4.3,0.1 -8.6,0.1 -12.9,0.1zm32 -0.7l0 -13.1c12,-0.5 24,-1.3 36,-2.4l0 13.2c-12,1 -24,1.8 -36,2.3zm-74.3 -0.5c-12,-0.6 -24,-1.6 -36,-2.8l0 -13.1c12,1.2 24,2.1 36,2.8l0 13.1zm129.4 -3.8l0 -13.1c12.1,-1.4 24.1,-3.1 36,-5.1l0 13.1c-11.9,2 -23.9,3.7 -36,5.1zm55.1 -8.6l0 -13.1c12.2,-2.4 24.2,-5.1 36.1,-8.1l0 13.1c-11.9,3 -23.9,5.8 -36.1,8.1zm55.2 -13.3l0 -13.1c12.2,-3.5 24.3,-7.4 36,-11.7l0 13.1c-11.7,4.3 -23.8,8.2 -36,11.7zm55.1 -19l0 -13.1c12.4,-5 24.4,-10.4 36,-16.2l0 13.1c-11.6,5.8 -23.6,11.2 -36,16.2zm55.2 -26.4l0 -13.1c1.3,-0.7 2.6,-1.5 3.9,-2.2 0.3,-0.3 0.8,-0.5 1.2,-0.7l0 13.1c-0.4,0.2 -0.9,0.5 -1.2,0.7 -1.3,0.7 -2.6,1.5 -3.9,2.2z"/>
    <path class="fil14" d="M1755.2 1121.6c-12.1,-1.5 -24.1,-3.4 -36,-5.6l0 -13.1c11.9,2.2 23.9,4 36,5.6l0 13.1zm-55.1 -9.4c-12.2,-2.6 -24.3,-5.5 -36.1,-8.7l0 -13.1c11.9,3.2 23.9,6.1 36.1,8.7l0 13.1zm-55.2 -14.3c-12.3,-3.8 -24.3,-7.9 -36,-12.4l0 -13.1c11.7,4.5 23.7,8.6 36,12.4l0 13.1zm-55.1 -20.2c-12.4,-5.3 -24.5,-11.1 -36,-17.3l0 -13.1c11.5,6.2 23.6,12 36,17.3l0 13.1zm-55.1 -28.1c-13.1,-7.9 -25.1,-16.1 -36.1,-24.6l0 -13.1c11,8.5 23,16.7 36.1,24.6l0 13.1zm-55.2 -40.7c-14.3,-13.1 -26.3,-26.8 -36,-40.9l0 -13c9.7,14.1 21.7,27.7 36,40.8l0 13.1zm-55.1 -75.6c-8.9,-21.3 -12.9,-43.1 -12.2,-64.9 1,17.5 5,34.9 12.2,52l0 12.9z"/>
    <path class="fil15" d="M2165.4 1052.7l0 -13.1c11,-6.4 21.3,-13.1 30.9,-20l0 13.1c-9.6,6.9 -19.9,13.6 -30.9,20zm50 -34.8l0 -13.1c13.8,-11.5 25.9,-23.6 36,-36.1l0 13.1c-10.1,12.4 -22.1,24.5 -36,36.1zm55.1 -63.8l0 -13c13.7,-23.6 21.2,-48.1 22.5,-72.7 1,28.9 -6.5,58 -22.5,85.7z"/>
    <path class="fil15" d="M2251.4 981.8l0 -13.1c7.4,-9 13.7,-18.2 19.1,-27.6l0 13c-5.4,9.4 -11.7,18.6 -19.1,27.7z"/>
    <path class="fil16" d="M1865.5 1127.8l0 -13.1c6.3,-0.1 12.7,-0.3 19.1,-0.6l0 13.1c-6.4,0.3 -12.8,0.5 -19.1,0.6zm-36.1 -0.2c-6.3,-0.2 -12.7,-0.5 -19.1,-0.9l0 -13.1c6.4,0.4 12.8,0.6 19.1,0.8l0 13.2zm91.2 -2.7l0 -13.2c6.4,-0.5 12.7,-1.2 19.1,-1.9l0 13.1c-6.3,0.7 -12.7,1.4 -19.1,2zm-146.3 -1c-5.8,-0.6 -11.5,-1.3 -17.2,-2l0 -13.1c5.7,0.7 11.4,1.4 17.2,2l0 13.1zm201.4 -6.1l0 -13.1c6.4,-1.1 12.8,-2.2 19.1,-3.5l0 13.1c-6.3,1.3 -12.7,2.5 -19.1,3.5zm55.2 -11.6l0 -13.1c6.4,-1.6 12.8,-3.4 19.1,-5.2l0 13.1c-6.3,1.9 -12.7,3.6 -19.1,5.2zm55.1 -16.9l0 -13.1c6.5,-2.3 12.8,-4.7 19.1,-7.3l0 13.1c-6.3,2.6 -12.6,5 -19.1,7.3zm55.1 -23.5l0 -13.1c6.5,-3.3 12.9,-6.7 19.2,-10.2l0 13.1c-6.3,3.5 -12.7,6.9 -19.2,10.2z"/>
    <path class="fil17" d="M1757.1 1121.9c-0.7,-0.1 -1.3,-0.2 -1.9,-0.3l0 -13.1c0.6,0.1 1.2,0.2 1.9,0.3l0 13.1zm-37.9 -5.9c-6.5,-1.2 -12.8,-2.4 -19.1,-3.8l0 -13.1c6.3,1.4 12.7,2.6 19.1,3.8l0 13.1zm-55.2 -12.5c-6.4,-1.8 -12.8,-3.6 -19.1,-5.6l0 -13.1c6.3,2 12.7,3.8 19.1,5.6l0 13.1zm-55.1 -18c-6.5,-2.5 -12.8,-5.1 -19.1,-7.8l0 -13.1c6.2,2.7 12.6,5.3 19.1,7.8l0 13.1zm-55.1 -25.1c-4.3,-2.3 -8.6,-4.6 -12.7,-7 -2.2,-1.3 -4.3,-2.5 -6.4,-3.8l0 -13.1c0.6,0.4 1.3,0.8 2,1.2 0,0 0,0 0,0 0.2,0.1 0.3,0.2 0.5,0.3 0,0 0,0 0,0 0.2,0.1 0.3,0.2 0.4,0.3 0.1,0 0.1,0 0.2,0 0.1,0.1 0.2,0.2 0.3,0.3 0.1,0 0.1,0 0.2,0.1 0.1,0 0.2,0.1 0.3,0.1 0.1,0.1 0.1,0.1 0.2,0.1 0.1,0.1 0.2,0.2 0.3,0.2 0.1,0.1 0.1,0.1 0.2,0.1 0.1,0.1 0.2,0.2 0.3,0.2 0,0.1 0.1,0.1 0.2,0.1 0.1,0.1 0.2,0.1 0.3,0.2 0.1,0.1 0.2,0.1 0.3,0.2 0,0 0.1,0.1 0.2,0.1 0.1,0.1 0.3,0.2 0.5,0.3l0 0c0.4,0.2 0.8,0.4 1.2,0.7 0.7,0.4 1.4,0.8 2.1,1.2 0.1,0 0.2,0.1 0.2,0.1 3.1,1.7 6.1,3.4 9.2,5l0 13.1zm-55.2 -35.4c-6.8,-5.2 -13.1,-10.6 -19.1,-16.1l0 -13.1c6,5.5 12.4,10.9 19.1,16.1l0 13.1z"/>
    <path class="fil15" d="M2196.3 1032.7l0 -13.1c0.1,-0.1 0.2,-0.1 0.3,-0.2 0,0 0.1,-0.1 0.1,-0.1 0.1,0 0.1,-0.1 0.2,-0.1 6.5,-4.7 12.6,-9.5 18.5,-14.4l0 13.1c-6,5.1 -12.4,10 -19.1,14.8z"/>
    <path class="fil17" d="M1443.5 968c-7.9,-11.3 -14.2,-22.9 -19.1,-34.7l0 -12.9c4.9,11.7 11.2,23.3 19.1,34.6l0 13z"/>
    <path class="fil14" d="M1544.6 1042.3c0,0 -0.1,-0.1 -0.2,-0.1 0.1,0 0.2,0.1 0.2,0.1zm-2.3 -1.3c-0.4,-0.3 -0.8,-0.5 -1.2,-0.7 0.4,0.2 0.8,0.4 1.2,0.7zm-1.7 -1c-0.1,0 -0.2,-0.1 -0.2,-0.1 0,0 0.1,0 0.2,0.1zm-0.5 -0.3c-0.1,-0.1 -0.2,-0.1 -0.3,-0.2 0.1,0.1 0.2,0.1 0.3,0.2zm-0.5 -0.3c-0.1,0 -0.2,-0.1 -0.3,-0.2 0.1,0.1 0.2,0.2 0.3,0.2zm-0.5 -0.3c-0.1,0 -0.2,-0.1 -0.3,-0.2 0.1,0.1 0.2,0.2 0.3,0.2zm-0.5 -0.3c-0.1,0 -0.2,-0.1 -0.3,-0.1 0.1,0 0.2,0.1 0.3,0.1zm-0.5 -0.2c-0.1,-0.1 -0.2,-0.2 -0.3,-0.3 0.1,0.1 0.2,0.2 0.3,0.3zm-0.5 -0.3c-0.1,-0.1 -0.2,-0.2 -0.4,-0.3 0.2,0.1 0.3,0.2 0.4,0.3zm-0.4 -0.3c-0.2,-0.1 -0.3,-0.2 -0.5,-0.3 0.2,0.1 0.3,0.2 0.5,0.3zm-0.5 -0.3c-0.7,-0.4 -1.4,-0.8 -2,-1.2 -13.1,-7.9 -25.1,-16.1 -36.1,-24.6 -6.7,-5.2 -13.1,-10.6 -19.1,-16.1 -14.3,-13.1 -26.3,-26.7 -36,-40.8 -7.9,-11.3 -14.2,-22.9 -19.1,-34.6 -7.2,-17.1 -11.2,-34.5 -12.2,-52 0,-0.4 0,-0.7 0.1,-1.1 0.5,11.6 2.4,23.1 5.7,34.5 14,49.6 53.6,97.3 118.7,135.9zm659.9 -18.3c0,0 0.1,-0.1 0.1,-0.1 0,0 -0.1,0.1 -0.1,0.1zm0.3 -0.2c61.7,-44.5 93.6,-98.2 96,-152.2 0,0.4 0.1,0.9 0.1,1.4 -1.3,24.6 -8.8,49.1 -22.5,72.7 -5.4,9.4 -11.7,18.6 -19.1,27.6 -10.1,12.5 -22.2,24.6 -36,36.1 -5.9,4.9 -12,9.7 -18.5,14.4z"/>
    <path class="fil18" d="M1418 901.8c-3.3,-11.4 -5.2,-22.9 -5.7,-34.5 0,-0.1 0,-0.2 0,-0.4 0.5,11.7 2.4,23.3 5.7,34.9z"/>
    <path class="fil8" d="M2073.8 988.1c-122.2,70.5 -320.2,70.5 -442.3,0 -122.2,-70.5 -122.2,-184.9 0,-255.4 122.1,-70.5 320.1,-70.5 442.3,0 122.1,70.5 122.1,184.9 0,255.4z"/>
    <path class="fil6" d="M1631.5 749.2c122.1,-70.5 320.1,-70.5 442.3,0 57.4,33.2 87.8,76 91.2,119.4 3.9,-48.9 -26.5,-98.5 -91.2,-135.9 -122.2,-70.5 -320.2,-70.5 -442.3,0 -64.7,37.4 -95.2,87 -91.3,135.9 3.4,-43.4 33.8,-86.2 91.3,-119.4z"/>
    <path class="fil6" d="M2006.4 775.1l-24.2 7 6.9 2.7 -23.7 13.7c-19.4,-9.5 -39.4,-14.2 -60,-14.1 -20.7,0.1 -40,5.3 -57.8,15.7 -7.2,4.1 -13,8.3 -17.5,12.6 -4.4,4.3 -7.6,8.8 -9.3,13.4 -1.8,4.6 -2.8,8.9 -3.1,12.8 -0.3,3.9 -0.1,8.6 0.6,13.9l2.8 22.1c0.8,6.2 1,11.4 0.5,15.4 -0.4,4.1 -2.2,8.2 -5.2,12.6 -3,4.3 -7.7,8.2 -13.9,11.8 -11.2,6.5 -21.1,7.2 -29.7,2.2 -6.6,-3.8 -8.3,-8.6 -5.1,-14.2 3.3,-5.7 12.1,-12.8 26.4,-21.3l0 -16.6 -20.7 7.8 -29.8 -12.7c-18.3,11.2 -30,21.8 -35.3,31.8l-3.4 -3.8 0 16.2 0 0c0.1,11.2 8.7,22.1 25.7,33l-11.8 6.8 -16 -7.4 0 16.6 14.4 8.3 28.1 -16.2c17.6,8.2 36.5,12 56.7,11.3 20.2,-0.6 38.1,-5.4 53.5,-14.4 7.8,-4.4 14.1,-9.1 19,-14 5,-5 8.5,-10.1 10.6,-15.4 2,-5.3 3.4,-10.4 3.9,-15.2 0.5,-4.8 0.4,-10.1 -0.1,-16l-2.4 -21.4c-0.3,-4.3 -0.5,-7.4 -0.5,-9.3 0,-2 0.3,-4.7 1,-8.1 0.7,-3.5 2.3,-6.6 4.8,-9.3 2.5,-2.6 6,-5.3 10.4,-7.8 4.5,-2.6 9.8,-4.3 15.9,-5.1 6,-0.7 11.3,0.2 15.9,2.7 2.3,1.2 4,2.5 4.9,3.8l0.9 2.8 -24.7 5.1 0 16.6 50 22.2c4.1,-2.6 7.8,-4.9 11,-7.2 3.2,-2.2 6.5,-4.9 10,-8 3.5,-3.2 6.3,-6.2 8.4,-9.1 2.1,-2.8 3.7,-6.1 4.7,-9.7 0.5,-1.7 0.8,-3.3 0.9,-5l0 0 0 -17.5 -6.4 1.4 -0.2 -0.4c-3.2,-3.9 -7.6,-7.7 -13.3,-11.4l26.2 -15.1 0 -16.6z"/>
    <path class="fil7" d="M1702.8 936.5l27.8 -16c-19,-12 -27.5,-24.3 -25.5,-36.7 2.1,-12.4 14.9,-25.9 38.5,-40.4l50.5 21.4c-14.3,8.5 -23.1,15.6 -26.4,21.3 -3.2,5.7 -1.5,10.4 5.1,14.3 8.6,5 18.5,4.2 29.7,-2.2 6.2,-3.6 10.9,-7.6 13.9,-11.9 3,-4.3 4.8,-8.5 5.2,-12.5 0.5,-4.1 0.3,-9.2 -0.5,-15.5l-2.8 -22.1c-0.7,-5.3 -0.9,-9.9 -0.6,-13.8 0.3,-4 1.3,-8.2 3.1,-12.9 1.7,-4.6 4.9,-9 9.3,-13.3 4.5,-4.3 10.3,-8.6 17.5,-12.7 17.8,-10.3 37.1,-15.5 57.8,-15.6 20.6,-0.1 40.6,4.5 60,14l26.4 -15.2 14.6 8.4 -26.2 15.2c5.7,3.7 10.1,7.5 13.3,11.4 3.2,3.9 5.3,7.5 6.1,10.9 0.8,3.4 0.7,6.9 -0.4,10.5 -1,3.6 -2.6,6.9 -4.7,9.8 -2.1,2.9 -4.9,5.9 -8.4,9 -3.5,3.1 -6.8,5.8 -10,8.1 -3.2,2.2 -6.9,4.6 -11,7.2l-50 -22.3c3.8,-2.3 7,-4.2 9.4,-5.8 2.4,-1.5 4.9,-3.3 7.4,-5.1 2.5,-1.9 4.3,-3.6 5.4,-5 1.1,-1.3 1.9,-2.8 2.4,-4.3 0.5,-1.5 0.2,-2.9 -0.8,-4.2 -0.9,-1.4 -2.6,-2.6 -4.9,-3.9 -4.6,-2.5 -9.9,-3.4 -15.9,-2.6 -6.1,0.7 -11.4,2.4 -15.9,5.1 -4.4,2.5 -7.9,5.1 -10.4,7.8 -2.5,2.7 -4.1,5.7 -4.8,9.2 -0.7,3.5 -1,6.2 -1,8.1 0,1.9 0.2,5 0.5,9.3l2.4 21.4c0.5,5.9 0.6,11.3 0.1,16.1 -0.5,4.8 -1.9,9.8 -3.9,15.1 -2.1,5.3 -5.6,10.4 -10.6,15.4 -4.9,4.9 -11.2,9.6 -19,14.1 -15.4,8.9 -33.3,13.7 -53.5,14.4 -20.2,0.6 -39.1,-3.1 -56.7,-11.4l-28.1 16.2 -14.4 -8.3z"/>
   </g>
  </g>
 </g>
</svg>
