<?xml version="1.0" encoding="UTF-8"?>
<!DOCTYPE svg PUBLIC "-//W3C//DTD SVG 1.1//EN" "http://www.w3.org/Graphics/SVG/1.1/DTD/svg11.dtd">
<!-- Creator: CorelDRAW 2019 (64-Bit) -->
<svg xmlns="http://www.w3.org/2000/svg" xml:space="preserve" width="283px" height="248px" version="1.1" style="shape-rendering:geometricPrecision; text-rendering:geometricPrecision; image-rendering:optimizeQuality; fill-rule:evenodd; clip-rule:evenodd"
viewBox="0 0 2830 2476.2"
 xmlns:xlink="http://www.w3.org/1999/xlink"
 xmlns:xodm="http://www.corel.com/coreldraw/odm/2003">
 <defs>
  <style type="text/css">
   <![CDATA[
    .fil3 {fill:#FEFEFE;fill-rule:nonzero}
    .fil6 {fill:#E8348A;fill-rule:nonzero}
    .fil2 {fill:#DFEEFB;fill-rule:nonzero}
    .fil8 {fill:#DCEEFB;fill-rule:nonzero}
    .fil7 {fill:#C6E4F9;fill-rule:nonzero}
    .fil0 {fill:#6097D0;fill-rule:nonzero}
    .fil4 {fill:#3F6AA9;fill-rule:nonzero}
    .fil5 {fill:#334D86;fill-rule:nonzero}
    .fil1 {fill:#2F3E74;fill-rule:nonzero}
   ]]>
  </style>
 </defs>
 <g id="Layer_x0020_1">
  <metadata id="CorelCorpID_0Corel-Layer"/>
  <g id="_938739760">
   <path class="fil0" d="M139.2 1080.2l256 147.8 255.9 -147.8 -255.9 -147.8 -256 147.8zm256 161.8l-280.3 -161.8 280.3 -161.8 280.3 161.8 -280.3 161.8z"/>
   <polygon class="fil1" points="579.5,1027 395.2,1133.4 395.2,920.5 579.5,814 "/>
   <polygon class="fil2" points="395.2,920.5 210.8,814 395.2,707.6 579.5,814.1 "/>
   <polygon class="fil0" points="395.2,1133.4 210.8,1027 210.8,814 395.2,920.5 "/>
   <polygon class="fil3" points="328.8,1018.4 277.2,988.6 277.2,929.1 328.8,958.9 "/>
  </g>
  <g id="_938749168">
   <path class="fil4" d="M1300.1 2172.1l0 -80 -179.2 -0.1 -61.9 -35.7c-14.2,-8.2 -39,-7.2 -55.5,2.3l-57.7 33.3 -179.4 0 0 82.1c-0.4,5.6 2.7,10.9 9.5,14.9l231.6 133.7c14.2,8.2 39.1,7.2 55.5,-2.3l223.6 -129.1c9.5,-5.5 14.1,-12.5 13.5,-19.1z"/>
   <path class="fil4" d="M1033.3 2050.8c-10.4,0.2 -21.2,2.9 -29.8,7.8l-57.7 33.3 -179.4 0 0 82.1c-0.4,5.6 2.7,10.9 9.5,14.9l231.6 133.7c6.9,4 16.1,5.7 25.8,5.5l0 -277.3z"/>
   <path class="fil0" d="M786.7 2091.9l-20.3 0 0 82.1c-0.4,5.6 2.7,10.9 9.5,14.9l10.8 6.2 0 -103.2z"/>
   <path class="fil0" d="M1011.1 2324.4c12.3,5.2 30,4.9 44.3,-0.5l0 -93.4 -44.3 0 0 93.9z"/>
   <path class="fil2" d="M1007.5 2240.7l-231.6 -133.7c-14.2,-8.2 -12.4,-22.5 4,-32l223.6 -129.1c16.5,-9.5 41.3,-10.5 55.5,-2.3l231.6 133.7c14.2,8.2 12.4,22.5 -4,32l-223.6 129.1c-16.4,9.5 -41.3,10.5 -55.5,2.3z"/>
   <path class="fil3" d="M1286.6 2093.6l-223.6 129.1c-16.4,9.5 -41.3,10.5 -55.5,2.3l-231.6 -133.7c-3.2,-1.9 -5.5,-4 -7.1,-6.3 -4.9,7.8 -2.6,16.4 7.1,22l231.6 133.7c14.2,8.2 39.1,7.2 55.5,-2.3l223.6 -129.1c12.8,-7.4 16.7,-17.6 11.1,-25.7 -2.2,3.6 -5.9,7 -11.1,10z"/>
   <path class="fil2" d="M1214.9 2193.1c0,6 -4.1,13.3 -9.3,16.2 -5.2,3 -9.4,0.6 -9.4,-5.4 0,-5.9 4.2,-13.2 9.4,-16.1 5.2,-3 9.3,-0.6 9.3,5.3z"/>
   <path class="fil2" d="M1245 2175.8c0,5.9 -4.2,13.2 -9.3,16.2 -5.2,2.9 -9.4,0.5 -9.4,-5.4 0,-6 4.2,-13.3 9.4,-16.2 5.1,-3 9.3,-0.6 9.3,5.4z"/>
   <path class="fil2" d="M1275.1 2158.4c0,6 -4.2,13.2 -9.3,16.2 -5.2,3 -9.4,0.6 -9.4,-5.4 0,-6 4.2,-13.2 9.4,-16.2 5.1,-3 9.3,-0.6 9.3,5.4z"/>
   <path class="fil0" d="M1021.2 2157.8l-108.4 -62.6c-6.6,-3.8 -5.8,-10.5 1.9,-14.9l104.7 -60.5c7.6,-4.4 19.3,-4.9 25.9,-1l108.4 62.5c6.6,3.9 5.8,10.6 -1.9,15l-104.6 60.4c-7.7,4.5 -19.3,5 -26,1.1z"/>
   <polygon class="fil2" points="1031.6,2105.4 1016.6,2096.8 1016.9,2094.7 1031.3,2086.3 1034.9,2086.2 1049.9,2094.8 1049.7,2096.9 1035.2,2105.3 "/>
   <path class="fil4" d="M912.8 2095.2l0.4 0.2 1.5 -1 104.7 -60.5c7.6,-4.4 19.3,-4.9 25.9,-1.1l108.1 62.4c6.1,-4.3 6.4,-10.3 0.3,-13.9l-108.4 -62.5c-6.6,-3.9 -18.3,-3.4 -25.9,1l-104.7 60.5c-7.7,4.4 -8.5,11.1 -1.9,14.9z"/>
  </g>
  <g id="_938711600">
   <path class="fil0" d="M931.1 1949.3l-328.7 189 -422.4 -244 328.6 -188.9 422.5 243.9zm-328.7 203l353.1 -203 -446.9 -258 -353 203 446.8 258z"/>
   <path class="fil0" d="M582.5 2057.9l-327 -189.1c-6.4,-3.8 -9.5,-8.7 -9.6,-14l-0.1 0.1 0 -86c0,0 11.5,9.6 18.2,15.3l206.4 -119c16.8,-9.7 42.2,-10.7 56.7,-2.3l312.5 180.8 24.3 -14 0 86.4 -0.1 -0.1c-0.2,6.3 -4.8,13 -13.8,18.2l-210.8 121.4c-16.8,9.7 -42.1,10.7 -56.7,2.3z"/>
   <path class="fil4" d="M264 1784.2l206.4 -119c16.8,-9.7 42.2,-10.7 56.7,-2.3l81.5 47.1 0 353.5c-9.8,0.2 -19.2,-1.6 -26.1,-5.6l-327 -189.1c-6.4,-3.8 -9.5,-8.7 -9.6,-14l-0.1 0.1 0 -86c0,0 11.5,9.6 18.2,15.3z"/>
   <path class="fil2" d="M854.1 1814.8l-327 -189.2c-14.5,-8.4 -39.9,-7.4 -56.7,2.3l-210.7 121.5c-16.8,9.6 -18.7,24.3 -4.1,32.7l326.9 189.1c14.6,8.5 40,7.4 56.7,-2.3l210.8 -121.4c16.8,-9.7 18.6,-24.3 4.1,-32.7z"/>
   <path class="fil3" d="M583.3 1980.1l-327 -189.2c-7.9,-4.6 -10.8,-11.1 -9.2,-17.6 1.5,3.3 4.2,6.3 8.5,8.8l326.9 189.1c14.6,8.5 40,7.4 56.7,-2.3l210.8 -121.4c7.6,-4.4 12,-9.8 13.3,-15.1 3.6,7.8 -0.7,17.1 -12.5,23.9l-210.8 121.5c-16.8,9.6 -42.2,10.7 -56.7,2.3z"/>
   <path class="fil3" d="M509.4 1762.8c12.2,-7 12.2,-18.5 0.1,-25.5 -12.2,-7 -32,-7.1 -44.2,0 -12.2,7 -12.2,18.4 0,25.4 12.2,7.1 31.9,7.1 44.1,0.1z"/>
   <path class="fil1" d="M576.3 1801.5c12.2,-7.1 12.2,-18.5 0,-25.5 -12.2,-7.1 -32,-7.1 -44.2,-0.1 -12.1,7 -12.2,18.5 0,25.5 12.2,7.1 32,7.1 44.2,0.1z"/>
   <path class="fil4" d="M643.1 1840.1c12.2,-7 12.2,-18.4 0,-25.5 -12.2,-7 -31.9,-7 -44.1,0 -12.2,7 -12.2,18.4 -0.1,25.5 12.2,7 32,7 44.2,0z"/>
  </g>
  <g id="_1498030512">
   <path class="fil1" d="M2018.6 812.8l-724.1 -418.1c-8.4,-4.8 -17,-5.6 -24.5,-3l0 0 -1.3 0.5 -0.4 0.1 -26.1 10 23.5 11.5 -0.4 1.3 -127.9 581.9c-5.9,26.8 5.9,58.2 26.4,70l706.7 408.1 -2.5 29.9 28.6 -11.1c9.6,-4.5 17.3,-14.6 20.5,-29.1l127.9 -581.9c6,-26.9 -5.9,-58.2 -26.4,-70.1z"/>
   <path class="fil4" d="M2018.6 812.8l-724.1 -418.1c-8.4,-4.8 -17,-5.6 -24.5,-3l0 0 -1.3 0.5 -0.4 0.1 -26.1 10 23.5 11.5 -0.4 1.3 -87.7 398.8 354.3 276.1 509.6 -248.3c-4.8,-12.5 -12.8,-23 -22.9,-28.9z"/>
   <path class="fil5" d="M1991.3 895.4l55.2 -23.5c1,-21.4 -7.9,-43.4 -22.4,-55.2l-87.2 36.7 54.4 42z"/>
   <path class="fil2" d="M1842.8 1502.2l-724.1 -418.1c-20.5,-11.8 -32.3,-43.2 -26.4,-70.1l127.9 -581.9c5.9,-26.8 27.3,-39.1 47.8,-27.2l724.2 418.1c20.5,11.8 32.3,43.2 26.4,70l-128 581.9c-5.9,26.9 -27.3,39.1 -47.8,27.3z"/>
   <path class="fil3" d="M1999.1 820.4l-724.1 -418.1c-10,-5.7 -20,-5.7 -28.5,-1.2 6.8,-1.5 14.2,-0.5 21.5,3.8l724.2 418.1c20.5,11.8 32.3,43.2 26.4,70l-128 581.9c-3,13.9 -10.2,23.7 -19.2,28.5 12.2,-2.7 22.4,-13.8 26.2,-31l127.9 -581.9c5.9,-26.9 -5.9,-58.3 -26.4,-70.1z"/>
   <path class="fil3" d="M1827.1 1462.2l-681 -393c-18.8,-10.8 -29.6,-39.5 -24.2,-64.1l118 -536.3c5.4,-24.6 24.9,-35.8 43.7,-24.9l681.1 393c18.7,10.8 29.5,39.5 24.1,64.1l-117.9 536.3c-5.4,24.6 -25,35.8 -43.8,24.9z"/>
   <path class="fil1" d="M1827.1 1462.2l-681 -393c-18.8,-10.8 -29.6,-39.5 -24.2,-64.1l118 -536.3c5.4,-24.6 24.9,-35.8 43.7,-24.9l681.1 393c18.7,10.8 29.5,39.5 24.1,64.1l-117.9 536.3c-5.4,24.6 -25,35.8 -43.8,24.9z"/>
   <path class="fil0" d="M1833.1 1459.8l-681.1 -393c-18.7,-10.8 -29.5,-39.5 -24.1,-64.1l117.9 -536.3c2.7,-12.5 9.1,-21.4 17.2,-25.9 -10.8,2.8 -19.8,12.9 -23.1,28.3l-118 536.3c-5.4,24.6 5.4,53.3 24.2,64.1l681 393c9.3,5.4 18.8,5.3 26.6,1 -6.5,1.6 -13.6,0.7 -20.6,-3.4z"/>
   <path class="fil1" d="M1852.8 1520.4l-98.9 -13.1 -639 -368.9c-20.5,-11.8 -56.3,-10.4 -80,3.3l-452.7 261.3 -59.9 -7.9 0 34 0.1 0c-0.4,7.8 4,15.4 13.7,21l724.2 418.1c20.5,11.8 56.2,10.3 79.9,-3.4l493.1 -284.6c13.3,-7.6 19.9,-17.5 19.5,-26.8l0 -33z"/>
   <path class="fil4" d="M1372.7 1287.3l-45.4 -26.3 -499.1 0 -246 142 -59.9 -7.9 0 34 0.1 0c-0.4,7.8 4,15.4 13.7,21l724.2 418.1c10.8,6.2 25.9,8.7 41.2,7.7l71.2 -588.6z"/>
   <path class="fil0" d="M548.9 1398.6l-26.6 -3.5 0 34 0.1 0c-0.4,7.8 4,15.4 13.7,21l12.8 7.3 0 -58.8z"/>
   <path class="fil5" d="M1267.6 1871.5c19.4,7.4 47.1,5.8 67.9,-4.2l0 -75.7 -67.9 0 0 79.9z"/>
   <path class="fil2" d="M1260.3 1834.2l-724.2 -418.1c-20.5,-11.8 -17.9,-32.4 5.8,-46.1l493 -284.6c23.7,-13.7 59.5,-15.1 80,-3.3l724.1 418.1c20.5,11.8 18,32.5 -5.7,46.1l-493.1 284.6c-23.7,13.7 -59.4,15.2 -79.9,3.3z"/>
   <path class="fil3" d="M1833.3 1533.9l-493.1 284.6c-23.7,13.7 -59.4,15.2 -79.9,3.3l-724.2 -418.1c-6.7,-3.8 -10.9,-8.7 -12.7,-13.9 -3.2,9.7 0.9,19.5 12.7,26.3l724.2 418.1c20.5,11.9 56.2,10.4 79.9,-3.3l493.1 -284.6c15.9,-9.2 22.2,-21.5 18.5,-32.2 -2.4,7.1 -8.5,14.1 -18.5,19.8z"/>
   <path class="fil0" d="M844.1 1277.7l-32.8 -18.9c-2.6,-1.5 -2.3,-4.2 0.8,-5.9l38.6 -22.3c3.1,-1.8 7.7,-2 10.3,-0.5l32.8 18.9c2.6,1.6 2.3,4.2 -0.7,6l-38.7 22.3c-3.1,1.7 -7.7,2 -10.3,0.4z"/>
   <path class="fil0" d="M894.7 1306.9l-32.8 -18.9c-2.6,-1.5 -2.3,-4.1 0.8,-5.9l38.6 -22.3c3.1,-1.8 7.7,-2 10.3,-0.5l32.8 19c2.6,1.5 2.3,4.1 -0.8,5.9l-38.6 22.3c-3.1,1.8 -7.7,2 -10.3,0.4z"/>
   <path class="fil0" d="M945.3 1336.1l-32.8 -18.9c-2.6,-1.5 -2.3,-4.1 0.8,-5.9l38.7 -22.3c3,-1.8 7.6,-2 10.2,-0.5l32.8 19c2.6,1.5 2.3,4.1 -0.8,5.9l-38.6 22.3c-3.1,1.8 -7.7,2 -10.3,0.4z"/>
   <path class="fil0" d="M1015.3 1312l-32.8 -18.9c-2.6,-1.5 -2.3,-4.2 0.8,-5.9l32.4 -18.8c3.1,-1.7 7.7,-1.9 10.3,-0.4l32.8 18.9c2.6,1.6 2.3,4.2 -0.8,6l-32.5 18.7c-3,1.8 -7.6,1.9 -10.2,0.4z"/>
   <path class="fil0" d="M1065.9 1341.2l-32.8 -18.9c-2.6,-1.5 -2.3,-4.2 0.8,-5.9l32.4 -18.8c3.1,-1.7 7.7,-1.9 10.3,-0.4l32.7 18.9c2.7,1.6 2.4,4.2 -0.7,6l-32.4 18.7c-3.1,1.8 -7.7,2 -10.3,0.4z"/>
   <path class="fil0" d="M1116.5 1370.5l-32.8 -19c-2.6,-1.5 -2.3,-4.1 0.8,-5.9l32.4 -18.7c3,-1.8 7.7,-2 10.3,-0.5l32.7 19c2.7,1.5 2.4,4.1 -0.7,5.9l-32.4 18.7c-3.1,1.8 -7.7,2 -10.3,0.5z"/>
   <path class="fil0" d="M1167.1 1399.7l-32.8 -19c-2.6,-1.5 -2.3,-4.1 0.8,-5.9l32.4 -18.7c3.1,-1.8 7.7,-2 10.3,-0.4l32.8 18.9c2.6,1.5 2.2,4.1 -0.8,5.9l-32.4 18.7c-3.1,1.8 -7.7,2 -10.3,0.5z"/>
   <path class="fil0" d="M1217.7 1428.9l-32.8 -18.9c-2.6,-1.6 -2.3,-4.2 0.8,-6l32.4 -18.7c3.1,-1.7 7.7,-2 10.3,-0.4l32.7 18.9c2.7,1.5 2.4,4.1 -0.7,5.9l-32.4 18.8c-3.1,1.7 -7.7,1.9 -10.3,0.4z"/>
   <path class="fil0" d="M1268.3 1458.1l-32.8 -18.9c-2.6,-1.5 -2.3,-4.2 0.8,-5.9l32.4 -18.8c3.1,-1.7 7.6,-1.9 10.3,-0.4l32.7 18.9c2.7,1.5 2.4,4.2 -0.7,5.9l-32.5 18.8c-3,1.7 -7.6,1.9 -10.2,0.4z"/>
   <path class="fil0" d="M1318.9 1487.3l-32.8 -18.9c-2.6,-1.5 -2.3,-4.2 0.7,-5.9l32.5 -18.8c3.1,-1.7 7.7,-1.9 10.3,-0.4l32.7 18.9c2.7,1.5 2.3,4.2 -0.7,5.9l-32.4 18.8c-3.1,1.7 -7.7,1.9 -10.3,0.4z"/>
   <path class="fil0" d="M1369.5 1516.5l-32.8 -18.9c-2.6,-1.5 -2.3,-4.2 0.7,-5.9l32.5 -18.8c3.1,-1.7 7.6,-1.9 10.3,-0.4l32.8 18.9c2.6,1.5 2.2,4.2 -0.8,6l-32.5 18.7c-3,1.8 -7.6,1.9 -10.2,0.4z"/>
   <path class="fil0" d="M1420.1 1545.7l-32.8 -18.9c-2.6,-1.5 -2.3,-4.2 0.8,-5.9l32.4 -18.7c3,-1.8 7.6,-2 10.3,-0.5l32.8 18.9c2.6,1.6 2.2,4.2 -0.8,6l-32.5 18.7c-3,1.8 -7.6,2 -10.2,0.4z"/>
   <path class="fil0" d="M1470.7 1574.9l-32.8 -18.9c-2.6,-1.5 -2.3,-4.1 0.7,-5.9l32.5 -18.7c3.1,-1.8 7.6,-2 10.3,-0.5l32.7 18.9c2.7,1.6 2.3,4.2 -0.7,6l-32.4 18.7c-3.1,1.8 -7.7,2 -10.3,0.4z"/>
   <path class="fil0" d="M1089.8 1298.2l-32.7 -18.9c-2.7,-1.5 -2.3,-4.2 0.7,-5.9l32.5 -18.8c3,-1.7 7.6,-1.9 10.2,-0.4l32.8 18.9c2.6,1.5 2.3,4.2 -0.7,5.9l-32.5 18.8c-3,1.7 -7.6,1.9 -10.3,0.4z"/>
   <path class="fil0" d="M1038.5 1268.5l-32.8 -18.9c-2.6,-1.5 -2.3,-4.1 0.8,-5.9l32.4 -18.7c3.1,-1.8 7.7,-2 10.3,-0.5l32.8 19c2.6,1.5 2.3,4.1 -0.8,5.9l-32.5 18.7c-3,1.8 -7.6,2 -10.2,0.4z"/>
   <path class="fil0" d="M987 1238.9l-70.5 -40.8c-2.7,-1.5 -2.3,-4.2 0.7,-5.9l32.5 -18.8c3,-1.7 7.6,-1.9 10.2,-0.4l70.6 40.8c2.6,1.5 2.3,4.1 -0.7,5.9l-32.5 18.7c-3,1.8 -7.6,2 -10.3,0.5z"/>
   <path class="fil0" d="M1023 1202.7l-57.3 -33c-2.6,-1.5 -2.3,-4.2 0.8,-5.9l32.4 -18.8c3.1,-1.8 7.7,-1.9 10.3,-0.4l57.3 33c2.6,1.6 2.3,4.2 -0.8,6l-32.4 18.7c-3.1,1.8 -7.7,1.9 -10.3,0.4z"/>
   <path class="fil0" d="M1140.4 1327.4l-32.7 -18.9c-2.7,-1.5 -2.3,-4.2 0.7,-5.9l32.5 -18.8c3,-1.7 7.6,-1.9 10.2,-0.4l32.8 18.9c2.6,1.5 2.3,4.2 -0.7,5.9l-32.5 18.8c-3,1.7 -7.6,1.9 -10.3,0.4z"/>
   <path class="fil0" d="M1191 1356.6l-32.7 -18.9c-2.7,-1.5 -2.3,-4.2 0.7,-5.9l32.5 -18.8c3,-1.7 7.6,-1.9 10.2,-0.4l32.8 18.9c2.6,1.5 2.3,4.2 -0.7,6l-32.5 18.7c-3,1.8 -7.6,1.9 -10.3,0.4z"/>
   <path class="fil0" d="M1241.6 1385.8l-32.7 -18.9c-2.7,-1.5 -2.3,-4.2 0.7,-5.9l32.5 -18.8c3,-1.7 7.6,-1.9 10.2,-0.4l32.8 18.9c2.6,1.6 2.3,4.2 -0.7,6l-32.5 18.7c-3,1.8 -7.6,1.9 -10.3,0.4z"/>
   <path class="fil0" d="M1292.2 1415l-32.7 -18.9c-2.6,-1.5 -2.3,-4.1 0.7,-5.9l32.5 -18.7c3,-1.8 7.6,-2 10.2,-0.5l32.8 19c2.6,1.5 2.3,4.1 -0.7,5.9l-32.5 18.7c-3,1.8 -7.6,2 -10.3,0.4z"/>
   <path class="fil0" d="M1342.8 1444.3l-32.7 -19c-2.7,-1.5 -2.3,-4.1 0.7,-5.9l32.5 -18.7c3,-1.8 7.6,-2 10.2,-0.4l32.8 18.9c2.6,1.5 2.3,4.1 -0.7,5.9l-32.5 18.7c-3,1.8 -7.6,2 -10.3,0.5z"/>
   <path class="fil0" d="M1393.4 1473.5l-32.7 -18.9c-2.7,-1.6 -2.3,-4.2 0.7,-6l32.5 -18.7c3,-1.8 7.6,-2 10.2,-0.4l32.8 18.9c2.6,1.5 2.3,4.2 -0.7,5.9l-32.5 18.8c-3,1.7 -7.6,1.9 -10.3,0.4z"/>
   <path class="fil0" d="M1444 1502.7l-32.7 -18.9c-2.7,-1.5 -2.3,-4.2 0.7,-6l32.5 -18.7c3,-1.7 7.6,-1.9 10.2,-0.4l32.8 18.9c2.6,1.5 2.3,4.2 -0.7,5.9l-32.5 18.8c-3,1.7 -7.6,1.9 -10.3,0.4z"/>
   <path class="fil0" d="M1494.6 1531.9l-32.7 -18.9c-2.7,-1.5 -2.3,-4.2 0.7,-5.9l32.5 -18.8c3,-1.7 7.6,-1.9 10.2,-0.4l32.8 18.9c2.6,1.5 2.3,4.2 -0.7,5.9l-32.5 18.8c-3,1.7 -7.6,1.9 -10.3,0.4z"/>
   <path class="fil0" d="M1545.3 1561.1l-32.8 -18.9c-2.7,-1.5 -2.3,-4.2 0.7,-5.9l32.5 -18.8c3,-1.7 7.6,-1.9 10.2,-0.4l32.8 18.9c2.6,1.6 2.3,4.2 -0.7,5.9l-32.5 18.8c-3,1.7 -7.6,1.9 -10.2,0.4z"/>
   <path class="fil0" d="M1635.2 1613.1l-71.5 -41.3c-2.6,-1.6 -2.3,-4.2 0.7,-5.9l32.5 -18.8c3,-1.7 7.6,-1.9 10.3,-0.4l71.4 41.3c2.7,1.5 2.4,4.1 -0.7,5.9l-32.4 18.7c-3.1,1.8 -7.7,2 -10.3,0.5z"/>
   <path class="fil0" d="M1733.7 1556.2l-60.3 -34.9c-2.7,-1.5 -2.3,-4.1 0.7,-5.9l32.5 -18.7c3,-1.8 7.6,-2 10.2,-0.5l60.4 34.9c2.6,1.5 2.3,4.2 -0.8,5.9l-32.4 18.7c-3.1,1.8 -7.7,2 -10.3,0.5z"/>
   <path class="fil0" d="M1229.1 1321.7l-32.8 -18.9c-2.6,-1.5 -2.3,-4.2 0.7,-5.9l32.5 -18.8c3,-1.7 7.6,-1.9 10.3,-0.4l32.7 18.9c2.6,1.5 2.3,4.2 -0.7,5.9l-32.5 18.8c-3,1.7 -7.6,1.9 -10.2,0.4z"/>
   <path class="fil0" d="M1177.2 1291.8l-32.8 -19c-2.6,-1.5 -2.3,-4.1 0.8,-5.9l32.4 -18.7c3.1,-1.8 7.7,-2 10.3,-0.5l32.7 19c2.7,1.5 2.4,4.1 -0.7,5.9l-32.4 18.7c-3.1,1.8 -7.7,2 -10.3,0.5z"/>
   <path class="fil0" d="M1125.3 1261.8l-32.7 -18.9c-2.7,-1.5 -2.3,-4.2 0.7,-5.9l32.5 -18.8c3,-1.7 7.6,-1.9 10.2,-0.4l32.8 18.9c2.6,1.5 2.3,4.2 -0.7,6l-32.5 18.7c-3,1.7 -7.6,1.9 -10.3,0.4z"/>
   <path class="fil0" d="M1073.5 1231.9l-32.8 -19c-2.6,-1.5 -2.3,-4.1 0.8,-5.9l32.4 -18.7c3.1,-1.8 7.6,-2 10.3,-0.4l32.7 18.9c2.7,1.5 2.4,4.2 -0.7,5.9l-32.5 18.8c-3,1.7 -7.6,1.9 -10.2,0.4z"/>
   <path class="fil0" d="M1279.6 1350.9l-32.7 -18.9c-2.6,-1.5 -2.3,-4.2 0.7,-5.9l32.5 -18.8c3,-1.7 7.6,-1.9 10.3,-0.4l32.7 18.9c2.6,1.5 2.3,4.2 -0.7,5.9l-32.5 18.8c-3,1.7 -7.6,1.9 -10.3,0.4z"/>
   <path class="fil0" d="M1330.3 1380.1l-32.8 -18.9c-2.6,-1.5 -2.3,-4.2 0.7,-5.9l32.5 -18.8c3,-1.7 7.6,-1.9 10.2,-0.4l32.8 18.9c2.6,1.5 2.3,4.2 -0.7,6l-32.5 18.7c-3,1.8 -7.6,2 -10.2,0.4z"/>
   <path class="fil0" d="M1380.9 1409.3l-32.8 -18.9c-2.6,-1.5 -2.3,-4.2 0.7,-5.9l32.5 -18.8c3,-1.7 7.6,-1.9 10.2,-0.4l32.8 18.9c2.7,1.6 2.3,4.2 -0.7,6l-32.5 18.7c-3,1.8 -7.6,1.9 -10.2,0.4z"/>
   <path class="fil0" d="M1431.4 1438.5l-32.7 -18.9c-2.6,-1.5 -2.3,-4.1 0.7,-5.9l32.5 -18.7c3,-1.8 7.6,-2 10.2,-0.5l32.8 19c2.6,1.5 2.3,4.1 -0.7,5.9l-32.5 18.7c-3,1.8 -7.6,2 -10.3,0.4z"/>
   <path class="fil0" d="M1482.1 1467.8l-32.8 -18.9c-2.7,-1.6 -2.3,-4.2 0.7,-6l32.5 -18.7c3,-1.8 7.6,-2 10.3,-0.4l32.7 18.9c2.7,1.5 2.3,4.1 -0.7,5.9l-32.5 18.7c-3,1.8 -7.6,2 -10.2,0.5z"/>
   <path class="fil0" d="M1532.6 1497l-32.7 -18.9c-2.7,-1.6 -2.3,-4.2 0.7,-6l32.5 -18.7c3,-1.8 7.6,-2 10.2,-0.4l32.8 18.9c2.6,1.5 2.3,4.1 -0.7,5.9l-32.5 18.7c-3,1.8 -7.6,2 -10.3,0.5z"/>
   <path class="fil0" d="M1583.3 1526.2l-32.8 -18.9c-2.6,-1.5 -2.3,-4.2 0.7,-6l32.5 -18.7c3,-1.7 7.6,-1.9 10.3,-0.4l32.7 18.9c2.6,1.5 2.3,4.2 -0.7,5.9l-32.5 18.8c-3,1.7 -7.6,1.9 -10.2,0.4z"/>
   <path class="fil0" d="M1633.8 1555.4l-32.7 -18.9c-2.7,-1.5 -2.3,-4.2 0.7,-5.9l32.5 -18.8c3,-1.7 7.6,-1.9 10.2,-0.4l32.8 18.9c2.6,1.5 2.3,4.2 -0.7,5.9l-32.5 18.8c-3,1.7 -7.6,1.9 -10.3,0.4z"/>
   <path class="fil0" d="M1684.5 1584.6l-32.8 -18.9c-2.6,-1.5 -2.3,-4.2 0.7,-5.9l32.5 -18.8c3,-1.7 7.6,-1.9 10.2,-0.4l32.8 18.9c2.6,1.5 2.3,4.2 -0.7,5.9l-32.5 18.8c-3,1.7 -7.6,1.9 -10.2,0.4z"/>
   <path class="fil0" d="M1202.4 1249.4l-32.8 -18.9c-2.6,-1.5 -2.3,-4.2 0.8,-5.9l32.5 -18.7c3,-1.8 7.6,-2 10.2,-0.5l32.8 18.9c2.6,1.6 2.3,4.2 -0.8,6l-32.4 18.7c-3.1,1.8 -7.7,2 -10.3,0.4z"/>
   <path class="fil0" d="M1152.1 1220.4l-32.8 -18.9c-2.6,-1.6 -2.3,-4.2 0.7,-6l32.5 -18.7c3,-1.8 7.6,-2 10.3,-0.4l32.7 18.9c2.7,1.5 2.3,4.1 -0.7,5.9l-32.5 18.7c-3,1.8 -7.6,2 -10.2,0.5z"/>
   <path class="fil0" d="M1101.7 1191.3l-32.8 -18.9c-2.6,-1.5 -2.3,-4.2 0.8,-5.9l32.5 -18.8c3,-1.7 7.6,-1.9 10.2,-0.4l32.8 18.9c2.6,1.5 2.3,4.2 -0.8,5.9l-32.4 18.8c-3.1,1.7 -7.7,1.9 -10.3,0.4z"/>
   <path class="fil0" d="M1051.4 1162.2l-32.8 -18.9c-2.6,-1.5 -2.3,-4.1 0.7,-5.9l32.5 -18.7c3,-1.8 7.6,-2 10.3,-0.5l32.7 18.9c2.7,1.6 2.3,4.2 -0.7,6l-32.5 18.7c-3,1.8 -7.6,2 -10.2,0.4z"/>
   <path class="fil0" d="M1103.1 1132.3l-32.7 -18.9c-2.7,-1.5 -2.3,-4.1 0.7,-5.9l10.7 -6.2c3.1,-1.8 7.7,-1.9 10.3,-0.4l32.8 18.9c2.6,1.5 2.3,4.2 -0.8,5.9l-10.7 6.2c-3,1.8 -7.6,2 -10.3,0.4z"/>
   <path class="fil0" d="M1168.8 1170.3l-32.7 -18.9c-2.6,-1.6 -2.3,-4.2 0.7,-6l10.8 -6.2c3,-1.7 7.6,-1.9 10.2,-0.4l32.8 18.9c2.6,1.5 2.3,4.2 -0.8,6l-10.7 6.2c-3,1.7 -7.6,1.9 -10.3,0.4z"/>
   <path class="fil0" d="M1219 1199.2l-32.8 -18.9c-2.6,-1.5 -2.3,-4.2 0.7,-5.9l10.8 -6.2c3,-1.8 7.6,-2 10.3,-0.4l32.7 18.9c2.6,1.5 2.3,4.1 -0.7,5.9l-10.8 6.2c-3,1.7 -7.6,1.9 -10.2,0.4z"/>
   <path class="fil0" d="M1269.1 1228.2l-32.7 -18.9c-2.7,-1.6 -2.4,-4.2 0.7,-6l10.7 -6.2c3.1,-1.7 7.6,-1.9 10.3,-0.4l32.8 18.9c2.6,1.5 2.2,4.2 -0.8,5.9l-10.7 6.2c-3.1,1.8 -7.7,2 -10.3,0.5z"/>
   <path class="fil0" d="M1319.3 1257.1l-32.8 -18.9c-2.6,-1.5 -2.3,-4.2 0.7,-5.9l10.8 -6.2c3,-1.8 7.6,-2 10.2,-0.5l32.8 19c2.6,1.5 2.3,4.1 -0.7,5.9l-10.8 6.2c-3,1.8 -7.6,1.9 -10.2,0.4z"/>
   <path class="fil0" d="M1599.2 1418.7l-32.8 -18.9c-2.6,-1.5 -2.3,-4.2 0.7,-5.9l10.8 -6.2c3,-1.8 7.6,-1.9 10.2,-0.4l32.8 18.9c2.6,1.5 2.3,4.1 -0.7,5.9l-10.8 6.2c-3,1.8 -7.6,1.9 -10.2,0.4z"/>
   <path class="fil0" d="M1649.3 1447.7l-32.8 -18.9c-2.6,-1.6 -2.3,-4.2 0.8,-6l10.7 -6.2c3,-1.7 7.6,-1.9 10.3,-0.4l32.8 18.9c2.6,1.5 2.2,4.2 -0.8,5.9l-10.7 6.3c-3.1,1.7 -7.7,1.9 -10.3,0.4z"/>
   <path class="fil0" d="M1699.5 1476.6l-32.8 -18.9c-2.6,-1.5 -2.3,-4.2 0.7,-5.9l10.7 -6.2c3.1,-1.8 7.7,-2 10.3,-0.4l32.8 18.9c2.6,1.5 2.3,4.1 -0.8,5.9l-10.7 6.2c-3,1.7 -7.6,1.9 -10.2,0.4z"/>
   <path class="fil0" d="M1749.6 1505.6l-32.8 -19c-2.6,-1.5 -2.3,-4.1 0.8,-5.9l10.7 -6.2c3,-1.7 7.6,-1.9 10.3,-0.4l32.7 18.9c2.6,1.5 2.3,4.2 -0.7,5.9l-10.8 6.2c-3,1.8 -7.6,2 -10.2,0.5z"/>
   <path class="fil0" d="M1253 1278.7l-32.8 -19c-2.6,-1.5 -2.3,-4.1 0.8,-5.9l32.4 -18.7c3.1,-1.8 7.7,-2 10.3,-0.5l32.8 19c2.6,1.5 2.3,4.1 -0.8,5.9l-32.4 18.7c-3.1,1.8 -7.7,2 -10.3,0.5z"/>
   <path class="fil0" d="M1303.6 1307.9l-32.8 -18.9c-2.6,-1.6 -2.3,-4.2 0.8,-6l32.5 -18.7c3,-1.8 7.6,-2 10.2,-0.4l32.8 18.9c2.6,1.5 2.3,4.1 -0.8,5.9l-32.4 18.7c-3.1,1.8 -7.7,2 -10.3,0.5z"/>
   <path class="fil0" d="M1354.2 1337.1l-32.8 -18.9c-2.6,-1.6 -2.3,-4.2 0.8,-6l32.4 -18.7c3.1,-1.8 7.7,-1.9 10.3,-0.4l32.8 18.9c2.6,1.5 2.3,4.2 -0.8,5.9l-32.4 18.8c-3.1,1.7 -7.7,1.9 -10.3,0.4z"/>
   <path class="fil0" d="M1404.8 1366.3l-32.8 -18.9c-2.6,-1.5 -2.3,-4.2 0.8,-6l32.4 -18.7c3.1,-1.8 7.7,-1.9 10.3,-0.4l32.8 18.9c2.6,1.5 2.3,4.2 -0.8,5.9l-32.4 18.8c-3.1,1.7 -7.7,1.9 -10.3,0.4z"/>
   <path class="fil0" d="M1455.4 1395.5l-32.8 -18.9c-2.6,-1.5 -2.3,-4.2 0.8,-5.9l32.4 -18.8c3.1,-1.7 7.7,-1.9 10.3,-0.4l32.8 18.9c2.6,1.5 2.3,4.2 -0.8,5.9l-32.4 18.8c-3.1,1.7 -7.7,1.9 -10.3,0.4z"/>
   <path class="fil0" d="M1506 1424.7l-32.8 -18.9c-2.6,-1.5 -2.3,-4.2 0.8,-5.9l32.4 -18.8c3.1,-1.7 7.7,-1.9 10.3,-0.4l32.8 18.9c2.6,1.5 2.3,4.2 -0.8,5.9l-32.4 18.8c-3.1,1.7 -7.7,1.9 -10.3,0.4z"/>
   <path class="fil0" d="M1556.6 1453.9l-32.8 -18.9c-2.6,-1.5 -2.3,-4.2 0.8,-5.9l32.4 -18.8c3.1,-1.7 7.7,-1.9 10.3,-0.4l32.8 18.9c2.6,1.6 2.3,4.2 -0.8,6l-32.4 18.7c-3.1,1.8 -7.7,1.9 -10.3,0.4z"/>
   <path class="fil0" d="M1607.2 1483.1l-32.8 -18.9c-2.6,-1.5 -2.3,-4.1 0.8,-5.9l32.4 -18.7c3.1,-1.8 7.7,-2 10.3,-0.5l32.8 19c2.6,1.5 2.3,4.1 -0.8,5.9l-32.4 18.7c-3.1,1.8 -7.7,2 -10.3,0.4z"/>
   <path class="fil0" d="M1657.8 1512.4l-32.8 -19c-2.6,-1.5 -2.3,-4.1 0.8,-5.9l32.4 -18.7c3.1,-1.8 7.7,-2 10.3,-0.5l32.8 19c2.6,1.5 2.3,4.1 -0.8,5.9l-32.4 18.7c-3.1,1.8 -7.7,2 -10.3,0.5z"/>
   <path class="fil0" d="M963.7 1282.3l-96.5 -55.8c-2.6,-1.5 -2.3,-4.1 0.8,-5.9l32.4 -18.7c3.1,-1.8 7.7,-2 10.3,-0.4l96.5 55.7c2.6,1.5 2.3,4.1 -0.7,5.9l-32.5 18.7c-3.1,1.8 -7.6,2 -10.3,0.5z"/>
   <path class="fil0" d="M1585.4 1641.2l-96.5 -55.8c-2.7,-1.5 -2.3,-4.1 0.7,-5.9l32.5 -18.7c3,-1.8 7.6,-2 10.2,-0.5l96.5 55.8c2.6,1.5 2.3,4.1 -0.7,5.9l-32.5 18.7c-3,1.8 -7.6,2 -10.2,0.5z"/>
   <path class="fil0" d="M1383 1588.8l-32.8 -18.9c-2.6,-1.5 -2.3,-4.1 0.8,-5.9l38.6 -22.3c3.1,-1.8 7.7,-2 10.3,-0.4l32.8 18.9c2.6,1.5 2.3,4.2 -0.8,5.9l-38.6 22.3c-3.1,1.8 -7.7,2 -10.3,0.4z"/>
   <path class="fil0" d="M1015.5 1376.7l-52.4 -30.2c-2.6,-1.6 -2.3,-4.2 0.8,-6l38.6 -22.3c3.1,-1.8 7.7,-2 10.3,-0.4l52.4 30.2c2.7,1.5 2.3,4.2 -0.7,5.9l-38.7 22.4c-3,1.7 -7.6,1.9 -10.3,0.4z"/>
   <path class="fil0" d="M1334.3 1560.7l-52.5 -30.2c-2.6,-1.6 -2.3,-4.2 0.8,-6l38.6 -22.3c3.1,-1.7 7.7,-2 10.3,-0.4l52.4 30.2c2.6,1.6 2.3,4.2 -0.7,6l-38.7 22.3c-3,1.7 -7.6,1.9 -10.2,0.4z"/>
   <path class="fil0" d="M1088.5 1418.9l-52.4 -30.3c-2.6,-1.5 -2.3,-4.2 0.8,-5.9l38.7 -22.4c3,-1.7 7.6,-1.9 10.2,-0.4l52.4 30.3c2.6,1.5 2.3,4.1 -0.7,5.9l-38.7 22.3c-3,1.8 -7.6,2 -10.3,0.5z"/>
   <path class="fil0" d="M1086.2 1360.1l227.8 131.6c2.8,1.6 2.8,4.2 0,5.9l-39.4 22.7c-2.9,1.7 -7.5,1.7 -10.3,0l-227.8 -131.5 49.7 -28.7z"/>
   <path class="fil0" d="M1524.4 1641.8l36.5 21.1c2.2,1.2 1.9,3.4 -0.6,4.9l-15.8 9.1c-2.5,1.4 -6.3,1.6 -8.4,0.3l-36.5 -21c-2.2,-1.3 -1.9,-3.5 0.6,-4.9l15.8 -9.1c2.5,-1.5 6.2,-1.6 8.4,-0.4z"/>
   <path class="fil0" d="M1473.4 1612.4l36.5 21c2.1,1.3 1.9,3.4 -0.6,4.9l-15.8 9.1c-2.5,1.5 -6.3,1.6 -8.4,0.4l-36.6 -21.1c-2.1,-1.2 -1.8,-3.4 0.7,-4.9l15.8 -9.1c2.5,-1.4 6.2,-1.6 8.4,-0.3z"/>
   <path class="fil0" d="M1422.8 1583.2l36.5 21c2.1,1.3 1.9,3.5 -0.6,4.9l-15.8 9.1c-2.5,1.5 -6.3,1.6 -8.4,0.4l-36.5 -21.1c-2.2,-1.3 -1.9,-3.4 0.6,-4.9l15.8 -9.1c2.5,-1.4 6.2,-1.6 8.4,-0.3z"/>
   <path class="fil0" d="M1501.3 1596.2l36.5 21.1c2.2,1.2 1.9,3.4 -0.6,4.9l-15.8 9.1c-2.5,1.4 -6.2,1.6 -8.4,0.3l-36.5 -21c-2.2,-1.3 -1.9,-3.4 0.6,-4.9l15.8 -9.1c2.5,-1.4 6.3,-1.6 8.4,-0.4z"/>
   <polygon class="fil2" points="1399.6,714.2 1317.3,666.7 1320.8,649 1403.1,696.5 "/>
   <polygon class="fil3" points="1390.7,755.4 1308.4,707.9 1311.9,690.2 1394.2,737.7 "/>
   <polygon class="fil2" points="1794.6,1326.6 1712.3,1279.1 1715.8,1261.4 1798.1,1308.9 "/>
   <polygon class="fil2" points="1372.8,837.8 1290.5,790.3 1294.1,772.6 1376.3,820.1 "/>
   <path class="fil6" d="M1540 925.2l-83 -47.9c-7.3,-4.2 -11.7,-14.7 -9.7,-23.4l18 -81.1c1.9,-8.7 9.5,-12.3 16.8,-8.1l83 47.9c7.3,4.3 11.7,14.8 9.7,23.5l-18 81c-2,8.7 -9.5,12.4 -16.8,8.1z"/>
   <path class="fil7" d="M1684.7 1008.8l-83 -47.9c-7.3,-4.3 -11.7,-14.7 -9.8,-23.5l18.1 -81c1.9,-8.7 9.5,-12.4 16.8,-8.1l83 47.9c7.3,4.2 11.7,14.7 9.7,23.4l-18 81.1c-1.9,8.7 -9.5,12.3 -16.8,8.1z"/>
   <path class="fil3" d="M1507.9 1069.2l-82.9 -47.9c-7.4,-4.2 -11.8,-14.7 -9.8,-23.4l18 -81.1c2,-8.7 9.5,-12.3 16.8,-8.1l83 47.9c7.3,4.2 11.7,14.8 9.8,23.5l-18.1 81c-1.9,8.7 -9.4,12.4 -16.8,8.1z"/>
   <path class="fil4" d="M1652.6 1152.8l-82.9 -47.9c-7.4,-4.3 -11.7,-14.8 -9.8,-23.5l18 -81c2,-8.8 9.5,-12.4 16.9,-8.1l82.9 47.8c7.4,4.3 11.7,14.8 9.8,23.5l-18.1 81.1c-1.9,8.7 -9.4,12.3 -16.8,8.1z"/>
  </g>
  <path class="fil8" d="M781.7 1032.4l-63.7 -36.8 -125.6 -72.5 25.1 -14.5 164.2 -94.8 189.2 109.3 -189.2 109.3zm-92.3 -67.4l92.3 53.3 164.9 -95.2 -164.9 -95.2 -152.9 88.2 -12 7 72.6 41.9z"/>
  <path class="fil0" d="M1951.7 671l-90.8 -52.4 189.3 -109.3 102.8 59.4 86.4 49.9 -22.5 13 -20.3 11.7 -23.6 13.6 -29.4 17 -46.5 26.8 -46.9 27.2 -1.3 -0.8 -4.5 -2.6 -4.4 -2.5 -4.5 -2.6 -4.5 -2.6 -79.3 -45.8zm149.4 13.4l39.3 -22.7 74.7 -43.1 -76.5 -44.2 -88.4 -51 -164.9 95.2 77.9 45 80 46.2 4.5 2.6 2.5 1.4 50.9 -29.4z"/>
  <g id="_1498061904">
   <path class="fil1" d="M1998.4 1241.5l256 147.8 255.9 -147.8 -255.9 -147.7 -256 147.7zm256 161.9l-280.3 -161.9 280.3 -161.8 280.2 161.8 -280.2 161.9z"/>
   <polygon class="fil1" points="2438.8,1188.3 2254.4,1294.8 2254.4,1081.9 2438.8,975.4 "/>
   <polygon class="fil2" points="2254.4,1081.9 2070,975.4 2254.4,868.9 2438.8,975.4 "/>
   <polygon class="fil0" points="2254.4,1294.8 2070,1188.3 2070,975.4 2254.4,1081.9 "/>
   <polygon class="fil3" points="2187.9,1179.7 2136.4,1150 2136.4,1090.4 2187.9,1120.2 "/>
  </g>
 </g>
</svg>
