<?xml version="1.0" encoding="UTF-8"?>
<!DOCTYPE svg PUBLIC "-//W3C//DTD SVG 1.1//EN" "http://www.w3.org/Graphics/SVG/1.1/DTD/svg11.dtd">
<!-- Creator: CorelDRAW 2019 (64-Bit) -->
<svg xmlns="http://www.w3.org/2000/svg" xml:space="preserve" width="77px" height="118px" version="1.1" style="shape-rendering:geometricPrecision; text-rendering:geometricPrecision; image-rendering:optimizeQuality; fill-rule:evenodd; clip-rule:evenodd"
viewBox="0 0 770 1184.6"
 xmlns:xlink="http://www.w3.org/1999/xlink"
 xmlns:xodm="http://www.corel.com/coreldraw/odm/2003">
 <defs>
  <style type="text/css">
   <![CDATA[
    .fil0 {fill:#EDEDED;fill-rule:nonzero}
   ]]>
  </style>
 </defs>
 <g id="Layer_x0020_1">
  <metadata id="CorelCorpID_0Corel-Layer"/>
  <g id="_971517040">
   <path class="fil0" d="M408 124.2c-17.3,-17.3 -17.3,-45.4 0,-62.7 17.3,-17.2 45.4,-17.2 62.7,0l254.7 254.8c17.3,17.3 17.3,45.3 0,62.6 -17.3,17.3 -45.3,17.3 -62.6,0l-254.8 -254.7z"/>
   <path class="fil0" d="M282.4 61.5c17.3,-17.2 45.4,-17.2 62.7,0 17.3,17.3 17.3,45.4 0,62.7l-254.8 254.7c-17.3,17.3 -45.3,17.3 -62.6,0 -17.3,-17.3 -17.3,-45.3 0,-62.6l254.7 -254.8z"/>
   <path class="fil0" d="M470.7 1124.3c-17.3,17.3 -45.4,17.3 -62.7,0 -17.3,-17.3 -17.3,-45.3 0,-62.6l254.8 -254.8c17.3,-17.2 45.3,-17.2 62.6,0 17.3,17.3 17.3,45.4 0,62.7l-254.7 254.7z"/>
   <path class="fil0" d="M345.1 1061.7c17.3,17.3 17.3,45.3 0,62.6 -17.3,17.3 -45.4,17.3 -62.7,0l-254.7 -254.7c-17.3,-17.3 -17.3,-45.4 0,-62.7 17.3,-17.2 45.3,-17.2 62.6,0l254.8 254.8z"/>
  </g>
 </g>
</svg>
