<?xml version="1.0" encoding="UTF-8"?>
<!DOCTYPE svg PUBLIC "-//W3C//DTD SVG 1.1//EN" "http://www.w3.org/Graphics/SVG/1.1/DTD/svg11.dtd">
<!-- Creator: CorelDRAW 2019 (64-Bit) -->
<svg xmlns="http://www.w3.org/2000/svg" xml:space="preserve" width="77px" height="104px" version="1.1" style="shape-rendering:geometricPrecision; text-rendering:geometricPrecision; image-rendering:optimizeQuality; fill-rule:evenodd; clip-rule:evenodd"
viewBox="0 0 770 1040"
 xmlns:xlink="http://www.w3.org/1999/xlink"
 xmlns:xodm="http://www.corel.com/coreldraw/odm/2003">
 <defs>
  <style type="text/css">
   <![CDATA[
    .fil0 {fill:url(#id0)}
   ]]>
  </style>
  <linearGradient id="id0" gradientUnits="userSpaceOnUse" x1="385" y1="1006.7" x2="385" y2="33.3">
   <stop offset="0" style="stop-opacity:0.74902; stop-color:#EDEDED"/>
   <stop offset="0.501961" style="stop-opacity:0; stop-color:#EDEDED"/>
   <stop offset="1" style="stop-opacity:0.74902; stop-color:#EDEDED"/>
  </linearGradient>
 </defs>
 <g id="Layer_x0020_1">
  <metadata id="CorelCorpID_0Corel-Layer"/>
  <path class="fil0" d="M385 33.3l28.4 18.3 -47.6 116.4 -55.3 -86.5 74.5 -48.2 0 0zm35.7 23.1l152.8 98.6 14.2 9.2 -96.7 199.8 -119.6 -187.2 49.3 -120.4 0 0zm174.3 112.5l166.9 107.8 0 243.3 0 5.4 -71.2 151.1 -194.2 -304 98.5 -203.6zm166.9 376.6l0 217.8 -11.1 7.1 -54.7 -85.4 65.8 -139.5zm-18.5 229.7l-128.9 83.2 77.3 -164.1 51.6 80.9zm-142.5 92.1l-27.4 17.7 -99.9 64.4 -154 -211.3 172.4 -356.3 194.3 304 -85.4 181.5 0 0zm-134.6 86.9l-81.3 52.5 -148.8 -96.1 79.1 -163.6 151 207.2 0 0zm-237.3 -48.4l-32.4 -20.8 -91 -58.8 96.1 -234.9 107.8 147.9 -80.5 166.6 0 0zm-130.8 -84.3l-90.1 -58.2 0 -243.3 0 -194.4 187.7 257.5 -97.6 238.4 0 0zm-90.1 -510.7l0 -34.1 188.5 -121.7 106.5 -68.8 58.6 91.7 -162 395.7 -191.6 -262.8zm305.7 419.5l172.8 -357.1 -119.2 -186.6 -161.8 395.1 108.2 148.6 0 0z"/>
 </g>
</svg>
