<?xml version="1.0" encoding="UTF-8"?>
<!DOCTYPE svg PUBLIC "-//W3C//DTD SVG 1.1//EN" "http://www.w3.org/Graphics/SVG/1.1/DTD/svg11.dtd">
<!-- Creator: CorelDRAW 2019 (64-Bit) -->
<svg xmlns="http://www.w3.org/2000/svg" xml:space="preserve" width="77px" height="90px" version="1.1" style="shape-rendering:geometricPrecision; text-rendering:geometricPrecision; image-rendering:optimizeQuality; fill-rule:evenodd; clip-rule:evenodd"
viewBox="0 0 770 900"
 xmlns:xlink="http://www.w3.org/1999/xlink"
 xmlns:xodm="http://www.corel.com/coreldraw/odm/2003">
 <defs>
  <style type="text/css">
   <![CDATA[
    .fil0 {fill:url(#id0)}
   ]]>
  </style>
  <linearGradient id="id0" gradientUnits="userSpaceOnUse" x1="385.7" y1="736.8" x2="385.7" y2="-115.9">
   <stop offset="0" style="stop-opacity:0.74902; stop-color:#EDEDED"/>
   <stop offset="0.509804" style="stop-opacity:0; stop-color:#EDEDED"/>
   <stop offset="1" style="stop-opacity:0.74902; stop-color:#EDEDED"/>
  </linearGradient>
 </defs>
 <g id="Layer_x0020_1">
  <metadata id="CorelCorpID_0Corel-Layer"/>
  <path class="fil0" d="M13.5 527.5c13.1,0 24.5,-3.2 32.6,13.5 1.9,3.7 2.6,5.6 3.3,9.3 2.5,13.4 5,8.8 21.1,16.6 5,2.4 10,4.9 16.2,7.5l17.2 8c45.1,19.2 31.2,20.7 50.1,1.8 14,-14.1 27.3,-13.4 45.2,-13.4 6.2,0 18.4,8.4 21,8.4 4.7,0 50.1,-48.1 56.9,-54.8 17.1,-17 6,-8.8 6,-23.4 0,-18.5 -0.5,-8.6 2.7,-22.4 -4.9,-7.3 -24.7,-13.4 -33.8,-17.8 -3.1,-1.5 0.3,-0.1 -3.9,-1.7l-61.8 -27.6c-2.9,-1.4 -1.7,-1 -3.7,-1.9l-11.3 -5.4c-11,5.8 -17,12.5 -30.7,12.5 -5.7,0 -16.7,-6.1 -19.9,-9.4 -11.2,-11.3 -11.1,-30.3 -2.5,-42.3 13,-18.2 52.5,-17.7 57.2,18.3 0.2,1.6 0.1,2.1 0.4,3.8 1.6,7.4 6.2,7.8 14.2,11l85 37.9c3.5,1.5 4.5,1.7 7.8,3.4 22.5,11.7 13.8,3 32.4,2.5 12.1,-0.4 11.7,-6.1 19.9,-23.4 2.6,-5.5 4.1,-10.1 6.9,-15.4l13.9 -29.5c22.9,-44.5 9.6,-23.2 9.6,-47.7 0,-7.6 7.2,-19.5 15.3,-19.5 32.8,0 19.5,21.4 28.7,30l29.6 23.5c10.5,7.8 18.5,14.9 28.9,22.7l22 17.2c14.4,12 6.5,1.6 30.5,1.6 8,0 13.7,4 18.2,9.7 2.2,2.7 3.8,4.5 5,9 0.2,0.6 1.1,5.4 1.2,5.7 1.3,14.3 -6.5,7.6 22.5,25.1l66 38.7c3,1.7 3.3,2.2 7,4.2 2.3,1.3 4.6,2.6 7.2,3.9 13.3,-11.5 28.1,-22.4 40.9,-34.5 5.6,-5.4 40.1,-31.3 40.1,-36.7 0,-8.8 -4.8,-28.8 21.2,-33.2 10.4,-1.8 6.8,-6.1 6.7,-21.3l1.4 -148c0,-4.1 -6.6,-6.7 -9.7,-8.5 -3.6,-2.1 -7.7,-4.6 -11.3,-6.8 -7.6,-4.6 -14.7,-9.2 -22.7,-13.6 -28.3,-15.4 -84.7,-49.9 -115.8,-68.6 -8.1,-5 -15.4,-9 -23.7,-14 -7.9,-4.7 -14.6,-8.8 -22.7,-13.6l-138.4 -82.2c-6.2,-3.7 -18.1,-11.9 -24.4,-13.4 -10.7,7.2 -23.4,13 -34.9,19.6 -25.2,14.6 -63,36.8 -87.5,49.3 -6.5,3.3 -11.6,6.4 -17.9,10.1l-105.6 59.2c-6,3.5 -12,6.5 -18,9.9l-104.9 58.6c-3.1,2.4 -3.6,5.3 -4,9.9 -1.7,18 -0.1,50.6 -0.1,69.7 0,72.2 -2.8,144.9 -2.8,217.9zm736.1 121.5c6.7,0 4.2,-13.1 4.2,-19.5l-0.1 -71.3c2,-35.3 1.4,-58.9 1.4,-94.9 -20.7,0 -12.7,-7.8 -23.4,1.6l-60.6 51.3c-14.8,11.9 -18.2,7 9.6,43.9 3.7,4.8 5.9,7.8 9.4,13 6.1,9.3 12.5,16.8 18.7,25.9 3.4,5 5.5,8.2 9.2,13.1 3.7,4.9 5.8,8.7 9.2,13.2 3.2,4.3 6.4,8.1 9.5,12.8 2.7,4.1 6.9,10.9 12.9,10.9zm-726.3 -69.8c-5.1,0 -3.4,-1.3 -9.8,-1.4 -3.2,13.6 -1.4,62.4 -1.4,79.6 0,4.2 7,6.9 10.6,9 27.1,16.1 66.3,40.6 91.3,53.9l32.4 -47.3c17.4,-24.8 -8.6,-3.7 -8.6,-58.9 -2,-1.3 -3.5,-2.6 -5.9,-3.9l-78.6 -35.9c-17,-8.2 -13.3,4.9 -30,4.9zm473.5 43.3c4.1,0 9,-3 13.9,-4.2 0.3,-3.6 0.7,-3.8 0.7,-5.6l-0.7 -124.3c0,-4.8 0.9,-3.2 0.8,-5.7 0,-1.1 -0.1,-2 -0.5,-2.9 -1.9,-4.4 -8.1,-5.8 -12.3,-8.7 -5.1,-3.5 -10.3,-13.8 -10.3,-21.8 0,-14.1 4.8,-8 -8,-18.6l-62.8 -50.3c-13.9,-11.2 -16.3,-15.7 -24.8,-14.3 -12.3,2.1 -11.1,4.3 -18.9,21.8 -2.3,5.1 -4.1,8.9 -6.7,14.3l-19.6 41.8c-16.5,34.3 -8.9,18 -0.4,36.1 12.4,26.5 -10.3,4.5 27.8,37.9 1.1,1 1,0.8 2.3,1.9l31.8 26.8c3.9,3.5 5.7,6.2 10,9.6l21.3 17.8c0.2,0.2 0.5,0.5 0.7,0.7l32.9 28.5c2.1,2 22.5,19.2 22.8,19.2zm-170.4 -93.6c-34,0 -14.4,-1 -28,-4.2 -2.9,2 -65.6,62.5 -65.6,67.1 0,2.8 9.7,14.7 9.7,30.7 0,8.8 -3.9,16.5 -5.5,23.7 6.6,7 40,29.5 50.6,37.5 10.2,7.6 13.8,-3.9 20.6,-3.9 14,0 29.6,-1.7 38.9,18.3 5.2,11.2 9,6.5 27.4,0.5l19.3 -5.9c5.9,-1.4 5.3,-1.5 9.6,-3l38.7 -11.5c38.6,-13.5 26.8,-2.8 33.3,-29.5 1.4,-5.8 5.9,-12.2 8.8,-16.4l-67.6 -59.5c-4.1,-3.2 -4.7,-3.7 -8.2,-7.2 -3.4,-3.4 -4.9,-4 -8.3,-7l-34.4 -29.9c-20.4,-16.4 -14.4,-18.4 -27.8,-6.4 -1.7,1.5 -9.4,6.6 -11.5,6.6zm196.9 -44.7l0 127.1c0,12.3 13.5,7.3 25.5,19.2 14.5,14.5 14.6,37.1 5.2,54.9 3.5,5.2 2.3,4.1 7.2,8.2l40 36.8c12.9,12.3 4,2.4 25.5,2.4 14.2,0 -4.8,9.1 28.8,-8.8l69.9 -39.1c5.2,-2.8 9.3,-5.2 14.4,-7.9 -2.7,-7.4 -7,-0.6 -8.4,-18.2 -0.6,-8.8 -15.8,-26.3 -21,-33.5l-22.7 -31.7c-10.5,-14.1 -38.4,-58.5 -50.5,-65.5l-13.1 -7.8c-11.4,-6.3 -22.6,-13 -34.4,-20.1 -6,-3.6 -47.2,-29.6 -52.2,-29.1 -2,0.2 -7.3,3.7 -8.8,4.6 -3.8,2.3 -5.4,2.4 -5.4,8.5zm-331 190c-16,0 -19.6,-2.8 -28,-2.8l-33.3 49c-2.8,4 -3,2.4 -4.4,8.3 27.6,14.5 99.2,58.1 126.5,74.6 6.1,3.6 120,73 127.7,74.8 12.7,-8.5 53.5,-30.1 68.9,-38.7l125.3 -70.2c5.7,-3 23.5,-12.3 26.5,-16.8 -1.8,-6.9 -8.4,-10.1 -13.5,-14.4 -8.5,-7 -39.7,-39.4 -45.2,-40.1 -6.7,1.6 -5.5,3.7 -11.5,5.3 -11,2.8 -24.4,2.8 -34.4,-2.6 -0.3,-0.2 -0.7,-0.4 -0.9,-0.5 -12.3,-6.8 -9.8,-7.5 -15.3,-14 -2.5,-3 -0.5,-3.5 -6.3,-3.5 -2.1,0 -17.7,4.9 -20.5,6 -4.5,1.7 -5.1,1.4 -9.9,2.7l-60.4 19.2c-3.7,1.3 -7,1.6 -11,3 -40.6,14.1 -13.9,5.4 -30.5,22.5 -3,3.1 -4.2,4.6 -7.6,6.4 -9.7,5.1 -21.8,7.1 -31.4,2.5 -23.2,-11.2 -20,-27.1 -20,-47 -9.5,-6.3 -17.7,-12.1 -27.2,-18.9 -4.8,-3.6 -8.5,-5.7 -13.2,-9.2 -20.4,-15.5 -11.2,-9.7 -29.9,-0.2 -6.3,3.2 -11.6,4.6 -20.5,4.6z"/>
 </g>
</svg>
