<?xml version="1.0" encoding="UTF-8"?>
<!DOCTYPE svg PUBLIC "-//W3C//DTD SVG 1.1//EN" "http://www.w3.org/Graphics/SVG/1.1/DTD/svg11.dtd">
<!-- Creator: CorelDRAW X8 -->
<svg xmlns="http://www.w3.org/2000/svg" xml:space="preserve" width="106px" height="154px" version="1.1" style="shape-rendering:geometricPrecision; text-rendering:geometricPrecision; image-rendering:optimizeQuality; fill-rule:evenodd; clip-rule:evenodd"
viewBox="0 0 1060 1531"
 xmlns:xlink="http://www.w3.org/1999/xlink">
 <defs>
  <style type="text/css">
   <![CDATA[
    .fil1 {fill:#111E79}
    .fil2 {fill:#FEFEFE}
    .fil0 {fill:#111E79;fill-opacity:0.188235}
   ]]>
  </style>
 </defs>
 <g id="Layer_x0020_1">
  <metadata id="CorelCorpID_0Corel-Layer"/>
  <g id="_982706976">
   <g id="_792054352">
    <g>
     <path class="fil0" d="M854 1404c0,-56 -146,-99 -324,-99 -178,0 -324,43 -324,99 0,60 146,103 324,103 178,0 324,-43 324,-103z"/>
     <path class="fil1" d="M530 24c-290,0 -527,230 -527,520 0,424 527,863 527,863 0,0 527,-417 527,-863 0,-290 -237,-520 -527,-520z"/>
     <circle class="fil1" cx="530" cy="504" r="131"/>
     <path class="fil1" d="M530 401c65,0 122,47 131,118 0,-6 3,-9 3,-15 0,-75 -62,-131 -131,-131 -68,0 -131,56 -131,131 0,6 0,9 3,15 3,-68 60,-118 125,-118l0 0z"/>
    </g>
    <circle class="fil2" cx="530" cy="551" r="458"/>
   </g>
   <path class="fil1" d="M693 497l30 -13c2,0 3,-2 4,0 2,2 26,65 29,70 3,0 26,-10 30,-12l-1 -10c-2,-11 -3,-23 -4,-34l-4 -35c3,-4 15,-6 18,-9 2,0 9,-3 11,-4 1,0 1,0 2,-1l2 -1c1,0 53,-21 57,-25 8,-6 21,-18 20,-30 0,-9 -11,-13 -18,-15 -24,-5 -53,9 -76,19l-2 2 -15 5c-3,1 -11,5 -15,7 -3,1 -2,0 -4,2l-48 -57c-1,-2 -3,-4 -4,-5 -3,0 -11,5 -16,6 -13,6 -14,0 -5,23 3,6 5,11 8,17 2,7 5,12 7,18 2,5 6,13 7,18l-39 16 -15 -23c-2,-4 -5,-6 -7,-10 -6,-10 -31,-34 -41,-41 0,0 -1,0 -1,0 -12,-10 -17,-13 -31,-21 -2,-1 -2,-1 -4,-2 0,-1 -1,-1 -1,-1 -11,-6 -23,-11 -34,-15 -5,-1 -9,-3 -13,-3 -5,-1 -9,-3 -14,-4 -10,-2 -19,-4 -30,-4 -16,-1 -31,-1 -47,0l-15 2c-6,2 -13,3 -19,5l-17 5c-23,7 -47,18 -66,32l-15 11c-5,4 -10,9 -14,13l-5 4c0,1 0,1 -1,2 -1,1 -2,2 -3,3l-28 39c-8,14 -14,28 -19,43 -1,2 -1,3 -1,4l-5 18c-2,6 -3,13 -4,19 -1,10 -3,20 -3,31 0,14 0,29 2,43 1,7 1,11 3,19l4 13c2,6 5,15 8,21l7 15c1,1 1,2 2,3 1,2 1,2 2,4 0,1 1,1 1,2 0,0 0,1 1,1 1,2 1,2 2,4 2,3 11,17 14,20 2,2 3,4 5,6 6,6 11,12 16,18 2,2 4,4 6,6 12,10 24,21 37,30 7,4 15,8 22,12 10,6 21,9 32,13 3,1 6,2 8,3 9,2 19,5 28,6 4,0 7,0 10,1 13,3 36,1 49,0l15 -2c6,-1 12,-1 19,-4l17 -5c3,-1 5,-2 8,-3 11,-4 25,-14 36,-20 0,4 0,8 0,13 0,24 -4,22 21,22 7,0 98,1 102,0 5,-1 5,-5 4,-10l0 -244c0,-3 -1,-2 -1,-6 0,-10 -2,-12 -3,-20 0,-2 0,-4 -1,-6l-3 -12 6 -2zm-125 222c1,-2 2,-137 0,-158 -3,-31 -12,-56 -34,-78 -3,-3 -6,-5 -9,-8 -20,-15 -45,-24 -72,-24 -33,0 -68,17 -87,41 -23,30 -32,61 -21,99 9,31 32,56 60,69 40,18 79,14 117,-4 6,-3 8,-2 11,2l11 21c4,7 8,13 12,20l6 10c1,2 5,9 6,10z"/>
  </g>
 </g>
</svg>
