<svg id="GD001" height="512" viewBox="0 0 512 512" width="512" xmlns="http://www.w3.org/2000/svg" xmlns:xlink="http://www.w3.org/1999/xlink"><linearGradient id="New_Gradient_Swatch_2" gradientUnits="userSpaceOnUse" x1="252.461" x2="252.461" y1="34.116" y2="450.746"><stop offset="0" stop-color="#fc5c7d"/><stop offset=".129" stop-color="#f35e85"/><stop offset=".343" stop-color="#d9659b"/><stop offset=".616" stop-color="#b070bf"/><stop offset=".934" stop-color="#777ff0"/><stop offset="1" stop-color="#6a82fb"/></linearGradient><linearGradient id="New_Gradient_Swatch_2-2" gradientTransform="matrix(.707 .707 -.707 .707 389.168 -108.882)" x1="326" x2="326" xlink:href="#New_Gradient_Swatch_2" y1="34.116" y2="450.746"/><linearGradient id="New_Gradient_Swatch_2-3" gradientTransform="matrix(.707 .707 -.707 .707 162.844 -15.163)" x1="99.726" x2="99.726" xlink:href="#New_Gradient_Swatch_2" y1="34.116" y2="450.746"/><linearGradient id="New_Gradient_Swatch_2-4" x1="180" x2="180" xlink:href="#New_Gradient_Swatch_2" y1="34.116" y2="450.746"/><linearGradient id="New_Gradient_Swatch_2-5" x1="320" x2="320" xlink:href="#New_Gradient_Swatch_2" y1="34.116" y2="450.746"/><linearGradient id="New_Gradient_Swatch_2-6" x1="376" x2="376" xlink:href="#New_Gradient_Swatch_2" y1="34.116" y2="450.746"/><linearGradient id="New_Gradient_Swatch_2-8" x1="392" x2="392" xlink:href="#New_Gradient_Swatch_2" y1="34.116" y2="450.746"/><linearGradient id="New_Gradient_Swatch_2-9" x1="404" x2="404" xlink:href="#New_Gradient_Swatch_2" y1="34.116" y2="450.746"/><linearGradient id="New_Gradient_Swatch_2-10" x1="408" x2="408" xlink:href="#New_Gradient_Swatch_2" y1="34.116" y2="450.746"/><linearGradient id="New_Gradient_Swatch_2-11" x1="104" x2="104" xlink:href="#New_Gradient_Swatch_2" y1="34.116" y2="450.746"/><linearGradient id="New_Gradient_Swatch_2-12" x1="152" x2="152" xlink:href="#New_Gradient_Swatch_2" y1="34.116" y2="450.746"/><linearGradient id="New_Gradient_Swatch_2-13" x1="136" x2="136" xlink:href="#New_Gradient_Swatch_2" y1="34.116" y2="450.746"/><linearGradient id="New_Gradient_Swatch_2-14" x1="120" x2="120" xlink:href="#New_Gradient_Swatch_2" y1="34.116" y2="450.746"/><linearGradient id="New_Gradient_Swatch_2-16" x1="168" x2="168" xlink:href="#New_Gradient_Swatch_2" y1="34.116" y2="450.746"/><linearGradient id="New_Gradient_Swatch_2-17" x1="32" x2="32" xlink:href="#New_Gradient_Swatch_2" y1="34.116" y2="450.746"/><linearGradient id="New_Gradient_Swatch_2-19" x1="480" x2="480" xlink:href="#New_Gradient_Swatch_2" y1="34.116" y2="450.746"/><path d="m410.854 285.162a8 8 0 0 0 -11.315 0l-9.372 9.372-8-8v-32.4a76.285 76.285 0 0 0 -76.285-76.284h-.4l-15.03-15.03a84.656 84.656 0 0 0 -56.905-24.9l-13.085-13.085 9.373-9.372a8 8 0 0 0 0-11.314l-79.2-79.2-11.312 11.311 73.54 73.539-113.137 113.137-73.538-73.536-11.315 11.31 79.195 79.2a8 8 0 0 0 11.315 0l7.764-7.765 13.02 13.02v36.686a23.989 23.989 0 0 0 32 22.623v9.377a23.989 23.989 0 0 0 32 22.623v9.377a23.989 23.989 0 0 0 32 22.623v9.377a23.986 23.986 0 0 0 41.869 16h10.818l8 8-7.765 7.765a8 8 0 0 0 0 11.314l79.2 79.2 11.311-11.322-73.54-73.539 113.14-113.137 73.538 73.539 11.315-11.314zm-164.687 100.686a8.009 8.009 0 0 1 -8-8v-64h-16v32a8 8 0 0 1 -16 0v-64h-16v32a8 8 0 0 1 -16 0v-56h-16v24a8 8 0 0 1 -16 0v-40a8 8 0 0 0 -2.343-5.657l-15.363-15.363 84.686-84.686 15.363 15.358a8 8 0 0 0 5.657 2.344 68.8 68.8 0 0 1 48.97 20.284l3.716 3.716h-76.686a8 8 0 0 0 -8 8 60.5 60.5 0 0 0 44.485 58.243l11.515 3.14v130.621a8.009 8.009 0 0 1 -8 8zm37.657-5.657a8 8 0 0 0 -5.657-2.343h-8v-126.254l16 4.364v1.89a40.045 40.045 0 0 0 40 40 8 8 0 0 0 0-16 24.027 24.027 0 0 1 -24-24v-8a8 8 0 0 0 -5.9-7.719l-49.41-13.475a44.49 44.49 0 0 1 -31.957-34.806h90.986a60.283 60.283 0 0 1 60.285 60.284v35.716a8 8 0 0 0 2.343 5.656l10.343 10.344-84.686 84.685z" fill="url(#New_Gradient_Swatch_2)"/><path d="m318 407.269h16v16h-16z" fill="url(#New_Gradient_Swatch_2-2)" transform="matrix(.707 -.707 .707 .707 -198.162 352.192)"/><path d="m91.726 180.995h16v16h-16z" fill="url(#New_Gradient_Swatch_2-3)" transform="matrix(.707 -.707 .707 .707 -104.429 125.868)"/><path d="m72 232h-16v248a8 8 0 0 0 8 8h240v-16h-232z" fill="url(#New_Gradient_Swatch_2-4)"/><path d="m440 296h16v-264a8 8 0 0 0 -8-8h-264v16h256z" fill="url(#New_Gradient_Swatch_2-5)"/><path d="m376 64a40 40 0 1 0 40 40 40.045 40.045 0 0 0 -40-40zm0 64a24 24 0 1 1 24-24 24.028 24.028 0 0 1 -24 24z" fill="url(#New_Gradient_Swatch_2-6)"/><path d="m368 96h16v16h-16z" fill="url(#New_Gradient_Swatch_2-6)"/><path d="m368 160h48v16h-48z" fill="url(#New_Gradient_Swatch_2-8)"/><path d="m392 192h24v16h-24z" fill="url(#New_Gradient_Swatch_2-9)"/><path d="m400 224h16v16h-16z" fill="url(#New_Gradient_Swatch_2-10)"/><path d="m96 432h16v16h-16z" fill="url(#New_Gradient_Swatch_2-11)"/><path d="m96 392h112v16h-112z" fill="url(#New_Gradient_Swatch_2-12)"/><path d="m96 360h80v16h-80z" fill="url(#New_Gradient_Swatch_2-13)"/><path d="m96 328h48v16h-48z" fill="url(#New_Gradient_Swatch_2-14)"/><path d="m128 432h16v16h-16z" fill="url(#New_Gradient_Swatch_2-13)"/><path d="m160 432h16v16h-16z" fill="url(#New_Gradient_Swatch_2-16)"/><path d="m24 272h16v160h-16z" fill="url(#New_Gradient_Swatch_2-17)"/><path d="m24 448h16v16h-16z" fill="url(#New_Gradient_Swatch_2-17)"/><path d="m472 64h16v176h-16z" fill="url(#New_Gradient_Swatch_2-19)"/></svg>