<svg height="464pt" viewBox="-44 0 464 464.00038" width="464pt" xmlns="http://www.w3.org/2000/svg" xmlns:xlink="http://www.w3.org/1999/xlink"><linearGradient id="lg1"><stop offset="0" stop-color="#fc5c7d"/><stop offset=".129" stop-color="#f35e85"/><stop offset=".343" stop-color="#d9659b"/><stop offset=".616" stop-color="#b070bf"/><stop offset=".934" stop-color="#777ff0"/><stop offset="1" stop-color="#6a82fb"/></linearGradient><linearGradient id="linear0" gradientUnits="userSpaceOnUse" x1="30.29619" x2="30.29619" xlink:href="#lg1" y1="-53.567623" y2="499.832377"/><linearGradient id="linear1" gradientUnits="userSpaceOnUse" x1="184.00019" x2="184.00019" xlink:href="#lg1" y1="-53.567623" y2="499.832377"/><linearGradient id="linear2" gradientUnits="userSpaceOnUse" x1="362.71219" x2="362.71219" xlink:href="#lg1" y1="-53.567623" y2="499.832377"/><linearGradient id="linear3" gradientUnits="userSpaceOnUse" x1="355.72819" x2="355.72819" xlink:href="#lg1" y1="-53.567623" y2="499.832377"/><linearGradient id="linear4" gradientUnits="userSpaceOnUse" x1="232.00019" x2="232.00019" xlink:href="#lg1" y1="-53.567623" y2="499.832377"/><path d="m0 368h16v-24c.09375-33.992188 16.730469-65.808594 44.59375-85.28125l-9.1875-13.117188c-32.136719 22.46875-51.3203125 59.183594-51.40625 98.398438zm0 0" fill="url(#linear0)"/><path d="m336 464v-24h8c4.417969 0 8-3.582031 8-8v-32c0-4.417969-3.582031-8-8-8h-8v-48c.042969-25.871094-11.34375-50.445312-31.113281-67.136719 24.621093-18.253906 39.132812-47.09375 39.113281-77.742187v-87.121094c.066406-33.953125-15.304688-66.09375-41.773438-87.359375-26.464843-21.265625-61.164062-29.347656-94.304687-21.96875-33.125-7.378906-67.808594.707031-94.253906 21.976563-26.445313 21.269531-41.777344 53.414062-41.667969 87.351562v16c-17.671875 0-32 14.328125-32 32s14.328125 32 32 32v7.121094c0 11.449218 2.035156 22.804687 6.007812 33.542968 3.652344 9.945313 8.9375 19.210938 15.640626 27.417969-36.597657 11.609375-61.511719 45.523438-61.648438 83.917969v48h-8c-4.417969 0-8 3.582031-8 8v32c0 4.417969 3.582031 8 8 8h8v24h16v-24h32v24h16v-112h-16v40h-32v-48c.117188-34.605469 24.765625-64.265625 58.769531-70.710938 8.683594 7.285157 18.574219 12.988282 29.230469 16.855469v5.304688l-35.511719 17.351562c-2.207031 1.078125-3.796875 3.109375-4.3125 5.511719-.515625 2.398438.101563 4.902344 1.671875 6.792969l38.152344 45.789062v93.105469h16v-120.617188c19.789062 11.488282 44.214844 11.488282 64 0v120.617188h16v-93.105469l38.152344-45.773437c1.570312-1.890625 2.1875-4.394532 1.671875-6.792969-.515625-2.402344-2.105469-4.433594-4.3125-5.511719l-34.398438-16.800781h14c14.953125-.027344 29.699219-3.523437 43.070313-10.214844 18.714844 13.480469 29.8125 35.132813 29.816406 58.199219v48h-32v-40h-16v112h16v-24h32v24zm-256-40h-48v-16h48zm-24-264c0-8.835938 7.164062-16 16-16v32c-8.835938 0-16-7.164062-16-16zm51.425781 91.746094c-6.25-7.257813-11.128906-15.59375-14.402343-24.59375-3.320313-8.972656-5.019532-18.464844-5.023438-28.03125v-87.121094c.0625-48.988281 36.960938-90.089844 85.65625-95.421875-33.28125 20.292969-53.609375 56.441406-53.65625 95.421875v87.121094c-.117188 32.457031 16.183594 62.773437 43.320312 80.574218-21.617187-1.472656-41.75-11.539062-55.894531-27.949218zm9.246094 70.964844 19.328125-9.453126v32.648438zm67.328125 13.289062c-11.824219.019531-23.230469-4.363281-32-12.296875v-29.304687c5.570312 1.03125 11.21875 1.566406 16.878906 1.601562h30.242188c2.960937 0 5.917968-.191406 8.886718-.480469 2.648438.242188 5.3125.410157 8 .433594v27.75c-8.769531 7.9375-20.179687 12.320313-32.007812 12.296875zm48 9.90625v-32.648438l19.328125 9.453126zm-15.128906-65.90625c-44.667969 0-80.875-36.210938-80.871094-80.878906v-87.121094c0-53.019531 42.980469-96 96-96s96 42.980469 96 96v87.121094c-.003906 44.664062-36.207031 80.871094-80.871094 80.878906zm71.128906 128h48v16h-48zm0 0" fill="url(#linear1)"/><path d="m352.527344 239.496094 14.945312 5.71875c2.238282-5.855469 4.050782-11.871094 5.421875-17.992188l-15.605469-3.503906c-1.203124 5.367188-2.792968 10.640625-4.761718 15.777344zm0 0" fill="url(#linear2)"/><path d="m376 199.121094v-87.121094c.070312-30.460938-9.609375-60.144531-27.617188-84.710938l-12.917968 9.421876c15.996094 21.839843 24.589844 48.21875 24.535156 75.289062v87.121094c0 3.113281-.128906 6.210937-.390625 9.296875l15.949219 1.320312c.296875-3.523437.441406-7.0625.441406-10.617187zm0 0" fill="url(#linear3)"/><g fill="url(#linear4)"><path d="m232 72c-20.007812 0-38.492188 10.675781-48.496094 28-10.003906 17.328125-10.003906 38.675781 0 56l13.839844-8c-9.050781-15.675781-6.445312-35.480469 6.355469-48.28125 12.796875-12.800781 32.601562-15.410156 48.28125-6.363281 15.675781 9.046875 23.324219 27.5 18.644531 44.988281-4.679688 17.484375-20.523438 29.648438-38.625 29.65625-4.417969 0-8 3.582031-8 8v32h16v-24.566406c29.089844-4.175782 50.003906-30.128906 47.902344-59.441406-2.105469-29.316407-26.511719-52.015626-55.902344-51.992188zm0 0"/><path d="m224 224h16v16h-16zm0 0"/></g></svg>