<svg height="480pt" viewBox="0 0 480.0005 480" width="480pt" xmlns="http://www.w3.org/2000/svg" xmlns:xlink="http://www.w3.org/1999/xlink"><linearGradient id="lg1"><stop offset="0" stop-color="#fc5c7d"/><stop offset=".129" stop-color="#f35e85"/><stop offset=".343" stop-color="#d9659b"/><stop offset=".616" stop-color="#b070bf"/><stop offset=".934" stop-color="#777ff0"/><stop offset="1" stop-color="#6a82fb"/></linearGradient><linearGradient id="linear0" gradientUnits="userSpaceOnUse" x1="56.000497" x2="56.000497" xlink:href="#lg1" y1="17.338621" y2="466.130621"/><linearGradient id="linear1" gradientUnits="userSpaceOnUse" x1="424.000497" x2="424.000497" xlink:href="#lg1" y1="17.338621" y2="466.130621"/><linearGradient id="linear2" gradientUnits="userSpaceOnUse" x1="240.000497" x2="240.000497" xlink:href="#lg1" y1="17.338621" y2="466.130621"/><linearGradient id="linear4" gradientUnits="userSpaceOnUse" x1="291.912729" x2="291.912729" xlink:href="#lg1" y1="17.333335" y2="466.125335"/><linearGradient id="linear5" gradientTransform="matrix(7.996199 .00111944 -.00111944 7.996199 -16.010271 -15.858003)" gradientUnits="userSpaceOnUse" x1="48.5" x2="48.5" xlink:href="#lg1" y1="4.167" y2="60.266"/><linearGradient id="linear6" gradientUnits="userSpaceOnUse" x1="188.091628" x2="188.091628" xlink:href="#lg1" y1="17.337662" y2="466.129662"/><linearGradient id="linear7" gradientUnits="userSpaceOnUse" x1="107.994955" x2="107.994955" xlink:href="#lg1" y1="17.343116" y2="466.135116"/><linearGradient id="linear8" gradientUnits="userSpaceOnUse" x1="336.000497" x2="336.000497" xlink:href="#lg1" y1="17.338621" y2="466.130621"/><linearGradient id="linear9" gradientUnits="userSpaceOnUse" x1="144.000497" x2="144.000497" xlink:href="#lg1" y1="17.338621" y2="466.130621"/><linearGradient id="linear10" gradientUnits="userSpaceOnUse" x1="83.888497" x2="83.888497" xlink:href="#lg1" y1="17.338621" y2="466.130621"/><linearGradient id="linear11" gradientUnits="userSpaceOnUse" x1="396.112497" x2="396.112497" xlink:href="#lg1" y1="17.338621" y2="466.130621"/><linearGradient id="linear12" gradientUnits="userSpaceOnUse" x1="240.512497" x2="240.512497" xlink:href="#lg1" y1="17.338621" y2="466.130621"/><path d="m76 363.484375-32-18.683594c-2.472656-1.425781-5.515625-1.425781-7.988281-.003906-2.472657 1.421875-4.003907 4.054687-4.011719 6.910156v45.894531c.007812 2.851563 1.53125 5.480469 4 6.90625l32 18.671876c2.472656 1.425781 5.515625 1.429687 7.988281.003906 2.476563-1.421875 4.003907-4.054688 4.011719-6.910156v-45.871094c-.003906-2.855469-1.527344-5.492188-4-6.917969zm-12 38.917969-16-9.375v-27.382813l16 9.335938zm0 0" fill="url(#linear0)"/><path d="m444 344.800781c-2.476562-1.425781-5.523438-1.425781-8 0l-32 18.675781c-2.46875 1.421876-3.992188 4.050782-4 6.902344v45.902344c.007812 2.855469 1.539062 5.488281 4.011719 6.910156 2.472656 1.425782 5.515625 1.421875 7.988281-.003906l32-18.671875c2.46875-1.425781 3.996094-4.0625 4-6.914063v-45.886718c-.003906-2.851563-1.53125-5.484375-4-6.914063zm-12 48.226563-16 9.375v-27.421875l16-9.335938zm0 0" fill="url(#linear1)"/><path d="m479.375 293.082031c-.121094-.367187-.269531-.726562-.445312-1.070312-.148438-.21875-.304688-.429688-.472657-.632813-.242187-.359375-.507812-.699218-.800781-1.015625-.136719-.136719-.3125-.234375-.464844-.359375-.359375-.34375-.753906-.648437-1.175781-.914062l-96-56c-2.492187-1.453125-5.570313-1.453125-8.0625 0l-18.457031 10.769531-27.390625-44.800781 13.894531-8.144532c2.46875-1.425781 3.996094-4.058593 4-6.910156v-120c0-.703125-.09375-1.402344-.28125-2.082031-.09375-.285156-.207031-.566406-.34375-.839844-.121094-.367187-.269531-.726562-.445312-1.070312-.148438-.21875-.304688-.429688-.472657-.632813-.242187-.359375-.507812-.699218-.800781-1.015625-.136719-.136719-.3125-.234375-.464844-.359375-.359375-.34375-.753906-.648437-1.175781-.914062l-96-56c-2.492187-1.453125-5.570313-1.453125-8.0625 0l-96 56c-.433594.273437-.839844.585937-1.207031.9375-.136719.121094-.304688.207031-.425782.335937-.296874.324219-.5625.671875-.800781 1.039063-.144531.207031-.328125.382812-.453125.609375-.195312.375-.359375.765625-.488281 1.167969-.117187.238281-.21875.484374-.304687.734374-.183594.679688-.277344 1.382813-.273438 2.089844v120c.007812 2.851563 1.53125 5.484375 4 6.910156l13.914062 8.121094-27.394531 44.800782-18.519531-10.746094c-2.492188-1.453125-5.570312-1.453125-8.0625 0l-96 56c-.433594.273437-.839844.585937-1.210938.9375-.132812.121094-.300781.207031-.421874.335937-.296876.324219-.5625.671875-.800782 1.039063-.144531.207031-.328125.382812-.457031.609375-.191406.375-.355469.765625-.488281 1.167969-.113282.238281-.214844.484374-.300782.734374-.179687.683594-.2656245 1.382813-.257812 2.089844v120c.0078125 2.851563 1.53125 5.484375 4 6.910156l96 56c.40625.210938.828125.386719 1.265625.519532.222656.082031.429687.210937.65625.273437 1.351563.359375 2.773437.359375 4.125 0 .226563-.0625.433594-.191406.65625-.273437.4375-.132813.859375-.308594 1.265625-.519532l96-56c2.480469-1.417968 4.019531-4.050781 4.03125-6.910156v-24h64v24c.007812 2.851563 1.53125 5.484375 4 6.910156l96 56c.40625.210938.828125.386719 1.265625.519532.222656.082031.429687.210937.65625.273437 1.351563.359375 2.773437.359375 4.125 0 .226563-.0625.433594-.191406.65625-.273437.4375-.132813.859375-.308594 1.265625-.519532l96-56c2.480469-1.417968 4.019531-4.050781 4.03125-6.910156v-120c0-.703125-.09375-1.402344-.28125-2.082031-.09375-.285156-.207031-.566406-.34375-.839844zm-103.375-43.824219 80.121094 46.746094-80.121094 46.734375-80.121094-46.734375 52.121094-30.402344 6.402344 10.519532 13.652344-8.34375-6.253907-10.238282zm-58.230469-63.878906-7.769531-12.71875-13.65625 8.34375 7.601562 12.4375-55.945312 32.632813v-101.472657l80-46.664062v101.472656zm-77.769531-168.121094 80.121094 46.746094-80.121094 46.734375-80.121094-46.734375zm-88 162.152344v-101.472656l80 46.664062v101.472657l-55.945312-32.632813 7.601562-12.4375-13.65625-8.34375-7.765625 12.71875zm-48 69.847656 14.144531 8.257813-6.257812 10.238281 13.65625 8.34375 6.402343-10.519531 52.175782 30.425781-80.121094 46.734375-80.121094-46.734375zm-88 60.679688 80 46.664062v101.472657l-80-46.664063zm176 101.472656-80 46.664063v-101.472657l80-46.664062v66.066406h-24v16h24zm16-35.40625v-80c0-.703125-.09375-1.402344-.28125-2.082031-.09375-.285156-.207031-.566406-.34375-.839844-.121094-.367187-.269531-.726562-.445312-1.070312-.148438-.21875-.304688-.429688-.472657-.632813-.242187-.359375-.507812-.699218-.800781-1.015625-.136719-.136719-.3125-.234375-.464844-.359375-.359375-.34375-.753906-.648437-1.175781-.914062l-63.695313-37.167969 27.390626-44.800781 68.289062 39.792968h.039062c.40625.210938.828126.386719 1.265626.519532.222656.082031.433593.210937.65625.273437 1.351562.359375 2.773437.359375 4.128906 0 .222656-.0625.429687-.191406.65625-.273437.433594-.132813.859375-.308594 1.261718-.519532l68.257813-39.816406 27.390625 44.800782-63.65625 37.191406c-.433594.273437-.835938.585937-1.207031.9375-.136719.121094-.304688.207031-.425781.335937-.292969.324219-.5625.671875-.796876 1.039063-.144531.207031-.328124.382812-.457031.609375-.195312.375-.359375.765625-.488281 1.167969-.117188.238281-.21875.484374-.304688.734374-.199218.679688-.308593 1.382813-.320312 2.089844v80zm80 16h24v-16h-24v-66.066406l80 46.664062v101.472657l-80-46.664063zm96 66.070313v-101.472657l80-46.664062v101.472656zm0 0" fill="url(#linear2)"/><path d="m203.480469 70.914062 32.519531 18.953126c2.492188 1.453124 5.574219 1.453124 8.066406 0l32.484375-18.953126c2.460938-1.433593 3.972657-4.066406 3.972657-6.910156 0-2.847656-1.511719-5.480468-3.972657-6.914062l-32.550781-18.953125c-2.492188-1.453125-5.570312-1.453125-8.0625 0l-32.457031 18.953125c-2.460938 1.433594-3.972657 4.066406-3.972657 6.914062 0 2.84375 1.511719 5.476563 3.972657 6.910156zm36.519531-16.609374 16.617188 9.699218-16.617188 9.695313-16.617188-9.695313zm0 0" fill="url(#linear2)"/><path d="m281.179688 156.175781 13.652343-8.34375 7.820313 12.792969-13.652344 8.34375zm0 0" fill="url(#linear4)"/><path d="m360.941406 287.128906 13.648438-8.335937 7.996094 13.085937-13.648438 8.339844zm0 0" fill="url(#linear5)"/><path d="m177.363281 160.617188 7.820313-12.792969 13.652344 8.347656-7.820313 12.789063zm0 0" fill="url(#linear6)"/><path d="m97.167969 291.832031 8-13.09375 13.652343 8.34375-8 13.089844zm0 0" fill="url(#linear7)"/><path d="m328 376.003906h16v16h-16zm0 0" fill="url(#linear8)"/><path d="m136 376.003906h16v16h-16zm0 0" fill="url(#linear9)"/><path d="m42.769531 238.683594 15.773438 2.640625c7.503906-44.550781 31.164062-84.769531 66.457031-112.96875l-10-12.488281c-38.367188 30.65625-64.082031 74.382812-72.230469 122.816406zm0 0" fill="url(#linear10)"/><path d="m365 115.867188-10 12.488281c35.292969 28.199219 58.953125 68.417969 66.457031 112.96875l15.777344-2.640625c-8.148437-48.433594-33.867187-92.160156-72.234375-122.816406zm0 0" fill="url(#linear11)"/><path d="m187.273438 448.339844-4.585938 15.328125c37.75 11.214843 77.960938 11.109375 115.648438-.304688l-4.671876-15.3125c-34.679687 10.457031-71.65625 10.558594-106.390624.289063zm0 0" fill="url(#linear12)"/></svg>