<svg height="480pt" viewBox="-24 0 480 480.22532" width="480pt" xmlns="http://www.w3.org/2000/svg" xmlns:xlink="http://www.w3.org/1999/xlink"><linearGradient id="lg1"><stop offset="0" stop-color="#fc5c7d"/><stop offset=".129" stop-color="#f35e85"/><stop offset=".343" stop-color="#d9659b"/><stop offset=".616" stop-color="#b070bf"/><stop offset=".934" stop-color="#777ff0"/><stop offset="1" stop-color="#6a82fb"/></linearGradient><linearGradient id="linear0" gradientUnits="userSpaceOnUse" x1="92.76873" x2="92.76873" xlink:href="#lg1" y1="-37.342677" y2="516.057323"/><linearGradient id="linear1" gradientUnits="userSpaceOnUse" x1="327.61673" x2="327.61673" xlink:href="#lg1" y1="-37.342677" y2="516.057323"/><linearGradient id="linear2" gradientUnits="userSpaceOnUse" x1="312.61673" x2="312.61673" xlink:href="#lg1" y1="-37.342677" y2="516.057323"/><linearGradient id="linear3" gradientUnits="userSpaceOnUse" x1="212.11273" x2="212.11273" xlink:href="#lg1" y1="-37.342677" y2="516.057323"/><linearGradient id="linear4" gradientUnits="userSpaceOnUse" x1="216.11273" x2="216.11273" xlink:href="#lg1" y1="-37.342677" y2="516.057323"/><linearGradient id="linear5" gradientUnits="userSpaceOnUse" x1="320.11273" x2="320.11273" xlink:href="#lg1" y1="-37.342677" y2="516.057323"/><linearGradient id="linear6" gradientUnits="userSpaceOnUse" x1="88.11273" x2="88.11273" xlink:href="#lg1" y1="-37.342677" y2="516.057323"/><linearGradient id="linear7" gradientUnits="userSpaceOnUse" x1="176.11273" x2="176.11273" xlink:href="#lg1" y1="-37.342677" y2="516.057323"/><linearGradient id="linear8" gradientUnits="userSpaceOnUse" x1="104.11273" x2="104.11273" xlink:href="#lg1" y1="-37.342677" y2="516.057323"/><path d="m87.402344 53.5625c-10.773438 30.589844-9.570313 64.121094 3.367187 93.863281l14.664063-6.402343c-11.300782-26.027344-12.34375-55.367188-2.921875-82.132813zm0 0" fill="url(#linear0)"/><path d="m334.984375 113.28125c.753906-5.652344 1.128906-11.351562 1.128906-17.054688h-16c0 4.996094-.332031 9.988282-.992187 14.941407zm0 0" fill="url(#linear1)"/><path d="m290.25 20.082031c15.75 16.902344 25.84375 38.292969 28.871094 61.199219l15.863281-2.113281c-3.460937-26.1875-15-50.644531-33.007813-69.964844zm0 0" fill="url(#linear2)"/><path d="m184.113281 152.226562h16v-8h16v8h16v-8.410156c11.644531-1.621094 21.019531-10.382812 23.417969-21.894531 2.398438-11.507813-2.695312-23.285156-12.722656-29.425781 4.871094-6.703125 6.492187-15.230469 4.421875-23.25-2.066407-8.023438-7.613281-14.703125-15.117188-18.210938v-10.808594h-16v8h-16v-8h-16v8h-16v16h8v64h-8v16h16zm8-88h28c6.625 0 12 5.371094 12 12 0 6.625-5.375 12-12 12h-28zm36 64h-36v-24h36c6.625 0 12 5.371094 12 12 0 6.625-5.375 12-12 12zm0 0" fill="url(#linear3)"/><path d="m9.496094 169.609375c-6.023438 5.984375-9.402344 14.125-9.382813 22.617187v256c0 17.671876 14.328125 32 32 32h312c4.417969 0 8-3.582031 8-8v-24h40c4.417969 0 8-3.582031 8-8v-56c17.671875 0 32-14.328124 32-32v-64c0-17.675781-14.328125-32-32-32v-88c0-4.417968-3.582031-8-8-8h-112.648437c34.59375-38.4375 32.53125-97.367187-4.667969-133.285156-37.199219-35.921875-96.167969-35.921875-133.367187 0-37.199219 35.917969-39.265626 94.847656-4.667969 133.285156h-104.648438c-8.488281-.019531-16.632812 3.359376-22.617187 9.382813zm22.617187 294.617187c-8.835937 0-16-7.164062-16-16v-32h28.6875l21.65625 21.65625c1.5 1.5 3.535157 2.34375 5.65625 2.34375h40v-16h-36.6875l-21.65625-21.65625c-1.5-1.5-3.535156-2.34375-5.65625-2.34375h-32v-32h64v-16h-64v-32h88c2.121094 0 4.15625-.84375 5.65625-2.34375l29.65625-29.65625h44.6875v8c0 4.417969 3.582031 8 8 8h32c4.417969 0 8-3.582031 8-8v-32c0-4.417968-3.582031-8-8-8h-32c-4.417969 0-8 3.582032-8 8v8h-48c-2.121093 0-4.15625.84375-5.65625 2.34375l-29.65625 29.65625h-84.6875v-32h48v-16h-48v-36.449218c4.84375 2.878906 10.367188 4.414062 16 4.449218h304v40h-28.6875l-21.65625-21.65625c-1.5-1.5-3.535156-2.34375-5.65625-2.34375h-24v16h20.6875l21.65625 21.65625c1.5 1.5 3.535157 2.34375 5.65625 2.34375h32v24h-16c-19 .023438-35.375 13.386719-39.199219 32h-80.800781v16h80.800781c3.824219 18.609376 20.199219 31.976563 39.199219 32h16v32h-68.6875l-29.65625-29.65625c-1.5-1.5-3.535156-2.34375-5.65625-2.34375h-56v-8c0-4.417968-3.582031-8-8-8h-32c-4.417969 0-8 3.582032-8 8v32c0 4.417969 3.582031 8 8 8h32c4.417969 0 8-3.582031 8-8v-8h52.6875l29.65625 29.65625c1.5 1.5 3.535157 2.34375 5.65625 2.34375h72v32zm168-176v-16h16v16zm-40 96v16h-16v-16zm224 48h-32v-48h32zm32-80c0 8.835938-7.164062 16-16 16h-80c-13.253906 0-24-10.746093-24-24 0-13.257812 10.746094-24 24-24h80c5.617188.007813 11.140625-1.476562 16-4.296874zm0-64c0 8.835938-7.164062 16-16 16v-32c8.835938 0 16 7.164063 16 16zm-32 16h-32v-88c0-4.417968-3.582031-8-8-8h-312c-8.835937 0-16-7.164062-16-16 0-8.835937 7.164063-16 16-16h123.046875c32.078125 21.332032 73.824219 21.332032 105.90625 0h123.046875zm-176-288c44.183594 0 80 35.816407 80 80 0 44.179688-35.816406 80-80 80-44.183593 0-80-35.820312-80-80 .046875-44.164062 35.835938-79.953124 80-80zm0 0" fill="url(#linear4)"/><path d="m312.113281 336.226562h16v16h-16zm0 0" fill="url(#linear5)"/><path d="m80.113281 256.226562h16v16h-16zm0 0" fill="url(#linear6)"/><path d="m168.113281 336.226562h16v16h-16zm0 0" fill="url(#linear7)"/><path d="m96.113281 352.226562h16v16h-16zm0 0" fill="url(#linear8)"/></svg>