<svg height="480pt" viewBox="0 0 480 480.00004" width="480pt" xmlns="http://www.w3.org/2000/svg" xmlns:xlink="http://www.w3.org/1999/xlink"><linearGradient id="lg1"><stop offset="0" stop-color="#fc5c7d"/><stop offset=".129" stop-color="#f35e85"/><stop offset=".343" stop-color="#d9659b"/><stop offset=".616" stop-color="#b070bf"/><stop offset=".934" stop-color="#777ff0"/><stop offset="1" stop-color="#6a82fb"/></linearGradient><linearGradient id="linear0" gradientUnits="userSpaceOnUse" x1="96.00002" x2="96.00002" xlink:href="#lg1" y1="17.336" y2="466.128"/><linearGradient id="linear1" gradientUnits="userSpaceOnUse" x1="360.00002" x2="360.00002" xlink:href="#lg1" y1="17.336" y2="466.128"/><linearGradient id="linear2" gradientUnits="userSpaceOnUse" x1="296.00002" x2="296.00002" xlink:href="#lg1" y1="17.336" y2="466.128"/><linearGradient id="linear3" gradientUnits="userSpaceOnUse" x1="424.00002" x2="424.00002" xlink:href="#lg1" y1="17.336" y2="466.128"/><linearGradient id="linear4" gradientUnits="userSpaceOnUse" x1="167.39202" x2="167.39202" xlink:href="#lg1" y1="17.336" y2="466.128"/><linearGradient id="linear5" gradientUnits="userSpaceOnUse" x1="240.00002" x2="240.00002" xlink:href="#lg1" y1="17.336" y2="466.128"/><path d="m102.945312 228c-1.542968-2.332031-4.148437-3.738281-6.945312-3.738281s-5.402344 1.40625-6.945312 3.738281l-32 56c-1.402344 2.457031-1.402344 5.476562 0 7.9375l32 56c1.425781 2.488281 4.074218 4.027344 6.945312 4.027344s5.519531-1.539063 6.945312-4.027344l32-56c1.402344-2.460938 1.402344-5.480469 0-7.9375zm-6.945312 20.128906 19.816406 34.671875-19.816406 4.953125-19.816406-4.953125zm0 79.742188-15.761719-27.566406 13.824219 3.457031c1.273438.316406 2.601562.316406 3.875 0l13.824219-3.457031zm0 0" fill="url(#linear0)"/><path d="m366.945312 268c-1.542968-2.332031-4.148437-3.738281-6.945312-3.738281s-5.402344 1.40625-6.945312 3.738281l-32 56c-1.402344 2.457031-1.402344 5.476562 0 7.9375l32 56c1.425781 2.488281 4.074218 4.027344 6.945312 4.027344s5.519531-1.539063 6.945312-4.027344l32-56c1.402344-2.460938 1.402344-5.480469 0-7.9375zm-6.945312 20.128906 19.816406 34.671875-19.816406 4.953125-19.816406-4.953125zm0 79.742188-15.761719-27.566406 13.824219 3.457031c1.273438.316406 2.601562.316406 3.875 0l13.824219-3.457031zm0 0" fill="url(#linear1)"/><path d="m288 320h16v16h-16zm0 0" fill="url(#linear2)"/><path d="m416 320h16v16h-16zm0 0" fill="url(#linear3)"/><path d="m104 72v27.886719l-12.449219 8.914062c-24.40625 17.429688-40.101562 44.550781-43.054687 74.398438l15.929687 1.601562c2.484375-25.269531 15.761719-48.234375 36.421875-62.992187l13.710938-9.808594h106.882812l13.710938 9.792969c18.601562 13.234375 31.300781 33.207031 35.390625 55.664062l15.738281-2.914062c-4.847656-26.527344-19.859375-50.113281-41.832031-65.742188l-12.449219-8.914062v-27.886719c0-4.417969-3.582031-8-8-8h-5.761719l8.90625-35.585938c1.703125-6.832031.167969-14.066406-4.167969-19.617187-4.335937-5.550781-10.984374-8.79296875-18.023437-8.796875-4.945313.015625-9.757813 1.617188-13.722656 4.574219l-23.230469 17.425781-23.199219-17.433594c-3.976562-2.957031-8.796875-4.5585935-13.753906-4.566406-7.039063.00390625-13.6875 3.246094-18.023437 8.796875-4.332032 5.550781-5.871094 12.785156-4.167969 19.617187l8.90625 35.585938h-5.761719c-4.417969 0-8 3.582031-8 8zm112 24h-96v-16h96zm-91.625-71.464844c-.527344-2.046875-.074219-4.226562 1.226562-5.894531 2.355469-2.90625 6.570313-3.460937 9.597657-1.265625l28 21.023438c2.84375 2.136718 6.757812 2.136718 9.601562 0l28-21.015626c3.023438-2.195312 7.242188-1.644531 9.597657 1.257813 1.3125 1.664063 1.777343 3.839844 1.257812 5.894531l-9.894531 39.464844h-67.523438zm0 0" fill="url(#linear4)"/><path d="m436.449219 188.800781-12.449219-8.914062v-27.886719c0-4.417969-3.582031-8-8-8h-5.761719l8.90625-35.585938c1.703125-6.832031.167969-14.066406-4.167969-19.617187-4.335937-5.550781-10.984374-8.792969-18.023437-8.796875-4.945313.015625-9.757813 1.617188-13.722656 4.574219l-23.230469 17.425781-23.199219-17.433594c-3.976562-2.957031-8.796875-4.558594-13.753906-4.566406-7.039063.003906-13.6875 3.246094-18.023437 8.796875-4.332032 5.550781-5.871094 12.785156-4.167969 19.617187l8.90625 35.585938h-5.761719c-4.417969 0-8 3.582031-8 8v27.886719l-12.449219 8.914062c-27.296875 19.539063-43.507812 51.035157-43.550781 84.605469v134.59375c0 14.945312 4.679688 29.515625 13.382812 41.664062-10.269531 9.222657-23.582031 14.328126-37.382812 14.335938h-17.472656c2.058594-5.472656 1.957031-11.527344-.289063-16.929688 11.617188-3.109374 19.121094-14.351562 17.539063-26.273437-1.578125-11.917969-11.753906-20.816406-23.777344-20.796875h-1.472656c.949218-2.5625 1.445312-5.269531 1.472656-8 0-13.253906-10.746094-24-24-24h-19.046875c35.339844-23.371094 51.183594-67.148438 38.980469-107.722656-12.203125-40.574219-49.5625-68.351563-91.933594-68.351563s-79.730469 27.777344-91.933594 68.351563c-12.203125 40.574218 3.640625 84.351562 38.980469 107.722656h-19.046875c-13.253906 0-24 10.746094-24 24s10.746094 24 24 24h1.472656c-2.058594 5.472656-1.957031 11.527344.289063 16.929688-11.617188 3.109374-19.121094 14.351562-17.539063 26.273437 1.578125 11.917969 11.753906 20.816406 23.777344 20.796875h184c17.738281.003906 34.855469-6.546875 48.054688-18.398438 13.160156 11.84375 30.238281 18.398438 47.945312 18.398438h96c39.746094-.042969 71.957031-32.253906 72-72v-134.59375c-.042969-33.570312-16.253906-65.066406-43.550781-84.605469zm-420.449219 99.199219c0-44.183594 35.816406-80 80-80s80 35.816406 80 80-35.816406 80-80 80c-44.164062-.046875-79.953125-35.835938-80-80zm0 104c0-4.417969 3.582031-8 8-8h144c4.417969 0 8 3.582031 8 8s-3.582031 8-8 8h-144c-4.417969 0-8-3.582031-8-8zm152 24h24c4.417969 0 8 3.582031 8 8s-3.582031 8-8 8h-144c-4.417969 0-8-3.582031-8-8s3.582031-8 8-8zm-136 48c-4.417969 0-8-3.582031-8-8s3.582031-8 8-8h144c4.417969 0 8 3.582031 8 8s-3.582031 8-8 8zm376-288h-96v-16h96zm-91.625-71.464844c-.519531-2.054687-.054688-4.230468 1.257812-5.894531 2.347657-2.867187 6.519532-3.417969 9.535157-1.265625l28.03125 21.023438c2.84375 2.136718 6.757812 2.136718 9.601562 0l28-21.015626c3.011719-2.160156 7.183594-1.609374 9.535157 1.257813 1.3125 1.664063 1.773437 3.839844 1.257812 5.894531l-9.832031 39.464844h-67.523438zm147.625 303.464844c-.039062 30.910156-25.089844 55.960938-56 56h-96c-30.910156-.039062-55.960938-25.089844-56-56v-134.59375c.027344-28.414062 13.746094-55.070312 36.847656-71.613281l13.710938-9.792969h106.882812l13.710938 9.792969c23.101562 16.542969 36.820312 43.199219 36.847656 71.613281zm0 0" fill="url(#linear5)"/></svg>