<svg height="480pt" viewBox="0 0 480.00011 480" width="480pt" xmlns="http://www.w3.org/2000/svg" xmlns:xlink="http://www.w3.org/1999/xlink"><linearGradient id="lg1"><stop offset="0" stop-color="#fc5c7d"/><stop offset=".129" stop-color="#f35e85"/><stop offset=".343" stop-color="#d9659b"/><stop offset=".616" stop-color="#b070bf"/><stop offset=".934" stop-color="#777ff0"/><stop offset="1" stop-color="#6a82fb"/></linearGradient><linearGradient id="linear0" gradientUnits="userSpaceOnUse" x1="244.000062" x2="244.000062" xlink:href="#lg1" y1="-16.615945" y2="473.992055"/><linearGradient id="linear1" gradientUnits="userSpaceOnUse" x1="240.000062" x2="240.000062" xlink:href="#lg1" y1="-16.615945" y2="473.992055"/><linearGradient id="linear3" gradientUnits="userSpaceOnUse" x1="33.792062" x2="33.792062" xlink:href="#lg1" y1="-16.615945" y2="473.992055"/><linearGradient id="linear4" gradientUnits="userSpaceOnUse" x1="446.208062" x2="446.208062" xlink:href="#lg1" y1="-16.615945" y2="473.992055"/><linearGradient id="linear5" gradientUnits="userSpaceOnUse" x1="376.000062" x2="376.000062" xlink:href="#lg1" y1="-16.615945" y2="473.992055"/><linearGradient id="linear6" gradientUnits="userSpaceOnUse" x1="104.000062" x2="104.000062" xlink:href="#lg1" y1="-16.615945" y2="473.992055"/><linearGradient id="linear7" gradientUnits="userSpaceOnUse" x1="352.000062" x2="352.000062" xlink:href="#lg1" y1="-16.615945" y2="473.992055"/><linearGradient id="linear8" gradientUnits="userSpaceOnUse" x1="128.000062" x2="128.000062" xlink:href="#lg1" y1="-16.615945" y2="473.992055"/><path d="m216 280h16v-8h16v8h16v-8.40625c11.644531-1.621094 21.019531-10.386719 23.417969-21.894531 2.398437-11.511719-2.691407-23.289063-12.722657-29.425781 4.871094-6.703126 6.492188-15.230469 4.421876-23.253907-2.066407-8.023437-7.613282-14.703125-15.117188-18.210937v-10.808594h-16v8h-16v-8h-16v8h-16v16h8v64h-8v16h16zm8-88h28c6.628906 0 12 5.371094 12 12s-5.371094 12-12 12h-28zm36 64h-36v-24h36c6.628906 0 12 5.371094 12 12s-5.371094 12-12 12zm0 0" fill="url(#linear0)"/><path d="m83.878906 344.976562 84.121094 50.472657v28.550781h-16v16h24c4.417969 0 8-3.582031 8-8v-26.953125l16 9.601563v41.351562h16v-31.75l16 9.597656v46.152344h16v-46.152344l16-9.597656v31.75h16v-41.351562l16-9.601563v26.953125c0 4.417969 3.582031 8 8 8h24v-16h-16v-28.550781l84.121094-50.472657c2.40625-1.445312 3.878906-4.046874 3.878906-6.855468v-282.121094c0-4.417969-3.582031-8-8-8h-80v-16h40v-16h-48c-4.417969 0-8 3.582031-8 8v24h-16v-32h-16v32h-16v-48h-16v48h-16v-32h-16v32h-16v-24c0-4.417969-3.582031-8-8-8h-48v16h40v16h-80c-4.417969 0-8 3.582031-8 8v282.121094c0 2.808594 1.472656 5.410156 3.878906 6.855468zm12.121094-280.976562h288v269.601562l-144 86.398438-144-86.398438zm0 0" fill="url(#linear1)"/><path d="m244.121094 398.855469 120-72c2.40625-1.445313 3.878906-4.046875 3.878906-6.855469v-232c0-4.417969-3.582031-8-8-8h-240c-4.417969 0-8 3.582031-8 8v232c0 2.808594 1.472656 5.410156 3.878906 6.855469l120 72c2.535156 1.523437 5.707032 1.523437 8.242188 0zm-4.121094-254.855469c44.183594 0 80 35.816406 80 80s-35.816406 80-80 80-80-35.816406-80-80c.046875-44.164062 35.835938-79.953125 80-80zm8 233.871094v-58.277344c46.640625-3.957031 83.636719-40.953125 87.59375-87.59375h16.40625v83.472656zm104-161.871094h-16.40625c-3.957031-46.640625-40.953125-83.636719-87.59375-87.59375v-32.40625h104zm-120-120v32.40625c-46.640625 3.957031-83.636719 40.953125-87.59375 87.59375h-16.40625v-120zm-104 136h16.40625c3.957031 46.640625 40.953125 83.636719 87.59375 87.59375v58.277344l-104-62.398438zm0 0" fill="url(#linear1)"/><path d="m16 132.800781v68.375c-.019531 11.414063 6.089844 21.960938 16 27.625v68.375c-.039062 12.132813 6.820312 23.230469 17.6875 28.625l10.738281 5.367188 7.148438-14.320313-10.734375-5.359375c-5.433594-2.699219-8.859375-8.253906-8.839844-14.320312v-60.222657l12.425781 6.214844 7.148438-14.320312-24-12-2.734375-1.359375c-5.429688-2.699219-8.859375-8.246094-8.839844-14.3125v-60.222657l28.425781 14.253907 7.148438-14.320313-40-20-2.734375-1.359375c-5.445313-2.703125-8.875-8.273437-8.839844-14.351562v-60.222657l44.425781 22.253907 7.148438-14.320313-56-28c-2.472657-1.234375-5.410157-1.105468-7.765625.34375-2.355469 1.449219-3.7968752 4.011719-3.808594 6.777344v73.167969c-.0234375 11.417969 6.085938 21.96875 16 27.632812zm0 0" fill="url(#linear3)"/><path d="m476.199219 25.191406c-2.355469-1.453125-5.296875-1.589844-7.773438-.351562l-56 28 7.148438 14.320312 44.425781-22.214844v60.222657c.027344 6.054687-3.382812 11.601562-8.800781 14.3125l-2.734375 1.359375-40 20 7.152344 14.320312 28.382812-14.214844v60.222657c.027344 6.054687-3.382812 11.601562-8.800781 14.3125l-2.734375 1.359375-24 12 7.152344 14.320312 12.382812-6.214844v60.222657c.027344 6.054687-3.382812 11.601562-8.800781 14.3125l-10.734375 5.359375 7.152344 14.320312 10.734374-5.367187c10.851563-5.40625 17.695313-16.5 17.648438-28.625v-68.367188c9.910156-5.664062 16.019531-16.210937 16-27.625v-68.375c9.910156-5.664062 16.019531-16.210937 16-27.625v-73.175781c0-2.773438-1.4375-5.351562-3.800781-6.808594zm0 0" fill="url(#linear4)"/><path d="m368 16h16v16h-16zm0 0" fill="url(#linear5)"/><path d="m96 16h16v16h-16zm0 0" fill="url(#linear6)"/><path d="m344 424h16v16h-16zm0 0" fill="url(#linear7)"/><path d="m120 424h16v16h-16zm0 0" fill="url(#linear8)"/></svg>