<?xml version="1.0" encoding="UTF-8"?>
<!DOCTYPE svg PUBLIC "-//W3C//DTD SVG 1.1//EN" "http://www.w3.org/Graphics/SVG/1.1/DTD/svg11.dtd">
<!-- Creator: CorelDRAW X8 -->
<svg xmlns="http://www.w3.org/2000/svg" xml:space="preserve" width="1919px" height="517px" version="1.1" style="shape-rendering:geometricPrecision; text-rendering:geometricPrecision; image-rendering:optimizeQuality; fill-rule:evenodd; clip-rule:evenodd"
viewBox="0 0 19190 5167"
 xmlns:xlink="http://www.w3.org/1999/xlink">
 <defs>
  <style type="text/css">
   <![CDATA[
    .fil18 {fill:#FEFEFE;fill-rule:nonzero}
    .fil1 {fill:#FEFEFE;fill-rule:nonzero}
    .fil13 {fill:#FEF6E6;fill-rule:nonzero}
    .fil20 {fill:#FDCD6A;fill-rule:nonzero}
    .fil15 {fill:#FAB833;fill-rule:nonzero}
    .fil24 {fill:#F29DC3;fill-rule:nonzero}
    .fil33 {fill:#EC69A3;fill-rule:nonzero}
    .fil7 {fill:#EB609E;fill-rule:nonzero}
    .fil22 {fill:#FDE685;fill-rule:nonzero}
    .fil16 {fill:#FDDB4F;fill-rule:nonzero}
    .fil32 {fill:#E74D8F;fill-rule:nonzero}
    .fil12 {fill:#F2E2CD;fill-rule:nonzero}
    .fil10 {fill:#D9BCA6;fill-rule:nonzero}
    .fil8 {fill:#D3579B;fill-rule:nonzero}
    .fil19 {fill:#D5DDF1;fill-rule:nonzero}
    .fil31 {fill:#C0327B;fill-rule:nonzero}
    .fil21 {fill:#C1DAF2;fill-rule:nonzero}
    .fil9 {fill:#BCDEF6;fill-rule:nonzero}
    .fil30 {fill:#7F304F;fill-rule:nonzero}
    .fil29 {fill:#ACC7E9;fill-rule:nonzero}
    .fil17 {fill:#A9C9EB;fill-rule:nonzero}
    .fil28 {fill:#82A7D8;fill-rule:nonzero}
    .fil6 {fill:#8391B0;fill-rule:nonzero}
    .fil27 {fill:#7389C4;fill-rule:nonzero}
    .fil23 {fill:#737FB4;fill-rule:nonzero}
    .fil26 {fill:#506CA8;fill-rule:nonzero}
    .fil34 {fill:#4E5DA5;fill-rule:nonzero}
    .fil2 {fill:#3B4C95;fill-rule:nonzero}
    .fil14 {fill:#282C3C;fill-rule:nonzero}
    .fil5 {fill:#32428A;fill-rule:nonzero}
    .fil3 {fill:#303F75;fill-rule:nonzero}
    .fil4 {fill:#313A6A;fill-rule:nonzero}
    .fil11 {fill:#EBDBEC;fill-rule:nonzero}
    .fil25 {fill:#F2E7F3;fill-rule:nonzero}
    .fil0 {fill:url(#id0)}
   ]]>
  </style>
  <linearGradient id="id0" gradientUnits="userSpaceOnUse" x1="9595" y1="5167.31" x2="9595" y2="0">
   <stop offset="0" style="stop-opacity:0; stop-color:#78087B"/>
   <stop offset="1" style="stop-opacity:0.239216; stop-color:#78087B"/>
  </linearGradient>
 </defs>
 <g id="Layer_x0020_1">
  <metadata id="CorelCorpID_0Corel-Layer"/>
  <rect class="fil0" width="19190" height="5167"/>
  <path class="fil1" d="M3041 5124l-454 0 925 -2227 324 0 935 2227 -458 0 -237 -574 -788 0 -247 574zm635 -1643l-241 685 478 0 -237 -685zm1886 1643l-594 0 0 -2227 440 0c192,0 335,12 429,35 95,23 180,69 256,135 127,112 190,251 190,418 0,187 -82,328 -247,424 138,53 238,132 301,237 53,89 80,194 80,317 0,129 -35,246 -104,350 -69,105 -162,183 -279,234 -116,51 -274,77 -472,77zm-180 -975l0 591 207 0c276,0 414,-97 414,-290 0,-201 -135,-301 -404,-301l-217 0zm0 -868l0 484 133 0c238,0 357,-81 357,-242 0,-161 -106,-242 -320,-242l-170 0zm2403 1886c-322,0 -597,-113 -824,-339 -227,-225 -341,-498 -341,-816 0,-318 114,-591 341,-818 227,-227 502,-340 824,-340 321,0 595,113 822,339 227,225 340,499 340,819 0,318 -113,591 -340,816 -227,226 -501,339 -822,339zm0 -1929c-206,0 -383,75 -530,227 -147,151 -221,333 -221,547 0,212 74,393 221,544 147,152 324,227 530,227 207,0 384,-75 531,-225 147,-150 221,-332 221,-546 0,-214 -74,-396 -221,-547 -147,-152 -324,-227 -531,-227zm1449 1075l0 -1416 411 0 0 1416c0,313 128,470 384,470 256,0 384,-157 384,-470l0 -1416 411 0 0 1416c0,282 -77,495 -229,639 -153,144 -340,215 -563,215 -155,0 -300,-39 -432,-117 -132,-77 -229,-179 -289,-303 -51,-109 -77,-254 -77,-434zm2628 811l-411 0 0 -1843 -414 0 0 -384 1236 0 0 384 -411 0 0 1843zm1462 -811l0 -1416 411 0 0 1416c0,313 128,470 384,470 256,0 384,-157 384,-470l0 -1416 410 0 0 1416c0,282 -76,495 -228,639 -153,144 -340,215 -563,215 -156,0 -300,-39 -432,-117 -133,-77 -229,-179 -289,-303 -51,-109 -77,-254 -77,-434zm2558 854c-201,0 -369,-64 -506,-193 -137,-129 -210,-292 -219,-488l431 0c2,89 30,161 85,216 54,54 127,81 219,81 89,0 161,-26 217,-78 55,-52 83,-120 83,-202 0,-145 -100,-254 -300,-327 -161,-58 -267,-100 -319,-127 -53,-27 -102,-64 -149,-110 -124,-123 -187,-273 -187,-451 0,-174 64,-323 192,-447 128,-125 281,-187 459,-187 183,0 336,60 459,180 124,120 191,271 202,454l-427 0c-13,-167 -95,-250 -244,-250 -69,0 -124,20 -167,61 -42,42 -63,97 -63,166 0,73 24,130 73,170 49,40 149,87 301,140 173,60 300,128 380,204 134,124 201,280 201,467 0,200 -70,371 -211,511 -140,140 -310,210 -510,210z"/>
  <g id="_1226435152">
   <path class="fil2" d="M14405 2988l0 -221c-1,-42 27,-85 83,-117 111,-65 292,-65 403,0 56,32 84,75 84,117l0 220c0,42 -28,85 -84,117 -111,64 -292,64 -403,0 -55,-32 -83,-74 -83,-116l0 0z"/>
   <path class="fil2" d="M14405 2988l0 -221c-1,-42 27,-85 83,-117 111,-65 292,-65 403,0 56,32 84,75 84,117l0 220c0,42 -28,85 -84,117 -111,64 -292,64 -403,0 -55,-32 -83,-74 -83,-116l0 0z"/>
   <polygon class="fil2" points="14690,2494 15160,2766 14690,3037 14219,2766 "/>
   <polygon class="fil3" points="14471,2911 14463,2906 14694,2775 14695,2772 14697,2772 14694,2784 "/>
   <polygon class="fil4" points="15160,2766 15160,2785 14690,3057 14690,3037 "/>
   <polygon class="fil5" points="14219,2766 14219,2785 14690,3057 14690,3037 "/>
   <polygon class="fil6" points="14975,2892 14975,2892 14975,2892 "/>
   <path class="fil3" d="M14690 3086l-242 -165c0,-1 1,-2 1,-3l241 139 285 -165 0 0 -285 194zm-256 -174l-29 -20 30 18c0,1 -1,1 -1,2z"/>
   <path class="fil7" d="M14424 3134c6,4 20,5 26,0l21 137c0,26 -67,26 -67,0l20 -137z"/>
   <polygon class="fil8" points="14419,3288 14415,3286 14423,3213 "/>
   <polygon class="fil8" points="14455,3288 14446,3166 14459,3287 "/>
   <polygon class="fil8" points="14440,3291 14436,3291 14438,3194 "/>
   <path class="fil9" d="M14438 3133l8 -8 0 -195c0,-8 5,-17 12,-21l236 -134 3 -12 -11 -3 -236 135c-13,7 -21,21 -21,35l0 195 9 8z"/>
   <path class="fil7" d="M14456 3125c0,-10 -8,-19 -18,-19 -10,0 -18,9 -18,19 0,10 8,18 18,18 10,0 18,-8 18,-18z"/>
   <path class="fil8" d="M14438 3143c0,0 0,0 0,0 0,0 0,0 0,0 5,0 9,-2 13,-6l0 0c-4,4 -8,6 -13,6zm-1 0c0,0 0,0 0,0 0,0 0,0 0,0zm0 0c0,0 0,0 0,0 0,0 0,0 0,0zm0 0l0 0 0 0zm0 0c0,0 0,0 0,0 0,0 0,0 0,0zm-1 0l0 0 0 0z"/>
   <path class="fil10" d="M14456 3124l0 0 0 0zm0 0c0,0 0,0 0,0 0,0 0,0 0,0zm0 -1c0,0 0,0 0,0 0,0 0,0 0,0zm0 0l0 0 0 0z"/>
   <path class="fil8" d="M14438 3143c0,0 0,0 0,0 -1,0 -1,0 -1,0 0,0 0,0 0,0 0,0 0,0 0,0 0,0 0,0 0,0 0,0 0,0 0,0l0 0c0,0 0,0 0,0 0,0 0,0 0,0 0,0 -1,0 -1,0l0 0c-9,-1 -16,-8 -16,-17 0,3 6,8 13,8 2,0 4,0 7,-1 11,-7 9,-21 0,-26 9,1 15,8 16,16l0 0c0,0 0,0 0,0 0,0 0,0 0,0 0,0 0,1 0,1 0,0 0,0 0,0 0,0 0,0 0,0l0 0c0,0 0,0 0,1 0,5 -2,9 -5,12 -4,4 -8,6 -13,6z"/>
  </g>
  <g id="_1226429264">
   <path class="fil11" d="M1854 4727l109 -63 25 -14 7 -4 12 -7 -1 0 26 -14 468 -270 155 -31 -27 31 -76 87 0 0 0 0 -466 268 0 0 -4 2 -39 23 -1 0 -26 15 0 0 -87 51c-23,16 -77,-15 -83,-46 -2,-12 0,-22 8,-28z"/>
   <polygon class="fil12" points="2552,4409 2655,4291 2500,4322 "/>
   <polygon class="fil13" points="2655,4291 2521,4357 2500,4322 "/>
   <polygon class="fil14" points="2655,4291 2628,4322 2631,4313 2623,4315 2628,4307 2618,4307 2624,4301 2612,4300 "/>
   <path class="fil15" d="M1963 4632l11 -7 14 -8 512 -295c16,3 30,14 39,27 14,20 20,45 13,60l-509 293 -27 15c17,-11 -37,-96 -53,-85z"/>
   <path class="fil16" d="M1974 4625l14 -8 512 -295c16,3 30,14 39,27l-531 301 -34 -25z"/>
   <path class="fil17" d="M2006 4606l26 -15c8,-4 22,9 34,26 16,24 29,54 20,60l-19 11 -7 4c9,-6 -4,-37 -20,-60 -12,-17 -25,-29 -33,-26l0 0 -1 0z"/>
   <path class="fil2" d="M2013 4602c17,-10 70,76 53,86l-26 15c17,-10 -36,-96 -53,-86l26 -15z"/>
   <path class="fil17" d="M1963 4632l25 -15c17,-11 69,72 55,85l-1 1 -26 14c17,-11 -37,-96 -53,-85z"/>
   <path class="fil18" d="M1984 4652l-21 -20 0 -1c1,0 2,0 3,0 6,0 15,7 24,18l-2 1 -4 2z"/>
   <path class="fil19" d="M1992 4660l-8 -8 4 -2 2 -1c2,2 4,5 6,8l0 0 -4 3z"/>
   <path class="fil20" d="M1963 4632l0 -1c0,0 0,0 0,0l0 1z"/>
   <path class="fil21" d="M2046 4628c-10,-15 -22,-26 -30,-26 -1,0 -2,0 -2,0l18 -11c1,0 2,-1 4,-1 7,0 19,12 30,27l-20 11 0 0z"/>
   <path class="fil18" d="M1990 4616l17 -10 0 0c0,0 0,0 0,0l-10 5 -7 5z"/>
   <path class="fil22" d="M1988 4617l2 -1 7 -5 -8 5c0,1 0,1 -1,1z"/>
   <path class="fil21" d="M2007 4606l1 -1 -1 1c0,0 0,0 0,0z"/>
   <path class="fil23" d="M2022 4643c-11,-15 -23,-27 -31,-27 -1,0 -2,0 -2,0l8 -5 10 -5 1 -1 5 -3 1 0c0,0 1,0 2,0 8,0 20,11 30,26l-6 4 -18 11z"/>
   <path class="fil21" d="M1996 4657c-2,-3 -4,-6 -6,-8 -9,-11 -18,-18 -24,-18 -1,0 -2,0 -3,0 0,0 0,0 0,0l24 -14 1 0 0 0c1,0 1,0 1,-1 0,0 1,0 2,0 8,0 20,12 31,27l0 0 -2 0 -24 14z"/>
   <path class="fil7" d="M1854 4694l109 -62c7,-5 21,8 33,25 16,23 30,54 20,60l0 0 -104 60c-23,16 -60,-24 -66,-55 -2,-12 0,-22 8,-28z"/>
   <path class="fil24" d="M1854 4694l109 -62c7,-5 21,8 33,25l-106 65c0,0 -18,-23 -29,-23 -12,1 -16,10 -15,23 -2,-12 0,-22 8,-28z"/>
  </g>
  <g id="_1226425072">
   <polygon class="fil25" points="1587,4176 2088,4429 2641,4097 1942,3959 "/>
   <polygon class="fil26" points="1877,3538 1877,3576 1819,3605 1819,3564 "/>
   <polygon class="fil18" points="1836,3575 1903,3540 1987,3589 1903,3637 "/>
   <path class="fil16" d="M1834 3569c-8,4 -8,12 0,16l37 46c8,5 21,5 29,0 8,-4 8,-12 -1,-16l-36 -46c-9,-5 -22,-5 -29,0z"/>
   <path class="fil27" d="M1942 3656l0 315c0,11 -8,25 -18,31l-301 174c-4,2 -9,4 -14,4l281 -519c5,0 10,-2 14,-4l20 -12c10,-5 18,-1 18,11z"/>
   <path class="fil28" d="M1868 3657l-46 -51 -41 -23c-3,-6 -8,-11 -5,-16l-279 514 0 1c-3,5 -3,16 3,20l87 74c6,3 14,5 22,4l281 -519c-8,1 -16,-1 -22,-4z"/>
   <path class="fil29" d="M1781 3562c-10,6 -7,12 0,21l87 74c10,6 26,6 36,0l77 -44c9,-6 11,-14 3,-19 -7,-4 -22,-3 -32,3l-60 35c-3,1 -9,1 -12,0l-55 -56c-3,-2 -3,-5 0,-7l62 -32c9,-5 11,-14 3,-18 -7,-5 -22,-3 -32,2l-77 41z"/>
   <path class="fil30" d="M2392 3156l-1 0 -13 -8 -490 266 0 12 0 10 0 878c6,0 11,-1 16,-2 5,-1 10,-3 14,-5l356 -303c1,0 2,-1 3,-2 15,-11 27,-32 27,-50l0 -626 3 -34 85 -136z"/>
   <path class="fil30" d="M2392 3156l-1 0 -13 -8 -490 266 0 12 0 10 0 0 0 878 0 0c6,0 11,-1 16,-2 5,-1 10,-3 14,-5l359 -305 9 -5c17,-10 30,-33 30,-52l-3 -624 87 -80 0 -66c0,-8 -2,-15 -8,-19z"/>
   <path class="fil18" d="M1927 3431l437 -252c5,-3 12,-3 17,0l69 40 -448 255 -75 -43z"/>
   <path class="fil16" d="M2018 3467c8,-5 7,-12 -1,-17l-54 -31c-8,-5 -21,-5 -29,-1 -8,5 -7,12 1,17l54 31c8,5 21,5 29,1z"/>
   <path class="fil31" d="M2504 3221c0,0 -4,-2 -9,-5l-5 -3 -490 266 0 12 0 10 0 878c11,0 22,-3 30,-8l453 -261c16,-9 30,-32 30,-52l0 -818c-1,-8 -3,-15 -9,-19z"/>
   <path class="fil32" d="M1878 4283c0,19 13,43 30,52l63 36c13,8 29,8 29,8 0,0 0,-17 0,-25l0 -875 -122 -59 0 863z"/>
   <path class="fil33" d="M2014 3461l0 0 1 -1 11 -6c4,-2 8,-5 12,-7 11,-7 22,-13 34,-20 3,-1 6,-3 8,-5 18,-10 35,-20 53,-30 5,-3 11,-6 17,-10l16 -9c11,-6 -54,31 -44,26 2,-2 5,-3 7,-4l14 -8c38,-22 63,-37 63,-37l101 -58 10 -6 135 -78 0 0c9,-4 21,-5 29,0l23 13c-7,-4 -13,-3 -21,2 -1,0 -2,1 -3,1l-167 97 -9 5 -98 56 -176 102c-8,4 -19,7 -30,7 -10,0 -20,-2 -28,-6 0,-1 -1,-1 -1,-1l-81 -47 -2 -1 0 0c-5,-3 -8,-7 -9,-11l0 0c-3,-8 0,-16 11,-22l13 -8 10 -6c2,-1 5,-2 7,-3 2,-2 4,-3 6,-4 11,-6 22,-13 34,-20 2,-1 5,-3 8,-5 18,-10 35,-20 52,-30 6,-3 -63,37 -58,34l17 -9 15 -9c5,-3 10,-6 15,-9 3,-2 5,-3 8,-4l13 -8c5,-3 10,-6 14,-8 6,-3 11,-6 16,-9 5,-3 9,-6 13,-8 3,-1 5,-3 7,-4 3,-1 4,-2 6,-3 3,-2 5,-3 6,-4l2 -1 0 0 246 -142 0 0 2 -1c8,-3 19,-3 27,1l14 8 8 5c-6,-3 -11,-3 -17,0 -1,1 -2,1 -3,2l-3 2 -274 158 -169 97c-5,3 -5,7 0,10l60 35c8,4 20,5 29,1z"/>
   <polygon class="fil34" points="2297,4002 2297,4002 2350,3971 2350,3971 "/>
  </g>
 </g>
</svg>
