<?xml version="1.0" encoding="UTF-8"?>
<!DOCTYPE svg PUBLIC "-//W3C//DTD SVG 1.1//EN" "http://www.w3.org/Graphics/SVG/1.1/DTD/svg11.dtd">
<!-- Creator: CorelDRAW X8 -->
<svg xmlns="http://www.w3.org/2000/svg" xml:space="preserve" width="500px" height="500px" version="1.1" style="shape-rendering:geometricPrecision; text-rendering:geometricPrecision; image-rendering:optimizeQuality; fill-rule:evenodd; clip-rule:evenodd"
viewBox="0 0 5000 5000"
 xmlns:xlink="http://www.w3.org/1999/xlink">
 <defs>
  <style type="text/css">
   <![CDATA[
    .fil20 {fill:#FFE01B}
    .fil18 {fill:#FEFEFE;fill-rule:nonzero}
    .fil9 {fill:#FCD70E;fill-rule:nonzero}
    .fil8 {fill:#F9C500;fill-rule:nonzero}
    .fil16 {fill:#E34925;fill-rule:nonzero}
    .fil13 {fill:#E56625;fill-rule:nonzero}
    .fil19 {fill:#F2D41E;fill-rule:nonzero}
    .fil12 {fill:#E8E0DA;fill-rule:nonzero}
    .fil0 {fill:#E5E4E3;fill-rule:nonzero}
    .fil14 {fill:#DCDBD7;fill-rule:nonzero}
    .fil7 {fill:#B0BFCD;fill-rule:nonzero}
    .fil10 {fill:#8092A5;fill-rule:nonzero}
    .fil6 {fill:#8090A0;fill-rule:nonzero}
    .fil11 {fill:#5E6F81;fill-rule:nonzero}
    .fil17 {fill:#47999E;fill-rule:nonzero}
    .fil3 {fill:#495A6A;fill-rule:nonzero}
    .fil15 {fill:#46769F;fill-rule:nonzero}
    .fil1 {fill:#3B434C;fill-rule:nonzero}
    .fil2 {fill:#313538;fill-rule:nonzero}
    .fil5 {fill:#3C4957;fill-rule:nonzero}
    .fil4 {fill:#353941;fill-rule:nonzero}
   ]]>
  </style>
 </defs>
 <g id="Layer_x0020_1">
  <metadata id="CorelCorpID_0Corel-Layer"/>
  <g id="_1271229488">
   <path class="fil0" d="M1025 1642c-21,0 -42,-13 -50,-34l-25 -67c-12,2 -24,3 -36,3 -17,0 -35,-2 -52,-6l-29 66c-9,20 -28,31 -48,31 -8,0 -15,-1 -22,-4 -27,-12 -39,-44 -27,-70l30 -66c-23,-17 -44,-39 -60,-64l-67 26c-6,2 -13,3 -19,3 -21,0 -41,-13 -49,-34 -11,-27 3,-58 30,-68l67 -26c-4,-29 -3,-59 3,-87l-66 -29c-26,-12 -38,-44 -26,-70 9,-20 28,-32 48,-32 7,0 15,2 22,5l65 29c18,-23 39,-43 64,-60l-26 -67c-10,-27 4,-58 31,-68 6,-2 13,-3 19,-3 21,0 41,13 49,34l26 67c12,-2 24,-3 36,-3 17,0 35,2 51,5l30 -65c9,-20 28,-31 48,-31 7,0 15,1 22,4 13,6 23,17 28,30 4,13 4,27 -2,40l-29 66c23,17 44,38 60,63l67 -25c6,-2 13,-3 19,-3 21,0 41,13 49,34 11,27 -3,58 -30,68l-67 25c4,30 3,60 -3,88l65 29c14,6 23,17 28,30 5,12 5,27 -1,40 -9,20 -28,32 -48,32 -8,0 -15,-2 -22,-5l-66 -30c-17,24 -38,44 -63,61l25 67c11,27 -3,57 -30,68 -7,2 -13,3 -19,3zm-112 -488c-16,0 -34,3 -50,9 -73,28 -110,110 -82,183 21,57 75,92 133,92 16,0 33,-3 50,-9 7,-3 14,-7 21,-10 8,-6 17,-13 24,-20l1 1 2 -2 -1 0c8,-8 16,-17 23,-27l0 0c22,-36 29,-82 12,-126 -21,-56 -75,-91 -133,-91z"/>
   <path class="fil0" d="M1350 1056c-20,0 -37,-16 -38,-36l-2 -51c-20,-3 -40,-11 -58,-21l-34 37c-8,8 -18,12 -28,12 -9,0 -18,-3 -25,-10 -15,-14 -16,-37 -2,-53l34 -37c-12,-17 -21,-36 -26,-56l-51 2c0,0 -1,0 -1,0 -20,0 -37,-16 -38,-36 0,-21 16,-38 36,-39l51 -2c4,-21 11,-41 22,-58l-38 -35c-15,-14 -16,-37 -2,-53 8,-8 18,-12 28,-12 9,0 18,4 25,10l38 35c16,-12 35,-21 56,-26l-2 -51c-1,-21 15,-38 36,-39 0,0 1,0 1,0 20,0 37,16 38,36l2 51c20,3 40,11 58,21l34 -37c8,-8 18,-12 28,-12 9,0 18,3 25,10 8,7 12,16 12,26 1,9 -3,19 -10,27l-34 37c12,17 21,36 26,56l51 -2c0,0 1,0 1,0 20,0 37,16 37,36 1,21 -15,38 -35,39l-51 2c-4,21 -11,40 -22,58l38 35c7,7 11,16 12,26 0,9 -3,19 -10,27 -8,8 -18,12 -28,12 -9,0 -18,-4 -25,-10l-38 -35c-16,12 -35,21 -56,26l2 51c1,21 -15,38 -36,39 0,0 -1,0 -1,0zm-9 -360c-1,0 -3,0 -4,0 -55,2 -99,49 -97,104 3,55 47,97 101,97 1,0 3,0 4,0 6,0 11,-1 17,-2 7,-2 13,-5 20,-8l0 1 2 -1 -1 0c8,-4 15,-8 22,-13l0 0c23,-19 38,-49 37,-82 -3,-54 -47,-96 -101,-96z"/>
   <path class="fil0" d="M4198 2654c-10,0 -18,-8 -18,-17l0 -196c0,-10 8,-18 18,-18 9,0 17,8 17,18l0 196c0,9 -8,17 -17,17z"/>
   <path class="fil0" d="M4296 2556l-196 0c-10,0 -18,-8 -18,-17 0,-10 8,-18 18,-18l196 0c9,0 17,8 17,18 0,9 -8,17 -17,17z"/>
   <path class="fil0" d="M4793 2179c-5,0 -9,-2 -13,-6 -7,-6 -7,-18 0,-24l139 -139c7,-7 18,-7 25,0 7,7 7,18 0,25l-139 138c-3,4 -8,6 -12,6z"/>
   <path class="fil0" d="M4931 2179c-4,0 -9,-2 -12,-6l-139 -138c-7,-7 -7,-18 0,-25 7,-7 18,-7 25,0l139 139c7,6 7,18 0,24 -4,4 -8,6 -13,6z"/>
   <path class="fil0" d="M1089 3799c-10,0 -17,-8 -17,-18l0 -196c0,-10 7,-18 17,-18 10,0 18,8 18,18l0 196c0,10 -8,18 -18,18z"/>
   <path class="fil0" d="M1187 3701l-196 0c-9,0 -17,-8 -17,-18 0,-10 8,-18 17,-18l196 0c10,0 18,8 18,18 0,10 -8,18 -18,18z"/>
   <path class="fil0" d="M69 3234c-5,0 -9,-1 -13,-5 -7,-7 -7,-18 0,-25l139 -138c7,-7 18,-7 25,0 7,6 7,18 0,25l-139 138c-3,4 -8,5 -12,5z"/>
   <path class="fil0" d="M207 3234c-4,0 -9,-1 -12,-5l-139 -138c-7,-7 -7,-19 0,-25 7,-7 18,-7 25,0l139 138c7,7 7,18 0,25 -4,4 -8,5 -13,5z"/>
   <path class="fil0" d="M243 440c-10,0 -18,-8 -18,-18l0 -196c0,-10 8,-18 18,-18 9,0 17,8 17,18l0 196c0,10 -8,18 -17,18z"/>
   <path class="fil0" d="M341 342l-196 0c-10,0 -18,-8 -18,-18 0,-10 8,-18 18,-18l196 0c9,0 17,8 17,18 0,10 -8,18 -17,18z"/>
   <path class="fil0" d="M4821 4285c-10,0 -18,-8 -18,-18l0 -196c0,-10 8,-17 18,-17 10,0 17,7 17,17l0 196c0,10 -7,18 -17,18z"/>
   <path class="fil0" d="M4919 4187l-196 0c-10,0 -18,-8 -18,-18 0,-10 8,-17 18,-17l196 0c10,0 17,7 17,17 0,10 -7,18 -17,18z"/>
   <path class="fil0" d="M912 2680c-4,0 -9,-1 -12,-5 -7,-7 -7,-18 0,-25l138 -138c7,-7 18,-7 25,0 7,7 7,18 0,25l-138 138c-4,4 -8,5 -13,5z"/>
   <path class="fil0" d="M1051 2680c-5,0 -9,-1 -13,-5l-138 -138c-7,-7 -7,-18 0,-25 7,-7 18,-7 25,0l138 138c7,7 7,18 0,25 -3,4 -8,5 -12,5z"/>
   <path class="fil0" d="M4342 462c-5,0 -9,-2 -13,-5 -6,-7 -6,-18 0,-25l139 -139c7,-7 18,-7 25,0 7,7 7,18 0,25l-139 139c-3,3 -8,5 -12,5z"/>
   <path class="fil0" d="M4481 462c-5,0 -10,-2 -13,-5l-139 -139c-6,-7 -6,-18 0,-25 7,-7 19,-7 25,0l139 139c7,7 7,18 0,25 -3,3 -8,5 -12,5z"/>
   <path class="fil0" d="M2571 4792c-1014,0 -1835,-49 -1835,-109 0,-60 821,-109 1835,-109 1013,0 1835,49 1835,109 0,60 -822,109 -1835,109z"/>
   <polygon class="fil1" points="2519,489 3002,1217 3896,1374 3404,629 "/>
   <polygon class="fil1" points="2519,489 2506,502 3883,1387 3896,1374 "/>
   <polygon class="fil2" points="2506,502 2989,1230 3883,1387 3390,642 "/>
   <path class="fil1" d="M3521 1165l-97 158 -129 213 -667 -436c5,-13 94,-137 164,-236 49,-67 88,-122 88,-122 297,4 511,144 641,423z"/>
   <path class="fil3" d="M3021 756c-44,-9 -91,-13 -141,-14 0,0 -39,55 -88,122 -70,99 -159,223 -164,236l109 71c91,-139 183,-284 284,-415z"/>
   <path class="fil4" d="M3424 1323c0,-1 0,-2 -1,-3 -88,-293 -342,-395 -499,-431 31,-45 64,-90 97,-133 -43,-8 -88,-13 -136,-14 294,6 507,146 636,423l-87 143 -10 15zm-539 -581c0,0 -1,0 -1,0 0,0 1,0 1,0zm-1 0c-1,0 -1,0 -1,0 0,0 0,0 1,0zm-2 0c0,0 0,0 0,0 0,0 0,0 0,0zm-1 0c0,0 0,0 -1,0 1,0 1,0 1,0z"/>
   <path class="fil5" d="M2924 889c-77,-17 -131,-18 -131,-18l-1 -7c49,-67 88,-122 88,-122l0 0c1,0 1,0 1,0 1,0 1,0 1,0 0,0 0,0 0,0 1,0 1,0 1,0 0,0 0,0 1,0 0,0 0,0 0,0 0,0 1,0 1,0 0,0 0,0 0,0 48,1 93,6 136,14 -33,43 -66,88 -97,133z"/>
   <path class="fil6" d="M2550 3704l-203 0c-75,0 -135,-61 -135,-135l0 -188c0,-75 60,-136 135,-136l203 0c75,0 136,61 136,136l0 188c0,74 -61,135 -136,135z"/>
   <path class="fil7" d="M2677 3624l-456 0c-58,0 -105,-47 -105,-105l0 -435c0,-57 47,-104 105,-104l456 0c58,0 104,47 104,104l0 435c0,58 -46,105 -104,105z"/>
   <path class="fil8" d="M3395 1943c0,-537 -448,-970 -991,-945 -482,22 -874,412 -900,894 -21,403 210,754 549,911l0 250c0,63 51,113 113,113l565 0c63,0 113,-50 113,-113l0 -250c325,-150 551,-478 551,-860z"/>
   <path class="fil9" d="M2691 3112c-85,0 -209,0 -209,0 0,0 238,-58 304,-271l0 213c0,0 -10,58 -95,58z"/>
   <path class="fil9" d="M1699 1578c143,-308 447,-488 765,-488 119,0 240,25 355,79 -13,-1 -26,-1 -39,-1 -383,0 -746,124 -1081,410z"/>
   <polygon class="fil6" points="2144,3218 2733,3218 2733,3207 2144,3207 "/>
   <polygon class="fil6" points="2144,3257 2733,3257 2733,3247 2144,3247 "/>
   <polygon class="fil6" points="2144,3297 2733,3297 2733,3286 2144,3286 "/>
   <polygon class="fil6" points="2144,3336 2733,3336 2733,3325 2144,3325 "/>
   <polygon class="fil6" points="2144,3375 2733,3375 2733,3364 2144,3364 "/>
   <polygon class="fil6" points="2144,3414 2733,3414 2733,3403 2144,3403 "/>
   <polygon class="fil6" points="2144,3453 2733,3453 2733,3443 2144,3443 "/>
   <polygon class="fil6" points="2144,3493 2733,3493 2733,3482 2144,3482 "/>
   <polygon class="fil6" points="2144,3532 2733,3532 2733,3521 2144,3521 "/>
   <polygon class="fil6" points="2144,3571 2733,3571 2733,3560 2144,3560 "/>
   <path class="fil10" d="M2645 3573l-119 0c-1,0 -2,-1 -2,-2l0 0 145 0c-7,2 -15,2 -24,2zm52 -13l-173 0 0 -28 200 0c-6,10 -14,20 -27,28zm31 -39l-204 0 0 -28 209 0 0 -11 -209 0 0 -29 209 0 0 -10 -209 0 0 -29 209 0 0 -11 -209 0 0 -28 209 0 0 -11 -209 0 0 -28 209 0 0 -11 -209 0 0 -28 209 0 0 -11 -209 0 0 -29 209 0 0 -10 -209 0 0 -28c0,0 0,-1 0,-1l209 0 0 -2 0 284c0,0 0,9 -5,21z"/>
   <path class="fil11" d="M2733 3218l-209 0c1,-1 1,-1 2,-1l205 -3c0,0 0,0 0,0 1,0 2,1 2,2l0 2z"/>
   <polygon class="fil11" points="2524,3257 2733,3257 2733,3247 2524,3247 "/>
   <polygon class="fil11" points="2524,3297 2733,3297 2733,3286 2524,3286 "/>
   <polygon class="fil11" points="2524,3336 2733,3336 2733,3325 2524,3325 "/>
   <polygon class="fil11" points="2524,3375 2733,3375 2733,3364 2524,3364 "/>
   <polygon class="fil11" points="2524,3414 2733,3414 2733,3403 2524,3403 "/>
   <polygon class="fil11" points="2524,3453 2733,3453 2733,3443 2524,3443 "/>
   <polygon class="fil11" points="2524,3493 2733,3493 2733,3482 2524,3482 "/>
   <path class="fil11" d="M2724 3532l-200 0 0 -11 204 0c-1,4 -2,7 -4,11z"/>
   <path class="fil11" d="M2669 3571l-145 0 0 -11 173 0c-7,5 -17,9 -28,11z"/>
   <path class="fil12" d="M3309 3979l-1164 0c-13,0 -23,-10 -23,-22l0 -241c0,-13 10,-23 23,-23l1164 0c12,0 23,10 23,23l0 241c0,12 -11,22 -23,22z"/>
   <path class="fil13" d="M3335 3739l-1164 0c-12,0 -23,-10 -23,-23 0,-13 11,-23 23,-23l1164 0c12,0 23,10 23,23 0,13 -11,23 -23,23z"/>
   <path class="fil13" d="M3335 3935l-1164 0c-12,0 -23,-10 -23,-23 0,-12 11,-23 23,-23l1164 0c12,0 23,11 23,23 0,13 -11,23 -23,23z"/>
   <path class="fil14" d="M3536 4685l-1625 0c-12,0 -23,-10 -23,-23l0 -240c0,-13 11,-23 23,-23l1625 0c13,0 23,10 23,23l0 240c0,13 -10,23 -23,23z"/>
   <path class="fil15" d="M3575 4430l-1680 0c-4,0 -7,-3 -7,-7l0 -18c0,-3 3,-6 7,-6l1680 0c4,0 6,3 6,6l0 18c0,4 -2,7 -6,7z"/>
   <path class="fil15" d="M3575 4683l-1680 0c-4,0 -7,-3 -7,-7l0 -18c0,-4 3,-6 7,-6l1680 0c4,0 6,2 6,6l0 18c0,4 -2,7 -6,7z"/>
   <path class="fil12" d="M3426 4145l-1402 0c-13,0 -23,-10 -23,-23l0 -120c0,-12 10,-23 23,-23l1402 0c12,0 22,11 22,23l0 120c0,13 -10,23 -22,23z"/>
   <path class="fil16" d="M3454 4005l-1432 0c-4,0 -8,-4 -8,-8l0 -10c0,-4 4,-8 8,-8l1432 0c4,0 8,4 8,8l0 10c0,4 -4,8 -8,8z"/>
   <path class="fil16" d="M3454 4144l-1432 0c-4,0 -8,-3 -8,-8l0 -9c0,-4 4,-8 8,-8l1432 0c4,0 8,4 8,8l0 9c0,5 -4,8 -8,8z"/>
   <path class="fil14" d="M3424 3934l-1386 0c-3,0 -6,2 -6,6l0 34c0,3 3,5 6,5l1386 0c3,0 6,-2 6,-5l0 -34c0,-4 -3,-6 -6,-6z"/>
   <path class="fil12" d="M3451 4399l-1391 0c-12,0 -22,-10 -22,-23l0 -180c0,-13 10,-23 22,-23l1391 0c13,0 23,10 23,23l0 180c0,13 -10,23 -23,23z"/>
   <path class="fil17" d="M3470 4399l-1410 0c-12,0 -22,-10 -22,-23 0,-13 10,-23 22,-23l1410 0c13,0 23,10 23,23 0,13 -10,23 -23,23z"/>
   <path class="fil17" d="M3470 4190l-1410 0c-12,0 -22,-10 -22,-22 0,-13 10,-23 22,-23l1410 0c13,0 23,10 23,23 0,12 -10,22 -23,22z"/>
   <path class="fil13" d="M2737 3979l-1164 0c-13,0 -23,-10 -23,-22l0 -241c0,-13 10,-23 23,-23l1164 0c12,0 22,10 22,23l0 241c0,12 -10,22 -22,22z"/>
   <path class="fil15" d="M2987 4685l-1648 0c-13,0 -23,-10 -23,-23l0 -240c0,-13 10,-23 23,-23l1648 0c12,0 22,10 22,23l0 240c0,13 -10,23 -22,23z"/>
   <path class="fil16" d="M2853 4145l-1401 0c-13,0 -23,-10 -23,-23l0 -120c0,-12 10,-23 23,-23l1401 0c13,0 23,11 23,23l0 120c0,13 -10,23 -23,23z"/>
   <path class="fil17" d="M2846 3934l-1374 0c-7,0 -12,5 -12,12l0 22c0,6 5,11 12,11l1374 0c6,0 12,-5 12,-11l0 -22c0,-7 -6,-12 -12,-12z"/>
   <path class="fil17" d="M2898 4399l-1410 0c-12,0 -23,-10 -23,-23l0 -208c0,-13 11,-23 23,-23l1410 0c12,0 23,10 23,23l0 208c0,13 -11,23 -23,23z"/>
   <polygon class="fil13" points="1521,4142 1588,4142 1588,3980 1521,3980 "/>
   <polygon class="fil18" points="1578,4397 1722,4397 1722,4142 1578,4142 "/>
   <polygon class="fil18" points="1797,4358 1808,4358 1808,4188 1797,4188 "/>
   <polygon class="fil18" points="1458,4577 2685,4577 2685,4545 1458,4545 "/>
   <polygon class="fil18" points="1644,4088 1655,4088 1655,4022 1644,4022 "/>
   <polygon class="fil19" points="1583,3979 1616,3979 1616,3933 1583,3933 "/>
   <polygon class="fil19" points="1660,3929 1692,3929 1692,3695 1660,3695 "/>
   <polygon class="fil18" points="1794,3836 2572,3836 2572,3803 1794,3803 "/>
   <path class="fil20" d="M2802 1874l56 -23c3,-2 5,-4 8,0 3,3 47,118 53,127 5,0 48,-18 55,-22l-2 -18c-3,-20 -5,-43 -8,-63l-7 -64c6,-6 28,-9 33,-15 4,0 16,-6 20,-8 1,0 2,-1 4,-2l3 -2c2,0 97,-39 105,-46 15,-11 38,-33 37,-55 -1,-16 -21,-23 -34,-26 -44,-10 -96,17 -139,34l-4 3 -26 10c-6,2 -20,9 -28,12 -6,2 -4,1 -8,4l-87 -105c-2,-3 -5,-6 -8,-9 -6,1 -21,9 -29,11 -25,12 -26,1 -9,42 5,11 9,22 14,33 5,11 9,21 13,32 4,10 11,23 13,33l-71 29 -27 -43c-5,-6 -10,-10 -14,-18 -11,-17 -57,-62 -76,-75 0,0 0,0 0,0 -23,-17 -32,-23 -58,-38 -3,-2 -3,-2 -6,-4 -2,-1 -2,-1 -3,-2 -20,-10 -41,-19 -63,-26 -8,-3 -15,-5 -23,-7 -9,-2 -16,-5 -25,-7 -18,-3 -36,-6 -55,-7 -29,-2 -58,-2 -87,0l-27 5c-11,2 -24,4 -34,7l-32 10c-41,14 -86,33 -121,59l-27 20c-10,7 -18,15 -27,24l-8 8c-1,1 -1,1 -2,2 -2,3 -3,4 -5,6l-53 72c-14,25 -25,51 -34,79 -1,3 -1,4 -2,7l-9 33c-3,12 -6,23 -7,35 -2,18 -6,37 -6,56 0,26 0,53 4,79 2,13 2,19 6,35l7 24c3,11 9,27 14,37l13 28c2,3 3,4 4,6 1,3 2,5 4,7 1,2 1,2 2,3 0,2 0,2 1,4 2,3 2,2 4,6 3,7 21,31 26,37 4,4 6,8 9,12 10,10 19,22 30,32 3,4 6,7 10,10 22,20 44,39 69,55 12,8 26,15 39,23 19,10 39,17 59,24 5,2 11,4 15,5 17,4 35,9 52,11 6,1 12,1 18,2 23,5 64,2 88,1l29 -4c11,-3 22,-3 33,-7l32 -10c6,-2 9,-5 15,-6 20,-7 46,-25 66,-37 0,8 1,16 0,25 0,44 -7,41 38,40 14,0 180,2 187,0 9,-2 9,-10 9,-19l-1 -446c-1,-5 -2,-5 -2,-12 -1,-18 -3,-22 -5,-36 0,-4 -1,-7 -2,-11l-5 -22 9 -4zm-227 407c1,-3 3,-251 -1,-290 -5,-56 -23,-103 -63,-143 -5,-5 -10,-9 -15,-14 -37,-29 -83,-45 -133,-44 -60,0 -124,30 -160,76 -42,53 -58,112 -38,181 17,57 59,102 111,126 72,32 144,25 214,-8 10,-5 14,-4 20,5l21 37c7,13 14,25 22,38l11 18c2,4 7,17 11,18z"/>
  </g>
 </g>
</svg>
