<?xml version="1.0" encoding="UTF-8"?>
<!DOCTYPE svg PUBLIC "-//W3C//DTD SVG 1.1//EN" "http://www.w3.org/Graphics/SVG/1.1/DTD/svg11.dtd">
<!-- Creator: CorelDRAW 2019 (64-Bit) -->
<svg xmlns="http://www.w3.org/2000/svg" xml:space="preserve" width="697px" height="402px" version="1.1" style="shape-rendering:geometricPrecision; text-rendering:geometricPrecision; image-rendering:optimizeQuality; fill-rule:evenodd; clip-rule:evenodd"
viewBox="0 0 6970 4016.6"
 xmlns:xlink="http://www.w3.org/1999/xlink">
 <defs>
  <style type="text/css">
   <![CDATA[
    .fil17 {fill:#FEFEFE;fill-rule:nonzero}
    .fil24 {fill:#F3B718;fill-rule:nonzero}
    .fil21 {fill:#CAC5E3;fill-rule:nonzero}
    .fil6 {fill:#BCBADE;fill-rule:nonzero}
    .fil7 {fill:#A09FCF;fill-rule:nonzero}
    .fil13 {fill:#7CC9CE;fill-rule:nonzero}
    .fil29 {fill:#4B82BA;fill-rule:nonzero}
    .fil50 {fill:#4D5BA4;fill-rule:nonzero}
    .fil28 {fill:#4C4C98;fill-rule:nonzero}
    .fil22 {fill:#4C3E8E;fill-rule:nonzero}
    .fil40 {fill:#493787;fill-rule:nonzero}
    .fil26 {fill:#463586;fill-rule:nonzero}
    .fil39 {fill:#463585;fill-rule:nonzero}
    .fil5 {fill:#3B4190;fill-rule:nonzero}
    .fil25 {fill:#3D327C;fill-rule:nonzero}
    .fil41 {fill:#3C3279;fill-rule:nonzero}
    .fil8 {fill:#342F64;fill-rule:nonzero}
    .fil12 {fill:#8155F3;fill-rule:nonzero}
    .fil27 {fill:url(#id0)}
    .fil46 {fill:url(#id1)}
    .fil44 {fill:url(#id2)}
    .fil9 {fill:url(#id3)}
    .fil11 {fill:url(#id4)}
    .fil18 {fill:url(#id5)}
    .fil34 {fill:url(#id6)}
    .fil36 {fill:url(#id7)}
    .fil20 {fill:url(#id8)}
    .fil32 {fill:url(#id9)}
    .fil35 {fill:url(#id10)}
    .fil15 {fill:url(#id11)}
    .fil19 {fill:url(#id12)}
    .fil45 {fill:url(#id13)}
    .fil4 {fill:url(#id14)}
    .fil16 {fill:url(#id15)}
    .fil48 {fill:url(#id16)}
    .fil43 {fill:url(#id17)}
    .fil23 {fill:url(#id18)}
    .fil33 {fill:url(#id19)}
    .fil37 {fill:url(#id20)}
    .fil10 {fill:url(#id21)}
    .fil47 {fill:url(#id22)}
    .fil42 {fill:url(#id23)}
    .fil38 {fill:url(#id24)}
    .fil2 {fill:url(#id25)}
    .fil49 {fill:url(#id26)}
    .fil3 {fill:url(#id27)}
    .fil31 {fill:url(#id28)}
    .fil14 {fill:url(#id29)}
    .fil1 {fill:url(#id30)}
    .fil30 {fill:url(#id31)}
    .fil0 {fill:url(#id32)}
   ]]>
  </style>
  <linearGradient id="id0" gradientUnits="userSpaceOnUse" x1="3928.1" y1="2408.7" x2="3928.1" y2="1795.3">
   <stop offset="0" style="stop-opacity:1; stop-color:#CEC9E5"/>
   <stop offset="1" style="stop-opacity:1; stop-color:#EEEDF7"/>
  </linearGradient>
  <linearGradient id="id1" gradientUnits="userSpaceOnUse" xlink:href="#id0" x1="2310.8" y1="3372.8" x2="1905" y2="3372.8">
  </linearGradient>
  <linearGradient id="id2" gradientUnits="userSpaceOnUse" x1="3122" y1="3335.3" x2="1521.1" y2="3335.3">
   <stop offset="0" style="stop-opacity:1; stop-color:#6060A7"/>
   <stop offset="1" style="stop-opacity:1; stop-color:#CAC5E3"/>
  </linearGradient>
  <linearGradient id="id3" gradientUnits="userSpaceOnUse" xlink:href="#id0" x1="1949.5" y1="1925.8" x2="2348.2" y2="1925.8">
  </linearGradient>
  <linearGradient id="id4" gradientUnits="userSpaceOnUse" xlink:href="#id2" x1="1979.3" y1="2138.8" x2="2170.2" y2="2138.8">
  </linearGradient>
  <linearGradient id="id5" gradientUnits="userSpaceOnUse" xlink:href="#id0" x1="5009" y1="1925.8" x2="4610.3" y2="1925.8">
  </linearGradient>
  <linearGradient id="id6" gradientUnits="userSpaceOnUse" xlink:href="#id2" x1="3836.5" y1="3335.3" x2="5437.4" y2="3335.3">
  </linearGradient>
  <linearGradient id="id7" gradientUnits="userSpaceOnUse" xlink:href="#id0" x1="4647.7" y1="3372.8" x2="5053.5" y2="3372.8">
  </linearGradient>
  <linearGradient id="id8" gradientUnits="userSpaceOnUse" xlink:href="#id2" x1="4979.2" y1="2138.8" x2="4788.3" y2="2138.8">
  </linearGradient>
  <linearGradient id="id9" gradientUnits="userSpaceOnUse" xlink:href="#id0" x1="3685.7" y1="2717.8" x2="4818" y2="2717.8">
  </linearGradient>
  <linearGradient id="id10" gradientUnits="userSpaceOnUse" xlink:href="#id0" x1="4375.4" y1="3281.9" x2="5971.1" y2="3281.9">
  </linearGradient>
  <linearGradient id="id11" gradientUnits="userSpaceOnUse" xlink:href="#id2" x1="5437.5" y1="2099.4" x2="3864.5" y2="2099.4">
  </linearGradient>
  <linearGradient id="id12" gradientUnits="userSpaceOnUse" xlink:href="#id0" x1="4978.4" y1="1853.2" x2="3865.9" y2="1853.2">
  </linearGradient>
  <linearGradient id="id13" gradientUnits="userSpaceOnUse" xlink:href="#id0" x1="2583.1" y1="3281.9" x2="987.4" y2="3281.9">
  </linearGradient>
  <linearGradient id="id14" gradientUnits="userSpaceOnUse" xlink:href="#id0" x1="2049.7" y1="2046.6" x2="3621.5" y2="2046.6">
  </linearGradient>
  <linearGradient id="id15" gradientUnits="userSpaceOnUse" xlink:href="#id0" x1="4908.9" y1="2046.9" x2="3337.1" y2="2046.9">
  </linearGradient>
  <linearGradient id="id16" gradientUnits="userSpaceOnUse" x1="3300.9" y1="2809.2" x2="2891.9" y2="2809.2">
   <stop offset="0" style="stop-opacity:1; stop-color:#4A3787"/>
   <stop offset="1" style="stop-opacity:1; stop-color:#4F3A89"/>
  </linearGradient>
  <linearGradient id="id17" gradientUnits="userSpaceOnUse" xlink:href="#id2" x1="3273.4" y1="3008.5" x2="3079.4" y2="3008.5">
  </linearGradient>
  <linearGradient id="id18" gradientUnits="userSpaceOnUse" xlink:href="#id0" x1="3928.1" y1="2917.4" x2="3928.1" y2="2303.9">
  </linearGradient>
  <linearGradient id="id19" gradientUnits="userSpaceOnUse" xlink:href="#id2" x1="3685" y1="3008.5" x2="3879.1" y2="3008.5">
  </linearGradient>
  <linearGradient id="id20" gradientUnits="userSpaceOnUse" xlink:href="#id16" x1="3762.9" y1="2926.9" x2="5363" y2="2926.9">
  </linearGradient>
  <linearGradient id="id21" gradientUnits="userSpaceOnUse" xlink:href="#id0" x1="1979.6" y1="1853.2" x2="3092.6" y2="1853.2">
  </linearGradient>
  <linearGradient id="id22" gradientUnits="userSpaceOnUse" xlink:href="#id16" x1="3195.9" y1="2926.9" x2="1595.7" y2="2926.9">
  </linearGradient>
  <linearGradient id="id23" gradientUnits="userSpaceOnUse" xlink:href="#id0" x1="3272.7" y1="2717.8" x2="2140.5" y2="2717.8">
  </linearGradient>
  <linearGradient id="id24" gradientUnits="userSpaceOnUse" xlink:href="#id16" x1="3657.8" y1="2809.2" x2="4066.9" y2="2809.2">
  </linearGradient>
  <linearGradient id="id25" gradientUnits="userSpaceOnUse" xlink:href="#id2" x1="1520.9" y1="2099.3" x2="3094" y2="2099.3">
  </linearGradient>
  <linearGradient id="id26" gradientUnits="userSpaceOnUse" x1="4212.6" y1="854.5" x2="2848.5" y2="854.5">
   <stop offset="0" style="stop-opacity:1; stop-color:#6C7CBB"/>
   <stop offset="1" style="stop-opacity:1; stop-color:#B8C8E8"/>
  </linearGradient>
  <linearGradient id="id27" gradientUnits="userSpaceOnUse" xlink:href="#id0" x1="2049.7" y1="2046.9" x2="3619.2" y2="2046.9">
  </linearGradient>
  <radialGradient id="id28" gradientUnits="userSpaceOnUse" gradientTransform="matrix(3.81005 -0 -0 -3.81005 -10654 8344)" cx="3791.5" cy="1734.8" r="1952.2" fx="3791.5" fy="1734.8">
   <stop offset="0" style="stop-opacity:1; stop-color:#7CC9CE"/>
   <stop offset="1" style="stop-opacity:1; stop-color:#7CC9CE"/>
  </radialGradient>
  <radialGradient id="id29" gradientUnits="userSpaceOnUse" gradientTransform="matrix(37.6389 -0 -0 -37.6383 -139078 67016)" xlink:href="#id28" cx="3795.9" cy="1734.5" r="197.6" fx="3795.9" fy="1734.5">
  </radialGradient>
  <radialGradient id="id30" gradientUnits="userSpaceOnUse" gradientTransform="matrix(7.67435 -0 -0 -7.67443 -25348 15048)" xlink:href="#id28" cx="3797.8" cy="1734.7" r="969.2" fx="3797.8" fy="1734.7">
  </radialGradient>
  <radialGradient id="id31" gradientUnits="userSpaceOnUse" gradientTransform="matrix(4.95355 -0.180882 -0.181782 -4.9784 -17010 23725)" xlink:href="#id28" cx="4478.6" cy="3832.9" r="1644.7" fx="4478.6" fy="3832.9">
  </radialGradient>
  <radialGradient id="id32" gradientUnits="userSpaceOnUse" gradientTransform="matrix(53.4443 -1.95157 -1.96118 -53.7108 -227356 218315)" xlink:href="#id28" cx="4478.4" cy="3830.6" r="152.4" fx="4478.4" fy="3830.6">
  </radialGradient>
 </defs>
 <g id="Layer_x0020_1">
  <metadata id="CorelCorpID_0Corel-Layer"/>
  <g id="_2255559799248">
   <g>
    <path class="fil0" d="M1651.3 2375.6l-76.6 -44.2c-7.8,-4.6 -12.5,-12.7 -12.5,-21.8 0,-9.1 4.7,-17.3 12.5,-21.9l41.5 -23.9c0.6,3.5 1.2,7.1 1.9,10.6l-38.3 22.1c-4.7,2.7 -7.6,7.6 -7.6,13.1 0,5.4 2.9,10.3 7.6,13.1l64.2 37c2.3,5.4 4.7,10.7 7.3,15.9z"/>
    <path class="fil1" d="M2119.5 2632.4c-15.3,0 -30.3,-4 -43.5,-11.6l-424.7 -245.2c-2.6,-5.2 -5,-10.5 -7.3,-15.9l437 252.4c11.7,6.7 25.1,10.1 38.5,10.1 12.7,0 25.5,-3.1 36.7,-9.1l-2.1 12.2c-10.8,4.6 -22.6,7.1 -34.6,7.1zm-501.4 -358c-0.7,-3.5 -1.3,-7.1 -1.9,-10.6l4.1 -2.3 10 5.8 -12.2 7.1z"/>
    <path class="fil2" d="M2116.3 2542.7c-5.6,0 -10.9,-1.2 -14.9,-3.5l-471.1 -271.9 -10 -5.8 -4.9 -2.9 -69.7 -40.2c-2.9,-1.7 -4.6,-3.7 -5.4,-6l-0.1 0.1 -18.7 -48.7c0.9,1.8 2.5,3.4 4.7,4.8 0.1,0 0.1,0 0.1,0 0,0.1 0,0.1 0,0.1 0.1,0 0.1,0 0.1,0 0,0 0,0 0.1,0.1 0,0 0,0 0,0 0,0 0,0 0.1,0 0,0 0,0.1 0,0.1 0.1,0 0.1,0 0.1,0l0 0 569.5 328.8c0.1,0 0.1,0.1 0.2,0.1 0,0 0.2,0.1 0.3,0.2 0,0 0,0 0.1,0 1.3,0.7 2.8,1.3 4.4,1.8 0.9,2.6 2.5,4.4 4.6,5.3l0 0 13.7 7.9c1.3,0.9 2.9,1.4 4.6,1.4 2.1,0 4.4,-0.7 6.8,-2.1l46.8 -27 -5.2 31.3 -36.7 21.2c-5.6,3.2 -12.7,4.9 -19.5,4.9zm515.5 -291.3l-24.5 -14.1 130.4 -75.3 24.5 14.1 -130.4 75.3z"/>
    <path class="fil3" d="M2101.2 2499.8c-1.6,-0.5 -3.1,-1.1 -4.4,-1.8 1.3,0.7 2.8,1.3 4.4,1.8l0 0zm-4.5 -1.8c-0.1,-0.1 -0.3,-0.2 -0.3,-0.2 0,0 0.2,0.1 0.3,0.2zm3.4 -4.1c-1.4,-0.4 -2.7,-1 -3.9,-1.7l-569.5 -328.8c-2.9,-1.7 -4.7,-3.8 -5.5,-6.1 -1.4,4.1 0.2,8.3 5,11.3 -2.2,-1.4 -3.8,-3 -4.7,-4.8 -2.5,-4.9 0.2,-10.9 7.8,-15.3l85.9 -49.6 381.2 -220 42.8 254.2 -191.4 110.6c-2,1.1 -3,3.2 -3,5.2 0,2.1 1,4.1 3,5.3l2.9 1.6 231.8 133.8 17.6 104.3zm-573.4 -325c0,0 0,0 -0.1,0 0.1,0 0.1,0 0.1,0zm-0.1 -0.1c-0.1,0 -0.1,0 -0.1,0 0,0 0,0 0.1,0zm-0.1 0c-0.1,-0.1 -0.1,-0.1 -0.1,-0.1 0,0 0,0 0.1,0.1zm-0.2 -0.1c0,0 0,0 0,-0.1 0,0.1 0,0.1 0,0.1z"/>
    <path class="fil4" d="M3085.9 1939.8l-954.4 550.9c-10.4,6.1 -26.2,6.7 -35.3,1.5l-569.5 -328.8c-2.9,-1.7 -4.7,-3.8 -5.5,-6.1 -1.4,4.3 0.3,8.6 5.5,11.6l569.5 328.8c9.1,5.2 24.9,4.6 35.3,-1.4l954.4 -551c7,-4.1 9.7,-9.5 8,-14.3 -1,3.1 -3.6,6.2 -8,8.8z"/>
    <polygon class="fil5" points="1843.7,2377.1 1843.7,2366.6 1845,2365.6 1881.9,2386.9 1883.3,2389.5 1883.3,2399.9 1881.9,2401 1845,2379.6 "/>
    <polygon class="fil5" points="1898.9,2408.9 1898.9,2398.5 1900.2,2397.5 1937.1,2418.8 1938.5,2421.3 1938.5,2431.8 1937.1,2432.8 1900.2,2411.5 "/>
    <path class="fil6" d="M1847.8 2243.7l793.1 -457.9c5.3,-3.1 11.8,-3.1 17.1,0l282.4 163.4c4,2.3 4,8.2 0,10.5l-792.7 457.7c-5.3,3 -11.8,3 -17.1,0l-282.8 -163.2c-4,-2.3 -4,-8.2 0,-10.5z"/>
    <path class="fil7" d="M1847.8 2254.2l2.9 1.6 790.2 -456.2c5.3,-3 11.8,-3 17.1,0l279.5 161.8 2.9 -1.7c4,-2.3 4,-8.2 0,-10.5l-282.4 -163.4c-5.3,-3.1 -11.8,-3.1 -17.1,0l-793.1 457.9c-4,2.3 -4,8.2 0,10.5z"/>
    <polygon class="fil8" points="2679.3,1827.2 1948.8,2248.9 1912.6,2234.5 2648.6,1809.5 "/>
    <polygon class="fil8" points="2754.4,1870.5 2108.2,2243.6 2077.6,2225.9 2723.7,1852.8 "/>
    <polygon class="fil8" points="2803.3,1898.8 2042.5,2338 2011.9,2320.3 2772.6,1881.1 "/>
    <polygon class="fil8" points="2852.2,1927 2091.4,2366.2 2060.8,2348.6 2821.6,1909.3 "/>
    <polygon class="fil8" points="2901.1,1955.3 2140.3,2394.5 2109.7,2376.8 2870.5,1937.6 "/>
    <polygon class="fil8" points="1948.8,2248.9 1918.1,2266.6 1887.5,2248.9 1918.1,2231.3 "/>
    <polygon class="fil8" points="2145.4,2222.1 1993.2,2310 1962.6,2292.3 2115.8,2203.8 "/>
    <path class="fil9" d="M2130.2 2038.5l213.8 -123.5c8.4,-4.8 8.4,-12.6 0,-17.5l-146.2 -84.4c-8.4,-4.8 -21.9,-4.8 -30.3,0l-213.8 123.5c-8.4,4.8 -8.4,12.6 0,17.4l146.2 84.5c8.3,4.8 21.9,4.8 30.3,0z"/>
    <path class="fil7" d="M1953.7 1943.7l213.8 -123.4c8.4,-4.9 21.9,-4.9 30.3,0l146.2 84.4c2.6,1.5 4.3,3.2 5.2,5.1 2.3,-4.2 0.6,-8.9 -5.2,-12.3l-146.2 -84.4c-8.4,-4.8 -21.9,-4.8 -30.3,0l-213.8 123.5c-5.8,3.3 -7.5,8.1 -5.3,12.3 1,-1.9 2.7,-3.7 5.3,-5.2z"/>
    <path class="fil10" d="M2119.5 2513l-13.7 -7.9 0 0c-2.1,-0.9 -3.7,-2.7 -4.6,-5.3l0 0c-0.2,-0.6 -0.4,-1.3 -0.5,-2.1l-0.6 -3.8 -17.6 -104.3 -5.4 -31.6 -2.9 -17.2 -3.2 -19.2 -5.4 -32.3 -16.6 -98.2 -5.4 -32.3 -2.2 -13.1 -2.2 -12.6 -42.8 -254.2 -17.3 -102.6c-0.9,-5.2 1.2,-11.7 4.8,-17 2.1,-3.1 4.8,-5.8 7.7,-7.5l234.9 -135.6 660.4 -381.3 63.5 -36.6 5.4 -3.2c2.4,-1.4 4.7,-2 6.8,-2 1.6,0 3.1,0.4 4.4,1.3l0 -0.1 14.4 8.2c-1.1,-0.5 -2.3,-0.8 -3.7,-0.8 -2,0 -4.3,0.7 -6.8,2.1l-964.2 556.7c-7.9,4.6 -13.9,16.3 -12.5,24.5l121.6 721.4c0.5,3 1.9,5.3 3.7,6.6z"/>
    <path class="fil11" d="M1997 1771.4l-15.9 -7c-1.7,4 -2.6,8.3 -2,11.9l121.6 721.4c0.6,3.8 2.5,6.3 5.1,7.4l0 0 14.2 8.2 2.5 -13.3 -0.8 0.2 48.5 -28 -173.2 -700.8z"/>
    <path class="fil12" d="M3095.1 1955.6l-964.2 556.7c-7.4,4.3 -13.8,1.8 -15.1,-5.9l-121.6 -721.4c-1.4,-8.2 4.6,-19.9 12.5,-24.5l964.2 -556.7c7.4,-4.3 13.8,-1.8 15.1,5.9l121.6 721.4c1.4,8.2 -4.6,19.9 -12.5,24.5z"/>
    <path class="fil13" d="M4912.4 2603.5c-1.3,-3.1 -2.7,-6.2 -4,-9.3l470.3 -271.5c4.7,-2.8 7.6,-7.7 7.6,-13.1 0,-5.5 -2.9,-10.4 -7.6,-13.2l-50.5 -29.1 10 -5.8 45.5 26.2c7.9,4.6 12.6,12.8 12.6,21.9 0,9 -4.7,17.2 -12.5,21.8l-471.4 272.1z"/>
    <path class="fil14" d="M4839 2632.4c-12,0 -23.8,-2.5 -34.7,-7.1l-2 -12.2c11.2,6 23.9,9.1 36.7,9.1 13.4,0 26.8,-3.4 38.5,-10.1l30.9 -17.9c1.3,3.1 2.7,6.2 4,9.3l-29.9 17.3c-13.2,7.6 -28.2,11.6 -43.5,11.6z"/>
    <path class="fil15" d="M4842.2 2542.7c-6.8,0 -13.9,-1.7 -19.5,-4.9l-36.7 -21.2 -5.3 -31.3 46.9 27c2.4,1.4 4.7,2.1 6.8,2.1 1.7,0 3.3,-0.5 4.5,-1.4l13.8 -7.9 0 0c2.1,-0.9 3.7,-2.7 4.6,-5.3 1.6,-0.5 3.1,-1.1 4.5,-1.8 0,0 0,0 0,0 0.1,-0.1 0.2,-0.2 0.3,-0.2 0.1,0 0.1,-0.1 0.2,-0.1l569.5 -328.8c0.2,-0.1 0.5,-0.3 0.7,-0.5 0,0 0.1,0 0.1,0 0,0 0,0 0,0 2.1,-1.3 3.5,-2.9 4.3,-4.5l-18.6 48.6 -0.1 -0.1c-0.8,2.3 -2.5,4.3 -5.4,6l-74.6 43.1 -10 5.8 -451.9 260.8 -19.2 11.1c-4,2.3 -9.3,3.5 -14.9,3.5zm-515.5 -291.3l-130.4 -75.2 24.5 -14.2 130.4 75.3 -24.5 14.1z"/>
    <path class="fil16" d="M4857.3 2499.8l0 0c1.6,-0.5 3.1,-1.1 4.5,-1.8 -1.4,0.7 -2.9,1.3 -4.5,1.8zm4.5 -1.8c0.1,-0.1 0.2,-0.2 0.3,-0.2 -0.1,0 -0.2,0.1 -0.3,0.2zm-3.4 -4.1l17.6 -104.3 234.7 -135.4c4,-2.3 4,-8.2 0,-10.5l-191.4 -110.5 42.8 -254.3 467.1 269.6c6.4,3.7 9.3,8.6 8.5,13 -0.1,0.8 -0.4,1.6 -0.8,2.4 -0.8,1.6 -2.2,3.2 -4.3,4.5 4.6,-3 6,-7.1 4.7,-11.1 -0.8,2.3 -2.6,4.4 -5.5,6.1l-569.5 328.8c-1.2,0.7 -2.5,1.3 -3.9,1.7zm574.1 -325.5c0,0 0.1,0 0.1,0 0,0 -0.1,0 -0.1,0z"/>
    <path class="fil17" d="M3872.6 1939.8l954.4 550.9c10.4,6.1 26.2,6.7 35.3,1.5l569.5 -328.8c2.9,-1.7 4.7,-3.8 5.5,-6.1 1.4,4.3 -0.3,8.6 -5.5,11.6l-569.5 328.8c-9.1,5.2 -24.9,4.6 -35.3,-1.4l-954.4 -551c-7,-4.1 -9.7,-9.5 -8.1,-14.3 1.1,3.1 3.7,6.2 8.1,8.8z"/>
    <polygon class="fil5" points="5114.8,2377.1 5114.8,2366.6 5113.5,2365.6 5076.6,2386.9 5075.2,2389.5 5075.2,2399.9 5076.6,2401 5113.5,2379.6 "/>
    <polygon class="fil5" points="5059.6,2408.9 5059.6,2398.5 5058.3,2397.5 5021.4,2418.8 5020,2421.3 5020,2431.8 5021.4,2432.8 5058.3,2411.5 "/>
    <path class="fil6" d="M5110.7 2243.7l-793.1 -457.9c-5.3,-3.1 -11.8,-3.1 -17.1,0l-282.4 163.4c-4,2.3 -4,8.2 0,10.5l792.7 457.7c5.3,3 11.8,3 17.1,0l282.8 -163.2c4,-2.3 4,-8.2 0,-10.5z"/>
    <path class="fil7" d="M5110.7 2254.2l-2.9 1.6 -790.2 -456.2c-5.3,-3 -11.8,-3 -17.1,0l-279.5 161.8 -2.9 -1.7c-4,-2.3 -4,-8.2 0,-10.5l282.4 -163.4c5.3,-3.1 11.8,-3.1 17.1,0l793.1 457.9c4,2.3 4,8.2 0,10.5z"/>
    <polygon class="fil8" points="4279.2,1827.2 5009.7,2248.9 5045.9,2234.5 4309.8,1809.5 "/>
    <polygon class="fil8" points="4204.1,1870.5 4850.3,2243.6 4880.9,2225.9 4234.7,1852.8 "/>
    <polygon class="fil8" points="4155.2,1898.8 4916,2338 4946.6,2320.3 4185.8,1881.1 "/>
    <polygon class="fil8" points="4106.3,1927 4867.1,2366.2 4897.7,2348.6 4136.9,1909.3 "/>
    <polygon class="fil8" points="4057.4,1955.3 4818.2,2394.5 4848.8,2376.8 4088,1937.6 "/>
    <polygon class="fil8" points="5009.7,2248.9 5040.4,2266.6 5071,2248.9 5040.4,2231.3 "/>
    <polygon class="fil8" points="4813.1,2222.1 4965.3,2310 4995.9,2292.3 4842.6,2203.8 "/>
    <path class="fil18" d="M4828.3 2038.5l-213.8 -123.5c-8.4,-4.8 -8.4,-12.6 0,-17.5l146.2 -84.4c8.4,-4.8 21.9,-4.8 30.3,0l213.8 123.5c8.4,4.8 8.4,12.6 0,17.4l-146.2 84.5c-8.4,4.8 -21.9,4.8 -30.3,0z"/>
    <path class="fil7" d="M5004.8 1943.7l-213.8 -123.4c-8.4,-4.9 -21.9,-4.9 -30.3,0l-146.2 84.4c-2.6,1.5 -4.3,3.2 -5.3,5.1 -2.2,-4.2 -0.5,-8.9 5.3,-12.3l146.2 -84.4c8.4,-4.8 21.9,-4.8 30.3,0l213.8 123.5c5.8,3.3 7.5,8.1 5.3,12.3 -1,-1.9 -2.7,-3.7 -5.3,-5.2z"/>
    <path class="fil19" d="M4838.9 2513c1.9,-1.3 3.2,-3.5 3.8,-6.6l121.6 -721.4c1.4,-8.2 -4.6,-19.9 -12.5,-24.5l-964.2 -556.7c-2.4,-1.4 -4.8,-2.1 -6.9,-2.1 -1.3,0 -2.5,0.3 -3.5,0.8l14.3 -8.2 0 0.1c1.3,-0.9 2.8,-1.3 4.4,-1.3 2.1,0 4.4,0.6 6.8,2l362.2 209.1 46.6 27 555.4 320.6c7.9,4.6 13.9,16.3 12.5,24.5l-17.3 102.6 -42.8 254.3 -26.4 156.1 -5.4 32.3 -3.2 19.2 -2.9 17.2 -5.4 31.6 -17.6 104.3 -0.6 3.8c-0.1,0.8 -0.3,1.5 -0.5,2.1l0 0c-0.9,2.6 -2.5,4.4 -4.6,5.3l0 0 -13.8 7.9z"/>
    <path class="fil20" d="M4961.5 1771.4l15.9 -7c1.7,4 2.6,8.3 2,11.9l-121.6 721.4c-0.6,3.8 -2.5,6.3 -5.1,7.4l0 0 -14.2 8.2 -2.5 -13.3 0.8 0.2 -48.5 -28 173.2 -700.8z"/>
    <path class="fil12" d="M3863.4 1955.6l964.2 556.7c7.4,4.3 13.8,1.8 15.1,-5.9l121.6 -721.4c1.4,-8.2 -4.6,-19.9 -12.5,-24.5l-964.2 -556.7c-7.5,-4.3 -13.8,-1.8 -15.1,5.9l-121.6 721.4c-1.4,8.2 4.6,19.9 12.5,24.5z"/>
    <polygon class="fil21" points="3479.3,2805 2581.5,2286.7 3479.2,1768.4 4377,2286.7 "/>
    <polygon class="fil22" points="3479.3,2663.5 2826.6,2286.7 3479.2,1909.9 4131.9,2286.7 "/>
    <polygon class="fil17" points="3479.2,1935.4 4109.7,2299.5 4131.9,2286.7 3479.2,1909.9 2826.6,2286.7 2848.7,2299.5 "/>
    <polygon class="fil23" points="3479.3,3098.8 3479.3,2805 3692,2682.2 3711.7,2799 3613.9,2855.4 3613.9,2908 3719.8,2846.9 3737.1,2949.9 "/>
    <polygon class="fil8" points="2581.5,2286.7 2581.5,2580.5 3479.3,3098.8 3479.3,2805 "/>
    <polygon class="fil17" points="3479.3,2788.2 2596.1,2278.3 2581.5,2286.7 3479.3,2805 4377,2286.7 4362.4,2278.3 "/>
    <polygon class="fil24" points="4242.3,2492.6 4242.3,2545.2 3613.9,2908 3613.9,2855.4 "/>
    <polygon class="fil25" points="3479.3,3098.8 3221.4,2949.9 3237.4,2854.8 3418.5,2959.3 3418.5,2866.8 3251.6,2770.5 3266.5,2682.2 3479.3,2805 "/>
    <polygon class="fil26" points="3418.5,2959.3 3237.4,2854.8 3251.6,2770.5 3418.5,2866.8 "/>
    <polygon class="fil13" points="3217.2,2789.4 3054.6,2695.5 3054.6,2714.9 3217.2,2808.8 "/>
    <polygon class="fil13" points="3031.2,2682.2 2987.1,2656.8 2987.1,2676.2 3031.2,2701.6 "/>
    <polygon class="fil13" points="2824.8,2563.1 2734.7,2511.1 2734.7,2530.5 2824.8,2582.5 "/>
    <polygon class="fil13" points="2907.1,2610.6 2841.9,2573 2841.9,2592.4 2907.1,2630 "/>
    <polygon class="fil13" points="2968.2,2645.9 2924.1,2620.4 2924.1,2639.8 2968.2,2665.3 "/>
    <polygon class="fil13" points="3480.2,2039.3 3451.7,2022.8 3480.2,2006.4 3508.7,2022.8 "/>
    <polygon class="fil13" points="3651.2,2138.1 3622.7,2121.6 3651.2,2105.1 3679.7,2121.6 "/>
    <polygon class="fil13" points="3765.3,2203.9 3736.7,2187.4 3765.2,2171 3793.7,2187.4 "/>
    <polygon class="fil13" points="3822.3,2236.8 3793.7,2220.3 3822.3,2203.9 3850.8,2220.3 "/>
    <polygon class="fil13" points="3879.3,2269.7 3850.8,2253.3 3879.3,2236.8 3907.8,2253.3 "/>
    <polygon class="fil13" points="3422.9,2072.4 3394.4,2055.9 3422.9,2039.4 3451.4,2055.9 "/>
    <polygon class="fil13" points="3479.9,2105.3 3451.4,2088.8 3479.9,2072.4 3508.4,2088.8 "/>
    <polygon class="fil13" points="3537,2138.2 3508.4,2121.7 3537,2105.3 3565.5,2121.7 "/>
    <polygon class="fil13" points="3594,2171.1 3565.5,2154.7 3594,2138.2 3622.5,2154.7 "/>
    <polygon class="fil13" points="3651,2204 3622.5,2187.6 3651,2171.1 3679.5,2187.6 "/>
    <polygon class="fil13" points="3708,2236.9 3679.5,2220.5 3708,2204 3736.5,2220.5 "/>
    <polygon class="fil13" points="3765,2269.8 3736.5,2253.4 3765,2236.9 3793.5,2253.4 "/>
    <polygon class="fil13" points="3822,2302.8 3793.5,2286.3 3822,2269.8 3850.5,2286.3 "/>
    <polygon class="fil13" points="3879,2335.7 3850.5,2319.2 3879,2302.8 3907.5,2319.2 "/>
    <polygon class="fil13" points="3365.7,2105.4 3337.2,2088.9 3365.7,2072.5 3394.2,2088.9 "/>
    <polygon class="fil13" points="3422.7,2138.3 3394.2,2121.8 3422.7,2105.4 3451.2,2121.8 "/>
    <polygon class="fil13" points="3479.7,2171.2 3451.2,2154.8 3479.7,2138.3 3508.2,2154.8 "/>
    <polygon class="fil13" points="3707.8,2302.9 3679.3,2286.4 3707.8,2270 3736.3,2286.4 "/>
    <polygon class="fil13" points="3764.8,2335.8 3736.3,2319.4 3764.8,2302.9 3793.3,2319.4 "/>
    <polygon class="fil13" points="3821.8,2368.7 3793.3,2352.3 3821.8,2335.8 3850.3,2352.3 "/>
    <polygon class="fil13" points="3479.5,2237.2 3451,2220.7 3479.5,2204.3 3508,2220.7 "/>
    <polygon class="fil13" points="3536.5,2270.1 3508,2253.7 3536.5,2237.2 3565,2253.7 "/>
    <polygon class="fil13" points="3593.5,2303 3565,2286.6 3593.5,2270.1 3622,2286.6 "/>
    <polygon class="fil13" points="3707.5,2368.9 3679,2352.4 3707.5,2336 3736,2352.4 "/>
    <polygon class="fil13" points="3764.5,2401.8 3736,2385.3 3764.5,2368.9 3793.1,2385.3 "/>
    <polygon class="fil13" points="3251.2,2171.5 3222.7,2155 3251.2,2138.6 3279.7,2155 "/>
    <polygon class="fil13" points="3308.2,2204.4 3279.7,2188 3308.2,2171.5 3336.7,2188 "/>
    <polygon class="fil13" points="3365.2,2237.3 3336.7,2220.9 3365.2,2204.4 3393.7,2220.9 "/>
    <polygon class="fil13" points="3422.2,2270.3 3393.7,2253.8 3422.2,2237.3 3450.7,2253.8 "/>
    <polygon class="fil13" points="3479.2,2303.2 3450.7,2286.7 3479.2,2270.3 3507.8,2286.7 "/>
    <polygon class="fil13" points="3536.3,2336.1 3507.8,2319.6 3536.3,2303.2 3564.8,2319.6 "/>
    <polygon class="fil13" points="3593.3,2369 3564.8,2352.5 3593.3,2336.1 3621.8,2352.6 "/>
    <polygon class="fil13" points="3650.3,2401.9 3621.8,2385.5 3650.3,2369 3678.8,2385.5 "/>
    <polygon class="fil13" points="3707.3,2434.8 3678.8,2418.4 3707.3,2401.9 3735.8,2418.4 "/>
    <polygon class="fil13" points="3193.9,2204.5 3165.4,2188.1 3193.9,2171.6 3222.5,2188.1 "/>
    <polygon class="fil13" points="3251,2237.5 3222.5,2221 3251,2204.5 3279.5,2221 "/>
    <polygon class="fil13" points="3365,2303.3 3336.5,2286.8 3365,2270.4 3393.5,2286.8 "/>
    <polygon class="fil13" points="3479,2369.1 3450.5,2352.7 3479,2336.2 3507.5,2352.7 "/>
    <polygon class="fil13" points="3536,2402.1 3507.5,2385.6 3536,2369.1 3564.5,2385.6 "/>
    <polygon class="fil13" points="3593,2435 3564.5,2418.5 3593,2402.1 3621.6,2418.5 "/>
    <polygon class="fil13" points="3650.1,2467.9 3621.6,2451.4 3650.1,2435 3678.6,2451.4 "/>
    <polygon class="fil13" points="3136.7,2237.6 3108.2,2221.1 3136.7,2204.7 3165.2,2221.1 "/>
    <polygon class="fil13" points="3193.7,2270.5 3165.2,2254.1 3193.7,2237.6 3222.2,2254.1 "/>
    <polygon class="fil13" points="3307.7,2336.3 3279.2,2319.9 3307.7,2303.4 3336.2,2319.9 "/>
    <polygon class="fil13" points="3364.8,2369.3 3336.2,2352.8 3364.8,2336.3 3393.3,2352.8 "/>
    <polygon class="fil13" points="3535.8,2468 3507.3,2451.6 3535.8,2435.1 3564.3,2451.6 "/>
    <polygon class="fil13" points="3079.5,2270.6 3050.9,2254.2 3079.5,2237.7 3108,2254.2 "/>
    <polygon class="fil13" points="3193.5,2336.5 3165,2320 3193.5,2303.6 3222,2320 "/>
    <polygon class="fil13" points="3250.5,2369.4 3222,2353 3250.5,2336.5 3279,2353 "/>
    <polygon class="fil13" points="3307.5,2402.3 3279,2385.9 3307.5,2369.4 3336,2385.9 "/>
    <polygon class="fil13" points="3364.5,2435.2 3336,2418.8 3364.5,2402.3 3393,2418.8 "/>
    <polygon class="fil13" points="3421.5,2468.1 3393,2451.7 3421.5,2435.2 3450,2451.7 "/>
    <polygon class="fil13" points="3535.6,2534 3507.1,2517.5 3535.6,2501.1 3564.1,2517.5 "/>
    <polygon class="fil13" points="3022.2,2303.7 2993.7,2287.2 3022.2,2270.8 3050.7,2287.2 "/>
    <polygon class="fil13" points="3136.2,2369.5 3107.7,2353.1 3136.2,2336.6 3164.7,2353.1 "/>
    <polygon class="fil13" points="3193.3,2402.5 3164.7,2386 3193.3,2369.5 3221.8,2386 "/>
    <polygon class="fil13" points="3250.3,2435.4 3221.8,2418.9 3250.3,2402.5 3278.8,2418.9 "/>
    <polygon class="fil13" points="3307.3,2468.3 3278.8,2451.8 3307.3,2435.4 3335.8,2451.8 "/>
    <polygon class="fil13" points="3421.3,2534.1 3392.8,2517.7 3421.3,2501.2 3449.8,2517.7 "/>
    <polygon class="fil13" points="3478.3,2567 3449.8,2550.6 3478.3,2534.1 3506.8,2550.6 "/>
    <polygon class="fil21" points="3479.3,2296.3 2581.5,1778 3479.2,1259.7 4377,1778 "/>
    <polygon class="fil22" points="3479.3,2154.8 2826.6,1778 3479.2,1401.2 4131.9,1778 "/>
    <polygon class="fil17" points="3479.2,1426.7 4109.7,1790.8 4131.9,1778 3479.2,1401.2 2826.6,1778 2848.7,1790.8 "/>
    <polygon class="fil27" points="3479.3,2590.1 3479.3,2296.3 4377,1778 4377,2071.8 4220.8,2162 4196.3,2176.2 4190.9,2179.3 4068.3,2250 4046.2,2262.8 "/>
    <polygon class="fil8" points="2581.5,1778 2581.5,2071.8 3479.3,2590.1 3479.3,2296.3 "/>
    <polygon class="fil17" points="3479.3,2279.5 2596.1,1769.6 2581.5,1778 3479.3,2296.3 4377,1778 4362.4,1769.6 "/>
    <polygon class="fil24" points="4242.3,1983.9 4242.3,2036.5 3613.9,2399.3 3613.9,2346.7 "/>
    <path class="fil25" d="M3479.3 2590.1l-567 -327.3 -22.1 -12.8 -152.5 -88 -156.2 -90.2 0 -293.8 897.8 518.3 0 293.8zm-837 -680.1l0 92.5 776.2 448.1 0 -92.5 -776.2 -448.1z"/>
    <polygon class="fil26" points="3418.5,2450.6 2642.3,2002.5 2642.3,1910 3418.5,2358.1 "/>
    <polygon class="fil24" points="3217.2,2280.7 3054.6,2186.9 3054.6,2206.2 3217.2,2300.1 "/>
    <polygon class="fil24" points="3031.2,2173.5 2987.1,2148.1 2987.1,2167.5 3031.2,2192.9 "/>
    <polygon class="fil24" points="2824.8,2054.4 2734.7,2002.4 2734.7,2021.8 2824.8,2073.8 "/>
    <polygon class="fil24" points="2907.1,2101.9 2841.9,2064.3 2841.9,2083.7 2907.1,2121.3 "/>
    <polygon class="fil24" points="2968.2,2137.2 2924.1,2111.8 2924.1,2131.2 2968.2,2156.6 "/>
    <polygon class="fil13" points="3480.2,1530.6 3451.7,1514.2 3480.2,1497.7 3508.7,1514.2 "/>
    <polygon class="fil28" points="3537.2,1563.5 3508.7,1547.1 3537.2,1530.6 3565.7,1547.1 "/>
    <polygon class="fil29" points="3594.2,1596.4 3565.7,1580 3594.2,1563.5 3622.7,1580 "/>
    <polygon class="fil13" points="3651.2,1629.3 3622.7,1612.9 3651.2,1596.4 3679.7,1612.9 "/>
    <polygon class="fil29" points="3708.2,1662.3 3679.7,1645.8 3708.2,1629.3 3736.7,1645.8 "/>
    <polygon class="fil13" points="3765.3,1695.2 3736.7,1678.7 3765.2,1662.3 3793.7,1678.7 "/>
    <polygon class="fil13" points="3822.3,1728.1 3793.7,1711.6 3822.3,1695.2 3850.8,1711.6 "/>
    <polygon class="fil13" points="3879.3,1761 3850.8,1744.6 3879.3,1728.1 3907.8,1744.6 "/>
    <polygon class="fil28" points="3936.3,1793.9 3907.8,1777.5 3936.3,1761 3964.8,1777.5 "/>
    <polygon class="fil13" points="3422.9,1563.7 3394.4,1547.2 3422.9,1530.7 3451.4,1547.2 "/>
    <polygon class="fil13" points="3479.9,1596.6 3451.4,1580.1 3479.9,1563.7 3508.4,1580.1 "/>
    <polygon class="fil13" points="3537,1629.5 3508.4,1613 3537,1596.6 3565.5,1613 "/>
    <polygon class="fil13" points="3594,1662.4 3565.5,1645.9 3594,1629.5 3622.5,1645.9 "/>
    <polygon class="fil13" points="3651,1695.3 3622.5,1678.9 3651,1662.4 3679.5,1678.9 "/>
    <polygon class="fil13" points="3708,1728.2 3679.5,1711.8 3708,1695.3 3736.5,1711.8 "/>
    <polygon class="fil13" points="3765,1761.2 3736.5,1744.7 3765,1728.2 3793.5,1744.7 "/>
    <polygon class="fil13" points="3822,1794.1 3793.5,1777.6 3822,1761.2 3850.5,1777.6 "/>
    <polygon class="fil13" points="3879,1827 3850.5,1810.5 3879,1794.1 3907.5,1810.5 "/>
    <polygon class="fil13" points="3365.7,1596.7 3337.2,1580.2 3365.7,1563.8 3394.2,1580.2 "/>
    <polygon class="fil13" points="3422.7,1629.6 3394.2,1613.2 3422.7,1596.7 3451.2,1613.2 "/>
    <polygon class="fil13" points="3479.7,1662.5 3451.2,1646.1 3479.7,1629.6 3508.2,1646.1 "/>
    <polygon class="fil28" points="3536.7,1695.5 3508.2,1679 3536.7,1662.5 3565.2,1679 "/>
    <polygon class="fil29" points="3593.7,1728.4 3565.2,1711.9 3593.7,1695.5 3622.2,1711.9 "/>
    <polygon class="fil29" points="3650.7,1761.3 3622.2,1744.8 3650.7,1728.4 3679.3,1744.8 "/>
    <polygon class="fil13" points="3707.8,1794.2 3679.3,1777.8 3707.8,1761.3 3736.3,1777.8 "/>
    <polygon class="fil13" points="3764.8,1827.1 3736.3,1810.7 3764.8,1794.2 3793.3,1810.7 "/>
    <polygon class="fil13" points="3821.8,1860.1 3793.3,1843.6 3821.8,1827.1 3850.3,1843.6 "/>
    <polygon class="fil29" points="3308.4,1629.8 3279.9,1613.3 3308.4,1596.9 3336.9,1613.3 "/>
    <polygon class="fil29" points="3365.4,1662.7 3336.9,1646.2 3365.4,1629.8 3394,1646.2 "/>
    <polygon class="fil28" points="3422.5,1695.6 3394,1679.1 3422.5,1662.7 3451,1679.1 "/>
    <polygon class="fil13" points="3479.5,1728.5 3451,1712.1 3479.5,1695.6 3508,1712.1 "/>
    <polygon class="fil13" points="3536.5,1761.4 3508,1745 3536.5,1728.5 3565,1745 "/>
    <polygon class="fil13" points="3593.5,1794.3 3565,1777.9 3593.5,1761.4 3622,1777.9 "/>
    <polygon class="fil29" points="3650.5,1827.3 3622,1810.8 3650.5,1794.3 3679,1810.8 "/>
    <polygon class="fil13" points="3707.5,1860.2 3679,1843.7 3707.5,1827.3 3736,1843.7 "/>
    <polygon class="fil13" points="3764.5,1893.1 3736,1876.6 3764.5,1860.2 3793.1,1876.6 "/>
    <polygon class="fil13" points="3251.2,1662.8 3222.7,1646.3 3251.2,1629.9 3279.7,1646.3 "/>
    <polygon class="fil13" points="3308.2,1695.7 3279.7,1679.3 3308.2,1662.8 3336.7,1679.3 "/>
    <polygon class="fil13" points="3365.2,1728.6 3336.7,1712.2 3365.2,1695.7 3393.7,1712.2 "/>
    <polygon class="fil13" points="3422.2,1761.6 3393.7,1745.1 3422.2,1728.6 3450.7,1745.1 "/>
    <polygon class="fil13" points="3479.2,1794.5 3450.7,1778 3479.2,1761.6 3507.8,1778 "/>
    <polygon class="fil13" points="3536.3,1827.4 3507.8,1810.9 3536.3,1794.5 3564.8,1810.9 "/>
    <polygon class="fil13" points="3593.3,1860.3 3564.8,1843.8 3593.3,1827.4 3621.8,1843.8 "/>
    <polygon class="fil13" points="3650.3,1893.2 3621.8,1876.8 3650.3,1860.3 3678.8,1876.8 "/>
    <polygon class="fil13" points="3707.3,1926.1 3678.8,1909.7 3707.3,1893.2 3735.8,1909.7 "/>
    <polygon class="fil13" points="3193.9,1695.8 3165.4,1679.4 3193.9,1662.9 3222.5,1679.4 "/>
    <polygon class="fil13" points="3251,1728.8 3222.5,1712.3 3251,1695.9 3279.5,1712.3 "/>
    <polygon class="fil29" points="3308,1761.7 3279.5,1745.2 3308,1728.8 3336.5,1745.2 "/>
    <polygon class="fil13" points="3365,1794.6 3336.5,1778.2 3365,1761.7 3393.5,1778.2 "/>
    <polygon class="fil28" points="3422,1827.5 3393.5,1811.1 3422,1794.6 3450.5,1811.1 "/>
    <polygon class="fil13" points="3479,1860.4 3450.5,1844 3479,1827.5 3507.5,1844 "/>
    <polygon class="fil13" points="3536,1893.4 3507.5,1876.9 3536,1860.4 3564.5,1876.9 "/>
    <polygon class="fil13" points="3593,1926.3 3564.5,1909.8 3593,1893.4 3621.6,1909.8 "/>
    <polygon class="fil13" points="3650.1,1959.2 3621.6,1942.8 3650.1,1926.3 3678.6,1942.8 "/>
    <polygon class="fil13" points="3136.7,1728.9 3108.2,1712.5 3136.7,1696 3165.2,1712.5 "/>
    <polygon class="fil13" points="3193.7,1761.8 3165.2,1745.4 3193.7,1728.9 3222.2,1745.4 "/>
    <polygon class="fil29" points="3250.7,1794.7 3222.2,1778.3 3250.7,1761.8 3279.2,1778.3 "/>
    <polygon class="fil13" points="3307.7,1827.7 3279.2,1811.2 3307.7,1794.8 3336.2,1811.2 "/>
    <polygon class="fil13" points="3364.7,1860.6 3336.2,1844.1 3364.7,1827.7 3393.3,1844.1 "/>
    <polygon class="fil28" points="3421.8,1893.5 3393.3,1877 3421.8,1860.6 3450.3,1877 "/>
    <polygon class="fil29" points="3478.8,1926.4 3450.3,1909.9 3478.8,1893.5 3507.3,1909.9 "/>
    <polygon class="fil13" points="3535.8,1959.3 3507.3,1942.9 3535.8,1926.4 3564.3,1942.9 "/>
    <polygon class="fil28" points="3592.8,1992.2 3564.3,1975.8 3592.8,1959.3 3621.3,1975.8 "/>
    <polygon class="fil13" points="3079.5,1762 3050.9,1745.5 3079.5,1729 3108,1745.5 "/>
    <polygon class="fil29" points="3136.5,1794.9 3108,1778.4 3136.5,1762 3165,1778.4 "/>
    <polygon class="fil13" points="3193.5,1827.8 3165,1811.3 3193.5,1794.9 3222,1811.3 "/>
    <polygon class="fil13" points="3250.5,1860.7 3222,1844.3 3250.5,1827.8 3279,1844.3 "/>
    <polygon class="fil13" points="3307.5,1893.6 3279,1877.2 3307.5,1860.7 3336,1877.2 "/>
    <polygon class="fil13" points="3364.5,1926.5 3336,1910.1 3364.5,1893.6 3393,1910.1 "/>
    <polygon class="fil13" points="3421.5,1959.5 3393,1943 3421.5,1926.6 3450,1943 "/>
    <polygon class="fil29" points="3478.5,1992.4 3450,1975.9 3478.5,1959.5 3507.1,1975.9 "/>
    <polygon class="fil13" points="3535.6,2025.3 3507.1,2008.8 3535.6,1992.4 3564.1,2008.8 "/>
    <polygon class="fil13" points="3022.2,1795 2993.7,1778.6 3022.2,1762.1 3050.7,1778.6 "/>
    <polygon class="fil28" points="3079.2,1827.9 3050.7,1811.5 3079.2,1795 3107.7,1811.5 "/>
    <polygon class="fil13" points="3136.2,1860.8 3107.7,1844.4 3136.2,1827.9 3164.7,1844.4 "/>
    <polygon class="fil13" points="3193.3,1893.8 3164.7,1877.3 3193.3,1860.8 3221.8,1877.3 "/>
    <polygon class="fil13" points="3250.3,1926.7 3221.8,1910.2 3250.3,1893.8 3278.8,1910.2 "/>
    <polygon class="fil13" points="3307.3,1959.6 3278.8,1943.1 3307.3,1926.7 3335.8,1943.1 "/>
    <polygon class="fil29" points="3364.3,1992.5 3335.8,1976.1 3364.3,1959.6 3392.8,1976.1 "/>
    <polygon class="fil13" points="3421.3,2025.4 3392.8,2009 3421.3,1992.5 3449.8,2009 "/>
    <polygon class="fil13" points="3478.3,2058.4 3449.8,2041.9 3478.3,2025.4 3506.8,2041.9 "/>
    <path class="fil13" d="M4445.6 3877.7c-10.1,0 -20.1,-1.8 -29.6,-5.1 5.5,-2.1 10.9,-4.2 16.3,-6.3 4.4,0.7 8.8,1.1 13.3,1.1 13.7,0 27.4,-3.4 39.3,-10.3l881.2 -508.8c4.9,-2.8 7.8,-7.8 7.8,-13.4 0,-5.6 -2.9,-10.6 -7.8,-13.4l-374.3 -216.1c0,-3.9 0,-7.8 0,-11.7l379.4 219.1c8,4.6 12.7,12.9 12.7,22.1 0,9.3 -4.7,17.5 -12.7,22.1l-881.3 508.8c-13.4,7.8 -28.7,11.9 -44.3,11.9z"/>
    <path class="fil30" d="M4416 3872.6c-5.1,-1.8 -10,-4.1 -14.6,-6.8l-326 -188.2c5.3,-0.8 10.6,-1.6 15.9,-2.4l315.1 181.9c8,4.6 16.8,7.7 25.9,9.2 -5.4,2.1 -10.8,4.2 -16.3,6.3zm575.8 -767.2l-28.1 -16.2c0.9,-3.4 1.7,-6.8 2.5,-10.2l25.6 14.7c0,3.9 0,7.8 0,11.7z"/>
    <path class="fil31" d="M4075.4 3677.6l-184.1 -106.3c-8,-4.6 -12.8,-12.9 -12.8,-22.1 0,-9.2 4.8,-17.5 12.8,-22.1l923 -532.9c0.8,-0.4 1.6,-0.7 2.5,-0.7 0.9,0 1.7,0.2 2.5,0.7l4.3 2.4 142.6 82.4c-0.8,3.4 -1.6,6.8 -2.5,10.2l-146.9 -84.8 -920.5 531.4c-4.8,2.8 -7.7,7.8 -7.7,13.4 0,5.6 2.9,10.6 7.7,13.4l195 112.6c-5.3,0.8 -10.6,1.6 -15.9,2.4z"/>
    <path class="fil32" d="M3684.8 2639.4c0,0 0,0 0,0 0,0 0,0 0,0zm0 -0.1c0,0 0,0 0,0 0,0 0,0 0,0zm0 0c0,-0.1 0,-0.1 0,-0.1 0,0 0,0 0,0.1zm0 -0.1c-1.2,-8.3 4.8,-20 12.8,-24.6l623.7 -360.1 5.4 -3.1 24.5 -14.1 327.6 -189.2c2.4,-1.4 4.8,-2.1 6.9,-2.1 1.7,0 3.2,0.5 4.5,1.3l0 -0.1 14.6 8.5c-1,-0.6 -2.3,-0.9 -3.6,-0.9 -2.2,0 -4.5,0.7 -7,2.1l-981.2 566.5c-4.1,2.4 -7.6,6.5 -10,11.1l-16.1 -7.1c-1.8,4 -2.6,8.2 -2.1,11.8z"/>
    <path class="fil33" d="M3827.9 3389.4l-14.2 -8.2 0 0 0 0c-2.6,-1.1 -4.5,-3.7 -5.1,-7.5l-71.5 -423.8 -17.3 -103 -8.1 -47.9 -19.7 -116.8 -2.6 -15.4 -4.6 -27.3c0,0 0,0 0,-0.1 0,0 0,0 0,0 0,0 0,0 0,-0.1 0,0 0,0 0,0 0,0 0,0 0,0 0,-0.1 0,-0.1 0,-0.1 0,0 0,0 0,0 -0.5,-3.6 0.3,-7.8 2.1,-11.8l16.1 7.1c-2.3,4.6 -3.5,9.7 -2.8,13.9l123.8 734.2c0.5,3.1 1.9,5.4 3.9,6.8z"/>
    <path class="fil8" d="M4820.6 2822.1l-981.2 566.5c-7.6,4.3 -14.1,1.8 -15.4,-6l-123.8 -734.2c-1.4,-8.4 4.7,-20.3 12.8,-25l981.2 -566.5c7.5,-4.3 14,-1.8 15.3,6l123.8 734.2c1.4,8.4 -4.7,20.3 -12.7,25z"/>
    <path class="fil25" d="M4798 2795.6l-1 -6 -556.9 -321.5c-4.1,-2.4 -9.7,-3.6 -15.6,-3.6 -7,0 -14.5,1.7 -20.3,5.1l-454.7 262.5 -14 -82.2 945.8 -546.1 116.7 691.8z"/>
    <path class="fil34" d="M5437.4 3169.6l-53.6 28 -536.9 -310c-9,-5.2 -24.7,-4.5 -35.1,1.5l-926 534.6c-8.9,-4.9 -49.3,-24.4 -49.3,-24.4l19.6 51.1 0.1 0c0.8,2.2 2.5,4.3 5.5,6l565.4 326.5c9,5.2 24.7,4.6 35.1,-1.4l947.7 -547.2c4.2,-2.4 6.8,-5.4 7.9,-8.4l0.1 0 19.5 -56.3z"/>
    <path class="fil35" d="M5429.1 3178.4l-971.3 560.8c-10.6,6.1 -26.7,6.8 -35.9,1.5l-579.5 -334.6c-9.2,-5.3 -8.1,-14.6 2.5,-20.8l971.3 -560.7c10.6,-6.2 26.7,-6.8 35.9,-1.5l579.6 334.6c9.2,5.3 8,14.6 -2.6,20.7z"/>
    <path class="fil17" d="M5429.1 3172.9l-971.3 560.7c-10.6,6.1 -26.7,6.8 -35.9,1.5l-579.5 -334.6c-3.1,-1.8 -4.8,-4 -5.7,-6.3 -1.4,4.4 0.3,8.8 5.7,11.9l579.5 334.6c9.2,5.3 25.3,4.6 35.9,-1.5l971.3 -560.8c7.1,-4.1 9.9,-9.6 8.2,-14.4 -1.1,3.1 -3.8,6.3 -8.2,8.9z"/>
    <polygon class="fil5" points="4164.9,3617.9 4164.9,3607.2 4166.3,3606.2 4203.8,3627.9 4205.2,3630.5 4205.2,3641.2 4203.8,3642.2 4166.3,3620.5 "/>
    <polygon class="fil5" points="4221.1,3650.3 4221.1,3639.7 4222.4,3638.6 4260,3660.3 4261.4,3662.9 4261.4,3673.6 4260,3674.6 4222.4,3652.9 "/>
    <path class="fil6" d="M3993.5 3374.7l807 -465.9c5.4,-3.2 12.1,-3.2 17.4,0l287.4 166.2c4.2,2.4 4.2,8.4 0,10.8l-806.7 465.7c-5.4,3.1 -12,3.1 -17.3,0l-287.8 -166.1c-4.2,-2.3 -4.2,-8.3 0,-10.7z"/>
    <path class="fil7" d="M3993.5 3385.4l2.8 1.7 804.2 -464.3c5.4,-3.1 12.1,-3.1 17.4,0l284.6 164.6 2.8 -1.6c4.2,-2.4 4.2,-8.4 0,-10.8l-287.4 -166.2c-5.3,-3.2 -12,-3.2 -17.4,0l-807 465.9c-4.2,2.4 -4.2,8.4 0,10.7z"/>
    <polygon class="fil8" points="4839.6,2950.9 4138.6,3355.6 4107.4,3337.6 4808.4,2932.9 "/>
    <polygon class="fil8" points="4916,2995 4258.5,3374.6 4227.3,3356.6 4884.9,2977 "/>
    <polygon class="fil8" points="4965.8,3023.7 4191.6,3470.7 4160.4,3452.7 4934.7,3005.7 "/>
    <polygon class="fil8" points="5015.6,3052.5 4241.4,3499.5 4210.2,3481.5 4984.4,3034.5 "/>
    <polygon class="fil8" points="5065.4,3081.2 4291.1,3528.2 4260,3510.2 5034.2,3063.2 "/>
    <polygon class="fil8" points="4096.2,3380.1 4065,3398.1 4033.9,3380.1 4065,3362.1 "/>
    <polygon class="fil8" points="4206.1,3404.8 4141.5,3442.2 4110.3,3424.2 4175,3386.9 "/>
    <path class="fil36" d="M4831.6 3487.5l217.6 -125.7c8.6,-4.9 8.6,-12.8 0,-17.7l-148.8 -86c-8.5,-4.9 -22.3,-4.9 -30.8,0l-217.6 125.7c-8.5,4.9 -8.5,12.9 0,17.8l148.8 85.9c8.5,4.9 22.3,4.9 30.8,0z"/>
    <path class="fil7" d="M4652 3391.1l217.6 -125.7c8.5,-4.9 22.3,-4.9 30.8,0l148.8 85.9c2.7,1.6 4.4,3.4 5.4,5.3 2.2,-4.3 0.5,-9.1 -5.4,-12.5l-148.8 -86c-8.5,-4.9 -22.3,-4.9 -30.8,0l-217.6 125.7c-5.9,3.4 -7.6,8.2 -5.3,12.5 1,-1.9 2.7,-3.7 5.3,-5.2z"/>
    <path class="fil37" d="M3844.3 3290.7l0 -0.1 -0.1 0 0 0 11.3 6.5c2.7,1.6 5.7,2.3 8.7,2.3 3,0 6,-0.7 8.7,-2.3l246.5 -142.3 0 0 0 0 195 -112.6 0 0 0 0 365.2 -210.8c2.1,-1.2 3.1,-3.3 3.1,-5.4 0,-2.1 -1,-4.2 -3.1,-5.4l-116.7 -67.5 -162.5 -94 0 0 0 0 -8.2 -4.7c-2.7,-1.6 -5.7,-2.4 -8.7,-2.4 -3,0 -6,0.8 -8.7,2.4l-581.5 335.7 -5.1 -29.8 -9.4 -55.6 33.4 19.3c4.3,2.4 9.8,3.6 15.4,3.6 5.6,0 11.2,-1.2 15.4,-3.6l54.6 -31.6 163 -94.1c8.5,-4.9 8.5,-12.9 0,-17.8l-51.5 -29.7 0 0 0 0 -82.4 -47.6 0 0 0 0 -14.9 -8.6c-4.2,-2.4 -9.8,-3.7 -15.4,-3.7 -5.6,0 -11.1,1.3 -15.4,3.7l-125.6 72.5 -5.9 -35 454.7 -262.5c0.6,-0.3 1.1,-0.6 1.7,-0.9l0.6 0 0 -0.3c0.6,-0.3 1.3,-0.6 2,-0.9l0.3 0 0 -0.1c1,-0.4 2,-0.7 3,-1.1l0.5 0 0 -0.1c1.4,-0.4 2.9,-0.7 4.4,-1l1.4 0 0 -0.2c2.1,-0.4 4.3,-0.5 6.4,-0.5 2.6,0 5.1,0.2 7.5,0.7l0 0 0 0c2.6,0.5 4.9,1.2 7,2.3l0 0 0.1 0c0.3,0.2 0.7,0.4 1,0.6l556.9 321.5 1 6 -632.2 365 0 0 -313 180.7 0 0 -8.5 -50.6z"/>
    <path class="fil38" d="M3823.4 2927.4l0 -0.2 -1.2 0c-1.6,-0.2 -3.2,-0.5 -4.7,-1l0 -0.1 -0.4 0c-1.8,-0.6 -3.4,-1.3 -4.9,-2.1l-33.4 -19.3 -19.1 -112.7 -3.1 -18.3 37.7 -21.8 0 0 86.7 -50c0.7,-0.4 1.3,-0.7 2,-1l0.7 0 0 -0.3c2.4,-1 5.1,-1.7 7.8,-2.1l1.5 0 0 -0.1c1.1,-0.1 2.3,-0.2 3.4,-0.2 1.2,0 2.4,0.1 3.6,0.2l0 0.1 1.3 0c2.8,0.4 5.5,1.1 8,2.1l0 0.3 0.5 0c0.7,0.3 1.4,0.6 2,1l148.8 85.9c0.7,0.4 1.3,0.8 1.9,1.3l0 0 0.1 0c0.9,0.7 1.6,1.4 2.2,2.2l0 0.1 0.1 0c0.4,0.6 0.8,1.1 1.1,1.7 2.2,-4.3 0.5,-9.2 -5.4,-12.6l-51.5 -29.7 51.5 29.7c6.8,3.9 8.2,9.7 4.2,14.4l0 0 0 0c-0.3,0.4 -0.7,0.8 -1.1,1.2l0 0 0 0c-0.9,0.8 -1.9,1.5 -3.1,2.2l-217.6 125.7c-0.6,0.3 -1.2,0.6 -1.9,0.9l-0.3 0 0 0.2c-2.4,1 -5,1.7 -7.7,2.1l-1.6 0 0 0.2c-1.3,0.2 -2.6,0.2 -3.9,0.2l0 0c-1.4,0 -2.8,0 -4.2,-0.2zm185.7 -176.6l-82.4 -47.6 82.4 47.6zm-82.4 -47.6l-14.9 -8.6c-0.4,-0.2 -0.9,-0.5 -1.3,-0.7 0.4,0.2 0.9,0.5 1.3,0.7l14.9 8.6zm-16.3 -9.3c-0.9,-0.5 -1.8,-0.8 -2.7,-1.2 0.9,0.4 1.8,0.7 2.7,1.2zm-3.5 -1.4c-1.1,-0.4 -2.4,-0.7 -3.6,-0.9 1.2,0.2 2.5,0.5 3.6,0.9zm-4.6 -1.1c-1.9,-0.3 -3.9,-0.5 -5.9,-0.5 -1.9,0 -3.8,0.2 -5.7,0.5 1.9,-0.3 3.8,-0.5 5.7,-0.5 2,0 4,0.2 5.9,0.5zm-12.8 0.2c-2.4,0.5 -4.8,1.2 -7,2.2 2.2,-1 4.6,-1.7 7,-2.2zm-7.1 2.3c-0.5,0.2 -0.9,0.5 -1.4,0.7l-83.2 48 83.2 -48c0.5,-0.2 0.9,-0.5 1.4,-0.7zm-84.6 48.8l-42.4 24.4 42.4 -24.4z"/>
    <path class="fil39" d="M4066 2793.1c-1,-2 -2.7,-3.8 -5.4,-5.3l-148.8 -85.9c-4.2,-2.5 -9.8,-3.7 -15.4,-3.7 -5.6,0 -11.1,1.2 -15.4,3.7l-124.4 71.8 -1.2 -6.6 125.6 -72.5c4.3,-2.4 9.8,-3.7 15.4,-3.7 5.6,0 11.2,1.3 15.4,3.7l148.8 85.9c5.9,3.4 7.6,8.3 5.4,12.6z"/>
    <path class="fil40" d="M3864.2 3299.4c-3,0 -6,-0.7 -8.7,-2.3l-11.3 -6.5 -3.5 -20.8 10.9 6.3 43.5 -25.1 -27.9 -16.1 -29.5 17.1 -8.3 -48.7 10.6 -6.1 -12.9 -7.3 -6 -35.4 690.6 -398.7 -27.8 -16.1 -667.7 385.5 -3.3 -19.5 652.4 -376.7 -27.8 -16.1 -629.6 363.5 -1.2 -7 -2.1 -12.5 614.3 -354.7 -27.8 -16.1 -591.5 341.5 -1.1 -6.4 -3.1 -18.3 579.4 -334.5c2.7,-1.5 5.7,-2.3 8.7,-2.3 3,0 6,0.8 8.7,2.3l284.5 164.6 2.9 -1.6 -806.7 465.7c-2.7,1.6 -5.7,2.3 -8.7,2.3zm740.2 -490.1l-703.1 405.9 27.8 16.1 703.1 -405.9 -27.8 -16.1zm-74.1 -42.8l-668.3 385.9 27.9 16 668.3 -385.8 -27.9 -16.1z"/>
    <path class="fil39" d="M3793.3 2990.1l581.5 -335.7c2.7,-1.6 5.7,-2.4 8.7,-2.4 3,0 6,0.8 8.7,2.4l287.4 166.2c2.1,1.2 3.1,3.3 3.1,5.4 0,2.1 -1,4.2 -3.1,5.4l0 0 -2.9 1.6 -284.5 -164.6c-2.7,-1.5 -5.7,-2.3 -8.7,-2.3 -3,0 -6,0.8 -8.7,2.3l-579.4 334.5 -2.1 -12.8z"/>
    <polygon class="fil41" points="3929.1,3231.3 3901.3,3215.2 4604.4,2809.3 4632.2,2825.4 "/>
    <polygon class="fil41" points="3889.9,3168.4 3862,3152.4 4530.3,2766.5 4558.2,2782.6 "/>
    <polygon class="fil41" points="3827.1,3189.9 3840,3197.2 3829.4,3203.3 "/>
    <polygon class="fil41" points="3851.6,3276.1 3840.7,3269.8 3837.7,3252 3867.2,3234.9 3895.1,3251 "/>
    <polygon class="fil41" points="3816.2,3125.2 4483.9,2739.7 4511.7,2755.8 3821.1,3154.5 "/>
    <polygon class="fil41" points="3807.9,3076.4 4437.5,2712.9 4465.3,2729 3812.9,3105.7 "/>
    <polygon class="fil41" points="3804.6,3056.9 3799.6,3027.6 4391.1,2686.1 4418.9,2702.2 "/>
    <polygon class="fil13" points="4091.7,3077.7 4168.2,3033.5 4170.4,3046.8 4093.9,3091 "/>
    <polygon class="fil13" points="4180.5,3026.4 4222.2,3002.3 4224.4,3015.6 4182.7,3039.7 "/>
    <polygon class="fil13" points="4287.1,2964.9 4317.2,2947.4 4319.5,2960.7 4289.3,2978.2 "/>
    <polygon class="fil13" points="4265.1,2977.6 4275.4,2971.6 4277.6,2984.9 4267.3,2990.9 "/>
    <polygon class="fil13" points="4234.7,2995.2 4253.4,2984.3 4255.6,2997.6 4236.9,3008.5 "/>
    <polygon class="fil13" points="4152.2,2976.1 4182.4,2958.6 4184.6,2971.9 4154.5,2989.4 "/>
    <polygon class="fil13" points="4081.4,3017 4140.5,2982.8 4142.8,2996.1 4083.7,3030.3 "/>
    <polygon class="fil13" points="4166.2,2801.6 4225.3,2767.5 4227.5,2780.8 4168.4,2814.9 "/>
    <polygon class="fil13" points="4135.7,2819.2 4154.5,2808.4 4156.7,2821.7 4138,2832.5 "/>
    <polygon class="fil13" points="4176,2862.4 4235.1,2828.3 4237.4,2841.6 4178.3,2875.7 "/>
    <polygon class="fil13" points="4145.6,2880 4164.4,2869.2 4166.6,2882.5 4147.9,2893.3 "/>
    <polygon class="fil13" points="4122.5,2539.3 4011.2,2603.7 4009,2590.4 4120.3,2526 "/>
    <polygon class="fil13" points="4161.8,2516.6 4134.2,2532.5 4132,2519.3 4159.5,2503.3 "/>
    <polygon class="fil13" points="4357.4,2503.7 4246.1,2568.1 4243.9,2554.8 4355.2,2490.4 "/>
    <polygon class="fil13" points="4396.7,2481 4369.1,2497 4366.9,2483.7 4394.4,2467.7 "/>
    <polygon class="fil13" points="4046.5,2616.6 4016.3,2634 4014.1,2620.7 4044.2,2603.3 "/>
    <polygon class="fil13" points="4230,2577.2 4199.9,2594.6 4197.6,2581.3 4227.8,2563.9 "/>
    <polygon class="fil13" points="4117.3,2575.7 4058.2,2609.8 4055.9,2596.5 4115,2562.4 "/>
    <polygon class="fil13" points="4147.7,2558.1 4129,2568.9 4126.7,2555.6 4145.4,2544.8 "/>
    <polygon class="fil13" points="4219,2516.9 4159.9,2551.1 4157.7,2537.8 4216.8,2503.6 "/>
    <polygon class="fil13" points="4249.4,2499.3 4230.7,2510.2 4228.5,2496.9 4247.2,2486.1 "/>
    <polygon class="fil13" points="4224.9,2546.8 4194.7,2564.3 4192.5,2551 4222.7,2533.5 "/>
    <polygon class="fil13" points="4295.7,2505.9 4236.6,2540.1 4234.3,2526.8 4293.4,2492.6 "/>
    <polygon class="fil13" points="4326.1,2488.4 4307.4,2499.2 4305.1,2485.9 4323.9,2475.1 "/>
    <polygon class="fil13" points="4083.2,2628.7 4021.4,2664.4 4019.2,2651.1 4080.9,2615.4 "/>
    <polygon class="fil13" points="4139.5,2596.1 4094.9,2621.9 4092.6,2608.6 4137.3,2582.8 "/>
    <polygon class="fil13" points="4181.3,2571.9 4151.2,2589.4 4148.9,2576.1 4179.1,2558.7 "/>
    <polygon class="fil13" points="4473.9,2436.5 4412.2,2472.2 4410,2458.9 4471.7,2423.2 "/>
    <polygon class="fil13" points="4530.2,2404 4485.6,2429.8 4483.4,2416.5 4528,2390.7 "/>
    <polygon class="fil13" points="4572.1,2379.8 4541.9,2397.2 4539.7,2383.9 4569.9,2366.5 "/>
    <polygon class="fil13" points="4449.8,2837.6 4511.5,2801.9 4513.8,2815.2 4452.1,2850.9 "/>
    <polygon class="fil13" points="4393.5,2870.1 4438.1,2844.4 4440.4,2857.6 4395.7,2883.4 "/>
    <polygon class="fil13" points="4351.6,2894.3 4381.8,2876.9 4384,2890.2 4353.9,2907.6 "/>
    <polygon class="fil13" points="4429.3,2882.9 4491,2847.2 4493.3,2860.5 4431.6,2896.2 "/>
    <polygon class="fil13" points="4373,2915.4 4417.6,2889.6 4419.9,2902.9 4375.2,2928.7 "/>
    <polygon class="fil13" points="4331.1,2939.6 4361.3,2922.2 4363.6,2935.5 4333.4,2952.9 "/>
    <polygon class="fil13" points="4180.1,2826.7 4200.9,2814.7 4203.2,2828 4182.3,2840 "/>
    <polygon class="fil13" points="4140.8,2849.4 4168.4,2833.5 4170.6,2846.8 4143.1,2862.7 "/>
    <polygon class="fil13" points="4088.7,2658.9 4027,2694.5 4024.7,2681.3 4086.4,2645.6 "/>
    <polygon class="fil13" points="4145,2626.3 4100.4,2652.1 4098.1,2638.8 4142.8,2613 "/>
    <polygon class="fil13" points="4186.9,2602.1 4156.7,2619.6 4154.5,2606.3 4184.6,2588.8 "/>
    <polygon class="fil13" points="4052.9,2712.8 4032.1,2724.9 4029.8,2711.6 4050.7,2699.6 "/>
    <polygon class="fil13" points="4092.2,2690.2 4064.6,2706.1 4062.4,2692.8 4089.9,2676.9 "/>
    <polygon class="fil13" points="4148.3,2657.7 4103.9,2683.4 4101.6,2670.1 4146,2644.5 "/>
    <polygon class="fil13" points="4208.5,2910.4 4229.3,2898.4 4231.6,2911.7 4210.7,2923.7 "/>
    <polygon class="fil13" points="4169.2,2933.1 4196.8,2917.2 4199,2930.5 4171.5,2946.4 "/>
    <polygon class="fil13" points="4113.1,2965.5 4157.5,2939.9 4159.8,2953.2 4115.4,2978.8 "/>
    <polygon class="fil13" points="4240.2,2861.2 4284.6,2835.5 4286.8,2848.8 4242.5,2874.5 "/>
    <polygon class="fil13" points="4167.6,2900.7 4227.4,2866.1 4229.7,2879.4 4169.9,2914 "/>
    <polygon class="fil13" points="4137.2,2918.3 4155.9,2907.5 4158.2,2920.8 4139.4,2931.6 "/>
    <polygon class="fil13" points="4108,2935.2 4126.7,2924.4 4129,2937.6 4110.2,2948.5 "/>
    <polygon class="fil13" points="4112,2763.7 4171.1,2729.5 4173.4,2742.8 4114.3,2777 "/>
    <polygon class="fil13" points="4081.6,2781.2 4100.3,2770.4 4102.6,2783.7 4083.9,2794.5 "/>
    <polygon class="fil13" points="4116.1,2728 4136.9,2715.9 4139.2,2729.2 4118.3,2741.3 "/>
    <polygon class="fil13" points="4189.7,2752.3 4210.5,2740.2 4212.8,2753.5 4191.9,2765.6 "/>
    <polygon class="fil13" points="4219.4,2735.1 4269.4,2706.3 4271.7,2719.5 4221.7,2748.4 "/>
    <polygon class="fil13" points="4278.3,2701.1 4308.1,2683.9 4310.3,2697.2 4280.5,2714.4 "/>
    <polygon class="fil13" points="4076.8,2750.7 4104.4,2734.7 4106.7,2748 4079.1,2763.9 "/>
    <polygon class="fil13" points="4074.3,2719.5 4095.1,2707.4 4097.3,2720.7 4076.5,2732.7 "/>
    <polygon class="fil13" points="4035,2742.2 4062.6,2726.2 4064.8,2739.5 4037.2,2755.4 "/>
    <polygon class="fil13" points="4159.4,2769.7 4178.2,2758.9 4180.4,2772.2 4161.7,2783 "/>
    <polygon class="fil13" points="4130.2,2786.6 4149,2775.8 4151.2,2789.1 4132.5,2799.9 "/>
    <polygon class="fil13" points="4274.1,2939.2 4337.9,2902.3 4340.1,2915.6 4276.3,2952.5 "/>
    <polygon class="fil13" points="4202.5,2980.5 4262.4,2945.9 4264.6,2959.2 4204.8,2993.8 "/>
    <polygon class="fil13" points="4172.1,2998.1 4190.8,2987.3 4193.1,3000.5 4174.4,3011.4 "/>
    <polygon class="fil13" points="4142.9,3015 4161.7,3004.1 4163.9,3017.4 4145.2,3028.2 "/>
    <polygon class="fil13" points="4127,3024.2 4086.6,3047.5 4088.8,3060.8 4129.2,3037.5 "/>
    <path class="fil13" d="M2512.9 3877.7c-15.6,0 -30.9,-4.1 -44.3,-11.9l-881.3 -508.8c-8,-4.6 -12.7,-12.8 -12.7,-22.1 0,-9.2 4.7,-17.5 12.7,-22.1l551.9 -318.6c0.8,-0.5 1.6,-0.7 2.5,-0.7 0.9,0 1.7,0.3 2.5,0.7l923 532.9c8,4.6 12.8,12.9 12.8,22.1 0,9.2 -4.8,17.5 -12.8,22.1l-510.1 294.5c-13.4,7.8 -28.7,11.9 -44.2,11.9zm-39.3 -20.6c11.9,6.9 25.6,10.3 39.3,10.3 13.6,0 27.3,-3.4 39.2,-10.3l510.1 -294.5c4.8,-2.8 7.7,-7.8 7.7,-13.4 0,-5.6 -2.9,-10.6 -7.7,-13.4l-920.5 -531.4 -549.3 317.1c-4.9,2.8 -7.8,7.8 -7.8,13.4 0,5.6 2.9,10.6 7.8,13.4l881.2 508.8 0 0z"/>
    <path class="fil42" d="M3273.7 2639.5c0.6,-3.6 -0.3,-8 -2.1,-12.1l-16.1 7.1c-2.4,-4.6 -5.9,-8.7 -10,-11.1l-981.2 -566.5c-2.5,-1.4 -4.8,-2.1 -7,-2.1 -1.3,0 -2.6,0.3 -3.7,0.9l14.7 -8.5 0 0.1c1.3,-0.8 2.8,-1.3 4.5,-1.3 2.1,0 4.5,0.7 6.9,2.1l327.6 189.2 24.5 14.1 5.4 3.1 623.7 360.1c8.1,4.7 14.2,16.6 12.8,24.9z"/>
    <path class="fil43" d="M3130.6 3389.4c2,-1.3 3.4,-3.7 3.9,-6.8l123.8 -734.2c0.7,-4.2 -0.5,-9.3 -2.8,-13.9l16.1 -7.1c1.8,4.1 2.7,8.5 2.1,12.1l-4.6 27.3 -2.6 15.4 -14.9 88.3 -14.2 84.3 -16 95.1 -71.5 423.8c-0.6,3.8 -2.5,6.4 -5.2,7.5l0.1 0 -8 4.6 -6.2 3.6zm143.1 -749.9l0 0z"/>
    <path class="fil8" d="M2137.9 2822.1l981.2 566.5c7.6,4.3 14.1,1.8 15.4,-6l123.8 -734.2c1.4,-8.4 -4.7,-20.3 -12.8,-25l-981.2 -566.5c-7.5,-4.3 -14,-1.8 -15.4,6l-123.7 734.2c-1.4,8.4 4.7,20.3 12.7,25z"/>
    <path class="fil25" d="M2160.5 2795.6l0 0 116.7 -691.8 945.8 546.1 -14 82.2 -454.7 -262.5c-5.8,-3.4 -13.3,-5.1 -20.3,-5.1 -5.9,0 -11.5,1.2 -15.6,3.6l-556.9 321.5 -1 6z"/>
    <path class="fil44" d="M1521.1 3169.6l53.6 28 536.9 -310c9,-5.2 24.7,-4.5 35.1,1.5l926 534.6c8.9,-4.9 49.3,-24.4 49.3,-24.4l-19.6 51.1 -0.1 0c-0.8,2.2 -2.5,4.3 -5.5,6l-565.5 326.5c-8.9,5.2 -24.6,4.6 -35,-1.4l-947.7 -547.2c-4.2,-2.4 -6.8,-5.4 -7.9,-8.4l-0.1 0 -19.5 -56.3z"/>
    <path class="fil45" d="M1529.4 3178.4l971.2 560.8c10.7,6.1 26.8,6.8 36,1.5l579.5 -334.6c9.2,-5.3 8.1,-14.6 -2.5,-20.8l-971.3 -560.7c-10.6,-6.2 -26.7,-6.8 -35.9,-1.5l-579.6 334.6c-9.2,5.3 -8,14.6 2.6,20.7z"/>
    <path class="fil17" d="M1529.4 3172.9l971.2 560.7c10.7,6.1 26.8,6.8 36,1.5l579.5 -334.6c3,-1.8 4.8,-4 5.7,-6.3 1.4,4.4 -0.3,8.8 -5.7,11.9l-579.5 334.6c-9.2,5.3 -25.3,4.6 -36,-1.5l-971.2 -560.8c-7.1,-4.1 -9.9,-9.6 -8.2,-14.4 1.1,3.1 3.8,6.3 8.2,8.9z"/>
    <polygon class="fil5" points="2793.6,3617.9 2793.6,3607.2 2792.2,3606.2 2754.7,3627.9 2753.3,3630.5 2753.3,3641.2 2754.7,3642.2 2792.2,3620.5 "/>
    <polygon class="fil5" points="2737.4,3650.3 2737.4,3639.7 2736,3638.6 2698.5,3660.3 2697.1,3662.9 2697.1,3673.6 2698.5,3674.6 2736,3652.9 "/>
    <path class="fil6" d="M2965 3374.7l-807.1 -465.9c-5.3,-3.2 -12,-3.2 -17.3,0l-287.4 166.2c-4.2,2.4 -4.2,8.4 0,10.8l806.7 465.7c5.4,3.1 12,3.1 17.3,0l287.8 -166.1c4.2,-2.3 4.2,-8.3 0,-10.7z"/>
    <path class="fil7" d="M2965 3385.4l-2.9 1.7 -804.2 -464.3c-5.3,-3.1 -12,-3.1 -17.3,0l-284.6 164.6 -2.8 -1.6c-4.2,-2.4 -4.2,-8.4 0,-10.8l287.4 -166.2c5.3,-3.2 12,-3.2 17.3,0l807.1 465.9c4.2,2.4 4.2,8.4 0,10.7z"/>
    <polygon class="fil8" points="2186.4,2989.8 2869.5,3384.3 2899,3365.3 2217.7,2971.9 "/>
    <polygon class="fil8" points="2142,3052.5 2762.3,3410.6 2783.5,3386.9 2173.2,3034.5 "/>
    <polygon class="fil8" points="1992.7,3023.7 2766.9,3470.7 2798.1,3452.7 2023.8,3005.7 "/>
    <polygon class="fil8" points="1942.9,3052.5 2717.1,3499.5 2748.3,3481.5 1974.1,3034.5 "/>
    <polygon class="fil8" points="1893.1,3081.2 2667.3,3528.2 2698.5,3510.2 1924.3,3063.2 "/>
    <polygon class="fil8" points="2862.3,3380.1 2893.5,3398.1 2924.6,3380.1 2893.5,3362.1 "/>
    <polygon class="fil8" points="2752.3,3404.8 2817,3442.2 2848.2,3424.2 2783.5,3386.9 "/>
    <path class="fil46" d="M2126.9 3487.5l-217.7 -125.7c-8.5,-4.9 -8.5,-12.8 0,-17.7l148.9 -86c8.5,-4.9 22.3,-4.9 30.8,0l217.6 125.7c8.5,4.9 8.5,12.9 0,17.8l-148.8 85.9c-8.5,4.9 -22.3,4.9 -30.8,0z"/>
    <path class="fil7" d="M2306.5 3391.1l-217.6 -125.7c-8.5,-4.9 -22.3,-4.9 -30.8,0l-148.9 85.9c-2.6,1.6 -4.3,3.4 -5.3,5.3 -2.2,-4.3 -0.5,-9.1 5.3,-12.5l148.9 -86c8.5,-4.9 22.3,-4.9 30.8,0l217.6 125.7c5.9,3.4 7.6,8.2 5.3,12.5 -1,-1.9 -2.7,-3.7 -5.3,-5.2z"/>
    <path class="fil47" d="M3042 3304.6l0 0 0 0 -307.6 -177.7 0 0 -0.1 0 -307.6 -177.6 0 0 0 0 -266.2 -153.7 1 -6 556.9 -321.5c1.1,-0.7 2.4,-1.3 3.8,-1.8l0.5 0 0 -0.2c3.4,-1.1 7.3,-1.6 11.3,-1.6 2,0 4.1,0.1 6.2,0.4l0 0.3 1.6 0c2.6,0.5 5.2,1.2 7.7,2.1l0 0.2 0.5 0c1.5,0.6 2.9,1.3 4.3,2.1l229.7 132.6 0 0 225 129.9 -5.9 35 -18.3 -10.5 0 0 0 0 -82.4 -47.6 0 0 0 0 -24.9 -14.4c-4.3,-2.4 -9.8,-3.7 -15.4,-3.7 -5.6,0 -11.2,1.3 -15.4,3.7l-148.8 85.9c-8.5,4.9 -8.5,12.9 0,17.8l217.6 125.7c4.2,2.4 9.8,3.6 15.4,3.6 5.6,0 11.1,-1.2 15.4,-3.6l33.4 -19.3 -14.5 85.4 -376.3 -217.2 0 -0.1 0 0 -112.6 -65 0 0 0 0 -92.6 -53.4c-2.7,-1.6 -5.7,-2.4 -8.7,-2.4 -3,0 -6,0.8 -8.7,2.4l-287.4 166.2c-2.1,1.2 -3.1,3.3 -3.1,5.4 0,2.1 1,4.2 3.1,5.4l0 0 806.7 465.7c2.7,1.6 5.7,2.3 8.7,2.3 3,0 6,-0.7 8.7,-2.3l11.3 -6.5 -8.6 50.7 0 0 -63.7 -36.7z"/>
    <path class="fil48" d="M3126.8 2927.4l0 -0.2 -1.4 0c-1.5,-0.2 -3,-0.5 -4.4,-0.9l0 -0.2 -0.6 0c-1,-0.3 -2,-0.7 -2.9,-1.1l0 -0.1 -0.1 0c-0.7,-0.3 -1.3,-0.6 -1.9,-0.9l-0.3 -0.2 0 0 0 0 -112.7 -65 0 0 0 0 -104.6 -60.5c-2.8,-1.6 -4.7,-3.5 -5.7,-5.6l0 -0.1 0 0c-1.6,-3.6 -0.5,-7.4 3.3,-10.5l0 0c-3.9,3.3 -4.9,7.3 -3,11 1,-2 2.7,-3.8 5.4,-5.3l148.8 -85.9c0.6,-0.4 1.3,-0.7 2,-1l0.3 0 0 -0.2c2.5,-1 5.3,-1.8 8.2,-2.2l1.1 0 0 -0.1c1.2,-0.1 2.5,-0.2 3.8,-0.2 1,0 2.1,0.1 3.1,0.1l0 0.2 1.8 0c1.8,0.3 3.5,0.7 5.2,1.1l0 0.1 0.2 0c1.8,0.6 3.5,1.3 5.1,2.2l124.4 71.9 -10.7 63.3 -11.5 67.6 -33.4 19.3c-0.6,0.3 -1.2,0.6 -1.9,0.9l-0.2 0 0 0.1c-2.4,1.1 -5.1,1.8 -7.9,2.2l-1.4 0 0 0.2c-1.3,0.2 -2.7,0.2 -4,0.2l0 0c-1.4,0 -2.8,0 -4.1,-0.2zm-231.1 -145.4l0 0c0.7,-0.5 1.4,-1 2.2,-1.5l148.8 -85.9c1.3,-0.7 2.7,-1.4 4.2,-1.9 -1.5,0.5 -2.9,1.2 -4.2,1.9l-148.8 85.9c-0.8,0.5 -1.5,1 -2.2,1.5zm155.6 -89.4c1.3,-0.4 2.6,-0.8 3.9,-1 -1.3,0.2 -2.6,0.6 -3.9,1zm4.6 -1.2c2,-0.3 4.1,-0.5 6.2,-0.5 2.2,0 4.5,0.2 6.6,0.6 -2.1,-0.4 -4.4,-0.6 -6.6,-0.6 -2.1,0 -4.2,0.2 -6.2,0.5zm13.1 0.2c2.3,0.4 4.6,1.1 6.7,2.1 -2.1,-1 -4.4,-1.7 -6.7,-2.1zm7.1 2.3c0.5,0.2 0.9,0.5 1.4,0.7l24.9 14.4 -24.9 -14.4c-0.5,-0.2 -0.9,-0.5 -1.4,-0.7zm26.3 15.1l82.4 47.6 -82.4 -47.6zm82.4 47.6l18.3 10.5 -18.3 -10.5z"/>
    <path class="fil39" d="M2892.5 2793.1c-2.2,-4.3 -0.5,-9.2 5.4,-12.6l148.8 -85.9c4.2,-2.4 9.8,-3.7 15.4,-3.7 5.6,0 11.1,1.3 15.4,3.7l125.6 72.5 -0.8 4.7 -0.4 2 -124.4 -71.9c-4.3,-2.5 -9.8,-3.7 -15.4,-3.7 -5.6,0 -11.2,1.2 -15.4,3.7l-148.8 85.9c-2.7,1.5 -4.4,3.3 -5.4,5.3z"/>
    <path class="fil40" d="M3094.3 3299.4c-3,0 -6,-0.7 -8.7,-2.3l-806.7 -465.7 2.9 1.6 284.5 -164.6c2.7,-1.5 5.7,-2.3 8.7,-2.3 3,0 6,0.8 8.7,2.3l579.4 334.5 -4.2 24.7 -591.5 -341.5 -27.8 16.1 614.3 354.7 -0.1 0.4 -3.2 19.1 -629.6 -363.5 -27.8 16.1 652.4 376.7 -0.8 4.9 -2.5 14.6 -667.7 -385.5 -27.8 16.1 690.6 398.7 -6 35.3 -12.9 7.4 10.6 6.1 -3.9 23 -4.4 25.7 -29.5 -17.1 -27.9 16.1 43.5 25.1 10.9 -6.3 -2.1 12.5 -1.4 8.3 -11.3 6.5c-2.7,1.6 -5.7,2.3 -8.7,2.3zm-740.2 -490.1l-27.9 16.1 703.2 405.9 27.8 -16.1 -703.1 -405.9zm74.1 -42.8l-27.9 16.1 668.3 385.8 27.9 -16 -668.3 -385.9z"/>
    <path class="fil39" d="M3163.1 3002.9l-579.4 -334.5c-2.7,-1.5 -5.7,-2.3 -8.7,-2.3 -3,0 -6,0.8 -8.7,2.3l-284.5 164.6 -2.9 -1.6c-2.1,-1.2 -3.1,-3.3 -3.1,-5.4 0,-2.1 1,-4.2 3.1,-5.4l287.4 -166.2c2.7,-1.6 5.7,-2.4 8.7,-2.4 3,0 6,0.8 8.7,2.4l581.5 335.7 -2.1 12.8z"/>
    <polygon class="fil41" points="3029.4,3231.3 2326.2,2825.4 2354.1,2809.3 3057.2,3215.2 "/>
    <polygon class="fil41" points="3068.6,3168.4 2400.3,2782.6 2428.2,2766.5 3096.5,3152.4 "/>
    <polygon class="fil41" points="3129.1,3203.3 3118.5,3197.2 3131.4,3189.8 "/>
    <polygon class="fil41" points="3106.9,3276.1 3063.4,3251 3091.3,3234.9 3120.8,3252 3117.8,3269.8 "/>
    <polygon class="fil41" points="3137.4,3154.5 2446.8,2755.8 2474.6,2739.7 3142.3,3125.2 "/>
    <polygon class="fil41" points="3145.6,3105.7 2493.2,2729 2521,2712.9 3150.6,3076.4 "/>
    <polygon class="fil41" points="3153.9,3056.9 2539.6,2702.2 2567.4,2686.1 3158.9,3027.6 "/>
    <polygon class="fil13" points="2488.9,2360.1 2565.4,2404.3 2567.7,2391 2491.1,2346.8 "/>
    <polygon class="fil13" points="2577.7,2411.4 2619.4,2435.5 2621.7,2422.2 2580,2398.1 "/>
    <polygon class="fil13" points="2684.3,2472.9 2714.5,2490.4 2716.7,2477.1 2686.5,2459.6 "/>
    <polygon class="fil13" points="2662.3,2460.2 2672.6,2466.2 2674.8,2452.9 2664.5,2446.9 "/>
    <polygon class="fil13" points="2631.9,2442.6 2650.6,2453.5 2652.9,2440.2 2634.1,2429.4 "/>
    <polygon class="fil13" points="2549.5,2461.7 2579.6,2479.2 2581.9,2465.9 2551.7,2448.4 "/>
    <polygon class="fil13" points="2478.7,2420.8 2537.8,2455 2540,2441.7 2480.9,2407.5 "/>
    <polygon class="fil13" points="2563.4,2636.2 2622.5,2670.3 2624.7,2657 2565.6,2622.9 "/>
    <polygon class="fil13" points="2533,2618.6 2551.7,2629.4 2553.9,2616.1 2535.2,2605.3 "/>
    <polygon class="fil13" points="2573.3,2575.4 2632.4,2609.5 2634.6,2596.2 2575.5,2562.1 "/>
    <polygon class="fil13" points="2542.9,2557.8 2561.6,2568.6 2563.8,2555.3 2545.1,2544.5 "/>
    <polygon class="fil13" points="2519.8,2898.5 2408.4,2834.1 2406.2,2847.4 2517.5,2911.8 "/>
    <polygon class="fil13" points="2559,2921.2 2531.5,2905.2 2529.2,2918.5 2556.8,2934.5 "/>
    <polygon class="fil13" points="2754.7,2934.1 2643.3,2869.7 2641.1,2883 2752.4,2947.4 "/>
    <polygon class="fil13" points="2793.9,2956.8 2766.4,2940.8 2764.1,2954.1 2791.7,2970 "/>
    <polygon class="fil13" points="2443.7,2821.2 2413.6,2803.8 2411.3,2817.1 2441.5,2834.5 "/>
    <polygon class="fil13" points="2627.3,2860.6 2597.1,2843.1 2594.8,2856.4 2625,2873.9 "/>
    <polygon class="fil13" points="2514.5,2862.1 2455.4,2828 2453.2,2841.3 2512.3,2875.4 "/>
    <polygon class="fil13" points="2544.9,2879.7 2526.2,2868.9 2524,2882.2 2542.7,2893 "/>
    <polygon class="fil13" points="2616.3,2920.9 2557.2,2886.7 2554.9,2900 2614,2934.2 "/>
    <polygon class="fil13" points="2646.7,2938.4 2628,2927.6 2625.7,2940.9 2644.4,2951.7 "/>
    <polygon class="fil13" points="2622.1,2890.9 2592,2873.5 2589.7,2886.8 2619.9,2904.2 "/>
    <polygon class="fil13" points="2692.9,2931.9 2633.8,2897.7 2631.6,2911 2690.7,2945.2 "/>
    <polygon class="fil13" points="2723.3,2949.4 2704.6,2938.6 2702.4,2951.9 2721.1,2962.7 "/>
    <polygon class="fil13" points="2480.4,2809.1 2418.7,2773.4 2416.4,2786.7 2478.2,2822.4 "/>
    <polygon class="fil13" points="2536.7,2841.6 2492.1,2815.9 2489.8,2829.1 2534.5,2854.9 "/>
    <polygon class="fil13" points="2578.6,2865.9 2548.4,2848.4 2546.2,2861.7 2576.3,2879.1 "/>
    <polygon class="fil13" points="2871.2,3001.3 2809.4,2965.6 2807.2,2978.9 2868.9,3014.5 "/>
    <polygon class="fil13" points="2927.5,3033.8 2882.9,3008 2880.6,3021.3 2925.2,3047.1 "/>
    <polygon class="fil13" points="2969.3,3058 2939.2,3040.6 2936.9,3053.9 2967.1,3071.3 "/>
    <polygon class="fil13" points="2847,2600.2 2908.8,2635.9 2911,2622.6 2849.3,2586.9 "/>
    <polygon class="fil13" points="2790.7,2567.7 2835.4,2593.4 2837.6,2580.2 2793,2554.4 "/>
    <polygon class="fil13" points="2748.9,2543.5 2779,2560.9 2781.3,2547.6 2751.1,2530.2 "/>
    <polygon class="fil13" points="2826.6,2554.9 2888.3,2590.6 2890.5,2577.3 2828.8,2541.6 "/>
    <polygon class="fil13" points="2770.2,2522.4 2814.9,2548.2 2817.1,2534.9 2772.5,2509.1 "/>
    <polygon class="fil13" points="2728.4,2498.2 2758.5,2515.6 2760.8,2502.3 2730.6,2484.9 "/>
    <polygon class="fil13" points="2577.3,2611.1 2598.2,2623.1 2600.4,2609.8 2579.6,2597.8 "/>
    <polygon class="fil13" points="2538.1,2588.4 2565.6,2604.3 2567.9,2591 2540.3,2575.1 "/>
    <polygon class="fil13" points="2485.9,2778.9 2424.2,2743.3 2421.9,2756.5 2483.7,2792.2 "/>
    <polygon class="fil13" points="2542.3,2811.5 2497.6,2785.7 2495.4,2799 2540,2824.8 "/>
    <polygon class="fil13" points="2584.1,2835.7 2553.9,2818.2 2551.7,2831.5 2581.9,2849 "/>
    <polygon class="fil13" points="2450.2,2725 2429.3,2712.9 2427.1,2726.2 2447.9,2738.2 "/>
    <polygon class="fil13" points="2489.4,2747.6 2461.9,2731.7 2459.6,2745 2487.2,2760.9 "/>
    <polygon class="fil13" points="2545.5,2780 2501.1,2754.4 2498.9,2767.7 2543.3,2793.3 "/>
    <polygon class="fil13" points="2605.7,2527.4 2626.5,2539.4 2628.8,2526.1 2607.9,2514.1 "/>
    <polygon class="fil13" points="2566.5,2504.7 2594,2520.6 2596.2,2507.3 2568.7,2491.4 "/>
    <polygon class="fil13" points="2510.4,2472.3 2554.8,2497.9 2557,2484.6 2512.6,2459 "/>
    <polygon class="fil13" points="2637.4,2576.6 2681.8,2602.3 2684.1,2589 2639.7,2563.4 "/>
    <polygon class="fil13" points="2564.8,2537.1 2624.7,2571.6 2626.9,2558.4 2567.1,2523.8 "/>
    <polygon class="fil13" points="2534.4,2519.5 2553.1,2530.3 2555.4,2517 2536.7,2506.2 "/>
    <polygon class="fil13" points="2505.2,2502.6 2524,2513.4 2526.2,2500.2 2507.5,2489.3 "/>
    <polygon class="fil13" points="2509.3,2674.1 2568.4,2708.3 2570.6,2695 2511.5,2660.8 "/>
    <polygon class="fil13" points="2478.9,2656.6 2497.6,2667.4 2499.8,2654.1 2481.1,2643.3 "/>
    <polygon class="fil13" points="2513.3,2709.8 2534.2,2721.9 2536.4,2708.6 2515.6,2696.5 "/>
    <polygon class="fil13" points="2586.9,2685.5 2607.8,2697.6 2610,2684.3 2589.2,2672.2 "/>
    <polygon class="fil13" points="2616.6,2702.7 2666.7,2731.5 2668.9,2718.3 2618.9,2689.4 "/>
    <polygon class="fil13" points="2675.5,2736.7 2705.3,2753.8 2707.5,2740.6 2677.8,2723.4 "/>
    <polygon class="fil13" points="2474.1,2687.1 2501.6,2703.1 2503.9,2689.8 2476.3,2673.8 "/>
    <polygon class="fil13" points="2471.5,2718.3 2492.3,2730.4 2494.6,2717.1 2473.7,2705 "/>
    <polygon class="fil13" points="2432.2,2695.7 2459.8,2711.6 2462,2698.3 2434.5,2682.4 "/>
    <polygon class="fil13" points="2556.7,2668 2575.4,2678.9 2577.6,2665.6 2558.9,2654.8 "/>
    <polygon class="fil13" points="2527.5,2651.2 2546.2,2662 2548.4,2648.7 2529.7,2637.9 "/>
    <polygon class="fil13" points="2671.3,2498.6 2735.1,2535.5 2737.4,2522.2 2673.5,2485.3 "/>
    <polygon class="fil13" points="2599.8,2457.3 2659.6,2491.9 2661.8,2478.6 2602,2444 "/>
    <polygon class="fil13" points="2569.3,2439.7 2588.1,2450.5 2590.3,2437.2 2571.6,2426.4 "/>
    <polygon class="fil13" points="2540.2,2422.8 2558.9,2433.7 2561.1,2420.4 2542.4,2409.6 "/>
    <polygon class="fil13" points="2524.2,2413.6 2483.8,2390.3 2486.1,2377 2526.4,2400.3 "/>
    <polygon class="fil8" points="2118.9,2950.9 2150,2968.9 2181.2,2950.9 2150,2932.9 "/>
    <polygon class="fil8" points="2042.4,2995 2107.1,3032.3 2138.3,3014.3 2073.6,2977 "/>
   </g>
   <g>
    <path class="fil49" d="M3606.9 1181.5c-5.4,-3.8 -12.9,-6.3 -13.6,-10.1 -2.3,-11.7 -9.9,-9.2 -16.8,-8.5 -6.2,0.6 -12.4,2 -18.4,3.9 -2.7,0.9 -4.8,4.1 -7.2,6.2 2,2.2 3.6,5.3 6.1,6.4 15.7,7.6 32.1,7.3 49.9,2.1zm47.2 -422.9c-8.1,22.1 6.9,32.7 17.2,44.9 9,10.8 20.7,2.8 31.8,3.3 -12.2,-20.1 -32.7,-30.7 -49,-48.2zm-222.7 377.5c20.8,7.1 38.6,12.6 55.8,19.5 8,3.3 14.8,9.5 22.2,14.4 10,6.6 27.7,1.3 31.3,-10 -6.3,-2.9 -12.4,-6.8 -19,-8.4 -24.1,-6 -48.4,-11.4 -72.8,-16.4 -4.8,-1 -10,0.4 -17.5,0.9zm312.4 -590.9c18.3,-18.4 20.4,-22.5 25.1,-48 -13.9,-12.1 -24.7,-12.8 -33.9,-2.8 -4.4,4.7 -9.5,8.6 -15.2,13.8 0.7,24.7 5.1,31.7 24,37zm151.1 16.8c0.1,-15.5 -23,-16.9 -20.6,-35.2 16.8,7.5 32.9,14.7 49.3,22 3.7,-30.4 8.5,-28.7 -21.9,-42.1 -1.6,-0.7 -3.4,-1.3 -5,-2.2 -13.8,-7.5 -28.2,-14.2 -41.1,-23.1 -6.4,-4.5 -10.3,-5.6 -16,-0.1 0.4,1.4 0.5,3 1.2,4.2 11.2,18.1 20.7,36.8 25.3,58.1 2,9.1 19.8,18.9 28.8,18.4zm-406 68.2c16.1,5.3 31.3,10.8 46.8,15.3 5.3,1.5 14.7,2.9 16.4,0.3 7,-10.5 15.3,-22.3 16.1,-34.2 0.6,-8.7 -8.1,-19.3 -20,-22.7 -12,-3.5 -20,-12 -24.1,-24.3 -1.2,-3.7 -3.1,-8.5 -6.1,-10.2 -18.2,-9.7 -36.4,-19.7 -55.5,-27.4 -14.1,-5.7 -16.7,-3.4 -25.2,10.1 8.8,17.6 22.7,28.1 41.4,32.3 4.7,1.1 9.3,2.6 13.7,4.3 2.6,1.1 5.3,2.7 7,4.8 13.3,16.4 11.2,34.1 -5.1,47 -1.9,1.6 -3.8,3.3 -5.4,4.7zm221.6 -5.8c-5.3,-2.3 -8.2,-3.7 -11.2,-4.8 -20.8,-7.7 -24.6,-13.9 -23,-36.4 0.9,-13.9 2.5,-27.8 2.1,-41.6 -0.3,-11.8 2.6,-20.8 12,-28.2 6.7,-5.2 8.6,-25 2.8,-30.8 -19.8,-20.1 -38.9,-40.9 -67.1,-49.7 -11.8,-3.6 -23.4,-9.3 -33.6,-16.2 -15.4,-10.3 -31.6,-9.1 -47.7,-5.2 -8.4,2 -17.5,6.6 -23.3,12.8 -6.7,7.3 -12.8,11.7 -23.1,9.9 -0.9,-3.1 -1.9,-6.4 -3.7,-12.2 -13,3.6 -25.4,7.1 -33.6,9.3 -2.7,13.7 -3.7,23.5 -6.6,32.6 -4,12.5 -1.9,21.5 9.3,29.3 5.3,3.8 11.1,6.9 16.8,10.5 7,-15.7 5.6,-34.7 22.3,-45 1.5,4.6 3.4,8.7 4.4,13.1 3,14.5 14,22.4 24.5,30.4 18.8,14.3 38,28 57.1,41.8 8.4,6.1 11.7,14.1 12.8,24.7 1.4,13.7 -0.6,30.4 18.2,35.5l2.1 2.4c0.5,16.6 15.2,19.5 24.9,27.2 7.9,6.2 16.2,7.2 25.7,3.4 11.6,-4.7 23.7,-8.1 37.9,-12.8zm-570.9 343.8c1.2,2.7 2.2,4.3 2.6,6.1 8.6,32.5 18.1,64.6 34.3,94.5 4.5,8.2 5.6,19.7 4.6,29.2 -1.4,12.6 3.3,25.2 14.3,32.1 13.4,8.4 27.1,16.8 38.6,27.5 14,13 29.6,21.5 47.3,27.6 22.3,7.6 44.7,15.4 66.1,25.4 20.3,9.5 41.4,20.8 50.1,43.3 7.4,19.2 18.4,31.4 38,35.7 2.2,0.4 4.2,1.5 6.3,2.3 10,4.1 19.8,6 31,4.1 10.2,-1.8 20.9,0.2 31.2,0.6 -0.9,7.9 -1.8,13.4 -2.1,19 -0.4,6 -0.3,12 -0.5,18 -0.4,13.9 -5.3,21.9 -18.2,25.5 -11.1,3.2 -17,10.1 -21.4,20.3 -6.9,16 -3.7,36.1 10.6,45.1 27.8,17.5 53.3,37.5 74.3,63.1 7.9,9.6 14.5,21.7 29.6,17.2 4.4,12.3 2.4,22.4 -2.2,32.9 -1.9,4.1 -1.4,10.3 0.3,14.7 0.6,1.7 7.8,1.7 11.7,0.9 19.9,-3.8 40,-7.2 59.6,-12.2 103.1,-26.1 195.6,-74.1 278.8,-141.1 2.3,-1.8 4.5,-5.2 4.6,-8 1.3,-24.6 11.4,-45.4 25.4,-64.8 7.3,-10.1 14.1,-20.7 21.5,-31.6 -10.3,-5.7 -16.5,-18.4 -29.9,-12.1 -29.2,13.6 -60.6,17.8 -91.9,22.8 -7.1,1.1 -12.7,0.3 -17.3,-6.3 -5.4,-7.6 -12.3,-14 -17.9,-21.5 -4.2,-5.7 -9,-7.9 -16,-7.2 -38,4.1 -74.1,-2.5 -108.4,-19.7 -3.8,-1.9 -9.1,-1.8 -13.5,-1.4 -21.2,2 -42.4,4.4 -63.6,6.7 -3.3,0.3 -7.5,-0.6 -9.7,1.1 -13.5,10.7 -26,3.8 -39.3,-0.4 -6,-1.9 -14.4,-1.9 -19.5,1.1 -12.8,7.7 -24.3,17.8 -36.6,26.4 -3.4,2.4 -8.2,3.8 -12.2,3.7 -8.8,-0.3 -17.6,-2 -26.3,-3 -27.4,-3 -39.5,-20.7 -32.4,-47.1 0.7,-2.6 1.1,-5.2 1.6,-7.7 1.7,-7.3 0,-12.5 -6.8,-16.9 -14.4,-9.2 -30,-11.6 -46.5,-11.2 -12.3,0.3 -16,-6.8 -11.5,-18.8 3.6,-9.3 5.3,-19.3 8.3,-28.8 1.8,-5.7 0,-8.8 -5,-11.7 -9.6,-5.6 -25.2,-2.6 -30.4,7.6 -3.9,7.7 -9.6,10.7 -17.1,12.4 -12.4,2.8 -49.6,-18.9 -51.4,-31.4 -3.5,-23.9 -4.7,-47.3 12.8,-68 14.6,-17 43.3,-25.5 63,-14.5 7.8,4.3 14.7,3.9 22,0.8 25.8,-10.7 51.8,-3 67.1,20.1 4.4,6.5 9.3,12.7 13.1,19.5 4.8,8.5 10.1,8.2 17.8,1.6 -3,-9.3 -6.1,-18.8 -9,-28.3 -1.4,-4.3 -3.7,-8.6 -3.3,-12.7 1.4,-18.7 7.8,-34.8 24,-45.8 8.8,-6 16.8,-13.5 25.5,-19.7 6.1,-4.3 8.2,-9.5 8.2,-17 -0.1,-23.8 7.1,-46.9 23.7,-62.3 12.5,-11.6 17.5,-26.6 27.5,-38.8l1.4 -1.8c6,-4.9 11.6,-10 20.6,-5.5 2.6,1.3 7.5,-0.6 10.6,-2.3 3.8,-2.1 6.7,-5.9 10.4,-8.2 7.5,-4.7 15.6,-8.5 22.9,-13.5 2.1,-1.5 3.9,-6.2 3.1,-8.5 -0.8,-2.5 -4.7,-5 -7.5,-5.3 -3.8,-0.5 -8,1.6 -12,1.5 -6.4,-0.3 -13.3,0.1 -14.4,-9.7 -1.3,-12 -9,-14.4 -18.9,-7 -7,5.1 -14.6,9.4 -21.9,14.1l-2.7 -1.8c0.4,-3.2 -0.4,-7.4 1.4,-9.4 12.7,-15.3 28.3,-25.2 48.2,-28.9 9.5,-1.8 20.3,-6.5 26.3,-13.6 9.7,-11.3 2.2,-24.2 -5.9,-33 -13.5,-14.7 -28.4,-28.2 -43.9,-40.8 -6,-5 -14.9,-6.6 -22.6,-9.3 -8.2,-2.8 -20.2,-2.4 -24.1,-8 -11.1,-16.1 -28.2,-19.6 -43.7,-26.7 -9.4,-4.3 -16.3,1.3 -16.2,11.7 0.1,8.3 0.6,16.5 1.1,24.8 0.6,10.2 2.5,19.4 7.9,29.2 3.6,6.5 -4.9,19.4 -7,29.7 -2.5,11.8 -4.1,24 -6.1,36.7 -17.2,-13.1 -29.7,-27.9 -28.8,-38.5 1.2,-14.4 -6.9,-19.1 -17.7,-22.3 -6.7,-2 -13.8,-2.7 -20.3,-5.2 -4.8,-1.9 -10.2,-4.8 -12.9,-8.9 -10.1,-15.7 -7.3,-32.6 0.3,-47.9 12.4,-24.6 33.1,-41.8 54.5,-58.2 6.5,-5 11.7,-11.7 17.8,-17.9 -6.7,-6.1 -9,-14.8 -19.9,-10.3 -16.6,6.8 -26.6,0 -29.4,-18.2 -0.9,-5.9 -1.8,-11.8 -2.7,-18.2 -3.2,0 -6.3,0 -9.7,0 -2.7,12.7 -1.4,27.3 -16.1,32.5 -9.3,-3 -12,-9.5 -11,-18.4 0.5,-4.9 1.2,-10.2 -0.3,-14.6 -2.9,-8.5 -6.2,-17.2 -11.2,-24.4 -4.9,-7 -13.1,-11.6 -18.2,-18.5 -3.9,-5.4 -7.6,-6.8 -13.7,-6.4 -9.1,0.6 -15.8,4.3 -18.4,8.6 5.4,11.5 9.4,20.5 13.9,29.4 1.5,2.8 3.6,6.1 6.2,7.5 12.5,6.5 14.6,16 8.9,29.1 -2.2,-1.3 -4.5,-2.2 -6.3,-3.8 -24.5,-20 -49.2,-39.6 -73,-60.4 -13.9,-12 -25,-26.3 -23,-47.2 0.6,-6.5 -1.6,-13.5 -3.9,-19.7 -1.5,-3.9 -5.4,-9.3 -8.6,-9.6 -10.3,-1 -20.9,0 -31.3,0.6 -4.2,0.2 -8.7,2.4 -12.6,1.7 -11.5,-2.3 -20.1,-1.1 -23.3,12.5 -2.2,9.5 -7.9,12.6 -17.8,10.3 -19.3,-4.4 -27.3,0 -35.5,18.2 -4,8.7 -7.2,17.7 -11.4,28.2 -9.2,-3.7 -17.7,-7.1 -26.1,-10.5 2.4,5.8 6.1,11.2 11.2,13.6 12.3,6 25.5,9.9 37.8,15.8 9.4,4.5 21.2,8.8 26.3,16.9 10.4,16.7 12.4,36.8 8,56.4 -4.7,21.1 -12.8,41.7 -16,63 -3.3,21.5 -4,43.8 -2.9,65.6 0.6,10.2 -0.2,17.3 -6.8,25.1 -18,21.3 -31.4,46.1 -37.3,73.2 -5.8,27.4 -6.8,55.8 -9.8,83.7 -0.4,4.8 -0.8,10 0.5,14.4 11.4,38.8 23,77.5 35.3,115.9 3.6,11.5 12.8,19.1 23.4,24.7 -17.9,-22.9 -16,-51.4 -23.5,-77.6 2.7,-1.1 4.6,-2 6.7,-2.6 1.7,-0.5 3.6,-0.6 6.1,-0.9zm313.1 -825c20.6,0 41.3,0 62,0 4.3,0.7 8.7,1.5 13,2 28.2,3.2 56.6,4.7 84.4,9.9 91.7,17.1 177.4,50.9 255.6,102.9 23.9,16 45.9,34.8 68.9,52.3 -3.2,-1.8 -6.6,-3.2 -9.4,-5.4 -37.3,-29 -76.4,-54.9 -118,-77.2 -99.1,-53.1 -205.2,-78.3 -316.4,-81 -67.2,-1.6 -133.9,6.9 -198.7,26.1 -29.3,8.6 -58.1,18.9 -85.6,27.9 6.6,7.8 15.8,13.9 17.3,21.5 3.9,19.5 0.8,23 -16.9,31.8 -2.6,1.4 -5.1,3.2 -7.9,3.9 -12.8,3.3 -17.3,10.4 -13,23.8 2.4,7.1 -7.5,27.5 -13.4,28.4 -18.1,2.9 -26,18 -37.4,29.2 4,6.4 7.6,11.7 10.8,17.1 3.9,6.3 7.9,10.8 16.6,9.9 10.4,-1.1 13.9,6.3 8.3,15.8 -3.4,5.7 -7.1,11.1 -10.9,17.1 17.6,1.1 27.9,-10 38.5,-20.3 10.6,-10.4 20,-22.3 31.5,-31.7 6.4,-5.2 9.7,-9.9 10.1,-18.2 0.6,-16.2 1.8,-17.1 17.7,-18.8 10.8,-1.3 22.1,-1.3 30.6,-9.8 -4.1,-15.7 0.8,-22.4 17.1,-24.1 5.9,-0.6 11.9,-0.7 17.5,-2.3 8.1,-2.3 16.4,-4.9 15.3,-16.9 -0.2,-2.4 3.7,-7.2 6.3,-7.7 13.7,-2.9 27.6,-4.6 41.4,-6.9 3.2,-0.5 7.6,-0.1 9.3,-2 11.5,-13.9 25.6,-5.9 36.8,-6.8 3.4,6.2 4.7,13 8.3,14.5 23,10.1 47.7,13.3 70.6,2.3 20.7,-10 40.8,-10.2 60.9,-3.3 14.1,4.9 23.8,2.1 32.8,-8.7 5.7,-6.8 11.4,-8.2 19.6,-2.2 28.6,21.2 57.8,41.5 86.9,62.3 -1,5.4 -1.8,10 -3,16.4 8.7,-3.6 19,3.7 24.4,-8.1 0.4,-1 3.9,-1 5.9,-0.8 12.1,1.4 13.5,10.1 13.5,20.4 -17.5,4.6 -36.7,3.1 -50.6,17.8 7.3,13 15.9,24.5 30.7,30.3 9.6,3.7 18.3,9.6 27.7,13.9 15.3,7.1 27.7,17 35,32.7 10.1,21.7 29.7,26.6 45.6,29.6 11.6,-9.5 20.1,-16.5 29,-23.7 -25.9,-8.4 -37.6,-40.3 -69.5,-43.9 6.7,-5.8 11.6,-10 16.4,-14.2 -3.2,-4.1 -5.9,-7.5 -8.2,-10.5 4.3,-8.8 9,-8.3 16.2,-3.9 11,6.8 23.2,11.5 34.4,17.9 3.5,2 6.4,6.3 8.3,10.2 5,10.7 8,22.6 14.4,32.2 8.4,12.8 13.7,25.8 15.4,41.2 1.8,16.2 4,33.1 22,40.9 2.4,1 4.1,4.2 5.5,6.7 9.9,17.2 20.2,34.2 14,55.6 -0.5,1.8 -0.6,4 0,5.6 2.5,7.4 4.5,14.4 15.1,14.6 8.6,0.1 17.2,3.5 25.8,5.7 1.5,0.4 3.8,1.9 4,3 1,9 4.7,18 -3.6,26.3 -12.5,12.6 -11.5,22.9 1.5,35.7 3.1,3 5.7,7.9 6.2,12.2 1.8,14.7 15.5,15.7 24.5,21.7 2.2,1.4 9.9,-4.2 14,-7.8 2.8,-2.4 4.1,-6.8 5.3,-10.6 2.5,-7.8 3.3,-16.4 6.9,-23.6 3.7,-7.3 0.9,-10.6 -3.1,-16.4 -10.5,-15.2 -21.4,-30.7 -28.3,-47.7 -6,-15.2 -6.9,-32.5 -9.9,-49 -0.5,-2.4 -0.1,-5 -0.1,-6 8.8,-8.3 25.7,6.5 29.8,-13.2 -10,-4.8 -19.4,-9.2 -28.8,-13.7 0.1,-1.3 0.1,-2.6 0.2,-3.9 10.7,-2.1 21.7,-3.7 32.2,-6.8 3.8,-1.2 8.8,-6.1 9.2,-9.8 0.4,-3.6 -3.2,-9.9 -6.7,-11.6 -14,-6.8 -16.2,-19.1 -16.9,-32.5 -0.2,-4.1 1.3,-8.7 0,-12.4 -5.2,-14.8 -8.6,-31.3 -17.5,-43.5 -13.6,-18.4 -31.2,-33.8 -47.1,-50.4 3.8,2.8 7.9,5.3 11.4,8.6 33.9,32.3 65.7,66.7 92.3,105.7 14.8,21.7 27.7,44.7 41.4,67.1 -6.3,-9.4 -12.7,-18.8 -19,-28.3 -6.5,-9.6 -13,-19.3 -19.4,-29 -1.1,0.5 -2.1,1 -3.2,1.4 1.4,8.4 2.5,16.8 4.4,25 2.4,10.7 -0.6,17.3 -11.5,22 12.4,19.1 31.9,35.6 23,63 -4.3,-0.9 -8.9,-2.2 -13.6,-2.7 -5,-0.5 -9.6,-0.3 -9.8,7.1 -0.7,27.6 -1.5,55.2 -2.9,82.7 -0.4,7.5 -1.9,15.5 -4.9,22.3 -5.3,11.9 -9.1,23.2 -3.3,36.2 5.1,11.2 9.6,22.8 13.6,34.4 2.2,6.6 3.7,13.6 3.9,20.5 1.1,29.6 -0.8,59.5 2.9,88.7 5.5,43.1 18.3,84.4 50.4,115.7 6.9,6.7 18.8,9.2 28.9,10.8 3,0.5 7.6,-8.6 11.4,-13.3l1.8 -2.8c8,-11.4 12.5,-25.9 27.8,-30.6 1.5,-0.5 2.9,-4.1 3.1,-6.4 5.5,-56.2 5,-112.5 -2.8,-168.4 -9.2,-65.8 -26.2,-129.6 -54.1,-190 -9,-19.6 -18,-39.1 -27,-58.7 1.2,1.3 2.8,2.4 3.6,3.9 11,22.8 22.8,45.2 32.6,68.5 27.1,64.3 44.3,131.2 50.4,201 1.2,13.3 2.7,26.7 4.1,40 0,21.8 0,43.6 0,65.4 -0.7,4 -1.8,8 -2,12 -2.9,53.7 -12,106.4 -28,157.5 -60.3,191.6 -178.4,334.6 -352.8,429 -74.3,40.3 -153.7,65.4 -237.4,75.8 -20,2.4 -40.1,4.4 -60.2,6.6 -22.2,0 -44.4,0 -66.5,0 -4.7,-0.7 -9.4,-1.5 -14.1,-2 -27.4,-3.3 -55.1,-5.1 -82.2,-10.1 -66.8,-12.2 -130.8,-34.1 -191.3,-65.6 -136.8,-71.3 -240.8,-176.4 -310.6,-315.7 -35.1,-70.1 -57.9,-144.5 -67,-222.9 -2.3,-20 -4.3,-40.1 -6.4,-60.1 0,-21.1 0,-42.1 0,-63.1 0.7,-4.1 1.8,-8.1 2,-12.2 2.4,-55.6 12.5,-109.9 29.2,-162.8 55.6,-176.7 162.6,-312.1 318.9,-407.3 83.7,-50.9 174.3,-82 271.1,-94.3 20.5,-2.6 41,-4.4 61.5,-6.6z"/>
    <path class="fil50" d="M3139.6 968.2c-2.5,0.3 -4.4,0.4 -6.1,0.9 -2.1,0.6 -4,1.5 -6.7,2.6 7.5,26.2 5.6,54.7 23.5,77.6 -10.6,-5.6 -19.8,-13.2 -23.4,-24.7 -12.3,-38.4 -23.9,-77.1 -35.3,-115.9 -1.3,-4.4 -0.9,-9.6 -0.5,-14.4 3,-27.9 4,-56.3 9.8,-83.7 5.9,-27.1 19.3,-51.9 37.3,-73.2 6.6,-7.8 7.4,-14.9 6.8,-25.1 -1.1,-21.8 -0.4,-44.1 2.9,-65.6 3.2,-21.3 11.3,-41.9 16,-63 4.4,-19.6 2.4,-39.7 -8,-56.4 -5.1,-8.1 -16.9,-12.4 -26.3,-16.9 -12.3,-5.9 -25.5,-9.8 -37.8,-15.8 -5.1,-2.4 -8.8,-7.8 -11.2,-13.6 8.4,3.4 16.9,6.8 26.1,10.5 4.2,-10.5 7.4,-19.5 11.4,-28.2 8.2,-18.2 16.2,-22.6 35.5,-18.2 9.9,2.3 15.6,-0.8 17.8,-10.3 3.2,-13.6 11.8,-14.8 23.3,-12.5 3.9,0.7 8.4,-1.5 12.6,-1.7 10.4,-0.6 21,-1.6 31.3,-0.6 3.2,0.3 7.1,5.7 8.6,9.6 2.3,6.2 4.5,13.2 3.9,19.7 -2,20.9 9.1,35.2 23,47.2 23.8,20.8 48.5,40.4 73,60.4 1.8,1.6 4.1,2.5 6.3,3.8 5.7,-13.1 3.6,-22.6 -8.9,-29.1 -2.6,-1.4 -4.7,-4.7 -6.2,-7.5 -4.5,-8.9 -8.5,-17.9 -13.9,-29.4 2.6,-4.3 9.3,-8 18.4,-8.6 6.1,-0.4 9.8,1 13.7,6.4 5.1,6.9 13.3,11.5 18.2,18.5 5,7.2 8.3,15.9 11.2,24.4 1.5,4.4 0.8,9.7 0.3,14.6 -1,8.9 1.7,15.4 11,18.4 14.7,-5.2 13.4,-19.8 16.1,-32.5 3.4,0 6.5,0 9.7,0 0.9,6.4 1.8,12.3 2.7,18.2 2.8,18.2 12.8,25 29.4,18.2 10.9,-4.5 13.2,4.2 19.9,10.3 -6.1,6.2 -11.3,12.9 -17.8,17.9 -21.4,16.4 -42.1,33.6 -54.5,58.2 -7.6,15.3 -10.4,32.2 -0.3,47.9 2.7,4.1 8.1,7 12.9,8.9 6.5,2.5 13.6,3.2 20.3,5.2 10.8,3.2 18.9,7.9 17.7,22.3 -0.9,10.6 11.6,25.4 28.8,38.5 2,-12.7 3.6,-24.9 6.1,-36.7 2.1,-10.3 10.6,-23.2 7,-29.7 -5.4,-9.8 -7.3,-19 -7.9,-29.2 -0.5,-8.3 -1,-16.5 -1.1,-24.8 -0.1,-10.4 6.8,-16 16.2,-11.7 15.5,7.1 32.6,10.6 43.7,26.7 3.9,5.6 15.9,5.2 24.1,8 7.7,2.7 16.6,4.3 22.6,9.3 15.5,12.6 30.4,26.1 43.9,40.8 8.1,8.8 15.6,21.7 5.9,33 -6,7.1 -16.8,11.8 -26.3,13.6 -19.9,3.7 -35.5,13.6 -48.2,28.9 -1.8,2 -1,6.2 -1.4,9.4l2.7 1.8c7.3,-4.7 14.9,-9 21.9,-14.1 9.9,-7.4 17.6,-5 18.9,7 1.1,9.8 8,9.4 14.4,9.7 4,0.1 8.2,-2 12,-1.5 2.8,0.3 6.7,2.8 7.5,5.3 0.8,2.3 -1,7 -3.1,8.5 -7.3,5 -15.4,8.8 -22.9,13.5 -3.7,2.3 -6.6,6.1 -10.4,8.2 -3.1,1.7 -8,3.6 -10.6,2.3 -9,-4.5 -14.6,0.6 -20.6,5.5l-1.4 1.8c-10,12.2 -15,27.2 -27.5,38.8 -16.6,15.4 -23.8,38.5 -23.7,62.3 0,7.5 -2.1,12.7 -8.2,17 -8.7,6.2 -16.7,13.7 -25.5,19.7 -16.2,11 -22.6,27.1 -24,45.8 -0.4,4.1 1.9,8.4 3.3,12.7 2.9,9.5 6,19 9,28.3 -7.7,6.6 -13,6.9 -17.8,-1.6 -3.8,-6.8 -8.7,-13 -13.1,-19.5 -15.3,-23.1 -41.3,-30.8 -67.1,-20.1 -7.3,3.1 -14.2,3.5 -22,-0.8 -19.7,-11 -48.4,-2.5 -63,14.5 -17.5,20.7 -16.3,44.1 -12.8,68 1.8,12.5 39,34.2 51.4,31.4 7.5,-1.7 13.2,-4.7 17.1,-12.4 5.2,-10.2 20.8,-13.2 30.4,-7.6 5,2.9 6.8,6 5,11.7 -3,9.5 -4.7,19.5 -8.3,28.8 -4.5,12 -0.8,19.1 11.5,18.8 16.5,-0.4 32.1,2 46.5,11.2 6.8,4.4 8.5,9.6 6.8,16.9 -0.5,2.5 -0.9,5.1 -1.6,7.7 -7.1,26.4 5,44.1 32.4,47.1 8.7,1 17.5,2.7 26.3,3 4,0.1 8.8,-1.3 12.2,-3.7 12.3,-8.6 23.8,-18.7 36.6,-26.4 5.1,-3 13.5,-3 19.5,-1.1 13.3,4.2 25.8,11.1 39.3,0.4 2.2,-1.7 6.4,-0.8 9.7,-1.1 21.2,-2.3 42.4,-4.7 63.6,-6.7 4.4,-0.4 9.7,-0.5 13.5,1.4 34.3,17.2 70.4,23.8 108.4,19.7 7,-0.7 11.8,1.5 16,7.2 5.6,7.5 12.5,13.9 17.9,21.5 4.6,6.6 10.2,7.4 17.3,6.3 31.3,-5 62.7,-9.2 91.9,-22.8 13.4,-6.3 19.6,6.4 29.9,12.1 -7.4,10.9 -14.2,21.5 -21.5,31.6 -14,19.4 -24.1,40.2 -25.4,64.8 -0.1,2.8 -2.3,6.2 -4.6,8 -83.2,67 -175.7,115 -278.8,141.1 -19.6,5 -39.7,8.4 -59.6,12.2 -3.9,0.8 -11.1,0.8 -11.7,-0.9 -1.7,-4.4 -2.2,-10.6 -0.3,-14.7 4.6,-10.5 6.6,-20.6 2.2,-32.9 -15.1,4.5 -21.7,-7.6 -29.6,-17.2 -21,-25.6 -46.5,-45.6 -74.3,-63.1 -14.3,-9 -17.5,-29.1 -10.6,-45.1 4.4,-10.2 10.3,-17.1 21.4,-20.3 12.9,-3.6 17.8,-11.6 18.2,-25.5 0.2,-6 0.1,-12 0.5,-18 0.3,-5.6 1.2,-11.1 2.1,-19 -10.3,-0.4 -21,-2.4 -31.2,-0.6 -11.2,1.9 -21,0 -31,-4.1 -2.1,-0.8 -4.1,-1.9 -6.3,-2.3 -19.6,-4.3 -30.6,-16.5 -38,-35.7 -8.7,-22.5 -29.8,-33.8 -50.1,-43.3 -21.4,-10 -43.8,-17.8 -66.1,-25.4 -17.7,-6.1 -33.3,-14.6 -47.3,-27.6 -11.5,-10.7 -25.2,-19.1 -38.6,-27.5 -11,-6.9 -15.7,-19.5 -14.3,-32.1 1,-9.5 -0.1,-21 -4.6,-29.2 -16.2,-29.9 -25.7,-62 -34.3,-94.5 -0.4,-1.8 -1.4,-3.4 -2.6,-6.1z"/>
    <path class="fil50" d="M3936.6 310.3c5.5,5 10.9,9.9 16.4,14.9 15.9,16.6 33.5,32 47.1,50.4 8.9,12.2 12.3,28.7 17.5,43.5 1.3,3.7 -0.2,8.3 0,12.4 0.7,13.4 2.9,25.7 16.9,32.5 3.5,1.7 7.1,8 6.7,11.6 -0.4,3.7 -5.4,8.6 -9.2,9.8 -10.5,3.1 -21.5,4.7 -32.2,6.8 -0.1,1.3 -0.1,2.6 -0.2,3.9 9.4,4.5 18.8,8.9 28.8,13.7 -4.1,19.7 -21,4.9 -29.8,13.2 0,1 -0.4,3.6 0.1,6 3,16.5 3.9,33.8 9.9,49 6.9,17 17.8,32.5 28.3,47.7 4,5.8 6.8,9.1 3.1,16.4 -3.6,7.2 -4.4,15.8 -6.9,23.6 -1.2,3.8 -2.5,8.2 -5.3,10.6 -4.1,3.6 -11.8,9.2 -14,7.8 -9,-6 -22.7,-7 -24.5,-21.7 -0.5,-4.3 -3.1,-9.2 -6.2,-12.2 -13,-12.8 -14,-23.1 -1.5,-35.7 8.3,-8.3 4.6,-17.3 3.6,-26.3 -0.2,-1.1 -2.5,-2.6 -4,-3 -8.6,-2.2 -17.2,-5.6 -25.8,-5.7 -10.6,-0.2 -12.6,-7.2 -15.1,-14.6 -0.6,-1.6 -0.5,-3.8 0,-5.6 6.2,-21.4 -4.1,-38.4 -14,-55.6 -1.4,-2.5 -3.1,-5.7 -5.5,-6.7 -18,-7.8 -20.2,-24.7 -22,-40.9 -1.7,-15.4 -7,-28.4 -15.4,-41.2 -6.4,-9.6 -9.4,-21.5 -14.4,-32.2 -1.9,-3.9 -4.8,-8.2 -8.3,-10.2 -11.2,-6.4 -23.4,-11.1 -34.4,-17.9 -7.2,-4.4 -11.9,-4.9 -16.2,3.9 2.3,3 5,6.4 8.2,10.5 -4.8,4.2 -9.7,8.4 -16.4,14.2 31.9,3.6 43.6,35.5 69.5,43.9 -8.9,7.2 -17.4,14.2 -29,23.7 -15.9,-3 -35.5,-7.9 -45.6,-29.6 -7.3,-15.7 -19.7,-25.6 -35,-32.7 -9.4,-4.3 -18.1,-10.2 -27.7,-13.9 -14.8,-5.8 -23.4,-17.3 -30.7,-30.3 13.9,-14.7 33.1,-13.2 50.6,-17.8 0,-10.3 -1.4,-19 -13.5,-20.4 -2,-0.2 -5.5,-0.2 -5.9,0.8 -5.4,11.8 -15.7,4.5 -24.4,8.1 1.2,-6.4 2,-11 3,-16.4 -29.1,-20.8 -58.3,-41.1 -86.9,-62.3 -8.2,-6 -13.9,-4.6 -19.6,2.2 -9,10.8 -18.7,13.6 -32.8,8.7 -20.1,-6.9 -40.2,-6.7 -60.9,3.3 -22.9,11 -47.6,7.8 -70.6,-2.3 -3.6,-1.5 -4.9,-8.3 -8.3,-14.5 -11.2,0.9 -25.3,-7.1 -36.8,6.8 -1.7,1.9 -6.1,1.5 -9.3,2 -13.8,2.3 -27.7,4 -41.4,6.9 -2.6,0.5 -6.5,5.3 -6.3,7.7 1.1,12 -7.2,14.6 -15.3,16.9 -5.6,1.6 -11.6,1.7 -17.5,2.3 -16.3,1.7 -21.2,8.4 -17.1,24.1 -8.5,8.5 -19.8,8.5 -30.6,9.8 -15.9,1.7 -17.1,2.6 -17.7,18.8 -0.4,8.3 -3.7,13 -10.1,18.2 -11.5,9.4 -20.9,21.3 -31.5,31.7 -10.6,10.3 -20.9,21.4 -38.5,20.3 3.8,-6 7.5,-11.4 10.9,-17.1 5.6,-9.5 2.1,-16.9 -8.3,-15.8 -8.7,0.9 -12.7,-3.6 -16.6,-9.9 -3.2,-5.4 -6.8,-10.7 -10.8,-17.1 11.4,-11.2 19.3,-26.3 37.4,-29.2 5.9,-0.9 15.8,-21.3 13.4,-28.4 -4.3,-13.4 0.2,-20.5 13,-23.8 2.8,-0.7 5.3,-2.5 7.9,-3.9 17.7,-8.8 20.8,-12.3 16.9,-31.8 -1.5,-7.6 -10.7,-13.7 -17.3,-21.5 27.5,-9 56.3,-19.3 85.6,-27.9 64.8,-19.2 131.5,-27.7 198.7,-26.1 111.2,2.7 217.3,27.9 316.4,81 41.6,22.3 80.7,48.2 118,77.2 2.8,2.2 6.2,3.6 9.4,5.4z"/>
    <path class="fil50" d="M4097.8 506.2c9,19.6 18,39.1 27,58.7 27.9,60.4 44.9,124.2 54.1,190 7.8,55.9 8.3,112.2 2.8,168.4 -0.2,2.3 -1.6,5.9 -3.1,6.4 -15.3,4.7 -19.8,19.2 -27.8,30.6l-1.8 2.8c-3.8,4.7 -8.4,13.8 -11.4,13.3 -10.1,-1.6 -22,-4.1 -28.9,-10.8 -32.1,-31.3 -44.9,-72.6 -50.4,-115.7 -3.7,-29.2 -1.8,-59.1 -2.9,-88.7 -0.2,-6.9 -1.7,-13.9 -3.9,-20.5 -4,-11.6 -8.5,-23.2 -13.6,-34.4 -5.8,-13 -2,-24.3 3.3,-36.2 3,-6.8 4.5,-14.8 4.9,-22.3 1.4,-27.5 2.2,-55.1 2.9,-82.7 0.2,-7.4 4.8,-7.6 9.8,-7.1 4.7,0.5 9.3,1.8 13.6,2.7 8.9,-27.4 -10.6,-43.9 -23,-63 10.9,-4.7 13.9,-11.3 11.5,-22 -1.9,-8.2 -3,-16.6 -4.4,-25 1.1,-0.4 2.1,-0.9 3.2,-1.4 6.4,9.7 12.9,19.4 19.4,29 6.3,9.5 12.7,18.9 19,28.3l-0.3 -0.4z"/>
    <path class="fil50" d="M3710.5 624.4c-14.2,4.7 -26.3,8.1 -37.9,12.8 -9.5,3.8 -17.8,2.8 -25.7,-3.4 -9.7,-7.7 -24.4,-10.6 -24.9,-27.2l-2.1 -2.4c-18.8,-5.1 -16.8,-21.8 -18.2,-35.5 -1.1,-10.6 -4.4,-18.6 -12.8,-24.7 -19.1,-13.8 -38.3,-27.5 -57.1,-41.8 -10.5,-8 -21.5,-15.9 -24.5,-30.4 -1,-4.4 -2.9,-8.5 -4.4,-13.1 -16.7,10.3 -15.3,29.3 -22.3,45 -5.7,-3.6 -11.5,-6.7 -16.8,-10.5 -11.2,-7.8 -13.3,-16.8 -9.3,-29.3 2.9,-9.1 3.9,-18.9 6.6,-32.6 8.2,-2.2 20.6,-5.7 33.6,-9.3 1.8,5.8 2.8,9.1 3.7,12.2 10.3,1.8 16.4,-2.6 23.1,-9.9 5.8,-6.2 14.9,-10.8 23.3,-12.8 16.1,-3.9 32.3,-5.1 47.7,5.2 10.2,6.9 21.8,12.6 33.6,16.2 28.2,8.8 47.3,29.6 67.1,49.7 5.8,5.8 3.9,25.6 -2.8,30.8 -9.4,7.4 -12.3,16.4 -12,28.2 0.4,13.8 -1.2,27.7 -2.1,41.6 -1.6,22.5 2.2,28.7 23,36.4 3,1.1 5.9,2.5 11.2,4.8z"/>
    <path class="fil50" d="M3488.9 630.2c1.6,-1.4 3.5,-3.1 5.4,-4.7 16.3,-12.9 18.4,-30.6 5.1,-47 -1.7,-2.1 -4.4,-3.7 -7,-4.8 -4.4,-1.7 -9,-3.2 -13.7,-4.3 -18.7,-4.2 -32.6,-14.7 -41.4,-32.3 8.5,-13.5 11.1,-15.8 25.2,-10.1 19.1,7.7 37.3,17.7 55.5,27.4 3,1.7 4.9,6.5 6.1,10.2 4.1,12.3 12.1,20.8 24.1,24.3 11.9,3.4 20.6,14 20,22.7 -0.8,11.9 -9.1,23.7 -16.1,34.2 -1.7,2.6 -11.1,1.2 -16.4,-0.3 -15.5,-4.5 -30.7,-10 -46.8,-15.3z"/>
    <path class="fil50" d="M3894.9 562c-9,0.5 -26.8,-9.3 -28.8,-18.4 -4.6,-21.3 -14.1,-40 -25.3,-58.1 -0.7,-1.2 -0.8,-2.8 -1.2,-4.2 5.7,-5.5 9.6,-4.4 16,0.1 12.9,8.9 27.3,15.6 41.1,23.1 1.6,0.9 3.4,1.5 5,2.2 30.4,13.4 25.6,11.7 21.9,42.1 -16.4,-7.3 -32.5,-14.5 -49.3,-22 -2.4,18.3 20.7,19.7 20.6,35.2z"/>
    <path class="fil50" d="M3743.8 545.2c-18.9,-5.3 -23.3,-12.3 -24,-37 5.7,-5.2 10.8,-9.1 15.2,-13.8 9.2,-10 20,-9.3 33.9,2.8 -4.7,25.5 -6.8,29.6 -25.1,48z"/>
    <path class="fil50" d="M3431.4 1136.1c7.5,-0.5 12.7,-1.9 17.5,-0.9 24.4,5 48.7,10.4 72.8,16.4 6.6,1.6 12.7,5.5 19,8.4 -3.6,11.3 -21.3,16.6 -31.3,10 -7.4,-4.9 -14.2,-11.1 -22.2,-14.4 -17.2,-6.9 -35,-12.4 -55.8,-19.5z"/>
    <path class="fil50" d="M3654.1 758.6c16.3,17.5 36.8,28.1 49,48.2 -11.1,-0.5 -22.8,7.5 -31.8,-3.3 -10.3,-12.2 -25.3,-22.8 -17.2,-44.9z"/>
    <path class="fil50" d="M3606.9 1181.5c-17.8,5.2 -34.2,5.5 -49.9,-2.1 -2.5,-1.1 -4.1,-4.2 -6.1,-6.4 2.4,-2.1 4.5,-5.3 7.2,-6.2 6,-1.9 12.2,-3.3 18.4,-3.9 6.9,-0.7 14.5,-3.2 16.8,8.5 0.7,3.8 8.2,6.3 13.6,10.1z"/>
   </g>
  </g>
 </g>
</svg>
